<svg width="1270" height="769" viewBox="0 0 1270 769" fill="none" xmlns="http://www.w3.org/2000/svg">
<rect width="1270" height="760" rx="12" fill="#E2F0E9"/>
<g filter="url(#filter0_d_3120_16351)">
<path d="M540.121 728.583C539.88 735.203 545.05 740.779 551.675 740.792C606.212 740.898 660.099 728.462 709.103 704.39C758.075 680.333 800.742 645.356 833.813 602.248C837.861 596.97 836.577 589.439 831.152 585.606L570.626 401.527C562.84 396.025 552.043 401.376 551.696 410.909L540.121 728.583Z" fill="white"/>
<path d="M551.677 740.292C545.346 740.279 540.389 734.949 540.621 728.601L552.195 410.926C552.528 401.791 562.875 396.663 570.337 401.935L830.863 586.014C836.066 589.691 837.285 596.9 833.416 601.944C800.392 644.991 757.786 679.918 708.883 703.941C659.948 727.98 606.137 740.397 551.677 740.292Z" stroke="#A2DABD"/>
</g>
<path d="M619 610.134C619 615.001 626.964 618.946 636.786 618.946C646.611 618.946 654.574 615.001 654.574 610.134H651.549L638.758 575.058C639.2 574.892 639.616 574.669 639.964 574.359L665.354 589.028V592.046H666.905V652.524H664.868V656.487H657.409C653.743 656.487 650.773 659.457 650.773 663.121V663.845H645.667V669H692.7V663.845H687.594V663.121C687.594 659.457 684.624 656.487 680.959 656.487H673.5V652.524H671.463V592.465L697.214 607.396C697.092 607.974 697.107 608.577 697.266 609.163C697.473 609.935 697.911 610.601 698.513 611.101L685.501 646.771H682.381C682.381 651.638 690.345 655.582 700.167 655.582C709.992 655.582 717.955 651.638 717.955 646.771H714.93L702.171 611.776C703.05 611.479 703.79 610.895 704.257 610.084C704.589 609.512 704.393 608.779 703.819 608.449C703.25 608.119 702.516 608.314 702.185 608.888C702 609.207 701.704 609.432 701.353 609.535L700.893 608.273C700.691 607.715 699.781 607.71 699.557 608.251C699.541 607.978 699.579 607.707 699.719 607.464L700.316 606.43L673.013 590.597V585.433H670.424L673.092 581.93L669.183 571.881L665.273 581.93L667.941 585.433H665.353V586.264L639.253 571.184L638.655 572.22C638.493 572.499 638.236 572.692 637.939 572.81L637.511 571.634C637.305 571.067 636.368 571.067 636.162 571.634L636.063 571.907C635.956 571.546 635.986 571.146 636.189 570.795C636.52 570.224 636.324 569.491 635.751 569.161C635.182 568.83 634.448 569.026 634.116 569.599C633.15 571.275 633.614 573.375 635.11 574.522L622.121 610.133L619 610.134ZM713.405 646.773H700.937V612.585L713.405 646.773ZM687.034 646.773L699.504 612.583V646.773H687.034ZM636.121 575.947V610.136H623.65L636.121 575.947ZM650.022 610.134H637.555V575.947L650.022 610.134Z" fill="#A2DABD"/>
<g filter="url(#filter1_d_3120_16351)">
<path d="M862.236 617.754C867.582 621.649 875.097 620.486 878.852 615.031C921.007 553.795 945.662 482.183 950.041 407.903C954.419 333.622 938.343 259.66 903.666 193.992C900.578 188.144 893.253 186.127 887.485 189.382L558.2 375.198C550.591 379.491 549.958 390.205 557.01 395.343L862.236 617.754Z" fill="white"/>
<path d="M878.44 614.748C874.85 619.963 867.658 621.085 862.531 617.349L557.305 394.939C550.547 390.015 551.154 379.747 558.445 375.633L887.73 189.817C893.261 186.696 900.272 188.635 903.224 194.226C937.859 259.813 953.914 333.684 949.541 407.874C945.169 482.063 920.544 553.587 878.44 614.748Z" stroke="#A2DABD"/>
</g>
<path d="M775 395.57C775 395.57 779.343 388.427 792.857 388.427C806.374 388.427 810.714 399.142 810.714 399.142C810.714 399.142 824.999 384.856 839.284 399.142C839.284 399.142 824.805 371.685 821.427 359.857L814.285 363.428H799.999C799.999 363.428 791.749 350.447 803.571 342C803.571 342 822.006 344.268 832.141 352.714C842.281 361.161 862.788 374.374 867.856 409.857C867.856 409.857 856.181 424.339 839.285 427.714C822.389 431.093 807.143 427.714 807.143 427.714C807.143 427.714 795.275 442 775 442V395.57Z" fill="#A2DABD"/>
<g filter="url(#filter2_d_3120_16351)">
<path d="M869.563 231.261C875.612 228.369 878.146 221.077 874.962 215.186C844.501 158.821 799.072 111.496 743.416 78.3189C687.68 45.0937 623.913 27.3826 558.94 26.9649C552.29 26.9221 547.044 32.4885 547.241 39.133L556.818 362.118C557.075 370.781 566.154 376.309 573.98 372.568L869.563 231.261Z" fill="white"/>
<path d="M874.522 215.424C877.564 221.054 875.149 228.036 869.348 230.81L573.764 372.117C566.265 375.703 557.564 370.405 557.318 362.103L547.741 39.1174C547.552 32.7453 552.581 27.4239 558.936 27.4648C623.82 27.882 687.5 45.5689 743.159 78.7484C798.738 111.88 844.104 159.139 874.522 215.424Z" stroke="#A2DABD"/>
</g>
<path d="M699.415 126.522C699.415 133.937 693.617 139.771 686.205 139.543C678.49 139.306 672 132.644 672 124.672C672 116.7 678.487 110.912 686.205 111.715C693.617 112.49 699.415 119.105 699.415 126.522Z" fill="url(#paint0_linear_3120_16351)"/>
<path d="M701.42 125.881C701.42 133.298 695.62 139.132 688.208 138.903C680.495 138.664 674.003 132.003 674.003 124.031C674.003 116.06 680.492 110.271 688.208 111.074C695.62 111.849 701.42 118.466 701.42 125.881Z" fill="url(#paint1_linear_3120_16351)"/>
<path d="M700.419 125.764C700.419 132.62 695.05 137.997 688.207 137.771C681.104 137.532 675.153 131.392 675.153 124.063C675.153 116.734 681.108 111.397 688.207 112.116C695.05 112.806 700.419 118.907 700.419 125.764Z" fill="url(#paint2_linear_3120_16351)"/>
<path d="M687.539 118.886C687.638 118.897 687.73 118.945 687.797 119.019C687.864 119.093 687.901 119.189 687.902 119.289V119.985C688.308 120.03 688.71 120.1 689.107 120.194C689.405 120.264 689.7 120.347 689.992 120.443C690.078 120.471 690.153 120.528 690.204 120.603C690.255 120.679 690.278 120.77 690.271 120.861L690.187 121.733C690.183 121.786 690.166 121.837 690.138 121.882C690.109 121.927 690.071 121.964 690.025 121.991C689.979 122.018 689.927 122.033 689.874 122.035C689.821 122.037 689.769 122.027 689.721 122.004C689.527 121.918 689.329 121.844 689.127 121.783C688.763 121.674 688.388 121.604 688.009 121.574L687.906 121.565V123.558C688.952 123.85 689.723 124.244 690.218 124.74C690.462 124.98 690.655 125.268 690.783 125.586C690.911 125.903 690.973 126.244 690.964 126.586C690.964 127.384 690.691 128.024 690.145 128.505C689.595 128.99 688.824 129.263 687.827 129.322V130.092C687.828 130.14 687.819 130.187 687.801 130.231C687.783 130.275 687.756 130.315 687.722 130.348C687.688 130.381 687.647 130.407 687.603 130.424C687.558 130.441 687.511 130.449 687.463 130.447H687.457C687.358 130.442 687.266 130.399 687.198 130.328C687.13 130.256 687.092 130.161 687.093 130.062V129.306L686.93 129.298C686.48 129.279 686.032 129.231 685.587 129.155C685.275 129.101 684.965 129.029 684.66 128.941C684.571 128.916 684.494 128.862 684.441 128.786C684.388 128.711 684.362 128.62 684.368 128.528L684.469 127.409C684.474 127.353 684.491 127.299 684.521 127.252C684.55 127.204 684.59 127.164 684.638 127.135C684.686 127.106 684.74 127.088 684.796 127.084C684.852 127.08 684.908 127.089 684.959 127.11C685.638 127.379 686.353 127.543 687.08 127.597L687.087 125.38C686.082 125.132 685.331 124.764 684.835 124.275C684.34 123.787 684.091 123.16 684.09 122.395C684.09 121.606 684.359 120.998 684.899 120.569C685.438 120.14 686.197 119.929 687.175 119.934V119.223C687.173 119.176 687.181 119.129 687.2 119.086C687.218 119.042 687.245 119.003 687.28 118.971C687.314 118.939 687.355 118.915 687.4 118.9C687.445 118.885 687.492 118.881 687.539 118.886ZM687.175 121.545C686.912 121.55 686.659 121.639 686.45 121.798C686.364 121.872 686.296 121.964 686.251 122.067C686.206 122.171 686.185 122.283 686.189 122.396C686.187 122.507 686.206 122.616 686.248 122.718C686.29 122.821 686.352 122.913 686.431 122.99C686.591 123.149 686.84 123.276 687.176 123.371L687.175 121.545ZM687.818 125.558V127.59C688.156 127.59 688.415 127.51 688.596 127.349C688.688 127.261 688.76 127.155 688.807 127.037C688.854 126.918 688.874 126.791 688.866 126.665C688.87 126.542 688.85 126.42 688.807 126.305C688.764 126.19 688.699 126.085 688.615 125.996C688.447 125.818 688.182 125.672 687.818 125.558Z" fill="#6A4000"/>
<path d="M728.403 189.145H660.402C659.101 189.143 657.845 188.667 656.869 187.808C655.892 186.95 655.26 185.765 655.091 184.475L654.343 178.648H712.5C713.821 178.645 715.1 178.186 716.121 177.348C717.143 176.51 717.843 175.345 718.105 174.05L725.022 139.483H725.021C725.358 137.802 724.924 136.059 723.838 134.734C722.753 133.408 721.131 132.638 719.417 132.635H648.425L646.972 121.363C646.872 120.586 646.211 120.003 645.428 120H631.599C631.179 119.991 630.771 120.15 630.47 120.444C630.17 120.738 630 121.141 630 121.562C630 121.982 630.17 122.385 630.47 122.679C630.771 122.973 631.179 123.133 631.599 123.123H644.054L651.994 184.872H651.993C652.26 186.914 653.26 188.79 654.806 190.15C656.353 191.51 658.341 192.262 660.4 192.266H728.401C728.822 192.277 729.229 192.117 729.53 191.823C729.83 191.529 730 191.126 730 190.706C730 190.285 729.83 189.882 729.53 189.588C729.229 189.294 728.822 189.134 728.401 189.144L728.403 189.145ZM699.606 166.814L702.102 146.069H702.101C702.193 145.286 702.857 144.695 703.645 144.695C703.712 144.695 703.778 144.699 703.845 144.707C704.699 144.811 705.309 145.587 705.207 146.443L702.706 167.186C702.613 167.969 701.95 168.559 701.161 168.562C701.099 168.561 701.037 168.558 700.975 168.549C700.564 168.501 700.189 168.29 699.934 167.964C699.678 167.639 699.562 167.225 699.612 166.814L699.606 166.814ZM684.089 146.256C684.089 145.394 684.788 144.695 685.65 144.695C686.513 144.695 687.212 145.394 687.212 146.256V167C687.212 167.862 686.513 168.561 685.65 168.561C684.788 168.561 684.089 167.862 684.089 167V146.256ZM667.465 144.707C667.525 144.699 667.586 144.696 667.647 144.695C668.437 144.696 669.102 145.286 669.197 146.07L671.698 166.813C671.748 167.224 671.632 167.638 671.377 167.964C671.121 168.289 670.747 168.5 670.336 168.549C670.274 168.557 670.211 168.561 670.148 168.561C669.361 168.558 668.699 167.969 668.604 167.186L666.102 146.443C666 145.588 666.609 144.811 667.465 144.707L667.465 144.707Z" fill="#A2DABD"/>
<path d="M668.595 194.862C666.454 194.86 664.399 195.708 662.884 197.221C661.369 198.734 660.516 200.787 660.515 202.928C660.513 205.07 661.363 207.124 662.876 208.638C664.389 210.154 666.443 211.005 668.584 211.006C670.725 211.007 672.779 210.157 674.293 208.642C675.808 207.129 676.659 205.075 676.659 202.934C676.656 200.795 675.805 198.746 674.294 197.232C672.782 195.719 670.734 194.867 668.595 194.861V194.862Z" fill="#A2DABD"/>
<path d="M713.094 194.862C710.953 194.86 708.898 195.708 707.383 197.221C705.868 198.734 705.015 200.787 705.014 202.928C705.012 205.07 705.862 207.124 707.375 208.638C708.888 210.154 710.942 211.005 713.083 211.006C715.224 211.007 717.278 210.157 718.793 208.642C720.307 207.129 721.158 205.075 721.158 202.934C721.155 200.795 720.304 198.746 718.793 197.232C717.281 195.719 715.233 194.867 713.094 194.861V194.862Z" fill="#A2DABD"/>
<path d="M158.752 688.784L157.778 585.876L187.779 584.521L171.999 688.784H158.752Z" fill="#000A03"/>
<path d="M158.93 685.713C158.93 685.713 155.19 693.426 155.402 699.851L192.568 699.999C192.568 699.999 191.122 696.409 181.347 693.166C175.413 691.197 172.957 691.123 170.7 685.738L158.93 685.713Z" fill="#0057D9"/>
<path d="M155.523 699.876L155.509 703.082L192.687 703.243L192.701 700.037L155.523 699.876Z" fill="#000A03"/>
<path d="M202.584 683.176C202.584 668.475 216.608 598.451 216.61 582.976C216.611 571.725 247.346 578.577 244.857 589.553C238.233 618.761 221.441 669.69 216.61 683.176C213.492 691.88 202.584 688.615 202.584 683.176Z" fill="#000A03"/>
<path d="M203.356 682.048C203.356 682.048 198.374 689.034 197.504 695.405L234.126 701.7C234.126 701.7 233.302 697.921 224.209 693.105C218.687 690.183 216.278 689.703 214.957 684.02L203.356 682.048Z" fill="#0057D9"/>
<path d="M197.618 695.45L197.066 698.609L233.698 704.919L234.25 701.76L197.618 695.45Z" fill="#000A03"/>
<path d="M178.429 487.61C197.521 530.553 210.377 584.328 217.196 590.905C224.751 598.193 245.806 590.188 244.857 587.037C239.205 568.274 232.194 523.397 224.988 482.387C221.843 464.488 171.039 470.988 178.429 487.61Z" fill="#000A03"/>
<path d="M157.774 585.298C157.775 570.017 152.517 489.932 152.515 473.685C152.512 457.141 195.177 457.141 195.177 473.685C195.177 502.892 187.775 575.433 187.775 585.298C187.775 596.932 157.774 596.932 157.774 585.298Z" fill="#000A03"/>
<g filter="url(#filter3_i_3120_16351)">
<path d="M272.911 425.518C256.543 416.62 226.933 408.109 209.598 399.404C200.277 394.723 187.423 358.453 221.871 375.804C229.293 379.543 262.001 397.663 276.223 408.108C281.825 412.223 276.223 427.318 272.911 425.518Z" fill="#0057D9"/>
</g>
<g filter="url(#filter4_i_3120_16351)">
<path fill-rule="evenodd" clip-rule="evenodd" d="M161.479 373.095C161.479 373.095 178.31 366.568 189.726 366.962C201.509 367.369 209.631 368.567 218.168 377.021C227.848 386.608 221.285 435.382 221.285 435.382L221.284 435.382C221.294 435.582 223.462 479.871 221.479 482.386C214.466 491.285 153.491 472.521 153.491 472.521V445.026L153.297 445.054L161.479 373.095Z" fill="#0057D9"/>
</g>
<path d="M200.051 369.226L177.489 368.896C177.489 368.896 177.897 360.872 177.453 355.55C176.929 349.252 174.531 339.63 174.531 339.63L200.051 343.885V369.226Z" fill="#F39C89"/>
<path d="M189.761 379.343C183.316 379.827 177.488 368.897 177.488 368.897L188.592 361.934L200.281 368.897C200.281 368.897 195.554 378.907 189.761 379.343Z" fill="#F39C89"/>
<g filter="url(#filter5_i_3120_16351)">
<path d="M201.242 359.033C178.181 369.719 171.413 335.605 171.413 335.605L173.017 320.613H185.046L206.296 318.354C206.296 318.354 210.008 354.971 201.242 359.033Z" fill="#FFC4B7"/>
</g>
<path d="M156.718 350.066C148.785 344.578 155.936 334.497 164.316 339.201C162.456 311.88 165.678 302.76 183.646 304.253C195.826 289.692 218.508 307.614 214.485 339.201C227 334.833 231.425 344.013 222.307 354.435C230.463 362.948 221.525 375.381 211.357 367.204C207.893 379.974 197.502 377.622 195.155 356.003C208.742 345.505 209.182 336.726 204.094 318.703C204.896 323.395 205.043 325.858 204.094 329.568C193.418 326.637 187.346 326.133 176.272 328.448C174.978 326.457 174.762 324.59 174.819 320.607C172.026 333.377 171.794 347.37 183.646 356.003C184.54 374.821 169.568 381.878 165.545 364.964C151.802 374.933 142.081 354.435 156.718 350.066Z" fill="#752A00"/>
<g filter="url(#filter6_i_3120_16351)">
<path d="M337.779 413.523C324.727 411.783 276.025 408.494 276.025 408.494C275.121 415.013 269.619 422.866 273.71 425.187C277.801 427.508 318.104 424.743 337.779 423.389C341.65 423.122 341.625 414.036 337.779 413.523Z" fill="#0057D9"/>
</g>
<path d="M336.594 424.325C335.689 422.925 333.542 423.532 333.035 421.946C332.19 419.307 333.403 415.691 336.468 415.008C339.216 414.396 341.422 411.619 343.205 411.836C348.664 412.502 358.358 413.54 357.829 415.288C357.27 417.135 355.014 417.47 352.583 417.236C359.821 419.03 370.162 421.64 371.221 422.163C372.381 422.737 371.115 425.089 369.914 424.816C368.163 424.417 355.984 422.462 355.984 422.462C355.984 422.462 369.832 425.989 371.671 426.784C372.578 427.176 371.91 429.297 370.927 429.188C367.168 428.772 355.371 426.213 355.371 426.213C355.371 426.213 367.187 428.964 368.556 430.971C369.207 431.923 368.782 433.281 367.581 433.008C364.998 432.42 352.356 429.418 352.356 429.418C352.356 429.418 359.868 432.194 362.114 433.144C362.954 433.5 362.731 434.636 362.339 435.455C361.851 436.473 353.338 433.76 348.047 431.387C343.249 429.235 340.972 431.095 336.594 424.325Z" fill="#FFC4B7"/>
<g filter="url(#filter7_i_3120_16351)">
<path fill-rule="evenodd" clip-rule="evenodd" d="M140.178 412.895C136.515 424.45 132.942 435.722 130.15 442.018C130.038 442.27 130.014 442.524 130.067 442.776C129.958 443.269 129.978 443.791 130.15 444.339C133.527 455.087 142.937 475.063 150.548 491.221C155.677 502.11 159.989 511.265 161.087 514.691C162.213 518.207 168.233 511.347 167.515 507.728C166.251 501.355 163.386 491.417 160.033 479.788C156.705 468.246 152.897 455.039 149.698 442.002C153.904 432.772 165.802 407.889 176.498 388.497C180.012 382.126 172.788 373.298 167.377 371.273C161.967 369.247 156.391 371.934 153.41 376.686C149.864 382.341 144.945 397.858 140.178 412.895Z" fill="#0057D9"/>
</g>
<path d="M180.958 535.39C178.621 534.422 174.16 531.77 171.608 527.845C170.258 525.771 167.186 520.435 169.075 522.042C170.439 523.203 177.647 529.973 180.958 531.521C182.335 532.164 182.363 535.971 180.958 535.39Z" fill="#FFC4B7"/>
<path d="M163.039 500.57C159.903 500.137 156.109 502.083 156.416 505.212C157.194 513.143 164.013 519.626 169.078 528.811C173.132 536.162 181.945 537.768 181.178 536.982C168.905 524.408 168.204 513.769 170.854 513.769C174.555 513.769 171.806 516.045 178.04 519.913C180.348 521.346 178.872 516.691 176.481 513.723C174.143 510.822 170.052 501.537 163.039 500.57Z" fill="#FFC4B7"/>
<g filter="url(#filter8_i_3120_16351)">
<g clip-path="url(#clip0_3120_16351)">
<rect x="276.36" y="182.203" width="432" height="417.045" rx="200" fill="white"/>
<path d="M543.715 360.575H556.858L574.382 330.784C574.382 330.784 550.725 330.784 543.715 337.794C539.325 342.184 513.924 317.641 513.924 317.641V337.794L470.99 344.803C470.99 344.803 465.864 332.706 470.99 330.784C485.01 325.527 497.276 317.641 497.276 317.641L481.505 306.25L502.534 297.488L524.439 275.583L513.924 245.793L524.439 228.269V212.497L569.125 189.716H603.297L670.764 251.926L697.926 312.384L648.859 330.784H633.964C633.964 330.784 643.602 364.956 645.354 373.718C646.345 378.672 638.336 384.77 633.964 379.851C626.954 371.965 598.039 344.803 598.039 344.803L618.192 371.965L633.964 391.242C633.964 391.242 609.43 555.967 583.144 531.434C550.083 500.576 524.439 431.547 524.439 431.547C524.439 431.547 481.505 447.318 465.733 442.937C450.212 438.626 436.819 401.756 436.819 401.756C436.819 401.756 431.787 386.769 436.819 379.851C450.838 360.575 497.276 348.308 513.924 344.803C526.806 342.091 543.715 360.575 543.715 360.575Z" fill="#A2DABD"/>
<path d="M495.524 575.244L389.504 574.367C412.43 583.264 435.798 597.014 458.724 605.911C458.724 605.911 479.691 605.873 495.524 605.911C511.017 605.948 523.021 607.221 538.458 605.911C571.276 603.124 612.059 564.729 612.059 564.729H588.401L511.296 583.129L495.524 575.244Z" fill="#A2DABD"/>
<path d="M317.656 472.728L360.59 541.948L343.942 472.728L368.475 460.461L360.59 448.194L402.647 431.546V413.146C402.647 413.146 382.495 397.375 368.475 382.479C352.807 365.831 317.656 365.831 317.656 365.831V343.926L360.59 326.402L368.475 302.745L402.647 296.612L443.829 248.421L476.248 230.897V213.373H461.353L476.248 187.963L433.314 213.373L407.904 180.077L317.656 248.421L305.389 296.612V337.793V365.831L284.36 385.984L317.656 472.728Z" fill="#A2DABD"/>
<path d="M670.768 378.098C660.187 374.4 655.872 353.564 655.872 353.564C655.872 353.564 678.267 344.583 685.663 353.564C691.754 360.96 685.663 378.098 685.663 378.098C685.663 378.098 676.259 380.017 670.768 378.098Z" fill="#A2DABD"/>
<path d="M458.727 188.839L453.47 178.324H486.766L537.585 183.581L520.061 199.353L486.766 183.581L458.727 188.839Z" fill="#A2DABD"/>
<path d="M458.727 316.764C453.47 313.259 448.812 291.741 458.727 291.354C465.514 291.089 471.168 295.989 471.87 302.745C472.646 310.209 464.972 320.926 458.727 316.764Z" fill="#A2DABD"/>
</g>
</g>
<path d="M1109.32 708.929L1104.29 600.711L1072.68 601.03L1095.4 709.698L1109.32 708.929Z" fill="#000A03"/>
<path d="M1047.32 706.576C1048.83 691.173 1041.33 616.388 1042.91 600.174C1044.07 588.386 1010.67 592.949 1012.15 604.701C1016.09 635.974 1028.95 690.537 1032.62 705.156C1035 714.591 1046.76 712.274 1047.32 706.576Z" fill="#000A03"/>
<path d="M1110.56 703.611L1094.35 703.611C1094.35 703.611 1091.78 709.579 1088.17 710.787C1084.55 711.996 1075.58 712.682 1075.58 719.858L1113.76 719.858C1113.5 716.231 1112.93 712.633 1112.05 709.101C1111.41 707.314 1110.91 705.478 1110.56 703.611Z" fill="#F0B80E"/>
<path d="M1113.76 719.857L1075.58 719.857L1075.58 722.565L1113.76 722.565L1113.76 719.857Z" fill="#000A03"/>
<path d="M1048.1 703.611L1031.6 703.611C1031.6 703.611 1024.19 711.205 1016.22 712.055C1008.24 712.906 1004.04 715.039 1001.95 719.858L1051.04 719.858L1048.1 703.611Z" fill="#F0B80E"/>
<path d="M1051.04 719.857L1001.95 719.857L1001.95 722.565L1051.04 722.565L1051.04 719.857Z" fill="#000A03"/>
<path d="M1082.26 498.389C1074.9 562.143 1048.63 600.201 1041.45 607.124C1033.5 614.796 1011.33 606.369 1012.33 603.053C1018.28 583.301 1036.97 526.898 1044.55 483.729C1047.87 464.887 1084.45 479.387 1082.26 498.389Z" fill="#000A03"/>
<path d="M1104 601.222C1104 585.136 1109.54 500.834 1109.54 483.731C1109.54 466.316 1064.63 466.316 1064.63 483.731C1064.63 514.477 1072.42 590.838 1072.42 601.222C1072.42 613.469 1104 613.469 1104 601.222Z" fill="#000A03"/>
<path d="M1064.89 361.842L1060.3 331.835L1037.88 336.791C1037.88 336.791 1047.53 364.513 1041.63 366.888C1035.74 369.264 1055.81 363.813 1064.89 361.842Z" fill="#F7AD9D"/>
<g filter="url(#filter9_i_3120_16351)">
<path fill-rule="evenodd" clip-rule="evenodd" d="M1046.47 359.489C1033.63 364.863 1020.82 373.482 1023.07 387.137C1027.34 413.035 1032.74 427.762 1037.86 437.681C1038.84 439.587 1040.08 441.21 1041.53 442.575C1044 448.312 1048.88 463.956 1042.17 487.772C1037.22 505.305 1051.46 500.637 1068.25 495.13C1080.72 491.044 1094.59 486.497 1103.07 490.215C1122.99 498.946 1117.79 472.23 1113.55 460.792C1108.62 447.49 1101.27 426.796 1101.23 426.685C1100.92 421.667 1100.86 417.386 1100.81 413.509C1100.62 397.724 1100.51 388.653 1083.44 363.957C1078.47 356.758 1071.1 354.537 1063.08 355.123C1060.87 355.286 1058.6 355.663 1056.32 356.209C1053.03 356.997 1049.71 358.136 1046.47 359.489Z" fill="#F8CC46"/>
</g>
<path d="M1054.47 371.708C1054.47 371.708 1037.86 404.695 1051.39 435.849C1066.26 470.065 1043.4 498.769 1043.4 498.769" stroke="white" stroke-opacity="0.31"/>
<path d="M939.61 426.828C938.267 428.643 942.026 432.072 942.026 432.072L953.192 437.73C953.192 437.73 941.231 424.639 939.61 426.828Z" fill="#FFC4B7"/>
<path d="M941.777 436.611C937.549 433.35 933.173 429.166 932.124 426.945C931.445 425.504 934.583 423.761 935.682 424.918C941.355 430.888 950.53 435.473 950.53 435.473C950.53 435.473 957.668 437.423 958.098 434.495C958.482 431.879 954.434 430.502 952.641 429.735C950.817 428.956 948.918 425.962 950.114 425.099C951.841 423.852 954.288 426.449 956.089 426.765C964.672 432.881 967.842 437.772 972.39 438.606C976.091 439.286 972.22 448.349 968.58 447.397C964.571 446.35 950.697 443.49 941.777 436.611Z" fill="#FFC4B7"/>
<g filter="url(#filter10_i_3120_16351)">
<path d="M1037.16 423.395C1025.33 424.833 996.995 434.631 970.489 436.904C965.872 437.299 967.239 449.739 971.735 448.622C996.565 442.453 1015.61 446.506 1042.36 440.12C1049.05 438.521 1043.99 422.564 1037.16 423.395Z" fill="#F6BD0E"/>
</g>
<g filter="url(#filter11_i_3120_16351)">
<path d="M1029.74 425.77C1041.24 408.434 1059.28 391.788 1067.95 373.094C1079.08 349.104 1096.57 378.421 1090.44 387.459C1077.83 406.018 1051.73 428.899 1044.43 439.31C1040.49 444.927 1025.43 432.262 1029.74 425.77Z" fill="#F6BD0E"/>
</g>
<path d="M1051.95 291.95C1079.39 294.754 1070.55 323.816 1063.23 335.182C1063.23 335.182 1046.02 359.387 1036.32 352.812C1026.95 346.458 1026.37 319.501 1026.37 319.501C1023.82 307.272 1026.53 289.351 1051.95 291.95Z" fill="#FFC4B7"/>
<path d="M1051.95 291.95C1079.39 294.755 1072.42 324.18 1065.1 335.545C1065.1 335.545 1057.22 344.941 1054.91 333.318C1053.44 330.998 1053.73 323.687 1051.19 320.456C1039.63 305.749 1026.37 319.502 1026.37 319.502C1023.82 307.273 1026.53 289.352 1051.95 291.95Z" fill="black"/>
<ellipse rx="10.436" ry="11.0195" transform="matrix(-0.940227 0.344358 0.347754 0.936186 1071.04 297.992)" fill="black"/>
<g filter="url(#filter12_i_3120_16351)">
<path d="M972.296 400.452L924.23 350.578L917.748 358.986C917.748 358.986 947.833 407.804 955.622 412.267C962.556 416.239 972.296 400.452 972.296 400.452Z" fill="#F8CC46"/>
</g>
<g filter="url(#filter13_i_3120_16351)">
<path d="M1027.25 372.616C1004.94 380.778 981.763 384.177 962.114 391.657C954.508 394.553 952.302 414.334 960.18 412.279C979.962 407.118 1010.7 406.579 1033.54 397.904C1043.65 394.066 1037.4 368.904 1027.25 372.616Z" fill="#F8CC46"/>
</g>
<path d="M895.067 338.156C896.004 336.105 900.855 337.683 900.855 337.683L911.286 344.587C911.286 344.587 893.937 340.63 895.067 338.156Z" fill="#FFC4B7"/>
<path d="M904.719 335.247C899.787 333.18 893.971 331.436 891.507 331.615C889.91 331.73 889.913 335.301 891.467 335.687C899.486 337.68 908.001 343.384 908.001 343.384C908.001 343.384 913.206 348.612 910.843 350.417C908.733 352.029 905.543 349.197 903.993 348.019C902.417 346.82 898.858 346.64 898.685 348.098C898.435 350.204 901.912 351.053 903.071 352.458C912.641 356.901 918.488 357.254 921.445 360.784C923.852 363.658 929.92 355.872 927.304 353.185C924.423 350.225 915.125 339.608 904.719 335.247Z" fill="#FFC4B7"/>
<path d="M681.415 590.522C681.415 597.937 675.617 603.771 668.205 603.543C660.49 603.306 654 596.644 654 588.672C654 580.7 660.487 574.912 668.205 575.715C675.617 576.49 681.415 583.105 681.415 590.522Z" fill="url(#paint3_linear_3120_16351)"/>
<path d="M683.42 589.881C683.42 597.298 677.62 603.132 670.208 602.903C662.495 602.664 656.003 596.003 656.003 588.031C656.003 580.06 662.492 574.271 670.208 575.074C677.62 575.849 683.42 582.466 683.42 589.881Z" fill="url(#paint4_linear_3120_16351)"/>
<path d="M682.419 589.764C682.419 596.62 677.05 601.997 670.207 601.771C663.104 601.532 657.153 595.392 657.153 588.063C657.153 580.734 663.108 575.397 670.207 576.116C677.05 576.806 682.419 582.907 682.419 589.764Z" fill="url(#paint5_linear_3120_16351)"/>
<path d="M669.539 582.886C669.638 582.897 669.73 582.945 669.797 583.019C669.864 583.093 669.901 583.189 669.902 583.289V583.985C670.308 584.03 670.71 584.1 671.107 584.194C671.405 584.264 671.7 584.347 671.992 584.443C672.078 584.471 672.153 584.528 672.204 584.603C672.255 584.679 672.278 584.77 672.271 584.861L672.187 585.733C672.183 585.786 672.166 585.837 672.138 585.882C672.109 585.927 672.071 585.964 672.025 585.991C671.979 586.018 671.927 586.033 671.874 586.035C671.821 586.037 671.769 586.027 671.721 586.004C671.527 585.918 671.329 585.844 671.127 585.783C670.763 585.674 670.388 585.604 670.009 585.574L669.906 585.565V587.558C670.952 587.85 671.723 588.244 672.218 588.74C672.462 588.98 672.655 589.268 672.783 589.586C672.911 589.903 672.973 590.244 672.964 590.586C672.964 591.384 672.691 592.024 672.145 592.505C671.595 592.99 670.824 593.263 669.827 593.322V594.092C669.828 594.14 669.819 594.187 669.801 594.231C669.783 594.275 669.756 594.315 669.722 594.348C669.688 594.381 669.647 594.407 669.603 594.424C669.558 594.441 669.511 594.449 669.463 594.447H669.457C669.358 594.442 669.266 594.399 669.198 594.328C669.13 594.256 669.092 594.161 669.093 594.062V593.306L668.93 593.298C668.48 593.279 668.032 593.231 667.587 593.155C667.275 593.101 666.965 593.029 666.66 592.941C666.571 592.916 666.494 592.862 666.441 592.786C666.388 592.711 666.362 592.62 666.368 592.528L666.469 591.409C666.474 591.353 666.491 591.299 666.521 591.252C666.55 591.204 666.59 591.164 666.638 591.135C666.686 591.106 666.74 591.088 666.796 591.084C666.852 591.08 666.908 591.089 666.959 591.11C667.638 591.379 668.353 591.543 669.08 591.597L669.087 589.38C668.082 589.132 667.331 588.764 666.835 588.275C666.34 587.787 666.091 587.16 666.09 586.395C666.09 585.606 666.359 584.998 666.899 584.569C667.438 584.14 668.197 583.929 669.175 583.934V583.223C669.173 583.176 669.181 583.129 669.2 583.086C669.218 583.042 669.245 583.003 669.28 582.971C669.314 582.939 669.355 582.915 669.4 582.9C669.445 582.885 669.492 582.881 669.539 582.886ZM669.175 585.545C668.912 585.55 668.659 585.639 668.45 585.798C668.364 585.872 668.296 585.964 668.251 586.067C668.206 586.171 668.185 586.283 668.189 586.396C668.187 586.507 668.206 586.616 668.248 586.718C668.29 586.821 668.352 586.913 668.431 586.99C668.591 587.149 668.84 587.276 669.176 587.371L669.175 585.545ZM669.818 589.558V591.59C670.156 591.59 670.415 591.51 670.596 591.349C670.688 591.261 670.76 591.155 670.807 591.037C670.854 590.918 670.874 590.791 670.866 590.665C670.87 590.542 670.85 590.42 670.807 590.305C670.764 590.19 670.699 590.085 670.615 589.996C670.447 589.818 670.182 589.672 669.818 589.558Z" fill="#6A4000"/>
<defs>
<filter id="filter0_d_3120_16351" x="520.113" y="387.312" width="336.074" height="381.48" filterUnits="userSpaceOnUse" color-interpolation-filters="sRGB">
<feFlood flood-opacity="0" result="BackgroundImageFix"/>
<feColorMatrix in="SourceAlpha" type="matrix" values="0 0 0 0 0 0 0 0 0 0 0 0 0 0 0 0 0 0 127 0" result="hardAlpha"/>
<feOffset dy="8"/>
<feGaussianBlur stdDeviation="10"/>
<feComposite in2="hardAlpha" operator="out"/>
<feColorMatrix type="matrix" values="0 0 0 0 0.635294 0 0 0 0 0.854902 0 0 0 0 0.741176 0 0 0 0.2 0"/>
<feBlend mode="normal" in2="BackgroundImageFix" result="effect1_dropShadow_3120_16351"/>
<feBlend mode="normal" in="SourceGraphic" in2="effect1_dropShadow_3120_16351" result="shape"/>
</filter>
<filter id="filter1_d_3120_16351" x="532.086" y="175.829" width="438.66" height="472.22" filterUnits="userSpaceOnUse" color-interpolation-filters="sRGB">
<feFlood flood-opacity="0" result="BackgroundImageFix"/>
<feColorMatrix in="SourceAlpha" type="matrix" values="0 0 0 0 0 0 0 0 0 0 0 0 0 0 0 0 0 0 127 0" result="hardAlpha"/>
<feOffset dy="8"/>
<feGaussianBlur stdDeviation="10"/>
<feComposite in2="hardAlpha" operator="out"/>
<feColorMatrix type="matrix" values="0 0 0 0 0.635294 0 0 0 0 0.854902 0 0 0 0 0.741176 0 0 0 0.2 0"/>
<feBlend mode="normal" in2="BackgroundImageFix" result="effect1_dropShadow_3120_16351"/>
<feBlend mode="normal" in="SourceGraphic" in2="effect1_dropShadow_3120_16351" result="shape"/>
</filter>
<filter id="filter2_d_3120_16351" x="527.235" y="14.9648" width="369.108" height="386.792" filterUnits="userSpaceOnUse" color-interpolation-filters="sRGB">
<feFlood flood-opacity="0" result="BackgroundImageFix"/>
<feColorMatrix in="SourceAlpha" type="matrix" values="0 0 0 0 0 0 0 0 0 0 0 0 0 0 0 0 0 0 127 0" result="hardAlpha"/>
<feOffset dy="8"/>
<feGaussianBlur stdDeviation="10"/>
<feComposite in2="hardAlpha" operator="out"/>
<feColorMatrix type="matrix" values="0 0 0 0 0.635294 0 0 0 0 0.854902 0 0 0 0 0.741176 0 0 0 0.2 0"/>
<feBlend mode="normal" in2="BackgroundImageFix" result="effect1_dropShadow_3120_16351"/>
<feBlend mode="normal" in="SourceGraphic" in2="effect1_dropShadow_3120_16351" result="shape"/>
</filter>
<filter id="filter3_i_3120_16351" x="199.32" y="371.137" width="79.2842" height="58.5293" filterUnits="userSpaceOnUse" color-interpolation-filters="sRGB">
<feFlood flood-opacity="0" result="BackgroundImageFix"/>
<feBlend mode="normal" in="SourceGraphic" in2="BackgroundImageFix" result="shape"/>
<feColorMatrix in="SourceAlpha" type="matrix" values="0 0 0 0 0 0 0 0 0 0 0 0 0 0 0 0 0 0 127 0" result="hardAlpha"/>
<feOffset dy="4"/>
<feGaussianBlur stdDeviation="2"/>
<feComposite in2="hardAlpha" operator="arithmetic" k2="-1" k3="1"/>
<feColorMatrix type="matrix" values="0 0 0 0 0 0 0 0 0 0 0 0 0 0 0 0 0 0 0.08 0"/>
<feBlend mode="normal" in2="shape" result="effect1_innerShadow_3120_16351"/>
</filter>
<filter id="filter4_i_3120_16351" x="151.297" y="366.945" width="72.1621" height="121.836" filterUnits="userSpaceOnUse" color-interpolation-filters="sRGB">
<feFlood flood-opacity="0" result="BackgroundImageFix"/>
<feBlend mode="normal" in="SourceGraphic" in2="BackgroundImageFix" result="shape"/>
<feColorMatrix in="SourceAlpha" type="matrix" values="0 0 0 0 0 0 0 0 0 0 0 0 0 0 0 0 0 0 127 0" result="hardAlpha"/>
<feOffset dx="-2" dy="4"/>
<feGaussianBlur stdDeviation="2"/>
<feComposite in2="hardAlpha" operator="arithmetic" k2="-1" k3="1"/>
<feColorMatrix type="matrix" values="0 0 0 0 0 0 0 0 0 0 0 0 0 0 0 0 0 0 0.08 0"/>
<feBlend mode="normal" in2="shape" result="effect1_innerShadow_3120_16351"/>
</filter>
<filter id="filter5_i_3120_16351" x="171.413" y="318.354" width="35.6641" height="46.752" filterUnits="userSpaceOnUse" color-interpolation-filters="sRGB">
<feFlood flood-opacity="0" result="BackgroundImageFix"/>
<feBlend mode="normal" in="SourceGraphic" in2="BackgroundImageFix" result="shape"/>
<feColorMatrix in="SourceAlpha" type="matrix" values="0 0 0 0 0 0 0 0 0 0 0 0 0 0 0 0 0 0 127 0" result="hardAlpha"/>
<feOffset dy="4"/>
<feGaussianBlur stdDeviation="2"/>
<feComposite in2="hardAlpha" operator="arithmetic" k2="-1" k3="1"/>
<feColorMatrix type="matrix" values="0 0 0 0 0 0 0 0 0 0 0 0 0 0 0 0 0 0 0.25 0"/>
<feBlend mode="normal" in2="shape" result="effect1_innerShadow_3120_16351"/>
</filter>
<filter id="filter6_i_3120_16351" x="272.215" y="408.494" width="68.458" height="21.5889" filterUnits="userSpaceOnUse" color-interpolation-filters="sRGB">
<feFlood flood-opacity="0" result="BackgroundImageFix"/>
<feBlend mode="normal" in="SourceGraphic" in2="BackgroundImageFix" result="shape"/>
<feColorMatrix in="SourceAlpha" type="matrix" values="0 0 0 0 0 0 0 0 0 0 0 0 0 0 0 0 0 0 127 0" result="hardAlpha"/>
<feOffset dy="4"/>
<feGaussianBlur stdDeviation="2"/>
<feComposite in2="hardAlpha" operator="arithmetic" k2="-1" k3="1"/>
<feColorMatrix type="matrix" values="0 0 0 0 0 0 0 0 0 0 0 0 0 0 0 0 0 0 0.08 0"/>
<feBlend mode="normal" in2="shape" result="effect1_innerShadow_3120_16351"/>
</filter>
<filter id="filter7_i_3120_16351" x="130" y="370.591" width="47.4248" height="149.074" filterUnits="userSpaceOnUse" color-interpolation-filters="sRGB">
<feFlood flood-opacity="0" result="BackgroundImageFix"/>
<feBlend mode="normal" in="SourceGraphic" in2="BackgroundImageFix" result="shape"/>
<feColorMatrix in="SourceAlpha" type="matrix" values="0 0 0 0 0 0 0 0 0 0 0 0 0 0 0 0 0 0 127 0" result="hardAlpha"/>
<feOffset dy="4"/>
<feGaussianBlur stdDeviation="2"/>
<feComposite in2="hardAlpha" operator="arithmetic" k2="-1" k3="1"/>
<feColorMatrix type="matrix" values="0 0 0 0 0 0 0 0 0 0 0 0 0 0 0 0 0 0 0.08 0"/>
<feBlend mode="normal" in2="shape" result="effect1_innerShadow_3120_16351"/>
</filter>
<filter id="filter8_i_3120_16351" x="276.36" y="182.203" width="432" height="417.045" filterUnits="userSpaceOnUse" color-interpolation-filters="sRGB">
<feFlood flood-opacity="0" result="BackgroundImageFix"/>
<feBlend mode="normal" in="SourceGraphic" in2="BackgroundImageFix" result="shape"/>
<feColorMatrix in="SourceAlpha" type="matrix" values="0 0 0 0 0 0 0 0 0 0 0 0 0 0 0 0 0 0 127 0" result="hardAlpha"/>
<feOffset/>
<feGaussianBlur stdDeviation="6"/>
<feComposite in2="hardAlpha" operator="arithmetic" k2="-1" k3="1"/>
<feColorMatrix type="matrix" values="0 0 0 0 0 0 0 0 0 0 0 0 0 0 0 0 0 0 0.12 0"/>
<feBlend mode="normal" in2="shape" result="effect1_innerShadow_3120_16351"/>
</filter>
<filter id="filter9_i_3120_16351" x="1022.82" y="355.034" width="95.667" height="149.087" filterUnits="userSpaceOnUse" color-interpolation-filters="sRGB">
<feFlood flood-opacity="0" result="BackgroundImageFix"/>
<feBlend mode="normal" in="SourceGraphic" in2="BackgroundImageFix" result="shape"/>
<feColorMatrix in="SourceAlpha" type="matrix" values="0 0 0 0 0 0 0 0 0 0 0 0 0 0 0 0 0 0 127 0" result="hardAlpha"/>
<feOffset dx="1" dy="4"/>
<feGaussianBlur stdDeviation="2"/>
<feComposite in2="hardAlpha" operator="arithmetic" k2="-1" k3="1"/>
<feColorMatrix type="matrix" values="0 0 0 0 0 0 0 0 0 0 0 0 0 0 0 0 0 0 0.08 0"/>
<feBlend mode="normal" in2="shape" result="effect1_innerShadow_3120_16351"/>
</filter>
<filter id="filter10_i_3120_16351" x="967.626" y="423.363" width="77.8789" height="29.3301" filterUnits="userSpaceOnUse" color-interpolation-filters="sRGB">
<feFlood flood-opacity="0" result="BackgroundImageFix"/>
<feBlend mode="normal" in="SourceGraphic" in2="BackgroundImageFix" result="shape"/>
<feColorMatrix in="SourceAlpha" type="matrix" values="0 0 0 0 0 0 0 0 0 0 0 0 0 0 0 0 0 0 127 0" result="hardAlpha"/>
<feOffset dy="4"/>
<feGaussianBlur stdDeviation="2"/>
<feComposite in2="hardAlpha" operator="arithmetic" k2="-1" k3="1"/>
<feColorMatrix type="matrix" values="0 0 0 0 0 0 0 0 0 0 0 0 0 0 0 0 0 0 0.04 0"/>
<feBlend mode="normal" in2="shape" result="effect1_innerShadow_3120_16351"/>
</filter>
<filter id="filter11_i_3120_16351" x="1028.97" y="363.865" width="62.7373" height="80.8447" filterUnits="userSpaceOnUse" color-interpolation-filters="sRGB">
<feFlood flood-opacity="0" result="BackgroundImageFix"/>
<feBlend mode="normal" in="SourceGraphic" in2="BackgroundImageFix" result="shape"/>
<feColorMatrix in="SourceAlpha" type="matrix" values="0 0 0 0 0 0 0 0 0 0 0 0 0 0 0 0 0 0 127 0" result="hardAlpha"/>
<feOffset dy="4"/>
<feGaussianBlur stdDeviation="2"/>
<feComposite in2="hardAlpha" operator="arithmetic" k2="-1" k3="1"/>
<feColorMatrix type="matrix" values="0 0 0 0 0 0 0 0 0 0 0 0 0 0 0 0 0 0 0.04 0"/>
<feBlend mode="normal" in2="shape" result="effect1_innerShadow_3120_16351"/>
</filter>
<filter id="filter12_i_3120_16351" x="917.748" y="350.578" width="54.5479" height="66.3301" filterUnits="userSpaceOnUse" color-interpolation-filters="sRGB">
<feFlood flood-opacity="0" result="BackgroundImageFix"/>
<feBlend mode="normal" in="SourceGraphic" in2="BackgroundImageFix" result="shape"/>
<feColorMatrix in="SourceAlpha" type="matrix" values="0 0 0 0 0 0 0 0 0 0 0 0 0 0 0 0 0 0 127 0" result="hardAlpha"/>
<feOffset dy="4"/>
<feGaussianBlur stdDeviation="2"/>
<feComposite in2="hardAlpha" operator="arithmetic" k2="-1" k3="1"/>
<feColorMatrix type="matrix" values="0 0 0 0 0 0 0 0 0 0 0 0 0 0 0 0 0 0 0.04 0"/>
<feBlend mode="normal" in2="shape" result="effect1_innerShadow_3120_16351"/>
</filter>
<filter id="filter13_i_3120_16351" x="955.238" y="372.243" width="83.4414" height="44.1855" filterUnits="userSpaceOnUse" color-interpolation-filters="sRGB">
<feFlood flood-opacity="0" result="BackgroundImageFix"/>
<feBlend mode="normal" in="SourceGraphic" in2="BackgroundImageFix" result="shape"/>
<feColorMatrix in="SourceAlpha" type="matrix" values="0 0 0 0 0 0 0 0 0 0 0 0 0 0 0 0 0 0 127 0" result="hardAlpha"/>
<feOffset dy="4"/>
<feGaussianBlur stdDeviation="2"/>
<feComposite in2="hardAlpha" operator="arithmetic" k2="-1" k3="1"/>
<feColorMatrix type="matrix" values="0 0 0 0 0 0 0 0 0 0 0 0 0 0 0 0 0 0 0.04 0"/>
<feBlend mode="normal" in2="shape" result="effect1_innerShadow_3120_16351"/>
</filter>
<linearGradient id="paint0_linear_3120_16351" x1="23332" y1="24595.9" x2="20731.6" y2="25415.7" gradientUnits="userSpaceOnUse">
<stop stop-color="#FCB148"/>
<stop offset="0.05" stop-color="#FDBA46"/>
<stop offset="0.14" stop-color="#FFC244"/>
<stop offset="0.32" stop-color="#FFC444"/>
<stop offset="0.48" stop-color="#FDB946"/>
<stop offset="0.78" stop-color="#F99C4D"/>
<stop offset="0.87" stop-color="#F8924F"/>
<stop offset="1" stop-color="#F8924F"/>
</linearGradient>
<linearGradient id="paint1_linear_3120_16351" x1="25432.2" y1="21968.8" x2="23049.1" y2="27133.6" gradientUnits="userSpaceOnUse">
<stop stop-color="#FFDB44"/>
<stop offset="1" stop-color="#FEEF06"/>
</linearGradient>
<linearGradient id="paint2_linear_3120_16351" x1="22226.4" y1="21614.3" x2="23972.7" y2="25255" gradientUnits="userSpaceOnUse">
<stop stop-color="#FCB148"/>
<stop offset="0.05" stop-color="#FDBA46"/>
<stop offset="0.14" stop-color="#FFC244"/>
<stop offset="0.32" stop-color="#FFC444"/>
<stop offset="0.48" stop-color="#FDB946"/>
<stop offset="0.78" stop-color="#F99C4D"/>
<stop offset="0.87" stop-color="#F8924F"/>
<stop offset="1" stop-color="#F8924F"/>
</linearGradient>
<linearGradient id="paint3_linear_3120_16351" x1="23314" y1="25059.9" x2="20713.6" y2="25879.7" gradientUnits="userSpaceOnUse">
<stop stop-color="#FCB148"/>
<stop offset="0.05" stop-color="#FDBA46"/>
<stop offset="0.14" stop-color="#FFC244"/>
<stop offset="0.32" stop-color="#FFC444"/>
<stop offset="0.48" stop-color="#FDB946"/>
<stop offset="0.78" stop-color="#F99C4D"/>
<stop offset="0.87" stop-color="#F8924F"/>
<stop offset="1" stop-color="#F8924F"/>
</linearGradient>
<linearGradient id="paint4_linear_3120_16351" x1="25414.2" y1="22432.8" x2="23031.1" y2="27597.6" gradientUnits="userSpaceOnUse">
<stop stop-color="#FFDB44"/>
<stop offset="1" stop-color="#FEEF06"/>
</linearGradient>
<linearGradient id="paint5_linear_3120_16351" x1="22208.4" y1="22078.3" x2="23954.7" y2="25719" gradientUnits="userSpaceOnUse">
<stop stop-color="#FCB148"/>
<stop offset="0.05" stop-color="#FDBA46"/>
<stop offset="0.14" stop-color="#FFC244"/>
<stop offset="0.32" stop-color="#FFC444"/>
<stop offset="0.48" stop-color="#FDB946"/>
<stop offset="0.78" stop-color="#F99C4D"/>
<stop offset="0.87" stop-color="#F8924F"/>
<stop offset="1" stop-color="#F8924F"/>
</linearGradient>
<clipPath id="clip0_3120_16351">
<rect x="276.36" y="182.203" width="432" height="417.045" rx="200" fill="white"/>
</clipPath>
</defs>
</svg>
