<svg width="20" height="20" viewBox="0 0 20 20" fill="none" xmlns="http://www.w3.org/2000/svg">
<path d="M15.8363 9.23475C16.849 9.23475 17.67 10.0557 17.67 11.0685C17.67 12.0813 16.849 12.9023 15.8363 12.9023H14.736V14.1492C14.736 15.3816 14.736 15.9978 14.4962 16.4685C14.2852 16.8826 13.9486 17.2192 13.5345 17.4302C13.0638 17.67 12.4476 17.67 11.2152 17.67H10.7017V16.3864C10.7017 15.4749 9.96285 14.736 9.05137 14.736C8.1399 14.736 7.401 15.4749 7.401 16.3864V17.67H6.5208C5.2884 17.67 4.67221 17.67 4.20149 17.4302C3.78744 17.2192 3.45081 16.8826 3.23984 16.4685C3 15.9978 3 15.3816 3 14.1492V12.9023H4.10025C5.113 12.9023 5.934 12.0813 5.934 11.0685C5.934 10.0557 5.113 9.23475 4.10025 9.23475H3C3 8.20945 3 7.69679 3.1675 7.29241C3.39084 6.75322 3.81922 6.32484 4.35841 6.1015C4.76279 5.934 5.27545 5.934 6.30075 5.934H7.03425V4.83375C7.03425 3.821 7.85525 3 8.868 3C9.88075 3 10.7017 3.821 10.7017 4.83375" stroke="#718096" stroke-linecap="round" stroke-linejoin="round"/>
<path d="M14 8V4M12 6H16" stroke="#718096" stroke-linecap="round" stroke-linejoin="round"/>
</svg>
