<svg width="20" height="20" viewBox="0 0 20 20" fill="none" xmlns="http://www.w3.org/2000/svg">
<path d="M5.2005 10.335C5.2005 7.49929 7.49929 5.2005 10.335 5.2005M13.6357 7.03425L10.3349 10.335M17.67 10.335C17.67 14.386 14.386 17.67 10.335 17.67C6.28399 17.67 3 14.386 3 10.335C3 6.28399 6.28399 3 10.335 3C14.386 3 17.67 6.28399 17.67 10.335ZM11.0685 10.335C11.0685 10.7401 10.7401 11.0685 10.335 11.0685C9.9299 11.0685 9.6015 10.7401 9.6015 10.335C9.6015 9.9299 9.9299 9.6015 10.335 9.6015C10.7401 9.6015 11.0685 9.9299 11.0685 10.335Z" stroke="#718096" stroke-linecap="round" stroke-linejoin="round"/>
</svg>
