<svg width="20" height="20" viewBox="0 0 20 20" fill="none" xmlns="http://www.w3.org/2000/svg">
<path d="M9.83499 13.7525L17.67 12.1855M9.83499 13.7525L2 12.1855M9.83499 13.7525V17.67M17.67 12.1855L11.7937 11.0103M17.67 12.1855V16.103L9.83499 17.67M2 12.1855L7.87624 11.0103M2 12.1855V16.103L9.83499 17.67" stroke="#718096" stroke-width="0.8" stroke-linecap="round" stroke-linejoin="round"/>
<path d="M8.18962 7.95459C8.18962 8.56039 8.68072 9.05149 9.28652 9.05149H10.3051C10.9541 9.05149 11.4803 8.52531 11.4803 7.87624C11.4803 7.22717 10.9541 6.70099 10.3051 6.70099H9.36487C8.71579 6.70099 8.18962 6.17482 8.18962 5.52574C8.18962 4.87667 8.71579 4.3505 9.36487 4.3505H10.3834C10.9892 4.3505 11.4803 4.84159 11.4803 5.44739M9.83496 3.64535V4.3505M9.83496 9.05149V9.75664M14.536 6.70099C14.536 9.29728 12.4313 11.402 9.83496 11.402C7.23868 11.402 5.13397 9.29728 5.13397 6.70099C5.13397 4.10471 7.23868 2 9.83496 2C12.4313 2 14.536 4.10471 14.536 6.70099Z" stroke="#718096" stroke-width="0.8" stroke-linecap="round" stroke-linejoin="round"/>
</svg>
