<svg width="20" height="20" viewBox="0 0 20 20" fill="none" xmlns="http://www.w3.org/2000/svg">
<path d="M5.81484 14.36L3.06813 6.97099C2.85991 6.41086 3.14497 5.78797 3.70497 5.57941L5.81462 4.79372M15.1138 14.3661L17.8428 6.97137C18.049 6.41268 17.7646 5.79411 17.207 5.58488L15.1138 4.79936M8.20593 5.98948H12.9891M8.20593 8.97897H12.9891M8.20593 11.9685H11.7933M6.89671 16.1538H14.0311C14.6289 16.1538 15.1135 15.6691 15.1135 15.0713V4.08247C15.1135 3.48464 14.6289 3 14.0311 3H6.89671C6.29888 3 5.81424 3.48464 5.81424 4.08247V15.0713C5.81424 15.6691 6.29888 16.1538 6.89671 16.1538Z" stroke="#718096" stroke-linecap="round" stroke-linejoin="round"/>
</svg>
