<svg width="496" height="312" viewBox="0 0 496 312" fill="none" xmlns="http://www.w3.org/2000/svg">
<path d="M24 0.5H472C484.979 0.5 495.5 11.0213 495.5 24V288C495.5 300.979 484.979 311.5 472 311.5H24C11.0213 311.5 0.5 300.979 0.5 288V24C0.5 11.0213 11.0213 0.5 24 0.5Z" fill="white"/>
<path d="M24 0.5H472C484.979 0.5 495.5 11.0213 495.5 24V288C495.5 300.979 484.979 311.5 472 311.5H24C11.0213 311.5 0.5 300.979 0.5 288V24C0.5 11.0213 11.0213 0.5 24 0.5Z" stroke="url(#paint0_linear_3797_24624)"/>
<path d="M268.776 141C264.232 141 259.787 145.117 259.276 151.064V141.491H252.749V170.358H259.356V156.385C259.356 152.471 262.13 146.95 268.776 146.95V141Z" fill="#E2E8F0"/>
<path d="M338.088 165.737V145.959H341.916C347.02 145.959 351.167 149.149 351.167 155.688C351.167 162.228 347.02 165.737 341.916 165.737H338.088ZM331.549 170.362H342.713C349.571 170.362 358.025 165.896 358.025 155.688C358.025 145.64 349.571 141.494 342.713 141.494H331.549V170.362Z" fill="#E2E8F0"/>
<path d="M306.528 156.007C306.528 150.744 309.239 146.438 313.704 146.438C318.01 146.438 320.403 150.744 320.403 156.007C320.403 161.271 318.01 165.577 313.704 165.577C309.239 165.577 306.528 161.271 306.528 156.007ZM299.829 156.326C299.829 164.939 304.294 171 311.313 171C316.416 171 319.447 167.65 321.041 162.228V170.362H327.579V141.494H321.041V149.149C319.606 144.046 316.575 141.015 311.79 141.015C304.614 141.015 299.829 147.554 299.829 156.326Z" fill="#E2E8F0"/>
<path d="M150.919 171C142.785 171 138 164.461 138 156.326C138 147.873 143.263 141.015 153.311 141.015C163.678 141.015 167.187 148.033 167.347 152.02H159.851C159.691 149.787 157.777 146.438 153.152 146.438C148.208 146.438 145.018 150.744 145.018 156.007C145.018 161.271 148.208 165.577 153.152 165.577C157.618 165.577 159.531 162.068 160.329 158.559H153.152V155.689H168.212V170.362H161.605V161.111C161.126 164.461 159.053 171 150.919 171Z" fill="#E2E8F0"/>
<path d="M181.607 171C175.387 171 171.559 166.853 171.559 158.559V141.494H178.258V158.559C178.258 162.866 180.331 164.939 183.84 164.939C190.698 164.939 193.25 156.486 193.25 150.585V141.494H199.949V170.362H193.41V159.676C192.134 165.577 188.625 171 181.607 171Z" fill="#E2E8F0"/>
<path d="M239.979 141C234.264 141 230.659 146.521 229.482 151.625C229.281 144.785 225.916 141 220.534 141C215.883 141 211.569 145.147 210.448 151.708V141.491H203.918V170.36H210.532V160.011C210.532 157.445 211.602 146.916 218.26 146.916C222.573 146.916 223.022 150.806 223.022 156.124V170.36H229.633V160.011C229.633 157.445 230.747 146.916 237.405 146.916C241.714 146.916 242.159 150.806 242.159 156.124V170.36H248.779V153.284C248.809 145.092 245.917 141 239.979 141Z" fill="#E2E8F0"/>
<path d="M282.966 141C274.404 141 268.602 147.714 268.602 156C268.602 165.13 274.12 171 282.966 171C291.528 171 297.432 164.286 297.432 156C297.432 146.87 291.807 141 282.966 141ZM282.966 165.89C277.981 165.89 274.753 161.67 274.753 156C274.753 150.33 277.992 146.11 282.966 146.11C287.938 146.11 291.049 150.33 291.049 156C291.049 161.67 287.935 165.89 282.966 165.89Z" fill="#E2E8F0"/>
<defs>
<linearGradient id="paint0_linear_3797_24624" x1="248" y1="312" x2="248" y2="0" gradientUnits="userSpaceOnUse">
<stop stop-color="#EDF2F7"/>
<stop offset="1" stop-color="#EDF2F7" stop-opacity="0"/>
</linearGradient>
</defs>
</svg>
