<svg width="244" height="32" viewBox="0 0 244 32" fill="none" xmlns="http://www.w3.org/2000/svg">
<g clip-path="url(#clip0_3017_3460)">
<path fill-rule="evenodd" clip-rule="evenodd" d="M226.305 22.0641V25.5346H212.697V23.4878L220.415 13.5074H213.018V10.0342H225.986V12.081L218.269 22.0641H226.305Z" fill="#4E26DE"/>
<path fill-rule="evenodd" clip-rule="evenodd" d="M242.965 10.0342V23.6746V23.985C242.965 28.1701 240.753 31.8908 235.279 31.8908C230.155 31.8908 227.37 28.6345 227.37 26.1862H231.373C231.373 26.1862 231.981 28.2635 235.151 28.2635C237.841 28.2635 238.962 26.7741 238.962 24.6058V23.9546C238.256 24.7297 236.913 25.689 234.512 25.689C230.317 25.689 227.691 22.7458 227.691 18.4369L227.657 10.0342H231.821V17.5057C231.821 19.6131 232.591 22.0946 235.247 22.0946C236.624 22.0946 238.897 21.4433 238.897 17.3188V10.0342H242.965Z" fill="#4E26DE"/>
<path fill-rule="evenodd" clip-rule="evenodd" d="M8.77579 19.6405L17.3601 23.6093C18.4241 24.1015 19.1751 24.9274 19.5807 25.8748C20.6065 28.274 19.2045 30.7277 17.0035 31.6103C14.8022 32.4923 12.4561 31.9247 11.3893 29.4297L7.65344 20.6703C7.36395 19.9913 8.09119 19.3241 8.77579 19.6405Z" fill="#FFC233"/>
<path fill-rule="evenodd" clip-rule="evenodd" d="M6.55256 14.4487L9.7196 5.76474C10.1123 4.688 10.0395 3.58994 9.63359 2.64251C8.60565 0.24432 5.82182 -0.529805 3.62118 0.35399C1.4209 1.23813 0.177581 3.24605 1.24643 5.74003L5.0068 14.4899C5.2984 15.168 6.30013 15.1413 6.55256 14.4487Z" fill="#FFC233"/>
<path fill-rule="evenodd" clip-rule="evenodd" d="M49.5247 15.8338H56.7287C56.2489 14.0037 54.9346 13.2616 53.3339 13.2616C51.5739 13.2616 50.1634 14.2209 49.5247 15.8338ZM60.9552 18.9638H49.2691C49.7489 21.321 51.733 22.1896 53.4617 22.1896C55.6388 22.1896 56.5696 20.8871 56.5696 20.8871H60.6031C59.3856 23.9866 56.4731 25.6906 53.334 25.6906C49.0111 25.6906 45.2332 22.4976 45.2332 17.6637C45.2332 12.8578 48.9796 9.88184 53.206 9.88184C57.3049 9.88184 61.4688 12.6405 60.9552 18.9638Z" fill="#4E26DE"/>
<path fill-rule="evenodd" clip-rule="evenodd" d="M100.655 17.7872C100.655 15.369 99.1818 13.4786 96.749 13.4786C94.3142 13.4786 92.6817 15.369 92.6817 17.7872C92.6817 20.2054 94.3142 22.0959 96.749 22.0959C99.1818 22.0959 100.655 20.2054 100.655 17.7872ZM88.4866 17.8174C88.4866 12.8578 92.4575 9.88184 96.7489 9.88184C101.072 9.88184 104.85 12.888 104.85 17.7544C104.85 22.6841 100.941 25.6903 96.6188 25.6903C92.2644 25.6903 88.4866 22.6841 88.4866 17.8174Z" fill="#4E26DE"/>
<path fill-rule="evenodd" clip-rule="evenodd" d="M121.99 17.1364V25.5366H117.729V18.0652C117.729 17.5377 118.115 13.6326 115.041 13.479C113.534 13.3855 110.845 14.1904 110.845 18.252V25.5366H106.619V10.0358H110.499L110.512 12.1877C110.512 12.1877 112.261 9.88184 115.523 9.88184C119.654 9.88184 121.99 12.8578 121.99 17.1364Z" fill="#4E26DE"/>
<path fill-rule="evenodd" clip-rule="evenodd" d="M137.562 13.1682C136.217 13.1682 135.641 13.8194 135.641 14.4707C135.641 15.5234 137.082 15.8338 138.042 16.0207C140.895 16.6086 143.776 17.4468 143.776 20.7304C143.776 23.9237 141.054 25.6906 137.755 25.6906C134.074 25.6906 131.224 23.5223 131.031 20.2359H134.968C135.065 21.1647 135.706 22.3737 137.659 22.3737C139.291 22.3737 139.678 21.5384 139.678 20.8871C139.678 19.7386 138.555 19.3977 137.466 19.1503C135.578 18.7465 131.511 18.0046 131.511 14.4707C131.511 11.4318 134.522 9.88184 137.627 9.88184C141.213 9.88184 143.583 11.9896 143.776 14.5943H139.835C139.709 14.0669 139.198 13.1682 137.562 13.1682Z" fill="#4E26DE"/>
<path fill-rule="evenodd" clip-rule="evenodd" d="M156.721 17.7872C156.721 15.2127 155.279 13.6956 153.199 13.6956C151.246 13.6956 149.29 15.0586 149.29 17.7872C149.29 20.5135 151.246 21.8789 153.199 21.8789C155.279 21.8789 156.721 20.3594 156.721 17.7872ZM160.723 10.0358V31.7357H156.721V24.0168C155.697 25.1325 154.255 25.6903 152.589 25.6903C148.525 25.6903 145.129 22.4672 145.129 17.7872C145.129 13.1049 148.525 9.88184 152.589 9.88184C155.784 9.88184 156.981 11.9578 156.981 11.9578L156.974 10.0358H160.723Z" fill="#4E26DE"/>
<path fill-rule="evenodd" clip-rule="evenodd" d="M183.605 15.8338H190.809C190.329 14.0037 189.015 13.2616 187.415 13.2616C185.655 13.2616 184.243 14.2209 183.605 15.8338ZM195.035 18.9638H183.347C183.83 21.321 185.814 22.1896 187.542 22.1896C189.719 22.1896 190.65 20.8871 190.65 20.8871H194.683C193.466 23.9866 190.553 25.6906 187.415 25.6906C183.091 25.6906 179.313 22.4976 179.313 17.6637C179.313 12.8578 183.061 9.88184 187.287 9.88184C191.385 9.88184 195.55 12.6405 195.035 18.9638Z" fill="#4E26DE"/>
<path fill-rule="evenodd" clip-rule="evenodd" d="M200.617 15.8338H207.821C207.342 14.0037 206.027 13.2616 204.426 13.2616C202.666 13.2616 201.256 14.2209 200.617 15.8338ZM212.048 18.9638H200.362C200.841 21.321 202.825 22.1896 204.554 22.1896C206.731 22.1896 207.662 20.8871 207.662 20.8871H211.696C210.478 23.9866 207.566 25.6906 204.426 25.6906C200.104 25.6906 196.326 22.4976 196.326 17.6637C196.326 12.8578 200.072 9.88184 204.298 9.88184C208.398 9.88184 212.561 12.6405 212.048 18.9638Z" fill="#4E26DE"/>
<path fill-rule="evenodd" clip-rule="evenodd" d="M42.1857 20.8826C42.1857 21.8493 42.5665 22.248 43.2732 22.248C43.771 22.248 44.0944 22.1902 44.5661 22.0487L44.8297 25.2342C43.9482 25.5168 43.0959 25.6884 42.0085 25.6884C39.5134 25.6884 37.9855 24.8934 37.9855 21.4506V3.83594H42.1857V20.8826Z" fill="#4E26DE"/>
<path fill-rule="evenodd" clip-rule="evenodd" d="M86.6793 17.1362V25.5364H82.4189V18.065C82.4189 15.9271 82.6434 13.229 79.6969 13.4788C78.9305 13.5394 76.8159 13.8799 76.8159 18.2519V25.5364H72.5895V18.065C72.5895 15.9271 72.8136 13.229 69.8676 13.4788C69.0983 13.5394 66.9865 13.8799 66.9865 18.2519V25.5364H62.76V10.0357H66.64L66.6436 12.1875C66.6436 12.1875 68.1263 9.88169 70.892 9.88169C74.2247 9.88169 75.5328 12.3919 75.5328 12.3919C75.5328 12.3919 76.9677 9.85156 80.6277 9.85156C84.7892 9.85156 86.6793 12.8275 86.6793 17.1362Z" fill="#4E26DE"/>
<path fill-rule="evenodd" clip-rule="evenodd" d="M162.52 18.4345V10.0342H166.781V17.5057C166.781 18.033 166.394 21.9381 169.469 22.0918C170.976 22.1853 173.664 21.3803 173.664 17.3188V10.0342H177.89V25.5349H174.016L173.998 23.3831C173.998 23.3831 172.248 25.689 168.986 25.689C164.856 25.689 162.52 22.713 162.52 18.4345Z" fill="#4E26DE"/>
<path fill-rule="evenodd" clip-rule="evenodd" d="M9.29036 17.0722L18.1517 13.7225C21.0967 12.6093 24.3137 14.7157 24.2703 17.7762C24.2696 17.8162 24.2689 17.8561 24.2679 17.8965C24.2042 20.8768 21.0767 22.88 18.1963 21.8256L9.29875 18.569C8.58899 18.3094 8.58374 17.3393 9.29036 17.0722Z" fill="#FFC233"/>
<path fill-rule="evenodd" clip-rule="evenodd" d="M8.79428 15.9113L17.5053 12.2099C20.3999 10.9798 21.1345 7.28794 18.8674 5.15478C18.8377 5.12669 18.808 5.09893 18.7779 5.07118C16.5552 3.00808 12.8809 3.73448 11.6155 6.45187L7.70655 14.8474C7.39467 15.5169 8.09955 16.2064 8.79428 15.9113Z" fill="#FFC233"/>
</g>
<defs>
<clipPath id="clip0_3017_3460">
<rect width="242.286" height="32" fill="white" transform="translate(0.857147)"/>
</clipPath>
</defs>
</svg>
