<svg width="496" height="312" viewBox="0 0 496 312" fill="none" xmlns="http://www.w3.org/2000/svg">
<path d="M24 0.5H472C484.979 0.5 495.5 11.0213 495.5 24V288C495.5 300.979 484.979 311.5 472 311.5H24C11.0213 311.5 0.5 300.979 0.5 288V24C0.5 11.0213 11.0213 0.5 24 0.5Z" fill="white"/>
<path d="M24 0.5H472C484.979 0.5 495.5 11.0213 495.5 24V288C495.5 300.979 484.979 311.5 472 311.5H24C11.0213 311.5 0.5 300.979 0.5 288V24C0.5 11.0213 11.0213 0.5 24 0.5Z" stroke="url(#paint0_linear_3797_24650)"/>
<path d="M229.582 171.073V140.546H241.749C243.348 140.546 244.802 140.953 246.11 141.767C247.418 142.552 248.45 143.642 249.206 145.038C249.991 146.433 250.384 147.989 250.384 149.704C250.384 151.477 249.991 153.077 249.206 154.501C248.45 155.926 247.418 157.06 246.11 157.903C244.802 158.746 243.348 159.167 241.749 159.167H233.376V171.073H229.582ZM233.376 155.46H241.836C242.708 155.46 243.493 155.213 244.191 154.719C244.889 154.196 245.441 153.498 245.848 152.626C246.255 151.754 246.459 150.78 246.459 149.704C246.459 148.657 246.255 147.727 245.848 146.913C245.441 146.099 244.889 145.445 244.191 144.95C243.493 144.456 242.708 144.209 241.836 144.209H233.376V155.46Z" fill="#E2E8F0"/>
<path d="M264.435 171.509C262.196 171.509 260.19 171 258.417 169.983C256.672 168.936 255.292 167.526 254.274 165.752C253.256 163.95 252.748 161.9 252.748 159.603C252.748 157.307 253.256 155.271 254.274 153.498C255.292 151.724 256.672 150.329 258.417 149.311C260.19 148.294 262.196 147.785 264.435 147.785C266.674 147.785 268.665 148.294 270.41 149.311C272.183 150.329 273.564 151.724 274.553 153.498C275.57 155.271 276.079 157.307 276.079 159.603C276.079 161.9 275.57 163.95 274.553 165.752C273.564 167.526 272.183 168.936 270.41 169.983C268.665 171 266.674 171.509 264.435 171.509ZM264.435 168.107C265.976 168.107 267.342 167.744 268.534 167.017C269.726 166.261 270.657 165.244 271.325 163.964C272.023 162.685 272.357 161.232 272.329 159.603C272.357 157.975 272.023 156.536 271.325 155.286C270.657 154.007 269.726 153.004 268.534 152.277C267.342 151.55 265.976 151.187 264.435 151.187C262.894 151.187 261.513 151.55 260.292 152.277C259.1 153.004 258.17 154.007 257.501 155.286C256.832 156.565 256.498 158.004 256.498 159.603C256.498 161.232 256.832 162.685 257.501 163.964C258.17 165.244 259.1 166.261 260.292 167.017C261.513 167.744 262.894 168.107 264.435 168.107Z" fill="#E2E8F0"/>
<path d="M280.064 171.075V138.803H283.727V171.075H280.064Z" fill="#E2E8F0"/>
<path d="M298.18 171.509C296.232 171.509 294.458 171 292.859 169.983C291.289 168.936 290.039 167.511 289.109 165.709C288.178 163.906 287.713 161.871 287.713 159.603C287.713 157.307 288.193 155.271 289.152 153.498C290.112 151.724 291.391 150.329 292.99 149.311C294.618 148.294 296.435 147.785 298.441 147.785C299.633 147.785 300.724 147.96 301.712 148.308C302.729 148.657 303.631 149.152 304.416 149.791C305.201 150.402 305.855 151.129 306.378 151.972C306.901 152.786 307.25 153.658 307.425 154.588L306.465 154.152L306.509 148.265H310.172V171.073H306.509V165.535L307.425 165.055C307.221 165.898 306.829 166.712 306.247 167.497C305.695 168.282 304.997 168.979 304.154 169.59C303.34 170.172 302.424 170.637 301.407 170.986C300.389 171.334 299.313 171.509 298.18 171.509ZM299.052 168.064C300.535 168.064 301.843 167.7 302.976 166.974C304.111 166.247 305.012 165.258 305.68 164.008C306.349 162.729 306.684 161.261 306.684 159.603C306.684 157.975 306.349 156.536 305.68 155.286C305.041 154.036 304.14 153.047 302.976 152.321C301.843 151.594 300.535 151.23 299.052 151.23C297.569 151.23 296.261 151.594 295.127 152.321C293.993 153.047 293.092 154.036 292.423 155.286C291.783 156.536 291.464 157.975 291.464 159.603C291.464 161.232 291.783 162.685 292.423 163.964C293.092 165.244 293.993 166.247 295.127 166.974C296.261 167.7 297.569 168.064 299.052 168.064Z" fill="#E2E8F0"/>
<path d="M314.879 171.073V148.265H318.542L318.629 154.675L318.237 153.585C318.556 152.51 319.08 151.536 319.807 150.663C320.533 149.791 321.391 149.093 322.38 148.57C323.397 148.047 324.473 147.785 325.607 147.785C326.101 147.785 326.567 147.829 327.002 147.916C327.467 147.974 327.845 148.061 328.136 148.178L327.133 152.233C326.755 152.059 326.363 151.928 325.956 151.841C325.549 151.754 325.17 151.71 324.822 151.71C323.891 151.71 323.034 151.884 322.249 152.233C321.493 152.582 320.839 153.062 320.286 153.673C319.763 154.254 319.342 154.937 319.022 155.722C318.731 156.507 318.586 157.35 318.586 158.251V171.073H314.879Z" fill="#E2E8F0"/>
<path fill-rule="evenodd" clip-rule="evenodd" d="M176.379 175.068C186.945 182.221 201.31 179.453 208.463 168.887C215.616 158.32 212.848 143.956 202.281 136.803C191.715 129.65 177.35 132.417 170.197 142.984C163.044 153.551 165.812 167.915 176.379 175.068ZM179.443 175.257C189.109 180.202 201.371 175.56 206.83 164.889C212.29 154.218 208.88 141.558 199.214 136.613C189.548 131.668 177.287 136.309 171.827 146.981C166.367 157.652 169.777 170.312 179.443 175.257Z" fill="#E2E8F0"/>
<path fill-rule="evenodd" clip-rule="evenodd" d="M182.198 177.781C190.923 180.621 201.187 173.119 205.124 161.024C209.06 148.93 205.178 136.823 196.453 133.983C187.728 131.144 177.463 138.646 173.527 150.74C169.59 162.834 173.473 174.941 182.198 177.781ZM184.867 176.862C192.251 178.437 200.236 170.344 202.701 158.786C205.166 147.228 201.178 136.582 193.794 135.007C186.41 133.432 178.425 141.525 175.96 153.083C173.495 164.64 177.483 175.287 184.867 176.862Z" fill="#E2E8F0"/>
<path fill-rule="evenodd" clip-rule="evenodd" d="M186.891 178.767C192.729 179.39 198.555 169.653 199.905 157.017C201.254 144.382 197.615 133.633 191.777 133.01C185.939 132.386 180.112 142.124 178.763 154.76C177.414 167.395 181.053 178.144 186.891 178.767ZM189.623 174.921C193.848 174.854 197.139 166.301 196.973 155.817C196.807 145.333 193.248 136.888 189.023 136.955C184.798 137.022 181.507 145.575 181.673 156.059C181.838 166.543 185.398 174.988 189.623 174.921Z" fill="#E2E8F0"/>
<defs>
<linearGradient id="paint0_linear_3797_24650" x1="248" y1="312" x2="248" y2="0" gradientUnits="userSpaceOnUse">
<stop stop-color="#EDF2F7"/>
<stop offset="1" stop-color="#EDF2F7" stop-opacity="0"/>
</linearGradient>
</defs>
</svg>
