<svg viewBox="0 0 36 36" fill="none" xmlns="http://www.w3.org/2000/svg">
<rect width="36" height="36" rx="2" fill="black"/>
<path d="M17.8847 26.7694C17.2014 26.7694 16.519 26.51 15.9974 25.992L15.3488 25.3433C15.0973 25.0928 14.7606 24.9542 14.4034 24.9533H13.4909C12.0159 24.9533 10.8155 23.7529 10.8155 22.2779V21.3645C10.8146 21.0082 10.676 20.6714 10.4245 20.4182L9.78658 19.7811C8.74167 18.7424 8.73723 17.0444 9.77681 15.9986L10.4254 15.3491C10.676 15.0977 10.8146 14.7609 10.8155 14.4037V13.4921C10.8155 12.0162 12.0159 10.8158 13.4909 10.8158H14.4043C14.7606 10.8158 15.0965 10.6772 15.3497 10.424L15.9885 9.78692C17.0272 8.742 18.7243 8.73667 19.771 9.77714L20.4197 10.4258C20.672 10.6772 21.0079 10.8158 21.3642 10.8158H22.2776C23.7525 10.8158 24.9529 12.0162 24.9529 13.4921V14.4046C24.9538 14.7609 25.0924 15.0977 25.3439 15.3509L25.9819 15.9889C26.4874 16.4918 26.7673 17.1617 26.77 17.877C26.7718 18.5878 26.4981 19.2569 25.9996 19.7625C25.9907 19.7714 25.9828 19.7811 25.9739 19.7891L25.343 20.42C25.0924 20.6714 24.9538 21.0082 24.9529 21.3654V22.2779C24.9529 23.7529 23.7525 24.9533 22.2776 24.9533H21.3642C21.0079 24.9542 20.6711 25.0928 20.4188 25.3442L19.7799 25.9822C19.2592 26.5064 18.5715 26.7694 17.8847 26.7694" fill="white"/>
<path fill-rule="evenodd" clip-rule="evenodd" d="M16.1471 16.1523C16.0005 16.2989 15.8103 16.378 15.5997 16.378C15.4025 16.378 15.2088 16.2971 15.0533 16.1514C14.9058 16.0048 14.8223 15.804 14.8223 15.6005C14.8223 15.4068 14.904 15.2078 15.048 15.0541C15.127 14.9741 15.2212 14.9137 15.3154 14.8817C15.5837 14.7591 15.94 14.831 16.1515 15.0532C16.227 15.1287 16.2848 15.2113 16.323 15.2975C16.3648 15.3899 16.3861 15.4948 16.3861 15.6005C16.3861 15.812 16.3017 16.0083 16.1471 16.1523ZM20.7219 15.0499C20.4189 14.7478 19.9258 14.7478 19.6228 15.0499L15.0557 19.6169C14.7527 19.9199 14.7527 20.4131 15.0557 20.7169C15.2032 20.8635 15.3978 20.9444 15.6057 20.9444C15.8136 20.9444 16.0082 20.8635 16.1548 20.7169L20.7219 16.1499C21.0249 15.846 21.0249 15.3538 20.7219 15.0499ZM20.469 19.4505C20.1811 19.3296 19.8399 19.3954 19.6124 19.6228C19.5653 19.6779 19.4987 19.7632 19.4534 19.8636C19.4054 19.972 19.3992 20.0884 19.3992 20.1666C19.3992 20.2448 19.4054 20.3603 19.4534 20.4687C19.4978 20.5682 19.5511 20.6491 19.6213 20.7193C19.7821 20.8685 19.9687 20.9441 20.1766 20.9441C20.3739 20.9441 20.5676 20.8641 20.7266 20.7157C20.8679 20.5744 20.9452 20.379 20.9452 20.1666C20.9452 19.9534 20.8679 19.7588 20.7257 19.6166C20.6476 19.5393 20.5534 19.4789 20.469 19.4505Z" fill="black"/>
</svg>
