<svg width="40" height="40" viewBox="0 0 40 40" fill="none" xmlns="http://www.w3.org/2000/svg">
<rect width="40" height="40" rx="8" fill="black"/>
<path d="M12.9963 19.3554C16.2745 18.8172 18.8449 16.2469 19.3831 12.9687L19.6473 11.3736C19.6962 11.0637 19.4451 10.793 19.1319 10.8158C16.6366 11.0083 14.2848 11.8368 12.9833 12.3685C12.3537 12.6262 11.9395 13.2394 11.9395 13.9244V18.964C11.9395 19.2609 12.2037 19.4859 12.4972 19.437L12.9963 19.3554Z" fill="#FFFEFA"/>
<path d="M20.9624 12.9687C21.5007 16.2469 24.071 18.8172 27.3492 19.3554L27.8483 19.437C28.1419 19.4859 28.406 19.2609 28.406 18.964V13.9244C28.406 13.2426 27.9918 12.6294 27.3622 12.3685C26.064 11.8335 23.7089 11.0083 21.2136 10.8158C20.9005 10.793 20.646 11.0637 20.6982 11.3736L20.9624 12.9687Z" fill="#FFFEFA"/>
<path d="M27.3515 20.9367C24.0733 21.4749 21.503 24.0453 20.9647 27.3235L20.6385 30.4353C20.6092 30.7158 20.9191 30.9148 21.154 30.7583C21.154 30.7583 21.1572 30.7583 21.1605 30.755C23.2155 29.3687 27.906 25.7382 28.3692 21.2042C28.3921 20.9824 28.1931 20.7997 27.9745 20.8356L27.3548 20.9367H27.3515Z" fill="#FFFEFA"/>
<path d="M19.3819 27.3222C18.8437 24.044 16.2733 21.4736 12.9951 20.9354L12.3264 20.8245C12.1307 20.7919 11.9546 20.9549 11.9741 21.1539C12.4145 25.7141 17.1704 29.3674 19.2416 30.7537C19.457 30.8972 19.7407 30.7243 19.7146 30.4666L19.3852 27.3189L19.3819 27.3222Z" fill="#FFFEFA"/>
</svg>
