<svg width="40" height="40" viewBox="0 0 40 40" fill="none" xmlns="http://www.w3.org/2000/svg">
<rect x="0.5" y="0.5" width="39" height="39" rx="7.5" fill="white"/>
<rect x="0.5" y="0.5" width="39" height="39" rx="7.5" stroke="#EDF2F7"/>
<path d="M20.0062 25.1766C20.005 25.1804 18.9622 23.9152 18.3531 23.2324L17.4902 25.2463C18.7308 27.0756 19.5508 28.6479 20.0008 29.4027C20.8811 27.9284 23.0264 23.5506 27.4721 19.4551L26.9814 18.3105C24.0951 20.4217 21.6372 23.1195 20.0062 25.1766Z" fill="#059BD2"/>
<path d="M26.4775 30.0001H29.9992L26.8923 22.6416C25.9872 23.5943 25.2017 24.5368 24.5215 25.4347L26.4775 30.0001Z" fill="#FC6600"/>
<path d="M21.5556 10H21.5339H18.4654H18.4453L10 30H13.522L19.6289 15.7459L19.918 14.9724H20.0825L20.3715 15.7459L22.1809 19.9705C22.9869 19.1774 23.8622 18.3909 24.787 17.6526L21.5556 10Z" fill="#FC6600"/>
</svg>
