<svg width="40" height="40" viewBox="0 0 40 40" fill="none" xmlns="http://www.w3.org/2000/svg">
<rect x="0.5" y="0.5" width="39" height="39" rx="7.5" fill="white"/>
<rect x="0.5" y="0.5" width="39" height="39" rx="7.5" stroke="#EDF2F7"/>
<path d="M13.7517 17.8187C13.7517 18.1453 13.7871 18.4101 13.8489 18.6043C13.9196 18.7985 14.0079 19.0103 14.1316 19.2398C14.1758 19.3104 14.1934 19.3811 14.1934 19.4428C14.1934 19.5311 14.1404 19.6194 14.0256 19.7077L13.4691 20.0784C13.3896 20.1313 13.3101 20.1578 13.2394 20.1578C13.1511 20.1578 13.0627 20.1137 12.9744 20.0343C12.8508 19.9018 12.7448 19.7606 12.6564 19.6194C12.5681 19.4693 12.4798 19.3016 12.3826 19.0986C11.6936 19.9107 10.8279 20.3167 9.78557 20.3167C9.04357 20.3167 8.45174 20.1049 8.0189 19.6812C7.58607 19.2575 7.36523 18.6926 7.36523 17.9864C7.36523 17.2361 7.63023 16.6271 8.16907 16.168C8.70791 15.7091 9.42339 15.4795 10.3332 15.4795C10.6336 15.4795 10.9427 15.506 11.2696 15.5502C11.5964 15.5943 11.9321 15.6649 12.2854 15.7444V15.1C12.2854 14.4291 12.1441 13.9613 11.8703 13.6877C11.5876 13.414 11.1106 13.2816 10.4304 13.2816C10.1213 13.2816 9.80325 13.3169 9.47642 13.3964C9.14956 13.4758 8.83157 13.5729 8.5224 13.6965C8.38107 13.7583 8.27507 13.7936 8.21324 13.8113C8.1514 13.8289 8.10724 13.8377 8.0719 13.8377C7.94824 13.8377 7.8864 13.7495 7.8864 13.5641V13.1316C7.8864 12.9903 7.90407 12.8844 7.94824 12.8226C7.9924 12.7608 8.0719 12.6991 8.19557 12.6373C8.50474 12.4784 8.87574 12.346 9.30858 12.2401C9.7414 12.1253 10.2007 12.0723 10.6866 12.0723C11.7378 12.0723 12.5063 12.3107 13.0009 12.7873C13.4868 13.264 13.7341 13.9878 13.7341 14.9588V17.8187H13.7517ZM10.1654 19.1604C10.4569 19.1604 10.7573 19.1074 11.0753 19.0015C11.3933 18.8956 11.6759 18.7014 11.9144 18.4366C12.0557 18.2689 12.1618 18.0835 12.2148 17.8717C12.2677 17.6598 12.3031 17.4038 12.3031 17.1037V16.733C12.0469 16.6712 11.7731 16.6182 11.4904 16.5829C11.2077 16.5476 10.9339 16.53 10.6601 16.53C10.0683 16.53 9.63541 16.6447 9.3439 16.883C9.05241 17.1214 8.91107 17.4568 8.91107 17.8981C8.91107 18.313 9.01707 18.6219 9.23791 18.8338C9.44992 19.0545 9.75907 19.1604 10.1654 19.1604ZM17.2586 20.1137C17.0996 20.1137 16.9936 20.0872 16.9229 20.0254C16.8523 19.9725 16.7904 19.8489 16.7374 19.6812L14.6616 12.8579C14.6086 12.6814 14.5821 12.5666 14.5821 12.5049C14.5821 12.3636 14.6528 12.2842 14.7941 12.2842H15.6598C15.8276 12.2842 15.9425 12.3107 16.0043 12.3725C16.0749 12.4254 16.1279 12.549 16.1809 12.7167L17.665 18.5602L19.043 12.7167C19.0871 12.5402 19.1401 12.4254 19.2108 12.3725C19.2814 12.3195 19.4051 12.2842 19.5641 12.2842H20.2708C20.4386 12.2842 20.5535 12.3107 20.6241 12.3725C20.6948 12.4254 20.7566 12.549 20.792 12.7167L22.1876 18.6308L23.7158 12.7167C23.7688 12.5402 23.8306 12.4254 23.8925 12.3725C23.9631 12.3195 24.078 12.2842 24.237 12.2842H25.0585C25.1998 12.2842 25.2793 12.3548 25.2793 12.5049C25.2793 12.549 25.2705 12.5931 25.2616 12.6461C25.2528 12.6991 25.2351 12.7697 25.1998 12.8668L23.071 19.69C23.018 19.8666 22.9561 19.9813 22.8855 20.0343C22.8148 20.0872 22.7 20.1225 22.5498 20.1225H21.7901C21.6223 20.1225 21.5075 20.096 21.4368 20.0343C21.3661 19.9725 21.3043 19.8577 21.269 19.6812L19.8998 13.9878L18.5394 19.6724C18.4953 19.8489 18.4423 19.9637 18.3716 20.0254C18.3009 20.0872 18.1773 20.1137 18.0183 20.1137H17.2586ZM28.6095 20.352C28.1502 20.352 27.6908 20.2991 27.2491 20.1931C26.8075 20.0872 26.463 19.9725 26.2333 19.8401C26.092 19.7606 25.9948 19.6724 25.9595 19.5929C25.9241 19.5135 25.9065 19.4252 25.9065 19.3457V18.8956C25.9065 18.7102 25.9772 18.6219 26.1096 18.6219C26.1626 18.6219 26.2156 18.6308 26.2686 18.6484C26.3217 18.6661 26.4012 18.7014 26.4895 18.7367C26.7898 18.8691 27.1167 18.975 27.4612 19.0456C27.8145 19.1162 28.159 19.1516 28.5123 19.1516C29.0688 19.1516 29.5017 19.0545 29.802 18.8603C30.1023 18.6661 30.2613 18.3836 30.2613 18.0217C30.2613 17.7746 30.1818 17.5715 30.0228 17.4038C29.8638 17.2361 29.5635 17.0861 29.1307 16.9448L27.8498 16.5476C27.205 16.3446 26.728 16.0445 26.4365 15.6473C26.145 15.2589 25.9948 14.8264 25.9948 14.3673C25.9948 13.9966 26.0743 13.67 26.2333 13.3876C26.3923 13.1051 26.6043 12.8579 26.8693 12.6637C27.1343 12.4607 27.4347 12.3107 27.788 12.2047C28.1413 12.0988 28.5123 12.0547 28.901 12.0547C29.0953 12.0547 29.2985 12.0635 29.4928 12.09C29.696 12.1165 29.8815 12.1518 30.067 12.1871C30.2437 12.2312 30.4115 12.2754 30.5705 12.3283C30.7295 12.3813 30.8532 12.4342 30.9415 12.4872C31.0652 12.5578 31.1535 12.6284 31.2065 12.7079C31.2595 12.7785 31.286 12.8756 31.286 12.9992V13.414C31.286 13.5994 31.2153 13.6965 31.0828 13.6965C31.0122 13.6965 30.8973 13.6612 30.7471 13.5906C30.2437 13.3611 29.6783 13.2463 29.0512 13.2463C28.5477 13.2463 28.1502 13.3258 27.8763 13.4935C27.6025 13.6612 27.4612 13.9172 27.4612 14.2791C27.4612 14.5262 27.5495 14.7381 27.7262 14.9058C27.9028 15.0735 28.2296 15.2412 28.6978 15.3913L29.9522 15.7885C30.5882 15.9915 31.0475 16.274 31.3213 16.6359C31.5952 16.9978 31.7277 17.4127 31.7277 17.8717C31.7277 18.2512 31.6482 18.5955 31.498 18.8956C31.339 19.1957 31.127 19.4605 30.8532 19.6724C30.5793 19.893 30.2525 20.0519 29.8727 20.1667C29.4752 20.2902 29.06 20.352 28.6095 20.352Z" fill="#252F3E"/>
<path fill-rule="evenodd" clip-rule="evenodd" d="M30.2795 24.6423C27.3733 26.7872 23.151 27.9259 19.5205 27.9259C14.4324 27.9259 9.84793 26.0457 6.38524 22.921C6.11141 22.6738 6.35874 22.3384 6.68557 22.5326C10.4309 24.704 15.0508 26.0193 19.8296 26.0193C23.0538 26.0193 26.596 25.3484 29.8555 23.9714C30.3413 23.7507 30.7565 24.2892 30.2795 24.6423Z" fill="#FF9900"/>
<path fill-rule="evenodd" clip-rule="evenodd" d="M31.4901 23.2651C31.1191 22.7885 29.0344 23.0356 28.0893 23.1504C27.8066 23.1857 27.7625 22.9385 28.0186 22.7531C29.6793 21.588 32.4088 21.9234 32.7268 22.3118C33.0448 22.709 32.6385 25.4366 31.0838 26.7429C30.8453 26.946 30.6156 26.84 30.7216 26.5752C31.075 25.7013 31.8611 23.7329 31.4901 23.2651Z" fill="#FF9900"/>
</svg>
