<svg width="40" height="40" viewBox="0 0 40 40" fill="none" xmlns="http://www.w3.org/2000/svg">
<rect width="40" height="40" rx="8" fill="#7847D3"/>
<path fill-rule="evenodd" clip-rule="evenodd" d="M24.5579 17.9302C24.1117 17.9302 23.7491 17.5619 23.7491 17.109C23.7491 16.656 24.1117 16.2873 24.5579 16.2873C25.0037 16.2873 25.3663 16.656 25.3663 17.109C25.3663 17.5619 25.0037 17.9302 24.5579 17.9302ZM22.5092 22.9248C22.0634 22.9248 21.7009 22.5565 21.7009 22.1035C21.7009 21.6506 22.0634 21.2823 22.5092 21.2823C22.955 21.2823 23.318 21.6506 23.318 22.1035C23.318 22.5565 22.955 22.9248 22.5092 22.9248ZM17.5926 22.0924C17.1472 22.0924 16.7846 21.7241 16.7846 21.2712C16.7846 20.8183 17.1472 20.4495 17.5926 20.4495C18.0388 20.4495 18.4013 20.8183 18.4013 21.2712C18.4013 21.7241 18.0388 22.0924 17.5926 22.0924ZM15.5443 26.6708C15.0989 26.6708 14.7359 26.3025 14.7359 25.8496C14.7359 25.3967 15.0989 25.0283 15.5443 25.0283C15.9905 25.0283 16.3531 25.3967 16.3531 25.8496C16.3531 26.3025 15.9905 26.6708 15.5443 26.6708ZM24.5579 15.4327C23.6482 15.4327 22.9079 16.1847 22.9079 17.109C22.9079 17.6755 23.1876 18.175 23.6128 18.4788L22.8432 20.4623C22.7351 20.4397 22.6232 20.4277 22.5092 20.4277C21.7858 20.4277 21.1764 20.9063 20.9547 21.5664L19.2324 21.1686C19.179 20.2931 18.4682 19.5949 17.5926 19.5949C16.6832 19.5949 15.9434 20.347 15.9434 21.2712C15.9434 21.7032 16.1091 22.0937 16.3745 22.3911L15.6229 24.1819C15.596 24.1802 15.5712 24.1738 15.5443 24.1738C14.635 24.1738 13.8947 24.9254 13.8947 25.8496C13.8947 26.7734 14.635 27.5254 15.5443 27.5254C16.454 27.5254 17.1943 26.7734 17.1943 25.8496C17.1943 25.2565 16.8881 24.7378 16.4292 24.4395L17.0925 22.8598C17.2515 22.9116 17.4172 22.947 17.5926 22.947C18.2415 22.947 18.7988 22.5612 19.0676 22.007L20.8921 22.4283C21.0414 23.1974 21.7093 23.7794 22.5092 23.7794C23.419 23.7794 24.1592 23.0278 24.1592 22.1035C24.1592 21.604 23.9384 21.1601 23.596 20.8524L24.4048 18.769C24.4561 18.7741 24.5053 18.7848 24.5579 18.7848C25.4672 18.7848 26.2075 18.0328 26.2075 17.109C26.2075 16.1847 25.4672 15.4327 24.5579 15.4327ZM20 31.1454C15.9026 31.1454 12.8412 29.8935 12.8412 28.774V12.7792C14.235 13.9321 17.1854 14.5414 20.0088 14.5414C22.8196 14.5414 25.7574 13.9372 27.1588 12.7942V28.774C27.1588 29.8935 24.0969 31.1454 20 31.1454ZM20.0088 8.85458C24.2223 8.85458 27.1588 10.1279 27.1588 11.2709C27.1588 12.4135 24.2223 13.6868 20.0088 13.6868C15.795 13.6868 12.8588 12.4135 12.8588 11.2709C12.8588 10.1279 15.795 8.85458 20.0088 8.85458ZM28 11.2709C28 9.14642 23.8829 8 20.0088 8C16.1348 8 12.0177 9.14642 12.0177 11.2709C12.0177 11.2743 12.0185 11.2782 12.0185 11.2816H12V28.774C12 30.8694 16.1218 32 20 32C23.8782 32 28 30.8694 28 28.774V11.2816H27.9992C27.9992 11.2782 28 11.2743 28 11.2709Z" fill="white"/>
</svg>
