<svg width="40" height="40" viewBox="0 0 40 40" fill="none" xmlns="http://www.w3.org/2000/svg">
<rect x="0.5" y="0.5" width="39" height="39" rx="7.5" fill="white"/>
<rect x="0.5" y="0.5" width="39" height="39" rx="7.5" stroke="#EDF2F7"/>
<path d="M22.3083 26.9147C21.8835 26.9147 21.5391 26.5703 21.5391 26.1455V19.9997C21.5391 19.5749 21.8835 19.2305 22.3083 19.2305C22.7331 19.2305 23.0775 19.5749 23.0775 19.9997V26.1455C23.0775 26.5703 22.7331 26.9147 22.3083 26.9147Z" fill="#34A853"/>
<path d="M15.3846 26.9148C14.9598 26.9148 14.6154 26.5704 14.6154 26.1456V17.6921C14.6154 17.2673 14.9598 16.9229 15.3846 16.9229C15.8094 16.9229 16.1538 17.2673 16.1538 17.6921V26.1456C16.1538 26.5704 15.8094 26.9148 15.3846 26.9148Z" fill="#34A853"/>
<path d="M18.8454 27.6921C18.4206 27.6921 18.0762 27.3477 18.0762 26.9229V15.3845C18.0762 14.9597 18.4206 14.6152 18.8454 14.6152C19.2702 14.6152 19.6146 14.9597 19.6146 15.3845V26.9229C19.6146 27.3477 19.2702 27.6921 18.8454 27.6921Z" fill="#34A853"/>
<path d="M18.8461 27.6918C13.9684 27.6918 10 23.7235 10 18.8457H11.5385C11.5385 22.8752 14.8167 26.1534 18.8461 26.1534C22.8756 26.1534 26.1538 22.8752 26.1538 18.8457H27.6923C27.6923 23.7235 23.7239 27.6918 18.8461 27.6918Z" fill="#FBBC04"/>
<path d="M27.6923 18.8461H26.1538C26.1538 14.8167 22.8756 11.5385 18.8461 11.5385C14.8167 11.5385 11.5385 14.8167 11.5385 18.8461H10C10 13.9684 13.9684 10 18.8461 10C23.7239 10 27.6923 13.9684 27.6923 18.8461Z" fill="#EA4335"/>
<path d="M29.2316 29.9999C29.0348 29.9999 28.8379 29.9248 28.6877 29.7746L24.0144 25.1012C23.714 24.8008 23.714 24.3138 24.0144 24.0134C24.3148 23.713 24.8018 23.713 25.1022 24.0134L29.7756 28.6867C30.076 28.9872 30.076 29.4742 29.7756 29.7746C29.6253 29.9248 29.4285 29.9999 29.2316 29.9999V29.9999Z" fill="#4285F4"/>
<path d="M25.1015 25.1011L24.0137 24.0132C26.8629 21.164 26.8629 16.5279 24.0137 13.6787L25.1015 12.5908C26.7723 14.2616 27.6925 16.4831 27.6925 18.8459C27.6925 21.2088 26.7723 23.4303 25.1015 25.1011Z" fill="#4285F4"/>
<mask id="mask0_1017_21680" style="mask-type:luminance" maskUnits="userSpaceOnUse" x="10" y="10" width="18" height="18">
<path d="M18.8461 27.6923C13.9684 27.6923 10 23.7239 10 18.8461C10 13.9684 13.9684 10 18.8461 10C23.7239 10 27.6923 13.9684 27.6923 18.8461C27.6923 23.7239 23.7239 27.6923 18.8461 27.6923ZM18.8461 11.5385C14.8167 11.5385 11.5385 14.8167 11.5385 18.8461C11.5385 22.8756 14.8167 26.1538 18.8461 26.1538C22.8756 26.1538 26.1538 22.8756 26.1538 18.8461C26.1538 14.8167 22.8756 11.5385 18.8461 11.5385Z" fill="white"/>
</mask>
<g mask="url(#mask0_1017_21680)">
<path d="M29.2313 30.0006C29.0345 30.0006 28.8376 29.9255 28.6874 29.7752L21.7644 22.8522C21.464 22.5518 21.464 22.0648 21.7644 21.7644C22.0648 21.464 22.5518 21.464 22.8522 21.7644L29.7753 28.6874C30.0757 28.9878 30.0757 29.4749 29.7753 29.7753C29.6251 29.9255 29.4282 30.0006 29.2314 30.0006L29.2313 30.0006Z" fill="#4285F4"/>
</g>
</svg>
