<svg width="40" height="40" viewBox="0 0 40 40" fill="none" xmlns="http://www.w3.org/2000/svg">
<rect x="0.5" y="0.5" width="39" height="39" rx="7.5" fill="white"/>
<rect x="0.5" y="0.5" width="39" height="39" rx="7.5" stroke="#EDF2F7"/>
<path d="M22.2137 26.3675C22.2137 27.094 21.5462 27.6904 20.7918 27.6904H16.7175V19.9265H20.7918C21.5509 19.9265 22.2137 20.516 22.2137 21.2495V26.3675ZM16.7493 15.6962V8H12V32H21.9388C24.7348 32 27 29.754 27 26.9813V20.7149C27 17.9424 24.7348 15.6962 21.9388 15.6962H16.7493Z" fill="#FF5A0A"/>
<path d="M18.0352 14.3596V8.19238L24.4146 12.8546C26.6238 14.4903 27.0429 16.8713 26.9911 16.8117C25.5528 15.1241 23.6319 14.3835 22.3095 14.3637L18.0352 14.3596Z" fill="#FF9C6C"/>
</svg>
