<svg width="40" height="40" viewBox="0 0 40 40" fill="none" xmlns="http://www.w3.org/2000/svg">
<rect width="40" height="40" rx="8" fill="#FAFF68"/>
<mask id="mask0_1017_21752" style="mask-type:luminance" maskUnits="userSpaceOnUse" x="8" y="8" width="24" height="24">
<path d="M32 8H8V32H32V8Z" fill="white"/>
</mask>
<g mask="url(#mask0_1017_21752)">
<path d="M11.8883 9.875H10.1117C9.98096 9.875 9.875 9.98096 9.875 10.1117V29.8876C9.875 30.0183 9.98096 30.1243 10.1117 30.1243H11.8883C12.019 30.1243 12.1249 30.0183 12.1249 29.8876V10.1117C12.1249 9.98096 12.019 9.875 11.8883 9.875Z" fill="#141413"/>
<path d="M16.3884 9.875H14.6118C14.4811 9.875 14.3751 9.98096 14.3751 10.1117V29.8876C14.3751 30.0183 14.4811 30.1243 14.6118 30.1243H16.3884C16.5191 30.1243 16.625 30.0183 16.625 29.8876V10.1117C16.625 9.98096 16.5191 9.875 16.3884 9.875Z" fill="#141413"/>
<path d="M20.8885 9.875H19.1119C18.9812 9.875 18.8752 9.98096 18.8752 10.1117V29.8876C18.8752 30.0183 18.9812 30.1243 19.1119 30.1243H20.8885C21.0192 30.1243 21.1252 30.0183 21.1252 29.8876V10.1117C21.1252 9.98096 21.0192 9.875 20.8885 9.875Z" fill="#141413"/>
<path d="M25.3883 9.875H23.6117C23.481 9.875 23.375 9.98096 23.375 10.1117V29.8876C23.375 30.0183 23.481 30.1243 23.6117 30.1243H25.3883C25.519 30.1243 25.6249 30.0183 25.6249 29.8876V10.1117C25.6249 9.98096 25.519 9.875 25.3883 9.875Z" fill="#141413"/>
<path d="M29.8883 17.75H28.1117C27.981 17.75 27.875 17.856 27.875 17.9867V22.0132C27.875 22.1439 27.981 22.2498 28.1117 22.2498H29.8883C30.019 22.2498 30.1249 22.1439 30.1249 22.0132V17.9867C30.1249 17.856 30.019 17.75 29.8883 17.75Z" fill="#141413"/>
</g>
</svg>
