<svg width="40" height="40" viewBox="0 0 40 40" fill="none" xmlns="http://www.w3.org/2000/svg">
<rect width="40" height="40" rx="8" fill="#EE3E2C"/>
<path d="M28.7019 18.0806L20.3519 22.6704L11.4676 17.822L11.0668 18.016V21.5714L20.4187 26.6783L28.7019 22.0886V23.9633L20.3519 28.553L11.4676 23.7047L11.0668 23.8986V24.4804L20.4187 29.5873L29.7707 24.4804V20.9896L29.3699 20.7957L20.4187 25.7087L12.002 21.0542V19.1796L20.3519 23.7693L29.7039 18.6624V15.1069L29.2363 14.8484L20.3519 19.6967L12.4696 15.3655L20.3519 11.0343L26.8983 14.5898L27.4995 14.2666V13.8787L20.3519 10L11 15.1069V15.6241L20.3519 20.731L28.7019 16.2059V18.0806Z" fill="white"/>
</svg>
