<svg width="40" height="40" viewBox="0 0 40 40" fill="none" xmlns="http://www.w3.org/2000/svg">
<rect width="40" height="40" rx="8" fill="#F72A30"/>
<path d="M10.3175 19.0476L13.6508 19.0526L10 10C10 10 16.5613 10 20 10C25.5228 10 30 14.4772 30 20C30 25.5228 25.5228 30 20 30C18.9343 30 14.6316 30 14.6316 30L10.3175 19.0476Z" fill="white"/>
<path d="M20.1625 16.784V18.9305C20.1625 18.9955 20.2196 19.048 20.2894 19.048H23.2044C23.2742 19.048 23.3313 19.1006 23.3313 19.1656V21.3153C23.3313 21.3803 23.2742 21.4329 23.2044 21.4329H20.2878C20.218 21.4329 20.1609 21.4855 20.1609 21.5504V26.0733C20.1609 26.1384 20.1038 26.1909 20.0341 26.1909H17.7459C17.6761 26.1909 17.619 26.1384 17.619 26.0733V14.4037C17.619 14.3387 17.6761 14.2861 17.7459 14.2861H23.8414C23.9111 14.2861 23.9682 14.3387 23.9682 14.4037V16.5488C23.9682 16.6138 23.9111 16.6664 23.8414 16.6664H20.2894C20.218 16.6664 20.1625 16.719 20.1625 16.784Z" fill="white"/>
<path d="M20.1625 16.784V18.9305C20.1625 18.9955 20.2196 19.048 20.2894 19.048H23.2044C23.2742 19.048 23.3313 19.1006 23.3313 19.1656V21.3153C23.3313 21.3803 23.2742 21.4329 23.2044 21.4329H20.2878C20.218 21.4329 20.1609 21.4855 20.1609 21.5504V26.0733C20.1609 26.1384 20.1038 26.1909 20.0341 26.1909H17.7459C17.6761 26.1909 17.619 26.1384 17.619 26.0733V14.4037C17.619 14.3387 17.6761 14.2861 17.7459 14.2861H23.8414C23.9111 14.2861 23.9682 14.3387 23.9682 14.4037V16.5488C23.9682 16.6138 23.9111 16.6664 23.8414 16.6664H20.2894C20.218 16.6664 20.1625 16.719 20.1625 16.784Z" fill="#F72A30"/>
</svg>
