<svg width="40" height="40" viewBox="0 0 40 40" fill="none" xmlns="http://www.w3.org/2000/svg">
<rect x="0.5" y="0.5" width="39" height="39" rx="7.5" fill="white"/>
<rect x="0.5" y="0.5" width="39" height="39" rx="7.5" stroke="#EDF2F7"/>
<path d="M23 13.9091V25.9091C23 27.2518 23.9264 28 24.9091 28C25.8182 28 26.8182 27.3636 26.8182 25.9091V14C26.8182 12.7691 25.9091 12 24.9091 12C23.9091 12 23 12.8482 23 13.9091Z" fill="#F9AB00"/>
<path d="M18 19.9999V25.909C18 27.2517 18.9264 27.9999 19.9091 27.9999C20.8182 27.9999 21.8182 27.3635 21.8182 25.909V20.0908C21.8182 18.8599 20.9091 18.0908 19.9091 18.0908C18.9091 18.0908 18 18.939 18 19.9999Z" fill="#E37400"/>
<path d="M14.9091 27.9998C15.9635 27.9998 16.8182 27.1451 16.8182 26.0907C16.8182 25.0364 15.9635 24.1816 14.9091 24.1816C13.8547 24.1816 13 25.0364 13 26.0907C13 27.1451 13.8547 27.9998 14.9091 27.9998Z" fill="#E37400"/>
</svg>
