<svg width="40" height="40" viewBox="0 0 40 40" fill="none" xmlns="http://www.w3.org/2000/svg">
<rect width="40" height="40" rx="8" fill="#FF5C35"/>
<path d="M24.666 16.5824V14.2014C25.2875 13.9078 25.723 13.279 25.723 12.5493V12.4943C25.723 11.4873 24.899 10.6634 23.8921 10.6634H23.8371C22.8301 10.6634 22.0061 11.4873 22.0061 12.4943V12.5493C22.0061 13.279 22.4417 13.9079 23.0631 14.2014V16.5825C22.1378 16.7254 21.2923 17.1071 20.5946 17.6688L14.0571 12.5832C14.1001 12.4176 14.1303 12.2469 14.1305 12.0679C14.132 10.9273 13.2086 10.0015 12.0679 10C10.9273 9.99858 10.0015 10.922 10 12.0626C9.99862 13.2032 10.922 14.129 12.0627 14.1305C12.4344 14.1309 12.7785 14.0254 13.08 13.8539L19.511 18.8566C18.964 19.6822 18.6437 20.6711 18.6437 21.7356C18.6437 22.8501 18.9958 23.8809 19.5908 24.7288L17.6351 26.6846C17.4804 26.6382 17.3199 26.6058 17.1501 26.6058C16.2129 26.6058 15.453 27.3656 15.453 28.3029C15.453 29.2402 16.2129 30 17.1501 30C18.0875 30 18.8472 29.2402 18.8472 28.3029C18.8472 28.1332 18.8148 27.9726 18.7684 27.818L20.703 25.8835C21.5811 26.5539 22.6746 26.9565 23.8647 26.9565C26.7481 26.9565 29.0855 24.619 29.0855 21.7356C29.0855 19.1253 27.168 16.9689 24.666 16.5824ZM23.8647 24.4123C22.3864 24.4123 21.1878 23.2139 21.1878 21.7356C21.1878 20.2573 22.3864 19.0589 23.8647 19.0589C25.3429 19.0589 26.5414 20.2573 26.5414 21.7356C26.5414 23.2139 25.3429 24.4123 23.8647 24.4123Z" fill="white"/>
</svg>
