<svg width="40" height="40" viewBox="0 0 40 40" fill="none" xmlns="http://www.w3.org/2000/svg">
<rect x="0.5" y="0.5" width="39" height="39" rx="7.5" fill="white"/>
<rect x="0.5" y="0.5" width="39" height="39" rx="7.5" stroke="#EDF2F7"/>
<path d="M19.4366 8C18.2301 8 17.3262 8.90393 17.3262 10.1104C17.3262 10.5126 17.427 10.9148 17.7284 11.3169L18.6323 10.413V10.1117C18.6323 9.60869 19.0344 9.20779 19.5362 9.20779C20.038 9.20779 20.4401 9.60996 20.4401 10.1117C20.4401 10.6135 20.038 11.0156 19.5362 11.0156H19.2349L18.331 11.82C19.3358 12.4226 20.6431 12.2222 21.2458 11.2174C21.8484 10.2126 21.6479 8.90521 20.6431 8.30259C20.3418 8.10214 19.9397 8.00128 19.4366 8.00128V8Z" fill="#AECBFA"/>
<path d="M18.6332 14.1307C18.6332 13.4272 18.4328 12.7237 18.0306 12.1211L16.8241 13.3276C16.925 13.6289 17.0246 13.8306 17.0246 14.132C17.0246 14.635 16.8241 15.0358 16.5215 15.3385L17.1241 16.9471C18.1289 16.3445 18.6319 15.2389 18.6319 14.1332L18.6332 14.1307Z" fill="#5E97F6"/>
<path d="M15.4166 15.8387C14.5126 15.8387 13.7082 15.1352 13.7082 14.23C13.7082 13.3248 14.4117 12.5217 15.317 12.5217C15.6182 12.5217 16.0205 12.6226 16.3217 12.8231L17.5282 11.7174C16.8247 11.1148 16.1213 10.8135 15.317 10.8135C13.5078 10.8135 12 12.3213 12 14.1305C12 15.9396 13.407 17.4473 15.317 17.4473C15.5174 17.4473 15.82 17.4473 16.0205 17.3465L15.4178 15.8387H15.4166Z" fill="#5E97F6"/>
<path d="M19.5381 17.1445C18.8347 17.1445 18.1312 17.2454 17.4277 17.4458L18.3316 19.6571C18.7338 19.6571 19.1359 19.5563 19.5381 19.5563C22.352 19.5563 24.5633 21.8684 24.5633 24.5815C24.5633 27.2945 22.2512 29.6067 19.5381 29.6067C16.8251 29.6067 14.5129 27.2945 14.5129 24.5815C14.5129 22.6715 15.5177 20.9632 17.2259 20.1589L16.3221 17.9475C12.6029 19.7579 11.0964 24.2801 12.9042 27.8984C14.7133 31.6175 19.2355 33.1241 22.8538 31.3149C26.5729 29.5058 28.0795 24.9836 26.2703 21.3654C24.9642 18.8528 22.3508 17.1445 19.5368 17.1445H19.5381Z" fill="#4285F4"/>
</svg>
