<svg width="40" height="40" viewBox="0 0 40 40" fill="none" xmlns="http://www.w3.org/2000/svg">
<rect width="40" height="40" rx="8" fill="black"/>
<path d="M33.4245 18.476C32.8009 18.476 32.2813 18.0602 32.1196 17.4944H35.5378L35.9998 16.7553H32.1196C32.2813 16.201 32.8125 15.7853 33.4245 15.7853H35.7688L36.2307 15.0462H33.3668C32.8155 15.0462 32.2868 15.2652 31.897 15.655C31.5071 16.0448 31.2881 16.5736 31.2881 17.1248C31.2881 17.6761 31.5071 18.2049 31.897 18.5947C32.2868 18.9845 32.8155 19.2035 33.3668 19.2035H35.8381L36.3 18.4644H33.413M23.6433 19.192H26.1146L26.5881 18.4644H23.701C23.3458 18.4644 23.005 18.3233 22.7538 18.0721C22.5026 17.8209 22.3615 17.4801 22.3615 17.1248C22.3615 16.7696 22.5026 16.4288 22.7538 16.1776C23.005 15.9264 23.3458 15.7853 23.701 15.7853H26.0568L26.5188 15.0462H23.6548C23.3819 15.0454 23.1114 15.0984 22.8589 15.2022C22.6065 15.306 22.3769 15.4584 22.1833 15.6509C21.9898 15.8434 21.836 16.0721 21.7309 16.324C21.6257 16.5759 21.5712 16.8461 21.5704 17.1191C21.5697 17.392 21.6227 17.6625 21.7264 17.915C21.8302 18.1675 21.9827 18.397 22.1752 18.5906C22.3676 18.7842 22.5964 18.9379 22.8483 19.0431C23.1002 19.1482 23.3703 19.2027 23.6433 19.2035V19.192ZM8.45756 18.476H6.14794C5.40887 18.476 4.79682 17.8755 4.79682 17.1364C4.79682 16.3858 5.40887 15.7968 6.1364 15.7968H8.44601C9.19664 15.7968 9.79714 16.3973 9.79714 17.1364C9.79714 17.8755 9.19664 18.476 8.45756 18.476ZM6.0902 19.192H8.50375C9.65856 19.192 10.5824 18.2681 10.5824 17.1133C10.5824 15.9585 9.65856 15.0346 8.50375 15.0346H6.07866C5.52736 15.0346 4.99865 15.2536 4.60882 15.6435C4.219 16.0333 4 16.562 4 17.1133C4 17.6646 4.219 18.1933 4.60882 18.5831C4.99865 18.973 5.52736 19.192 6.07866 19.192H6.0902ZM14.5203 17.8639C14.7153 17.8816 14.9118 17.8585 15.0973 17.796C15.2828 17.7336 15.4533 17.6331 15.5978 17.5011C15.7424 17.3691 15.8578 17.2084 15.9368 17.0293C16.0158 16.8502 16.0566 16.6566 16.0566 16.4608C16.0566 16.2651 16.0158 16.0715 15.9368 15.8924C15.8578 15.7132 15.7424 15.5526 15.5978 15.4205C15.4533 15.2885 15.2828 15.1881 15.0973 15.1256C14.9118 15.0632 14.7153 15.04 14.5203 15.0577H11.0212V19.2151H11.8296V15.7853H14.4626C14.8321 15.7853 15.1324 16.074 15.1324 16.4551C15.1324 16.8246 14.8321 17.1248 14.4626 17.1248H12.2107L14.6011 19.2035H15.756L14.1508 17.8408H14.5203M27.7429 18.476V15.0462H26.9345V18.8109C26.9345 18.9263 26.9807 19.0072 27.05 19.088C27.1424 19.1689 27.2463 19.2035 27.3502 19.2035H30.9994L31.4614 18.476H27.7429ZM17.9616 17.7369H20.0865L18.9663 15.9123L16.8877 19.192H15.9407L18.4582 15.2656C18.5621 15.0924 18.7469 15 18.9548 15C19.0484 15.0008 19.1404 15.0243 19.2229 15.0686C19.3053 15.1129 19.3758 15.1765 19.4282 15.2541L21.9688 19.2151H21.0334L20.5831 18.476H18.4236L17.9616 17.7369ZM4.40418 21.6979H5.45506L6.74845 24.4001V21.6979H7.42978V25.1277H6.4251L5.09707 22.2753V25.1161H4.40418V21.6979ZM8.2035 21.6979H10.5016V22.2753H8.94258V23.0837H10.3976V23.6495H8.94258V24.5734H10.5593V25.1277H8.19196V21.6979H8.2035ZM11.9797 22.2637H10.9404V21.6979H13.7235V22.2753H12.7073V25.1277H11.9682V22.2637H11.9797ZM14.6242 24.123C14.6358 24.3655 14.6589 24.8159 15.4557 24.8159C16.1601 24.8159 16.2641 24.3655 16.2641 24.1923C16.2641 23.8112 15.9523 23.7304 15.4673 23.6149C14.9476 23.4878 14.7166 23.4301 14.5434 23.3146C14.4312 23.2432 14.3393 23.144 14.2766 23.0267C14.2139 22.9093 14.1825 22.7778 14.1854 22.6448C14.1854 21.9519 14.8321 21.6401 15.4788 21.6401C15.7098 21.6401 16.1717 21.6748 16.4488 21.975C16.6336 22.1829 16.6452 22.4139 16.6567 22.5524H16.1601C16.137 22.1367 15.779 22.0328 15.4442 22.0328C14.9822 22.0328 14.682 22.2522 14.682 22.5871C14.682 22.8989 14.8783 22.9913 15.294 23.0952C16.1024 23.3146 16.2063 23.3262 16.4026 23.4532C16.726 23.6726 16.7491 23.996 16.7491 24.1461C16.7491 24.7466 16.2756 25.2085 15.3864 25.2085C15.1324 25.2085 14.6011 25.1739 14.324 24.8274C14.1277 24.5734 14.1277 24.3078 14.1277 24.1345H14.6242V24.123ZM17.9732 21.6979V23.8227C17.9732 24.1807 18.054 24.3424 18.1233 24.4348C18.3312 24.7119 18.6661 24.7812 18.897 24.7812C19.8209 24.7812 19.8209 24.0422 19.8209 23.7881V21.7094H20.2828V23.8227C20.2828 24.0075 20.2828 24.377 19.9941 24.735C19.6592 25.1623 19.1395 25.197 18.8855 25.197C18.5621 25.197 17.9847 25.1046 17.6729 24.6542C17.569 24.5041 17.4766 24.3078 17.4766 23.7881V21.7094H17.9732V21.6979ZM21.2644 25.1392H21.7379V21.6979H21.2759V25.1277L21.2644 25.1392ZM23.5856 25.1392V22.1021H22.4307V21.6979H25.2023V22.1021H24.0475V25.1277H23.5856V25.1392ZM25.7681 21.6979H27.9161V22.1021H26.2416V23.176H27.8353V23.5802H26.2416V24.7235H27.9507V25.1277H25.7681V21.6979Z" fill="white"/>
</svg>
