<svg width="40" height="40" viewBox="0 0 40 40" fill="none" xmlns="http://www.w3.org/2000/svg">
<rect width="40" height="40" rx="8" fill="#FFDD35"/>
<path d="M11.4102 17.6589V16.9161C12.3266 16.9159 13.2055 16.5543 13.8535 15.9109C14.5015 15.2674 14.8657 14.3948 14.8659 13.4849H15.5576C15.557 13.9359 15.646 14.3825 15.8194 14.7994C15.9928 15.2162 16.2473 15.5949 16.5682 15.914C16.8891 16.2332 17.2703 16.4864 17.6898 16.6591C18.1094 16.8319 18.5591 16.9209 19.0133 16.921V17.6639C18.0968 17.6641 17.218 18.0257 16.57 18.6691C15.9219 19.3126 15.5578 20.1852 15.5576 21.0951H14.8659C14.8664 20.6441 14.7775 20.1975 14.6041 19.7807C14.4306 19.3639 14.1762 18.9851 13.8553 18.6659C13.5343 18.3468 13.1532 18.0936 12.7336 17.9208C12.3141 17.7481 11.8644 17.659 11.4102 17.6589Z" fill="#040F0F"/>
<path d="M14.8659 12.1964H20.8097C23.7127 12.1964 25.7868 14.255 25.7868 17.2751C25.7868 20.2953 23.7135 22.3531 20.8097 22.3531H14.8659V31H17.354V24.5495H20.8097C24.9845 24.5495 28.2749 21.2825 28.2749 17.2751C28.2749 13.2678 24.9845 10 20.8097 10H14.8659V12.1964Z" fill="#040F0F"/>
</svg>
