<svg width="40" height="40" viewBox="0 0 40 40" fill="none" xmlns="http://www.w3.org/2000/svg">
<rect width="40" height="40" rx="8" fill="#2CA01C"/>
<path d="M8 20C8 23.6169 10.88 26.5254 14.4615 26.5254H15.3846V24.1017H14.4615C12.2092 24.1017 10.4 22.2746 10.4 20C10.4 17.7254 12.2092 15.8983 14.4615 15.8983H16.6769V28.5763C16.6769 29.9186 17.7477 31 19.0769 31V13.4746H14.4615C10.88 13.4746 8 16.3831 8 20ZM25.5385 13.4746H24.6154V15.8983H25.5385C27.7908 15.8983 29.6 17.7254 29.6 20C29.6 22.2746 27.7908 24.1017 25.5385 24.1017H23.3231V11.4237C23.3231 10.0814 22.2523 9 20.9231 9V26.5254H25.5385C29.12 26.5254 32 23.6169 32 20C32 16.3831 29.12 13.4746 25.5385 13.4746Z" fill="white"/>
</svg>
