<svg width="40" height="40" viewBox="0 0 40 40" fill="none" xmlns="http://www.w3.org/2000/svg">
<rect width="40" height="40" rx="8" fill="#0D9DDA"/>
<g clip-path="url(#clip0_1017_21701)">
<path d="M17.9785 12.1813C18.9004 11.2219 20.1816 10.625 21.6004 10.625C23.4879 10.625 25.1316 11.6781 26.0098 13.2375C26.7723 12.8969 27.616 12.7062 28.5004 12.7062C31.9035 12.7062 34.6598 15.4875 34.6598 18.9219C34.6598 22.3562 31.9004 25.1375 28.5004 25.1375C28.0848 25.1375 27.6785 25.0969 27.2879 25.0156C26.516 26.3906 25.0441 27.3219 23.3566 27.3219C22.6504 27.3219 21.9816 27.1594 21.3879 26.8687C20.6066 28.7094 18.7816 30 16.6598 30C14.5379 30 12.5629 28.6 11.8379 26.6375C11.5223 26.7031 11.1941 26.7406 10.8566 26.7406C8.22227 26.7406 6.08789 24.5844 6.08789 21.9219C6.08789 20.1375 7.04727 18.5813 8.47227 17.7469C8.17852 17.0719 8.01602 16.325 8.01602 15.5437C8.01602 12.4812 10.5004 10 13.566 10C15.366 10 16.966 10.8563 17.9785 12.1813Z" fill="white"/>
<path d="M10.2276 20.3721C10.2088 20.4189 10.2338 20.4283 10.2401 20.4377C10.2932 20.4752 10.3494 20.5033 10.4026 20.5377C10.6932 20.6908 10.9682 20.7377 11.2557 20.7377C11.8432 20.7377 12.2057 20.4252 12.2057 19.9252V19.9158C12.2057 19.4533 11.7932 19.2846 11.4088 19.1627L11.3588 19.1471C11.0682 19.0533 10.8182 18.9721 10.8182 18.7783V18.7689C10.8182 18.6064 10.9651 18.4846 11.1932 18.4846C11.4463 18.4846 11.7463 18.5689 11.9369 18.6752C11.9369 18.6752 11.9932 18.7127 12.0151 18.6564C12.0276 18.6252 12.1244 18.3627 12.1338 18.3346C12.1463 18.3033 12.1244 18.2814 12.1057 18.2689C11.8838 18.1346 11.5807 18.0439 11.2651 18.0439H11.2057C10.6682 18.0439 10.2932 18.3689 10.2932 18.8314V18.8408C10.2932 19.3314 10.7057 19.4877 11.0932 19.6002L11.1557 19.6189C11.4369 19.7064 11.6807 19.7814 11.6807 19.9783V19.9877C11.6807 20.1689 11.5213 20.3033 11.2682 20.3033C11.1682 20.3033 10.8526 20.3033 10.5119 20.0846C10.4713 20.0596 10.4463 20.0439 10.4151 20.0252C10.3994 20.0158 10.3557 19.9971 10.3369 20.0502L10.2213 20.3721H10.2276Z" fill="#0D9DDA"/>
<path d="M18.8057 20.3721C18.7869 20.4189 18.8119 20.4283 18.8182 20.4377C18.8713 20.4752 18.9276 20.5033 18.9807 20.5377C19.2713 20.6908 19.5463 20.7377 19.8338 20.7377C20.4213 20.7377 20.7838 20.4252 20.7838 19.9252V19.9158C20.7838 19.4533 20.3744 19.2846 19.9869 19.1627L19.9369 19.1471C19.6463 19.0533 19.3963 18.9721 19.3963 18.7783V18.7689C19.3963 18.6064 19.5432 18.4846 19.7713 18.4846C20.0244 18.4846 20.3244 18.5689 20.5151 18.6752C20.5151 18.6752 20.5713 18.7127 20.5932 18.6564C20.6057 18.6252 20.7026 18.3627 20.7119 18.3346C20.7244 18.3033 20.7026 18.2814 20.6838 18.2689C20.4619 18.1346 20.1588 18.0439 19.8432 18.0439H19.7838C19.2463 18.0439 18.8713 18.3689 18.8713 18.8314V18.8408C18.8713 19.3314 19.2838 19.4877 19.6713 19.6002L19.7338 19.6189C20.0151 19.7064 20.2588 19.7814 20.2588 19.9783V19.9877C20.2588 20.1689 20.0994 20.3033 19.8463 20.3033C19.7463 20.3033 19.4307 20.3033 19.0901 20.0846C19.0494 20.0596 19.0244 20.0439 18.9932 20.0252C18.9838 20.0189 18.9338 20.0002 18.9151 20.0502L18.7994 20.3721H18.8057Z" fill="#0D9DDA"/>
<path d="M25.1535 18.8625C25.1066 18.7 25.0316 18.5562 24.9316 18.4375C24.8316 18.3187 24.7066 18.2219 24.5566 18.1531C24.4066 18.0844 24.2316 18.0469 24.0316 18.0469C23.8316 18.0469 23.6566 18.0813 23.5066 18.1531C23.3566 18.2219 23.2316 18.3187 23.1316 18.4375C23.0316 18.5562 22.9566 18.7 22.9098 18.8625C22.8629 19.025 22.8379 19.2 22.8379 19.3875C22.8379 19.575 22.8629 19.7531 22.9098 19.9125C22.9566 20.075 23.0316 20.2188 23.1316 20.3375C23.2316 20.4563 23.3598 20.5531 23.5066 20.6219C23.6566 20.6906 23.8316 20.725 24.0316 20.725C24.2316 20.725 24.4066 20.6906 24.5566 20.6219C24.7066 20.5531 24.8316 20.4594 24.9316 20.3375C25.0316 20.2188 25.1066 20.075 25.1535 19.9125C25.2004 19.75 25.2254 19.575 25.2254 19.3875C25.2254 19.2 25.2004 19.0219 25.1535 18.8625ZM24.6629 19.3875C24.6629 19.6719 24.6098 19.8937 24.5066 20.0531C24.4035 20.2094 24.2473 20.2844 24.0316 20.2844C23.816 20.2844 23.6598 20.2094 23.5566 20.0531C23.4535 19.8937 23.4004 19.6719 23.4004 19.3875C23.4004 19.1031 23.4535 18.8813 23.5535 18.725C23.6566 18.5688 23.8098 18.4938 24.0285 18.4938C24.2473 18.4938 24.4004 18.5688 24.5035 18.725C24.6066 18.8813 24.6598 19.1031 24.6598 19.3875" fill="#0D9DDA"/>
<path fill-rule="evenodd" clip-rule="evenodd" d="M29.1723 20.2092C29.1566 20.1623 29.1098 20.1811 29.1098 20.1811C29.0379 20.2092 28.9629 20.2342 28.8816 20.2467C28.8004 20.2592 28.7098 20.2654 28.6129 20.2654C28.3754 20.2654 28.1879 20.1936 28.0535 20.0561C27.9191 19.9154 27.841 19.6904 27.8441 19.3873C27.8441 19.1092 27.9129 18.9029 28.0316 18.7436C28.1504 18.5842 28.3316 18.5061 28.5754 18.5061C28.7785 18.5061 28.9316 18.5279 29.0941 18.5811C29.0941 18.5811 29.1316 18.5967 29.1504 18.5467C29.1941 18.4279 29.2254 18.3436 29.2723 18.2123C29.2848 18.1748 29.2535 18.1592 29.241 18.1561C29.1785 18.1311 29.0285 18.0904 28.916 18.0748C28.8098 18.0592 28.6879 18.0498 28.5504 18.0498C28.3441 18.0498 28.1629 18.0842 28.0035 18.1561C27.8473 18.2248 27.716 18.3217 27.6098 18.4404C27.5035 18.5592 27.4254 18.7029 27.3723 18.8654C27.3191 19.0279 27.291 19.2029 27.291 19.3936C27.291 19.7998 27.4004 20.1279 27.616 20.3686C27.8316 20.6092 28.1566 20.7311 28.5816 20.7311C28.8316 20.7311 29.0879 20.6811 29.2754 20.6061C29.2754 20.6061 29.3098 20.5904 29.2941 20.5467L29.1754 20.2154L29.1723 20.2092Z" fill="#0D9DDA"/>
<path fill-rule="evenodd" clip-rule="evenodd" d="M31.6754 18.7719C31.6348 18.6156 31.5316 18.4562 31.4629 18.3844C31.3566 18.2687 31.2535 18.1906 31.1473 18.1437C31.0129 18.0844 30.8504 18.0469 30.6723 18.0469C30.466 18.0469 30.2785 18.0813 30.1254 18.1531C29.9723 18.225 29.8441 18.3219 29.7441 18.4438C29.6441 18.5656 29.5691 18.7094 29.5191 18.875C29.4723 19.0375 29.4473 19.2156 29.4473 19.4031C29.4473 19.5906 29.4723 19.7719 29.5223 19.9313C29.5723 20.0938 29.6535 20.2344 29.7629 20.3531C29.8723 20.4719 30.0129 20.5656 30.1785 20.6281C30.3441 20.6937 30.5473 20.725 30.7785 20.725C31.2566 20.725 31.5098 20.6156 31.6129 20.5594C31.6316 20.55 31.6473 20.5313 31.6285 20.4813L31.5191 20.1781C31.5035 20.1344 31.4566 20.15 31.4566 20.15C31.3379 20.1937 31.1691 20.2719 30.7754 20.2719C30.5191 20.2719 30.3285 20.1969 30.2098 20.0781C30.0879 19.9562 30.0285 19.7781 30.016 19.5281H31.6723C31.6723 19.5281 31.716 19.5281 31.7191 19.4875C31.7191 19.4688 31.7754 19.1469 31.6691 18.775L31.6754 18.7719ZM30.0285 19.1188C30.0504 18.9625 30.0941 18.8313 30.1629 18.7281C30.2629 18.5719 30.4191 18.4875 30.6379 18.4875C30.8566 18.4875 30.9973 18.5719 31.1004 18.7281C31.1691 18.8313 31.1973 18.9656 31.2098 19.1188H30.0285Z" fill="#0D9DDA"/>
<path fill-rule="evenodd" clip-rule="evenodd" d="M18.412 18.7719C18.3713 18.6156 18.2682 18.4562 18.1995 18.3844C18.0932 18.2687 17.9901 18.1906 17.8838 18.1437C17.7495 18.0844 17.587 18.0469 17.4088 18.0469C17.2026 18.0469 17.0151 18.0813 16.862 18.1531C16.7088 18.225 16.5807 18.3219 16.4807 18.4438C16.3807 18.5656 16.3057 18.7094 16.2557 18.875C16.2088 19.0375 16.1838 19.2156 16.1838 19.4031C16.1838 19.5906 16.2088 19.7719 16.2588 19.9313C16.3088 20.0938 16.3901 20.2344 16.4995 20.3531C16.6088 20.4719 16.7495 20.5656 16.9151 20.6281C17.0807 20.6937 17.2838 20.725 17.5151 20.725C17.9932 20.725 18.2463 20.6156 18.3495 20.5594C18.3682 20.55 18.3838 20.5313 18.362 20.4813L18.2526 20.1781C18.237 20.1344 18.1901 20.15 18.1901 20.15C18.0713 20.1937 17.9026 20.2719 17.5088 20.2719C17.2526 20.2719 17.062 20.1969 16.9432 20.0781C16.8213 19.9562 16.762 19.7781 16.7495 19.5281H18.4057C18.4057 19.5281 18.4495 19.5281 18.4526 19.4875C18.4526 19.4688 18.5088 19.1469 18.4026 18.775L18.412 18.7719ZM16.7651 19.1188C16.787 18.9625 16.8307 18.8313 16.8995 18.7281C17.0026 18.5719 17.1557 18.4875 17.3745 18.4875C17.5932 18.4875 17.7338 18.5719 17.8401 18.7281C17.9088 18.8313 17.937 18.9656 17.9495 19.1188H16.7682H16.7651Z" fill="#0D9DDA"/>
<path d="M13.8438 19.0375C13.775 19.0312 13.6906 19.0312 13.5844 19.0312C13.4438 19.0312 13.3062 19.05 13.175 19.0844C13.0469 19.1187 12.9281 19.1719 12.8281 19.2437C12.7281 19.3156 12.6469 19.4063 12.5875 19.5156C12.5281 19.625 12.5 19.7531 12.5 19.8969C12.5 20.0406 12.525 20.1719 12.575 20.275C12.625 20.3781 12.6969 20.4656 12.7906 20.5344C12.8813 20.6 12.9969 20.65 13.1281 20.6813C13.2594 20.7094 13.4062 20.725 13.5656 20.725C13.7344 20.725 13.9063 20.7094 14.0688 20.6844C14.2313 20.6562 14.4313 20.6156 14.4844 20.6031C14.5406 20.5906 14.6 20.575 14.6 20.575C14.6406 20.5656 14.6375 20.5219 14.6375 20.5219V19.0062C14.6375 18.675 14.5469 18.4281 14.3719 18.275C14.1969 18.1219 13.9438 18.0469 13.6125 18.0469C13.4875 18.0469 13.2875 18.0625 13.1688 18.0875C13.1688 18.0875 12.8063 18.1562 12.6594 18.275C12.6594 18.275 12.6281 18.2938 12.6438 18.3406L12.7625 18.6563C12.7781 18.6969 12.8156 18.6844 12.8156 18.6844C12.8156 18.6844 12.8281 18.6781 12.8438 18.6719C13.1625 18.5 13.5656 18.5031 13.5656 18.5031C13.7437 18.5031 13.8813 18.5406 13.975 18.6094C14.0656 18.6781 14.1125 18.7844 14.1125 19.0031V19.0719C13.9719 19.05 13.8406 19.0406 13.8406 19.0406L13.8438 19.0375ZM13.1844 20.2C13.1188 20.1469 13.1094 20.1344 13.0875 20.1031C13.0563 20.0531 13.0375 19.9812 13.0375 19.8875C13.0375 19.7406 13.0844 19.6375 13.1844 19.5656C13.1844 19.5656 13.3281 19.4406 13.6656 19.4469C13.9031 19.4469 14.1156 19.4844 14.1156 19.4844V20.2375C14.1156 20.2375 13.9063 20.2813 13.6688 20.2969C13.3313 20.3156 13.1813 20.2 13.1844 20.2Z" fill="#0D9DDA"/>
<path fill-rule="evenodd" clip-rule="evenodd" d="M27.1995 18.184C27.212 18.1465 27.187 18.1278 27.1745 18.1247C27.1463 18.1153 27.0057 18.084 26.8963 18.0778C26.687 18.0653 26.5713 18.0997 26.4682 18.1465C26.3651 18.1934 26.2526 18.2684 26.187 18.3528V18.1497C26.187 18.1215 26.1682 18.0997 26.1401 18.0997H25.7151C25.687 18.0997 25.6682 18.1215 25.6682 18.1497V20.6215C25.6682 20.6497 25.6901 20.6715 25.7182 20.6715H26.1526C26.1807 20.6715 26.2026 20.6497 26.2026 20.6215V19.3872C26.2026 19.2215 26.2213 19.0559 26.2588 18.9528C26.2932 18.8497 26.3432 18.7684 26.4026 18.709C26.462 18.6497 26.5307 18.609 26.6057 18.5872C26.6838 18.5622 26.7682 18.5559 26.8276 18.5559C26.9151 18.5559 27.0088 18.5778 27.0088 18.5778C27.0401 18.5809 27.0588 18.5622 27.0682 18.534C27.0963 18.459 27.1776 18.2309 27.1932 18.1872L27.1995 18.184Z" fill="#0D9DDA"/>
<path fill-rule="evenodd" clip-rule="evenodd" d="M23.1158 17.0406C23.0626 17.025 23.0158 17.0125 22.9533 17.0031C22.8908 16.9906 22.8126 16.9844 22.7283 16.9844C22.4283 16.9844 22.1939 17.0687 22.0283 17.2375C21.8626 17.4031 21.7501 17.6562 21.697 17.9875L21.6783 18.1H21.3033C21.3033 18.1 21.2564 18.1 21.247 18.1469L21.1845 18.4906C21.1814 18.525 21.1939 18.5437 21.2376 18.5437H21.6033L21.2314 20.6156C21.2033 20.7813 21.1689 20.9187 21.1314 21.025C21.0939 21.1281 21.0595 21.2031 21.0158 21.2594C20.972 21.3125 20.9345 21.3531 20.8658 21.375C20.8095 21.3938 20.7439 21.4031 20.672 21.4031C20.6314 21.4031 20.5783 21.3969 20.5376 21.3875C20.497 21.3812 20.4783 21.3719 20.447 21.3594C20.447 21.3594 20.4033 21.3437 20.3876 21.3875C20.3751 21.4219 20.2751 21.6906 20.2658 21.725C20.2533 21.7562 20.272 21.7844 20.2908 21.7906C20.3408 21.8094 20.3751 21.8187 20.4408 21.8344C20.5314 21.8562 20.6095 21.8562 20.6845 21.8562C20.8376 21.8562 20.9751 21.8344 21.0908 21.7938C21.2064 21.7531 21.3064 21.6781 21.397 21.5813C21.4939 21.475 21.5533 21.3625 21.6126 21.2094C21.6689 21.0594 21.7189 20.8719 21.7595 20.6531L22.1314 18.5406H22.6783C22.6783 18.5406 22.7251 18.5406 22.7345 18.4937L22.797 18.15C22.8001 18.1156 22.7876 18.0969 22.7439 18.0969H22.2158C22.2158 18.0969 22.2439 17.9 22.3033 17.7219C22.3283 17.6469 22.3783 17.5875 22.4189 17.5437C22.4595 17.5031 22.5064 17.475 22.5564 17.4563C22.6095 17.4406 22.6689 17.4313 22.7345 17.4313C22.7845 17.4313 22.8345 17.4375 22.872 17.4437C22.922 17.4531 22.9439 17.4594 22.9564 17.4656C23.0095 17.4812 23.0189 17.4656 23.0283 17.4406L23.1564 17.0938C23.1689 17.0563 23.1376 17.0406 23.1251 17.0375L23.1158 17.0406Z" fill="#0D9DDA"/>
<path fill-rule="evenodd" clip-rule="evenodd" d="M15.7182 20.6215C15.7182 20.6496 15.6995 20.6715 15.6713 20.6715H15.2307C15.2026 20.6715 15.1838 20.6496 15.1838 20.6215V17.0871C15.1838 17.059 15.2026 17.0371 15.2307 17.0371H15.6713C15.6995 17.0371 15.7182 17.059 15.7182 17.0871V20.6215Z" fill="#0D9DDA"/>
</g>
<defs>
<clipPath id="clip0_1017_21701">
<rect width="28.75" height="20" fill="white" transform="translate(6 10)"/>
</clipPath>
</defs>
</svg>
