<svg width="40" height="40" viewBox="0 0 40 40" fill="none" xmlns="http://www.w3.org/2000/svg">
<rect width="40" height="40" rx="8" fill="#121C2D"/>
<path d="M29.0059 18.7501H19.1871C18.8121 18.7501 18.5059 18.4438 18.5059 18.0813V16.9251C18.5059 16.5563 18.8184 16.2563 19.1871 16.2563H29.0684C29.4434 16.2563 29.7496 16.5626 29.7496 16.9251V18.0813C29.6871 18.4501 29.3746 18.7501 29.0059 18.7501Z" fill="#6ADDB2"/>
<path d="M11.6875 23.75C11.3125 23.75 11 23.4375 11 23.0625V21.875C11 21.5625 11.3125 21.25 11.6875 21.25H21.6C21.975 21.25 22.2875 21.5625 22.2875 21.9375V23.125C22.225 23.4375 21.9125 23.75 21.5375 23.75H11.6875Z" fill="#6ADDB2"/>
<path d="M14.7187 28.125C15.4062 28.125 15.9687 27.5625 15.9687 26.875C15.9687 26.1875 15.4062 25.625 14.7187 25.625C14.0312 25.625 13.4688 26.1875 13.4688 26.875C13.4688 27.5625 14.0312 28.125 14.7187 28.125Z" fill="#6ADDB2"/>
<path d="M25.9687 14.375C26.6562 14.375 27.2187 13.8125 27.2187 13.125C27.2187 12.4375 26.6562 11.875 25.9687 11.875C25.2812 11.875 24.7188 12.4375 24.7188 13.125C24.7188 13.8125 25.2812 14.375 25.9687 14.375Z" fill="#6ADDB2"/>
<path d="M20.3433 27.5C19.6558 27.5 18.9683 27.375 18.3433 27.1875C18.0308 27.125 17.7183 27.25 17.5933 27.5625L17.1558 28.75C17.0308 29.0625 17.2183 29.4375 17.5933 29.5625C18.4683 29.875 19.4058 30 20.3433 30C24.4058 30 27.9057 27.5625 29.4682 24.0625C29.5932 23.75 29.4682 23.3125 29.0932 23.1875L27.9057 22.75C27.5932 22.625 27.2808 22.75 27.1558 23.0625C25.9683 25.6875 23.4058 27.5 20.3433 27.5Z" fill="#6ADDB2"/>
<path d="M20.3437 12.5C21.0312 12.5 21.7187 12.625 22.3437 12.8125C22.6562 12.875 22.9687 12.75 23.0937 12.4375L23.5312 11.25C23.6562 10.9375 23.4687 10.5625 23.0937 10.4375C22.2187 10.125 21.2812 10 20.3437 10C16.2812 10 12.7812 12.4375 11.2187 15.9375C11.0938 16.25 11.2187 16.6875 11.5937 16.8125L12.7812 17.25C13.0937 17.375 13.4062 17.25 13.5312 16.9375C14.7187 14.3125 17.2812 12.5 20.3437 12.5Z" fill="#6ADDB2"/>
</svg>
