<svg width="40" height="40" viewBox="0 0 40 40" fill="none" xmlns="http://www.w3.org/2000/svg">
<rect width="40" height="40" rx="8" fill="#1B1B1B"/>
<path d="M28.2084 19C28.1588 19.1728 28.1037 19.344 28.0436 19.512C27.9804 19.6888 27.9125 19.8624 27.8381 20.0336L25.3493 19.9816C25.3493 20.032 25.3493 20.0816 25.3477 20.132L32.1125 20.2736C32.1212 19.8744 32.1108 19.476 32.0797 19.0808L28.2077 19H28.2084Z" fill="#D6A3FF"/>
<path d="M22.9868 8.30371L22.9188 8.47251C23.294 8.61331 23.6572 8.78051 24.0068 8.97011L21.5996 14.9373C21.746 14.9821 21.8924 15.0341 22.0372 15.0925C22.0444 15.0957 22.0516 15.0981 22.058 15.1013L24.5884 8.82771C24.5812 8.82451 24.574 8.82211 24.5676 8.81891C24.046 8.60851 23.518 8.43731 22.9868 8.30371Z" fill="#D6A3FF"/>
<path d="M25.4066 9.91978C25.7082 10.1702 25.993 10.4406 26.2586 10.7294L22.8242 15.4894C22.9442 15.563 23.061 15.6406 23.173 15.7222L27.1323 10.2358C26.7074 9.92858 26.2586 9.64618 25.7874 9.39258L25.4066 9.92059V9.91978Z" fill="#D6A3FF"/>
<path d="M27.2247 11.9943C27.4294 12.3207 27.6126 12.6615 27.7734 13.0151L23.871 16.3295C23.9526 16.4143 24.031 16.5015 24.107 16.5919L29.2638 12.2119C28.9446 11.8343 28.6013 11.4751 28.235 11.1367L27.2254 11.9943H27.2247Z" fill="#D6A3FF"/>
<path d="M30.1711 13.4346L28.2614 14.3866C28.3574 14.7522 28.4303 15.1274 28.4783 15.5106L24.6719 17.4082C24.7183 17.4914 24.7631 17.5754 24.8047 17.6602L30.8582 14.6426C30.6527 14.2274 30.423 13.8242 30.1702 13.4346H30.1711Z" fill="#D6A3FF"/>
<path d="M28.5446 16.7969C28.5366 17.1761 28.5038 17.5505 28.4477 17.9169L25.1758 18.6513C25.1942 18.7217 25.2118 18.7921 25.227 18.8633L31.8278 17.3817C31.7334 16.9609 31.6174 16.5457 31.479 16.1377L28.5446 16.7961V16.7969Z" fill="#D6A3FF"/>
<path d="M31.9351 22.0819L27.4239 20.8691C27.2543 21.1675 27.0679 21.4563 26.8655 21.7315L25.1919 21.2819C25.1823 21.3195 25.1727 21.3563 25.1623 21.3939L31.6951 23.1499C31.7918 22.7947 31.871 22.4387 31.9343 22.0811L31.9351 22.0819Z" fill="#D6A3FF"/>
<path d="M26.3557 22.3633C26.1493 22.5961 25.9301 22.8177 25.6997 23.0265L24.7269 22.4897C24.7117 22.5185 24.6957 22.5473 24.6797 22.5761L30.6029 25.8441C30.7621 25.5553 30.9109 25.2585 31.0484 24.9529L26.3549 22.3633H26.3557Z" fill="#D6A3FF"/>
<path d="M25.1356 23.498C24.9132 23.6685 24.682 23.8277 24.4436 23.9764L23.9836 23.5517C23.9668 23.5709 23.9492 23.5893 23.9316 23.6085L28.9013 28.1997C29.1045 27.9812 29.2997 27.754 29.4869 27.5189L25.1356 23.4988V23.498Z" fill="#D6A3FF"/>
<path d="M27.334 29.6154L23.8397 24.3193C23.7013 24.3905 23.5613 24.4577 23.4189 24.5217C23.4189 24.5217 23.1621 24.6321 23.1037 24.6561L26.6805 30.0762C26.9037 29.9298 27.1213 29.776 27.3348 29.6154H27.334Z" fill="#D6A3FF"/>
<path d="M22.5093 24.868C22.4501 24.8864 22.0749 24.9952 21.9637 25.0224C21.9637 25.0224 21.8589 25.048 21.8301 25.0544L24.0741 31.3656C24.2949 31.2872 24.5133 31.2032 24.7293 31.112L22.5093 24.8672V24.868Z" fill="#D6A3FF"/>
<path d="M21.162 25.1758C20.9653 25.2182 20.7661 25.2486 20.5645 25.2686L21.2396 32.0005C21.4405 31.9806 21.6405 31.9558 21.8389 31.9262L21.162 25.1766V25.1758Z" fill="#D6A3FF"/>
<path d="M19.792 25.2859C19.624 25.2771 19.456 25.2611 19.288 25.2363L18.332 31.9348C18.4992 31.9586 18.6672 31.9794 18.8344 31.9972L19.792 25.2867V25.2859Z" fill="#D6A3FF"/>
<path d="M11.907 20.9992C11.9566 20.8264 12.0118 20.6552 12.0718 20.4872C12.135 20.3104 12.203 20.1368 12.2774 19.9656L14.7662 20.0176C14.7662 19.9672 14.7662 19.9176 14.7678 19.8672L8.00301 19.7256C7.99421 20.1248 8.00461 20.5232 8.03581 20.9184L11.9078 20.9992H11.907Z" fill="#D6A3FF"/>
<path d="M17.1309 31.696L17.1989 31.5271C16.8237 31.3865 16.4605 31.2192 16.1109 31.0297L18.5181 25.0624C18.3717 25.0176 18.2253 24.9656 18.0805 24.9072C18.0733 24.904 18.0661 24.9016 18.0597 24.8984L15.5293 31.172C15.5365 31.1753 15.5437 31.1776 15.5501 31.1808C16.0717 31.3913 16.5997 31.5624 17.1309 31.696Z" fill="#D6A3FF"/>
<path d="M14.71 30.0807C14.4084 29.8304 14.1236 29.5598 13.858 29.2711L17.2924 24.5111C17.1724 24.4375 17.0556 24.3599 16.9436 24.2783L12.9844 29.7647C13.4092 30.0719 13.858 30.3543 14.3292 30.6079L14.71 30.08V30.0807Z" fill="#D6A3FF"/>
<path d="M12.8927 28.0058C12.6879 27.6793 12.5047 27.3386 12.3439 26.985L16.2463 23.6706C16.1647 23.5858 16.0863 23.4986 16.0103 23.4082L10.8535 27.7881C11.1727 28.1657 11.5159 28.525 11.8823 28.8635L12.8919 28.0058H12.8927Z" fill="#D6A3FF"/>
<path d="M9.94776 26.5654L11.8574 25.6134C11.7614 25.2478 11.6886 24.8726 11.6406 24.4894L15.447 22.5918C15.4006 22.5086 15.3558 22.4247 15.3142 22.3398L9.25977 25.3574C9.46536 25.7726 9.69496 26.1758 9.94776 26.5654Z" fill="#D6A3FF"/>
<path d="M11.5723 23.2031C11.5803 22.8239 11.6131 22.4495 11.6691 22.0831L14.9411 21.3487C14.9227 21.2783 14.905 21.2079 14.8898 21.1367L8.28906 22.6175C8.38346 23.0383 8.49946 23.4535 8.63786 23.8615L11.5731 23.2031H11.5723Z" fill="#D6A3FF"/>
<path d="M8.18149 17.9174L12.6927 19.1302C12.8623 18.8318 13.0487 18.543 13.2511 18.2678L14.9247 18.7174C14.9343 18.6798 14.9439 18.643 14.9543 18.6054L8.42069 16.8486C8.32389 17.2038 8.24469 17.5598 8.18149 17.9174Z" fill="#D6A3FF"/>
<path d="M13.7611 17.6368C13.9676 17.404 14.1867 17.1825 14.4171 16.9737L15.3899 17.5105C15.4051 17.4817 15.4212 17.4529 15.4371 17.4241L9.51396 14.1553C9.35476 14.4441 9.20596 14.7409 9.06836 15.0465L13.7619 17.6361L13.7611 17.6368Z" fill="#D6A3FF"/>
<path d="M14.9822 16.5014C15.2046 16.331 15.4358 16.1718 15.6742 16.023L16.1342 16.4478C16.151 16.4286 16.1686 16.4102 16.1862 16.391L11.2166 11.7998C11.0134 12.0182 10.8182 12.2454 10.631 12.4806L14.9822 16.5006V16.5014Z" fill="#D6A3FF"/>
<path d="M12.7831 10.3846L16.2775 15.6806C16.4159 15.6094 16.5559 15.5422 16.6983 15.4782C16.6983 15.4782 16.9551 15.3678 17.0135 15.3438L13.4375 9.92383C13.2143 10.0702 12.9967 10.2238 12.7831 10.3846Z" fill="#D6A3FF"/>
<path d="M17.6067 15.1304C17.6659 15.112 18.0411 15.0032 18.1523 14.976C18.1523 14.976 18.2571 14.9504 18.2859 14.944L16.0419 8.63281C15.8211 8.71121 15.6027 8.79521 15.3867 8.88641L17.6067 15.1312V15.1304Z" fill="#D6A3FF"/>
<path d="M18.9552 14.8248C19.152 14.7824 19.3512 14.752 19.5528 14.732L18.8784 8C18.6776 8.02 18.4776 8.0448 18.2792 8.0744L18.956 14.824L18.9552 14.8248Z" fill="#D6A3FF"/>
<path d="M20.325 14.7141C20.493 14.7229 20.661 14.7389 20.829 14.7637L21.7842 8.06533C21.617 8.04133 21.449 8.02053 21.2818 8.00293L20.3242 14.7133L20.325 14.7141Z" fill="#D6A3FF"/>
</svg>
