<svg width="40" height="40" viewBox="0 0 40 40" fill="none" xmlns="http://www.w3.org/2000/svg">
<rect width="40" height="40" rx="8" fill="#259EDC"/>
<path d="M27.0675 20.0009L29.4561 18.6379C30.0592 18.2941 30.2642 17.5366 29.9136 16.9429C29.7446 16.6564 29.4696 16.448 29.1481 16.3626C28.8266 16.2773 28.4845 16.3218 28.1956 16.4867L23.9188 18.921C23.6219 19.0922 23.422 19.3641 23.3363 19.6672C23.3101 19.7653 23.2957 19.8628 23.2926 19.9609C23.2883 20.0978 23.3076 20.2343 23.3495 20.3647C23.442 20.6655 23.6465 20.9194 23.9207 21.074L28.1987 23.5115C28.4873 23.6757 28.8288 23.7203 29.1499 23.6356C29.471 23.5509 29.7461 23.3436 29.9161 23.0583C29.9989 22.917 30.0527 22.7606 30.0743 22.5983C30.096 22.4359 30.0851 22.2709 30.0422 22.1128C29.9994 21.9548 29.9255 21.8068 29.8249 21.6776C29.7243 21.5484 29.5989 21.4405 29.4561 21.3603L27.0675 20.0009Z" fill="white"/>
<path d="M22.9195 22.8102L27.1943 25.2433C27.7974 25.587 28.0018 26.3489 27.6549 26.9426C27.4858 27.229 27.2106 27.4373 26.889 27.5221C26.5674 27.6069 26.2252 27.5615 25.9369 27.3957L23.5432 26.0326V28.7575C23.5432 29.4438 22.9807 30 22.2845 30C21.5876 30 21.027 29.445 21.027 28.7575V23.8852C21.0286 23.57 21.1495 23.2671 21.3654 23.0375C21.5813 22.8079 21.8762 22.6686 22.1907 22.6477C22.4445 22.6264 22.6988 22.6831 22.9195 22.8102Z" fill="white"/>
<path d="M20.4833 22.229L22.2607 20.4778C22.312 20.4278 22.3526 20.3278 22.3526 20.2591V19.7428C22.3484 19.6607 22.316 19.5825 22.2607 19.5216L20.4833 17.7698C20.4219 17.7141 20.343 17.6816 20.2602 17.6779H19.7371C19.6545 17.682 19.576 17.7145 19.5146 17.7698L17.7384 19.5216C17.6831 19.5825 17.6507 19.6607 17.6465 19.7428V20.2591C17.6506 20.3405 17.6831 20.4179 17.7384 20.4778L19.5158 22.229C19.577 22.2849 19.6556 22.318 19.7383 22.3227H20.2602C20.3433 22.3187 20.4223 22.2855 20.4833 22.229Z" fill="white"/>
<path d="M17.0809 17.1898L12.8048 14.7536C12.662 14.6733 12.5367 14.5659 12.4362 14.4366C12.3356 14.3073 12.2618 14.1593 12.219 14.0012C12.1762 13.8431 12.1654 13.678 12.1871 13.5156C12.2088 13.3533 12.2626 13.1969 12.3454 13.0555C12.5148 12.7694 12.7899 12.5613 13.1114 12.4763C13.4328 12.3913 13.7748 12.4361 14.0635 12.6012L16.459 13.9674V11.2412C16.459 10.5562 17.0215 10 17.7178 10C18.4115 10 18.9752 10.5562 18.9752 11.2412V16.1129C18.9733 16.4283 18.8522 16.7313 18.6363 16.9611C18.4203 17.1909 18.1255 17.3307 17.8109 17.3523C17.5665 17.3723 17.3115 17.321 17.0809 17.1898Z" fill="white"/>
<path d="M22.9195 17.1898C22.6907 17.321 22.4357 17.3723 22.1907 17.3523V17.3516C21.5383 17.3041 21.0252 16.7667 21.027 16.1123V11.2412C21.027 10.5562 21.5876 10 22.2845 10C22.9807 10 23.5432 10.5562 23.5432 11.2412V13.9674L25.9369 12.6012C26.2256 12.4363 26.5675 12.3916 26.8889 12.4766C27.2104 12.5616 27.4855 12.7695 27.6549 13.0555C27.7374 13.197 27.791 13.3535 27.8125 13.5158C27.8339 13.6782 27.8229 13.8432 27.7801 14.0013C27.7372 14.1593 27.6634 14.3073 27.5628 14.4366C27.4623 14.5658 27.337 14.6738 27.1943 14.7542L22.9195 17.1898Z" fill="white"/>
<path d="M17.0809 22.8096C17.302 22.6822 17.5567 22.6255 17.8109 22.6471H17.8115C18.126 22.668 18.4209 22.8074 18.6366 23.0372C18.8524 23.2669 18.9729 23.57 18.974 23.8852V28.7569C18.974 29.4431 18.4102 29.9994 17.7165 29.9994C17.0203 29.9994 16.4578 29.4444 16.4578 28.7569V26.032L14.0622 27.3951C13.7738 27.5601 13.432 27.6051 13.1106 27.5205C12.7892 27.4359 12.514 27.2283 12.3442 26.9426C12.2617 26.801 12.2082 26.6444 12.1868 26.482C12.1653 26.3196 12.1764 26.1545 12.2192 25.9964C12.2621 25.8382 12.3359 25.6902 12.4364 25.5608C12.5369 25.4314 12.6621 25.3233 12.8048 25.2427L17.0809 22.8096Z" fill="white"/>
<path d="M16.7078 19.9609C16.7115 20.0977 16.6925 20.2341 16.6515 20.3647C16.5615 20.654 16.3666 20.9122 16.0766 21.0747L11.8029 23.5121C11.5143 23.6769 11.1726 23.7217 10.8512 23.637C10.5299 23.5522 10.2547 23.3447 10.0849 23.059C10.0021 22.9176 9.9484 22.7612 9.92679 22.5988C9.90518 22.4364 9.91614 22.2714 9.95902 22.1133C10.0019 21.9552 10.0758 21.8073 10.1765 21.6781C10.2772 21.5489 10.4027 21.4411 10.5455 21.3609L12.9348 20.0016L10.5467 18.6385C9.94363 18.2947 9.73676 17.5373 10.0861 16.9435C10.4317 16.3479 11.2011 16.1448 11.8042 16.4873L16.0766 18.921C16.2623 19.0255 16.4179 19.1761 16.5285 19.3582C16.639 19.5404 16.7008 19.748 16.7078 19.9609Z" fill="white"/>
</svg>
