<svg width="40" height="40" viewBox="0 0 40 40" fill="none" xmlns="http://www.w3.org/2000/svg">
<rect width="40" height="40" rx="8" fill="#625BF6"/>
<path fill-rule="evenodd" clip-rule="evenodd" d="M18.9764 15.5516C18.9764 14.6088 19.7323 14.2462 20.9843 14.2462C22.7795 14.2462 25.0472 14.8022 26.8425 15.7934V10.1121C24.8819 9.31429 22.9449 9 20.9843 9C16.189 9 13 11.5626 13 15.8418C13 22.5143 21.9764 21.4505 21.9764 24.3275C21.9764 25.4396 21.0315 25.8022 19.7087 25.8022C17.748 25.8022 15.2441 24.9802 13.2598 23.8681V29.622C15.4567 30.589 17.6772 31 19.7087 31C24.622 31 28 28.5099 28 24.1824C27.9764 16.978 18.9764 18.2593 18.9764 15.5516Z" fill="white"/>
</svg>
