<svg width="40" height="40" viewBox="0 0 40 40" fill="none" xmlns="http://www.w3.org/2000/svg">
<rect width="40" height="40" rx="8" fill="#11B5EA"/>
<path d="M14.9292 19.6407C15.2781 18.2782 16.5077 17.327 17.9205 17.327C19.3406 17.327 20.5644 18.2757 20.9148 19.6407H14.9292ZM22.0015 20.4686C22.2017 20.2228 22.277 19.9013 22.2131 19.5623C21.9526 18.3341 21.2827 17.3502 20.2759 16.7171C19.5843 16.2792 18.7773 16.0479 17.9419 16.0479C17.0201 16.0479 16.1426 16.3241 15.404 16.8469C14.2496 17.6644 13.5605 18.9999 13.5605 20.4196C13.5605 20.776 13.6048 21.1297 13.6919 21.471C14.1356 23.1997 15.6277 24.5072 17.4049 24.7244C17.5768 24.7449 17.7489 24.7553 17.9163 24.7553C18.2724 24.7553 18.6188 24.7101 18.9748 24.6179C19.4377 24.5071 19.8787 24.3204 20.2859 24.0632C20.6707 23.8149 21.025 23.4803 21.3976 23.0138L21.4221 22.9886C21.5461 22.8343 21.6038 22.6361 21.5803 22.4448C21.5591 22.2735 21.4769 22.1257 21.3488 22.0287C21.2273 21.9354 21.0825 21.8841 20.9414 21.8841C20.8037 21.8841 20.6016 21.9337 20.4188 22.1711L20.4045 22.19C20.3441 22.2703 20.2816 22.3532 20.2098 22.4354C19.9635 22.711 19.6804 22.9379 19.369 23.1099C18.9232 23.3466 18.4414 23.4685 17.9383 23.4721C16.358 23.4548 15.3902 22.4073 15.012 21.4344C14.9527 21.2592 14.9103 21.0993 14.883 20.9511C14.8825 20.936 14.8814 20.9203 14.8804 20.9049L20.9991 20.9038C21.424 20.8947 21.7801 20.7402 22.0015 20.4686Z" fill="white"/>
<path d="M30.9189 19.2373C30.3046 19.2373 29.8047 19.7338 29.8047 20.344C29.8047 20.9544 30.3046 21.451 30.9189 21.451C31.5321 21.451 32.031 20.9544 32.031 20.344C32.031 19.7338 31.5321 19.2373 30.9189 19.2373Z" fill="white"/>
<path d="M26.8599 16.7423C26.8599 16.3947 26.5747 16.112 26.2248 16.112L26.046 16.1094C25.5032 16.1094 24.9901 16.2751 24.5577 16.5892C24.475 16.3349 24.2329 16.156 23.9598 16.156C23.6078 16.156 23.3306 16.4307 23.3284 16.7816L23.3304 24.0435C23.3328 24.3894 23.6155 24.6709 23.9609 24.6709C24.3083 24.6709 24.5912 24.3894 24.5912 24.0432V19.5772C24.5912 18.1302 24.7163 17.5253 25.9753 17.3703C26.0798 17.3579 26.1918 17.3571 26.2203 17.3571C26.5909 17.3438 26.8599 17.0852 26.8599 16.7423Z" fill="white"/>
<path d="M10.2554 20.3909L13.5206 17.1291C13.6401 17.0124 13.7059 16.8555 13.7059 16.6875C13.7059 16.3404 13.4211 16.0581 13.0712 16.0581C12.9019 16.0581 12.742 16.1249 12.6216 16.246L9.35615 19.4914L6.07769 16.2399C5.95815 16.1227 5.79974 16.0581 5.63147 16.0581C5.28324 16.0581 5 16.3404 5 16.6875C5 16.8559 5.06759 17.0157 5.19031 17.1372L8.45789 20.3883L5.19524 23.6435C5.06935 23.7632 5 23.9238 5 24.0956C5 24.4425 5.28324 24.7248 5.63147 24.7248C5.79719 24.7248 5.95559 24.6605 6.07794 24.5433L9.35292 21.2849L12.6137 24.528C12.7388 24.6559 12.9012 24.7264 13.0712 24.7264C13.4211 24.7264 13.7059 24.4434 13.7059 24.0956C13.7059 23.9295 13.6401 23.7721 13.5209 23.6521L10.2554 20.3909Z" fill="white"/>
<path d="M30.9174 23.3877C29.2306 23.3877 27.8584 22.0224 27.8584 20.3441C27.8584 18.664 29.2306 17.2971 30.9174 17.2971C32.6025 17.2971 33.9732 18.664 33.9732 20.3441C33.9732 22.0224 32.6025 23.3877 30.9174 23.3877ZM30.9182 16C28.5122 16 26.5547 17.9487 26.5547 20.3439C26.5547 22.7385 28.5122 24.6867 30.9182 24.6867C33.3231 24.6867 35.2796 22.7385 35.2796 20.3439C35.2796 17.9487 33.3231 16 30.9182 16Z" fill="white"/>
</svg>
