<svg width="40" height="40" viewBox="0 0 40 40" fill="none" xmlns="http://www.w3.org/2000/svg">
<rect width="40" height="40" rx="8" fill="black"/>
<path d="M26.0689 29H15.1745C14.6059 29 14.1249 28.6547 13.9269 28.1368C13.729 27.6189 13.9039 27.0366 14.3435 26.6913L16.7719 24.7279H12.2213C11.6528 24.7279 11.1717 24.3826 10.9737 23.8647C10.7758 23.3468 10.93 22.7852 11.3673 22.4192L16.0699 18.5568C16.4635 18.2322 17.032 18.2967 17.3612 18.665C17.6903 19.054 17.6236 19.6156 17.2507 19.9379L13.6231 22.9348H19.0254L26.375 17.0215H13.9499C13.1397 17.0215 12.3755 16.6969 11.784 16.1376C11.2154 15.576 10.9093 14.821 10.9093 14.0223C10.9093 13.2235 11.2154 12.4685 11.807 11.8862C12.3755 11.3246 13.142 11 13.9499 11H24.5359C25.1044 11 25.5855 11.3453 25.7834 11.8632C25.9814 12.3811 25.8065 12.9427 25.3668 13.3087L23.0052 15.2307H27.7745C28.343 15.2307 28.8241 15.576 29.0221 16.0939C29.2177 16.6118 29.0451 17.1941 28.6077 17.5394L21.8911 22.9348H26.0689C26.8791 22.9348 27.6433 23.2593 28.2118 23.8187C28.7804 24.3803 29.1095 25.1353 29.1095 25.9547V25.9985C29.1095 26.7972 28.8034 27.5522 28.2118 28.1345C27.6433 28.6985 26.8768 29 26.0689 29ZM16.597 27.2092H26.0689C26.398 27.2092 26.7042 27.0803 26.9435 26.8639C27.1829 26.6269 27.2934 26.3253 27.2934 26.0008V25.957C27.2934 25.6325 27.1622 25.3309 26.9435 25.0939C26.7019 24.8568 26.3957 24.7486 26.0689 24.7486H19.6584L16.597 27.2092ZM13.9499 12.7908C13.6208 12.7908 13.3146 12.9197 13.0753 13.1361C12.8336 13.3731 12.7254 13.6747 12.7254 13.9992C12.7254 14.3238 12.8566 14.6253 13.0753 14.8624C13.3169 15.0995 13.6231 15.2077 13.9499 15.2077H20.1395L23.1364 12.7908H13.9499Z" fill="#00D2B9"/>
</svg>
