<svg width="106" height="21" viewBox="0 0 106 21" fill="none" xmlns="http://www.w3.org/2000/svg">
<path d="M45.1909 20.012H41.3509L32.9619 11.435H31.3979V20.012H28.5539V5.33102e-07H38.0809C42.0909 5.33102e-07 44.4809 2.144 44.4809 5.718C44.4809 9.291 42.0909 11.435 38.0809 11.435H36.6599L45.1909 20.012ZM41.6359 5.718C41.6359 3.688 40.4989 2.43 38.0809 2.43H31.3979V9.005H38.0809C40.4989 9.005 41.6359 7.747 41.6359 5.718ZM52.4729 20.44C47.9229 20.44 45.0789 17.038 45.0789 12.578C45.0789 8.118 47.9229 4.717 52.3309 4.717C55.8859 4.717 58.0189 6.718 58.9579 9.691C59.2989 10.806 59.4409 12.035 59.4409 13.293V13.579H47.8089C47.8939 15.98 49.6579 18.296 52.4729 18.296C54.8909 18.296 55.9999 16.896 56.2269 15.866H59.1569C58.4739 18.296 56.1989 20.44 52.4729 20.44ZM47.8089 11.435H56.7109C56.5689 8.862 55.2029 6.861 52.3309 6.861C49.4589 6.861 47.8939 9.005 47.8089 11.435ZM59.5819 7.433V5.146H63.1369V1.716H65.8669V5.146H69.7069V7.433H65.8669V16.439C65.8669 17.439 66.1509 17.782 67.1469 17.782H69.7069V20.012H66.5779C63.9899 20.012 63.1369 18.726 63.1369 16.439V7.433H59.5819ZM77.5559 4.717C82.1069 4.717 85.0929 8.119 85.0929 12.578C85.0929 17.038 82.1069 20.44 77.5559 20.44C73.0059 20.44 70.0199 17.038 70.0199 12.578C70.0199 8.118 73.0059 4.717 77.5559 4.717ZM77.5559 7.004C74.4569 7.004 72.7499 9.577 72.7499 12.578C72.7499 15.58 74.4569 18.153 77.5559 18.153C80.6559 18.153 82.3629 15.58 82.3629 12.578C82.3629 9.577 80.6559 7.004 77.5559 7.004ZM93.8349 4.717C98.3859 4.717 101.372 8.119 101.372 12.578C101.372 17.038 98.3859 20.44 93.8349 20.44C89.2849 20.44 86.2989 17.038 86.2989 12.578C86.2989 8.118 89.2849 4.717 93.8349 4.717ZM93.8349 7.004C90.7359 7.004 89.0289 9.577 89.0289 12.578C89.0289 15.58 90.7359 18.153 93.8349 18.153C96.9349 18.153 98.6419 15.58 98.6419 12.578C98.6419 9.577 96.9349 7.004 93.8349 7.004ZM105.682 5.33102e-07V20.012H102.952V5.33102e-07H105.682ZM12.8429 0.938C12.8429 0.814736 12.8186 0.692681 12.7714 0.578812C12.7242 0.464944 12.6551 0.361495 12.5679 0.27438C12.4806 0.187266 12.3771 0.118194 12.2632 0.0711141C12.1493 0.024034 12.0272 -0.000130879 11.9039 5.33102e-07H1.27394C1.15076 5.33102e-07 1.02879 0.0242623 0.914982 0.0714012C0.801178 0.11854 0.697773 0.187633 0.610672 0.274734C0.523571 0.361835 0.45448 0.465241 0.407341 0.579044C0.360202 0.692847 0.335938 0.81482 0.335938 0.938V5.315C0.335938 5.833 0.755937 6.253 1.27394 6.253H11.9039C12.4229 6.253 12.8419 6.673 12.8419 7.191V8.441C12.8419 8.96 12.4219 9.38 11.9039 9.38H5.02594C4.77717 9.38 4.53858 9.47883 4.36267 9.65473C4.18676 9.83064 4.08794 10.0692 4.08794 10.318V14.695C4.08794 15.213 4.50794 15.633 5.02594 15.633H11.9039C12.4229 15.633 12.8419 16.053 12.8419 16.571V19.073C12.8419 19.591 13.2619 20.011 13.7809 20.011H18.1579C18.6759 20.011 19.0959 19.591 19.0959 19.073V14.695C19.0959 14.5718 19.0717 14.4498 19.0245 14.336C18.9774 14.2222 18.9083 14.1188 18.8212 14.0317C18.7341 13.9446 18.6307 13.8755 18.5169 13.8284C18.4031 13.7813 18.2811 13.757 18.1579 13.757H13.7799C13.5312 13.757 13.2926 13.6582 13.1167 13.4823C12.9408 13.3064 12.8419 13.0678 12.8419 12.819V11.569C12.8419 11.051 13.2619 10.631 13.7799 10.631H18.1569C18.6749 10.631 19.0949 10.211 19.0949 9.693V5.315C19.0949 5.06623 18.9961 4.82764 18.8202 4.65173C18.6443 4.47582 18.4057 4.377 18.1569 4.377H13.7799C13.5312 4.377 13.2926 4.27818 13.1167 4.10227C12.9408 3.92636 12.8419 3.68777 12.8419 3.439L12.8429 0.938Z" fill="white"/>
</svg>
