<svg width="16" height="12" viewBox="0 0 16 12" fill="none" xmlns="http://www.w3.org/2000/svg">
<path d="M0.512 11.4083C0.341333 11.0138 0.209455 10.5404 0.116364 9.98816C0.0387879 9.4359 0 8.88363 0 8.33136C0 6.48521 0.496485 4.8284 1.48945 3.36095C2.48242 1.87771 3.97188 0.757396 5.95782 0C6.36121 0.205128 6.67151 0.5286 6.88873 0.970415C7.12145 1.41223 7.21455 1.85404 7.168 2.29586C6.39224 2.67456 5.67854 3.21105 5.02691 3.90532C4.37527 4.5996 4.03394 5.40434 4.00291 6.31953C4.2977 6.35108 4.64679 6.4142 5.05018 6.50887C5.45358 6.58777 5.74836 6.69822 5.93455 6.84024C6.05867 7.06114 6.15951 7.3925 6.23709 7.83432C6.33018 8.26035 6.37673 8.66272 6.37673 9.04142C6.37673 9.4359 6.33794 9.87771 6.26036 10.3669C6.18279 10.8402 6.07418 11.1874 5.93455 11.4083C5.6863 11.5503 5.28291 11.6844 4.72436 11.8106C4.16582 11.9369 3.65382 12 3.18836 12C2.73842 12 2.24194 11.9448 1.69891 11.8343C1.15588 11.7239 0.760242 11.5819 0.512 11.4083ZM9.33236 11.4083C9.1617 11.0138 9.02982 10.5404 8.93673 9.98816C8.85915 9.4359 8.82036 8.88363 8.82036 8.33136C8.82036 6.48521 9.31685 4.8284 10.3098 3.36095C11.3028 1.87771 12.7922 0.757396 14.7782 0C15.1816 0.205128 15.4919 0.5286 15.7091 0.970415C15.9418 1.41223 16.0349 1.85404 15.9884 2.29586C15.2126 2.67456 14.4989 3.21105 13.8473 3.90532C13.1956 4.5996 12.8543 5.40434 12.8233 6.31953C13.1181 6.35108 13.4671 6.4142 13.8705 6.50887C14.2739 6.58777 14.5687 6.69822 14.7549 6.84024C14.879 7.06114 14.9799 7.3925 15.0575 7.83432C15.1505 8.26035 15.1971 8.66272 15.1971 9.04142C15.1971 9.4359 15.1583 9.87771 15.0807 10.3669C15.0032 10.8402 14.8945 11.1874 14.7549 11.4083C14.5067 11.5503 14.1033 11.6844 13.5447 11.8106C12.9862 11.9369 12.4742 12 12.0087 12C11.5588 12 11.0623 11.9448 10.5193 11.8343C9.97624 11.7239 9.58061 11.5819 9.33236 11.4083Z" fill="white"/>
</svg>
