<svg width="68" height="26" viewBox="0 0 68 26" fill="none" xmlns="http://www.w3.org/2000/svg">
<g clip-path="url(#clip0_1308_82435)">
<mask id="mask0_1308_82435" style="mask-type:luminance" maskUnits="userSpaceOnUse" x="0" y="0" width="68" height="26">
<path d="M68 0H0.5V25.8841H68V0Z" fill="white"/>
</mask>
<g mask="url(#mask0_1308_82435)">
<path d="M11.3562 17.6786C10.952 17.7936 10.5364 17.8468 10.1151 17.8385C9.59056 17.8693 9.07465 17.7066 8.66479 17.3841C8.27783 16.9803 8.08579 16.4307 8.14312 15.8782V10.0003H12.5944V6.46405H8.14312V1.81445L3.06126 3.18858V6.46405H0.490234V10.0031H3.05839V16.6999C3.02973 17.6533 3.27336 18.5956 3.76061 19.4201C4.21634 20.1072 4.88706 20.6316 5.67527 20.912C6.61826 21.2429 7.61572 21.4027 8.61891 21.3803C9.40425 21.3803 10.1896 21.2822 10.9492 21.0887C11.6227 20.9316 12.2619 20.654 12.8323 20.2698L12.2934 17.199C12.0154 17.4122 11.6973 17.5748 11.3562 17.6786Z" fill="#EDF2F7"/>
<path d="M21.4095 17.8974C20.9967 17.9395 20.5869 17.788 20.3031 17.488C20.0451 17.0757 19.9305 16.5934 19.9764 16.1138V0.263672H14.8945V16.756C14.8945 18.3938 15.2528 19.5716 15.9694 20.2951C16.6859 21.0158 17.841 21.3776 19.4375 21.3776C20.0107 21.3748 20.584 21.3075 21.14 21.1729C21.633 21.0691 22.106 20.8925 22.5445 20.6457L22.8712 17.6646C22.5932 17.7432 22.3525 17.8021 22.1547 17.8413C21.911 17.8806 21.6588 17.9002 21.4095 17.8974Z" fill="#EDF2F7"/>
<path d="M25.7763 10.7605C26.3868 11.254 27.1664 11.5036 27.9575 11.4616C28.7543 11.5092 29.5397 11.2568 30.153 10.7605C30.6948 10.2613 30.9842 9.55742 30.9441 8.83108C30.9871 8.09634 30.6976 7.37843 30.153 6.87083C29.5368 6.37448 28.7543 6.1221 27.9575 6.16977C27.1664 6.1277 26.3868 6.37727 25.7763 6.87083C25.2231 7.37282 24.9279 8.09073 24.9709 8.83108C24.9308 9.5602 25.226 10.2669 25.7763 10.7605Z" fill="#EDF2F7"/>
<path d="M29.6883 16.5515C29.1494 16.2038 28.5103 16.0299 27.8654 16.0551C27.3581 16.0523 26.8593 16.1617 26.4008 16.3776C25.9507 16.5852 25.5695 16.9077 25.2944 17.3143C24.9992 17.7798 24.853 18.3182 24.8759 18.8651C24.8558 19.3418 24.9848 19.8101 25.2485 20.2112C25.4807 20.5477 25.8017 20.8197 26.1743 20.9992C26.5125 21.1674 26.8851 21.2572 27.2664 21.2628C27.4785 21.2684 27.6877 21.2488 27.894 21.2039C28.0345 21.173 28.1663 21.1141 28.281 21.0272L28.43 21.1141C28.2322 21.5516 27.9657 21.9555 27.6389 22.3116C27.2721 22.7154 26.8622 23.08 26.4122 23.3941C25.9364 23.7278 25.4205 24.0054 24.873 24.2129L26.9338 25.7048C27.6991 25.3711 28.3956 24.9 28.9803 24.3139C29.6109 23.6941 30.1268 22.9734 30.5052 22.1798C30.8892 21.389 31.087 20.5252 31.087 19.6503C31.0956 19.0333 30.9781 18.422 30.7431 17.8527C30.531 17.3283 30.1641 16.8768 29.6883 16.5515Z" fill="#EDF2F7"/>
<path d="M44.3035 8.96263C44.0255 8.38211 43.647 7.84647 43.1829 7.38377C42.3085 6.5565 41.1249 6.11622 39.9096 6.16951C38.7515 6.14705 37.6107 6.46393 36.6363 7.07531C35.659 7.71748 34.8909 8.62049 34.4264 9.67772C33.8618 10.9902 33.5924 12.4063 33.6353 13.831C33.5982 15.2247 33.8589 16.6073 34.3979 17.8973C34.8391 18.9489 35.5873 19.8491 36.5503 20.4857C37.5164 21.0914 38.6456 21.4027 39.7922 21.3774C40.6834 21.3915 41.5606 21.1839 42.3489 20.7745C43.0997 20.3735 43.736 19.7958 44.2034 19.0919C44.378 18.8255 44.53 18.5451 44.6589 18.2562L44.8451 21.0802H49.3884V0.260742H44.3064V8.96263H44.3035ZM43.974 15.909C43.8047 16.4418 43.4752 16.9157 43.0338 17.2691C42.6067 17.5776 42.0878 17.7374 41.5577 17.7234C40.7522 17.757 39.9784 17.4009 39.4911 16.7727C38.9924 16.1389 38.7429 15.1406 38.7429 13.7749C38.7429 12.4119 38.9982 11.4108 39.5055 10.777C39.9985 10.1489 40.7752 9.7955 41.5833 9.82636C42.1137 9.81233 42.6355 9.97218 43.0626 10.2807C43.498 10.62 43.8191 11.0771 43.9884 11.5959C44.2117 12.2717 44.3179 12.9784 44.3035 13.6879C44.3208 14.4395 44.2088 15.1911 43.974 15.909Z" fill="#EDF2F7"/>
<path d="M62.7419 6.46387L59.6033 17.6027L56.5252 6.46387H51.1738L56.5537 21.0829H62.6213L68.0012 6.46387H62.7419Z" fill="#EDF2F7"/>
</g>
</g>
<defs>
<clipPath id="clip0_1308_82435">
<rect width="67.5" height="26" fill="white" transform="translate(0.5)"/>
</clipPath>
</defs>
</svg>
