<svg width="167" height="40" viewBox="0 0 167 40" fill="none" xmlns="http://www.w3.org/2000/svg">
<g clip-path="url(#clip0_1308_82343)">
<g filter="url(#filter0_dd_1308_82343)">
<path d="M31.2845 0.490234H12.8823C7.89599 0.490234 3.85376 4.55973 3.85376 9.57971V28.106C3.85376 33.126 7.89599 37.1955 12.8823 37.1955H31.2845C36.2709 37.1955 40.3131 33.126 40.3131 28.106V9.57971C40.3131 4.55973 36.2709 0.490234 31.2845 0.490234Z" fill="white"/>
<path d="M31.2845 0.490234H12.8823C7.89599 0.490234 3.85376 4.55973 3.85376 9.57971V28.106C3.85376 33.126 7.89599 37.1955 12.8823 37.1955H31.2845C36.2709 37.1955 40.3131 33.126 40.3131 28.106V9.57971C40.3131 4.55973 36.2709 0.490234 31.2845 0.490234Z" fill="url(#paint0_linear_1308_82343)"/>
<path fill-rule="evenodd" clip-rule="evenodd" d="M22.0829 2.67684C13.2147 2.67684 6.02562 9.91442 6.02562 18.8424C6.02562 27.7704 13.2147 35.008 22.0829 35.008C30.951 35.008 38.1401 27.7704 38.1401 18.8424C38.1401 9.91442 30.951 2.67684 22.0829 2.67684ZM5.93628 18.8424C5.93628 9.86477 13.1654 2.58691 22.0829 2.58691C31.0004 2.58691 38.2295 9.86477 38.2295 18.8424C38.2295 27.8201 31.0004 35.0979 22.0829 35.0979C13.1654 35.0979 5.93628 27.8201 5.93628 18.8424Z" fill="#D0D5DD"/>
<path fill-rule="evenodd" clip-rule="evenodd" d="M22.0835 14.3014C19.592 14.3014 17.5723 16.3347 17.5723 18.843C17.5723 21.3513 19.592 23.3846 22.0835 23.3846C24.5749 23.3846 26.5947 21.3513 26.5947 18.843C26.5947 16.3347 24.5749 14.3014 22.0835 14.3014ZM17.4829 18.843C17.4829 16.2851 19.5427 14.2114 22.0835 14.2114C24.6243 14.2114 26.684 16.2851 26.684 18.843C26.684 21.401 24.6243 23.4746 22.0835 23.4746C19.5427 23.4746 17.4829 21.401 17.4829 18.843Z" fill="#D0D5DD"/>
<path fill-rule="evenodd" clip-rule="evenodd" d="M22.0824 15.7403C20.3803 15.7403 19.0004 17.1294 19.0004 18.843C19.0004 20.5566 20.3803 21.9457 22.0824 21.9457C23.7845 21.9457 25.1643 20.5566 25.1643 18.843C25.1643 17.1294 23.7845 15.7403 22.0824 15.7403ZM18.9111 18.843C18.9111 17.0798 20.3309 15.6504 22.0824 15.6504C23.8338 15.6504 25.2536 17.0798 25.2536 18.843C25.2536 20.6063 23.8338 22.0357 22.0824 22.0357C20.3309 22.0357 18.9111 20.6063 18.9111 18.843Z" fill="#D0D5DD"/>
<path d="M22.0376 0.316406H22.1269V37.369H22.0376V0.316406Z" fill="#D0D5DD"/>
<path d="M40.4856 18.7974V18.8873H3.68115V18.7974H40.4856Z" fill="#D0D5DD"/>
<path d="M34.2761 0.316406H34.3655V37.369H34.2761V0.316406Z" fill="#D0D5DD"/>
<path d="M15.9194 0.316406H16.0088V37.369H15.9194V0.316406Z" fill="#D0D5DD"/>
<path d="M28.158 0.316406H28.2473V37.369H28.158V0.316406Z" fill="#D0D5DD"/>
<path d="M9.79932 0.316406H9.88866V37.369H9.79932V0.316406Z" fill="#D0D5DD"/>
<path d="M40.4856 31.1182V31.2081H3.68115V31.1182H40.4856Z" fill="#D0D5DD"/>
<path d="M40.4856 12.6372V12.7271H3.68115V12.6372H40.4856Z" fill="#D0D5DD"/>
<path d="M40.4856 24.958V25.048H3.68115V24.958H40.4856Z" fill="#D0D5DD"/>
<path d="M40.4856 6.47656V6.56651H3.68115V6.47656H40.4856Z" fill="#D0D5DD"/>
<g filter="url(#filter1_dd_1308_82343)">
<path d="M22.0849 28.1059C27.1665 28.1059 31.286 23.9587 31.286 18.8427C31.286 13.7268 27.1665 9.57959 22.0849 9.57959C17.0033 9.57959 12.8838 13.7268 12.8838 18.8427C12.8838 23.9587 17.0033 28.1059 22.0849 28.1059Z" fill="url(#paint1_linear_1308_82343)"/>
</g>
<path d="M3.68115 18.8428H40.4856V22.548C40.4856 27.7359 40.4856 30.3298 39.4827 32.3113C38.6006 34.0543 37.1929 35.4714 35.4617 36.3595C33.4935 37.3691 30.9169 37.3691 25.7638 37.3691H18.4029C13.2498 37.3691 10.6733 37.3691 8.70505 36.3595C6.97372 35.4714 5.56614 34.0543 4.68403 32.3113C3.68115 30.3298 3.68115 27.7359 3.68115 22.548V18.8428Z" fill="white" fill-opacity="0.2"/>
<path d="M31.2845 0.490234H12.8823C7.89599 0.490234 3.85376 4.55973 3.85376 9.57971V28.106C3.85376 33.126 7.89599 37.1955 12.8823 37.1955H31.2845C36.2709 37.1955 40.3131 33.126 40.3131 28.106V9.57971C40.3131 4.55973 36.2709 0.490234 31.2845 0.490234Z" stroke="#D0D5DD" stroke-width="0.75"/>
</g>
<path d="M62.3415 10.1055H65.3724V21.1088C65.3724 22.3149 65.089 23.3757 64.5226 24.2913C63.9618 25.2069 63.1719 25.9223 62.1538 26.4377C61.1353 26.9476 59.9456 27.2025 58.5843 27.2025C57.217 27.2025 56.0245 26.9476 55.0064 26.4377C53.9878 25.9223 53.1984 25.2069 52.6371 24.2913C52.0763 23.3757 51.7961 22.3149 51.7961 21.1088V10.1055H54.8265V20.8538C54.8265 21.5556 54.9788 22.1805 55.2838 22.7288C55.5944 23.277 56.03 23.7074 56.5908 24.0199C57.1516 24.3269 57.8164 24.4805 58.5843 24.4805C59.3521 24.4805 60.0164 24.3269 60.5772 24.0199C61.1435 23.7074 61.5792 23.277 61.8842 22.7288C62.1892 22.1805 62.3415 21.5556 62.3415 20.8538V10.1055Z" fill="white"/>
<path d="M71.4929 19.5461V26.9474H68.5356V14.3158H71.3622V16.4622H71.5094C71.7979 15.755 72.258 15.193 72.8896 14.7764C73.5268 14.3597 74.3139 14.1514 75.2506 14.1514C76.1164 14.1514 76.8705 14.3377 77.5132 14.7105C78.1614 15.0834 78.6624 15.6234 79.0162 16.3306C79.3755 17.0379 79.5526 17.8959 79.5471 18.9046V26.9474H76.5903V19.3651C76.5903 18.5208 76.3722 17.8602 75.9366 17.3832C75.5064 16.9063 74.9102 16.6678 74.1479 16.6678C73.6303 16.6678 73.1702 16.7829 72.7672 17.0132C72.3697 17.2379 72.0564 17.5642 71.8278 17.9918C71.6047 18.4194 71.4929 18.9375 71.4929 19.5461Z" fill="white"/>
<path d="M88.8187 14.3159V16.6185H81.606V14.3159H88.8187ZM83.3864 11.2896H86.3436V23.1481C86.3436 23.5483 86.4034 23.8553 86.523 24.0691C86.6486 24.2775 86.8119 24.42 87.0134 24.4968C87.2149 24.5735 87.4381 24.6119 87.6833 24.6119C87.8682 24.6119 88.0371 24.5982 88.1898 24.5708C88.3476 24.5434 88.4672 24.5187 88.5491 24.4968L89.0473 26.8241C88.8896 26.8789 88.6632 26.9392 88.3692 27.005C88.0808 27.0708 87.7265 27.1092 87.3074 27.1201C86.5667 27.1421 85.8997 27.0296 85.3062 26.783C84.7127 26.5308 84.2416 26.1415 83.8929 25.6152C83.5497 25.0889 83.3808 24.431 83.3864 23.6415V11.2896Z" fill="white"/>
<path d="M91.2911 26.9473V14.3157H94.2484V26.9473H91.2911ZM92.778 12.5229C92.3097 12.5229 91.9067 12.3667 91.569 12.0542C91.2313 11.7362 91.0625 11.3552 91.0625 10.9111C91.0625 10.4616 91.2313 10.0805 91.569 9.76802C91.9067 9.45002 92.3097 9.29102 92.778 9.29102C93.2519 9.29102 93.6549 9.45002 93.9871 9.76802C94.3247 10.0805 94.4936 10.4616 94.4936 10.9111C94.4936 11.3552 94.3247 11.7362 93.9871 12.0542C93.6549 12.3667 93.2519 12.5229 92.778 12.5229Z" fill="white"/>
<path d="M103.555 14.3159V16.6185H96.3418V14.3159H103.555ZM98.1227 11.2896H101.079V23.1481C101.079 23.5483 101.139 23.8553 101.259 24.0691C101.384 24.2775 101.548 24.42 101.749 24.4968C101.951 24.5735 102.174 24.6119 102.419 24.6119C102.605 24.6119 102.773 24.5982 102.926 24.5708C103.083 24.5434 103.204 24.5187 103.285 24.4968L103.783 26.8241C103.625 26.8789 103.4 26.9392 103.106 27.005C102.817 27.0708 102.463 27.1092 102.043 27.1201C101.303 27.1421 100.635 27.0296 100.042 26.783C99.4485 26.5308 98.9775 26.1415 98.6287 25.6152C98.286 25.0889 98.1172 24.431 98.1227 23.6415V11.2896Z" fill="white"/>
<path d="M109.254 10.1055V26.9476H106.297V10.1055H109.254Z" fill="white"/>
<path d="M117.85 27.1941C116.591 27.1941 115.505 26.931 114.59 26.4046C113.68 25.8728 112.981 25.1217 112.491 24.1514C112 23.1755 111.756 22.0269 111.756 20.7056C111.756 19.4063 112 18.2659 112.491 17.2846C112.986 16.2977 113.678 15.5302 114.566 14.9819C115.453 14.4282 116.496 14.1514 117.694 14.1514C118.467 14.1514 119.197 14.2774 119.883 14.5296C120.575 14.7764 121.185 15.1601 121.713 15.6809C122.247 16.2018 122.666 16.8651 122.971 17.6711C123.276 18.4715 123.429 19.4255 123.429 20.5329V21.4457H113.144V19.4392H120.594C120.589 18.869 120.466 18.3619 120.226 17.9178C119.987 17.4682 119.652 17.1146 119.221 16.8569C118.797 16.5992 118.301 16.4704 117.735 16.4704C117.13 16.4704 116.6 16.6185 116.142 16.9145C115.684 17.2051 115.328 17.5888 115.072 18.0658C114.821 18.5373 114.694 19.0554 114.688 19.6201V21.3717C114.688 22.1064 114.821 22.7369 115.088 23.2632C115.355 23.784 115.728 24.1842 116.208 24.4639C116.686 24.738 117.248 24.875 117.89 24.875C118.32 24.875 118.71 24.8147 119.058 24.6941C119.407 24.568 119.709 24.3843 119.965 24.1431C120.221 23.9019 120.414 23.6031 120.545 23.2467L123.306 23.5593C123.132 24.2939 122.799 24.9354 122.309 25.4836C121.825 26.0264 121.204 26.4485 120.447 26.75C119.69 27.0461 118.824 27.1941 117.85 27.1941Z" fill="white"/>
<path d="M130.586 27.1696C129.601 27.1696 128.718 26.9147 127.939 26.4048C127.161 25.8949 126.545 25.1548 126.093 24.1844C125.641 23.214 125.416 22.0353 125.416 20.6482C125.416 19.2447 125.644 18.0605 126.101 17.0956C126.564 16.1252 127.188 15.3933 127.972 14.8998C128.756 14.4009 129.631 14.1515 130.594 14.1515C131.33 14.1515 131.934 14.2776 132.408 14.5298C132.881 14.7765 133.257 15.0753 133.535 15.4262C133.813 15.7716 134.028 16.0978 134.181 16.4048H134.303V10.1055H137.268V26.9476H134.36V24.9574H134.181C134.028 25.2644 133.807 25.5906 133.518 25.936C133.23 26.2759 132.849 26.5665 132.375 26.8077C131.901 27.049 131.305 27.1696 130.586 27.1696ZM131.411 24.7272C132.038 24.7272 132.571 24.5572 133.012 24.2173C133.453 23.8719 133.788 23.3922 134.017 22.7782C134.246 22.1641 134.36 21.4487 134.36 20.6318C134.36 19.8149 134.246 19.1049 134.017 18.5018C133.794 17.8987 133.461 17.43 133.02 17.0956C132.585 16.7611 132.048 16.5939 131.411 16.5939C130.752 16.5939 130.202 16.7667 129.761 17.112C129.32 17.4574 128.988 17.9344 128.765 18.543C128.541 19.1515 128.43 19.8478 128.43 20.6318C128.43 21.4212 128.541 22.1257 128.765 22.7452C128.993 23.3593 129.328 23.8445 129.769 24.2008C130.216 24.5517 130.763 24.7272 131.411 24.7272Z" fill="white"/>
<path d="M156.801 10.1055H159.832V21.1088C159.832 22.3149 159.548 23.3757 158.982 24.2913C158.421 25.2069 157.632 25.9223 156.613 26.4377C155.595 26.9476 154.405 27.2025 153.044 27.2025C151.677 27.2025 150.484 26.9476 149.466 26.4377C148.447 25.9223 147.658 25.2069 147.097 24.2913C146.536 23.3757 146.256 22.3149 146.256 21.1088V10.1055H149.286V20.8538C149.286 21.5556 149.439 22.1805 149.744 22.7288C150.054 23.277 150.49 23.7074 151.05 24.0199C151.612 24.3269 152.276 24.4805 153.044 24.4805C153.812 24.4805 154.476 24.3269 155.037 24.0199C155.603 23.7074 156.039 23.277 156.344 22.7288C156.649 22.1805 156.801 21.5556 156.801 20.8538V10.1055Z" fill="white"/>
<path d="M166.156 10.105V26.9471H163.125V10.105H166.156Z" fill="white"/>
</g>
<defs>
<filter id="filter0_dd_1308_82343" x="-4.02124" y="-4.88477" width="52.2095" height="52.4551" filterUnits="userSpaceOnUse" color-interpolation-filters="sRGB">
<feFlood flood-opacity="0" result="BackgroundImageFix"/>
<feColorMatrix in="SourceAlpha" type="matrix" values="0 0 0 0 0 0 0 0 0 0 0 0 0 0 0 0 0 0 127 0" result="hardAlpha"/>
<feOffset dy="2.5"/>
<feGaussianBlur stdDeviation="2.5"/>
<feColorMatrix type="matrix" values="0 0 0 0 0.0627451 0 0 0 0 0.0941176 0 0 0 0 0.156863 0 0 0 0.06 0"/>
<feBlend mode="normal" in2="BackgroundImageFix" result="effect1_dropShadow_1308_82343"/>
<feColorMatrix in="SourceAlpha" type="matrix" values="0 0 0 0 0 0 0 0 0 0 0 0 0 0 0 0 0 0 127 0" result="hardAlpha"/>
<feOffset dy="2.5"/>
<feGaussianBlur stdDeviation="3.75"/>
<feColorMatrix type="matrix" values="0 0 0 0 0.0627451 0 0 0 0 0.0941176 0 0 0 0 0.156863 0 0 0 0.1 0"/>
<feBlend mode="normal" in2="effect1_dropShadow_1308_82343" result="effect2_dropShadow_1308_82343"/>
<feBlend mode="normal" in="SourceGraphic" in2="effect2_dropShadow_1308_82343" result="shape"/>
</filter>
<filter id="filter1_dd_1308_82343" x="5.38379" y="4.57959" width="33.4021" height="33.5264" filterUnits="userSpaceOnUse" color-interpolation-filters="sRGB">
<feFlood flood-opacity="0" result="BackgroundImageFix"/>
<feColorMatrix in="SourceAlpha" type="matrix" values="0 0 0 0 0 0 0 0 0 0 0 0 0 0 0 0 0 0 127 0" result="hardAlpha"/>
<feOffset dy="2.5"/>
<feGaussianBlur stdDeviation="2.5"/>
<feColorMatrix type="matrix" values="0 0 0 0 0.0627451 0 0 0 0 0.0941176 0 0 0 0 0.156863 0 0 0 0.06 0"/>
<feBlend mode="normal" in2="BackgroundImageFix" result="effect1_dropShadow_1308_82343"/>
<feColorMatrix in="SourceAlpha" type="matrix" values="0 0 0 0 0 0 0 0 0 0 0 0 0 0 0 0 0 0 127 0" result="hardAlpha"/>
<feOffset dy="2.5"/>
<feGaussianBlur stdDeviation="3.75"/>
<feColorMatrix type="matrix" values="0 0 0 0 0.0627451 0 0 0 0 0.0941176 0 0 0 0 0.156863 0 0 0 0.1 0"/>
<feBlend mode="normal" in2="effect1_dropShadow_1308_82343" result="effect2_dropShadow_1308_82343"/>
<feBlend mode="normal" in="SourceGraphic" in2="effect2_dropShadow_1308_82343" result="shape"/>
</filter>
<linearGradient id="paint0_linear_1308_82343" x1="22.0834" y1="0.31655" x2="22.0834" y2="37.3692" gradientUnits="userSpaceOnUse">
<stop stop-color="white"/>
<stop offset="1" stop-color="#D0D5DD"/>
</linearGradient>
<linearGradient id="paint1_linear_1308_82343" x1="17.4843" y1="28.1059" x2="26.7848" y2="9.6296" gradientUnits="userSpaceOnUse">
<stop stop-color="#53389E"/>
<stop offset="1" stop-color="#6941C6"/>
</linearGradient>
<clipPath id="clip0_1308_82343">
<rect width="167" height="44" fill="white" transform="translate(0 -2)"/>
</clipPath>
</defs>
</svg>
