<svg width="439" height="404" viewBox="0 0 439 404" fill="none" xmlns="http://www.w3.org/2000/svg">
<path fill-rule="evenodd" clip-rule="evenodd" d="M389.26 315.223C326.731 407.599 201.154 431.793 108.777 369.262C16.4012 306.731 -7.79292 181.152 54.7384 88.7772C117.27 -3.59881 242.848 -27.7929 335.224 34.7383C427.6 97.2695 451.793 222.846 389.26 315.223ZM99.0705 345.11C68.4413 298.576 60.7427 227.555 83.8428 156.582C103.546 96.0458 141.383 48.6697 184.447 23.8884C137.303 38.7958 94.5882 73.6719 68.9851 123.716C28.9486 201.971 43.4724 292.458 99.0705 345.11ZM374.992 280.273C348.709 331.643 304.396 367.032 255.769 381.244C300.357 357.089 339.805 308.749 360.07 246.487C382.801 176.647 375.709 106.761 346.29 60.2062C400.743 113.041 414.694 202.671 374.992 280.273ZM129.63 191.726C121.156 271.092 135.193 341.944 162.699 377.565C111.408 350.5 85.9464 266.932 105.115 177.061C117.022 121.237 143.657 74.6603 175.999 46.4746C153.354 81.078 135.922 132.797 129.63 191.726ZM338.888 226.922C326.853 283.341 299.774 330.316 266.965 358.405C290.154 323.807 308.058 271.358 314.454 211.461C322.818 133.133 309.255 63.0992 282.458 27.0392C332.975 54.7419 357.911 137.727 338.888 226.922ZM224.569 367.981C261.504 367.398 290.273 292.625 288.824 200.972C287.378 109.317 256.26 35.4905 219.325 36.0741C182.388 36.6578 153.619 111.431 155.067 203.085C156.515 294.738 187.632 368.564 224.569 367.981Z" fill="#050507" fill-opacity="0.04"/>
<g filter="url(#filter0_d_2011_1561)">
<rect x="32" y="102" width="200" height="200" rx="100" fill="white"/>
</g>
<rect x="82" y="152" width="100" height="100" rx="24" fill="black"/>
<path d="M131.571 230.571C129.374 230.571 127.18 229.737 125.502 228.071L123.416 225.985C122.608 225.18 121.525 224.734 120.376 224.731H117.442C112.699 224.731 108.838 220.871 108.838 216.128V213.19C108.835 212.044 108.39 210.962 107.581 210.147L105.529 208.098C102.169 204.758 102.155 199.298 105.498 195.935L107.584 193.846C108.39 193.037 108.835 191.955 108.838 190.806V187.874C108.838 183.128 112.699 179.268 117.442 179.268H120.379C121.525 179.268 122.605 178.822 123.419 178.008L125.474 175.959C128.814 172.599 134.271 172.582 137.637 175.928L139.723 178.014C140.535 178.822 141.615 179.268 142.761 179.268H145.698C150.441 179.268 154.301 183.128 154.301 187.874V190.809C154.304 191.955 154.75 193.037 155.559 193.852L157.61 195.903C159.236 197.521 160.136 199.675 160.145 201.975C160.15 204.261 159.27 206.413 157.667 208.038C157.639 208.067 157.613 208.098 157.584 208.124L155.556 210.153C154.75 210.962 154.304 212.044 154.301 213.193V216.128C154.301 220.871 150.441 224.731 145.698 224.731H142.761C141.615 224.734 140.532 225.18 139.72 225.988L137.666 228.04C135.992 229.726 133.78 230.571 131.571 230.571Z" fill="white"/>
<path fill-rule="evenodd" clip-rule="evenodd" d="M125.983 196.435C125.511 196.906 124.9 197.16 124.223 197.16C123.588 197.16 122.966 196.9 122.466 196.432C121.991 195.96 121.723 195.315 121.723 194.66C121.723 194.037 121.986 193.397 122.448 192.903C122.703 192.646 123.006 192.452 123.308 192.349C124.171 191.954 125.317 192.186 125.997 192.9C126.24 193.143 126.426 193.409 126.549 193.686C126.683 193.983 126.752 194.32 126.752 194.66C126.752 195.34 126.48 195.972 125.983 196.435ZM140.695 192.893C139.721 191.922 138.135 191.922 137.161 192.893L122.474 207.58C121.5 208.554 121.5 210.14 122.474 211.117C122.948 211.589 123.574 211.849 124.243 211.849C124.911 211.849 125.537 211.589 126.008 211.117L140.695 196.431C141.67 195.453 141.67 193.87 140.695 192.893ZM139.881 207.046C138.955 206.658 137.858 206.869 137.126 207.601C136.975 207.778 136.76 208.052 136.615 208.375C136.46 208.724 136.44 209.098 136.44 209.349C136.44 209.601 136.46 209.972 136.615 210.321C136.758 210.641 136.929 210.901 137.155 211.127C137.672 211.607 138.272 211.85 138.941 211.85C139.575 211.85 140.198 211.592 140.709 211.115C141.164 210.661 141.412 210.032 141.412 209.349C141.412 208.664 141.164 208.038 140.706 207.581C140.455 207.332 140.152 207.138 139.881 207.046Z" fill="black"/>
<g filter="url(#filter1_d_2011_1561)">
<rect x="212" y="102" width="200" height="200" rx="100" fill="white"/>
</g>
<rect x="262" y="152" width="100" height="100" rx="25" fill="#050507"/>
<path fill-rule="evenodd" clip-rule="evenodd" d="M289.584 235.121C307.876 247.503 332.743 242.712 345.125 224.42C357.507 206.128 352.717 181.261 334.425 168.879C316.132 156.496 291.265 161.287 278.883 179.579C266.5 197.872 271.291 222.739 289.584 235.121ZM294.889 235.448C311.622 244.008 332.848 235.972 342.299 217.5C351.75 199.026 345.847 177.111 329.114 168.55C312.382 159.989 291.155 168.025 281.704 186.498C272.253 204.971 278.156 226.887 294.889 235.448Z" fill="white"/>
<path fill-rule="evenodd" clip-rule="evenodd" d="M299.657 239.817C314.761 244.733 332.53 231.746 339.345 210.809C346.159 189.872 339.438 168.914 324.334 163.998C309.229 159.082 291.461 172.069 284.646 193.006C277.832 213.943 284.552 234.901 299.657 239.817ZM304.277 238.226C317.06 240.952 330.883 226.943 335.15 206.935C339.417 186.927 332.514 168.497 319.731 165.771C306.948 163.044 293.126 177.053 288.859 197.061C284.591 217.069 291.494 235.499 304.277 238.226Z" fill="white"/>
<path fill-rule="evenodd" clip-rule="evenodd" d="M307.783 241.525C317.89 242.604 327.976 225.747 330.312 203.873C332.648 182 326.348 163.393 316.241 162.314C306.135 161.235 296.049 178.092 293.713 199.965C291.377 221.839 297.677 240.446 307.783 241.525ZM312.513 234.867C319.827 234.752 325.524 219.945 325.237 201.796C324.95 183.647 318.788 169.028 311.474 169.143C304.16 169.259 298.463 184.065 298.75 202.215C299.037 220.364 305.199 234.983 312.513 234.867Z" fill="white"/>
<defs>
<filter id="filter0_d_2011_1561" x="0" y="66" width="264" height="264" filterUnits="userSpaceOnUse" color-interpolation-filters="sRGB">
<feFlood flood-opacity="0" result="BackgroundImageFix"/>
<feColorMatrix in="SourceAlpha" type="matrix" values="0 0 0 0 0 0 0 0 0 0 0 0 0 0 0 0 0 0 127 0" result="hardAlpha"/>
<feOffset dy="-4"/>
<feGaussianBlur stdDeviation="16"/>
<feComposite in2="hardAlpha" operator="out"/>
<feColorMatrix type="matrix" values="0 0 0 0 0 0 0 0 0 0 0 0 0 0 0 0 0 0 0.1 0"/>
<feBlend mode="normal" in2="BackgroundImageFix" result="effect1_dropShadow_2011_1561"/>
<feBlend mode="normal" in="SourceGraphic" in2="effect1_dropShadow_2011_1561" result="shape"/>
</filter>
<filter id="filter1_d_2011_1561" x="175" y="74" width="264" height="264" filterUnits="userSpaceOnUse" color-interpolation-filters="sRGB">
<feFlood flood-opacity="0" result="BackgroundImageFix"/>
<feColorMatrix in="SourceAlpha" type="matrix" values="0 0 0 0 0 0 0 0 0 0 0 0 0 0 0 0 0 0 127 0" result="hardAlpha"/>
<feOffset dx="-5" dy="4"/>
<feGaussianBlur stdDeviation="16"/>
<feComposite in2="hardAlpha" operator="out"/>
<feColorMatrix type="matrix" values="0 0 0 0 0.168627 0 0 0 0 0.454902 0 0 0 0 0.905882 0 0 0 0.1 0"/>
<feBlend mode="normal" in2="BackgroundImageFix" result="effect1_dropShadow_2011_1561"/>
<feBlend mode="normal" in="SourceGraphic" in2="effect1_dropShadow_2011_1561" result="shape"/>
</filter>
</defs>
</svg>
