<svg width="685" height="722" viewBox="0 0 685 722" fill="none" xmlns="http://www.w3.org/2000/svg">
<path d="M482.397 314.526C525.865 238.059 552.945 184.769 511.707 181.339C478.478 178.575 464.375 240.748 491.933 242.567C523.929 244.68 554.387 195.855 571.245 221.458C620.962 296.963 225.035 439.03 229.619 409.991" stroke="#506BF0" stroke-width="2" stroke-linecap="round" stroke-dasharray="5 5"/>
<path d="M229 38.5C403.796 46.9579 586 444.5 249.5 509" stroke="#F0BBC4" stroke-width="2" stroke-linecap="round" stroke-dasharray="5 5"/>
<circle cx="226" cy="535" r="55" fill="#FCEE6A"/>
<circle cx="172" cy="-52" r="172" fill="#72F1AB"/>
<circle cx="488.5" cy="274.5" r="53.5" fill="#50B6F0"/>
<circle cx="559" cy="674" r="153" fill="#F0BBC4"/>
<g filter="url(#filter0_d_8787_12297)">
<rect x="204" y="261" width="200" height="200" rx="100" fill="white"/>
</g>
<rect x="254" y="311" width="100" height="100" rx="24" fill="black"/>
<path d="M303.571 389.571C301.374 389.571 299.18 388.737 297.502 387.071L295.416 384.985C294.608 384.18 293.525 383.734 292.376 383.731H289.442C284.699 383.731 280.838 379.871 280.838 375.128V372.19C280.835 371.044 280.39 369.962 279.581 369.147L277.529 367.098C274.169 363.758 274.155 358.298 277.498 354.935L279.584 352.846C280.39 352.037 280.835 350.955 280.838 349.806V346.874C280.838 342.128 284.699 338.268 289.442 338.268H292.379C293.525 338.268 294.605 337.822 295.419 337.008L297.474 334.959C300.814 331.599 306.271 331.582 309.637 334.928L311.723 337.014C312.535 337.822 313.615 338.268 314.761 338.268H317.698C322.441 338.268 326.301 342.128 326.301 346.874V349.809C326.304 350.955 326.75 352.037 327.559 352.852L329.61 354.903C331.236 356.521 332.136 358.675 332.145 360.975C332.15 363.261 331.27 365.413 329.667 367.038C329.639 367.067 329.613 367.098 329.584 367.124L327.556 369.153C326.75 369.962 326.304 371.044 326.301 372.193V375.128C326.301 379.871 322.441 383.731 317.698 383.731H314.761C313.615 383.734 312.532 384.18 311.72 384.988L309.666 387.04C307.992 388.726 305.78 389.571 303.571 389.571Z" fill="white"/>
<path fill-rule="evenodd" clip-rule="evenodd" d="M297.982 355.435C297.511 355.906 296.899 356.16 296.222 356.16C295.588 356.16 294.965 355.9 294.465 355.432C293.99 354.96 293.722 354.315 293.722 353.66C293.722 353.037 293.985 352.397 294.447 351.903C294.702 351.646 295.005 351.452 295.308 351.349C296.17 350.954 297.316 351.186 297.996 351.9C298.239 352.143 298.425 352.409 298.548 352.686C298.682 352.983 298.751 353.32 298.751 353.66C298.751 354.34 298.479 354.972 297.982 355.435ZM312.694 351.893C311.72 350.922 310.134 350.922 309.16 351.893L294.473 366.58C293.499 367.554 293.499 369.14 294.473 370.117C294.947 370.589 295.573 370.849 296.242 370.849C296.91 370.849 297.536 370.589 298.007 370.117L312.694 355.431C313.669 354.453 313.669 352.87 312.694 351.893ZM311.88 366.046C310.954 365.658 309.857 365.869 309.125 366.601C308.974 366.778 308.759 367.052 308.614 367.375C308.459 367.724 308.439 368.098 308.439 368.349C308.439 368.601 308.459 368.972 308.614 369.321C308.757 369.641 308.928 369.901 309.154 370.127C309.671 370.607 310.271 370.85 310.94 370.85C311.574 370.85 312.197 370.592 312.708 370.115C313.163 369.661 313.411 369.032 313.411 368.349C313.411 367.664 313.163 367.038 312.705 366.581C312.454 366.332 312.151 366.138 311.88 366.046Z" fill="black"/>
<g filter="url(#filter1_d_8787_12297)">
<rect x="384" y="261" width="200" height="200" rx="100" fill="white"/>
</g>
<rect x="434" y="311" width="100" height="100" rx="24" fill="#506BF0"/>
<path d="M514 388C507.4 393.8 499.9 397.4 488.6 397.4C468.2 397.4 453 381.5 453 361.4V361.2C453 341.3 467.9 325 489.1 325C499.9 325 507 328.2 513.1 332.9C514.4 333.9 515.5 335.6 515.5 337.8C515.5 341.2 512.8 343.8 509.4 343.8C507.7 343.8 506.5 343.2 505.7 342.6C500.9 338.7 495.7 336.3 489 336.3C475.7 336.3 465.9 347.3 465.9 361V361.2C465.9 374.9 475.6 386 489 386C496.4 386 501.4 383.6 506.5 379.3C507.4 378.5 508.7 377.9 510.2 377.9C513.3 377.9 516 380.5 516 383.6C516 385.5 515.1 387 514 388Z" fill="white"/>
<defs>
<filter id="filter0_d_8787_12297" x="172" y="225" width="264" height="264" filterUnits="userSpaceOnUse" color-interpolation-filters="sRGB">
<feFlood flood-opacity="0" result="BackgroundImageFix"/>
<feColorMatrix in="SourceAlpha" type="matrix" values="0 0 0 0 0 0 0 0 0 0 0 0 0 0 0 0 0 0 127 0" result="hardAlpha"/>
<feOffset dy="-4"/>
<feGaussianBlur stdDeviation="16"/>
<feComposite in2="hardAlpha" operator="out"/>
<feColorMatrix type="matrix" values="0 0 0 0 0 0 0 0 0 0 0 0 0 0 0 0 0 0 0.1 0"/>
<feBlend mode="normal" in2="BackgroundImageFix" result="effect1_dropShadow_8787_12297"/>
<feBlend mode="normal" in="SourceGraphic" in2="effect1_dropShadow_8787_12297" result="shape"/>
</filter>
<filter id="filter1_d_8787_12297" x="347" y="233" width="264" height="264" filterUnits="userSpaceOnUse" color-interpolation-filters="sRGB">
<feFlood flood-opacity="0" result="BackgroundImageFix"/>
<feColorMatrix in="SourceAlpha" type="matrix" values="0 0 0 0 0 0 0 0 0 0 0 0 0 0 0 0 0 0 127 0" result="hardAlpha"/>
<feOffset dx="-5" dy="4"/>
<feGaussianBlur stdDeviation="16"/>
<feComposite in2="hardAlpha" operator="out"/>
<feColorMatrix type="matrix" values="0 0 0 0 0.168627 0 0 0 0 0.454902 0 0 0 0 0.905882 0 0 0 0.1 0"/>
<feBlend mode="normal" in2="BackgroundImageFix" result="effect1_dropShadow_8787_12297"/>
<feBlend mode="normal" in="SourceGraphic" in2="effect1_dropShadow_8787_12297" result="shape"/>
</filter>
</defs>
</svg>
