<svg width="235" height="72" viewBox="0 0 235 72" fill="none" xmlns="http://www.w3.org/2000/svg">
<g clip-path="url(#clip0_9937_15155)">
<path d="M58.9475 46.5437L40.2676 56.3764C39.4607 56.8012 38.5625 57.0232 37.6507 57.0232C36.7388 57.0232 35.8406 56.8012 35.0338 56.3764L16.3568 46.5437C16.0987 46.408 15.8832 46.2034 15.7344 45.9527C15.5855 45.7019 15.509 45.4148 15.5134 45.1232C15.5178 44.8317 15.6029 44.547 15.7592 44.3009C15.9156 44.0547 16.1371 43.8567 16.3991 43.7288L37.6507 33.3547L58.9022 43.7288C59.1642 43.8567 59.3857 44.0547 59.5421 44.3009C59.6985 44.547 59.7836 44.8317 59.788 45.1232C59.7923 45.4148 59.7158 45.7019 59.567 45.9527C59.4181 46.2034 59.2027 46.408 58.9445 46.5437H58.9475Z" fill="white" fill-opacity="0.48"/>
<path d="M58.9467 40.1826L40.2698 50.0153C39.4629 50.4401 38.5647 50.6621 37.6529 50.6621C36.741 50.6621 35.8428 50.4401 35.036 50.0153L16.359 40.1826C16.1011 40.0468 15.8858 39.8422 15.7371 39.5916C15.5883 39.3409 15.5119 39.054 15.5163 38.7625C15.5207 38.4711 15.6057 38.1866 15.7619 37.9405C15.9181 37.6944 16.1395 37.4964 16.4013 37.3685L37.6529 26.9944L58.9044 37.3685C59.1662 37.4964 59.3876 37.6944 59.5438 37.9405C59.7 38.1866 59.785 38.4711 59.7894 38.7625C59.7938 39.054 59.7174 39.3409 59.5687 39.5916C59.4199 39.8422 59.2047 40.0468 58.9467 40.1826Z" fill="white" fill-opacity="0.64"/>
<path d="M58.9467 33.8559L40.2698 43.6887C39.4629 44.1135 38.5648 44.3354 37.6529 44.3354C36.741 44.3354 35.8429 44.1135 35.036 43.6887L16.359 33.8559C16.1011 33.7202 15.8858 33.5156 15.7371 33.2649C15.5883 33.0143 15.5119 32.7273 15.5163 32.4359C15.5207 32.1444 15.6057 31.8599 15.7619 31.6138C15.9182 31.3677 16.1395 31.1697 16.4014 31.0418L37.6529 20.6677L58.9044 31.0418C59.1663 31.1697 59.3876 31.3677 59.5438 31.6138C59.7 31.8599 59.7851 32.1444 59.7895 32.4359C59.7938 32.7273 59.7174 33.0143 59.5687 33.2649C59.4199 33.5156 59.2047 33.7202 58.9467 33.8559Z" fill="white" fill-opacity="0.8"/>
<path d="M58.9475 27.5344L40.2676 37.3671C39.4607 37.7919 38.5625 38.0138 37.6507 38.0138C36.7388 38.0138 35.8407 37.7919 35.0338 37.3671L16.3568 27.5344C16.0987 27.3987 15.8832 27.1941 15.7344 26.9434C15.5855 26.6926 15.509 26.4055 15.5134 26.114C15.5178 25.8224 15.6029 25.5377 15.7592 25.2916C15.9156 25.0454 16.1371 24.8474 16.3991 24.7195L35.1857 15.5465C35.9534 15.1717 36.7964 14.9768 37.6507 14.9768C38.5049 14.9768 39.348 15.1717 40.1156 15.5465L58.9044 24.7232C59.1664 24.8511 59.3879 25.0491 59.5443 25.2952C59.7007 25.5414 59.7858 25.826 59.7901 26.1176C59.7945 26.4092 59.7181 26.6963 59.5692 26.947C59.4203 27.1978 59.2048 27.4023 58.9467 27.5381L58.9475 27.5344Z" fill="white" fill-opacity="0.92"/>
<path d="M103.012 25.2129V46.3512H100.11V44.4926L100.019 44.4305C99.9978 44.4901 99.9694 44.547 99.9346 44.6C99.3696 45.317 98.6413 45.8886 97.8106 46.2671C96.9799 46.6456 96.0707 46.8201 95.1589 46.7759C94.2471 46.7317 93.3591 46.4702 92.5689 46.0132C91.7786 45.5561 91.1091 44.9168 90.6161 44.1485C89.6678 42.7529 89.2197 41.0774 89.3448 39.3947C89.4699 37.7121 90.1608 36.1213 91.3051 34.8812C91.8449 34.3031 92.4996 33.8443 93.2273 33.5343C93.9549 33.2243 94.7393 33.0699 95.5302 33.081C96.321 33.0922 97.1008 33.2686 97.8195 33.599C98.5381 33.9294 99.1797 34.4065 99.703 34.9996C99.8213 35.1296 99.9404 35.2597 100.098 35.4379V25.2129H103.012ZM96.213 43.8548C96.9903 43.8481 97.7481 43.6107 98.3904 43.1728C99.0326 42.7349 99.5304 42.1161 99.8206 41.395C100.111 40.6739 100.18 39.8828 100.02 39.1221C99.8604 38.3614 99.4783 37.6653 98.9224 37.122C98.3664 36.5788 97.6616 36.2128 96.8974 36.0706C96.1332 35.9283 95.344 36.0161 94.6297 36.3229C93.9155 36.6297 93.3085 37.1417 92.8855 37.7939C92.4626 38.4461 92.2428 39.2092 92.254 39.9864C92.2721 41.0225 92.6979 42.0096 93.439 42.7338C94.1801 43.4579 95.1769 43.8607 96.213 43.8548Z" fill="white"/>
<path d="M80.513 27.0027C83.5229 33.4748 86.5103 39.9016 89.5092 46.3671H87.8092C87.2613 46.3671 86.7191 46.3613 86.1712 46.373C86.1075 46.3814 86.043 46.3666 85.9894 46.3313C85.9357 46.296 85.8966 46.2426 85.8791 46.1808C85.467 45.2662 85.0381 44.3544 84.6254 43.4361C84.6011 43.3632 84.5525 43.301 84.4877 43.2598C84.4228 43.2187 84.3458 43.2012 84.2696 43.2103C81.7565 43.2162 79.2433 43.2162 76.7301 43.2103C76.6487 43.2008 76.5665 43.2197 76.4975 43.2639C76.4285 43.3082 76.377 43.3749 76.3517 43.4529C75.945 44.3622 75.5291 45.2657 75.1039 46.1633C75.0644 46.2481 74.9577 46.3555 74.8847 46.3555C73.7662 46.3664 72.6484 46.3664 71.4795 46.3664C74.4924 39.9067 77.4913 33.4857 80.513 27.0027ZM83.0145 40.0258L80.513 34.5765L77.983 40.0265L83.0145 40.0258Z" fill="white"/>
<path d="M121.607 29.8548C120.867 30.6227 120.139 31.3846 119.411 32.1422C118.179 30.9026 116.511 30.194 114.763 30.1677C113.016 30.1413 111.327 30.7995 110.059 32.0014C108.79 33.2034 108.041 34.8538 107.973 36.6002C107.905 38.3465 108.523 40.0503 109.694 41.3474C110.291 42.0373 111.028 42.5928 111.855 42.9773C112.683 43.3618 113.582 43.5664 114.495 43.5778C115.403 43.6123 116.309 43.4574 117.155 43.1229C118.001 42.7885 118.768 42.2819 119.408 41.6352L121.615 43.9168C120.23 45.2847 118.471 46.2126 116.56 46.5837C114.649 46.9549 112.671 46.7528 110.874 46.0028C109.078 45.2528 107.543 43.9884 106.463 42.3686C105.383 40.7487 104.806 38.8458 104.804 36.8989C104.803 34.952 105.377 33.0482 106.454 31.4267C107.532 29.8052 109.065 28.5384 110.86 27.7856C112.655 27.0328 114.633 26.8276 116.545 27.1958C118.457 27.5639 120.217 28.4891 121.604 29.8548H121.607Z" fill="white"/>
<path d="M157.168 46.351H154.27V44.4932L154.214 44.4647C154.152 44.5377 154.09 44.6057 154.027 44.6795C153.449 45.3978 152.704 45.9631 151.856 46.3255C151.008 46.688 150.084 46.8365 149.166 46.7579C148.392 46.7086 147.637 46.4964 146.951 46.1353C146.265 45.7743 145.663 45.2724 145.184 44.6627C144.304 43.6325 143.731 42.3759 143.53 41.0359C143.329 39.696 143.509 38.3266 144.049 37.0837C144.344 36.2605 144.814 35.5108 145.426 34.886C146.039 34.2612 146.778 33.776 147.596 33.4638C148.676 33.0478 149.858 32.9737 150.981 33.2515C152.105 33.5293 153.117 34.1456 153.879 35.017C153.992 35.1412 154.104 35.2654 154.263 35.4458V33.5084H157.177V46.351H157.168ZM150.289 43.8547C151.064 43.8634 151.824 43.6427 152.474 43.2203C153.123 42.7978 153.633 42.1925 153.94 41.4807C154.246 40.7689 154.334 39.9824 154.194 39.2203C154.054 38.4581 153.692 37.7545 153.153 37.198C152.613 36.6415 151.922 36.2571 151.164 36.0931C150.407 35.9291 149.618 35.993 148.897 36.2766C148.176 36.5603 147.555 37.051 147.112 37.6869C146.669 38.3229 146.425 39.0757 146.409 39.8504C146.4 40.3684 146.493 40.8832 146.683 41.3651C146.873 41.8471 147.157 42.2867 147.517 42.6588C147.878 43.0309 148.308 43.3281 148.784 43.5333C149.26 43.7385 149.771 43.8477 150.289 43.8547Z" fill="white"/>
<path d="M142.006 41.1721H132.203C132.265 41.3131 132.299 41.4264 132.355 41.5279C132.675 42.124 133.13 42.6365 133.685 43.024C134.239 43.4114 134.877 43.663 135.546 43.7583C136.34 43.9256 137.163 43.8968 137.944 43.6744C138.724 43.452 139.438 43.0427 140.025 42.482L142.046 44.589C141.455 45.1726 140.767 45.6503 140.013 46.0012C138.562 46.6951 136.935 46.9374 135.344 46.6967C133.754 46.456 132.272 45.7434 131.091 44.6511C130.209 43.8516 129.569 42.8206 129.245 41.6754C128.921 40.5303 128.924 39.3171 129.256 38.1739C129.549 36.8343 130.261 35.6229 131.289 34.7154C132.318 33.8079 133.608 33.2516 134.974 33.127C136.34 33.0025 137.709 33.3162 138.885 34.0226C140.06 34.7291 140.98 35.7916 141.511 37.0561C142.076 38.3498 142.248 39.7812 142.006 41.1721ZM138.957 38.6648C138.752 37.8961 138.298 37.2173 137.665 36.7356C137.032 36.2539 136.256 35.9968 135.461 36.0048C133.919 36.0779 132.276 37.4112 132.191 38.6648H138.957Z" fill="white"/>
<path d="M188.133 41.1646C189.109 43.9035 193.424 44.8905 195.926 42.4797C196.592 43.1744 197.259 43.8743 197.948 44.5866C197.453 45.0779 196.886 45.4911 196.267 45.8118C194.74 46.6318 192.989 46.9378 191.274 46.6845C189.559 46.4312 187.971 45.632 186.746 44.4054C185.961 43.5574 185.406 42.523 185.133 41.4004C184.861 40.2778 184.879 39.1042 185.186 37.9906C185.494 36.877 186.081 35.8605 186.891 35.0372C187.702 34.2139 188.709 33.6112 189.818 33.2862C191.322 32.898 192.916 33.063 194.309 33.7513C195.702 34.4396 196.802 35.6053 197.408 37.0362C197.962 38.2934 198.14 39.6843 197.919 41.0404C197.913 41.074 197.902 41.1084 197.891 41.1646H188.133ZM188.081 38.6573H194.864C194.676 37.8996 194.241 37.2265 193.626 36.7454C193.011 36.2643 192.253 36.0029 191.473 36.0029C190.692 36.0029 189.934 36.2643 189.319 36.7454C188.705 37.2265 188.269 37.8996 188.081 38.6573Z" fill="white"/>
<path d="M185.887 33.4901C183.611 37.9466 181.358 42.3395 179.087 46.7864C176.817 42.3475 174.563 37.9429 172.288 33.4901H172.945C173.697 33.4901 174.453 33.5011 175.204 33.4843C175.317 33.4677 175.432 33.4907 175.53 33.5494C175.627 33.6082 175.702 33.699 175.74 33.8064C176.791 35.879 177.859 37.9407 178.92 40.0017C178.965 40.0922 179.015 40.177 179.083 40.3012C179.145 40.1828 179.197 40.0981 179.242 40.009L182.461 33.7407C182.491 33.6592 182.547 33.59 182.621 33.5439C182.694 33.4979 182.781 33.4777 182.868 33.4864C183.86 33.4974 184.842 33.4901 185.887 33.4901Z" fill="white"/>
<path d="M164.142 46.3503H161.22V36.4284H158.444V33.4974H161.22V32.0852C161.22 31.6469 161.214 31.1983 161.226 30.7578C161.226 30.7102 161.236 30.6632 161.257 30.6202C161.277 30.5772 161.307 30.5394 161.344 30.5094C162.254 30.0403 163.171 29.583 164.128 29.0979V33.4857H167.19V36.408H164.137L164.142 46.3503Z" fill="white"/>
<path d="M129.259 36.0727C128.846 35.9801 128.419 35.973 128.003 36.0516C127.587 36.1303 127.192 36.2931 126.842 36.53C126.406 36.823 126.053 37.223 125.816 37.6918C125.58 38.1606 125.468 38.6823 125.491 39.2068V46.3452H122.595V33.5091H125.475V34.819L125.537 34.8643C125.998 34.3262 126.562 33.8865 127.197 33.5712C127.836 33.2495 128.543 33.0849 129.259 33.0912V36.0727Z" fill="white"/>
<path d="M168.452 33.5083H171.332V46.3444H168.452V33.5083Z" fill="white"/>
<path d="M171.626 28.9687C171.624 29.3117 171.52 29.6464 171.328 29.9304C171.135 30.2144 170.863 30.4348 170.545 30.5637C170.227 30.6925 169.878 30.724 169.542 30.6542C169.206 30.5843 168.899 30.4162 168.659 30.1713C168.419 29.9263 168.257 29.6155 168.194 29.2784C168.131 28.9412 168.169 28.5929 168.304 28.2777C168.439 27.9624 168.665 27.6945 168.953 27.5078C169.241 27.3211 169.577 27.2241 169.92 27.2292H169.926C170.382 27.2359 170.816 27.4226 171.134 27.7485C171.453 28.0744 171.629 28.5131 171.626 28.9687Z" fill="white"/>
<path d="M214.702 42.9283C214.274 43.5428 213.806 44.1285 213.301 44.6817C212.64 45.3497 211.838 45.861 210.953 46.1779C210.069 46.4948 209.124 46.6092 208.189 46.5128C207.255 46.4163 206.354 46.1114 205.552 45.6205C204.751 45.1297 204.07 44.4653 203.56 43.6764C202.674 42.364 202.252 40.7934 202.36 39.2138C202.469 37.6342 203.102 36.1361 204.159 34.9571C204.843 34.1928 205.702 33.6061 206.663 33.2472C207.624 32.8884 208.658 32.7683 209.676 32.8971C210.693 33.0259 211.664 33.3999 212.506 33.9869C213.347 34.5739 214.033 35.3563 214.505 36.267C214.548 36.3577 214.61 36.4385 214.685 36.5044V33.2739H216.041V46.1078H214.708V42.9283H214.702ZM209.195 45.1814C210.281 45.1808 211.343 44.8582 212.246 44.2543C213.149 43.6504 213.852 42.7924 214.267 41.7888C214.682 40.7851 214.79 39.6809 214.578 38.6157C214.366 37.5506 213.842 36.5724 213.074 35.8047C212.305 35.0371 211.327 34.5145 210.261 34.3031C209.196 34.0917 208.092 34.2009 207.089 34.617C206.085 35.033 205.228 35.7373 204.625 36.6406C204.022 37.5439 203.7 38.6058 203.701 39.6919C203.701 40.4132 203.843 41.1273 204.12 41.7935C204.396 42.4597 204.801 43.065 205.311 43.5747C205.821 44.0845 206.427 44.4888 207.093 44.7644C207.76 45.0401 208.474 45.1818 209.195 45.1814Z" fill="white"/>
<path d="M219.986 46.1346H218.84C218.783 46.1346 218.732 46.1288 218.659 46.1229V33.2766H219.98V46.1346H219.986Z" fill="white"/>
<path d="M200.927 46.5423C200.614 46.5348 200.316 46.4076 200.095 46.187C199.873 45.9664 199.744 45.6692 199.735 45.3566C199.736 45.1998 199.768 45.0446 199.828 44.8999C199.889 44.7553 199.978 44.6241 200.089 44.5137C200.201 44.4033 200.333 44.316 200.478 44.2567C200.623 44.1974 200.779 44.1672 200.936 44.168C201.093 44.1688 201.248 44.2004 201.392 44.2611C201.537 44.3219 201.668 44.4105 201.779 44.522C201.889 44.6334 201.976 44.7656 202.036 44.9108C202.095 45.056 202.125 45.2114 202.124 45.3683C202.115 45.6809 201.986 45.9779 201.762 46.1968C201.539 46.4158 201.24 46.5396 200.927 46.5423Z" fill="white"/>
<path d="M219.336 28.1152C219.571 28.1167 219.799 28.1875 219.993 28.3187C220.187 28.4499 220.338 28.6356 220.426 28.8524C220.514 29.0691 220.536 29.3072 220.489 29.5366C220.443 29.7659 220.329 29.9763 220.162 30.141C219.996 30.3057 219.785 30.4174 219.555 30.462C219.325 30.5066 219.087 30.4821 218.871 30.3916C218.655 30.3011 218.471 30.1486 218.342 29.9535C218.213 29.7583 218.144 29.5292 218.145 29.2951C218.148 28.9809 218.274 28.6805 218.497 28.4595C218.721 28.2384 219.022 28.1146 219.336 28.1152Z" fill="white"/>
</g>
<defs>
<clipPath id="clip0_9937_15155">
<rect width="235" height="72" fill="white"/>
</clipPath>
</defs>
</svg>
