<svg width="256" height="78" viewBox="0 0 256 78" fill="none" xmlns="http://www.w3.org/2000/svg">
<path fill-rule="evenodd" clip-rule="evenodd" d="M43.2823 62.6347C56.7284 62.6347 67.6301 51.7339 67.6301 38.2869C67.6301 24.8391 56.7292 13.9391 43.2823 13.9391C29.8344 13.9391 18.9344 24.8391 18.9344 38.2869C18.9344 51.733 29.8344 62.6347 43.2823 62.6347ZM43.2823 64.3739C57.6892 64.3739 69.3692 52.6939 69.3692 38.2869C69.3692 23.8782 57.6892 12.2 43.2823 12.2C28.8744 12.2 17.1953 23.8782 17.1953 38.2869C17.1953 52.6939 28.8744 64.3739 43.2823 64.3739Z" fill="white"/>
<path fill-rule="evenodd" clip-rule="evenodd" d="M37.6856 23.5039H49.749L58.3751 51.33H45.776L43.7177 44.8317L41.6586 51.33H29.0586L37.6847 23.5039H37.6856ZM44.5473 41.6952L47.0499 49.5909H56.0151L48.4673 25.243H39.5021L44.5473 41.6952ZM38.3212 27.3239L42.8064 41.9491L40.3847 49.5909H31.4195L38.3212 27.3239Z" fill="white"/>
<path d="M81.623 46.9821H83.5952L85.6161 42.4778H94.8926L96.8891 46.9821H98.9587L91.1917 29.8169H89.39L81.623 46.9821ZM86.3709 40.7491L90.2665 32.0569L94.1378 40.7491H86.3709ZM108.407 46.9821H110.33V42.4047L113.958 38.7274L120.507 46.9821H122.918L115.297 37.3891L122.601 29.9378H120.118L110.33 40.1152V29.9387H108.407V46.9821ZM132.164 46.9821H134.087V29.9387H132.164V46.9821ZM145.166 46.9821H147.089V39.5561H156.317V37.8021H147.089V31.7152H157.413V29.9387H145.166V46.9821ZM167.231 46.9821H178.747V45.2047H169.154V29.9387H167.231V46.9821ZM195.331 47.2743C200.517 47.2743 204.047 43.1587 204.047 38.4595V38.4117C204.047 33.7126 200.566 29.6465 195.38 29.6465C190.193 29.6465 186.663 33.7613 186.663 38.4604V38.5082C186.663 43.2074 190.145 47.2734 195.331 47.2734V47.2743ZM195.38 45.4969C191.484 45.4969 188.66 42.3317 188.66 38.4604V38.4117C188.66 34.5404 191.435 31.423 195.331 31.423C199.227 31.423 202.051 34.5882 202.051 38.4604V38.5082C202.051 42.3804 199.275 45.4969 195.38 45.4969ZM218.083 47.1039H219.69L224.389 33.2743L229.064 47.1039H230.695L236.782 29.9387H234.761L229.892 44.1326L225.217 29.8891H223.634L218.96 44.1326L214.09 29.9378H211.996L218.083 47.103V47.1039Z" fill="white"/>
</svg>
