<svg width="256" height="78" viewBox="0 0 256 78" fill="none" xmlns="http://www.w3.org/2000/svg">
<g filter="url(#filter0_i_10140_42656)">
<path fill-rule="evenodd" clip-rule="evenodd" d="M87.4429 24.7107C87.4429 29.4143 85.7073 33.7126 82.8415 37C85.7073 40.2874 87.4429 44.5857 87.4429 49.2893C87.4429 59.6229 79.0658 68 68.7321 68C63.9222 68 59.5361 66.185 56.2214 63.2025C52.9068 66.185 48.5207 68 43.7107 68C33.3771 68 25 59.6229 25 49.2893C25 44.5857 26.7356 40.2874 29.6013 37C26.7356 33.7126 25 29.4143 25 24.7107C25 14.3771 33.3771 6 43.7107 6C48.5207 6 52.9068 7.815 56.2214 10.7975C59.5361 7.815 63.9222 6 68.7321 6C79.0658 6 87.4429 14.3771 87.4429 24.7107ZM56.2214 22.8286C53.1641 22.8286 50.6857 25.307 50.6857 28.3643V45.6357C50.6857 48.693 53.1641 51.1714 56.2214 51.1714C59.2787 51.1714 61.7571 48.693 61.7571 45.6357V28.3643C61.7571 25.307 59.2787 22.8286 56.2214 22.8286Z" fill="white"/>
</g>
<path d="M163.926 33.4368C166.836 33.4368 168.375 35.4008 168.375 39.12V53.6346C168.375 54.1309 168.773 54.5313 169.266 54.5313H173.228C173.721 54.5313 174.119 54.1309 174.119 53.6346V37.3706C174.119 34.6229 173.299 32.2814 171.743 30.6106C170.18 28.9282 167.99 28.041 165.405 28.041C162.293 28.041 159.679 29.2214 157.409 31.6529L157.326 31.743L157.261 31.6414C155.759 29.2884 153.406 28.041 150.467 28.041C147.562 28.041 145.192 29.1371 143.416 31.2984L143.249 31.5035V29.4379C143.249 28.9397 142.85 28.5392 142.358 28.5392H138.395C137.903 28.5392 137.504 28.9397 137.504 29.4379V53.6288C137.504 54.1251 137.903 54.5256 138.395 54.5256H142.358C142.85 54.5256 143.249 54.1251 143.249 53.6288V39.2637C143.249 37.0353 144.151 35.6768 144.906 34.9218C145.864 33.9733 147.15 33.4387 148.493 33.4311C151.404 33.4311 152.942 35.3951 152.942 39.1143V53.6288C152.942 54.1251 153.341 54.5256 153.833 54.5256H157.796C158.288 54.5256 158.687 54.1251 158.687 53.6288V39.2637C158.687 37.0353 159.589 35.6768 160.344 34.9218C161.295 33.981 162.602 33.4368 163.926 33.4368ZM218.598 40.8618C218.598 37.2633 217.558 34.0366 215.674 31.7717C213.643 29.3287 210.698 28.041 207.163 28.041C203.723 28.041 200.592 29.4245 198.343 31.9403C196.114 34.4255 194.89 37.8439 194.89 41.5631C194.89 49.5207 200.041 55.0832 207.412 55.0832C212.124 55.0832 216.008 52.7589 218.004 48.8194C218.253 48.3231 218.039 47.7598 217.521 47.5624L214.333 46.3476C213.892 46.179 213.405 46.3878 213.21 46.819C212.217 48.9516 210.115 50.1913 207.418 50.1913C203.534 50.1913 200.843 47.3881 200.397 42.8737L200.385 42.7664H217.713C218.205 42.7664 218.604 42.364 218.604 41.8677V40.8618H218.598ZM200.659 38.4666L200.688 38.3478C201.562 34.8797 203.902 32.8869 207.115 32.8869C210.512 32.8869 212.746 35.0368 212.8 38.3651V38.4609H200.659V38.4666ZM132.931 53.3165L120.219 19.4971C120.089 19.1503 119.757 18.9165 119.387 18.9165H113.58C113.21 18.9165 112.878 19.1503 112.748 19.4971L100.037 53.3165C99.8162 53.9028 100.244 54.5313 100.868 54.5313H105.038C105.411 54.5313 105.745 54.2995 105.875 53.945L108.149 47.7962H124.68L126.991 53.9508C127.123 54.2995 127.454 54.5313 127.822 54.5313H132.093C132.386 54.5332 132.662 54.3895 132.829 54.1462C132.998 53.9028 133.034 53.5924 132.931 53.3165ZM110.146 42.4062L116.358 25.6287L122.66 42.4062H110.146ZM178.116 29.4436V33.0229C178.116 33.5211 178.515 33.9216 179.007 33.9216H183.403V53.6346C183.403 54.1309 183.801 54.5332 184.294 54.5332H188.256C188.749 54.5332 189.147 54.1309 189.147 53.6346V29.4436C189.147 28.9454 188.749 28.545 188.256 28.545H179.002C178.515 28.545 178.116 28.9454 178.116 29.4436ZM183.307 19.8152V23.9578C183.307 24.456 183.706 24.8565 184.198 24.8565H188.364C188.856 24.8565 189.255 24.456 189.255 23.9578V19.8152C189.255 19.317 188.856 18.9165 188.364 18.9165H184.198C183.706 18.9165 183.307 19.3227 183.307 19.8152Z" fill="white"/>
<defs>
<filter id="filter0_i_10140_42656" x="25" y="2" width="62.4429" height="66" filterUnits="userSpaceOnUse" color-interpolation-filters="sRGB">
<feFlood flood-opacity="0" result="BackgroundImageFix"/>
<feBlend mode="normal" in="SourceGraphic" in2="BackgroundImageFix" result="shape"/>
<feColorMatrix in="SourceAlpha" type="matrix" values="0 0 0 0 0 0 0 0 0 0 0 0 0 0 0 0 0 0 127 0" result="hardAlpha"/>
<feOffset dy="-4"/>
<feGaussianBlur stdDeviation="11.5"/>
<feComposite in2="hardAlpha" operator="arithmetic" k2="-1" k3="1"/>
<feColorMatrix type="matrix" values="0 0 0 0 0 0 0 0 0 0 0 0 0 0 0 0 0 0 0.19 0"/>
<feBlend mode="normal" in2="shape" result="effect1_innerShadow_10140_42656"/>
</filter>
</defs>
</svg>
