<svg width="256" height="78" viewBox="0 0 256 78" fill="none" xmlns="http://www.w3.org/2000/svg">
<g clip-path="url(#clip0_8311_31799)">
<mask id="mask0_8311_31799" style="mask-type:luminance" maskUnits="userSpaceOnUse" x="18" y="13" width="220" height="53">
<path d="M238 13H18V66H238V13Z" fill="white"/>
</mask>
<g mask="url(#mask0_8311_31799)">
<path d="M45.9036 13.9727L62.6078 23.5325C64.9388 24.8665 66.3802 27.3685 66.3802 30.0805V48.9195C66.3802 51.6315 64.9388 54.1335 62.6078 55.4675L45.9036 65.0273C43.6374 66.3242 40.8665 66.3242 38.6001 65.0273L21.896 55.4675C19.5651 54.1335 18.1237 51.6315 18.1237 48.9195V30.0805C18.1237 27.3685 19.5651 24.8665 21.896 23.5325L38.6001 13.9727C40.8665 12.6758 43.6374 12.6758 45.9036 13.9727ZM20.9077 30.1568V48.9195C20.9077 50.6031 21.8042 52.1592 23.2585 52.9915L39.7254 62.4154C39.9387 62.4997 40.1659 62.5433 40.396 62.5433C41.421 62.5433 42.252 61.6959 42.252 60.6505V45.4851C42.252 43.0135 40.903 40.7474 38.7529 39.6072L37.5272 38.9573C37.238 38.8317 36.9526 38.6942 36.6716 38.5446L20.9077 30.1568ZM38.1776 36.8664C41.1364 38.4407 43.3755 38.4407 46.3343 36.8664L62.3263 27.7103C61.9326 26.7907 61.2496 26.006 60.356 25.4946L44.5413 16.4488C43.1214 15.6361 41.3825 15.6361 39.9626 16.4488L24.1779 25.4946C23.2843 26.006 22.6014 26.7907 22.2075 27.7103L38.1776 36.8664ZM42.252 19.625C45.7319 19.625 48.5729 21.3693 48.7402 23.561L48.748 27.3147C48.748 29.6015 45.8397 31.4553 42.252 31.4553C38.6642 31.4553 35.7559 29.6015 35.7559 27.3147V23.561C35.931 21.3693 38.772 19.625 42.252 19.625ZM42.2526 26.25C45.2663 26.25 47.7093 25.0042 47.7093 23.4675C47.7093 21.9308 45.2663 20.685 42.2526 20.685C39.239 20.685 36.796 21.9308 36.796 23.4675C36.796 25.0042 39.239 26.25 42.2526 26.25Z" fill="white"/>
<path fill-rule="evenodd" clip-rule="evenodd" d="M91.9704 40.9227C91.9704 43.0455 92.5057 44.7514 93.5762 46.0402C94.6466 47.3292 96.0591 47.9735 97.8135 47.9735C99.5084 47.9735 100.891 47.3216 101.962 46.0176C103.032 44.7134 103.567 43.0001 103.567 40.8773C103.567 38.7847 103.047 37.1168 102.006 35.8734C100.966 34.63 99.5829 34.0083 97.8581 34.0083C96.1334 34.0083 94.7211 34.6376 93.6207 35.8962C92.5205 37.1547 91.9704 38.8302 91.9704 40.9227ZM108.563 19.1334V52.0675H105.64C104.866 52.0675 104.157 51.6246 103.806 50.9213C103.617 50.5441 103.523 50.1774 103.523 49.821C102.922 50.521 102.445 51.1088 101.315 51.7456C100.185 52.3825 98.6908 52.6134 97.2337 52.6134C94.1411 52.6134 91.6284 51.5066 89.6955 49.2928C87.7628 47.0788 86.7964 44.2889 86.7964 40.9227C86.7964 37.6779 87.7703 34.9333 89.7179 32.6891C91.6657 30.445 94.1411 29.323 97.1445 29.323C98.8692 29.323 100.259 29.6414 101.315 30.2782C102.37 30.9151 103.107 31.6581 103.523 32.5072V19.1334H108.563ZM127.026 29.6414V35.0091H126.36C122.465 35.0091 120.517 37.1774 120.517 41.514V52.0675H115.343V29.9143H118.698C119.294 29.9143 119.821 30.3057 120.004 30.8833L120.517 32.5003C120.764 31.9754 121.45 30.8101 122.651 30.2257C123.852 29.6414 125.245 29.6414 126.672 29.6414H127.026ZM129.925 46.063C129.925 44.1827 130.527 42.674 131.731 41.5368C132.936 40.3996 134.519 39.6793 136.482 39.3761L142.057 38.5117C143.128 38.3601 143.663 37.8294 143.663 36.9196C143.663 35.919 143.321 35.1077 142.637 34.486C141.953 33.8643 140.927 33.5534 139.559 33.5534C138.251 33.5534 137.21 33.9249 136.437 34.668C135.664 35.4109 135.218 36.3737 135.099 37.5565L130.436 37.5111C130.644 35.5094 131.516 32.7573 133.181 31.3472C134.846 29.937 136.957 29.232 139.515 29.232C142.667 29.232 144.993 30.0053 146.495 31.5519C147.997 33.0985 148.748 35.0849 148.748 37.5111V48.5194C148.748 49.9751 148.837 51.1577 149.015 52.0675H146.233C145.939 52.0675 145.647 52.0124 145.373 51.9052C144.45 51.5442 143.989 50.9568 143.989 50.1431C142.96 51.8926 140.318 52.7498 137.284 52.7498C135.084 52.7498 133.307 52.0903 131.954 50.7711C130.601 49.452 129.925 47.8825 129.925 46.063ZM138.266 48.6103C139.872 48.6103 141.173 48.163 142.169 47.2684C143.165 46.3737 143.663 44.9106 143.663 42.8787V41.8779L137.998 42.7424C136.065 43.0759 135.099 44.0765 135.099 45.7446C135.099 46.5331 135.381 47.2078 135.946 47.7689C136.511 48.3298 137.284 48.6103 138.266 48.6103ZM164.627 24.3366C163.764 24.3366 163.014 24.5868 162.374 25.0872C161.735 25.5876 161.415 26.4594 161.415 27.7028V29.9143H166.455V34.5088H161.415V52.0675H156.197V34.5088H152.405V29.9143H153.894C155.166 29.9143 156.197 28.8631 156.197 27.5664C156.197 25.1099 156.895 23.1691 158.293 21.7437C159.691 20.3184 161.519 19.6058 163.779 19.6058H166.455V24.3366H164.627ZM178.629 23.2274V30.0053H183.134V34.6906H178.629V44.9712C178.629 45.9416 178.852 46.6467 179.298 47.0864C179.744 47.5261 180.443 47.7461 181.394 47.7461H182.105V52.4315H180.012C177.99 52.4315 176.399 51.8478 175.239 50.6802C174.079 49.5126 173.499 47.8977 173.499 45.8356V34.6906H169.485V30.0053H170.6C171.7 30.0053 172.533 29.6869 173.098 29.05C173.663 28.4132 173.945 27.5792 173.945 26.5481V23.2274H178.629ZM187.327 19.0284H192.366V32.5842C192.784 31.735 193.648 31.0375 194.703 30.4007C195.76 29.7638 197.439 29.3509 199.164 29.3509C202.168 29.3509 204.567 30.34 206.516 32.5842C208.463 34.8284 209.114 37.6533 209.114 40.8981C209.114 44.2645 208.47 46.9739 206.536 49.1877C204.605 51.4015 201.913 52.6205 198.821 52.6205C197.364 52.6205 196.048 52.2776 194.918 51.6407C193.789 51.0038 192.968 50.4159 192.366 49.7161C192.366 50.0724 192.273 50.4392 192.084 50.8164C191.732 51.5197 191.024 51.9626 190.25 51.9626H187.327V19.0284ZM202.303 46.063C203.403 44.7892 203.954 43.0759 203.954 40.9227C203.954 38.7695 203.418 37.079 202.348 35.8506C201.277 34.6224 199.865 34.0083 198.111 34.0083C196.415 34.0083 195.019 34.6224 193.919 35.8506C192.817 37.079 192.268 38.7695 192.268 40.9227C192.268 43.0455 192.817 44.7438 193.919 46.0176C195.019 47.2912 196.415 47.9281 198.111 47.9281C199.836 47.9281 201.232 47.3064 202.303 46.063ZM214.167 35.1245H212.03V29.8758H217.176V29.9143H219.298V52.0675H214.167V35.1245ZM214.346 24.5466C213.693 23.8794 213.365 23.0758 213.365 22.1357C213.365 21.1955 213.693 20.3843 214.346 19.702C215 19.0196 215.789 18.6785 216.71 18.6785C217.661 18.6785 218.465 19.012 219.12 19.6792C219.773 20.3464 220.1 21.1652 220.1 22.1357C220.1 23.0758 219.773 23.8794 219.12 24.5466C218.465 25.2138 217.661 25.5473 216.71 25.5473C215.789 25.5473 215 25.2138 214.346 24.5466ZM232.545 23.1364V29.9143H237.049V34.5996H232.545V44.8802C232.545 45.8506 232.768 46.5557 233.214 46.9954C233.661 47.4353 234.359 47.6551 235.31 47.6551H236.02V52.3405H233.927C231.906 52.3405 230.314 51.7568 229.155 50.5892C227.994 49.4216 227.416 47.8067 227.416 45.7446V34.5996H223.4V29.9143H224.516C225.616 29.9143 226.449 29.5959 227.014 28.959C227.579 28.3222 227.861 27.4882 227.861 26.4571V23.1364H232.545Z" fill="white"/>
</g>
</g>
<defs>
<clipPath id="clip0_8311_31799">
<rect width="220" height="53" fill="white" transform="translate(18 13)"/>
</clipPath>
</defs>
</svg>
