<svg width="256" height="78" viewBox="0 0 256 78" fill="none" xmlns="http://www.w3.org/2000/svg">
<path fill-rule="evenodd" clip-rule="evenodd" d="M45.6895 15C38.8445 19.8373 30.7516 22.992 22 23.8523C22.9854 40.7732 32.1769 55.4571 45.5951 63.8889C59.017 55.4571 68.2104 40.7542 69.1902 23.8333C60.5103 22.9347 52.4854 19.799 45.6895 15ZM39.0842 41.246L45.8479 51.5658C45.8479 51.5658 47.4902 49.0595 49.1588 46.5164C49.8635 45.4291 49.8797 44.1023 49.1993 43.0151C48.5209 41.9278 47.2492 41.246 45.8742 41.246H39.0842ZM52.6966 37.3391C54.2417 37.3391 55.6835 36.5653 56.5401 35.2569C57.1841 34.2802 57.9414 33.1192 58.5287 32.2162C58.7251 31.9214 58.7434 31.5528 58.5753 31.2211C58.4092 30.9078 58.0852 30.7236 57.7329 30.7236H33.8231C33.4991 30.7236 33.1994 30.9079 33.0455 31.1843C32.8916 31.4792 32.9078 31.8293 33.088 32.1058C34.3618 34.0591 36.5225 37.3391 36.5225 37.3391H52.6966Z" fill="white"/>
<path d="M90.5759 35.2153L92.1534 30.8475C92.1534 30.8475 85.0919 30.8475 81.0383 30.8475C80.3021 30.8475 79.5953 31.1438 79.0746 31.6712C78.5539 32.1986 78.2614 32.9145 78.2614 33.6602C78.2614 39.138 78.2614 50.7045 78.2614 50.7045C78.2614 50.7045 78.7918 50.7045 79.4889 50.7045C80.3525 50.7045 81.1797 50.3572 81.79 49.7391C82.3989 49.121 82.7418 48.2832 82.7418 47.4099C82.7418 45.8959 82.7418 44.3024 82.7418 43.6815C82.7418 43.6106 82.7698 43.5426 82.8202 43.4916C82.8692 43.4419 82.9363 43.4136 83.0063 43.4136C83.793 43.4136 86.0591 43.4136 86.0591 43.4136L88.7087 39.0444C88.7087 39.0444 84.1625 39.0444 83.0063 39.0444C82.8608 39.0444 82.7418 38.9253 82.7418 38.7765C82.7418 38.0747 82.7418 36.1864 82.7418 35.4833C82.7418 35.3358 82.8608 35.2153 83.0063 35.2153C84.3752 35.2153 90.5759 35.2153 90.5759 35.2153Z" fill="white"/>
<path d="M100.981 36.5427V44.2859C100.981 46.3004 99.917 47.2077 98.3759 47.2077C97.0322 47.2077 95.939 46.3855 95.939 44.6262V36.8107C95.939 36.7398 95.911 36.6717 95.862 36.6207C95.8116 36.5711 95.7445 36.5427 95.6745 36.5427C94.7521 36.5427 91.7385 36.5427 91.7385 36.5427V45.2514C91.7385 49.0804 94.1474 51.1232 96.9762 51.1232C98.8238 51.1232 100.225 50.4414 100.981 49.3923C100.981 49.3923 100.981 50.0685 100.981 50.457C100.981 50.5278 101.009 50.5973 101.059 50.6469C101.108 50.6979 101.175 50.7263 101.245 50.7263C102.001 50.7263 104.161 50.7263 104.917 50.7263C104.988 50.7263 105.055 50.6979 105.104 50.6469C105.155 50.5973 105.183 50.5278 105.183 50.457C105.183 48.6778 105.183 38.5898 105.183 36.8107C105.183 36.7398 105.155 36.6717 105.104 36.6207C105.055 36.5711 104.988 36.5427 104.917 36.5427C103.994 36.5427 100.981 36.5427 100.981 36.5427Z" fill="white"/>
<path d="M115.989 36.1713C114.14 36.1713 112.741 36.8518 111.985 37.9008C111.985 37.9008 111.985 37.226 111.985 36.8362C111.985 36.7653 111.955 36.6972 111.906 36.6462C111.857 36.5966 111.789 36.5682 111.719 36.5682C110.796 36.5682 107.783 36.5682 107.783 36.5682C107.783 36.5682 107.783 48.5289 107.783 50.4824C107.783 50.5533 107.811 50.6228 107.86 50.6724C107.91 50.7234 107.977 50.7518 108.047 50.7518C108.803 50.7518 110.963 50.7518 111.719 50.7518C111.789 50.7518 111.857 50.7234 111.906 50.6724C111.955 50.6228 111.985 50.5533 111.985 50.4824V43.0072C111.985 40.9927 113.049 40.0854 114.588 40.0854C115.933 40.0854 117.025 40.9076 117.025 42.6669V50.4824C117.025 50.5533 117.053 50.6228 117.103 50.6724C117.152 50.7234 117.22 50.7518 117.29 50.7518C118.045 50.7518 120.207 50.7518 120.961 50.7518C121.108 50.7518 121.227 50.6313 121.227 50.4824V42.0432C121.227 38.2127 118.818 36.1713 115.989 36.1713Z" fill="white"/>
<path d="M131.85 36.1713C130.001 36.1713 128.601 36.8518 127.844 37.9008C127.844 37.9008 127.844 37.226 127.844 36.8362C127.844 36.7653 127.817 36.6972 127.767 36.6462C127.718 36.5966 127.649 36.5682 127.579 36.5682C126.657 36.5682 123.643 36.5682 123.643 36.5682C123.643 36.5682 123.643 48.5289 123.643 50.4824C123.643 50.5533 123.671 50.6228 123.72 50.6724C123.771 50.7234 123.838 50.7518 123.908 50.7518C124.664 50.7518 126.824 50.7518 127.579 50.7518C127.649 50.7518 127.718 50.7234 127.767 50.6724C127.817 50.6228 127.844 50.5533 127.844 50.4824V43.0072C127.844 40.9927 128.909 40.0854 130.449 40.0854C131.794 40.0854 132.886 40.9076 132.886 42.6669V50.4824C132.886 50.5533 132.914 50.6228 132.964 50.6724C133.013 50.7234 133.08 50.7518 133.152 50.7518C133.906 50.7518 136.067 50.7518 136.822 50.7518C136.969 50.7518 137.088 50.6313 137.088 50.4824V42.0432C137.088 38.2127 134.679 36.1713 131.85 36.1713Z" fill="white"/>
<path d="M144.048 45.3619C144.048 45.3619 152.316 45.3619 153.773 45.3619C153.901 45.3619 154.011 45.2697 154.034 45.1421C154.118 44.6686 154.16 44.1753 154.16 43.6593C154.16 39.3766 151.135 36.1713 147.045 36.1713C142.621 36.1713 139.596 39.4333 139.596 43.6593C139.596 47.8867 142.565 51.1487 147.354 51.1487C149.899 51.1487 151.906 50.24 153.277 48.4722C153.324 48.4098 153.342 48.3318 153.327 48.2567C153.313 48.1801 153.265 48.115 153.2 48.0767C152.545 47.6939 150.829 46.6945 150.274 46.3712C150.171 46.3117 150.04 46.3287 149.957 46.4138C149.381 46.9624 148.467 47.3466 147.41 47.3466C145.869 47.3466 144.582 46.8362 144.048 45.3619ZM143.964 42.1849C144.356 40.7375 145.421 39.9436 147.017 39.9436C148.278 39.9436 149.538 40.5391 149.986 42.1849H143.964Z" fill="white"/>
<path d="M156.343 46.5078C156.343 48.8171 158.192 50.6898 160.472 50.6898C160.513 50.6898 160.545 50.6572 160.545 50.6161C160.545 49.3757 160.545 32.5822 160.545 30.2502C160.545 30.1779 160.516 30.1098 160.467 30.0602C160.416 30.0092 160.349 29.9808 160.279 29.9808C159.523 29.9808 157.363 29.9808 156.608 29.9808C156.538 29.9808 156.47 30.0092 156.42 30.0602C156.371 30.1098 156.343 30.1779 156.343 30.2502C156.343 31.923 156.343 41.03 156.343 46.5078Z" fill="white"/>
<path d="M183.293 39.8802C183.293 39.8103 183.266 39.7418 183.216 39.691C183.166 39.6403 183.1 39.6129 183.029 39.6129C181.54 39.6129 174.284 39.6129 174.284 39.6129L175.336 43.4535H178.852C178.175 45.2922 176.522 46.4166 174.002 46.4166C170.319 46.4166 168.043 44.0294 168.043 40.7646C168.043 37.3902 170.427 35.003 173.623 35.003C175.646 35.003 177.283 35.886 178.119 37.0488C178.196 37.1626 178.348 37.1983 178.466 37.1283C179.108 36.7581 181.018 35.6474 181.697 35.2539C181.761 35.2169 181.806 35.1552 181.823 35.0825C181.839 35.0112 181.827 34.9344 181.787 34.8727C180.15 32.4225 177.168 30.7236 173.65 30.7236C168.07 30.7236 163.708 35.1675 163.708 40.7372C163.708 46.252 167.989 50.6973 173.948 50.6973C179.258 50.6973 183.293 47.1296 183.293 41.2582V39.8802Z" fill="white"/>
<path d="M194.774 36.5428V44.0321C194.774 45.9806 193.744 46.8581 192.255 46.8581C190.954 46.8581 189.898 46.0628 189.898 44.3612V36.8102C189.898 36.7389 189.869 36.6717 189.821 36.621C189.77 36.5703 189.703 36.5428 189.632 36.5428C188.731 36.5428 185.834 36.5428 185.834 36.5428V44.9659C185.835 48.6694 188.164 50.6453 190.9 50.6453C192.688 50.6453 194.042 49.9857 194.774 48.9711C194.774 48.9711 194.774 49.6141 194.774 49.9926C194.774 50.0639 194.801 50.1324 194.851 50.1818C194.901 50.2325 194.969 50.2613 195.039 50.2613C195.775 50.2613 197.836 50.2613 198.573 50.2613C198.642 50.2613 198.71 50.2325 198.76 50.1818C198.81 50.1324 198.837 50.0639 198.837 49.9926C198.837 48.2498 198.837 38.553 198.837 36.8102C198.837 36.7389 198.81 36.6717 198.76 36.621C198.71 36.5703 198.642 36.5428 198.573 36.5428C197.67 36.5428 194.774 36.5428 194.774 36.5428Z" fill="white"/>
<path d="M211.432 36.5552C211.361 36.5552 211.293 36.5826 211.245 36.6334C211.195 36.6841 211.166 36.7513 211.166 36.8226C211.166 37.201 211.166 37.8441 211.166 37.8441C210.273 36.802 208.945 36.1713 207.13 36.1713C203.581 36.1713 200.655 39.3263 200.655 43.4138C200.655 47.5026 203.581 50.6576 207.13 50.6576C208.945 50.6576 210.273 50.0255 211.166 48.9834C211.166 48.9834 211.166 49.6265 211.166 50.0049C211.166 50.0762 211.195 50.1448 211.245 50.1941C211.293 50.2449 211.361 50.2737 211.432 50.2737C212.167 50.2737 214.23 50.2737 214.965 50.2737C215.035 50.2737 215.103 50.2449 215.152 50.1941C215.202 50.1448 215.23 50.0762 215.23 50.0049C215.23 48.2622 215.23 38.5653 215.23 36.8226C215.23 36.7513 215.202 36.6841 215.152 36.6334C215.103 36.5826 215.035 36.5552 214.965 36.5552C214.23 36.5552 212.167 36.5552 211.432 36.5552ZM207.943 46.7608C206.073 46.7608 204.719 45.4719 204.719 43.4138C204.719 41.3556 206.073 40.0668 207.943 40.0668C209.812 40.0668 211.166 41.3556 211.166 43.4138C211.166 45.4719 209.812 46.7608 207.943 46.7608Z" fill="white"/>
<path d="M222.536 39.0046C222.536 39.0046 222.536 37.4662 222.536 36.8313C222.536 36.76 222.508 36.6929 222.458 36.6421C222.409 36.5914 222.341 36.564 222.271 36.564C221.369 36.564 218.472 36.564 218.472 36.564C218.472 36.564 218.472 48.0968 218.472 50.0137C218.472 50.085 218.5 50.1535 218.549 50.2029C218.599 50.2536 218.667 50.2824 218.737 50.2824C219.472 50.2824 221.534 50.2824 222.271 50.2824C222.341 50.2824 222.409 50.2536 222.458 50.2029C222.508 50.1535 222.536 50.085 222.536 50.0137V44.0807C222.536 41.5194 224.656 40.7638 226.306 40.916C226.381 40.9243 226.455 40.8996 226.511 40.8489C226.566 40.7981 226.597 40.7255 226.597 40.65C226.599 39.7958 226.599 37.3798 226.599 36.5626C226.599 36.4899 226.569 36.42 226.518 36.3693C226.466 36.3199 226.396 36.2925 226.324 36.2952C224.701 36.3857 223.048 37.266 222.536 39.0046Z" fill="white"/>
<path d="M240.725 31.0951C239.184 31.0951 237.936 32.3593 237.936 33.9183C237.936 35.7776 237.936 37.8714 237.936 37.8714C237.042 36.8293 235.716 36.1986 233.9 36.1986C230.352 36.1986 227.426 39.3536 227.426 43.441C227.426 47.5298 230.352 50.6849 233.9 50.6849C235.716 50.6849 237.042 50.0528 237.936 49.0107C237.936 49.0107 237.936 49.6538 237.936 50.0322C237.936 50.1035 237.964 50.1721 238.014 50.2214C238.063 50.2722 238.131 50.301 238.201 50.301C238.938 50.301 240.999 50.301 241.735 50.301C241.805 50.301 241.873 50.2722 241.921 50.2214C241.971 50.1721 242 50.1035 242 50.0322C242 47.8836 242 33.5111 242 31.3625C242 31.2912 241.971 31.224 241.921 31.1733C241.873 31.1225 241.805 31.0951 241.735 31.0951C241.503 31.0951 241.138 31.0951 240.725 31.0951ZM234.712 46.7881C232.844 46.7881 231.489 45.4991 231.489 43.441C231.489 41.3829 232.844 40.094 234.712 40.094C236.582 40.094 237.936 41.3829 237.936 43.441C237.936 45.4991 236.582 46.7881 234.712 46.7881Z" fill="white"/>
</svg>
