<svg width="235" height="72" viewBox="0 0 235 72" fill="none" xmlns="http://www.w3.org/2000/svg">
<path d="M54.896 24.4858L58.8489 30.5971C59.0448 30.8997 59.3319 31.1321 59.6687 31.2605L65.9576 33.6603C66.1775 33.7442 66.1608 34.0608 65.9334 34.1212L62.2529 35.0967C62.2341 35.1016 62.2169 35.111 62.2025 35.124C62.1881 35.1369 62.1771 35.1532 62.1703 35.1713C62.1635 35.1895 62.1612 35.209 62.1636 35.2282C62.1659 35.2474 62.1728 35.2658 62.1837 35.2818L71.8388 49.4236C71.9083 49.5256 72.0122 49.5989 72.1312 49.6306L78.25 51.2514" fill="white"/>
<path d="M54.896 24.4858L58.8489 30.5971C59.0448 30.8997 59.3319 31.1321 59.6687 31.2605L65.9576 33.6603C66.1775 33.7442 66.1608 34.0608 65.9334 34.1212L62.2529 35.0967C62.2341 35.1016 62.2169 35.111 62.2025 35.124C62.1881 35.1369 62.1771 35.1532 62.1703 35.1713C62.1635 35.1895 62.1612 35.209 62.1636 35.2282C62.1659 35.2474 62.1728 35.2658 62.1837 35.2818L71.8388 49.4236C71.9083 49.5256 72.0122 49.5989 72.1312 49.6306L78.25 51.2514" stroke="white" stroke-width="1.97816" stroke-linecap="round"/>
<path d="M78.2659 51.18L80.0083 45.8228C80.0471 45.704 80.0411 45.5752 79.9917 45.4605L71.4361 25.6087C71.4282 25.5903 71.4159 25.5741 71.4002 25.5616C71.3846 25.5491 71.3661 25.5408 71.3464 25.5372C71.3267 25.5336 71.3064 25.535 71.2874 25.5412C71.2683 25.5475 71.2512 25.5583 71.2374 25.5728L68.6842 28.2366C68.6667 28.255 68.644 28.2674 68.6191 28.2721C68.5942 28.2769 68.5685 28.2737 68.5455 28.263C68.5226 28.2523 68.5035 28.2347 68.4911 28.2126C68.4787 28.1905 68.4736 28.1651 68.4764 28.1399L69.1334 22.063C69.1947 21.4957 69.0431 20.9257 68.708 20.4638L67.5799 18.9088C65.9728 16.6934 63.6629 15.0875 61.0266 14.3525L56.1945 13.0057C56.1565 12.995 56.1157 12.9995 56.0809 13.0182C56.0461 13.037 56.0199 13.0685 56.0079 13.1062L55.0524 16.0983C54.4627 17.8974 52.9534 21.9263 55.1654 24.8769" fill="white"/>
<path d="M78.2659 51.18L80.0083 45.8228C80.0471 45.704 80.0411 45.5752 79.9917 45.4605L71.4361 25.6087C71.4282 25.5903 71.4159 25.5741 71.4002 25.5616C71.3846 25.5491 71.3661 25.5408 71.3464 25.5372C71.3267 25.5336 71.3064 25.535 71.2874 25.5412C71.2683 25.5475 71.2512 25.5583 71.2374 25.5728L68.6842 28.2366C68.6667 28.255 68.644 28.2674 68.6191 28.2721C68.5942 28.2769 68.5685 28.2737 68.5455 28.263C68.5226 28.2523 68.5035 28.2347 68.4911 28.2126C68.4787 28.1905 68.4736 28.1651 68.4764 28.1399L69.1334 22.063C69.1947 21.4957 69.0431 20.9257 68.708 20.4638L67.5799 18.9088C65.9728 16.6934 63.6629 15.0875 61.0266 14.3525L56.1945 13.0057C56.1565 12.995 56.1157 12.9995 56.0809 13.0182C56.0461 13.037 56.0199 13.0685 56.0079 13.1062L55.0524 16.0983C54.4627 17.8974 52.9534 21.9263 55.1654 24.8769" stroke="white" stroke-width="1.97816"/>
<mask id="path-5-inside-1_9937_15156" fill="white">
<path d="M70.8343 38.9299C70.8115 38.8879 70.7971 38.8419 70.7921 38.7945C70.787 38.747 70.7914 38.699 70.8049 38.6532C70.8184 38.6074 70.8408 38.5648 70.8708 38.5276C70.9008 38.4905 70.9378 38.4597 70.9797 38.4368L71.8664 37.9548C71.909 37.9316 71.9557 37.9172 72.0038 37.9124C72.052 37.9075 72.1007 37.9123 72.147 37.9266C72.1932 37.9408 72.2362 37.9641 72.2733 37.9952C72.3105 38.0262 72.3411 38.0644 72.3632 38.1074L83.0958 58.9332H81.7153L70.8343 38.9299ZM98.7094 29.0327H105.682V49.093C105.682 50.7943 105.325 52.1249 104.609 53.0849C103.901 54.0449 102.908 54.723 101.628 55.1186C100.347 55.5145 98.8526 55.7125 97.1431 55.7125C96.9114 55.7129 96.6798 55.7086 96.4483 55.6996C96.2081 55.6903 95.9681 55.6777 95.7282 55.6618V50.5079C95.8963 50.5245 96.0441 50.5374 96.1703 50.5457C96.2881 50.554 96.4102 50.5581 96.5367 50.5581C97.3701 50.5581 97.9387 50.4278 98.2421 50.1667C98.5534 49.914 98.7094 49.5056 98.7094 48.9415V29.0327ZM102.196 27.0114C101.253 27.0114 100.444 26.6998 99.7707 26.0764C99.0967 25.453 98.7601 24.7038 98.7601 23.8281C98.7601 22.952 99.0967 22.2024 99.7707 21.5794C100.444 20.9561 101.253 20.6448 102.196 20.6448C103.147 20.6448 103.956 20.9561 104.621 21.5794C105.295 22.2028 105.632 22.952 105.632 23.8281C105.632 24.7038 105.295 25.4534 104.621 26.0764C103.956 26.6998 103.147 27.0114 102.196 27.0114ZM117.822 48.7897C115.75 48.7897 113.964 48.3941 112.465 47.6022C110.975 46.8021 109.825 45.6566 109.017 44.1662C108.216 42.6671 107.817 40.8733 107.817 38.7848C107.817 36.7806 108.221 35.0287 109.029 33.5296C109.838 32.0309 110.979 30.8642 112.453 30.0304C113.926 29.1966 115.665 28.7799 117.67 28.7799C119.135 28.7799 120.462 29.0074 121.649 29.4622C122.836 29.9167 123.851 30.5779 124.693 31.4457C125.536 32.3044 126.184 33.3486 126.639 34.5784C127.093 35.8077 127.321 37.1931 127.321 38.7342V40.3512H109.989V36.5112H120.904C120.895 35.9551 120.752 35.4666 120.474 35.0453C120.207 34.6179 119.826 34.2728 119.375 34.048C118.921 33.8035 118.403 33.6815 117.822 33.6815C117.257 33.6815 116.739 33.8035 116.268 34.048C115.81 34.2719 115.418 34.6114 115.131 35.0329C114.853 35.4541 114.705 35.9468 114.688 36.5112V40.6541C114.688 41.2775 114.819 41.8329 115.08 42.3214C115.336 42.8049 115.727 43.2041 116.205 43.471C116.693 43.7491 117.282 43.8881 117.973 43.8881C118.453 43.8881 118.891 43.8205 119.287 43.686C119.691 43.5511 120.036 43.3573 120.323 43.1049C120.606 42.8488 120.822 42.528 120.954 42.1699H127.321C127.102 43.5175 126.584 44.6879 125.767 45.6819C124.95 46.6672 123.868 47.4334 122.521 47.9808C121.182 48.5199 119.615 48.7893 117.822 48.7893V48.7897ZM136.428 37.5214V48.4361H129.455V29.0323H136.075V32.7211H136.277C136.698 31.4918 137.439 30.5276 138.5 29.8283C139.57 29.1294 140.816 28.7799 142.239 28.7799C143.612 28.7799 144.804 29.0958 145.814 29.7274C146.833 30.3508 147.62 31.2095 148.177 32.304C148.741 33.3993 149.019 34.6502 149.01 36.0563V48.4361H142.037V37.5214C142.045 36.5618 141.801 35.8077 141.304 35.2603C140.816 34.7129 140.134 34.4394 139.258 34.4394C138.685 34.4394 138.184 34.5655 137.755 34.8183C137.333 35.0623 137.009 35.4163 136.782 35.8795C136.554 36.334 136.436 36.8814 136.428 37.5214ZM158.714 37.5214V48.4361H151.741V29.0323H158.361V32.7211H158.563C158.983 31.4918 159.725 30.5276 160.786 29.8283C161.856 29.1294 163.102 28.7799 164.525 28.7799C165.898 28.7799 167.09 29.0958 168.1 29.7274C169.119 30.3508 169.906 31.2095 170.463 32.304C171.027 33.3993 171.305 34.6502 171.296 36.0563V48.4361H164.323V37.5214C164.331 36.5618 164.087 35.8077 163.59 35.2603C163.102 34.7129 162.42 34.4394 161.544 34.4394C160.971 34.4394 160.47 34.5655 160.041 34.8183C159.619 35.0623 159.295 35.4163 159.068 35.8795C158.84 36.334 158.722 36.8814 158.714 37.5214ZM174.027 48.4361V29.0323H181V48.4361H174.027ZM177.513 27.0111C176.57 27.0111 175.762 26.6998 175.088 26.0764C174.414 25.453 174.078 24.7038 174.078 23.8281C174.078 22.952 174.414 22.2024 175.088 21.5794C175.762 20.9561 176.57 20.6448 177.513 20.6448C178.465 20.6448 179.274 20.9561 179.939 21.5794C180.613 22.2028 180.949 22.952 180.949 23.8281C180.949 24.7038 180.613 25.4534 179.939 26.0764C179.274 26.6998 178.465 27.0111 177.513 27.0111Z"/>
</mask>
<path d="M70.8343 38.9299C70.8115 38.8879 70.7971 38.8419 70.7921 38.7945C70.787 38.747 70.7914 38.699 70.8049 38.6532C70.8184 38.6074 70.8408 38.5648 70.8708 38.5276C70.9008 38.4905 70.9378 38.4597 70.9797 38.4368L71.8664 37.9548C71.909 37.9316 71.9557 37.9172 72.0038 37.9124C72.052 37.9075 72.1007 37.9123 72.147 37.9266C72.1932 37.9408 72.2362 37.9641 72.2733 37.9952C72.3105 38.0262 72.3411 38.0644 72.3632 38.1074L83.0958 58.9332H81.7153L70.8343 38.9299ZM98.7094 29.0327H105.682V49.093C105.682 50.7943 105.325 52.1249 104.609 53.0849C103.901 54.0449 102.908 54.723 101.628 55.1186C100.347 55.5145 98.8526 55.7125 97.1431 55.7125C96.9114 55.7129 96.6798 55.7086 96.4483 55.6996C96.2081 55.6903 95.9681 55.6777 95.7282 55.6618V50.5079C95.8963 50.5245 96.0441 50.5374 96.1703 50.5457C96.2881 50.554 96.4102 50.5581 96.5367 50.5581C97.3701 50.5581 97.9387 50.4278 98.2421 50.1667C98.5534 49.914 98.7094 49.5056 98.7094 48.9415V29.0327ZM102.196 27.0114C101.253 27.0114 100.444 26.6998 99.7707 26.0764C99.0967 25.453 98.7601 24.7038 98.7601 23.8281C98.7601 22.952 99.0967 22.2024 99.7707 21.5794C100.444 20.9561 101.253 20.6448 102.196 20.6448C103.147 20.6448 103.956 20.9561 104.621 21.5794C105.295 22.2028 105.632 22.952 105.632 23.8281C105.632 24.7038 105.295 25.4534 104.621 26.0764C103.956 26.6998 103.147 27.0114 102.196 27.0114ZM117.822 48.7897C115.75 48.7897 113.964 48.3941 112.465 47.6022C110.975 46.8021 109.825 45.6566 109.017 44.1662C108.216 42.6671 107.817 40.8733 107.817 38.7848C107.817 36.7806 108.221 35.0287 109.029 33.5296C109.838 32.0309 110.979 30.8642 112.453 30.0304C113.926 29.1966 115.665 28.7799 117.67 28.7799C119.135 28.7799 120.462 29.0074 121.649 29.4622C122.836 29.9167 123.851 30.5779 124.693 31.4457C125.536 32.3044 126.184 33.3486 126.639 34.5784C127.093 35.8077 127.321 37.1931 127.321 38.7342V40.3512H109.989V36.5112H120.904C120.895 35.9551 120.752 35.4666 120.474 35.0453C120.207 34.6179 119.826 34.2728 119.375 34.048C118.921 33.8035 118.403 33.6815 117.822 33.6815C117.257 33.6815 116.739 33.8035 116.268 34.048C115.81 34.2719 115.418 34.6114 115.131 35.0329C114.853 35.4541 114.705 35.9468 114.688 36.5112V40.6541C114.688 41.2775 114.819 41.8329 115.08 42.3214C115.336 42.8049 115.727 43.2041 116.205 43.471C116.693 43.7491 117.282 43.8881 117.973 43.8881C118.453 43.8881 118.891 43.8205 119.287 43.686C119.691 43.5511 120.036 43.3573 120.323 43.1049C120.606 42.8488 120.822 42.528 120.954 42.1699H127.321C127.102 43.5175 126.584 44.6879 125.767 45.6819C124.95 46.6672 123.868 47.4334 122.521 47.9808C121.182 48.5199 119.615 48.7893 117.822 48.7893V48.7897ZM136.428 37.5214V48.4361H129.455V29.0323H136.075V32.7211H136.277C136.698 31.4918 137.439 30.5276 138.5 29.8283C139.57 29.1294 140.816 28.7799 142.239 28.7799C143.612 28.7799 144.804 29.0958 145.814 29.7274C146.833 30.3508 147.62 31.2095 148.177 32.304C148.741 33.3993 149.019 34.6502 149.01 36.0563V48.4361H142.037V37.5214C142.045 36.5618 141.801 35.8077 141.304 35.2603C140.816 34.7129 140.134 34.4394 139.258 34.4394C138.685 34.4394 138.184 34.5655 137.755 34.8183C137.333 35.0623 137.009 35.4163 136.782 35.8795C136.554 36.334 136.436 36.8814 136.428 37.5214ZM158.714 37.5214V48.4361H151.741V29.0323H158.361V32.7211H158.563C158.983 31.4918 159.725 30.5276 160.786 29.8283C161.856 29.1294 163.102 28.7799 164.525 28.7799C165.898 28.7799 167.09 29.0958 168.1 29.7274C169.119 30.3508 169.906 31.2095 170.463 32.304C171.027 33.3993 171.305 34.6502 171.296 36.0563V48.4361H164.323V37.5214C164.331 36.5618 164.087 35.8077 163.59 35.2603C163.102 34.7129 162.42 34.4394 161.544 34.4394C160.971 34.4394 160.47 34.5655 160.041 34.8183C159.619 35.0623 159.295 35.4163 159.068 35.8795C158.84 36.334 158.722 36.8814 158.714 37.5214ZM174.027 48.4361V29.0323H181V48.4361H174.027ZM177.513 27.0111C176.57 27.0111 175.762 26.6998 175.088 26.0764C174.414 25.453 174.078 24.7038 174.078 23.8281C174.078 22.952 174.414 22.2024 175.088 21.5794C175.762 20.9561 176.57 20.6448 177.513 20.6448C178.465 20.6448 179.274 20.9561 179.939 21.5794C180.613 22.2028 180.949 22.952 180.949 23.8281C180.949 24.7038 180.613 25.4534 179.939 26.0764C179.274 26.6998 178.465 27.0111 177.513 27.0111Z" fill="white" stroke="white" stroke-width="0.755598" mask="url(#path-5-inside-1_9937_15156)"/>
</svg>
