<svg width="40" height="30" viewBox="0 0 40 30" fill="none" xmlns="http://www.w3.org/2000/svg">
<path d="M1.28 28.0436C0.853333 27.0739 0.523636 25.9103 0.290909 24.5527C0.0969699 23.1952 0 21.8376 0 20.48C0 15.9418 1.24121 11.8691 3.72364 8.26182C6.20606 4.61576 9.9297 1.86182 14.8945 0C15.903 0.504243 16.6788 1.2994 17.2218 2.38546C17.8036 3.47152 18.0364 4.55758 17.92 5.64364C15.9806 6.57455 14.1964 7.89333 12.5673 9.6C10.9382 11.3067 10.0848 13.2848 10.0073 15.5345C10.7442 15.6121 11.617 15.7673 12.6255 16C13.6339 16.1939 14.3709 16.4655 14.8364 16.8145C15.1467 17.3576 15.3988 18.1721 15.5927 19.2582C15.8255 20.3055 15.9418 21.2945 15.9418 22.2255C15.9418 23.1952 15.8448 24.2812 15.6509 25.4836C15.457 26.6473 15.1855 27.5006 14.8364 28.0436C14.2158 28.3927 13.2073 28.7224 11.8109 29.0327C10.4145 29.343 9.13454 29.4982 7.97091 29.4982C6.84606 29.4982 5.60485 29.3624 4.24727 29.0909C2.8897 28.8194 1.90061 28.4703 1.28 28.0436ZM23.3309 28.0436C22.9042 27.0739 22.5745 25.9103 22.3418 24.5527C22.1479 23.1952 22.0509 21.8376 22.0509 20.48C22.0509 15.9418 23.2921 11.8691 25.7745 8.26182C28.257 4.61576 31.9806 1.86182 36.9455 0C37.9539 0.504243 38.7297 1.2994 39.2727 2.38546C39.8545 3.47152 40.0873 4.55758 39.9709 5.64364C38.0315 6.57455 36.2473 7.89333 34.6182 9.6C32.9891 11.3067 32.1358 13.2848 32.0582 15.5345C32.7951 15.6121 33.6679 15.7673 34.6764 16C35.6848 16.1939 36.4218 16.4655 36.8873 16.8145C37.1976 17.3576 37.4497 18.1721 37.6436 19.2582C37.8764 20.3055 37.9927 21.2945 37.9927 22.2255C37.9927 23.1952 37.8958 24.2812 37.7018 25.4836C37.5079 26.6473 37.2364 27.5006 36.8873 28.0436C36.2667 28.3927 35.2582 28.7224 33.8618 29.0327C32.4655 29.343 31.1855 29.4982 30.0218 29.4982C28.897 29.4982 27.6558 29.3624 26.2982 29.0909C24.9406 28.8194 23.9515 28.4703 23.3309 28.0436Z" fill="#2D3748"/>
</svg>
