<svg width="256" height="78" viewBox="0 0 256 78" fill="none" xmlns="http://www.w3.org/2000/svg">
<path d="M62.6364 34.8157L45.5753 11.2766L49.7559 8.45195L66.7416 31.878L62.6364 34.8157ZM44.3701 34.8157V8.45195H49.7559L49.5299 13.0091V34.8533L44.3701 34.8157ZM62.6364 34.8157V8.45195H67.7585V34.8157H62.6364Z" fill="white"/>
<path d="M85.175 35.2676C82.5136 35.2676 80.1534 34.6901 78.0945 33.5352C76.0607 32.3551 74.4664 30.7481 73.3114 28.7144C72.1564 26.6555 71.5789 24.3078 71.5789 21.6715C71.5789 18.9849 72.1564 16.6247 73.3114 14.5909C74.4664 12.5321 76.0482 10.9251 78.0568 9.77014C80.0906 8.61515 82.4257 8.03766 85.0621 8.03766C87.7235 8.03766 90.0586 8.62771 92.0673 9.8078C94.1011 10.9628 95.6954 12.5697 96.8504 14.6286C98.0054 16.6624 98.5829 19.01 98.5829 21.6715C98.5829 24.3078 98.0054 26.6555 96.8504 28.7144C95.7205 30.7481 94.1387 32.3551 92.1049 33.5352C90.0963 34.6901 87.7863 35.2676 85.175 35.2676ZM85.175 30.5598C86.782 30.5598 88.188 30.1832 89.3932 29.4299C90.6236 28.6516 91.5777 27.597 92.2556 26.2663C92.9586 24.9356 93.3101 23.4039 93.3101 21.6715C93.3101 19.9139 92.9586 18.3697 92.2556 17.039C91.5526 15.7083 90.5859 14.6663 89.3556 13.913C88.1253 13.1346 86.6941 12.7455 85.0621 12.7455C83.4802 12.7455 82.0616 13.1346 80.8062 13.913C79.5759 14.6663 78.6092 15.7083 77.9062 17.039C77.2032 18.3697 76.8516 19.9139 76.8516 21.6715C76.8516 23.4039 77.2032 24.9356 77.9062 26.2663C78.6092 27.597 79.5884 28.6516 80.8439 29.4299C82.0993 30.1832 83.543 30.5598 85.175 30.5598Z" fill="white"/>
<path d="M122.626 35.2676C120.065 35.2676 117.793 34.6901 115.809 33.5352C113.826 32.3551 112.269 30.7481 111.139 28.7144C110.009 26.6555 109.444 24.2953 109.444 21.6338C109.444 18.9723 110.009 16.6247 111.139 14.5909C112.269 12.5321 113.813 10.9251 115.772 9.77014C117.755 8.59005 120.028 8 122.589 8C124.396 8 126.079 8.32641 127.635 8.97922C129.192 9.60693 130.548 10.4983 131.703 11.6533C132.883 12.7831 133.787 14.0888 134.415 15.5702L129.631 17.3403C129.205 16.4113 128.64 15.6078 127.937 14.9299C127.234 14.2269 126.43 13.687 125.526 13.3104C124.622 12.9087 123.643 12.7078 122.589 12.7078C121.057 12.7078 119.689 13.097 118.483 13.8753C117.303 14.6286 116.374 15.6706 115.696 17.0013C115.044 18.3321 114.717 19.8762 114.717 21.6338C114.717 23.3914 115.056 24.9481 115.734 26.304C116.412 27.6347 117.354 28.6892 118.559 29.4676C119.764 30.2209 121.145 30.5975 122.702 30.5975C123.781 30.5975 124.76 30.3966 125.639 29.9949C126.543 29.568 127.334 28.9905 128.012 28.2624C128.715 27.5343 129.28 26.6931 129.707 25.739L134.49 27.4715C133.862 29.0031 132.958 30.359 131.778 31.539C130.623 32.7191 129.267 33.6356 127.711 34.2884C126.154 34.9412 124.459 35.2676 122.626 35.2676Z" fill="white"/>
<path d="M149.954 35.2676C147.293 35.2676 144.933 34.6901 142.874 33.5352C140.84 32.3551 139.246 30.7481 138.091 28.7144C136.936 26.6555 136.358 24.3078 136.358 21.6715C136.358 18.9849 136.936 16.6247 138.091 14.5909C139.246 12.5321 140.828 10.9251 142.836 9.77014C144.87 8.61515 147.205 8.03766 149.842 8.03766C152.503 8.03766 154.838 8.62771 156.847 9.8078C158.88 10.9628 160.475 12.5697 161.63 14.6286C162.785 16.6624 163.362 19.01 163.362 21.6715C163.362 24.3078 162.785 26.6555 161.63 28.7144C160.5 30.7481 158.918 32.3551 156.884 33.5352C154.876 34.6901 152.566 35.2676 149.954 35.2676ZM149.954 30.5598C151.561 30.5598 152.967 30.1832 154.173 29.4299C155.403 28.6516 156.357 27.597 157.035 26.2663C157.738 24.9356 158.09 23.4039 158.09 21.6715C158.09 19.9139 157.738 18.3697 157.035 17.039C156.332 15.7083 155.365 14.6663 154.135 13.913C152.905 13.1346 151.474 12.7455 149.842 12.7455C148.26 12.7455 146.841 13.1346 145.586 13.913C144.355 14.6663 143.389 15.7083 142.686 17.039C141.983 18.3697 141.631 19.9139 141.631 21.6715C141.631 23.4039 141.983 24.9356 142.686 26.2663C143.389 27.597 144.368 28.6516 145.623 29.4299C146.879 30.1832 148.322 30.5598 149.954 30.5598Z" fill="white"/>
<path d="M175.607 34.8157V29.9949C176.812 29.9949 177.929 29.7815 178.959 29.3546C179.988 28.9278 180.879 28.3377 181.633 27.5845C182.411 26.8312 183.014 25.9524 183.441 24.9481C183.867 23.9187 184.081 22.8139 184.081 21.6338C184.081 20.4537 183.867 19.3615 183.441 18.3572C183.014 17.3277 182.411 16.4364 181.633 15.6831C180.879 14.9299 179.988 14.3398 178.959 13.913C177.929 13.4862 176.812 13.2727 175.607 13.2727V8.45195C178.293 8.45195 180.666 9.01689 182.725 10.1468C184.809 11.2766 186.428 12.8333 187.583 14.8169C188.764 16.7754 189.354 19.0477 189.354 21.6338C189.354 24.1949 188.764 26.4672 187.583 28.4507C186.403 30.4343 184.784 31.991 182.725 33.1209C180.666 34.2507 178.293 34.8157 175.607 34.8157ZM170.146 34.8157V29.9949H175.607V34.8157H170.146ZM167.17 34.8157V8.45195H172.33V34.8157H167.17ZM170.146 13.2727V8.45195H175.607V13.2727H170.146Z" fill="white"/>
<path d="M193.165 34.8157V8.45195H198.325V34.8157H193.165ZM197.082 34.8157V30.1079H210V34.8157H197.082ZM197.082 23.7429V19.1481H208.267V23.7429H197.082ZM197.082 13.1598V8.45195H209.849V13.1598H197.082Z" fill="white"/>
<path d="M57.665 64.0585L44.5961 45.0389L47.0065 44.3234L49.9818 44.0221L60.2637 59.2754L57.665 64.0585ZM44.3701 70.3858V44.0221H49.5299V70.3858H44.3701ZM57.665 64.0585L55.0663 59.2754L65.3481 44.0221L68.3234 44.3234L70.6585 44.9636L57.665 64.0585ZM65.8001 70.3858V44.0221H70.9222V70.3858H65.8001Z" fill="white"/>
<path d="M78.3576 70.3858V65.8286H85.9277C87.158 65.8286 88.1247 65.5273 88.8277 64.9247C89.5308 64.297 89.8823 63.4684 89.8823 62.439C89.8823 61.3593 89.4931 60.5057 88.7147 59.878C87.9364 59.2503 86.8693 58.9489 85.5134 58.9741H78.3576V54.9818L82.9147 55.0572C85.3753 55.0572 87.5221 55.3334 89.355 55.8857C91.1879 56.413 92.6065 57.2416 93.6109 58.3715C94.6403 59.5013 95.155 60.9953 95.155 62.8533C95.155 64.4602 94.7909 65.8286 94.0628 66.9585C93.3347 68.0884 92.3178 68.9421 91.0121 69.5196C89.7065 70.097 88.1749 70.3858 86.4173 70.3858H78.3576ZM76.2861 70.3858V44.0221H81.3329V70.3858H76.2861ZM78.1692 59.2377V54.7559H85.3251C86.455 54.7559 87.3463 54.4671 87.9991 53.8896C88.652 53.3121 88.9784 52.4961 88.9784 51.4416C88.9784 50.387 88.6143 49.571 87.8862 48.9935C87.158 48.3909 86.1662 48.1022 84.9108 48.1273H78.1692V44.0597L85.2121 43.9844C87.0199 43.9844 88.6017 44.2731 89.9576 44.8506C91.3134 45.403 92.368 46.2441 93.1212 47.374C93.8745 48.4788 94.2511 49.8597 94.2511 51.5169C94.2511 52.8727 93.7866 54.103 92.8576 55.2078C91.9537 56.3126 90.6732 57.1914 89.016 57.8442C87.384 58.497 85.4758 58.8234 83.2913 58.8234L78.1692 59.2377Z" fill="white"/>
<path d="M117.237 70.3858L107.143 44.0221H112.303L122.698 70.3858H117.237ZM96.4093 70.3858L106.804 44.0221H111.964L101.87 70.3858H96.4093ZM101.305 64.5858V60.0286H117.839V64.5858H101.305Z" fill="white"/>
<path d="M30 8.66125H35.2309V70.3859H30V8.66125Z" fill="#DDE1E7"/>
</svg>
