<svg width="256" height="78" viewBox="0 0 256 78" fill="none" xmlns="http://www.w3.org/2000/svg">
<g style="mix-blend-mode:luminosity">
<path fill-rule="evenodd" clip-rule="evenodd" d="M13 35.6317C13 34 14.397 32.5985 16.0332 32.5985C17.8477 32.5985 19.243 34 19.2996 35.6317C19.243 48.8161 29.8394 59.4593 42.865 59.4303C55.8905 59.4593 66.4868 48.8161 66.4303 35.6317C66.4868 34 67.8825 32.5985 69.6968 32.5985C71.3328 32.5985 72.7299 34 72.7299 35.6317C72.7299 52.2732 59.3324 65.73 42.865 65.73C26.3975 65.73 13 52.2732 13 35.6317Z" fill="white"/>
<path fill-rule="evenodd" clip-rule="evenodd" d="M66.4303 36.0983C66.4868 22.9139 55.8905 12.2706 42.865 12.2996C29.8394 12.2706 19.243 22.9139 19.2996 36.0983C19.243 37.73 17.8477 39.1315 16.0332 39.1315C14.397 39.1315 13 37.73 13 36.0983C13 19.4567 26.3975 6 42.865 6C59.3324 6 72.7299 19.4567 72.7299 36.0983C72.7299 37.73 71.3328 39.1315 69.6968 39.1315C67.8825 39.1315 66.4868 37.73 66.4303 36.0983Z" fill="white"/>
<path fill-rule="evenodd" clip-rule="evenodd" d="M66.6635 37.4982C61.795 28.5712 52.2548 24.6033 42.3982 24.6656C33.1221 24.6033 24.0117 28.4369 19.0662 37.4982C17.9502 38.8336 16.045 39.3361 14.3998 38.4315C13.0605 37.607 12.5576 35.7001 13.4665 33.9984C19.7314 23.3877 30.9096 18.366 42.3982 18.366C54.4342 18.366 66.0942 23.5516 72.2632 33.9984C73.1722 35.7001 72.6692 37.607 71.3299 38.4315C70.6836 38.7603 70.1442 38.8981 69.6967 38.8981C68.5357 38.8981 67.4894 38.3433 66.6635 37.4982Z" fill="white"/>
<path fill-rule="evenodd" clip-rule="evenodd" d="M13.4666 37.7314C12.5583 36.0294 13.0612 34.1206 14.3999 33.2983C16.0387 32.3898 17.951 32.8923 19.0663 34.2316C23.9305 43.1601 33.476 47.1264 43.3316 47.0642C52.6072 47.1264 61.7195 43.2928 66.6636 34.2316C67.7793 32.8923 69.6935 32.3968 71.33 33.2983C72.6692 34.1206 73.1723 36.0294 72.2633 37.7314C66.0014 48.3438 54.8233 53.3638 43.3316 53.3638C31.2931 53.3638 19.6327 48.178 13.4666 37.7314Z" fill="white"/>
<path d="M103.527 31.698C103.527 24.0241 108.899 20.379 114.126 20.379C119.402 20.379 124.774 24.0241 124.774 31.698C124.774 39.3719 119.402 43.0171 114.126 43.0171C108.899 43.0171 103.527 39.3719 103.527 31.698ZM96.6682 31.746C96.6682 42.6813 104.918 49.444 114.126 49.444C123.383 49.444 131.633 42.6813 131.633 31.746C131.633 20.7627 123.383 14 114.126 14C104.918 14 96.6682 20.7627 96.6682 31.746Z" fill="white"/>
<path d="M140.981 57.2701V46.4224C142.132 48.0051 144.567 49.3001 147.828 49.3001C154.495 49.3001 158.955 44.0243 158.955 36.8779C158.955 29.8754 154.974 24.5996 148.068 24.5996C144.519 24.5996 142.036 26.1824 140.981 28.0049V25.4692H134.725V57.2701H140.981ZM152.672 36.9259C152.672 41.1465 150.082 43.5926 146.821 43.5926C143.56 43.5926 140.922 41.0986 140.922 36.9259C140.922 32.7532 143.56 30.3071 146.821 30.3071C150.082 30.3071 152.672 32.7532 152.672 36.9259Z" fill="white"/>
<path d="M170.175 18.1705H164.493V21.3861C164.493 23.4964 163.484 24.9478 160.99 24.9478H159.749V30.6824H163.919V41.77C163.919 46.3264 166.937 49.0602 171.542 49.0602C173.412 49.0602 174.813 48.6473 175.389 48.4075V43.09C175.053 43.1859 173.94 43.4007 173.172 43.4007C171.35 43.4007 170.175 42.7292 170.175 40.6668V30.6824H175.389V24.9478H170.175V18.1705Z" fill="white"/>
<path d="M183.389 34.3318C183.533 32.1735 185.356 29.6399 188.665 29.6399C192.31 29.6399 193.845 31.9817 193.941 34.3318H183.389ZM194.605 40.4835C193.837 42.5938 192.167 43.9764 189.193 43.9764C186.027 43.9764 183.389 42.1413 183.246 39.0238H200.128C200.128 38.9278 200.224 37.5494 200.224 36.6382C200.224 29.0602 195.86 24.4078 188.569 24.4078C182.526 24.4078 176.963 29.3 176.963 36.83C176.963 44.7917 182.67 49.444 189.145 49.444C194.948 49.444 198.689 46.1242 199.888 42.0475L194.605 40.4835Z" fill="white"/>
<path d="M214.636 43.6406C211.518 43.6406 208.64 41.3385 208.64 36.9259C208.64 32.4655 211.518 30.2112 214.636 30.2112C217.753 30.2112 220.631 32.4655 220.631 36.9259C220.631 41.3864 217.753 43.6406 214.636 43.6406ZM214.636 24.4078C207.585 24.4078 202.261 29.6357 202.261 36.9259C202.261 44.1682 207.585 49.444 214.636 49.444C221.686 49.444 227 44.1682 227 36.9259C227 29.6357 221.686 24.4078 214.636 24.4078Z" fill="white"/>
</g>
</svg>
