<svg width="256" height="78" viewBox="0 0 256 78" fill="none" xmlns="http://www.w3.org/2000/svg">
<path d="M76.1959 52.82C74.9239 52.82 73.7359 52.664 72.6319 52.352C71.5279 52.04 70.5439 51.608 69.6799 51.056C68.8159 50.48 68.0959 49.844 67.5199 49.148C66.9679 48.452 66.6079 47.72 66.4399 46.952L71.2639 45.512C71.5759 46.328 72.1279 47.036 72.9199 47.636C73.7119 48.212 74.7079 48.512 75.9079 48.536C77.1799 48.56 78.2119 48.284 79.0039 47.708C79.8199 47.132 80.2279 46.388 80.2279 45.476C80.2279 44.684 79.9039 44.024 79.2559 43.496C78.6319 42.944 77.7679 42.524 76.6639 42.236L73.3879 41.372C72.1639 41.06 71.0839 40.592 70.1479 39.968C69.2119 39.32 68.4799 38.528 67.9519 37.592C67.4239 36.656 67.1599 35.564 67.1599 34.316C67.1599 31.94 67.9399 30.092 69.4999 28.772C71.0839 27.428 73.3159 26.756 76.1959 26.756C77.8039 26.756 79.2079 26.996 80.4079 27.476C81.6319 27.932 82.6519 28.592 83.4679 29.456C84.2839 30.32 84.9079 31.34 85.3399 32.516L80.5519 33.992C80.2639 33.176 79.7359 32.48 78.9679 31.904C78.1999 31.328 77.2279 31.04 76.0519 31.04C74.8519 31.04 73.9039 31.316 73.2079 31.868C72.5359 32.42 72.1999 33.2 72.1999 34.208C72.1999 35 72.4639 35.624 72.9919 36.08C73.5439 36.536 74.2879 36.884 75.2239 37.124L78.5359 37.952C80.6959 38.48 82.3759 39.428 83.5759 40.796C84.7759 42.164 85.3759 43.688 85.3759 45.368C85.3759 46.856 85.0159 48.164 84.2959 49.292C83.5759 50.396 82.5319 51.26 81.1639 51.884C79.7959 52.508 78.1399 52.82 76.1959 52.82Z" fill="white"/>
<path d="M96.3351 52.82C94.3431 52.82 92.8311 52.328 91.7991 51.344C90.7911 50.36 90.2871 48.956 90.2871 47.132V28.772H95.0391V46.088C95.0391 46.856 95.2071 47.444 95.5431 47.852C95.8791 48.236 96.3711 48.428 97.0191 48.428C97.2591 48.428 97.5231 48.38 97.8111 48.284C98.0991 48.164 98.3991 47.996 98.7111 47.78L100.367 51.344C99.7911 51.776 99.1431 52.124 98.4231 52.388C97.7271 52.676 97.0311 52.82 96.3351 52.82ZM87.3711 38.42V34.388H99.5391V38.42H87.3711Z" fill="white"/>
<path d="M106.752 42.92C106.752 40.976 107.124 39.368 107.868 38.096C108.636 36.824 109.608 35.876 110.784 35.252C111.984 34.628 113.232 34.316 114.528 34.316V38.924C113.424 38.924 112.38 39.056 111.396 39.32C110.436 39.584 109.656 40.016 109.056 40.616C108.456 41.216 108.156 41.984 108.156 42.92H106.752ZM103.404 52.388V34.388H108.156V52.388H103.404Z" fill="white"/>
<path d="M125.18 52.82C123.404 52.82 121.832 52.424 120.464 51.632C119.096 50.816 118.016 49.7 117.224 48.284C116.456 46.868 116.072 45.236 116.072 43.388C116.072 41.54 116.468 39.908 117.26 38.492C118.076 37.076 119.18 35.972 120.572 35.18C121.988 34.364 123.608 33.956 125.432 33.956C126.992 33.956 128.432 34.376 129.752 35.216C131.096 36.032 132.176 37.244 132.992 38.852C133.808 40.436 134.216 42.368 134.216 44.648H129.392C129.416 43.064 129.248 41.804 128.888 40.868C128.552 39.908 128.072 39.224 127.448 38.816C126.824 38.384 126.092 38.168 125.252 38.168C124.316 38.168 123.524 38.36 122.876 38.744C122.228 39.128 121.736 39.716 121.4 40.508C121.088 41.276 120.932 42.284 120.932 43.532C120.932 44.612 121.148 45.512 121.58 46.232C122.012 46.952 122.588 47.504 123.308 47.888C124.028 48.248 124.82 48.428 125.684 48.428C126.62 48.428 127.376 48.224 127.952 47.816C128.552 47.408 129.008 46.88 129.32 46.232L133.784 47.96C133.28 48.968 132.62 49.844 131.804 50.588C131.012 51.308 130.064 51.86 128.96 52.244C127.856 52.628 126.596 52.82 125.18 52.82ZM119.168 44.648L119.204 40.94H131.876V44.648H119.168Z" fill="white"/>
<path d="M147.778 52.388L147.598 48.752V43.28C147.598 42.2 147.478 41.288 147.238 40.544C146.998 39.776 146.626 39.2 146.122 38.816C145.642 38.408 144.994 38.204 144.178 38.204C143.458 38.204 142.81 38.36 142.234 38.672C141.658 38.984 141.166 39.488 140.758 40.184L136.438 38.708C136.774 37.94 137.266 37.196 137.914 36.476C138.562 35.732 139.402 35.132 140.434 34.676C141.49 34.196 142.774 33.956 144.286 33.956C146.086 33.956 147.586 34.28 148.786 34.928C150.01 35.576 150.922 36.536 151.522 37.808C152.122 39.056 152.41 40.592 152.386 42.416L152.278 52.388H147.778ZM142.81 52.82C140.65 52.82 138.97 52.34 137.77 51.38C136.594 50.42 136.006 49.064 136.006 47.312C136.006 45.392 136.642 43.952 137.914 42.992C139.21 42.008 141.022 41.516 143.35 41.516H147.922V45.044H145.006C143.446 45.044 142.366 45.236 141.766 45.62C141.166 45.98 140.866 46.496 140.866 47.168C140.866 47.696 141.106 48.116 141.586 48.428C142.066 48.716 142.738 48.86 143.602 48.86C144.37 48.86 145.054 48.68 145.654 48.32C146.254 47.936 146.722 47.456 147.058 46.88C147.418 46.28 147.598 45.668 147.598 45.044H148.858C148.858 47.492 148.378 49.4 147.418 50.768C146.482 52.136 144.946 52.82 142.81 52.82Z" fill="white"/>
<path d="M156.173 52.388V34.388H160.637L160.925 37.7V52.388H156.173ZM168.089 52.388V43.172L172.841 42.092V52.388H168.089ZM180.041 52.388V43.172L184.793 42.092V52.388H180.041ZM168.089 43.172C168.089 41.948 167.945 41 167.657 40.328C167.393 39.656 167.009 39.176 166.505 38.888C166.001 38.576 165.413 38.42 164.741 38.42C163.517 38.396 162.569 38.768 161.897 39.536C161.249 40.304 160.925 41.444 160.925 42.956H159.341C159.341 41.036 159.617 39.416 160.169 38.096C160.745 36.752 161.537 35.732 162.545 35.036C163.553 34.316 164.741 33.956 166.109 33.956C168.293 33.956 169.961 34.628 171.113 35.972C172.289 37.292 172.865 39.332 172.841 42.092L168.089 43.172ZM180.041 43.172C180.041 41.948 179.897 41 179.609 40.328C179.321 39.656 178.925 39.176 178.421 38.888C177.941 38.576 177.353 38.42 176.657 38.42C175.433 38.396 174.485 38.768 173.813 39.536C173.165 40.304 172.841 41.444 172.841 42.956H171.257C171.257 41.036 171.533 39.416 172.085 38.096C172.661 36.752 173.453 35.732 174.461 35.036C175.493 34.316 176.693 33.956 178.061 33.956C180.245 33.956 181.913 34.628 183.065 35.972C184.217 37.292 184.793 39.332 184.793 42.092L180.041 43.172Z" fill="white"/>
<path d="M188.587 52.388V27.188H193.339V52.388H188.587Z" fill="white"/>
<path d="M197.734 52.388V34.388H202.486V52.388H197.734ZM200.11 31.472C199.39 31.472 198.754 31.208 198.202 30.68C197.65 30.128 197.374 29.48 197.374 28.736C197.374 27.992 197.65 27.356 198.202 26.828C198.754 26.276 199.39 26 200.11 26C200.854 26 201.49 26.276 202.018 26.828C202.57 27.356 202.846 27.992 202.846 28.736C202.846 29.48 202.57 30.128 202.018 30.68C201.49 31.208 200.854 31.472 200.11 31.472Z" fill="white"/>
<path d="M206.868 52.388V34.388H211.332L211.62 37.7V52.388H206.868ZM218.784 52.388V43.172L223.536 42.092V52.388H218.784ZM218.784 43.172C218.784 41.948 218.64 41 218.352 40.328C218.088 39.656 217.704 39.176 217.2 38.888C216.696 38.576 216.108 38.42 215.436 38.42C214.212 38.396 213.264 38.768 212.592 39.536C211.944 40.304 211.62 41.444 211.62 42.956H210.036C210.036 41.036 210.312 39.416 210.864 38.096C211.44 36.752 212.232 35.732 213.24 35.036C214.248 34.316 215.436 33.956 216.804 33.956C218.988 33.956 220.656 34.628 221.808 35.972C222.984 37.292 223.56 39.332 223.536 42.092L218.784 43.172Z" fill="white"/>
<path d="M235.465 52.82C233.689 52.82 232.117 52.424 230.749 51.632C229.381 50.816 228.301 49.7 227.509 48.284C226.741 46.868 226.357 45.236 226.357 43.388C226.357 41.54 226.753 39.908 227.545 38.492C228.361 37.076 229.465 35.972 230.857 35.18C232.273 34.364 233.893 33.956 235.717 33.956C237.277 33.956 238.717 34.376 240.037 35.216C241.381 36.032 242.461 37.244 243.277 38.852C244.093 40.436 244.501 42.368 244.501 44.648H239.677C239.701 43.064 239.533 41.804 239.173 40.868C238.837 39.908 238.357 39.224 237.733 38.816C237.109 38.384 236.377 38.168 235.537 38.168C234.601 38.168 233.809 38.36 233.161 38.744C232.513 39.128 232.021 39.716 231.685 40.508C231.373 41.276 231.217 42.284 231.217 43.532C231.217 44.612 231.433 45.512 231.865 46.232C232.297 46.952 232.873 47.504 233.593 47.888C234.313 48.248 235.105 48.428 235.969 48.428C236.905 48.428 237.661 48.224 238.237 47.816C238.837 47.408 239.293 46.88 239.605 46.232L244.069 47.96C243.565 48.968 242.905 49.844 242.089 50.588C241.297 51.308 240.349 51.86 239.245 52.244C238.141 52.628 236.881 52.82 235.465 52.82ZM229.453 44.648L229.489 40.94H242.161V44.648H229.453Z" fill="white"/>
<path d="M55.9999 37.9445C56.0072 40.7309 55.3562 43.4796 54.0999 45.9667C52.6104 48.947 50.3205 51.4538 47.4868 53.2063C44.653 54.9587 41.3874 55.8876 38.0555 55.8889C35.2691 55.8962 32.5204 55.2452 30.0333 53.9889L18 58L22.0111 45.9667C20.7549 43.4796 20.1038 40.7309 20.1111 37.9445C20.1124 34.6126 21.0413 31.347 22.7937 28.5132C24.5462 25.6795 27.053 23.3896 30.0333 21.9001C32.5204 20.6438 35.2691 19.9928 38.0555 20.0001H39.1111C43.5114 20.2428 47.6675 22.1001 50.7837 25.2163C53.8999 28.3325 55.7572 32.4886 55.9999 36.8889V37.9445Z" stroke="white" stroke-width="3" stroke-linecap="round" stroke-linejoin="round"/>
<path d="M41.57 42H41.57H41.57ZM33.0517 42.346C33.622 44.8155 35.776 45.9983 37.8453 46C39.9097 46.0017 42.11 44.84 42.9077 42.4457C43.1444 41.7354 42.6159 41 41.8656 41H34.122C33.4114 41 32.8938 41.6621 33.0517 42.346Z" stroke="white" stroke-width="2"/>
<circle cx="33" cy="34" r="2" fill="white"/>
<circle cx="43" cy="34" r="2" fill="white"/>
</svg>
