<svg width="56" height="56" viewBox="0 0 56 56" fill="none" xmlns="http://www.w3.org/2000/svg">
<circle cx="28" cy="28" r="28" fill="#6772E5"/>
<g clip-path="url(#clip0_10027_23017)">
<path fill-rule="evenodd" clip-rule="evenodd" d="M81.164 20.47L80.862 19.036H76.666V36.04H81.514V24.5C82.661 23 84.596 23.292 85.212 23.483V19.038C84.566 18.806 82.299 18.38 81.164 20.468V20.47ZM71.434 14.824L66.698 15.83L66.678 31.392C66.678 34.262 68.836 36.385 71.716 36.385C73.301 36.385 74.472 36.083 75.121 35.742V31.792C74.499 32.04 71.438 32.93 71.438 30.072V23.172H75.121V19.035H71.438L71.434 14.824ZM58.3 23.97C58.3 23.212 58.93 22.92 59.948 22.92C61.6332 22.9565 63.2867 23.3844 64.778 24.17V19.6C63.2403 18.9954 61.6002 18.6939 59.948 18.712C56.024 18.712 53.391 20.768 53.391 24.2C53.391 29.57 60.766 28.698 60.766 31.013C60.766 31.919 59.986 32.199 58.903 32.199C57.297 32.199 55.223 31.535 53.596 30.649V35.279C55.2709 36.0075 57.0765 36.3876 58.903 36.396C62.936 36.396 65.716 34.404 65.716 30.911C65.716 25.115 58.299 26.151 58.299 23.968L58.3 23.97ZM25.88 21.515C25.88 20.145 27.02 19.615 28.862 19.615C31.9106 19.6809 34.9021 20.4549 37.6 21.876V13.606C34.818 12.5127 31.8509 11.9677 28.862 12.001C21.762 12.001 17 15.72 17 21.93C17 31.646 30.342 30.068 30.342 34.256C30.342 35.894 28.942 36.402 26.972 36.402C24.067 36.402 20.315 35.2 17.372 33.6V41.978C20.402 43.2964 23.6686 43.9844 26.973 44C34.27 44 39.3 40.395 39.3 34.077C39.3 23.591 25.88 25.464 25.88 21.517V21.515Z" fill="white"/>
</g>
<defs>
<clipPath id="clip0_10027_23017">
<rect width="32" height="32" fill="white" transform="translate(12 12)"/>
</clipPath>
</defs>
</svg>
