<svg width="256" height="78" viewBox="0 0 256 78" fill="none" xmlns="http://www.w3.org/2000/svg">
<g clip-path="url(#clip0_8311_31808)">
<mask id="mask0_8311_31808" style="mask-type:luminance" maskUnits="userSpaceOnUse" x="61" y="14" width="135" height="52">
<path d="M196 14H61V65.7681H196V14Z" fill="white"/>
</mask>
<g mask="url(#mask0_8311_31808)">
<path d="M82.7144 49.3576C81.9062 49.5875 81.0749 49.6941 80.2323 49.6773C79.1832 49.7389 78.1514 49.4136 77.3316 48.7686C76.5577 47.961 76.1737 46.8617 76.2883 45.7568V34.001H85.1909V26.9285H76.2883V17.6293L66.1246 20.3775V26.9285H60.9825V34.0066H66.1189V47.4001C66.0615 49.3071 66.5488 51.1916 67.5233 52.8406C68.4348 54.2147 69.7762 55.2635 71.3526 55.8244C73.2386 56.4862 75.2335 56.8058 77.2399 56.761C78.8106 56.761 80.3813 56.5647 81.9004 56.1777C83.2475 55.8636 84.5259 55.3084 85.6667 54.54L84.589 48.3984C84.0329 48.8247 83.3966 49.15 82.7144 49.3576Z" fill="white"/>
<path d="M102.824 49.7948C101.998 49.879 101.179 49.576 100.611 48.9759C100.095 48.1515 99.8659 47.1867 99.9576 46.2277V14.5273H89.7939V47.5121C89.7939 50.7876 90.5105 53.1432 91.9436 54.5902C93.3768 56.0317 95.6869 56.7552 98.8799 56.7552C100.026 56.7496 101.173 56.615 102.285 56.3457C103.271 56.1382 104.217 55.7849 105.094 55.2913L105.747 49.3293C105.191 49.4863 104.71 49.6041 104.314 49.6826C103.827 49.7612 103.323 49.8004 102.824 49.7948Z" fill="white"/>
<path d="M111.555 35.521C112.776 36.5082 114.335 37.0074 115.917 36.9232C117.511 37.0186 119.081 36.5138 120.308 35.521C121.391 34.5227 121.97 33.115 121.89 31.6623C121.976 30.1928 121.397 28.757 120.308 27.7418C119.076 26.7491 117.511 26.2443 115.917 26.3397C114.335 26.2555 112.776 26.7547 111.555 27.7418C110.448 28.7458 109.858 30.1816 109.944 31.6623C109.863 33.1205 110.454 34.5339 111.555 35.521Z" fill="white"/>
<path d="M119.379 47.1029C118.302 46.4074 117.023 46.0597 115.733 46.1102C114.719 46.1045 113.721 46.3233 112.804 46.7551C111.904 47.1702 111.142 47.8152 110.591 48.6285C110.001 49.5595 109.709 50.6364 109.754 51.73C109.714 52.6835 109.972 53.6202 110.5 54.4222C110.964 55.0953 111.606 55.6393 112.351 55.9982C113.028 56.3347 113.773 56.5142 114.535 56.5254C114.96 56.5367 115.378 56.4974 115.791 56.4077C116.072 56.346 116.335 56.2282 116.565 56.0543L116.863 56.2282C116.467 57.1032 115.934 57.9108 115.281 58.6231C114.547 59.4307 113.727 60.1599 112.827 60.788C111.876 61.4554 110.844 62.0107 109.749 62.4258L113.87 65.4096C115.401 64.7421 116.794 63.7999 117.963 62.6277C119.225 61.3881 120.256 59.9467 121.013 58.3595C121.781 56.7778 122.177 55.0503 122.177 53.3004C122.194 52.0665 121.959 50.8439 121.489 49.7053C121.065 48.6565 120.331 47.7535 119.379 47.1029Z" fill="white"/>
<path d="M148.609 31.9256C148.053 30.7646 147.296 29.6933 146.368 28.7679C144.619 27.1134 142.252 26.2328 139.821 26.3394C137.505 26.2945 135.224 26.9282 133.275 28.151C131.32 29.4353 129.784 31.2413 128.855 33.3558C127.726 35.9807 127.187 38.8131 127.273 41.6623C127.199 44.4498 127.72 47.2149 128.798 49.7949C129.68 51.8981 131.177 53.6985 133.103 54.9717C135.035 56.1832 137.294 56.8057 139.587 56.7552C141.369 56.7833 143.124 56.3682 144.7 55.5494C146.202 54.7474 147.474 53.592 148.409 52.1842C148.758 51.6513 149.062 51.0905 149.32 50.5128L149.692 56.1608H158.779V14.5219H148.615V31.9256H148.609ZM147.95 45.8183C147.612 46.884 146.953 47.8319 146.07 48.5386C145.216 49.1555 144.178 49.4752 143.118 49.4471C141.507 49.5145 139.959 48.8021 138.985 47.5458C137.987 46.2782 137.488 44.2815 137.488 41.5501C137.488 38.8243 137.999 36.822 139.013 35.5544C139.999 34.2981 141.553 33.5914 143.169 33.6531C144.23 33.625 145.273 33.9447 146.127 34.5617C146.998 35.2403 147.641 36.1545 147.979 37.1922C148.426 38.5438 148.638 39.9572 148.609 41.3762C148.644 42.8794 148.42 44.3825 147.95 45.8183Z" fill="white"/>
<path d="M185.486 26.9283L179.209 49.206L173.053 26.9283H162.35L173.11 56.1664H185.245L196.005 26.9283H185.486Z" fill="white"/>
</g>
</g>
<defs>
<clipPath id="clip0_8311_31808">
<rect width="135" height="52" fill="white" transform="translate(61 14)"/>
</clipPath>
</defs>
</svg>
