<svg width="256" height="78" viewBox="0 0 256 78" fill="none" xmlns="http://www.w3.org/2000/svg">
<path d="M75.2084 25.4062V51H70.4326V25.4062H75.2084ZM83.9735 25.4062V28.9219H61.7441V25.4062H83.9735Z" fill="white"/>
<path d="M91.2419 35.6016V51H86.6196V31.9805H91.0309L91.2419 35.6016ZM97.5904 31.8574L97.5521 35.7949C97.2708 35.748 96.9639 35.7129 96.6314 35.6895C96.3118 35.666 95.9921 35.6543 95.6725 35.6543C94.8797 35.6543 94.1828 35.7598 93.5819 35.9707C92.9809 36.1699 92.4758 36.4629 92.0667 36.8496C91.6703 37.2246 91.3634 37.6816 91.146 38.2207C90.9286 38.7598 90.8008 39.3633 90.7624 40.0312L89.7075 40.1016C89.7075 38.9062 89.8354 37.7988 90.0911 36.7793C90.3469 35.7598 90.7305 34.8633 91.2419 34.0898C91.7662 33.3164 92.4183 32.7129 93.1983 32.2793C93.991 31.8457 94.9053 31.6289 95.941 31.6289C96.2223 31.6289 96.5228 31.6523 96.8424 31.6992C97.1749 31.7461 97.4242 31.7988 97.5904 31.8574Z" fill="white"/>
<path d="M110.037 51.3516C108.503 51.3516 107.116 51.123 105.875 50.666C104.648 50.1973 103.599 49.5469 102.73 48.7148C101.873 47.8828 101.215 46.9043 100.754 45.7793C100.294 44.6543 100.064 43.4414 100.064 42.1406V41.4375C100.064 39.9492 100.3 38.6016 100.774 37.3945C101.247 36.1875 101.905 35.1562 102.749 34.3008C103.593 33.4336 104.59 32.7715 105.741 32.3145C106.892 31.8574 108.139 31.6289 109.481 31.6289C110.964 31.6289 112.262 31.8574 113.375 32.3145C114.487 32.7715 115.408 33.416 116.137 34.248C116.878 35.0684 117.428 36.0469 117.786 37.1836C118.157 38.3203 118.342 39.5742 118.342 40.9453V42.7559H102.308V39.7148H113.777V39.3809C113.752 38.6191 113.586 37.9043 113.279 37.2363C112.985 36.5684 112.531 36.0293 111.917 35.6191C111.303 35.209 110.485 35.0039 109.462 35.0039C108.695 35.0039 108.011 35.1562 107.41 35.4609C106.822 35.7539 106.329 36.1816 105.933 36.7441C105.536 37.3066 105.23 37.9863 105.012 38.7832C104.808 39.5684 104.705 40.4531 104.705 41.4375V42.1406C104.705 42.9727 104.827 43.7461 105.07 44.4609C105.326 45.1641 105.696 45.7793 106.182 46.3066C106.668 46.834 107.256 47.25 107.947 47.5547C108.637 47.8477 109.424 47.9941 110.306 47.9941C111.418 47.9941 112.409 47.7891 113.279 47.3789C114.148 46.9688 114.903 46.3887 115.542 45.6387L117.978 47.8008C117.53 48.3984 116.948 48.9727 116.232 49.5234C115.516 50.0625 114.641 50.502 113.605 50.8418C112.582 51.1816 111.393 51.3516 110.037 51.3516Z" fill="white"/>
<path d="M127.318 36.041V51H122.695V31.9805H127.049L127.318 36.041ZM126.493 40.7871L124.997 40.7695C125.01 39.4219 125.214 38.1855 125.611 37.0605C126.02 35.9355 126.582 34.9688 127.298 34.1602C128.027 33.3516 128.897 32.7305 129.907 32.2969C130.917 31.8516 132.042 31.6289 133.283 31.6289C134.28 31.6289 135.181 31.7578 135.987 32.0156C136.805 32.2617 137.502 32.666 138.077 33.2285C138.666 33.791 139.113 34.5234 139.42 35.4258C139.727 36.3164 139.88 37.4121 139.88 38.7129V51H135.239V38.6953C135.239 37.7812 135.092 37.0605 134.798 36.5332C134.516 35.9941 134.101 35.6133 133.551 35.3906C133.014 35.1562 132.343 35.0391 131.537 35.0391C130.744 35.0391 130.035 35.1914 129.408 35.4961C128.782 35.8008 128.251 36.2168 127.816 36.7441C127.394 37.2715 127.068 37.8809 126.838 38.5723C126.608 39.2637 126.493 40.002 126.493 40.7871Z" fill="white"/>
<path d="M158.043 47.0625V24H162.684V51H158.484L158.043 47.0625ZM144.54 41.7012V41.332C144.54 39.8906 144.726 38.5781 145.097 37.3945C145.467 36.1992 146.004 35.1738 146.708 34.3184C147.411 33.4512 148.268 32.7891 149.278 32.332C150.288 31.8633 151.426 31.6289 152.692 31.6289C153.945 31.6289 155.044 31.8516 155.991 32.2969C156.937 32.7422 157.742 33.3809 158.407 34.2129C159.072 35.0332 159.603 36.0176 159.999 37.166C160.396 38.3027 160.677 39.5684 160.843 40.9629V42.1406C160.677 43.5 160.396 44.7422 159.999 45.8672C159.603 46.9922 159.072 47.9648 158.407 48.7852C157.742 49.6055 156.93 50.2383 155.971 50.6836C155.025 51.1289 153.919 51.3516 152.653 51.3516C151.4 51.3516 150.269 51.1113 149.259 50.6309C148.261 50.1504 147.411 49.4766 146.708 48.6094C146.004 47.7422 145.467 46.7227 145.097 45.5508C144.726 44.3672 144.54 43.084 144.54 41.7012ZM149.163 41.332V41.7012C149.163 42.5684 149.246 43.377 149.412 44.127C149.591 44.877 149.866 45.5391 150.237 46.1133C150.608 46.6758 151.087 47.1211 151.675 47.4492C152.276 47.7656 152.992 47.9238 153.823 47.9238C154.872 47.9238 155.735 47.7129 156.413 47.291C157.09 46.8691 157.621 46.3008 158.005 45.5859C158.401 44.8594 158.669 44.0508 158.81 43.1602V39.9785C158.733 39.2871 158.574 38.6426 158.331 38.0449C158.1 37.4473 157.787 36.9258 157.391 36.4805C156.994 36.0234 156.502 35.6719 155.914 35.4258C155.339 35.168 154.654 35.0391 153.862 35.0391C153.018 35.0391 152.302 35.2031 151.714 35.5312C151.125 35.8594 150.639 36.3105 150.256 36.8848C149.885 37.459 149.61 38.127 149.431 38.8887C149.252 39.6504 149.163 40.4648 149.163 41.332Z" fill="white"/>
<path d="M179.945 45.8496C179.945 45.4277 179.83 45.0469 179.6 44.707C179.37 44.3555 178.929 44.0391 178.277 43.7578C177.637 43.4766 176.691 43.2188 175.438 42.9844C174.339 42.7617 173.328 42.498 172.408 42.1934C171.5 41.877 170.72 41.4961 170.068 41.0508C169.416 40.6055 168.911 40.0781 168.553 39.4688C168.195 38.8594 168.016 38.1562 168.016 37.3594C168.016 36.5859 168.201 35.8535 168.572 35.1621C168.943 34.4707 169.473 33.8613 170.164 33.334C170.854 32.8066 171.692 32.3906 172.676 32.0859C173.674 31.7812 174.786 31.6289 176.014 31.6289C177.753 31.6289 179.242 31.8984 180.482 32.4375C181.736 32.9648 182.695 33.6855 183.359 34.5996C184.024 35.502 184.357 36.5215 184.357 37.6582H179.734C179.734 37.1543 179.594 36.6855 179.313 36.252C179.044 35.8066 178.635 35.4492 178.085 35.1797C177.535 34.8984 176.845 34.7578 176.014 34.7578C175.221 34.7578 174.562 34.875 174.038 35.1094C173.527 35.332 173.143 35.625 172.887 35.9883C172.644 36.3516 172.523 36.75 172.523 37.1836C172.523 37.5 172.587 37.7871 172.715 38.0449C172.855 38.291 173.085 38.5195 173.405 38.7305C173.725 38.9297 174.16 39.1172 174.709 39.293C175.272 39.4688 175.975 39.6387 176.819 39.8027C178.405 40.1074 179.766 40.5 180.904 40.9805C182.055 41.4492 182.938 42.0586 183.551 42.8086C184.165 43.5469 184.472 44.4844 184.472 45.6211C184.472 46.4648 184.274 47.2383 183.877 47.9414C183.494 48.6328 182.931 49.2363 182.189 49.752C181.448 50.2559 180.559 50.6484 179.524 50.9297C178.501 51.2109 177.35 51.3516 176.071 51.3516C174.192 51.3516 172.6 51.0469 171.295 50.4375C169.991 49.8164 169 49.0254 168.322 48.0645C167.658 47.0918 167.325 46.084 167.325 45.041H171.794C171.845 45.8262 172.082 46.4531 172.504 46.9219C172.938 47.3789 173.475 47.7129 174.115 47.9238C174.767 48.123 175.438 48.2227 176.129 48.2227C176.96 48.2227 177.657 48.123 178.219 47.9238C178.782 47.7129 179.21 47.4316 179.504 47.0801C179.798 46.7168 179.945 46.3066 179.945 45.8496Z" fill="white"/>
<path d="M189.496 48.8906C189.496 48.2344 189.739 47.6836 190.225 47.2383C190.711 46.7812 191.369 46.5527 192.201 46.5527C193.045 46.5527 193.703 46.7812 194.176 47.2383C194.662 47.6836 194.905 48.2344 194.905 48.8906C194.905 49.5469 194.662 50.0977 194.176 50.543C193.703 50.9883 193.045 51.2109 192.201 51.2109C191.369 51.2109 190.711 50.9883 190.225 50.543C189.739 50.0977 189.496 49.5469 189.496 48.8906Z" fill="white"/>
<path d="M207.774 47.6426L212.856 31.9805H217.651L210.44 51H207.448L207.774 47.6426ZM203.88 31.9805L209.059 47.7129L209.308 51H206.316L199.066 31.9805H203.88Z" fill="white"/>
<path d="M229.504 47.9766C230.258 47.9766 230.936 47.8418 231.537 47.5723C232.151 47.291 232.643 46.9043 233.014 46.4121C233.397 45.9199 233.608 45.3516 233.647 44.707H238C237.975 45.9375 237.578 47.0566 236.811 48.0645C236.044 49.0723 235.028 49.875 233.762 50.4727C232.496 51.0586 231.096 51.3516 229.561 51.3516C227.976 51.3516 226.595 51.1055 225.419 50.6133C224.242 50.1094 223.264 49.418 222.484 48.5391C221.704 47.6602 221.116 46.6465 220.719 45.498C220.336 44.3496 220.144 43.1191 220.144 41.8066V41.1914C220.144 39.8789 220.336 38.6484 220.719 37.5C221.116 36.3398 221.704 35.3203 222.484 34.4414C223.264 33.5625 224.242 32.877 225.419 32.3848C226.595 31.8809 227.969 31.6289 229.542 31.6289C231.204 31.6289 232.662 31.9336 233.915 32.543C235.168 33.1406 236.153 33.9785 236.869 35.0566C237.598 36.123 237.975 37.3652 238 38.7832H233.647C233.608 38.0801 233.416 37.4473 233.071 36.8848C232.739 36.3105 232.266 35.8535 231.652 35.5137C231.051 35.1738 230.329 35.0039 229.485 35.0039C228.551 35.0039 227.778 35.1797 227.164 35.5312C226.55 35.8711 226.071 36.3398 225.725 36.9375C225.38 37.5234 225.131 38.1855 224.977 38.9238C224.837 39.6504 224.766 40.4062 224.766 41.1914V41.8066C224.766 42.5918 224.837 43.3535 224.977 44.0918C225.118 44.8301 225.361 45.4922 225.706 46.0781C226.064 46.6523 226.55 47.1152 227.164 47.4668C227.778 47.8066 228.558 47.9766 229.504 47.9766Z" fill="white"/>
<rect x="18" y="21" width="36.0069" height="35" fill="white"/>
<path d="M21.2733 52.5L27.82 45L38.1856 47.5L49.0968 25" stroke="black" stroke-width="2" stroke-linecap="round"/>
</svg>
