<svg width="140" height="37" viewBox="0 0 140 37" fill="none" xmlns="http://www.w3.org/2000/svg">
<g clip-path="url(#clip0_4452_19755)">
<g filter="url(#filter0_dd_4452_19755)">
<path d="M26.2259 2.07324H10.7989C6.61868 2.07324 3.22998 5.46194 3.22998 9.64211V25.0691C3.22998 29.2493 6.61868 32.638 10.7989 32.638H26.2259C30.406 32.638 33.7947 29.2493 33.7947 25.0691V9.64211C33.7947 5.46194 30.406 2.07324 26.2259 2.07324Z" fill="white"/>
<path d="M26.2259 2.07324H10.7989C6.61868 2.07324 3.22998 5.46194 3.22998 9.64211V25.0691C3.22998 29.2493 6.61868 32.638 10.7989 32.638H26.2259C30.406 32.638 33.7947 29.2493 33.7947 25.0691V9.64211C33.7947 5.46194 30.406 2.07324 26.2259 2.07324Z" fill="url(#paint0_linear_4452_19755)"/>
<path fill-rule="evenodd" clip-rule="evenodd" d="M18.5124 3.89421C11.078 3.89421 5.05122 9.921 5.05122 17.3554C5.05122 24.7898 11.078 30.8166 18.5124 30.8166C25.9468 30.8166 31.9736 24.7898 31.9736 17.3554C31.9736 9.921 25.9468 3.89421 18.5124 3.89421ZM4.97632 17.3554C4.97632 9.87966 11.0366 3.81934 18.5124 3.81934C25.9882 3.81934 32.0485 9.87966 32.0485 17.3554C32.0485 24.8312 25.9882 30.8915 18.5124 30.8915C11.0366 30.8915 4.97632 24.8312 4.97632 17.3554Z" fill="#D0D5DD"/>
<path fill-rule="evenodd" clip-rule="evenodd" d="M18.5125 13.5739C16.4238 13.5739 14.7307 15.2671 14.7307 17.3558C14.7307 19.4444 16.4238 21.1376 18.5125 21.1376C20.6012 21.1376 22.2944 19.4444 22.2944 17.3558C22.2944 15.2671 20.6012 13.5739 18.5125 13.5739ZM14.6558 17.3558C14.6558 15.2258 16.3825 13.499 18.5125 13.499C20.6425 13.499 22.3693 15.2258 22.3693 17.3558C22.3693 19.4858 20.6425 21.2125 18.5125 21.2125C16.3825 21.2125 14.6558 19.4858 14.6558 17.3558Z" fill="#D0D5DD"/>
<path fill-rule="evenodd" clip-rule="evenodd" d="M18.5125 14.7722C17.0856 14.7722 15.9289 15.9289 15.9289 17.3558C15.9289 18.7827 17.0856 19.9394 18.5125 19.9394C19.9394 19.9394 21.0962 18.7827 21.0962 17.3558C21.0962 15.9289 19.9394 14.7722 18.5125 14.7722ZM15.854 17.3558C15.854 15.8875 17.0442 14.6973 18.5125 14.6973C19.9808 14.6973 21.1711 15.8875 21.1711 17.3558C21.1711 18.8241 19.9808 20.0143 18.5125 20.0143C17.0442 20.0143 15.854 18.8241 15.854 17.3558Z" fill="#D0D5DD"/>
<path d="M18.4751 1.92871H18.55V32.7827H18.4751V1.92871Z" fill="#D0D5DD"/>
<path d="M33.9394 17.3184V17.3933H3.08545V17.3184H33.9394Z" fill="#D0D5DD"/>
<path d="M28.7346 1.92871H28.8095V32.7827H28.7346V1.92871Z" fill="#D0D5DD"/>
<path d="M13.3452 1.92871H13.4201V32.7827H13.3452V1.92871Z" fill="#D0D5DD"/>
<path d="M23.605 1.92871H23.6799V32.7827H23.605V1.92871Z" fill="#D0D5DD"/>
<path d="M8.21533 1.92871H8.29023V32.7827H8.21533V1.92871Z" fill="#D0D5DD"/>
<path d="M33.9394 27.5771V27.652H3.08545V27.5771H33.9394Z" fill="#D0D5DD"/>
<path d="M33.9394 12.1885V12.2633H3.08545V12.1885H33.9394Z" fill="#D0D5DD"/>
<path d="M33.9394 22.4482V22.5231H3.08545V22.4482H33.9394Z" fill="#D0D5DD"/>
<path d="M33.9394 7.05859V7.13349H3.08545V7.05859H33.9394Z" fill="#D0D5DD"/>
<g filter="url(#filter1_dd_4452_19755)">
<path d="M18.5123 25.0696C22.7724 25.0696 26.2258 21.6161 26.2258 17.3561C26.2258 13.096 22.7724 9.64258 18.5123 9.64258C14.2523 9.64258 10.7988 13.096 10.7988 17.3561C10.7988 21.6161 14.2523 25.0696 18.5123 25.0696Z" fill="url(#paint1_linear_4452_19755)"/>
</g>
<path d="M3.08545 17.3555H33.9394V20.4409C33.9394 24.7608 33.9394 26.9208 33.0987 28.5708C32.3592 30.0222 31.1792 31.2022 29.7278 31.9417C28.0778 32.7825 25.9178 32.7825 21.5978 32.7825H15.427C11.1071 32.7825 8.94709 32.7825 7.2971 31.9417C5.84569 31.2022 4.66568 30.0222 3.92618 28.5708C3.08545 26.9208 3.08545 24.7608 3.08545 20.4409V17.3555Z" fill="white" fill-opacity="0.2"/>
<path d="M26.2259 2.07324H10.7989C6.61868 2.07324 3.22998 5.46194 3.22998 9.64211V25.0691C3.22998 29.2493 6.61868 32.638 10.7989 32.638H26.2259C30.406 32.638 33.7947 29.2493 33.7947 25.0691V9.64211C33.7947 5.46194 30.406 2.07324 26.2259 2.07324Z" stroke="#D0D5DD" stroke-width="0.75"/>
</g>
<path d="M52.2623 10.0801H54.8031V19.2426C54.8031 20.2469 54.5656 21.1303 54.0908 21.8927C53.6207 22.6551 52.9585 23.2509 52.105 23.68C51.2511 24.1046 50.2537 24.3169 49.1125 24.3169C47.9663 24.3169 46.9666 24.1046 46.1131 23.68C45.2592 23.2509 44.5974 22.6551 44.1269 21.8927C43.6568 21.1303 43.4219 20.2469 43.4219 19.2426V10.0801H45.9623V19.0303C45.9623 19.6147 46.09 20.1351 46.3457 20.5916C46.606 21.0481 46.9712 21.4065 47.4414 21.6668C47.9115 21.9224 48.4688 22.0502 49.1125 22.0502C49.7562 22.0502 50.3131 21.9224 50.7833 21.6668C51.258 21.4065 51.6233 21.0481 51.879 20.5916C52.1347 20.1351 52.2623 19.6147 52.2623 19.0303V10.0801Z" fill="#623FBA"/>
<path d="M59.934 17.9414V24.1046H57.4548V13.5862H59.8244V15.3735H59.9478C60.1897 14.7845 60.5753 14.3166 61.1049 13.9696C61.639 13.6227 62.2989 13.4492 63.0841 13.4492C63.81 13.4492 64.4421 13.6044 64.9809 13.9148C65.5243 14.2253 65.9443 14.675 66.2409 15.2639C66.5421 15.8528 66.6906 16.5673 66.686 17.4073V24.1046H64.2072V17.7908C64.2072 17.0877 64.0244 16.5376 63.6592 16.1404C63.2986 15.7433 62.7987 15.5447 62.1597 15.5447C61.7258 15.5447 61.3401 15.6405 61.0023 15.8323C60.669 16.0194 60.4064 16.2911 60.2147 16.6472C60.0277 17.0033 59.934 17.4347 59.934 17.9414Z" fill="#623FBA"/>
<path d="M74.4585 13.5864V15.5039H68.4119V13.5864H74.4585ZM69.9044 11.0664H72.3835V20.9411C72.3835 21.2744 72.4337 21.53 72.534 21.7081C72.6392 21.8815 72.7762 22.0003 72.9451 22.0642C73.114 22.1281 73.3011 22.16 73.5066 22.16C73.6617 22.16 73.8032 22.1486 73.9313 22.1258C74.0635 22.103 74.1638 22.0824 74.2325 22.0642L74.6502 24.0021C74.5179 24.0478 74.3281 24.098 74.0817 24.1528C73.8399 24.2075 73.5429 24.2395 73.1915 24.2487C72.5706 24.2669 72.0114 24.1733 71.5138 23.9679C71.0163 23.7579 70.6214 23.4337 70.3291 22.9955C70.0413 22.5572 69.8998 22.0094 69.9044 21.352V11.0664Z" fill="#623FBA"/>
<path d="M76.5315 24.1048V13.5865H79.0106V24.1048H76.5315ZM77.778 12.0936C77.3854 12.0936 77.0476 11.9635 76.7645 11.7032C76.4814 11.4385 76.3398 11.1212 76.3398 10.7514C76.3398 10.3771 76.4814 10.0598 76.7645 9.79955C77.0476 9.53475 77.3854 9.40234 77.778 9.40234C78.1753 9.40234 78.5131 9.53475 78.7916 9.79955C79.0747 10.0598 79.2162 10.3771 79.2162 10.7514C79.2162 11.1212 79.0747 11.4385 78.7916 11.7032C78.5131 11.9635 78.1753 12.0936 77.778 12.0936Z" fill="#623FBA"/>
<path d="M86.812 13.5864V15.5039H80.7654V13.5864H86.812ZM82.2583 11.0664H84.7371V20.9411C84.7371 21.2744 84.7872 21.53 84.8879 21.7081C84.9928 21.8815 85.1297 22.0003 85.2986 22.0642C85.4675 22.1281 85.6546 22.16 85.8601 22.16C86.0156 22.16 86.1567 22.1486 86.2848 22.1258C86.4171 22.103 86.5177 22.0824 86.586 22.0642L87.0037 24.0021C86.8714 24.0478 86.682 24.098 86.4356 24.1528C86.1934 24.2075 85.8968 24.2395 85.5451 24.2487C84.9241 24.2669 84.3649 24.1733 83.8674 23.9679C83.3698 23.7579 82.9749 23.4337 82.6826 22.9955C82.3952 22.5572 82.2537 22.0094 82.2583 21.352V11.0664Z" fill="#623FBA"/>
<path d="M91.5901 10.0801V24.1046H89.1113V10.0801H91.5901Z" fill="#623FBA"/>
<path d="M98.7962 24.31C97.7413 24.31 96.8307 24.0909 96.0636 23.6526C95.3012 23.2098 94.7146 22.5843 94.3038 21.7763C93.8927 20.9637 93.6875 20.0072 93.6875 18.907C93.6875 17.825 93.8927 16.8754 94.3038 16.0583C94.7192 15.2365 95.2989 14.5974 96.0432 14.1408C96.7872 13.6797 97.6615 13.4492 98.6658 13.4492C99.3141 13.4492 99.9258 13.5542 100.501 13.7642C101.081 13.9696 101.592 14.2892 102.035 14.7229C102.482 15.1566 102.834 15.709 103.089 16.3801C103.345 17.0466 103.473 17.841 103.473 18.7632V19.5233H94.8515V17.8524H101.097C101.092 17.3776 100.989 16.9554 100.789 16.5855C100.588 16.2112 100.307 15.9167 99.9462 15.7022C99.5903 15.4876 99.1749 15.3803 98.7001 15.3803C98.1933 15.3803 97.7483 15.5036 97.3649 15.7501C96.9812 15.9921 96.6823 16.3116 96.4678 16.7088C96.2576 17.1014 96.1504 17.5329 96.1458 18.0031V19.4617C96.1458 20.0734 96.2576 20.5984 96.4813 21.0367C96.705 21.4704 97.0178 21.8037 97.4197 22.0365C97.8212 22.2647 98.2917 22.3789 98.8301 22.3789C99.1907 22.3789 99.5174 22.3287 99.8093 22.2282C100.102 22.1232 100.355 21.9703 100.569 21.7694C100.784 21.5686 100.946 21.3197 101.056 21.023L103.37 21.2832C103.224 21.895 102.946 22.4291 102.535 22.8856C102.129 23.3376 101.608 23.6891 100.974 23.9402C100.339 24.1868 99.613 24.31 98.7962 24.31Z" fill="#623FBA"/>
<path d="M109.474 24.2895C108.647 24.2895 107.908 24.0772 107.255 23.6526C106.602 23.2281 106.086 22.6117 105.707 21.8037C105.328 20.9956 105.139 20.0141 105.139 18.8591C105.139 17.6904 105.331 16.7043 105.714 15.9008C106.102 15.0927 106.625 14.4833 107.282 14.0724C107.94 13.6569 108.672 13.4493 109.48 13.4493C110.097 13.4493 110.604 13.5542 111.001 13.7642C111.398 13.9697 111.713 14.2185 111.946 14.5107C112.179 14.7983 112.359 15.0699 112.487 15.3256H112.589V10.0801H115.075V24.1046H112.637V22.4474H112.487C112.359 22.7031 112.174 22.9747 111.932 23.2623C111.69 23.5453 111.37 23.7873 110.973 23.9882C110.576 24.1891 110.076 24.2895 109.474 24.2895ZM110.165 22.2557C110.69 22.2557 111.138 22.1141 111.507 21.8311C111.877 21.5435 112.158 21.144 112.35 20.6327C112.542 20.1214 112.637 19.5256 112.637 18.8454C112.637 18.1652 112.542 17.574 112.35 17.0718C112.162 16.5696 111.884 16.1793 111.514 15.9008C111.149 15.6223 110.699 15.4831 110.165 15.4831C109.613 15.4831 109.152 15.6269 108.782 15.9145C108.412 16.2021 108.134 16.5993 107.947 17.106C107.759 17.6128 107.666 18.1926 107.666 18.8454C107.666 19.5028 107.759 20.0894 107.947 20.6053C108.138 21.1166 108.419 21.5207 108.789 21.8174C109.163 22.1096 109.622 22.2557 110.165 22.2557Z" fill="#623FBA"/>
<path d="M131.45 10.0801H133.991V19.2426C133.991 20.2469 133.753 21.1303 133.279 21.8927C132.808 22.6551 132.147 23.2509 131.293 23.68C130.439 24.1046 129.441 24.3169 128.3 24.3169C127.154 24.3169 126.154 24.1046 125.301 23.68C124.447 23.2509 123.785 22.6551 123.315 21.8927C122.845 21.1303 122.61 20.2469 122.61 19.2426V10.0801H125.15V19.0303C125.15 19.6147 125.278 20.1351 125.534 20.5916C125.794 21.0481 126.159 21.4065 126.629 21.6668C127.1 21.9224 127.657 22.0502 128.3 22.0502C128.944 22.0502 129.501 21.9224 129.971 21.6668C130.446 21.4065 130.811 21.0481 131.067 20.5916C131.322 20.1351 131.45 19.6147 131.45 19.0303V10.0801Z" fill="#623FBA"/>
<path d="M139.293 10.0801V24.1046H136.752V10.0801H139.293Z" fill="#623FBA"/>
</g>
<defs>
<filter id="filter0_dd_4452_19755" x="-4.64502" y="-3.30176" width="46.3147" height="46.3145" filterUnits="userSpaceOnUse" color-interpolation-filters="sRGB">
<feFlood flood-opacity="0" result="BackgroundImageFix"/>
<feColorMatrix in="SourceAlpha" type="matrix" values="0 0 0 0 0 0 0 0 0 0 0 0 0 0 0 0 0 0 127 0" result="hardAlpha"/>
<feOffset dy="2.5"/>
<feGaussianBlur stdDeviation="2.5"/>
<feColorMatrix type="matrix" values="0 0 0 0 0.0627451 0 0 0 0 0.0941176 0 0 0 0 0.156863 0 0 0 0.06 0"/>
<feBlend mode="normal" in2="BackgroundImageFix" result="effect1_dropShadow_4452_19755"/>
<feColorMatrix in="SourceAlpha" type="matrix" values="0 0 0 0 0 0 0 0 0 0 0 0 0 0 0 0 0 0 127 0" result="hardAlpha"/>
<feOffset dy="2.5"/>
<feGaussianBlur stdDeviation="3.75"/>
<feColorMatrix type="matrix" values="0 0 0 0 0.0627451 0 0 0 0 0.0941176 0 0 0 0 0.156863 0 0 0 0.1 0"/>
<feBlend mode="normal" in2="effect1_dropShadow_4452_19755" result="effect2_dropShadow_4452_19755"/>
<feBlend mode="normal" in="SourceGraphic" in2="effect2_dropShadow_4452_19755" result="shape"/>
</filter>
<filter id="filter1_dd_4452_19755" x="3.29883" y="4.64258" width="30.427" height="30.4268" filterUnits="userSpaceOnUse" color-interpolation-filters="sRGB">
<feFlood flood-opacity="0" result="BackgroundImageFix"/>
<feColorMatrix in="SourceAlpha" type="matrix" values="0 0 0 0 0 0 0 0 0 0 0 0 0 0 0 0 0 0 127 0" result="hardAlpha"/>
<feOffset dy="2.5"/>
<feGaussianBlur stdDeviation="2.5"/>
<feColorMatrix type="matrix" values="0 0 0 0 0.0627451 0 0 0 0 0.0941176 0 0 0 0 0.156863 0 0 0 0.06 0"/>
<feBlend mode="normal" in2="BackgroundImageFix" result="effect1_dropShadow_4452_19755"/>
<feColorMatrix in="SourceAlpha" type="matrix" values="0 0 0 0 0 0 0 0 0 0 0 0 0 0 0 0 0 0 127 0" result="hardAlpha"/>
<feOffset dy="2.5"/>
<feGaussianBlur stdDeviation="3.75"/>
<feColorMatrix type="matrix" values="0 0 0 0 0.0627451 0 0 0 0 0.0941176 0 0 0 0 0.156863 0 0 0 0.1 0"/>
<feBlend mode="normal" in2="effect1_dropShadow_4452_19755" result="effect2_dropShadow_4452_19755"/>
<feBlend mode="normal" in="SourceGraphic" in2="effect2_dropShadow_4452_19755" result="shape"/>
</filter>
<linearGradient id="paint0_linear_4452_19755" x1="18.5124" y1="1.92861" x2="18.5124" y2="32.7826" gradientUnits="userSpaceOnUse">
<stop stop-color="white"/>
<stop offset="1" stop-color="#D0D5DD"/>
</linearGradient>
<linearGradient id="paint1_linear_4452_19755" x1="14.6556" y1="25.0696" x2="22.3691" y2="9.64258" gradientUnits="userSpaceOnUse">
<stop stop-color="#53389E"/>
<stop offset="1" stop-color="#6941C6"/>
</linearGradient>
<clipPath id="clip0_4452_19755">
<rect width="140" height="36.6391" fill="white"/>
</clipPath>
</defs>
</svg>
