<svg width="256" height="78" viewBox="0 0 256 78" fill="none" xmlns="http://www.w3.org/2000/svg">
<g clip-path="url(#clip0_8311_31821)">
<g filter="url(#filter0_dd_8311_31821)">
<path d="M57.2106 13.2578H32.9682C26.3993 13.2578 21.0742 18.5829 21.0742 25.1518V49.3942C21.0742 55.963 26.3993 61.2881 32.9682 61.2881H57.2106C63.7794 61.2881 69.1045 55.963 69.1045 49.3942V25.1518C69.1045 18.5829 63.7794 13.2578 57.2106 13.2578Z" fill="white"/>
<path d="M57.2106 13.2578H32.9682C26.3993 13.2578 21.0742 18.5829 21.0742 25.1518V49.3942C21.0742 55.963 26.3993 61.2881 32.9682 61.2881H57.2106C63.7794 61.2881 69.1045 55.963 69.1045 49.3942V25.1518C69.1045 18.5829 63.7794 13.2578 57.2106 13.2578Z" fill="url(#paint0_linear_8311_31821)"/>
<path fill-rule="evenodd" clip-rule="evenodd" d="M45.0893 16.1194C33.4067 16.1194 23.9361 25.59 23.9361 37.2726C23.9361 48.9553 33.4067 58.426 45.0893 58.426C56.7719 58.426 66.2426 48.9553 66.2426 37.2726C66.2426 25.59 56.7719 16.1194 45.0893 16.1194ZM23.8184 37.2726C23.8184 25.5251 33.3417 16.0017 45.0893 16.0017C56.837 16.0017 66.3603 25.5251 66.3603 37.2726C66.3603 49.0203 56.837 58.5436 45.0893 58.5436C33.3417 58.5436 23.8184 49.0203 23.8184 37.2726Z" fill="#D0D5DD"/>
<path fill-rule="evenodd" clip-rule="evenodd" d="M45.0899 31.3306C41.8077 31.3306 39.147 33.9913 39.147 37.2735C39.147 40.5557 41.8077 43.2164 45.0899 43.2164C48.3721 43.2164 51.0328 40.5557 51.0328 37.2735C51.0328 33.9913 48.3721 31.3306 45.0899 31.3306ZM39.0293 37.2735C39.0293 33.9263 41.7428 31.2129 45.0899 31.2129C48.4371 31.2129 51.1505 33.9263 51.1505 37.2735C51.1505 40.6207 48.4371 43.3341 45.0899 43.3341C41.7428 43.3341 39.0293 40.6207 39.0293 37.2735Z" fill="#D0D5DD"/>
<path fill-rule="evenodd" clip-rule="evenodd" d="M45.0898 33.2123C42.8475 33.2123 41.0297 35.03 41.0297 37.2723C41.0297 39.5146 42.8475 41.3323 45.0898 41.3323C47.332 41.3323 49.1498 39.5146 49.1498 37.2723C49.1498 35.03 47.332 33.2123 45.0898 33.2123ZM40.9121 37.2723C40.9121 34.965 42.7825 33.0946 45.0898 33.0946C47.3971 33.0946 49.2675 34.965 49.2675 37.2723C49.2675 39.5796 47.3971 41.45 45.0898 41.45C42.7825 41.45 40.9121 39.5796 40.9121 37.2723Z" fill="#D0D5DD"/>
<path d="M45.0312 13.0303H45.1489V61.5151H45.0312V13.0303Z" fill="#D0D5DD"/>
<path d="M69.3325 37.2139V37.3316H20.8477V37.2139H69.3325Z" fill="#D0D5DD"/>
<path d="M61.1523 13.0303H61.27V61.5151H61.1523V13.0303Z" fill="#D0D5DD"/>
<path d="M36.9688 13.0303H37.0864V61.5151H36.9688V13.0303Z" fill="#D0D5DD"/>
<path d="M53.0938 13.0303H53.2114V61.5151H53.0938V13.0303Z" fill="#D0D5DD"/>
<path d="M28.9102 13.0303H29.0279V61.5151H28.9102V13.0303Z" fill="#D0D5DD"/>
<path d="M69.3325 53.3359V53.4536H20.8477V53.3359H69.3325Z" fill="#D0D5DD"/>
<path d="M69.3325 29.1525V29.2701H20.8477V29.1525H69.3325Z" fill="#D0D5DD"/>
<path d="M69.3325 45.2745V45.3922H20.8477V45.2745H69.3325Z" fill="#D0D5DD"/>
<path d="M69.3325 21.0918V21.2095H20.8477V21.0918H69.3325Z" fill="#D0D5DD"/>
<g filter="url(#filter1_dd_8311_31821)">
<path d="M45.0901 49.3939C51.7844 49.3939 57.2113 43.9671 57.2113 37.2727C57.2113 30.5783 51.7844 25.1515 45.0901 25.1515C38.3957 25.1515 32.9689 30.5783 32.9689 37.2727C32.9689 43.9671 38.3957 49.3939 45.0901 49.3939Z" fill="#1A202C"/>
</g>
<path d="M20.8477 37.2727H69.3325V42.1212C69.3325 48.9097 69.3325 52.304 68.0114 54.8968C66.8493 57.1776 64.9949 59.0319 62.7142 60.194C60.1214 61.5151 56.7271 61.5151 49.9386 61.5151H40.2416C33.4531 61.5151 30.0588 61.5151 27.466 60.194C25.1852 59.0319 23.3309 57.1776 22.1688 54.8968C20.8477 52.304 20.8477 48.9097 20.8477 42.1212V37.2727Z" fill="white" fill-opacity="0.2"/>
<path d="M57.2106 13.2578H32.9682C26.3993 13.2578 21.0742 18.5829 21.0742 25.1518V49.3942C21.0742 55.963 26.3993 61.2881 32.9682 61.2881H57.2106C63.7794 61.2881 69.1045 55.963 69.1045 49.3942V25.1518C69.1045 18.5829 63.7794 13.2578 57.2106 13.2578Z" stroke="#D0D5DD" stroke-width="0.75"/>
</g>
<path d="M98.1265 25.8398H102.119V40.2381C102.119 41.8163 101.746 43.2045 101 44.4026C100.261 45.6006 99.2204 46.5368 97.8792 47.2112C96.5374 47.8784 94.9701 48.212 93.1768 48.212C91.3756 48.212 89.8047 47.8784 88.4635 47.2112C87.1217 46.5368 86.0816 45.6006 85.3423 44.4026C84.6035 43.2045 84.2344 41.8163 84.2344 40.2381V25.8398H88.2265V39.9044C88.2265 40.8228 88.4271 41.6406 88.8289 42.358C89.238 43.0754 89.812 43.6385 90.5507 44.0475C91.2895 44.4492 92.1653 44.6501 93.1768 44.6501C94.1883 44.6501 95.0635 44.4492 95.8023 44.0475C96.5483 43.6385 97.1223 43.0754 97.5241 42.358C97.9259 41.6406 98.1265 40.8228 98.1265 39.9044V25.8398Z" fill="white"/>
<path d="M110.181 38.1939V47.8788H106.285V31.3499H110.009V34.1585H110.203C110.583 33.233 111.189 32.4977 112.021 31.9525C112.86 31.4072 113.897 31.1346 115.131 31.1346C116.272 31.1346 117.265 31.3785 118.112 31.8663C118.966 32.3542 119.626 33.0608 120.092 33.9863C120.565 34.9117 120.798 36.0345 120.791 37.3545V47.8788H116.896V37.9571C116.896 36.8523 116.609 35.9879 116.035 35.3637C115.468 34.7396 114.683 34.4275 113.678 34.4275C112.997 34.4275 112.391 34.5782 111.86 34.8794C111.336 35.1736 110.923 35.6005 110.622 36.16C110.328 36.7196 110.181 37.3976 110.181 38.1939Z" fill="white"/>
<path d="M133.006 31.35V34.363H123.504V31.35H133.006ZM125.849 27.3899H129.745V42.9073C129.745 43.431 129.824 43.8327 129.981 44.1125C130.147 44.3851 130.362 44.5717 130.628 44.6721C130.893 44.7725 131.187 44.8227 131.51 44.8227C131.754 44.8227 131.976 44.8048 132.177 44.7689C132.385 44.733 132.543 44.7007 132.651 44.6721L133.307 47.7175C133.099 47.7892 132.801 47.8681 132.414 47.9542C132.034 48.0403 131.567 48.0905 131.015 48.1049C130.039 48.1335 129.16 47.9864 128.378 47.6637C127.597 47.3337 126.976 46.8243 126.517 46.1356C126.065 45.4469 125.842 44.586 125.849 43.5529V27.3899Z" fill="white"/>
<path d="M136.264 47.8784V31.3494H140.16V47.8784H136.264ZM138.223 29.0035C137.606 29.0035 137.075 28.7991 136.63 28.3901C136.185 27.9741 135.963 27.4754 135.963 26.8944C135.963 26.3061 136.185 25.8075 136.63 25.3986C137.075 24.9825 137.606 24.7744 138.223 24.7744C138.847 24.7744 139.378 24.9825 139.816 25.3986C140.26 25.8075 140.483 26.3061 140.483 26.8944C140.483 27.4754 140.26 27.9741 139.816 28.3901C139.378 28.7991 138.847 29.0035 138.223 29.0035Z" fill="white"/>
<path d="M152.418 31.35V34.363H142.916V31.35H152.418ZM145.262 27.3899H149.157V42.9073C149.157 43.431 149.236 43.8327 149.394 44.1125C149.559 44.3851 149.774 44.5717 150.04 44.6721C150.305 44.7725 150.599 44.8227 150.922 44.8227C151.166 44.8227 151.388 44.8048 151.589 44.7689C151.797 44.733 151.955 44.7007 152.063 44.6721L152.719 47.7175C152.511 47.7892 152.214 47.8681 151.826 47.9542C151.446 48.0403 150.98 48.0905 150.427 48.1049C149.451 48.1335 148.572 47.9864 147.791 47.6637C147.009 47.3337 146.388 46.8243 145.929 46.1356C145.477 45.4469 145.255 44.586 145.262 43.5529V27.3899Z" fill="white"/>
<path d="M159.926 25.8398V47.8784H156.031V25.8398H159.926Z" fill="white"/>
<path d="M171.251 48.2016C169.593 48.2016 168.162 47.8573 166.957 47.1685C165.758 46.4726 164.837 45.4898 164.191 44.22C163.545 42.9431 163.223 41.4401 163.223 39.7111C163.223 38.0109 163.545 36.5187 164.191 35.2346C164.844 33.9432 165.755 32.9389 166.924 32.2215C168.094 31.4969 169.468 31.1346 171.046 31.1346C172.064 31.1346 173.026 31.2996 173.93 31.6296C174.841 31.9525 175.644 32.4546 176.34 33.1362C177.043 33.8177 177.595 34.6857 177.997 35.7403C178.399 36.7877 178.6 38.036 178.6 39.4852V40.6796H165.052V38.054H174.866C174.859 37.3079 174.697 36.6443 174.381 36.0631C174.066 35.4749 173.625 35.0122 173.058 34.675C172.498 34.3378 171.846 34.1692 171.1 34.1692C170.303 34.1692 169.604 34.3629 169.001 34.7503C168.398 35.1305 167.929 35.6327 167.592 36.2569C167.261 36.8738 167.093 37.5518 167.086 38.2907V40.5828C167.086 41.5441 167.261 42.3691 167.613 43.0578C167.964 43.7394 168.456 44.2631 169.088 44.6289C169.718 44.9876 170.458 45.167 171.304 45.167C171.871 45.167 172.384 45.0881 172.843 44.9302C173.302 44.7653 173.7 44.5249 174.037 44.2093C174.375 43.8936 174.629 43.5026 174.801 43.0363L178.438 43.4453C178.209 44.4065 177.771 45.2459 177.126 45.9633C176.488 46.6736 175.669 47.2259 174.672 47.6205C173.675 48.0079 172.534 48.2016 171.251 48.2016Z" fill="white"/>
<path d="M188.03 48.1689C186.732 48.1689 185.57 47.8354 184.544 47.1681C183.518 46.501 182.707 45.5324 182.111 44.2627C181.516 42.9929 181.219 41.4505 181.219 39.6354C181.219 37.7989 181.52 36.2493 182.122 34.9867C182.732 33.7169 183.554 32.7592 184.587 32.1135C185.62 31.4606 186.771 31.1343 188.041 31.1343C189.01 31.1343 189.806 31.2992 190.43 31.6292C191.054 31.9521 191.549 32.3431 191.915 32.8022C192.281 33.2541 192.564 33.681 192.765 34.0828H192.927V25.8398H196.833V47.8784H193.002V45.2742H192.765C192.564 45.676 192.274 46.1028 191.893 46.5548C191.513 46.9995 191.011 47.3798 190.387 47.6954C189.763 48.0111 188.978 48.1689 188.03 48.1689ZM189.117 44.9729C189.942 44.9729 190.645 44.7505 191.226 44.3057C191.807 43.8538 192.248 43.226 192.55 42.4226C192.851 41.6191 193.002 40.6829 193.002 39.6139C193.002 38.545 192.851 37.616 192.55 36.8268C192.256 36.0377 191.818 35.4243 191.237 34.9867C190.663 34.5491 189.956 34.3303 189.117 34.3303C188.249 34.3303 187.525 34.5563 186.944 35.0082C186.362 35.4601 185.925 36.0843 185.631 36.8806C185.336 37.6769 185.19 38.588 185.19 39.6139C185.19 40.647 185.336 41.5688 185.631 42.3795C185.932 43.183 186.373 43.8179 186.954 44.2842C187.542 44.7434 188.264 44.9729 189.117 44.9729Z" fill="white"/>
<path d="M222.564 25.8398H226.557V40.2381C226.557 41.8163 226.183 43.2045 225.437 44.4026C224.699 45.6006 223.659 46.5368 222.317 47.2112C220.976 47.8784 219.408 48.212 217.614 48.212C215.814 48.212 214.242 47.8784 212.901 47.2112C211.559 46.5368 210.519 45.6006 209.78 44.4026C209.042 43.2045 208.672 41.8163 208.672 40.2381V25.8398H212.664V39.9044C212.664 40.8228 212.865 41.6406 213.267 42.358C213.676 43.0754 214.249 43.6385 214.988 44.0475C215.728 44.4492 216.603 44.6501 217.614 44.6501C218.626 44.6501 219.501 44.4492 220.24 44.0475C220.986 43.6385 221.56 43.0754 221.962 42.358C222.363 41.6406 222.564 40.8228 222.564 39.9044V25.8398Z" fill="white"/>
<path d="M234.889 25.8398V47.8784H230.896V25.8398H234.889Z" fill="white"/>
</g>
<defs>
<filter id="filter0_dd_8311_31821" x="13.1992" y="7.88281" width="63.7803" height="63.7803" filterUnits="userSpaceOnUse" color-interpolation-filters="sRGB">
<feFlood flood-opacity="0" result="BackgroundImageFix"/>
<feColorMatrix in="SourceAlpha" type="matrix" values="0 0 0 0 0 0 0 0 0 0 0 0 0 0 0 0 0 0 127 0" result="hardAlpha"/>
<feOffset dy="2.5"/>
<feGaussianBlur stdDeviation="2.5"/>
<feColorMatrix type="matrix" values="0 0 0 0 0.0627451 0 0 0 0 0.0941176 0 0 0 0 0.156863 0 0 0 0.06 0"/>
<feBlend mode="normal" in2="BackgroundImageFix" result="effect1_dropShadow_8311_31821"/>
<feColorMatrix in="SourceAlpha" type="matrix" values="0 0 0 0 0 0 0 0 0 0 0 0 0 0 0 0 0 0 127 0" result="hardAlpha"/>
<feOffset dy="2.5"/>
<feGaussianBlur stdDeviation="3.75"/>
<feColorMatrix type="matrix" values="0 0 0 0 0.0627451 0 0 0 0 0.0941176 0 0 0 0 0.156863 0 0 0 0.1 0"/>
<feBlend mode="normal" in2="effect1_dropShadow_8311_31821" result="effect2_dropShadow_8311_31821"/>
<feBlend mode="normal" in="SourceGraphic" in2="effect2_dropShadow_8311_31821" result="shape"/>
</filter>
<filter id="filter1_dd_8311_31821" x="25.4689" y="20.1515" width="39.2424" height="39.2424" filterUnits="userSpaceOnUse" color-interpolation-filters="sRGB">
<feFlood flood-opacity="0" result="BackgroundImageFix"/>
<feColorMatrix in="SourceAlpha" type="matrix" values="0 0 0 0 0 0 0 0 0 0 0 0 0 0 0 0 0 0 127 0" result="hardAlpha"/>
<feOffset dy="2.5"/>
<feGaussianBlur stdDeviation="2.5"/>
<feColorMatrix type="matrix" values="0 0 0 0 0.0627451 0 0 0 0 0.0941176 0 0 0 0 0.156863 0 0 0 0.06 0"/>
<feBlend mode="normal" in2="BackgroundImageFix" result="effect1_dropShadow_8311_31821"/>
<feColorMatrix in="SourceAlpha" type="matrix" values="0 0 0 0 0 0 0 0 0 0 0 0 0 0 0 0 0 0 127 0" result="hardAlpha"/>
<feOffset dy="2.5"/>
<feGaussianBlur stdDeviation="3.75"/>
<feColorMatrix type="matrix" values="0 0 0 0 0.0627451 0 0 0 0 0.0941176 0 0 0 0 0.156863 0 0 0 0.1 0"/>
<feBlend mode="normal" in2="effect1_dropShadow_8311_31821" result="effect2_dropShadow_8311_31821"/>
<feBlend mode="normal" in="SourceGraphic" in2="effect2_dropShadow_8311_31821" result="shape"/>
</filter>
<linearGradient id="paint0_linear_8311_31821" x1="45.0894" y1="13.0305" x2="45.0894" y2="61.5154" gradientUnits="userSpaceOnUse">
<stop stop-color="white"/>
<stop offset="1" stop-color="#D0D5DD"/>
</linearGradient>
<clipPath id="clip0_8311_31821">
<rect width="220" height="57.5758" fill="white" transform="translate(16 10)"/>
</clipPath>
</defs>
</svg>
