<svg width="75" height="72" viewBox="0 0 75 72" fill="none" xmlns="http://www.w3.org/2000/svg">
<path d="M0.676408 64.3234C0.302732 64.5021 0.144685 64.9499 0.323399 65.3236L3.23572 71.413C3.41444 71.7867 3.86224 71.9447 4.23592 71.766C4.60959 71.5873 4.76764 71.1395 4.58893 70.7658L2.00019 65.353L7.413 62.7643C7.78667 62.5856 7.94472 62.1378 7.76601 61.7641C7.58729 61.3904 7.13949 61.2324 6.76581 61.4111L0.676408 64.3234ZM34.5 39.5L33.8106 39.7954L34.5 39.5ZM45 55.5L45.26 56.2035L45 55.5ZM0.750385 65.7072C13.7809 70.3062 23.5951 66.4804 29.5494 60.0731C32.5106 56.8865 34.5075 53.0725 35.4756 49.3694C36.4407 45.678 36.3996 42.0285 35.1894 39.2046L33.8106 39.7954C34.8504 42.2215 34.9343 45.5095 34.0244 48.99C33.1175 52.4587 31.2394 56.051 28.4506 59.0519C22.9049 65.0196 13.7191 68.6938 1.24962 64.2928L0.750385 65.7072ZM35.1894 39.2046C33.3668 34.952 28.9812 33.2914 24.5294 33.466C20.0757 33.6406 15.3188 35.6423 12.4306 39.0119L13.5694 39.9881C16.1454 36.9828 20.4848 35.1257 24.5882 34.9648C28.6934 34.8038 32.3257 36.3306 33.8106 39.7954L35.1894 39.2046ZM12.4306 39.0119C10.8723 40.8299 9.96313 42.5859 9.65444 44.2705C9.34318 45.9691 9.6528 47.5421 10.4395 48.9527C11.9871 51.7275 15.3467 53.8247 19.3294 55.2712C23.3445 56.7295 28.1381 57.5797 32.7541 57.7615C37.3622 57.9429 41.8583 57.4606 45.26 56.2035L44.74 54.7965C41.589 55.961 37.3086 56.4396 32.8131 56.2626C28.3255 56.0859 23.6882 55.2584 19.8415 53.8613C15.9624 52.4524 13.0292 50.5164 11.7496 48.222C11.1226 47.098 10.885 45.8773 11.1299 44.5409C11.3773 43.1905 12.1277 41.6701 13.5694 39.9881L12.4306 39.0119ZM45.26 56.2035C56.9556 51.8812 66.5336 42.4943 71.3277 31.8859C76.1249 21.2709 76.1678 9.32432 68.5811 0.0258628L67.4189 0.974137C74.5502 9.71445 74.5932 21.0178 69.9608 31.2682C65.3255 41.5251 56.0444 50.6188 44.74 54.7965L45.26 56.2035Z" fill="black" fill-opacity="0.92"/>
</svg>
