<svg width="46" height="46" viewBox="0 0 46 46" fill="none" xmlns="http://www.w3.org/2000/svg">
<path d="M35.2728 14.2484C35.7069 11.4224 35.2728 9.53844 33.7534 7.79939C32.0893 5.84296 29.0506 5.0459 25.1436 5.0459H13.9292C13.1333 5.0459 12.4821 5.62558 12.3374 6.42264L7.6346 36.1314C7.56225 36.7111 7.99635 37.2183 8.57517 37.2183H15.5209L15.0144 40.2616C14.9421 40.7688 15.3038 41.2036 15.8826 41.2036H21.7431C22.4666 41.2036 23.0454 40.6964 23.1178 40.0442L24.3478 32.3634C24.4201 31.7113 25.0713 31.2041 25.7224 31.2041H26.5906C32.234 31.2041 36.7198 28.8853 38.0222 22.219C38.5286 19.4655 38.3116 17.0743 36.8645 15.4802C36.4304 14.973 35.924 14.6107 35.2728 14.2484Z" fill="#009CDE"/>
<path d="M35.2728 14.2484C35.7069 11.4224 35.2728 9.53844 33.7534 7.79939C32.0893 5.84296 29.0506 5.0459 25.1436 5.0459H13.9292C13.1333 5.0459 12.4821 5.62558 12.3374 6.42264L7.6346 36.1314C7.56225 36.7111 7.99635 37.2183 8.57516 37.2183H15.5209L17.185 26.4942C17.3297 25.6971 17.9808 25.1174 18.7767 25.1174H22.1049C28.6165 25.1174 33.6811 22.5088 35.1281 14.828C35.2004 14.6831 35.2004 14.4657 35.2728 14.2484Z" fill="#012169"/>
<path d="M19.1384 14.3208C19.2108 13.8136 19.862 13.1615 20.5131 13.1615H29.34C30.3529 13.1615 31.3658 13.2339 32.234 13.3788C33.0299 13.5238 34.4769 13.8861 35.2004 14.3208C35.6345 11.4949 35.2004 9.6109 33.6811 7.87185C32.0893 5.84296 29.0506 5.0459 25.1436 5.0459H13.9292C13.1333 5.0459 12.4821 5.62558 12.3374 6.42264L7.6346 36.1314C7.56225 36.7111 7.99635 37.2183 8.57516 37.2183H15.5209L19.1384 14.3208Z" fill="#003087"/>
</svg>
