<svg width="46" height="46" viewBox="0 0 46 46" fill="none" xmlns="http://www.w3.org/2000/svg">
<path fill-rule="evenodd" clip-rule="evenodd" d="M18.9814 16.9256C18.9607 16.9256 18.9207 16.9256 18.9001 16.9256C18.557 16.8837 18.2746 16.5694 18.2746 16.2132C18.254 15.8779 18.0721 8.04108 22.4929 6.26008C23.6033 5.82 24.6338 5.90377 25.5017 6.55346C26.5708 7.32874 27.3381 8.87929 27.8024 11.1423C28.1247 12.7348 28.1854 14.1177 28.1854 14.1806C28.206 14.5158 27.9443 14.7674 27.5999 14.7045C27.2568 14.6625 26.9745 14.3483 26.9745 14.013C26.9138 12.5881 26.4495 8.66981 24.9162 7.53822C24.4313 7.18204 23.8251 7.14009 23.0991 7.43348C19.3037 8.96305 19.4855 16.318 19.4855 16.4017C19.4855 16.6951 19.2845 16.9256 18.9814 16.9256Z" fill="#595961"/>
<path opacity="0.46" fill-rule="evenodd" clip-rule="evenodd" d="M25.2786 6.59576C24.4713 6.00899 23.5235 5.92522 22.493 6.32335C20.6966 7.05667 19.425 8.98451 18.7996 11.9181C18.3353 14.0762 18.3959 16.0251 18.3959 16.1088C18.3959 16.2136 18.4359 16.3184 18.5172 16.4022C18.5971 16.486 18.6783 16.5489 18.7789 16.5489C18.7996 16.5489 18.8202 16.5489 18.8395 16.5489C19.0214 16.5489 19.1633 16.4022 19.1633 16.2136C19.1633 16.1298 18.9815 8.64918 22.8774 7.07765C23.6641 6.76343 24.3501 6.80524 24.9163 7.22434C26.5502 8.41872 27.0351 12.4629 27.0957 13.9087C27.0957 14.1182 27.2776 14.3278 27.4994 14.3487C27.7019 14.3696 27.8631 14.2229 27.8631 14.0135C27.8424 13.762 27.6206 8.31397 25.2786 6.59576Z" fill="#B2B2C2"/>
<path opacity="0.46" fill-rule="evenodd" clip-rule="evenodd" d="M18.7994 16.2971C18.7788 16.2971 18.7788 16.2971 18.7595 16.2971C18.6383 16.2762 18.5363 16.1505 18.517 16.0247C18.517 15.9408 18.4564 14.0341 18.9207 11.8758C19.5255 9.00517 20.7984 7.09831 22.5535 6.38582C23.5426 5.9877 24.4313 6.0716 25.1986 6.61642C27.4593 8.27171 27.6811 13.636 27.6811 13.8664C27.6811 13.9922 27.5805 14.0759 27.4593 14.0551C27.3381 14.0341 27.2375 13.9294 27.2168 13.7827C27.2168 13.7197 26.995 8.46035 24.9561 6.95162C24.3499 6.51168 23.6033 6.44875 22.756 6.78395C18.7995 8.43938 18.9813 16.0247 18.9813 16.1085C19.0006 16.2132 18.9207 16.2971 18.7994 16.2971Z" fill="#B2B2C2"/>
<path opacity="0.62" fill-rule="evenodd" clip-rule="evenodd" d="M20.4347 10.3046C20.5959 9.99038 20.7571 9.67602 20.899 9.34082C20.8383 9.44556 20.4347 10.5352 19.2031 10.3675C19.1824 10.3675 19.9291 10.598 20.4347 10.3046Z" fill="#595961"/>
<path opacity="0.62" fill-rule="evenodd" clip-rule="evenodd" d="M19.9898 11.6454C20.111 11.31 20.2322 10.9539 20.3135 10.6187C20.2736 10.7444 20.071 11.8758 18.7788 11.8758C18.7788 11.8758 19.5255 12.0225 19.9898 11.6454Z" fill="#595961"/>
<path opacity="0.62" fill-rule="evenodd" clip-rule="evenodd" d="M27.075 8.94264C26.9138 8.56536 26.7319 8.20918 26.55 7.83203C26.6106 7.95775 27.2168 9.15212 26.5308 10.0112C26.5308 10.0112 27.0557 9.5922 27.075 8.94264Z" fill="#595961"/>
<path opacity="0.62" fill-rule="evenodd" clip-rule="evenodd" d="M25.966 7.05655C25.6423 6.78414 25.3198 6.5327 24.9961 6.30225C25.1173 6.40699 26.1877 7.18227 26.1271 8.3558C26.1065 8.3558 26.2884 7.66429 25.966 7.05655Z" fill="#595961"/>
<path opacity="0.62" fill-rule="evenodd" clip-rule="evenodd" d="M21.0201 9.1517C21.2625 8.90027 21.4636 8.62786 21.6854 8.33447C21.6055 8.41824 20.9388 9.27742 19.7485 8.96306C19.7485 8.96306 20.4346 9.34034 21.0201 9.1517Z" fill="#595961"/>
<path opacity="0.62" fill-rule="evenodd" clip-rule="evenodd" d="M21.7666 8.18764C22.0491 7.97816 22.3108 7.76854 22.5739 7.53809C22.4734 7.60101 21.6454 8.29238 20.4951 7.78952C20.4951 7.78952 21.1605 8.27141 21.7666 8.18764Z" fill="#595961"/>
<path opacity="0.62" fill-rule="evenodd" clip-rule="evenodd" d="M22.8566 7.49616C23.1996 7.39142 23.5234 7.2657 23.8458 7.13998C23.7245 7.1818 22.6954 7.55895 21.6855 6.7627C21.7062 6.7627 22.2311 7.39142 22.8566 7.49616Z" fill="#595961"/>
<path opacity="0.62" fill-rule="evenodd" clip-rule="evenodd" d="M23.8459 7.11945C24.1283 7.1614 24.4107 7.18238 24.6931 7.20335C24.5926 7.18238 23.7039 7.11945 23.1997 6.28125C23.1997 6.28125 23.4023 6.84704 23.8459 7.11945Z" fill="#595961"/>
<path opacity="0.62" fill-rule="evenodd" clip-rule="evenodd" d="M25.0169 7.57999C25.2181 7.81059 25.4412 8.04104 25.6823 8.25053C25.6024 8.16676 24.9164 7.47525 25.0775 6.61621C25.0569 6.61621 24.8351 7.0981 25.0169 7.57999Z" fill="#595961"/>
<path opacity="0.74" fill-rule="evenodd" clip-rule="evenodd" d="M27.4593 13.7616C27.4593 13.531 27.2375 8.22967 25.0374 6.61633C24.6131 6.30197 24.1488 6.15527 23.6639 6.15527C23.3002 6.15527 22.9172 6.23904 22.5135 6.40671C20.757 7.09822 19.5255 8.96313 18.9207 11.8128C18.4564 13.9501 18.517 15.857 18.517 15.9407C18.517 16.0037 18.5776 16.0665 18.6382 16.0665H18.6575C18.7181 16.0665 18.7595 16.0246 18.7595 15.9617C18.7595 15.878 18.5569 8.22967 22.6141 6.59535C23.5027 6.23904 24.2701 6.30197 24.9162 6.78386C27.0143 8.31357 27.2375 13.6569 27.2375 13.7197C27.2375 13.7826 27.2981 13.8454 27.3587 13.8454C27.3587 13.8454 27.3587 13.8454 27.378 13.8454C27.4193 13.8663 27.4593 13.8244 27.4593 13.7616Z" fill="url(#paint0_linear_4142_22762)"/>
<path fill-rule="evenodd" clip-rule="evenodd" d="M27.8023 11.1428C27.338 8.87976 26.5707 7.35006 25.5017 6.5538C24.9162 6.13484 24.2893 5.94619 23.6033 5.98815C24.1488 6.02996 24.653 6.21861 25.1173 6.5538C26.1877 7.32922 26.9551 8.87976 27.4194 11.1428C27.7417 12.7353 27.8023 14.1182 27.8023 14.1811C27.8023 14.4325 27.6811 14.6212 27.4786 14.684C27.5199 14.705 27.5599 14.705 27.5806 14.705C27.9236 14.7469 28.1853 14.5163 28.166 14.1811C28.1853 14.1182 28.1247 12.7563 27.8023 11.1428Z" fill="url(#paint1_linear_4142_22762)"/>
<path fill-rule="evenodd" clip-rule="evenodd" d="M22.7162 7.43373C18.9207 8.96331 19.1025 16.3182 19.1025 16.402C19.1025 16.6534 18.9813 16.8421 18.7788 16.9048C18.8201 16.9258 18.8395 16.9258 18.8808 16.9258C18.9001 16.9258 18.9414 16.9258 18.9607 16.9258C19.2638 16.9258 19.4649 16.6954 19.4649 16.402C19.4649 16.3182 19.2844 8.98429 23.0785 7.45471C23.3416 7.34997 23.584 7.28704 23.8058 7.26607C23.4821 7.20328 23.1198 7.26607 22.7162 7.43373Z" fill="url(#paint2_linear_4142_22762)"/>
<path fill-rule="evenodd" clip-rule="evenodd" d="M28.4679 9.2567L11.3507 14.7466C11.3507 14.7466 10.6247 14.9562 10.4429 15.1866C10.261 15.4171 10.2211 16.0666 10.2211 16.0666L7.57593 37.2302L27.4388 41.0858L28.9735 9.23572C28.7517 9.19377 28.5285 9.23572 28.4679 9.2567Z" fill="url(#paint3_linear_4142_22762)"/>
<path fill-rule="evenodd" clip-rule="evenodd" d="M34.3834 11.9803C34.3834 11.9803 34.3627 11.8126 34.2622 11.7498C34.1809 11.6869 34.0803 11.6869 34.0803 11.6869L31.274 11.4774L29.2158 9.36107C29.1345 9.29814 29.0533 9.25633 28.9527 9.23535L27.4194 41.0854L38.1774 38.6757L34.3834 11.9803Z" fill="url(#paint4_linear_4142_22762)"/>
<path fill-rule="evenodd" clip-rule="evenodd" d="M21.4032 26.9417C21.1002 26.5226 20.7378 26.1455 20.3741 25.8101C20.0104 25.4749 19.6275 25.2025 19.2431 24.9511C18.9814 24.7834 18.7389 24.6157 18.5364 24.4481C18.3352 24.2805 18.174 24.1129 18.0528 23.9662C17.9316 23.7985 17.831 23.6518 17.7704 23.4843C17.7097 23.3166 17.6891 23.149 17.6891 22.9813C17.6891 22.7508 17.7497 22.5204 17.831 22.3317C17.9109 22.1432 18.0528 21.9756 18.1933 21.8289C18.3559 21.6822 18.5364 21.5774 18.7595 21.4937C18.9813 21.4098 19.243 21.368 19.5255 21.347C19.8285 21.326 20.1316 21.347 20.4141 21.368C20.6965 21.3888 20.9596 21.4517 21.2214 21.5145C21.4638 21.5774 21.7063 21.6612 21.9074 21.7451C22.1099 21.8289 22.311 21.9126 22.4529 21.9965L23.7852 17.8896C23.584 17.7848 23.3416 17.6799 23.0785 17.6172C22.796 17.5333 22.4929 17.4705 22.1499 17.4285C21.8069 17.3867 21.4432 17.3657 21.0602 17.3657C20.6772 17.3657 20.2736 17.3867 19.8493 17.4495C18.9414 17.5752 18.1327 17.8266 17.4067 18.2038C16.7206 18.5601 16.1144 19.021 15.6102 19.5868C15.1253 20.1316 14.7423 20.7602 14.4599 21.4727C14.1967 22.1642 14.0356 22.9395 13.9956 23.7775C13.975 24.2805 14.0149 24.7415 14.1361 25.1606C14.2367 25.5797 14.3993 25.9778 14.6211 26.3549C14.8222 26.7321 15.0853 27.0674 15.3677 27.3816C15.6501 27.696 15.9932 27.9894 16.3362 28.2618C16.6186 28.4713 16.8611 28.6808 17.0636 28.8694C17.2648 29.058 17.4273 29.2466 17.5472 29.4562C17.6684 29.6447 17.7497 29.8333 17.8103 30.0428C17.8709 30.2314 17.8916 30.4409 17.8709 30.6505C17.8709 30.86 17.8104 31.0695 17.7291 31.2372C17.6492 31.4048 17.5472 31.5725 17.386 31.6982C17.2455 31.8239 17.0637 31.9077 16.8612 31.9497C16.66 31.9915 16.4176 32.0125 16.1544 31.9706C15.8527 31.9287 15.5496 31.8449 15.2672 31.7191C14.9847 31.6143 14.701 31.4676 14.4393 31.3209C14.1775 31.1744 13.9351 31.0067 13.7325 30.86C13.5107 30.7133 13.3289 30.5457 13.1883 30.42L12.2791 33.5422C12.4209 33.7517 12.6221 33.9403 12.8439 34.1288C13.0671 34.3174 13.3289 34.5059 13.632 34.6946C13.9351 34.8623 14.2574 35.0298 14.6005 35.1765C14.9435 35.3232 15.3278 35.4489 15.7108 35.5538H15.7315H15.7507H15.7714H15.7921C16.6187 35.7423 17.4067 35.7842 18.1534 35.6795C18.9207 35.5746 19.6274 35.3022 20.2322 34.8832C20.8576 34.4432 21.3632 33.8564 21.7462 33.0811C22.1306 32.3058 22.3524 31.3629 22.3923 30.2942C22.413 29.6237 22.3318 29.0371 22.1499 28.4923C21.9681 27.8637 21.7063 27.3816 21.4032 26.9417Z" fill="url(#paint5_linear_4142_22762)"/>
<path opacity="0.226763" fill-rule="evenodd" clip-rule="evenodd" d="M12.4099 33.7129C12.3631 33.6573 12.319 33.6006 12.279 33.5423L13.1883 30.4201C13.2007 30.4318 13.2145 30.4438 13.2282 30.4562C13.3633 30.5768 13.5314 30.7271 13.7325 30.8602C13.935 31.0069 14.1775 31.1745 14.4392 31.3212C14.701 31.4678 14.9847 31.6145 15.2671 31.7194C15.5495 31.8451 15.8527 31.9288 16.1544 31.9708C16.4175 32.0126 16.66 31.9918 16.8611 31.9498C17.0636 31.9079 17.2455 31.8241 17.386 31.6984C17.5472 31.5727 17.6491 31.405 17.729 31.2373C17.8103 31.0697 17.8709 30.8602 17.8709 30.6507C17.8916 30.4411 17.8709 30.2316 17.8103 30.043C17.7496 29.8335 17.6684 29.6448 17.5472 29.4563C17.4328 29.2571 17.2813 29.077 17.0925 28.8977C17.1917 29.0097 17.2758 29.1247 17.346 29.2467C17.4673 29.4353 17.5472 29.6238 17.6078 29.8335C17.6684 30.022 17.6891 30.2316 17.6684 30.4411C17.6684 30.6507 17.6078 30.8602 17.5279 31.0278C17.4466 31.1955 17.346 31.363 17.1848 31.4888C17.0429 31.6145 16.8611 31.6984 16.66 31.7402C16.4575 31.7821 16.215 31.8031 15.9533 31.7612C15.6502 31.7194 15.3471 31.6355 15.0646 31.5097C14.7822 31.405 14.4998 31.2583 14.2367 31.1116C13.9749 30.9649 13.7325 30.7974 13.5314 30.6507C13.3289 30.5176 13.1608 30.3673 13.0258 30.2467C13.012 30.2343 12.9995 30.2223 12.9857 30.2106L12.0779 33.3327C12.1674 33.4661 12.2818 33.591 12.4099 33.7129ZM15.3843 27.4008C15.3085 27.3259 15.2355 27.2498 15.1652 27.1723C14.8828 26.858 14.6211 26.5227 14.4185 26.1456C14.1967 25.7683 14.0355 25.3702 13.935 24.9512C13.8137 24.5321 13.7724 24.0711 13.793 23.5682C13.833 22.73 13.9956 21.9547 14.2574 21.2632C14.5398 20.5509 14.9242 19.9223 15.4077 19.3775C15.9133 18.8117 16.518 18.3506 17.2041 17.9945C17.9315 17.6173 18.7388 17.3659 19.6467 17.2402C20.071 17.1772 20.4747 17.1562 20.8577 17.1562C21.242 17.1562 21.6057 17.1772 21.9487 17.2192C22.2918 17.2611 22.5949 17.3239 22.8773 17.4078C23.139 17.4706 23.3815 17.5753 23.584 17.6801L23.5523 17.7781C23.4063 17.7146 23.2465 17.6575 23.0784 17.6173C22.796 17.5335 22.4929 17.4706 22.1499 17.4287C21.8068 17.3868 21.4431 17.3659 21.0601 17.3659C20.6771 17.3659 20.2735 17.3868 19.8492 17.4496C18.9414 17.5754 18.1327 17.8268 17.4067 18.2041C16.7206 18.5602 16.1144 19.0212 15.6102 19.587C15.1253 20.1318 14.7422 20.7604 14.4598 21.4728C14.1967 22.1643 14.0355 22.9396 13.9956 23.7777C13.9749 24.2807 14.0149 24.7416 14.1361 25.1607C14.2367 25.5798 14.3992 25.9779 14.621 26.3551C14.8222 26.7322 15.0853 27.0676 15.3677 27.3818C15.3732 27.3881 15.3787 27.3945 15.3843 27.4008ZM18.1257 24.0522C18.236 24.1768 18.3738 24.3125 18.5363 24.4482C18.7388 24.6159 18.9813 24.7836 19.2431 24.9512C19.6274 25.2027 20.0104 25.4751 20.3741 25.8103C20.4802 25.9079 20.5849 26.0089 20.6896 26.1137C20.5215 25.933 20.3465 25.762 20.1715 25.6008C19.8092 25.2654 19.4249 24.993 19.0419 24.7416C18.7788 24.5739 18.5363 24.4064 18.3352 24.2387C18.2594 24.1762 18.1905 24.1137 18.1257 24.0522Z" fill="black" fill-opacity="0.92"/>
<path opacity="0.41" fill-rule="evenodd" clip-rule="evenodd" d="M31.9601 35.156L31.2741 11.4779L31.1528 11.3522L31.4766 34.8206C31.4766 34.8206 28.6304 39.3048 28.2061 39.179C27.5806 38.9905 29.4377 9.59203 29.4377 9.59203L29.2352 9.38255C29.1553 9.31963 29.0533 9.27781 28.9734 9.25684L27.4594 40.6668L27.4387 41.1069L27.9636 40.4154L31.9601 35.156Z" fill="url(#paint6_linear_4142_22762)"/>
<path fill-rule="evenodd" clip-rule="evenodd" d="M24.2287 10.6188C23.9876 11.6036 23.6846 12.5255 23.4628 13.0913C23.3209 13.4267 23.4821 13.7409 23.7851 13.7828C24.1089 13.8248 24.4712 13.5942 24.5924 13.259C24.6131 13.1961 25.1572 11.8342 25.5016 10.2207V10.1997L24.2287 10.6188Z" fill="url(#paint7_linear_4142_22762)"/>
<path fill-rule="evenodd" clip-rule="evenodd" d="M15.1254 13.5519C14.843 14.1804 14.5605 14.7253 14.358 15.1024C14.1776 15.4168 14.2781 15.752 14.5812 15.8357C14.8829 15.9406 15.2865 15.752 15.4684 15.4376C15.489 15.3958 16.0746 14.3691 16.5995 13.0698L15.1254 13.5519Z" fill="url(#paint8_linear_4142_22762)"/>
<path opacity="0.32" fill-rule="evenodd" clip-rule="evenodd" d="M27.4387 41.0853L31.9601 35.1553L38.2188 38.6756L27.4387 41.0853Z" fill="url(#paint9_linear_4142_22762)"/>
<path opacity="0.19" fill-rule="evenodd" clip-rule="evenodd" d="M27.4387 41.0853L31.9202 35.1553L38.2188 38.6756L27.4387 41.0853Z" fill="url(#paint10_linear_4142_22762)"/>
<path opacity="0.19" fill-rule="evenodd" clip-rule="evenodd" d="M27.4387 41.0853L31.9202 35.1553L38.2188 38.6756L27.4387 41.0853Z" fill="url(#paint11_linear_4142_22762)"/>
<path opacity="0.6" fill-rule="evenodd" clip-rule="evenodd" d="M23.0385 24.4901C25.3805 27.7799 26.955 31.342 27.7417 34.7994L28.9733 9.21467C28.7515 9.17285 28.5284 9.21467 28.4677 9.23564L11.3506 14.7466C11.3506 14.7466 11.1893 14.7884 10.9868 14.8723C15.3278 16.4229 19.6674 19.7546 23.0385 24.4901Z" fill="url(#paint12_linear_4142_22762)"/>
<path fill-rule="evenodd" clip-rule="evenodd" d="M34.2813 11.7713C34.3832 11.8552 34.3833 11.9809 34.3833 11.9809L38.1373 38.6551L31.96 35.1349L31.2739 11.457L34.0402 11.6665C34.0595 11.6875 34.1807 11.6875 34.2813 11.7713Z" fill="url(#paint13_linear_4142_22762)"/>
<path fill-rule="evenodd" clip-rule="evenodd" d="M33.8378 11.8342C33.8378 11.8342 33.9591 11.8342 34.0596 11.939C34.1602 12.0229 34.1808 12.1486 34.1808 12.1486L37.8756 38.5296L38.1581 38.6973L34.4026 12.0019C34.4026 12.0019 34.3833 11.8762 34.302 11.7924C34.2015 11.7085 34.0596 11.7085 34.0596 11.7085L31.2947 11.499L33.8378 11.8342Z" fill="url(#paint14_linear_4142_22762)"/>
<path fill-rule="evenodd" clip-rule="evenodd" d="M7.57593 37.2295L27.4388 41.0851L28.4086 19.251L10.046 19.773L7.57593 37.2295Z" fill="url(#paint15_linear_4142_22762)"/>
<path opacity="0.3" fill-rule="evenodd" clip-rule="evenodd" d="M14.0961 15.0517C13.9157 15.561 14.0934 16.0961 14.4956 16.2472C14.8965 16.3981 15.3677 16.1078 15.5495 15.5986C15.73 15.0894 15.5509 14.5542 15.1501 14.4033C14.7492 14.2522 14.2766 14.5425 14.0961 15.0517Z" fill="white"/>
<path opacity="0.89" fill-rule="evenodd" clip-rule="evenodd" d="M14.0742 14.8102C13.8937 15.3193 14.0728 15.8546 14.4737 16.0055C14.8746 16.1566 15.3471 15.8662 15.5276 15.357C15.7081 14.8477 15.5304 14.3125 15.1281 14.1616C14.7272 14.0105 14.256 14.3008 14.0742 14.8102Z" fill="black" fill-opacity="0.92"/>
<path fill-rule="evenodd" clip-rule="evenodd" d="M31.2947 11.4774L29.2352 9.36107C29.1553 9.29814 29.0533 9.25633 28.9734 9.23535L27.4387 41.0854L31.9808 35.1343L31.2947 11.4774Z" fill="url(#paint16_linear_4142_22762)"/>
<path fill-rule="evenodd" clip-rule="evenodd" d="M28.4679 9.25687L11.3507 14.7467C11.3507 14.7467 10.6247 14.9563 10.4429 15.1868C10.4222 15.2078 10.4221 15.2287 10.4028 15.2497L27.6606 10.3045C27.8025 10.2626 28.1455 10.1369 28.1056 11.1636L27.0558 41.044L27.4195 41.1069L28.9528 9.25687C28.7517 9.19394 28.5285 9.23589 28.4679 9.25687Z" fill="url(#paint17_linear_4142_22762)"/>
<path fill-rule="evenodd" clip-rule="evenodd" d="M28.4679 9.25687L11.3507 14.7467C11.3507 14.7467 10.6247 14.9563 10.4429 15.1868C10.4222 15.2078 10.4221 15.2287 10.4028 15.2497L14.3994 14.0972L28.1455 9.67597C28.2061 9.65499 28.428 9.61304 28.6498 9.655L27.1357 41.044L27.4195 41.1069L28.9528 9.25687C28.7517 9.19394 28.5285 9.23589 28.4679 9.25687Z" fill="url(#paint18_linear_4142_22762)"/>
<path opacity="0.32" fill-rule="evenodd" clip-rule="evenodd" d="M32.8694 35.6586L31.9601 35.1348L27.4194 41.0857L27.6605 41.0227C27.6605 41.0227 31.6584 35.6796 32.0207 35.5119C32.2838 35.4072 32.8694 35.6586 32.8694 35.6586Z" fill="url(#paint19_linear_4142_22762)"/>
<path opacity="0.57" fill-rule="evenodd" clip-rule="evenodd" d="M27.4387 41.0857L31.9808 35.1348C31.9601 35.1557 29.0946 38.4035 27.4387 41.0857Z" fill="url(#paint20_linear_4142_22762)"/>
<path opacity="0.46" fill-rule="evenodd" clip-rule="evenodd" d="M38.2186 38.6756L31.9806 35.1553C31.96 35.1553 32.6874 35.281 38.2186 38.6756Z" fill="url(#paint21_linear_4142_22762)"/>
<path opacity="0.3" fill-rule="evenodd" clip-rule="evenodd" d="M23.325 12.9623C23.1432 13.4716 23.3223 14.0068 23.7232 14.1579C24.1254 14.309 24.5966 14.0186 24.7771 13.5095C24.9589 13.0002 24.7798 12.4649 24.3789 12.3138C23.978 12.1629 23.5055 12.4531 23.325 12.9623Z" fill="white"/>
<path opacity="0.89" fill-rule="evenodd" clip-rule="evenodd" d="M23.3029 12.7216C23.1225 13.2309 23.3016 13.7662 23.7025 13.9172C24.1034 14.0682 24.5759 13.778 24.7564 13.2686C24.9368 12.7595 24.7591 12.2243 24.3582 12.0732C23.9559 11.9221 23.4848 12.2125 23.3029 12.7216Z" fill="black" fill-opacity="0.92"/>
<path fill-rule="evenodd" clip-rule="evenodd" d="M14.803 15.8362C14.7824 15.8362 14.7424 15.8362 14.7217 15.8362C14.3993 15.7944 14.1776 15.48 14.2175 15.1239C14.2575 14.7885 15.4078 6.95173 20.1317 5.17072C21.322 4.73064 22.3318 4.81441 23.0991 5.46411C24.0277 6.23938 24.5319 7.78993 24.6132 10.053C24.6738 11.6455 24.492 13.0284 24.492 13.0913C24.452 13.4265 24.1489 13.678 23.8252 13.6151C23.5028 13.5732 23.2603 13.2589 23.3209 12.9236C23.5028 11.4988 23.7039 7.58045 22.3525 6.44886C21.9282 6.09269 21.3427 6.05074 20.5561 6.34412C16.4989 7.8737 15.4284 15.2286 15.4284 15.2914C15.3472 15.6057 15.1061 15.8362 14.803 15.8362Z" fill="#595961"/>
<path opacity="0.46" fill-rule="evenodd" clip-rule="evenodd" d="M22.8566 5.50579C22.1499 4.91915 21.2214 4.83539 20.111 5.23351C18.1933 5.96684 16.5786 7.89454 15.4683 10.8071C14.6417 12.9654 14.3579 14.9141 14.3579 14.998C14.3386 15.1027 14.3786 15.2075 14.4392 15.2914C14.4998 15.3752 14.5811 15.4381 14.6816 15.4381C14.7009 15.4381 14.7216 15.4381 14.7423 15.4381C14.9241 15.4381 15.0853 15.2914 15.1059 15.1027C15.1252 15.019 16.1957 7.53836 20.3741 5.96684C21.2213 5.65248 21.9073 5.69443 22.3923 6.11353C23.825 7.30791 23.6239 11.352 23.4421 12.7978C23.4214 13.0074 23.5633 13.2169 23.7645 13.2378C23.967 13.2588 24.1681 13.1121 24.1887 12.9026C24.2094 12.672 24.9162 7.22414 22.8566 5.50579Z" fill="#B2B2C2"/>
<path opacity="0.81" fill-rule="evenodd" clip-rule="evenodd" d="M14.7216 15.2078C14.7009 15.2078 14.701 15.2078 14.6817 15.2078C14.5604 15.1868 14.4791 15.0611 14.4998 14.9354C14.5205 14.8515 14.7822 12.9448 15.6102 10.7865C16.7206 7.91582 18.2952 6.00895 20.1715 5.29647C21.242 4.89834 22.1099 4.98225 22.7753 5.52706C24.7536 7.18236 24.0675 12.5466 24.0276 12.7771C24.0069 12.9028 23.9064 12.9866 23.7645 12.9657C23.6446 12.9448 23.5633 12.84 23.5633 12.6933C23.5633 12.6304 24.2494 7.371 22.4736 5.86226C21.9487 5.46414 21.2214 5.42232 20.3342 5.75752C16.0745 7.371 14.9641 14.9354 14.9641 15.0191C14.9434 15.1239 14.8428 15.2078 14.7216 15.2078Z" fill="#B2B2C2"/>
<path opacity="0.42" fill-rule="evenodd" clip-rule="evenodd" d="M17.3859 9.21476C17.6077 8.90053 17.8102 8.58617 18.0113 8.25098C17.9314 8.35572 17.3459 9.44535 16.135 9.27769C16.1143 9.27769 16.8211 9.50814 17.3859 9.21476Z" fill="#595961"/>
<path opacity="0.42" fill-rule="evenodd" clip-rule="evenodd" d="M16.6999 10.5555C16.8818 10.2202 17.0636 9.86401 17.2041 9.52881C17.1435 9.65453 16.7398 10.786 15.4683 10.786C15.4683 10.786 16.1751 10.9327 16.6999 10.5555Z" fill="#595961"/>
<path opacity="0.42" fill-rule="evenodd" clip-rule="evenodd" d="M16.175 11.9388C16.3362 11.5825 16.4575 11.2263 16.5787 10.8701C16.5181 10.9958 16.2963 12.1483 14.9641 12.295C14.9641 12.274 15.6901 12.3579 16.175 11.9388Z" fill="#595961"/>
<path opacity="0.62" fill-rule="evenodd" clip-rule="evenodd" d="M24.2494 7.85279C24.1489 7.47551 24.0483 7.11934 23.9064 6.74219C23.9463 6.8679 24.35 8.06228 23.5234 8.92132C23.5234 8.92132 24.1282 8.50235 24.2494 7.85279Z" fill="#595961"/>
<path opacity="0.62" fill-rule="evenodd" clip-rule="evenodd" d="M23.4629 5.9667C23.1805 5.69429 22.8967 5.44286 22.6143 5.2124C22.7162 5.31714 23.664 6.09242 23.4023 7.26582C23.3816 7.26582 23.6847 6.57431 23.4629 5.9667Z" fill="#595961"/>
<path opacity="0.62" fill-rule="evenodd" clip-rule="evenodd" d="M24.4519 9.78049C24.4313 9.40334 24.3707 9.00522 24.3101 8.62793C24.3101 8.77462 24.5126 10.0109 23.5427 10.6815C23.5427 10.6815 24.2095 10.3881 24.4519 9.78049Z" fill="#595961"/>
<path opacity="0.62" fill-rule="evenodd" clip-rule="evenodd" d="M24.5526 11.7501C24.5732 11.3729 24.5732 10.9748 24.5526 10.5977C24.5526 10.7443 24.5732 11.9807 23.5427 12.5463C23.5427 12.5255 24.2495 12.3159 24.5526 11.7501Z" fill="#595961"/>
<path opacity="0.42" fill-rule="evenodd" clip-rule="evenodd" d="M15.7108 13.468C15.832 13.0909 15.9133 12.7137 15.9932 12.3574C15.9532 12.4831 15.7714 13.6775 14.5398 13.9709C14.5605 13.9709 15.2864 13.9499 15.7108 13.468Z" fill="#595961"/>
<path opacity="0.42" fill-rule="evenodd" clip-rule="evenodd" d="M18.1535 8.06185C18.4359 7.81042 18.699 7.53801 18.9415 7.24463C18.8395 7.32839 18.0323 8.18757 16.9026 7.87321C16.9219 7.87321 17.5474 8.2505 18.1535 8.06185Z" fill="#595961"/>
<path opacity="0.42" fill-rule="evenodd" clip-rule="evenodd" d="M19.0611 7.09829C19.3849 6.88881 19.688 6.67919 19.9897 6.44873C19.8698 6.51166 18.9413 7.20303 17.8708 6.70016C17.8708 6.70016 18.4357 7.18206 19.0611 7.09829Z" fill="#595961"/>
<path opacity="0.62" fill-rule="evenodd" clip-rule="evenodd" d="M20.2929 6.4068C20.6566 6.30192 20.9996 6.17621 21.3427 6.05049C21.2214 6.09244 20.1317 6.46959 19.2432 5.67334C19.2432 5.67334 19.6674 6.30192 20.2929 6.4068Z" fill="#595961"/>
<path opacity="0.62" fill-rule="evenodd" clip-rule="evenodd" d="M21.3219 6.03009C21.6057 6.07204 21.8881 6.09302 22.1705 6.114C22.07 6.09302 21.202 6.0301 20.8176 5.19189C20.8383 5.19189 20.9389 5.75768 21.3219 6.03009Z" fill="#595961"/>
<path opacity="0.62" fill-rule="evenodd" clip-rule="evenodd" d="M22.4131 6.49028C22.5949 6.72074 22.7754 6.9512 22.9572 7.16082C22.8966 7.07692 22.3318 6.38555 22.6142 5.52637C22.6348 5.52637 22.3318 6.00839 22.4131 6.49028Z" fill="#595961"/>
<path fill-rule="evenodd" clip-rule="evenodd" d="M23.8057 12.6721C23.825 12.4417 24.5125 7.14031 22.5948 5.52683C22.2311 5.21261 21.7875 5.06592 21.3026 5.06592C20.9389 5.06592 20.5353 5.14968 20.111 5.31735C18.2539 6.00886 16.6999 7.87377 15.6102 10.7234C14.7822 12.8608 14.5204 14.7676 14.4998 14.8514C14.4998 14.9142 14.5398 14.9771 14.6004 14.9771H14.621C14.6816 14.9771 14.7216 14.9352 14.7216 14.8724C14.7422 14.7885 15.8319 7.14031 20.1715 5.50586C21.1 5.14968 21.8881 5.21261 22.4529 5.6945C24.2893 7.22408 23.6033 12.5674 23.584 12.6303C23.584 12.6931 23.6239 12.756 23.6846 12.756C23.6846 12.756 23.6845 12.756 23.7038 12.756C23.7644 12.777 23.8057 12.735 23.8057 12.6721Z" fill="url(#paint22_linear_4142_22762)"/>
<path fill-rule="evenodd" clip-rule="evenodd" d="M24.6131 10.053C24.5319 7.78992 24.0276 6.26021 23.0991 5.46396C22.5949 5.045 21.9888 4.85635 21.3027 4.8983C21.8276 4.94012 22.3112 5.12876 22.7162 5.46396C23.6447 6.23937 24.1489 7.78992 24.2288 10.053C24.2894 11.6455 24.109 13.0283 24.109 13.0913C24.0676 13.3427 23.9064 13.5313 23.7039 13.5941C23.7453 13.6151 23.7645 13.6151 23.8058 13.6151C24.1282 13.6571 24.4313 13.4265 24.4713 13.0913C24.492 13.0283 24.6738 11.6664 24.6131 10.053Z" fill="url(#paint23_linear_4142_22762)"/>
<path fill-rule="evenodd" clip-rule="evenodd" d="M20.1523 6.344C16.0952 7.87358 15.0248 15.2285 15.0248 15.3122C14.9848 15.5637 14.8222 15.7523 14.6211 15.8151C14.661 15.8361 14.6817 15.8361 14.7217 15.8361C14.7423 15.8361 14.7823 15.8361 14.803 15.8361C15.106 15.8361 15.3471 15.6056 15.3884 15.3122C15.4077 15.2285 16.4575 7.89455 20.5147 6.36484C20.7985 6.2601 21.0396 6.19731 21.2628 6.17633C20.9597 6.13438 20.5753 6.19731 20.1523 6.344Z" fill="url(#paint24_linear_4142_22762)"/>
<defs>
<linearGradient id="paint0_linear_4142_22762" x1="19.5695" y1="6.20257" x2="18.9365" y2="14.8218" gradientUnits="userSpaceOnUse">
<stop stop-color="white" stop-opacity="0.65"/>
<stop offset="1" stop-color="white" stop-opacity="0.01"/>
</linearGradient>
<linearGradient id="paint1_linear_4142_22762" x1="24.1957" y1="11.1365" x2="28.6528" y2="15.0404" gradientUnits="userSpaceOnUse">
<stop stop-opacity="0.01"/>
<stop offset="1" stop-opacity="0.4"/>
</linearGradient>
<linearGradient id="paint2_linear_4142_22762" x1="22.4089" y1="15.6525" x2="27.1267" y2="11.2582" gradientUnits="userSpaceOnUse">
<stop stop-opacity="0.01"/>
<stop offset="1" stop-opacity="0.4"/>
</linearGradient>
<linearGradient id="paint3_linear_4142_22762" x1="16.4039" y1="2.82897" x2="-1.92031" y2="23.9424" gradientUnits="userSpaceOnUse">
<stop stop-color="#B8D26E"/>
<stop offset="1" stop-color="#7FB525"/>
</linearGradient>
<linearGradient id="paint4_linear_4142_22762" x1="41.4699" y1="8.11446" x2="31.4132" y2="8.30121" gradientUnits="userSpaceOnUse">
<stop stop-color="#B4E034"/>
<stop offset="1" stop-color="#60A927"/>
</linearGradient>
<linearGradient id="paint5_linear_4142_22762" x1="11.5572" y1="22.1933" x2="3.31203" y2="42.2718" gradientUnits="userSpaceOnUse">
<stop stop-color="white"/>
<stop offset="1" stop-color="#CECEEB"/>
</linearGradient>
<linearGradient id="paint6_linear_4142_22762" x1="23.3788" y1="71.6407" x2="36.4374" y2="71.6142" gradientUnits="userSpaceOnUse">
<stop stop-color="#1D1D1B" stop-opacity="0.5"/>
<stop offset="0.038033" stop-color="#1D1D1B" stop-opacity="0.4837"/>
<stop offset="0.4243" stop-color="#1D1D1B" stop-opacity="0.3185"/>
<stop offset="1" stop-color="#1D1D1B" stop-opacity="0.01"/>
</linearGradient>
<linearGradient id="paint7_linear_4142_22762" x1="24.8955" y1="8.79338" x2="22.7291" y2="9.95936" gradientUnits="userSpaceOnUse">
<stop stop-opacity="0.01"/>
<stop offset="1" stop-opacity="0.4"/>
</linearGradient>
<linearGradient id="paint8_linear_4142_22762" x1="15.8128" y1="12.2512" x2="14.2899" y2="13.56" gradientUnits="userSpaceOnUse">
<stop stop-opacity="0.01"/>
<stop offset="1" stop-opacity="0.4"/>
</linearGradient>
<linearGradient id="paint9_linear_4142_22762" x1="30.6679" y1="38.6912" x2="30.8221" y2="40.7237" gradientUnits="userSpaceOnUse">
<stop stop-opacity="0.01"/>
<stop offset="1" stop-opacity="0.4"/>
</linearGradient>
<linearGradient id="paint10_linear_4142_22762" x1="27.0681" y1="35.7159" x2="27.4256" y2="41" gradientUnits="userSpaceOnUse">
<stop stop-color="white" stop-opacity="0.5"/>
<stop offset="0.0896271" stop-color="white" stop-opacity="0.4552"/>
<stop offset="1" stop-color="white" stop-opacity="0.01"/>
</linearGradient>
<linearGradient id="paint11_linear_4142_22762" x1="26.3807" y1="36.5377" x2="27.0165" y2="42.1824" gradientUnits="userSpaceOnUse">
<stop stop-opacity="0.01"/>
<stop offset="1" stop-opacity="0.4"/>
</linearGradient>
<linearGradient id="paint12_linear_4142_22762" x1="23.8857" y1="4.06207" x2="7.57827" y2="13.4936" gradientUnits="userSpaceOnUse">
<stop stop-color="white" stop-opacity="0.5"/>
<stop offset="1" stop-color="white" stop-opacity="0.01"/>
</linearGradient>
<linearGradient id="paint13_linear_4142_22762" x1="27.0322" y1="53.3549" x2="41.4257" y2="53.384" gradientUnits="userSpaceOnUse">
<stop stop-color="#1D1D1B" stop-opacity="0.5"/>
<stop offset="0.0896271" stop-color="#1D1D1B" stop-opacity="0.4552"/>
<stop offset="1" stop-color="#1D1D1B" stop-opacity="0.01"/>
</linearGradient>
<linearGradient id="paint14_linear_4142_22762" x1="37.3398" y1="10.705" x2="35.2951" y2="11.206" gradientUnits="userSpaceOnUse">
<stop stop-color="white" stop-opacity="0.4"/>
<stop offset="1" stop-color="white" stop-opacity="0.01"/>
</linearGradient>
<linearGradient id="paint15_linear_4142_22762" x1="18.9952" y1="41.3183" x2="20.0584" y2="36.1924" gradientUnits="userSpaceOnUse">
<stop stop-color="#1D1D1B" stop-opacity="0.5"/>
<stop offset="0.0896271" stop-color="#1D1D1B" stop-opacity="0.4552"/>
<stop offset="1" stop-color="#1D1D1B" stop-opacity="0.01"/>
</linearGradient>
<linearGradient id="paint16_linear_4142_22762" x1="25.1422" y1="70.9877" x2="38.2477" y2="70.9991" gradientUnits="userSpaceOnUse">
<stop stop-color="#1D1D1B" stop-opacity="0.5"/>
<stop offset="1" stop-color="#1D1D1B" stop-opacity="0.01"/>
</linearGradient>
<linearGradient id="paint17_linear_4142_22762" x1="13.1664" y1="7.41033" x2="6.81027" y2="31.8304" gradientUnits="userSpaceOnUse">
<stop stop-color="white" stop-opacity="0.5"/>
<stop offset="1" stop-color="white" stop-opacity="0.01"/>
</linearGradient>
<linearGradient id="paint18_linear_4142_22762" x1="13.1664" y1="7.41033" x2="6.81027" y2="31.8304" gradientUnits="userSpaceOnUse">
<stop stop-color="white" stop-opacity="0.5"/>
<stop offset="1" stop-color="white" stop-opacity="0.01"/>
</linearGradient>
<linearGradient id="paint19_linear_4142_22762" x1="28.5918" y1="33.009" x2="23.5679" y2="39.9238" gradientUnits="userSpaceOnUse">
<stop stop-color="white" stop-opacity="0.5"/>
<stop offset="0.0896271" stop-color="white" stop-opacity="0.4552"/>
<stop offset="1" stop-color="white" stop-opacity="0.01"/>
</linearGradient>
<linearGradient id="paint20_linear_4142_22762" x1="30.1072" y1="34.5987" x2="29.6098" y2="35.7137" gradientUnits="userSpaceOnUse">
<stop stop-opacity="0.01"/>
<stop offset="1" stop-opacity="0.4"/>
</linearGradient>
<linearGradient id="paint21_linear_4142_22762" x1="35.0404" y1="36.0727" x2="35.0158" y2="36.3724" gradientUnits="userSpaceOnUse">
<stop stop-opacity="0.01"/>
<stop offset="1" stop-opacity="0.4"/>
</linearGradient>
<linearGradient id="paint22_linear_4142_22762" x1="16.9492" y1="4.36056" x2="14.7773" y2="12.9405" gradientUnits="userSpaceOnUse">
<stop stop-color="white" stop-opacity="0.65"/>
<stop offset="1" stop-color="white" stop-opacity="0.01"/>
</linearGradient>
<linearGradient id="paint23_linear_4142_22762" x1="21.8097" y1="9.31004" x2="25.5878" y2="13.1511" gradientUnits="userSpaceOnUse">
<stop stop-opacity="0.01"/>
<stop offset="1" stop-opacity="0.4"/>
</linearGradient>
<linearGradient id="paint24_linear_4142_22762" x1="19.3947" y1="14.9663" x2="24.6146" y2="9.60543" gradientUnits="userSpaceOnUse">
<stop stop-opacity="0.01"/>
<stop offset="1" stop-opacity="0.4"/>
</linearGradient>
</defs>
</svg>
