<svg width="78" height="78" viewBox="0 0 78 78" fill="none" xmlns="http://www.w3.org/2000/svg">
<rect width="78" height="78" rx="12" fill="white"/>
<rect x="16" y="16" width="46" height="46" rx="23" fill="#FF6C36"/>
<path d="M50.2858 44.9758C50.015 44.7905 49.6586 44.8047 49.3877 44.9901C49.1168 45.1754 49.0028 45.5318 49.1026 45.8454C49.2024 46.1591 49.4875 46.3872 49.8154 46.4014C50.1433 46.4157 50.4427 46.2304 50.571 45.931C50.7135 45.5888 50.5995 45.1754 50.2858 44.9758C50.6422 45.2182 49.9437 44.7335 50.2858 44.9758Z" fill="white"/>
<path d="M40.3352 52.232C40.5062 52.232 40.6916 52.232 40.8626 52.2178C41.219 52.2035 41.5754 52.175 41.9176 52.1322C41.3331 52.2035 42.2027 52.1037 41.9176 52.1322C42.274 52.0895 42.5591 52.4173 42.4878 52.7737C42.445 52.9306 42.331 53.0589 42.1884 53.1301C42.0886 53.1729 41.9889 53.1729 41.8891 53.1872C41.775 53.2014 41.6467 53.2157 41.5327 53.2157C40.5918 53.287 39.6509 53.2727 38.71 53.1729C37.8546 53.0731 37.0277 52.9163 36.2009 52.6597C35.4026 52.4173 34.6327 52.1037 33.8914 51.7188C33.1358 51.3339 32.4373 50.8777 31.7673 50.3645C30.9974 49.7942 30.2989 49.1385 29.6716 48.4114C29.0444 47.6986 28.4884 46.9145 28.0179 46.1019C27.5332 45.2608 27.134 44.3769 26.8347 43.4503C26.521 42.5094 26.3215 41.54 26.2074 40.5563C26.0934 39.5584 26.0934 38.5462 26.1931 37.5483C26.2929 36.5646 26.4925 35.5809 26.8062 34.64C27.1055 33.7134 27.4904 32.8295 27.9752 31.9742C28.4456 31.1331 29.0158 30.349 29.6431 29.6219C30.2704 28.9091 30.9689 28.2533 31.7245 27.6688C32.4943 27.0843 33.3212 26.5711 34.1765 26.1577C35.0604 25.73 35.9871 25.4021 36.9422 25.1598C37.9116 24.9174 38.9095 24.7891 39.9075 24.7463C40.9054 24.7178 41.9176 24.7891 42.9012 24.9602C43.8564 25.1313 44.7973 25.4021 45.7097 25.7585C46.6078 26.1149 47.4632 26.5711 48.2615 27.0986C49.0599 27.6261 49.8012 28.2391 50.4855 28.9234C50.7706 29.2085 51.0272 29.4936 51.2125 29.8643C51.3693 30.1779 51.4549 30.5343 51.4834 30.8764C51.5262 31.5893 51.2838 32.3163 50.7991 32.8438C50.2431 33.4711 49.402 33.8132 48.5752 33.7562C48.176 33.7277 47.7768 33.6136 47.4204 33.414C47.2351 33.3142 47.064 33.1859 46.9214 33.0434C46.7504 32.8866 46.5936 32.7012 46.4225 32.5444C45.7239 31.8886 44.9256 31.3612 44.056 30.962C43.1579 30.5628 42.2027 30.3062 41.2333 30.2207C40.2354 30.1351 39.2232 30.2064 38.2538 30.4488C37.3129 30.6911 36.4147 31.0903 35.5879 31.6178C34.7895 32.1452 34.0767 32.801 33.4922 33.5423C32.8935 34.2979 32.423 35.1533 32.0952 36.0657C31.7673 36.9923 31.5962 37.976 31.5962 38.9596C31.5962 39.9576 31.753 40.9412 32.0809 41.8821C32.3945 42.7945 32.865 43.6356 33.4495 44.3912C34.034 45.1468 34.7468 45.8025 35.5451 46.33C36.3577 46.8717 37.2558 47.2709 38.211 47.5133C39.1804 47.7699 40.1926 47.8412 41.1905 47.7556C42.1599 47.6701 43.1151 47.4277 44.0132 47.0286C44.113 46.9858 44.1985 46.9288 44.2983 46.9145C44.3839 46.9003 44.4694 46.9003 44.5549 46.9288C44.726 46.9858 44.8543 47.1141 44.8971 47.2852C44.9399 47.442 44.9113 47.6273 44.7973 47.7556C44.7403 47.8269 44.6547 47.8697 44.5692 47.9124C44.4552 47.9552 44.3554 48.0122 44.2413 48.055C43.3289 48.4399 42.3738 48.6823 41.3901 48.7678C40.3922 48.8676 39.38 48.8106 38.4106 48.611C38.5389 48.7535 38.6529 48.9104 38.767 49.0672C38.881 49.224 38.9951 49.3951 39.0949 49.5519C39.1091 49.5804 39.1519 49.6374 39.1519 49.6374C39.1519 49.6374 39.1662 49.6374 39.1947 49.6374C39.2517 49.6374 39.2945 49.6517 39.3515 49.6517C39.4513 49.6659 39.5511 49.6659 39.6509 49.6802C40.0643 49.7087 40.4777 49.7087 40.8911 49.6944C41.7037 49.6517 42.5163 49.5376 43.3004 49.3095C44.056 49.0957 44.7973 48.7963 45.4958 48.4256C46.1801 48.055 46.8217 47.6273 47.4062 47.1141C47.5487 46.9858 47.6913 46.8575 47.8338 46.7292C47.9621 46.6151 48.0619 46.4726 48.2188 46.4013C48.4896 46.2587 48.8175 46.3015 49.0456 46.4868C49.288 46.6722 49.3877 46.9858 49.3165 47.2852C49.2737 47.442 49.2024 47.5703 49.0884 47.6701C48.9458 47.7984 48.8175 47.9409 48.6749 48.0692C48.1047 48.5825 47.4917 49.0529 46.8359 49.4521C46.1659 49.8655 45.4673 50.2077 44.726 50.4785C43.9704 50.7636 43.2006 50.9632 42.4023 51.0915C41.5897 51.2198 40.7628 51.2769 39.936 51.2484C40.0073 51.4337 40.0643 51.619 40.1213 51.8043C40.1498 51.8899 40.1641 51.9754 40.1926 52.0609C40.1926 52.0895 40.2211 52.1607 40.2211 52.1607L40.3352 52.232Z" fill="white"/>
<path d="M48.2901 49.6091C47.4917 50.2079 46.6221 50.7211 45.7097 51.1203C45.2535 51.3199 44.7831 51.4909 44.2984 51.6478C44.056 51.719 43.8137 51.7903 43.5713 51.8473C43.4715 51.8759 43.3575 51.8901 43.2577 51.9471C43.1721 51.9899 43.1151 52.0612 43.0723 52.1467C42.9725 52.3321 43.0011 52.5459 43.1294 52.7027C43.2719 52.888 43.4858 52.9166 43.6996 52.8738C44.1843 52.7597 44.669 52.6172 45.1395 52.4461C46.0804 52.1182 46.9928 51.6763 47.8481 51.1488C48.062 51.0205 48.2758 50.8779 48.4754 50.7354C48.5752 50.6641 48.6892 50.5928 48.789 50.5215C48.8746 50.4503 48.9743 50.3932 49.0456 50.2934C49.1597 50.1366 49.1597 49.9085 49.0599 49.7375C48.9601 49.5664 48.7605 49.4666 48.5752 49.4808C48.4611 49.5094 48.3613 49.5521 48.2901 49.6091C48.5182 49.4381 46.8217 50.6926 48.2901 49.6091Z" fill="white"/>
<path d="M50.0008 48.0691C49.8725 48.2116 49.7299 48.3542 49.5874 48.4968C49.4733 48.6108 49.345 48.7106 49.288 48.8674C49.2025 49.1668 49.402 49.4804 49.7014 49.5232C49.8867 49.5517 50.0436 49.4804 50.1719 49.3664C50.3144 49.2381 50.457 49.0955 50.5853 48.953C50.6993 48.8389 50.8276 48.7249 50.8704 48.5538C50.8989 48.4255 50.8847 48.2687 50.8134 48.1546C50.6423 47.8695 50.2289 47.8267 50.0008 48.0691C50.2004 47.8552 49.8155 48.2687 50.0008 48.0691Z" fill="white"/>
<path d="M46.7646 45.0758C46.4367 45.418 46.0946 45.7316 45.7239 46.0167C45.6241 46.088 45.5101 46.1736 45.4103 46.2448C45.3247 46.3019 45.2535 46.3874 45.2107 46.4872C45.1251 46.6868 45.1822 46.9291 45.3532 47.0717C45.5528 47.2428 45.8094 47.2285 46.0233 47.0717C46.2229 46.9291 46.4224 46.7866 46.6078 46.644C46.7789 46.5014 46.9499 46.3446 47.121 46.1878C47.2208 46.1023 47.3063 46.0025 47.4061 45.9027C47.4917 45.8172 47.5772 45.7316 47.6342 45.6176C47.7198 45.3895 47.6342 45.1186 47.4204 44.9903C47.2065 44.8763 46.9357 44.9048 46.7646 45.0758C46.9642 44.8763 46.2656 45.6033 46.7646 45.0758Z" fill="white"/>
<path d="M40.3921 35.6377C39.6936 35.6377 39.0093 35.8515 38.439 36.265C37.8831 36.6641 37.4554 37.2201 37.2273 37.8616C36.9849 38.5174 36.9564 39.2587 37.156 39.943C37.3413 40.5988 37.7262 41.1833 38.2537 41.611C38.7812 42.0529 39.4512 42.3238 40.1355 42.3666C40.8341 42.4236 41.5469 42.2525 42.1456 41.8818C42.7301 41.5254 43.1863 41.0122 43.4714 40.385C43.7566 39.7434 43.8421 39.0164 43.6995 38.3178C43.5712 37.6478 43.2148 37.0205 42.7301 36.5501C42.2312 36.0796 41.5896 35.766 40.9196 35.6519C40.7343 35.6519 40.5632 35.6377 40.3921 35.6377Z" fill="white"/>
</svg>
