<svg xmlns="http://www.w3.org/2000/svg" width="120" height="120" viewBox="0 0 120 120" fill="none">
  <rect x="10" y="10" width="100" height="100" rx="24" fill="#FF3300"/>
  <path d="M48.5704 59.9551L92.1025 49.5752V27H69.5301L48.5704 59.9551Z" fill="white"/>
  <path d="M27 59.5583C26.9979 62.1982 27.3174 64.8285 27.9513 67.3911L48.5732 59.9551L27.7796 52.4517C27.2634 54.7834 27.0019 57.1644 27 59.5527V59.5583Z" fill="white"/>
  <path d="M34.6667 38.5705L48.5648 59.9608L54.9734 27.3237C47.0489 28.4469 39.8178 32.4558 34.6667 38.5818V38.5705Z" fill="white"/>
  <path d="M48.5704 59.9551L92.1025 70.3294V92.9017H69.5301L48.5704 59.9551Z" fill="white"/>
  <path d="M34.6696 81.3341L48.5676 59.9438L54.9678 92.5725C47.0442 91.4489 39.8141 87.44 34.6639 81.3144L34.6696 81.3341Z" fill="white"/>
</svg>