<svg width="120" height="120" viewBox="0 0 120 120" fill="none" xmlns="http://www.w3.org/2000/svg">
<rect x="8" y="8" width="105" height="105" rx="24" fill="#F096E3"/>
<path d="M55.9621 93.3125C38.1596 93.3125 27.6875 79.0006 27.6875 61.198C27.6875 42.6975 39.2068 27.6875 61.1981 27.6875C83.8876 27.6875 91.5672 43.0465 91.9161 51.7732H75.5099C75.1608 46.8863 70.972 39.5558 60.849 39.5558C50.0279 39.5558 43.0465 48.9807 43.0465 60.5C43.0465 72.0193 50.0279 81.4441 60.849 81.4441C70.6229 81.4441 74.8117 73.7647 76.5571 66.0851H60.849V59.8017H93.8099V91.9162H79.3496V71.6701C78.3025 79.0006 73.7645 93.3125 55.9621 93.3125Z" fill="black"/>
</svg>
