<svg width="120" height="120" viewBox="0 0 120 120" fill="none" xmlns="http://www.w3.org/2000/svg">
<rect x="10" y="10" width="100" height="100" rx="24" fill="#4E26DE"/>
<path fill-rule="evenodd" clip-rule="evenodd" d="M61.8885 68.1953L82.7666 77.7658C85.3544 78.9525 87.1809 80.9442 88.1674 83.2289C90.6623 89.0145 87.2523 94.9314 81.8994 97.0596C76.5454 99.1866 70.8395 97.8177 68.245 91.8013L59.1588 70.6784C58.4547 69.0411 60.2234 67.4322 61.8885 68.1953Z" fill="#FFC233"/>
<path fill-rule="evenodd" clip-rule="evenodd" d="M64.2573 61.8246L85.4001 53.729C92.4269 51.0384 100.103 56.1292 99.999 63.526C99.9973 63.6227 99.9957 63.7191 99.9932 63.8166C99.8414 71.0195 92.3791 75.8609 85.5067 73.3126L64.2773 65.4421C62.5839 64.8145 62.5713 62.4701 64.2573 61.8246Z" fill="#FFC233"/>
<path fill-rule="evenodd" clip-rule="evenodd" d="M61.9624 57.8318L84.1376 48.9598C91.5063 46.0113 93.3765 37.162 87.6052 32.0488C87.5296 31.9815 87.4539 31.915 87.3774 31.8485C81.7191 26.9033 72.3656 28.6445 69.1443 35.1579L59.1934 55.2817C58.3994 56.8864 60.1938 58.5391 61.9624 57.8318Z" fill="#FFC233"/>
<path fill-rule="evenodd" clip-rule="evenodd" d="M57.3605 55.6791L65.3459 34.2352C66.336 31.5764 66.1526 28.8649 65.1291 26.5253C62.5372 20.6033 55.518 18.6917 49.9693 20.8741C44.4215 23.0574 41.2865 28.0157 43.9815 34.1742L53.463 55.7809C54.1983 57.4553 56.724 57.3893 57.3605 55.6791Z" fill="#FFC233"/>
</svg>
