<svg width="78" height="78" viewBox="0 0 78 78" fill="none" xmlns="http://www.w3.org/2000/svg">
<rect width="78" height="78" rx="12" fill="white"/>
<rect x="16" y="16" width="46" height="46" rx="23" fill="#FFE01B"/>
<path d="M46.6421 38.1173C46.8611 38.0913 47.0851 38.0913 47.3031 38.1173C47.4231 37.8463 47.4441 37.3724 47.3341 36.8624C47.1781 36.1024 46.9641 35.6385 46.5161 35.7115C46.0732 35.7845 46.0582 36.3364 46.2142 37.0964C46.3081 37.5234 46.4641 37.8933 46.6411 38.1173H46.6421ZM42.8294 38.7213C43.1474 38.8623 43.3393 38.9553 43.4183 38.8723C43.4653 38.8203 43.4543 38.7263 43.3763 38.6013C43.2204 38.3463 42.8974 38.0853 42.5534 37.9403C41.8344 37.6383 41.0065 37.7373 40.3765 38.2003C40.1626 38.3563 39.9656 38.5753 39.9916 38.7053C40.0016 38.7473 40.0336 38.7783 40.1066 38.7883C40.2836 38.8093 40.8925 38.5023 41.6015 38.4553C42.0964 38.4243 42.5124 38.5803 42.8304 38.7213H42.8294ZM42.1894 39.0862C41.7725 39.1542 41.5485 39.2892 41.4035 39.4142C41.2735 39.5232 41.2005 39.6482 41.2005 39.7322L41.2315 39.8102L41.2995 39.8362C41.3935 39.8362 41.6015 39.7472 41.6015 39.7472C42.0284 39.5912 42.4864 39.5392 42.9344 39.6122C43.1424 39.6332 43.2414 39.6482 43.2884 39.5762C43.2984 39.5552 43.3143 39.5132 43.2724 39.4462C43.1784 39.2852 42.7564 39.0183 42.1894 39.0862ZM45.3562 40.4292C45.6372 40.5641 45.9452 40.5121 46.0442 40.3092C46.1482 40.1012 46.0022 39.8192 45.7212 39.6842C45.4402 39.5432 45.1322 39.6012 45.0282 39.8042C44.9292 40.0122 45.0752 40.2882 45.3562 40.4292ZM47.1631 38.8463C46.9341 38.8413 46.7411 39.0912 46.7411 39.4082C46.7361 39.7212 46.9131 39.9762 47.1421 39.9812C47.3711 39.9862 47.5591 39.7362 47.5641 39.4242C47.5691 39.1112 47.3871 38.8513 47.1631 38.8463ZM31.8251 44.5019C31.7681 44.4339 31.6741 44.4549 31.5851 44.4759C31.5121 44.4919 31.4391 44.5019 31.3711 44.5069C31.2152 44.5069 31.0692 44.4339 30.9802 44.3089C30.8762 44.1479 30.8812 43.9079 30.9962 43.6369L31.0482 43.5119C31.2362 43.101 31.5381 42.413 31.1942 41.7571C30.9392 41.2621 30.5172 40.9551 30.0062 40.8921C29.5163 40.8291 29.0323 41.0011 28.6933 41.3611C28.1884 41.9181 28.1104 42.679 28.2094 42.95C28.2454 43.049 28.3034 43.075 28.3444 43.08C28.4273 43.09 28.5523 43.028 28.6363 42.814L28.6573 42.746C28.6933 42.631 28.7613 42.418 28.8653 42.251C29.1463 41.8241 29.7143 41.7041 30.1362 41.9851C30.4902 42.214 30.6312 42.652 30.4802 43.063C30.4022 43.282 30.2722 43.6879 30.3032 44.0269C30.3602 44.7089 30.7772 44.9799 31.1522 45.0108C31.5171 45.0268 31.7721 44.8179 31.8401 44.6669C31.8761 44.5779 31.8451 44.5259 31.8241 44.4999L31.8251 44.5019ZM52.9227 43.257C52.9067 43.205 52.8187 42.872 52.6937 42.476L52.4387 41.7941C52.9387 41.0441 52.9487 40.3722 52.8817 39.9922C52.8087 39.5232 52.6157 39.1222 52.2208 38.7113C51.8298 38.2943 51.0228 37.8673 49.8879 37.5504L49.2939 37.3894C49.2939 37.3634 49.2629 35.9835 49.237 35.3945C49.221 34.9675 49.185 34.2956 48.977 33.6396C48.732 32.7487 48.3 31.9677 47.7631 31.4678C49.242 29.9319 50.1689 28.239 50.1639 26.7911C50.1589 23.9943 46.7371 23.1503 42.5184 24.9002L41.6225 25.2802C41.0755 24.7442 40.5335 24.2072 39.9816 23.6713C35.1689 19.4686 20.1289 36.2124 24.9356 40.2852L25.9875 41.1761C25.7065 41.9361 25.6075 42.754 25.6955 43.5669C25.8105 44.6869 26.3835 45.7598 27.3204 46.5877C28.2054 47.3737 29.3723 47.8737 30.5082 47.8737C32.3781 52.1914 36.6538 54.8422 41.6635 54.9932C47.0431 55.1492 51.5588 52.6233 53.4487 48.0826C53.5737 47.7647 54.0996 46.3278 54.0996 45.0618C54.0996 43.7859 53.3807 43.26 52.9227 43.26V43.257ZM30.9192 46.6527C30.7582 46.6837 30.5862 46.6947 30.4192 46.6887C28.7993 46.6467 27.0444 45.1838 26.8675 43.444C26.6745 41.5221 27.6534 40.0482 29.3883 39.6992C29.6283 39.6472 29.8723 39.6312 30.1172 39.6422C31.0912 39.6992 32.5231 40.4442 32.8461 42.564C33.138 44.4439 32.6791 46.3558 30.9192 46.6577V46.6527ZM29.1073 38.5493C28.0294 38.7573 27.0764 39.3722 26.4925 40.2162C26.1435 39.9302 25.4975 39.3672 25.3836 39.1482C24.4566 37.3774 26.3995 33.9456 27.7534 32.0027C31.1072 27.211 36.3618 23.5813 38.7947 24.2372C39.1906 24.3522 40.4975 25.8721 40.4975 25.8721C40.4975 25.8721 38.0657 27.221 35.8099 29.1059C32.7741 31.4498 30.4822 34.8505 29.1073 38.5483V38.5493ZM46.1522 45.9398C46.1882 45.9238 46.2152 45.8828 46.2092 45.8458C46.2042 45.7938 46.1622 45.7568 46.1102 45.7628C46.1102 45.7628 43.5683 46.1428 41.1625 45.2578C41.4225 44.4089 42.1204 44.7159 43.1724 44.7999C44.8072 44.8989 46.4481 44.7219 48.026 44.2739C49.115 43.9609 50.5419 43.347 51.6558 42.467C52.0308 43.29 52.1608 44.1959 52.1608 44.1959C52.1608 44.1959 52.4527 44.1439 52.6917 44.2949C52.9207 44.4359 53.0877 44.7329 52.9727 45.4878C52.7437 46.9047 52.1398 48.0556 51.1288 49.1176C50.4989 49.7995 49.7489 50.3625 48.91 50.7735C48.446 51.0184 47.962 51.2214 47.4671 51.3884C43.6543 52.6333 39.7536 51.2634 38.4937 48.3206C38.3947 48.0966 38.3117 47.8627 38.2437 47.6227C37.7077 45.6848 38.1607 43.357 39.5876 41.8941C39.6706 41.8001 39.7596 41.6911 39.7596 41.5501C39.7596 41.4351 39.6866 41.3161 39.6246 41.2271C39.1296 40.5032 37.4057 39.2742 37.7497 36.8884C37.9997 35.1745 39.4946 33.9716 40.8905 34.0396L41.2445 34.0606C41.8484 34.0966 42.3744 34.1756 42.8694 34.1956C43.7023 34.2316 44.4523 34.1126 45.3382 33.3726C45.6352 33.1226 45.8742 32.9037 46.2812 32.8367C46.3231 32.8317 46.4321 32.7897 46.6401 32.8007C46.8591 32.8107 47.0671 32.8787 47.2491 32.9987C47.963 33.4726 48.062 34.6185 48.098 35.4565C48.119 35.9355 48.176 37.0914 48.197 37.4254C48.244 38.1853 48.442 38.2953 48.843 38.4253C49.072 38.5033 49.2859 38.5603 49.5929 38.6443C50.5359 38.9103 51.0928 39.1802 51.4418 39.5242C51.6558 39.7382 51.7488 39.9672 51.7808 40.1852C51.8958 40.9981 51.1558 41.9981 49.198 42.909C47.0571 43.9039 44.4643 44.1539 42.6724 43.9559L42.0424 43.8829C40.6105 43.6899 39.7926 45.5438 40.6515 46.8207C41.2035 47.6387 42.7194 48.1746 44.2293 48.1746C47.6931 48.1746 50.3589 46.6907 51.3488 45.4088L51.4268 45.2938C51.4788 45.2208 51.4368 45.1848 51.3748 45.2258C50.5679 45.7778 46.9691 47.9806 43.1254 47.3197C43.1254 47.3197 42.6564 47.2417 42.2294 47.0747C41.8904 46.9447 41.1825 46.6167 41.0945 45.8868C44.1983 46.8507 46.1512 45.9388 46.1512 45.9388L46.1522 45.9398ZM35.2989 31.9817C36.4918 30.6018 37.9597 29.4039 39.2726 28.7319C39.3196 28.7059 39.3666 28.7579 39.3456 28.7999C39.2416 28.9879 39.0386 29.3989 38.9756 29.7009C38.9656 29.7479 39.0176 29.7839 39.0536 29.7579C39.8766 29.2009 41.2985 28.6019 42.5484 28.524C42.6004 28.524 42.6264 28.592 42.5844 28.6229C42.3764 28.7839 42.1934 28.9669 42.0324 29.1749C42.0064 29.2109 42.0324 29.2579 42.0744 29.2579C42.9544 29.2679 44.1893 29.5759 44.9912 30.0289C45.0482 30.0599 45.0122 30.1638 44.9492 30.1488C43.7303 29.8679 41.7355 29.6539 39.6636 30.1648C37.8147 30.6178 36.4038 31.3108 35.3719 32.0657C35.3199 32.1017 35.2569 32.0337 35.2989 31.9817Z" fill="black"/>
</svg>
