<svg width="120" height="120" viewBox="0 0 120 120" fill="none" xmlns="http://www.w3.org/2000/svg">
<rect x="8" y="8" width="105" height="105" rx="24" fill="#FFDD35"/>
<path d="M41.7929 28H63.5345C68.5824 28 72.7087 28.9111 75.9133 30.7334C79.139 32.5347 81.5268 34.9749 83.0767 38.0539C84.6267 41.1329 85.4017 44.568 85.4017 48.3591C85.4017 52.1503 84.6267 55.5959 83.0767 58.6958C81.5477 61.7958 79.1809 64.2673 75.9762 66.1105C72.7715 67.9328 68.6662 68.844 63.6602 68.844H49.5847V92.3449H41.7929V61.9319H49.5847H63.4088C66.8648 61.9319 69.6401 61.3349 71.7347 60.141C73.8293 58.9471 75.3478 57.3343 76.2904 55.3026C77.2539 53.2499 77.7356 50.9354 77.7356 48.3591C77.7356 45.7828 77.2539 43.4788 76.2904 41.4471C75.3478 39.4154 73.8188 37.8235 71.7033 36.6715C69.5878 35.4985 66.781 34.9121 63.2831 34.9121H49.5847H41.7929V28Z" fill="#040F0F"/>
<path d="M45.0593 36.8477C45.0593 36.8477 45.6695 42.5431 48.0463 44.9199C50.4231 47.2967 56.1186 47.9069 56.1186 47.9069C56.1186 47.9069 50.4231 48.5171 48.0463 50.894C45.6695 53.2708 45.0593 58.9662 45.0593 58.9662C45.0593 58.9662 44.4491 53.2708 42.0723 50.894C39.6955 48.5171 34 47.9069 34 47.9069C34 47.9069 39.6955 47.2967 42.0723 44.9199C44.4491 42.5431 45.0593 36.8477 45.0593 36.8477Z" fill="#040F0F"/>
</svg>
