<svg width="78" height="78" viewBox="0 0 78 78" fill="none" xmlns="http://www.w3.org/2000/svg">
<rect width="78" height="78" rx="12" fill="white"/>
<path d="M51.3236 28.4635C51.7577 25.6404 51.3236 23.7584 49.8042 22.0212C48.1401 20.0667 45.1014 19.2705 41.1944 19.2705H29.9799C29.1841 19.2705 28.5329 19.8496 28.3882 20.6458L23.6854 50.3238C23.613 50.9029 24.0471 51.4096 24.6259 51.4096H31.5717L31.0652 54.4498C30.9929 54.9565 31.3546 55.3908 31.9334 55.3908H37.7939C38.5174 55.3908 39.0962 54.8841 39.1686 54.2326L40.3985 46.5598C40.4709 45.9083 41.122 45.4016 41.7732 45.4016H42.6414C48.2848 45.4016 52.7706 43.0853 54.0729 36.4258C54.5794 33.6752 54.3623 31.2865 52.9153 29.694C52.4812 29.1873 51.9747 28.8254 51.3236 28.4635Z" fill="#009CDE"/>
<path d="M51.3236 28.4635C51.7577 25.6404 51.3236 23.7584 49.8042 22.0212C48.1401 20.0667 45.1014 19.2705 41.1944 19.2705H29.9799C29.1841 19.2705 28.5329 19.8496 28.3882 20.6458L23.6854 50.3238C23.613 50.9029 24.0471 51.4096 24.6259 51.4096H31.5717L33.2357 40.6966C33.3805 39.9003 34.0316 39.3213 34.8275 39.3213H38.1556C44.6672 39.3213 49.7318 36.7154 51.1789 29.0425C51.2512 28.8978 51.2512 28.6806 51.3236 28.4635Z" fill="#012169"/>
<path d="M35.1892 28.5358C35.2616 28.0291 35.9127 27.3777 36.5639 27.3777H45.3908C46.4037 27.3777 47.4166 27.4501 48.2848 27.5948C49.0807 27.7396 50.5277 28.1015 51.2512 28.5358C51.6853 25.7128 51.2512 23.8308 49.7318 22.0935C48.1401 20.0667 45.1014 19.2705 41.1944 19.2705H29.9799C29.1841 19.2705 28.5329 19.8496 28.3882 20.6458L23.6854 50.3238C23.613 50.9029 24.0471 51.4096 24.6259 51.4096H31.5717L35.1892 28.5358Z" fill="#003087"/>
</svg>
