<svg width="120" height="120" viewBox="0 0 120 120" fill="none" xmlns="http://www.w3.org/2000/svg">
<rect x="10" y="10" width="100" height="100" rx="24" fill="#4B2AAD"/>
<path fill-rule="evenodd" clip-rule="evenodd" d="M39 33.0105C39 32.4392 39.4655 31.9762 40.0397 31.9762H52.2852C52.8595 31.9762 53.3251 32.4392 53.3251 33.0105V35.7645C53.3251 35.7645 57.042 32.6269 61.5431 31.5695C62.7997 31.1898 64.182 31 65.6899 31C68.1025 31 70.3895 31.5423 72.5508 32.6269C74.7624 33.6573 76.6976 35.1486 78.3563 37.101C80.015 39.0533 81.3218 41.4395 82.2768 44.2595C83.2821 47.0794 83.7847 50.252 83.7847 53.777V53.9396C83.7847 57.5189 83.2821 60.7457 82.2768 63.6199C81.3218 66.4399 80.015 68.8531 78.3563 70.8598C76.7478 72.812 74.8378 74.3305 72.6262 75.4151C70.4649 76.4456 68.1779 76.9607 65.7653 76.9607C65.7653 76.9607 56.326 76.9607 53.2684 73.486V87.9657C53.2684 88.537 52.8029 89 52.2286 89H40.0397C39.4655 89 39 88.537 39 87.9657V33.0105ZM64.6343 63.2945C63.6291 63.7826 62.5484 64.0266 61.3924 64.0266C60.2363 64.0266 59.1305 63.7826 58.0749 63.2945C57.0697 62.8065 56.19 62.1285 55.4361 61.2608C54.6821 60.339 54.079 59.2815 53.6266 58.0884C53.2245 56.841 53.0235 55.4853 53.0235 54.0211V53.8583C53.0235 52.3941 53.2245 51.0654 53.6266 49.8723C54.079 48.6251 54.6821 47.5676 55.4361 46.6999C56.19 45.7779 57.0697 45.0729 58.0749 44.5849C59.1305 44.0968 60.2363 43.8527 61.3924 43.8527C62.5484 43.8527 63.6291 44.0968 64.6343 44.5849C65.6396 45.0729 66.5192 45.7779 67.2732 46.6999C68.0271 47.5676 68.6303 48.6251 69.0826 49.8723C69.5351 51.0654 69.7612 52.3941 69.7612 53.8583V54.0211C69.7612 55.4853 69.5351 56.841 69.0826 58.0884C68.6303 59.3356 68.0271 60.3931 67.2732 61.2608C66.5192 62.1285 65.6396 62.8065 64.6343 63.2945Z" fill="white"/>
</svg>
