<svg width="78" height="78" viewBox="0 0 78 78" fill="none" xmlns="http://www.w3.org/2000/svg">
<rect width="78" height="78" rx="12" fill="white"/>
<circle cx="39" cy="39" r="23" fill="#893999"/>
<path d="M46.4959 46.0964C45.0413 43.8044 43.9394 42.3058 43.1901 41.7328C46.9807 40.7631 50.7273 37.5895 50.7273 32.3884C50.7273 26.0413 46.3636 23 39.4435 23C33.3609 23 29.8347 25.865 29.0413 30.8457H26L32.0386 36.0028L38.4298 30.8457H34.9917C34.9917 30.8457 35.0358 27.2755 39.5317 27.2755C43.3664 27.2755 44.6887 30.0964 44.6887 32.4325C44.6887 35.8264 42.8815 38.427 38.562 38.427H28.9972V55H35.0358V42.5262C36.3581 42.5262 37.6364 43.011 39.8843 46.3168L45.2617 55H52.0055L46.4959 46.0964Z" fill="white"/>
</svg>
