<svg width="78" height="78" viewBox="0 0 78 78" fill="none" xmlns="http://www.w3.org/2000/svg">
<rect width="78" height="78" rx="12" fill="white"/>
<path fill-rule="evenodd" clip-rule="evenodd" d="M35.0831 32.9256C35.0624 32.9256 35.0224 32.9256 35.0018 32.9256C34.6587 32.8837 34.3763 32.5694 34.3763 32.2132C34.3557 31.8779 34.1738 24.0411 38.5946 22.2601C39.705 21.82 40.7355 21.9038 41.6034 22.5535C42.6724 23.3287 43.4398 24.8793 43.904 27.1423C44.2264 28.7348 44.287 30.1177 44.287 30.1806C44.3077 30.5158 44.046 30.7674 43.7016 30.7045C43.3585 30.6625 43.0761 30.3483 43.0761 30.013C43.0155 28.5881 42.5512 24.6698 41.0179 23.5382C40.533 23.182 39.9268 23.1401 39.2008 23.4335C35.4054 24.9631 35.5872 32.318 35.5872 32.4017C35.5872 32.6951 35.3861 32.9256 35.0831 32.9256Z" fill="#595961"/>
<path opacity="0.46" fill-rule="evenodd" clip-rule="evenodd" d="M41.3801 22.5958C40.5728 22.009 39.6249 21.9252 38.5944 22.3233C36.798 23.0567 35.5265 24.9845 34.901 27.9181C34.4368 30.0762 34.4973 32.0251 34.4973 32.1088C34.4973 32.2136 34.5373 32.3184 34.6186 32.4022C34.6985 32.486 34.7798 32.5489 34.8804 32.5489C34.901 32.5489 34.9217 32.5489 34.941 32.5489C35.1228 32.5489 35.2647 32.4022 35.2647 32.2136C35.2647 32.1298 35.0829 24.6492 38.9789 23.0776C39.7655 22.7634 40.4516 22.8052 41.0178 23.2243C42.6516 24.4187 43.1365 28.4629 43.1971 29.9087C43.1971 30.1182 43.379 30.3278 43.6008 30.3487C43.8034 30.3696 43.9645 30.2229 43.9645 30.0135C43.9438 29.762 43.7221 24.314 41.3801 22.5958Z" fill="#B2B2C2"/>
<path opacity="0.46" fill-rule="evenodd" clip-rule="evenodd" d="M34.901 32.2971C34.8803 32.2971 34.8803 32.2971 34.8611 32.2971C34.7398 32.2762 34.6378 32.1505 34.6186 32.0247C34.6186 31.9408 34.558 30.0341 35.0223 27.8758C35.627 25.0052 36.8999 23.0983 38.655 22.3858C39.6442 21.9877 40.5328 22.0716 41.3002 22.6164C43.5609 24.2717 43.7827 29.636 43.7827 29.8664C43.7827 29.9922 43.6821 30.0759 43.5609 30.0551C43.4396 30.0341 43.339 29.9294 43.3184 29.7827C43.3184 29.7197 43.0966 24.4604 41.0577 22.9516C40.4515 22.5117 39.7048 22.4488 38.8576 22.7839C34.901 24.4394 35.0829 32.0247 35.0829 32.1085C35.1022 32.2132 35.0222 32.2971 34.901 32.2971Z" fill="#B2B2C2"/>
<path opacity="0.62" fill-rule="evenodd" clip-rule="evenodd" d="M36.5363 26.3046C36.6975 25.9904 36.8586 25.676 37.0005 25.3408C36.9399 25.4456 36.5362 26.5352 35.3046 26.3675C35.284 26.3675 36.0307 26.598 36.5363 26.3046Z" fill="#595961"/>
<path opacity="0.62" fill-rule="evenodd" clip-rule="evenodd" d="M36.0914 27.6454C36.2126 27.31 36.3338 26.9539 36.4151 26.6187C36.3751 26.7444 36.1726 27.8758 34.8804 27.8758C34.8804 27.8758 35.6271 28.0225 36.0914 27.6454Z" fill="#595961"/>
<path opacity="0.62" fill-rule="evenodd" clip-rule="evenodd" d="M43.1766 24.9426C43.0155 24.5654 42.8336 24.2092 42.6517 23.832C42.7123 23.9577 43.3185 25.1521 42.6324 26.0112C42.6324 26.0112 43.1574 25.5922 43.1766 24.9426Z" fill="#595961"/>
<path opacity="0.62" fill-rule="evenodd" clip-rule="evenodd" d="M42.0676 23.0565C41.7438 22.7841 41.4214 22.5327 41.0977 22.3022C41.2189 22.407 42.2893 23.1823 42.2287 24.3558C42.208 24.3558 42.3899 23.6643 42.0676 23.0565Z" fill="#595961"/>
<path opacity="0.62" fill-rule="evenodd" clip-rule="evenodd" d="M37.1217 25.1517C37.3642 24.9003 37.5653 24.6279 37.7871 24.3345C37.7072 24.4182 37.0405 25.2774 35.8502 24.9631C35.8502 24.9631 36.5362 25.3403 37.1217 25.1517Z" fill="#595961"/>
<path opacity="0.62" fill-rule="evenodd" clip-rule="evenodd" d="M37.8683 24.1876C38.1507 23.9782 38.4125 23.7685 38.6756 23.5381C38.5751 23.601 37.7471 24.2924 36.5968 23.7895C36.5968 23.7895 37.2622 24.2714 37.8683 24.1876Z" fill="#595961"/>
<path opacity="0.62" fill-rule="evenodd" clip-rule="evenodd" d="M38.9583 23.4962C39.3013 23.3914 39.6251 23.2657 39.9474 23.14C39.8262 23.1818 38.797 23.5589 37.7872 22.7627C37.8079 22.7627 38.3328 23.3914 38.9583 23.4962Z" fill="#595961"/>
<path opacity="0.62" fill-rule="evenodd" clip-rule="evenodd" d="M39.9473 23.1194C40.2298 23.1614 40.5122 23.1824 40.7946 23.2034C40.694 23.1824 39.8054 23.1194 39.3011 22.2812C39.3011 22.2812 39.5037 22.847 39.9473 23.1194Z" fill="#595961"/>
<path opacity="0.62" fill-rule="evenodd" clip-rule="evenodd" d="M41.1184 23.58C41.3195 23.8106 41.5426 24.041 41.7837 24.2505C41.7038 24.1668 41.0178 23.4753 41.179 22.6162C41.1583 22.6162 40.9365 23.0981 41.1184 23.58Z" fill="#595961"/>
<path opacity="0.74" fill-rule="evenodd" clip-rule="evenodd" d="M43.5609 29.7616C43.5609 29.531 43.3391 24.2297 41.139 22.6163C40.7147 22.302 40.2504 22.1553 39.7655 22.1553C39.4018 22.1553 39.0187 22.239 38.6151 22.4067C36.8586 23.0982 35.627 24.9631 35.0223 27.8128C34.558 29.9501 34.6186 31.857 34.6186 31.9407C34.6186 32.0037 34.6792 32.0665 34.7398 32.0665H34.7591C34.8197 32.0665 34.8611 32.0246 34.8611 31.9617C34.8611 31.878 34.6585 24.2297 38.7157 22.5953C39.6042 22.239 40.3716 22.302 41.0177 22.7839C43.1159 24.3136 43.339 29.6569 43.339 29.7197C43.339 29.7826 43.3997 29.8454 43.4603 29.8454C43.4603 29.8454 43.4603 29.8454 43.4796 29.8454C43.5209 29.8663 43.5609 29.8244 43.5609 29.7616Z" fill="url(#paint0_linear_8546_31938)"/>
<path fill-rule="evenodd" clip-rule="evenodd" d="M43.904 27.1428C43.4397 24.8798 42.6724 23.3501 41.6033 22.5538C41.0178 22.1348 40.391 21.9462 39.705 21.9881C40.2505 22.03 40.7547 22.2186 41.219 22.5538C42.2894 23.3292 43.0568 24.8798 43.5211 27.1428C43.8434 28.7353 43.904 30.1182 43.904 30.1811C43.904 30.4325 43.7828 30.6212 43.5803 30.684C43.6216 30.705 43.6616 30.705 43.6822 30.705C44.0253 30.7469 44.287 30.5163 44.2677 30.1811C44.287 30.1182 44.2263 28.7563 43.904 27.1428Z" fill="url(#paint1_linear_8546_31938)"/>
<path fill-rule="evenodd" clip-rule="evenodd" d="M38.8177 23.4337C35.0223 24.9633 35.2041 32.3182 35.2041 32.402C35.2041 32.6534 35.0829 32.8421 34.8804 32.9048C34.9217 32.9258 34.941 32.9258 34.9824 32.9258C35.0017 32.9258 35.043 32.9258 35.0622 32.9258C35.3653 32.9258 35.5664 32.6954 35.5664 32.402C35.5664 32.3182 35.386 24.9843 39.18 23.4547C39.4432 23.35 39.6856 23.287 39.9074 23.2661C39.5836 23.2033 39.2214 23.2661 38.8177 23.4337Z" fill="url(#paint2_linear_8546_31938)"/>
<path fill-rule="evenodd" clip-rule="evenodd" d="M44.5695 25.2567L27.4523 30.7466C27.4523 30.7466 26.7263 30.9562 26.5444 31.1866C26.3626 31.4171 26.3226 32.0666 26.3226 32.0666L23.6775 53.2302L43.5404 57.0858L45.0751 25.2357C44.8533 25.1938 44.6301 25.2357 44.5695 25.2567Z" fill="url(#paint3_linear_8546_31938)"/>
<path fill-rule="evenodd" clip-rule="evenodd" d="M50.485 27.9803C50.485 27.9803 50.4643 27.8126 50.3637 27.7498C50.2824 27.6869 50.1818 27.6869 50.1818 27.6869L47.3756 27.4774L45.3174 25.3611C45.2361 25.2981 45.1548 25.2563 45.0543 25.2354L43.521 57.0854L54.2789 54.6757L50.485 27.9803Z" fill="url(#paint4_linear_8546_31938)"/>
<path fill-rule="evenodd" clip-rule="evenodd" d="M37.5048 42.9417C37.2017 42.5226 36.8394 42.1455 36.4757 41.8101C36.112 41.4749 35.729 41.2025 35.3447 40.9511C35.0829 40.7834 34.8404 40.6157 34.6379 40.4481C34.4368 40.2805 34.2756 40.1129 34.1544 39.9662C34.0331 39.7985 33.9325 39.6518 33.8719 39.4843C33.8113 39.3166 33.7906 39.149 33.7906 38.9813C33.7906 38.7508 33.8513 38.5204 33.9325 38.3317C34.0125 38.1432 34.1544 37.9756 34.2949 37.8289C34.4574 37.6822 34.6379 37.5774 34.8611 37.4937C35.0829 37.4098 35.3446 37.368 35.627 37.347C35.9301 37.326 36.2332 37.347 36.5156 37.368C36.798 37.3888 37.0612 37.4517 37.3229 37.5145C37.5654 37.5774 37.8078 37.6612 38.009 37.7451C38.2115 37.8289 38.4126 37.9126 38.5545 37.9965L39.8867 33.8896C39.6856 33.7848 39.4431 33.6799 39.18 33.6172C38.8976 33.5333 38.5945 33.4705 38.2515 33.4285C37.9084 33.3867 37.5447 33.3657 37.1617 33.3657C36.7787 33.3657 36.3751 33.3867 35.9508 33.4495C35.043 33.5752 34.2343 33.8266 33.5083 34.2038C32.8222 34.5601 32.216 35.021 31.7118 35.5868C31.2269 36.1316 30.8438 36.7602 30.5614 37.4727C30.2983 38.1642 30.1372 38.9395 30.0972 39.7775C30.0765 40.2805 30.1165 40.7415 30.2377 41.1606C30.3383 41.5797 30.5008 41.9778 30.7226 42.3549C30.9238 42.7321 31.1869 43.0674 31.4693 43.3816C31.7517 43.696 32.0947 43.9894 32.4378 44.2618C32.7202 44.4713 32.9627 44.6808 33.1652 44.8694C33.3663 45.058 33.5289 45.2466 33.6488 45.4562C33.77 45.6447 33.8512 45.8333 33.9119 46.0428C33.9725 46.2314 33.9932 46.4409 33.9725 46.6505C33.9725 46.86 33.9119 47.0695 33.8306 47.2372C33.7507 47.4048 33.6488 47.5725 33.4876 47.6982C33.3471 47.8239 33.1652 47.9077 32.9627 47.9497C32.7616 47.9915 32.5191 48.0125 32.256 47.9706C31.9543 47.9287 31.6511 47.8449 31.3687 47.7191C31.0863 47.6143 30.8026 47.4676 30.5408 47.3209C30.2791 47.1744 30.0366 47.0067 29.8341 46.86C29.6123 46.7133 29.4304 46.5457 29.2899 46.42L28.3806 49.5422C28.5225 49.7517 28.7237 49.9403 28.9455 50.1288C29.1687 50.3174 29.4305 50.5059 29.7335 50.6946C30.0366 50.8623 30.359 51.0298 30.702 51.1765C31.0451 51.3232 31.4294 51.4489 31.8124 51.5538H31.833H31.8523H31.873H31.8937C32.7203 51.7423 33.5082 51.7842 34.2549 51.6795C35.0223 51.5746 35.729 51.3022 36.3338 50.8832C36.9592 50.4432 37.4648 49.8564 37.8478 49.0811C38.2321 48.3058 38.4539 47.3629 38.4939 46.2942C38.5145 45.6237 38.4333 45.0371 38.2515 44.4923C38.0696 43.8637 37.8079 43.3816 37.5048 42.9417Z" fill="url(#paint5_linear_8546_31938)"/>
<path opacity="0.226763" fill-rule="evenodd" clip-rule="evenodd" d="M28.5115 49.7129C28.4647 49.6573 28.4205 49.6006 28.3806 49.5423L29.2899 46.4201C29.3023 46.4318 29.316 46.4438 29.3298 46.4562C29.4648 46.5768 29.6329 46.7271 29.8341 46.8602C30.0366 47.0069 30.279 47.1745 30.5408 47.3212C30.8025 47.4678 31.0863 47.6145 31.3687 47.7194C31.6511 47.8451 31.9542 47.9288 32.2559 47.9708C32.5191 48.0126 32.7615 47.9918 32.9627 47.9498C33.1652 47.9079 33.347 47.8241 33.4875 47.6984C33.6487 47.5727 33.7507 47.405 33.8306 47.2373C33.9119 47.0697 33.9724 46.8602 33.9724 46.6507C33.9931 46.4411 33.9724 46.2316 33.9118 46.043C33.8512 45.8335 33.77 45.6448 33.6487 45.4563C33.5344 45.2571 33.3828 45.077 33.1941 44.8977C33.2933 45.0097 33.3773 45.1247 33.4476 45.2467C33.5688 45.4353 33.6487 45.6238 33.7093 45.8335C33.77 46.022 33.7906 46.2316 33.77 46.4411C33.77 46.6507 33.7094 46.8602 33.6295 47.0278C33.5482 47.1955 33.4476 47.363 33.2864 47.4888C33.1445 47.6145 32.9627 47.6984 32.7615 47.7402C32.559 47.7821 32.3166 47.8031 32.0548 47.7612C31.7517 47.7194 31.4486 47.6355 31.1662 47.5097C30.8838 47.405 30.6014 47.2583 30.3382 47.1116C30.0765 46.9649 29.8341 46.7974 29.6329 46.6507C29.4304 46.5176 29.2623 46.3673 29.1273 46.2467C29.1136 46.2343 29.1011 46.2223 29.0873 46.2106L28.1794 49.3327C28.269 49.4661 28.3834 49.591 28.5115 49.7129ZM31.4858 43.4008C31.41 43.3259 31.337 43.2498 31.2668 43.1723C30.9844 42.858 30.7226 42.5227 30.5201 42.1456C30.2983 41.7683 30.1371 41.3702 30.0365 40.9512C29.9153 40.5321 29.8739 40.0711 29.8946 39.5682C29.9346 38.73 30.0972 37.9547 30.3589 37.2632C30.6413 36.5509 31.0257 35.9223 31.5093 35.3775C32.0149 34.8117 32.6196 34.3506 33.3057 33.9945C34.0331 33.6173 34.8404 33.3659 35.7482 33.2402C36.1725 33.1772 36.5762 33.1562 36.9592 33.1562C37.3436 33.1562 37.7073 33.1772 38.0503 33.2192C38.3933 33.2611 38.6964 33.3239 38.9788 33.4078C39.2406 33.4706 39.4831 33.5753 39.6856 33.6801L39.6539 33.7781C39.5078 33.7146 39.348 33.6575 39.18 33.6173C38.8976 33.5335 38.5945 33.4706 38.2514 33.4287C37.9084 33.3868 37.5447 33.3659 37.1617 33.3659C36.7787 33.3659 36.3751 33.3868 35.9508 33.4496C35.0429 33.5754 34.2342 33.8268 33.5082 34.2041C32.8222 34.5602 32.216 35.0212 31.7118 35.587C31.2268 36.1318 30.8438 36.7604 30.5614 37.4728C30.2983 38.1643 30.1371 38.9396 30.0972 39.7777C30.0765 40.2807 30.1164 40.7416 30.2377 41.1607C30.3382 41.5798 30.5008 41.9779 30.7226 42.3551C30.9237 42.7322 31.1868 43.0676 31.4693 43.3818C31.4748 43.3881 31.4803 43.3945 31.4858 43.4008ZM34.2273 40.0522C34.3375 40.1768 34.4753 40.3125 34.6379 40.4482C34.8404 40.6159 35.0829 40.7836 35.3446 40.9512C35.729 41.2027 36.1119 41.4751 36.4756 41.8103C36.5817 41.9079 36.6864 42.0089 36.7911 42.1137C36.6231 41.933 36.448 41.762 36.2731 41.6008C35.9108 41.2654 35.5265 40.993 35.1435 40.7416C34.8804 40.5739 34.6379 40.4064 34.4368 40.2387C34.361 40.1762 34.2921 40.1137 34.2273 40.0522Z" fill="black" fill-opacity="0.92"/>
<path opacity="0.41" fill-rule="evenodd" clip-rule="evenodd" d="M48.0616 51.156L47.3755 27.4779L47.2543 27.3522L47.5781 50.8206C47.5781 50.8206 44.7318 55.3048 44.3075 55.179C43.6821 54.9905 45.5391 25.592 45.5391 25.592L45.3366 25.3826C45.2567 25.3196 45.1548 25.2778 45.0749 25.2568L43.5608 56.6668L43.5402 57.1069L44.065 56.4154L48.0616 51.156Z" fill="url(#paint6_linear_8546_31938)"/>
<path fill-rule="evenodd" clip-rule="evenodd" d="M40.3302 26.6188C40.0892 27.6036 39.7861 28.5255 39.5643 29.0913C39.4224 29.4267 39.5836 29.7409 39.8867 29.7828C40.2104 29.8248 40.5728 29.5942 40.694 29.259C40.7147 29.1961 41.2588 27.8342 41.6032 26.2207V26.1997L40.3302 26.6188Z" fill="url(#paint7_linear_8546_31938)"/>
<path fill-rule="evenodd" clip-rule="evenodd" d="M31.2269 29.5519C30.9445 30.1804 30.6621 30.7253 30.4596 31.1024C30.2791 31.4168 30.3797 31.752 30.6827 31.8357C30.9845 31.9406 31.3881 31.752 31.5699 31.4376C31.5906 31.3958 32.1761 30.3691 32.701 29.0698L31.2269 29.5519Z" fill="url(#paint8_linear_8546_31938)"/>
<path opacity="0.32" fill-rule="evenodd" clip-rule="evenodd" d="M43.5402 57.0853L48.0616 51.1553L54.3202 54.6756L43.5402 57.0853Z" fill="url(#paint9_linear_8546_31938)"/>
<path opacity="0.19" fill-rule="evenodd" clip-rule="evenodd" d="M43.5402 57.0853L48.0216 51.1553L54.3202 54.6756L43.5402 57.0853Z" fill="url(#paint10_linear_8546_31938)"/>
<path opacity="0.19" fill-rule="evenodd" clip-rule="evenodd" d="M43.5402 57.0853L48.0216 51.1553L54.3202 54.6756L43.5402 57.0853Z" fill="url(#paint11_linear_8546_31938)"/>
<path opacity="0.6" fill-rule="evenodd" clip-rule="evenodd" d="M39.14 40.4901C41.482 43.7799 43.0566 47.342 43.8432 50.7994L45.0749 25.2147C44.8531 25.1729 44.6299 25.2147 44.5693 25.2356L27.4521 30.7466C27.4521 30.7466 27.2909 30.7884 27.0884 30.8723C31.4293 32.4229 35.769 35.7546 39.14 40.4901Z" fill="url(#paint12_linear_8546_31938)"/>
<path fill-rule="evenodd" clip-rule="evenodd" d="M50.3829 27.7713C50.4848 27.8552 50.4848 27.9809 50.4848 27.9809L54.2389 54.6551L48.0615 51.1349L47.3755 27.457L50.1418 27.6665C50.1611 27.6875 50.2823 27.6875 50.3829 27.7713Z" fill="url(#paint13_linear_8546_31938)"/>
<path fill-rule="evenodd" clip-rule="evenodd" d="M49.9395 27.8342C49.9395 27.8342 50.0607 27.8342 50.1613 27.939C50.2619 28.0229 50.2825 28.1486 50.2825 28.1486L53.9773 54.5296L54.2598 54.6973L50.5043 28.0019C50.5043 28.0019 50.485 27.8762 50.4037 27.7924C50.3032 27.7085 50.1613 27.7085 50.1613 27.7085L47.3964 27.499L49.9395 27.8342Z" fill="url(#paint14_linear_8546_31938)"/>
<path fill-rule="evenodd" clip-rule="evenodd" d="M23.6775 53.2295L43.5404 57.0851L44.5102 35.251L26.1476 35.773L23.6775 53.2295Z" fill="url(#paint15_linear_8546_31938)"/>
<path opacity="0.3" fill-rule="evenodd" clip-rule="evenodd" d="M30.1977 31.0517C30.0172 31.561 30.1949 32.0961 30.5972 32.2472C30.9981 32.3981 31.4693 32.1078 31.6511 31.5986C31.8316 31.0894 31.6525 30.5542 31.2516 30.4033C30.8507 30.2522 30.3782 30.5425 30.1977 31.0517Z" fill="white"/>
<path opacity="0.89" fill-rule="evenodd" clip-rule="evenodd" d="M30.1758 30.8102C29.9953 31.3193 30.1744 31.8546 30.5752 32.0055C30.9761 32.1566 31.4487 31.8662 31.6292 31.357C31.8096 30.8477 31.6319 30.3125 31.2297 30.1616C30.8288 30.0105 30.3576 30.3008 30.1758 30.8102Z" fill="black" fill-opacity="0.92"/>
<path fill-rule="evenodd" clip-rule="evenodd" d="M47.3962 27.4774L45.3366 25.3611C45.2567 25.2981 45.1548 25.2563 45.0749 25.2354L43.5402 57.0854L48.0822 51.1343L47.3962 27.4774Z" fill="url(#paint16_linear_8546_31938)"/>
<path fill-rule="evenodd" clip-rule="evenodd" d="M44.5693 25.2569L27.4522 30.7467C27.4522 30.7467 26.7261 30.9563 26.5443 31.1868C26.5236 31.2078 26.5236 31.2287 26.5043 31.2497L43.762 26.3045C43.9039 26.2626 44.247 26.1369 44.207 27.1636L43.1572 57.044L43.521 57.1069L45.0543 25.2569C44.8531 25.1939 44.63 25.2359 44.5693 25.2569Z" fill="url(#paint17_linear_8546_31938)"/>
<path fill-rule="evenodd" clip-rule="evenodd" d="M44.5693 25.2569L27.4522 30.7467C27.4522 30.7467 26.7261 30.9563 26.5443 31.1868C26.5236 31.2078 26.5236 31.2287 26.5043 31.2497L30.5008 30.0972L44.247 25.676C44.3076 25.655 44.5294 25.613 44.7512 25.655L43.2372 57.044L43.521 57.1069L45.0543 25.2569C44.8531 25.1939 44.63 25.2359 44.5693 25.2569Z" fill="url(#paint18_linear_8546_31938)"/>
<path opacity="0.32" fill-rule="evenodd" clip-rule="evenodd" d="M48.9709 51.6586L48.0616 51.1348L43.521 57.0857L43.7621 57.0227C43.7621 57.0227 47.76 51.6796 48.1223 51.5119C48.3854 51.4072 48.9709 51.6586 48.9709 51.6586Z" fill="url(#paint19_linear_8546_31938)"/>
<path opacity="0.57" fill-rule="evenodd" clip-rule="evenodd" d="M43.5402 57.0857L48.0822 51.1348C48.0616 51.1557 45.1961 54.4035 43.5402 57.0857Z" fill="url(#paint20_linear_8546_31938)"/>
<path opacity="0.46" fill-rule="evenodd" clip-rule="evenodd" d="M54.3202 54.6756L48.0822 51.1553C48.0615 51.1553 48.789 51.281 54.3202 54.6756Z" fill="url(#paint21_linear_8546_31938)"/>
<path opacity="0.3" fill-rule="evenodd" clip-rule="evenodd" d="M39.4266 28.9623C39.2447 29.4716 39.4238 30.0068 39.8247 30.1579C40.227 30.309 40.6982 30.0186 40.8786 29.5095C41.0605 29.0002 40.8814 28.4649 40.4805 28.3138C40.0796 28.1629 39.6071 28.4531 39.4266 28.9623Z" fill="white"/>
<path opacity="0.89" fill-rule="evenodd" clip-rule="evenodd" d="M39.4045 28.7216C39.224 29.2309 39.4032 29.7662 39.8041 29.9172C40.205 30.0682 40.6774 29.778 40.8579 29.2686C41.0384 28.7595 40.8607 28.2243 40.4598 28.0732C40.0575 27.9221 39.5864 28.2125 39.4045 28.7216Z" fill="black" fill-opacity="0.92"/>
<path fill-rule="evenodd" clip-rule="evenodd" d="M30.9045 31.8362C30.8838 31.8362 30.8438 31.8362 30.8232 31.8362C30.5008 31.7944 30.279 31.48 30.319 31.1239C30.3589 30.7885 31.5092 22.9517 36.2331 21.1707C37.4234 20.7306 38.4332 20.8144 39.2006 21.4641C40.1291 22.2394 40.6333 23.7899 40.7146 26.053C40.7752 27.6455 40.5934 29.0284 40.5934 29.0913C40.5535 29.4265 40.2504 29.678 39.9266 29.6151C39.6043 29.5732 39.3618 29.2589 39.4224 28.9236C39.6042 27.4988 39.8054 23.5804 38.4539 22.4489C38.0296 22.0927 37.4442 22.0507 36.6575 22.3441C32.6004 23.8737 31.5299 31.2286 31.5299 31.2914C31.4486 31.6057 31.2075 31.8362 30.9045 31.8362Z" fill="#595961"/>
<path opacity="0.46" fill-rule="evenodd" clip-rule="evenodd" d="M38.9582 21.5058C38.2514 20.9192 37.3229 20.8354 36.2125 21.2335C34.2949 21.9668 32.6802 23.8945 31.5698 26.8071C30.7432 28.9654 30.4595 30.9141 30.4595 30.998C30.4402 31.1027 30.4802 31.2075 30.5408 31.2914C30.6014 31.3752 30.6826 31.4381 30.7832 31.4381C30.8025 31.4381 30.8232 31.4381 30.8438 31.4381C31.0257 31.4381 31.1868 31.2914 31.2075 31.1027C31.2268 31.019 32.2973 23.5384 36.4756 21.9668C37.3229 21.6525 38.0089 21.6944 38.4938 22.1135C39.9266 23.3079 39.7255 27.352 39.5436 28.7978C39.523 29.0074 39.6649 29.2169 39.866 29.2378C40.0685 29.2588 40.2696 29.1121 40.2903 28.9026C40.311 28.672 41.0177 23.2241 38.9582 21.5058Z" fill="#B2B2C2"/>
<path opacity="0.81" fill-rule="evenodd" clip-rule="evenodd" d="M30.8233 31.2078C30.8026 31.2078 30.8026 31.2078 30.7833 31.2078C30.6621 31.1868 30.5808 31.0611 30.6015 30.9354C30.6221 30.8515 30.8839 28.9448 31.7119 26.7865C32.8223 23.9158 34.3969 22.009 36.2732 21.2965C37.3437 20.8983 38.2116 20.9822 38.877 21.5271C40.8553 23.1824 40.1692 28.5466 40.1293 28.7771C40.1086 28.9028 40.0081 28.9866 39.8662 28.9657C39.7463 28.9448 39.665 28.84 39.665 28.6933C39.665 28.6304 40.3511 23.371 38.5753 21.8623C38.0504 21.4641 37.323 21.4223 36.4358 21.7575C32.1762 23.371 31.0658 30.9354 31.0658 31.0191C31.0451 31.1239 30.9445 31.2078 30.8233 31.2078Z" fill="#B2B2C2"/>
<path opacity="0.42" fill-rule="evenodd" clip-rule="evenodd" d="M33.4876 25.2148C33.7094 24.9005 33.9119 24.5862 34.113 24.251C34.0331 24.3557 33.4476 25.4454 32.2366 25.2777C32.216 25.2777 32.9227 25.5081 33.4876 25.2148Z" fill="#595961"/>
<path opacity="0.42" fill-rule="evenodd" clip-rule="evenodd" d="M32.8016 26.5555C32.9835 26.2202 33.1653 25.864 33.3058 25.5288C33.2452 25.6545 32.8415 26.786 31.5699 26.786C31.5699 26.786 32.2767 26.9327 32.8016 26.5555Z" fill="#595961"/>
<path opacity="0.42" fill-rule="evenodd" clip-rule="evenodd" d="M32.2767 27.9388C32.4379 27.5825 32.5592 27.2263 32.6804 26.8701C32.6198 26.9958 32.398 28.1483 31.0658 28.295C31.0658 28.274 31.7918 28.3579 32.2767 27.9388Z" fill="#595961"/>
<path opacity="0.62" fill-rule="evenodd" clip-rule="evenodd" d="M40.3509 23.8528C40.2503 23.4755 40.1497 23.1193 40.0078 22.7422C40.0478 22.8679 40.4515 24.0623 39.6249 24.9213C39.6249 24.9213 40.2296 24.5024 40.3509 23.8528Z" fill="#595961"/>
<path opacity="0.62" fill-rule="evenodd" clip-rule="evenodd" d="M39.5645 21.9667C39.2821 21.6943 38.9982 21.4429 38.7158 21.2124C38.8178 21.3171 39.7656 22.0924 39.5039 23.2658C39.4832 23.2658 39.7863 22.5743 39.5645 21.9667Z" fill="#595961"/>
<path opacity="0.62" fill-rule="evenodd" clip-rule="evenodd" d="M40.5535 25.7805C40.5328 25.4033 40.4723 25.0052 40.4116 24.6279C40.4116 24.7746 40.6142 26.0109 39.6443 26.6815C39.6443 26.6815 40.311 26.3881 40.5535 25.7805Z" fill="#595961"/>
<path opacity="0.62" fill-rule="evenodd" clip-rule="evenodd" d="M40.6541 27.7501C40.6748 27.3729 40.6748 26.9748 40.6541 26.5977C40.6541 26.7443 40.6748 27.9807 39.6443 28.5463C39.6443 28.5255 40.3511 28.3159 40.6541 27.7501Z" fill="#595961"/>
<path opacity="0.42" fill-rule="evenodd" clip-rule="evenodd" d="M31.8123 29.468C31.9336 29.0909 32.0149 28.7137 32.0948 28.3574C32.0548 28.4831 31.873 29.6775 30.6414 29.9709C30.662 29.9709 31.388 29.9499 31.8123 29.468Z" fill="#595961"/>
<path opacity="0.42" fill-rule="evenodd" clip-rule="evenodd" d="M34.255 24.0619C34.5374 23.8104 34.8004 23.538 35.0429 23.2446C34.941 23.3284 34.1337 24.1876 33.004 23.8732C33.0233 23.8732 33.6488 24.2505 34.255 24.0619Z" fill="#595961"/>
<path opacity="0.42" fill-rule="evenodd" clip-rule="evenodd" d="M35.1627 23.0983C35.4865 22.8888 35.7896 22.6792 36.0913 22.4487C35.9714 22.5117 35.0428 23.203 33.9724 22.7002C33.9724 22.7002 34.5373 23.1821 35.1627 23.0983Z" fill="#595961"/>
<path opacity="0.62" fill-rule="evenodd" clip-rule="evenodd" d="M36.3943 22.4068C36.758 22.3019 37.1011 22.1762 37.4441 22.0505C37.3229 22.0924 36.2332 22.4696 35.3446 21.6733C35.3446 21.6733 35.7689 22.3019 36.3943 22.4068Z" fill="#595961"/>
<path opacity="0.62" fill-rule="evenodd" clip-rule="evenodd" d="M37.4234 22.0301C37.7072 22.072 37.9897 22.093 38.2721 22.114C38.1715 22.093 37.3036 22.0301 36.9192 21.1919C36.9399 21.1919 37.0405 21.7577 37.4234 22.0301Z" fill="#595961"/>
<path opacity="0.62" fill-rule="evenodd" clip-rule="evenodd" d="M38.5146 22.4903C38.6965 22.7207 38.877 22.9512 39.0588 23.1608C38.9982 23.0769 38.4333 22.3855 38.7157 21.5264C38.7364 21.5264 38.4333 22.0084 38.5146 22.4903Z" fill="#595961"/>
<path fill-rule="evenodd" clip-rule="evenodd" d="M39.9073 28.6721C39.9266 28.4417 40.6141 23.1403 38.6964 21.5268C38.3327 21.2126 37.8891 21.0659 37.4042 21.0659C37.0405 21.0659 36.6368 21.1497 36.2125 21.3174C34.3555 22.0089 32.8015 23.8738 31.7117 26.7234C30.8838 28.8608 30.622 30.7676 30.6013 30.8514C30.6013 30.9142 30.6414 30.9771 30.702 30.9771H30.7226C30.7832 30.9771 30.8231 30.9352 30.8231 30.8724C30.8438 30.7885 31.9335 23.1403 36.2731 21.5059C37.2016 21.1497 37.9896 21.2126 38.5545 21.6945C40.3909 23.2241 39.7049 28.5674 39.6856 28.6303C39.6856 28.6931 39.7255 28.756 39.7861 28.756C39.7861 28.756 39.7861 28.756 39.8054 28.756C39.866 28.777 39.9073 28.735 39.9073 28.6721Z" fill="url(#paint22_linear_8546_31938)"/>
<path fill-rule="evenodd" clip-rule="evenodd" d="M40.7147 26.053C40.6334 23.7899 40.1292 22.2602 39.2007 21.464C38.6965 21.045 38.0904 20.8564 37.4043 20.8983C37.9292 20.9401 38.4127 21.1288 38.8178 21.464C39.7463 22.2394 40.2504 23.7899 40.3304 26.053C40.391 27.6455 40.2105 29.0283 40.2105 29.0913C40.1692 29.3427 40.008 29.5313 39.8055 29.5941C39.8468 29.6151 39.8661 29.6151 39.9074 29.6151C40.2298 29.6571 40.5329 29.4265 40.5729 29.0913C40.5935 29.0283 40.7753 27.6664 40.7147 26.053Z" fill="url(#paint23_linear_8546_31938)"/>
<path fill-rule="evenodd" clip-rule="evenodd" d="M36.2539 22.344C32.1968 23.8736 31.1263 31.2285 31.1263 31.3122C31.0864 31.5637 30.9238 31.7523 30.7227 31.8151C30.7626 31.8361 30.7833 31.8361 30.8232 31.8361C30.8439 31.8361 30.8839 31.8361 30.9045 31.8361C31.2076 31.8361 31.4487 31.6056 31.49 31.3122C31.5093 31.2285 32.5591 23.8946 36.6162 22.3648C36.9 22.2601 37.1411 22.1973 37.3643 22.1763C37.0612 22.1344 36.6768 22.1973 36.2539 22.344Z" fill="url(#paint24_linear_8546_31938)"/>
<defs>
<linearGradient id="paint0_linear_8546_31938" x1="35.6711" y1="22.2026" x2="35.038" y2="30.8218" gradientUnits="userSpaceOnUse">
<stop stop-color="white" stop-opacity="0.65"/>
<stop offset="1" stop-color="white" stop-opacity="0.01"/>
</linearGradient>
<linearGradient id="paint1_linear_8546_31938" x1="40.2973" y1="27.1365" x2="44.7545" y2="31.0404" gradientUnits="userSpaceOnUse">
<stop stop-opacity="0.01"/>
<stop offset="1" stop-opacity="0.4"/>
</linearGradient>
<linearGradient id="paint2_linear_8546_31938" x1="38.5104" y1="31.6525" x2="43.2282" y2="27.2582" gradientUnits="userSpaceOnUse">
<stop stop-opacity="0.01"/>
<stop offset="1" stop-opacity="0.4"/>
</linearGradient>
<linearGradient id="paint3_linear_8546_31938" x1="32.5054" y1="18.829" x2="14.1812" y2="39.9424" gradientUnits="userSpaceOnUse">
<stop stop-color="#B8D26E"/>
<stop offset="1" stop-color="#7FB525"/>
</linearGradient>
<linearGradient id="paint4_linear_8546_31938" x1="57.5715" y1="24.1145" x2="47.5148" y2="24.3012" gradientUnits="userSpaceOnUse">
<stop stop-color="#B4E034"/>
<stop offset="1" stop-color="#60A927"/>
</linearGradient>
<linearGradient id="paint5_linear_8546_31938" x1="27.6587" y1="38.1933" x2="19.4136" y2="58.2718" gradientUnits="userSpaceOnUse">
<stop stop-color="white"/>
<stop offset="1" stop-color="#CECEEB"/>
</linearGradient>
<linearGradient id="paint6_linear_8546_31938" x1="39.4803" y1="87.6407" x2="52.5389" y2="87.6142" gradientUnits="userSpaceOnUse">
<stop stop-color="#1D1D1B" stop-opacity="0.5"/>
<stop offset="0.038033" stop-color="#1D1D1B" stop-opacity="0.4837"/>
<stop offset="0.4243" stop-color="#1D1D1B" stop-opacity="0.3185"/>
<stop offset="1" stop-color="#1D1D1B" stop-opacity="0.01"/>
</linearGradient>
<linearGradient id="paint7_linear_8546_31938" x1="40.997" y1="24.7934" x2="38.8306" y2="25.9594" gradientUnits="userSpaceOnUse">
<stop stop-opacity="0.01"/>
<stop offset="1" stop-opacity="0.4"/>
</linearGradient>
<linearGradient id="paint8_linear_8546_31938" x1="31.9144" y1="28.2512" x2="30.3915" y2="29.56" gradientUnits="userSpaceOnUse">
<stop stop-opacity="0.01"/>
<stop offset="1" stop-opacity="0.4"/>
</linearGradient>
<linearGradient id="paint9_linear_8546_31938" x1="46.7694" y1="54.6912" x2="46.9235" y2="56.7237" gradientUnits="userSpaceOnUse">
<stop stop-opacity="0.01"/>
<stop offset="1" stop-opacity="0.4"/>
</linearGradient>
<linearGradient id="paint10_linear_8546_31938" x1="43.1696" y1="51.7159" x2="43.527" y2="57" gradientUnits="userSpaceOnUse">
<stop stop-color="white" stop-opacity="0.5"/>
<stop offset="0.0896271" stop-color="white" stop-opacity="0.4552"/>
<stop offset="1" stop-color="white" stop-opacity="0.01"/>
</linearGradient>
<linearGradient id="paint11_linear_8546_31938" x1="42.4821" y1="52.5377" x2="43.118" y2="58.1824" gradientUnits="userSpaceOnUse">
<stop stop-opacity="0.01"/>
<stop offset="1" stop-opacity="0.4"/>
</linearGradient>
<linearGradient id="paint12_linear_8546_31938" x1="39.9873" y1="20.0621" x2="23.6798" y2="29.4936" gradientUnits="userSpaceOnUse">
<stop stop-color="white" stop-opacity="0.5"/>
<stop offset="1" stop-color="white" stop-opacity="0.01"/>
</linearGradient>
<linearGradient id="paint13_linear_8546_31938" x1="43.1337" y1="69.3549" x2="57.5273" y2="69.384" gradientUnits="userSpaceOnUse">
<stop stop-color="#1D1D1B" stop-opacity="0.5"/>
<stop offset="0.0896271" stop-color="#1D1D1B" stop-opacity="0.4552"/>
<stop offset="1" stop-color="#1D1D1B" stop-opacity="0.01"/>
</linearGradient>
<linearGradient id="paint14_linear_8546_31938" x1="53.4414" y1="26.705" x2="51.3968" y2="27.206" gradientUnits="userSpaceOnUse">
<stop stop-color="white" stop-opacity="0.4"/>
<stop offset="1" stop-color="white" stop-opacity="0.01"/>
</linearGradient>
<linearGradient id="paint15_linear_8546_31938" x1="35.0968" y1="57.3183" x2="36.16" y2="52.1924" gradientUnits="userSpaceOnUse">
<stop stop-color="#1D1D1B" stop-opacity="0.5"/>
<stop offset="0.0896271" stop-color="#1D1D1B" stop-opacity="0.4552"/>
<stop offset="1" stop-color="#1D1D1B" stop-opacity="0.01"/>
</linearGradient>
<linearGradient id="paint16_linear_8546_31938" x1="41.2436" y1="86.9877" x2="54.3491" y2="86.9991" gradientUnits="userSpaceOnUse">
<stop stop-color="#1D1D1B" stop-opacity="0.5"/>
<stop offset="1" stop-color="#1D1D1B" stop-opacity="0.01"/>
</linearGradient>
<linearGradient id="paint17_linear_8546_31938" x1="29.2678" y1="23.4103" x2="22.9117" y2="47.8304" gradientUnits="userSpaceOnUse">
<stop stop-color="white" stop-opacity="0.5"/>
<stop offset="1" stop-color="white" stop-opacity="0.01"/>
</linearGradient>
<linearGradient id="paint18_linear_8546_31938" x1="29.2678" y1="23.4103" x2="22.9117" y2="47.8304" gradientUnits="userSpaceOnUse">
<stop stop-color="white" stop-opacity="0.5"/>
<stop offset="1" stop-color="white" stop-opacity="0.01"/>
</linearGradient>
<linearGradient id="paint19_linear_8546_31938" x1="44.6934" y1="49.009" x2="39.6695" y2="55.9238" gradientUnits="userSpaceOnUse">
<stop stop-color="white" stop-opacity="0.5"/>
<stop offset="0.0896271" stop-color="white" stop-opacity="0.4552"/>
<stop offset="1" stop-color="white" stop-opacity="0.01"/>
</linearGradient>
<linearGradient id="paint20_linear_8546_31938" x1="46.2086" y1="50.5987" x2="45.7112" y2="51.7137" gradientUnits="userSpaceOnUse">
<stop stop-opacity="0.01"/>
<stop offset="1" stop-opacity="0.4"/>
</linearGradient>
<linearGradient id="paint21_linear_8546_31938" x1="51.142" y1="52.0727" x2="51.1174" y2="52.3724" gradientUnits="userSpaceOnUse">
<stop stop-opacity="0.01"/>
<stop offset="1" stop-opacity="0.4"/>
</linearGradient>
<linearGradient id="paint22_linear_8546_31938" x1="33.0508" y1="20.3606" x2="30.8789" y2="28.9405" gradientUnits="userSpaceOnUse">
<stop stop-color="white" stop-opacity="0.65"/>
<stop offset="1" stop-color="white" stop-opacity="0.01"/>
</linearGradient>
<linearGradient id="paint23_linear_8546_31938" x1="37.9113" y1="25.31" x2="41.6894" y2="29.1511" gradientUnits="userSpaceOnUse">
<stop stop-opacity="0.01"/>
<stop offset="1" stop-opacity="0.4"/>
</linearGradient>
<linearGradient id="paint24_linear_8546_31938" x1="35.4962" y1="30.9663" x2="40.7162" y2="25.6054" gradientUnits="userSpaceOnUse">
<stop stop-opacity="0.01"/>
<stop offset="1" stop-opacity="0.4"/>
</linearGradient>
</defs>
</svg>
