<svg width="120" height="120" viewBox="0 0 120 120" fill="none" xmlns="http://www.w3.org/2000/svg">
<rect x="10" y="10" width="100" height="100" rx="24" fill="#625BF6"/>
<path fill-rule="evenodd" clip-rule="evenodd" d="M55.4487 47.682C55.4487 45.1374 57.5291 44.1587 60.9749 44.1587C65.916 44.1587 72.1574 45.6593 77.0985 48.3345V33.0014C71.7023 30.8482 66.3711 30 60.9749 30C47.777 30 39 36.9162 39 48.465C39 66.4732 63.7055 63.6023 63.7055 71.3668C63.7055 74.3681 61.1049 75.3468 57.4641 75.3468C52.0679 75.3468 45.1764 73.1284 39.7152 70.1271V85.6559C45.7615 88.2658 51.8729 89.375 57.4641 89.375C70.9871 89.375 80.2842 82.6545 80.2842 70.9753C80.2192 51.5316 55.4487 54.9897 55.4487 47.682Z" fill="white"/>
</svg>
