<svg width="78" height="78" viewBox="0 0 78 78" fill="none" xmlns="http://www.w3.org/2000/svg">
<rect width="78" height="78" rx="12" fill="white"/>
<path fill-rule="evenodd" clip-rule="evenodd" d="M14.5868 21H63.4132C64.1471 21 64.8738 21.1446 65.5517 21.4255C66.2297 21.7064 66.8457 22.1181 67.3645 22.6372C67.8833 23.1562 68.2948 23.7724 68.5754 24.4504C68.856 25.1285 69.0003 25.8553 69 26.5891V45.2172C69 45.9508 68.8555 46.6772 68.5747 47.3548C68.2939 48.0325 67.8823 48.6483 67.3635 49.1668C66.8447 49.6854 66.2288 50.0967 65.551 50.3772C64.8732 50.6577 64.1468 50.802 63.4132 50.8017H45.902L48.2987 56.693L37.7202 50.8017H14.5797C13.0996 50.7998 11.6808 50.2107 10.6347 49.1637C9.58853 48.1166 9.00062 46.6973 9 45.2172V26.5891C9 25.1072 9.58853 23.686 10.6362 22.6379C11.6838 21.5898 13.1049 21.0006 14.5868 21Z" fill="#7D57A4"/>
<path d="M12.02 26.0603C12.2048 25.8293 12.438 25.6418 12.7032 25.5108C12.9684 25.3798 13.2591 25.3087 13.5549 25.3023C14.8 25.2157 15.5147 25.8029 15.6989 27.0638C16.4671 32.1784 17.2896 36.5199 18.1664 40.0886L23.5407 29.869C24.0271 28.9466 24.6418 28.4586 25.3848 28.405C26.4616 28.3295 27.1345 29.015 27.4037 30.4617C27.9095 33.3225 28.6867 36.1285 29.7249 38.8419C30.3703 32.6175 31.4478 28.1177 32.9575 25.3425C33.1031 25.0312 33.3309 24.7656 33.6164 24.5742C33.9018 24.3828 34.234 24.2729 34.5773 24.2563C35.1362 24.2103 35.691 24.384 36.1239 24.7403C36.3449 24.9072 36.5265 25.1206 36.6558 25.3654C36.7852 25.6102 36.8591 25.8805 36.8724 26.1571C36.912 26.5653 36.8298 26.9761 36.6363 27.3377C35.6792 29.1134 34.8921 32.0658 34.275 36.1949C33.6658 40.1807 33.4407 43.2984 33.5997 45.5479C33.6555 46.0993 33.5566 46.6553 33.314 47.1536C33.1963 47.4051 33.0128 47.6201 32.7829 47.776C32.5531 47.9318 32.2854 48.0227 32.0082 48.039C31.3612 48.0863 30.7166 47.7817 30.0673 47.1299C27.7878 44.7923 25.9775 41.3141 24.6363 36.6955C23.0621 39.8438 21.8815 42.1988 21.0944 43.7604C19.654 46.531 18.4199 47.9517 17.3919 48.0225C16.7245 48.0697 16.1562 47.5093 15.6871 46.3413C14.4277 43.1347 13.0771 36.9308 11.6351 27.7297C11.5781 27.44 11.583 27.1416 11.6493 26.8539C11.7156 26.5662 11.842 26.2958 12.02 26.0603Z" fill="white"/>
<path d="M64.7261 29.9132C64.321 29.182 63.7598 28.549 63.0823 28.0593C62.4048 27.5695 61.6278 27.2351 60.8064 27.0797C60.3685 26.9871 59.9223 26.9396 59.4747 26.938C57.126 26.938 55.2071 28.1603 53.7179 30.605C52.4498 32.684 51.7896 35.0767 51.8123 37.5118C51.8123 39.4008 52.2059 41.0198 52.993 42.3689C53.3977 43.1009 53.9591 43.7345 54.6371 44.2243C55.3151 44.7141 56.093 45.0481 56.9151 45.2025C57.3519 45.2971 57.7975 45.3453 58.2444 45.3465C60.6167 45.3465 62.5349 44.1241 63.9989 41.6794C65.2669 39.5856 65.9275 37.1803 65.9068 34.7326C65.9068 32.8435 65.5132 31.2371 64.7261 29.9132ZM61.6329 36.716C61.2976 38.3217 60.6758 39.5315 59.7675 40.3453C59.0481 40.9923 58.3885 41.256 57.7887 41.1363C57.189 41.0167 56.708 40.4878 56.346 39.5496C56.0686 38.8379 55.9222 38.0819 55.9139 37.3182C55.9116 36.7138 55.9717 36.1108 56.0933 35.5189C56.3271 34.4714 56.767 33.4809 57.3873 32.605C58.2027 31.4071 59.0544 30.9041 59.9422 31.0962C60.542 31.2174 61.0221 31.7448 61.3826 32.6782C61.6591 33.3893 61.8047 34.1444 61.8123 34.9073C61.8154 35.5148 61.7553 36.121 61.6329 36.716Z" fill="white"/>
<path d="M49.359 29.9132C48.9538 29.182 48.3926 28.549 47.7151 28.0593C47.0377 27.5695 46.2606 27.2351 45.4393 27.0797C45.0013 26.9871 44.5551 26.9396 44.1075 26.938C41.7572 26.938 39.8391 28.1603 38.3531 30.605C37.0832 32.6833 36.4221 35.0763 36.4452 37.5118C36.4452 39.4008 36.8387 41.0198 37.6258 42.3689C38.0299 43.1014 38.5911 43.7354 39.2692 44.2253C39.9473 44.7152 40.7255 45.0489 41.5479 45.2025C41.9847 45.2971 42.4303 45.3453 42.8773 45.3465C45.2511 45.3465 47.1701 44.1241 48.6341 41.6794C49.9065 39.5867 50.5728 37.1817 50.5585 34.7326C50.5585 32.8435 50.165 31.2371 49.3779 29.9132H49.359ZM46.2657 36.716C45.9304 38.3248 45.307 39.5362 44.3956 40.35C43.6746 40.997 43.015 41.2607 42.4168 41.1411C41.8186 41.0214 41.3393 40.4909 40.9788 39.5496C40.7014 38.8379 40.555 38.0819 40.5467 37.3182C40.5444 36.7138 40.6045 36.1108 40.7262 35.5189C40.9619 34.472 41.4016 33.4819 42.0201 32.605C42.8324 31.4102 43.684 30.9089 44.575 31.1009C45.1748 31.2221 45.6541 31.7495 46.0131 32.683C46.2902 33.3939 46.4366 34.149 46.4452 34.912C46.4476 35.5164 46.3874 36.1193 46.2657 36.7113V36.716Z" fill="white"/>
</svg>
