<svg width="128" height="39" viewBox="0 0 128 39" fill="none" xmlns="http://www.w3.org/2000/svg">
<g clip-path="url(#clip0_1017_767)">
<mask id="mask0_1017_767" style="mask-type:luminance" maskUnits="userSpaceOnUse" x="0" y="0" width="128" height="39">
<path d="M128 0H0V39H128V0Z" fill="white"/>
</mask>
<g mask="url(#mask0_1017_767)">
<path d="M32.109 25.2112L21.9344 30.5372C21.4949 30.7673 21.0057 30.8876 20.509 30.8876C20.0123 30.8876 19.5231 30.7673 19.0837 30.5372L8.91065 25.2112C8.77007 25.1377 8.65269 25.0269 8.57164 24.8911C8.49054 24.7552 8.44887 24.5997 8.45127 24.4417C8.45367 24.2838 8.50002 24.1296 8.58515 23.9963C8.67034 23.863 8.79099 23.7557 8.93369 23.6864L20.509 18.0671L32.0843 23.6864C32.227 23.7557 32.3477 23.863 32.4329 23.9963C32.518 24.1296 32.5644 24.2838 32.5668 24.4417C32.5691 24.5997 32.5275 24.7552 32.4464 24.8911C32.3653 25.0269 32.248 25.1377 32.1074 25.2112H32.109Z" fill="#718096" fill-opacity="0.48"/>
<path d="M32.1089 21.7656L21.936 27.0916C21.4965 27.3217 21.0072 27.442 20.5106 27.442C20.0139 27.442 19.5247 27.3217 19.0852 27.0916L8.91223 21.7656C8.77175 21.692 8.65448 21.5812 8.57349 21.4454C8.49244 21.3096 8.45083 21.1542 8.45322 20.9963C8.45562 20.8385 8.50192 20.6844 8.587 20.5511C8.67208 20.4178 8.79267 20.3105 8.93527 20.2413L20.5106 14.6219L32.0859 20.2413C32.2285 20.3105 32.3491 20.4178 32.4342 20.5511C32.5192 20.6844 32.5655 20.8385 32.5679 20.9963C32.5703 21.1542 32.5287 21.3096 32.4477 21.4454C32.3667 21.5812 32.2495 21.692 32.1089 21.7656Z" fill="#718096" fill-opacity="0.64"/>
<path d="M32.1089 18.3386L21.936 23.6647C21.4965 23.8948 21.0073 24.015 20.5106 24.015C20.0139 24.015 19.5247 23.8948 19.0852 23.6647L8.91223 18.3386C8.77175 18.2651 8.65448 18.1542 8.57349 18.0184C8.49244 17.8827 8.45083 17.7272 8.45322 17.5694C8.45562 17.4115 8.50192 17.2574 8.587 17.1241C8.67213 16.9908 8.79267 16.8835 8.93532 16.8143L20.5106 11.1949L32.0859 16.8143C32.2285 16.8835 32.3491 16.9908 32.4342 17.1241C32.5192 17.2574 32.5656 17.4115 32.568 17.5694C32.5703 17.7272 32.5287 17.8827 32.4477 18.0184C32.3667 18.1542 32.2495 18.2651 32.1089 18.3386Z" fill="#718096" fill-opacity="0.8"/>
<path d="M32.109 14.9145L21.9344 20.2405C21.4949 20.4706 21.0057 20.5908 20.509 20.5908C20.0123 20.5908 19.5232 20.4706 19.0837 20.2405L8.91065 14.9145C8.77007 14.841 8.65269 14.7301 8.57164 14.5943C8.49054 14.4585 8.44887 14.303 8.45127 14.1451C8.45367 13.9871 8.50002 13.8329 8.58515 13.6996C8.67034 13.5663 8.79099 13.459 8.93369 13.3897L19.1664 8.42101C19.5845 8.218 20.0437 8.11243 20.509 8.11243C20.9743 8.11243 21.4335 8.218 21.8516 8.42101L32.0855 13.3917C32.2282 13.461 32.3489 13.5683 32.4341 13.7016C32.5192 13.8349 32.5656 13.9891 32.5679 14.147C32.5703 14.305 32.5287 14.4605 32.4476 14.5963C32.3665 14.7321 32.2491 14.8429 32.1086 14.9165L32.109 14.9145Z" fill="#718096" fill-opacity="0.92"/>
<path d="M56.1098 13.657V25.1069H54.5292V24.1002L54.4796 24.0665C54.468 24.0988 54.4526 24.1296 54.4336 24.1583C54.1259 24.5467 53.7292 24.8563 53.2767 25.0613C52.8243 25.2664 52.329 25.3609 51.8324 25.3369C51.3357 25.313 50.8521 25.1714 50.4217 24.9238C49.9912 24.6762 49.6265 24.3299 49.358 23.9138C48.8415 23.1578 48.5974 22.2503 48.6656 21.3388C48.7337 20.4274 49.11 19.5657 49.7333 18.894C50.0273 18.5808 50.3839 18.3323 50.7803 18.1644C51.1766 17.9965 51.6038 17.9129 52.0346 17.9189C52.4654 17.9249 52.8901 18.0205 53.2816 18.1995C53.673 18.3784 54.0224 18.6368 54.3075 18.9581C54.3719 19.0285 54.4368 19.099 54.5226 19.1955V13.657H56.1098ZM52.4065 23.7547C52.8299 23.751 53.2427 23.6225 53.5925 23.3853C53.9423 23.1481 54.2135 22.8129 54.3715 22.4223C54.5297 22.0317 54.5673 21.6032 54.4801 21.1911C54.3932 20.7791 54.1851 20.402 53.8823 20.1077C53.5795 19.8135 53.1956 19.6153 52.7793 19.5382C52.3631 19.4612 51.9332 19.5087 51.5441 19.6749C51.1551 19.8411 50.8245 20.1184 50.5941 20.4717C50.3638 20.825 50.244 21.2383 50.2501 21.6593C50.26 22.2205 50.4919 22.7552 50.8956 23.1475C51.2993 23.5397 51.8422 23.7579 52.4065 23.7547Z" fill="#718096"/>
<path d="M43.8559 14.6265C45.4954 18.1322 47.1225 21.6134 48.756 25.1155H47.83C47.5316 25.1155 47.2363 25.1124 46.9378 25.1187C46.9031 25.1233 46.868 25.1152 46.8388 25.0961C46.8096 25.077 46.7883 25.0481 46.7787 25.0146C46.5543 24.5192 46.3207 24.0253 46.0959 23.5279C46.0826 23.4884 46.0562 23.4547 46.0209 23.4324C45.9855 23.4101 45.9436 23.4007 45.9021 23.4056C44.5332 23.4088 43.1643 23.4088 41.7954 23.4056C41.7511 23.4004 41.7063 23.4107 41.6688 23.4346C41.6312 23.4586 41.6031 23.4947 41.5893 23.537C41.3678 24.0295 41.1413 24.5189 40.9097 25.0051C40.8882 25.0511 40.8301 25.1092 40.7903 25.1092C40.1811 25.1151 39.5722 25.1151 38.9355 25.1151C40.5766 21.6161 42.2101 18.1381 43.8559 14.6265ZM45.2184 21.6806L43.8559 18.7289L42.4779 21.681L45.2184 21.6806Z" fill="#718096"/>
<path d="M66.2382 16.1713C65.8351 16.5873 65.4386 17 65.0421 17.4103C64.371 16.7389 63.4625 16.3551 62.5104 16.3408C61.5589 16.3265 60.6389 16.683 59.9482 17.3341C59.257 17.9852 58.8491 18.8791 58.812 19.8251C58.775 20.771 59.1116 21.6939 59.7494 22.3965C60.0746 22.7702 60.476 23.0711 60.9265 23.2794C61.3775 23.4876 61.8671 23.5984 62.3644 23.6046C62.859 23.6233 63.3525 23.5394 63.8133 23.3582C64.2741 23.1771 64.6919 22.9027 65.0405 22.5524L66.2426 23.7882C65.4882 24.5292 64.5301 25.0318 63.4892 25.2328C62.4483 25.4339 61.3709 25.3244 60.3922 24.9182C59.4139 24.5119 58.5778 23.827 57.9896 22.9496C57.4013 22.0722 57.087 21.0415 57.0859 19.9869C57.0854 18.9323 57.398 17.9011 57.9847 17.0228C58.5718 16.1445 59.4068 15.4583 60.3845 15.0505C61.3622 14.6427 62.4396 14.5316 63.481 14.731C64.5225 14.9304 65.4811 15.4316 66.2366 16.1713H66.2382Z" fill="#718096"/>
<path d="M85.6086 25.1067H84.0301V24.1004L83.9996 24.085C83.9659 24.1245 83.9321 24.1614 83.8978 24.2013C83.5829 24.5904 83.1772 24.8966 82.7153 25.0929C82.2534 25.2893 81.7501 25.3697 81.2501 25.3271C80.8285 25.3004 80.4173 25.1855 80.0436 24.9899C79.67 24.7944 79.3421 24.5225 79.0812 24.1922C78.6018 23.6342 78.2897 22.9536 78.1802 22.2277C78.0708 21.502 78.1688 20.7602 78.4629 20.087C78.6236 19.6411 78.8796 19.235 79.213 18.8965C79.5469 18.5581 79.9494 18.2953 80.3949 18.1262C80.9832 17.9008 81.627 17.8607 82.2387 18.0112C82.8509 18.1617 83.4021 18.4955 83.8172 18.9675C83.8787 19.0348 83.9397 19.102 84.0263 19.1998V18.1503H85.6135V25.1067H85.6086ZM81.8617 23.7546C82.2839 23.7593 82.6978 23.6397 83.0519 23.4109C83.4054 23.1821 83.6832 22.8542 83.8504 22.4687C84.0171 22.0831 84.065 21.6571 83.9887 21.2443C83.9125 20.8314 83.7153 20.4503 83.4217 20.1489C83.1276 19.8474 82.7512 19.6392 82.3383 19.5504C81.926 19.4615 81.4963 19.4962 81.1036 19.6498C80.7108 19.8034 80.3726 20.0692 80.1313 20.4137C79.89 20.7582 79.7571 21.166 79.7484 21.5856C79.7435 21.8662 79.7941 22.145 79.8976 22.406C80.0011 22.6671 80.1558 22.9052 80.3519 23.1068C80.5485 23.3084 80.7827 23.4693 81.042 23.5805C81.3013 23.6916 81.5796 23.7508 81.8617 23.7546Z" fill="#718096"/>
<path d="M77.3493 22.3015H72.0098C72.0435 22.3779 72.062 22.4393 72.0925 22.4943C72.2668 22.8171 72.5147 23.0947 72.817 23.3046C73.1187 23.5145 73.4662 23.6508 73.8306 23.7024C74.2631 23.793 74.7114 23.7774 75.1368 23.6569C75.5616 23.5365 75.9505 23.3148 76.2702 23.0111L77.3711 24.1523C77.0491 24.4685 76.6744 24.7272 76.2637 24.9173C75.4734 25.2932 74.5872 25.4244 73.7206 25.294C72.8546 25.1636 72.0473 24.7776 71.4041 24.186C70.9237 23.7529 70.5751 23.1945 70.3986 22.5741C70.2221 21.9539 70.2237 21.2967 70.4046 20.6775C70.5642 19.9519 70.952 19.2957 71.5119 18.8041C72.0724 18.3126 72.775 18.0113 73.5191 17.9438C74.2631 17.8763 75.0088 18.0462 75.6493 18.4289C76.2893 18.8116 76.7904 19.3871 77.0796 20.072C77.3874 20.7728 77.4811 21.5481 77.3493 22.3015ZM75.6885 20.9434C75.5769 20.527 75.3296 20.1593 74.9848 19.8984C74.64 19.6375 74.2173 19.4982 73.7843 19.5026C72.9444 19.5422 72.0495 20.2644 72.0032 20.9434H75.6885Z" fill="#718096"/>
<path d="M102.473 22.2974C103.004 23.781 105.355 24.3156 106.717 23.0098C107.08 23.3861 107.443 23.7652 107.819 24.151C107.549 24.4171 107.24 24.6409 106.903 24.8147C106.071 25.2588 105.118 25.4246 104.184 25.2874C103.249 25.1502 102.384 24.7173 101.717 24.0529C101.29 23.5935 100.987 23.0332 100.839 22.4251C100.69 21.8171 100.7 21.1814 100.868 20.5782C101.035 19.975 101.355 19.4244 101.796 18.9784C102.238 18.5325 102.786 18.206 103.39 18.03C104.21 17.8197 105.078 17.9091 105.837 18.2819C106.595 18.6547 107.195 19.2861 107.525 20.0612C107.826 20.7422 107.923 21.4956 107.803 22.2301C107.8 22.2483 107.794 22.267 107.788 22.2974H102.473ZM102.444 20.9393H106.139C106.037 20.5289 105.8 20.1643 105.465 19.9037C105.13 19.6431 104.717 19.5015 104.292 19.5015C103.867 19.5015 103.454 19.6431 103.119 19.9037C102.784 20.1643 102.547 20.5289 102.444 20.9393Z" fill="#718096"/>
<path d="M101.251 18.1405C100.011 20.5544 98.784 22.9339 97.547 25.3427C96.3106 22.9383 95.0829 20.5524 93.8438 18.1405H94.2016C94.6112 18.1405 95.023 18.1465 95.432 18.1374C95.4936 18.1284 95.5562 18.1408 95.6096 18.1726C95.6624 18.2045 95.7033 18.2537 95.724 18.3118C96.2965 19.4345 96.8782 20.5513 97.4561 21.6676C97.4806 21.7166 97.5078 21.7626 97.5449 21.8299C97.5786 21.7657 97.607 21.7198 97.6315 21.6716L99.3848 18.2763C99.4011 18.2321 99.4316 18.1946 99.4719 18.1697C99.5117 18.1447 99.5591 18.1338 99.6065 18.1385C100.147 18.1445 100.682 18.1405 101.251 18.1405Z" fill="#718096"/>
<path d="M89.4063 25.1064H87.8148V19.732H86.3027V18.1444H87.8148V17.3795C87.8148 17.1421 87.8115 16.8991 87.818 16.6605C87.818 16.6347 87.8235 16.6092 87.8349 16.5859C87.8458 16.5626 87.8622 16.5422 87.8823 16.5259C88.378 16.2718 88.8774 16.0241 89.3987 15.7614V18.1381H91.0665V19.721H89.4036L89.4063 25.1064Z" fill="#718096"/>
<path d="M70.4071 19.5394C70.1821 19.4892 69.9496 19.4854 69.723 19.528C69.4964 19.5706 69.2812 19.6588 69.0906 19.7871C68.8531 19.9458 68.6609 20.1625 68.5318 20.4164C68.4032 20.6703 68.3422 20.9529 68.3547 21.237V25.1037H66.7773V18.1508H68.346V18.8603L68.3798 18.8848C68.6309 18.5934 68.9381 18.3552 69.284 18.1844C69.632 18.0102 70.0171 17.921 70.4071 17.9244V19.5394Z" fill="#718096"/>
<path d="M91.7539 18.1503H93.3226V25.1032H91.7539V18.1503Z" fill="#718096"/>
<path d="M93.4831 15.6914C93.482 15.8771 93.4254 16.0584 93.3208 16.2123C93.2157 16.3661 93.0675 16.4855 92.8943 16.5553C92.7211 16.6251 92.531 16.6421 92.348 16.6043C92.165 16.5665 91.9978 16.4754 91.8671 16.3428C91.7363 16.2101 91.6481 16.0417 91.6138 15.8591C91.5795 15.6765 91.6002 15.4878 91.6737 15.3171C91.7472 15.1463 91.8703 15.0012 92.0272 14.9C92.1841 14.7989 92.3671 14.7464 92.5539 14.7491H92.5572C92.8055 14.7528 93.0419 14.8539 93.2151 15.0304C93.3889 15.2069 93.4848 15.4446 93.4831 15.6914Z" fill="#718096"/>
<path d="M116.946 23.2529C116.713 23.5857 116.458 23.903 116.183 24.2026C115.823 24.5644 115.386 24.8414 114.904 25.0131C114.423 25.1847 113.908 25.2467 113.399 25.1945C112.89 25.1422 112.399 24.977 111.962 24.7111C111.526 24.4453 111.155 24.0854 110.877 23.6581C110.395 22.9472 110.165 22.0964 110.224 21.2408C110.283 20.3852 110.628 19.5737 111.204 18.9351C111.576 18.5211 112.044 18.2033 112.568 18.0089C113.091 17.8146 113.654 17.7495 114.209 17.8193C114.763 17.8891 115.292 18.0916 115.75 18.4096C116.208 18.7276 116.582 19.1514 116.839 19.6446C116.862 19.6938 116.896 19.7375 116.937 19.7732V18.0234H117.676V24.9751H116.95V23.2529H116.946ZM113.947 24.4733C114.538 24.473 115.117 24.2982 115.609 23.9711C116.1 23.644 116.483 23.1792 116.709 22.6356C116.935 22.092 116.994 21.4938 116.879 20.9169C116.763 20.3399 116.478 19.8101 116.06 19.3942C115.641 18.9785 115.108 18.6954 114.527 18.5809C113.947 18.4664 113.346 18.5255 112.8 18.7509C112.253 18.9762 111.786 19.3577 111.458 19.847C111.129 20.3363 110.954 20.9115 110.954 21.4998C110.954 21.8905 111.032 22.2773 111.183 22.6382C111.333 22.999 111.553 23.3269 111.831 23.603C112.109 23.8791 112.439 24.0981 112.802 24.2474C113.165 24.3967 113.554 24.4735 113.947 24.4733Z" fill="#718096"/>
<path d="M119.824 24.9895H119.2C119.169 24.9895 119.141 24.9864 119.102 24.9832V18.0248H119.821V24.9895H119.824Z" fill="#718096"/>
<path d="M109.442 25.2104C109.272 25.2063 109.109 25.1374 108.989 25.018C108.868 24.8985 108.798 24.7375 108.793 24.5682C108.794 24.4832 108.811 24.3991 108.844 24.3208C108.877 24.2424 108.925 24.1714 108.986 24.1116C109.047 24.0518 109.119 24.0045 109.198 23.9724C109.277 23.9402 109.362 23.9239 109.447 23.9243C109.533 23.9248 109.617 23.9419 109.696 23.9748C109.774 24.0077 109.846 24.0557 109.906 24.1161C109.966 24.1764 110.014 24.248 110.046 24.3267C110.078 24.4053 110.095 24.4895 110.094 24.5745C110.089 24.7438 110.019 24.9047 109.897 25.0233C109.776 25.1419 109.613 25.2089 109.442 25.2104Z" fill="#718096"/>
<path d="M119.469 15.2291C119.597 15.2299 119.721 15.2683 119.827 15.3394C119.933 15.4104 120.015 15.511 120.063 15.6284C120.111 15.7458 120.123 15.8748 120.097 15.9991C120.072 16.1233 120.01 16.2372 119.919 16.3264C119.829 16.4156 119.714 16.4762 119.588 16.5003C119.463 16.5245 119.333 16.5112 119.216 16.4622C119.098 16.4132 118.998 16.3306 118.928 16.2249C118.857 16.1191 118.82 15.995 118.82 15.8682C118.822 15.698 118.891 15.5353 119.012 15.4156C119.134 15.2959 119.298 15.2288 119.469 15.2291Z" fill="#718096"/>
</g>
</g>
<defs>
<clipPath id="clip0_1017_767">
<rect width="128" height="39" fill="white"/>
</clipPath>
</defs>
</svg>
