<svg width="128" height="39" viewBox="0 0 128 39" fill="none" xmlns="http://www.w3.org/2000/svg">
<g clip-path="url(#clip0_1017_730)">
<path fill-rule="evenodd" clip-rule="evenodd" d="M21.6411 31.3174C28.3642 31.3174 33.815 25.8669 33.815 19.1435C33.815 12.4195 28.3646 6.96954 21.6411 6.96954C14.9172 6.96954 9.46722 12.4195 9.46722 19.1435C9.46722 25.8665 14.9172 31.3174 21.6411 31.3174ZM21.6411 32.1869C28.8446 32.1869 34.6846 26.3469 34.6846 19.1435C34.6846 11.9391 28.8446 6.09998 21.6411 6.09998C14.4372 6.09998 8.59766 11.9391 8.59766 19.1435C8.59766 26.3469 14.4372 32.1869 21.6411 32.1869Z" fill="#718096"/>
<path d="M24.9223 11.7371L24.9114 11.702H24.8745H18.8428H18.8423H18.8055L18.7946 11.7371L14.4815 25.6502L14.4614 25.715H14.5293H20.8293H20.8659L20.877 25.6801L21.8589 22.5814L22.8403 25.6801L22.8514 25.715H22.888H29.1876H29.2554L29.2353 25.6502L24.9223 11.7371ZM23.5616 24.7454L22.3214 20.8329L22.3213 20.8325L19.8187 12.6715H24.1968L27.9397 24.7454H23.5616ZM15.7776 24.7454L19.1603 13.8317L21.3508 20.9743L20.1557 24.7454H15.7776Z" fill="#718096" stroke="#718096" stroke-width="0.1"/>
<path d="M40.7214 23.4498L40.6575 23.5911H40.8125H41.7986H41.8633L41.8898 23.532L42.8738 21.3389H47.3822L48.3541 23.5316L48.3805 23.5911H48.4455H49.4803H49.6353L49.5714 23.4498L45.688 14.8672L45.6614 14.8085H45.5968H44.696H44.6315L44.6049 14.8672L40.7214 23.4498ZM54.1042 23.4911V23.5911H54.2042H55.166H55.266V23.4911V21.2434L56.9718 19.5143L60.1763 23.5532L60.2064 23.5911H60.2547H61.4599H61.667L61.5382 23.4289L57.7827 18.7015L61.373 15.0389L61.5397 14.8689H61.3016H60.0599H60.0173L59.9878 14.8996L55.266 19.8093V14.9693V14.8693H55.166H54.2042H54.1042V14.9693V23.4911ZM65.9829 23.4911V23.5911H66.0829H67.0447H67.1447V23.4911V14.9693V14.8693H67.0447H66.0829H65.9829V14.9693V23.4911ZM72.4838 23.4911V23.5911H72.5838H73.5455H73.6455V23.4911V19.878H78.1595H78.2595V19.778V18.9011V18.8011H78.1595H73.6455V15.9576H78.7073H78.8073V15.8576V14.9693V14.8693H78.7073H72.5838H72.4838V14.9693V23.4911ZM83.5164 23.4911V23.5911H83.6164H89.3747H89.4747V23.4911V22.6024V22.5024H89.3747H84.6782V14.9693V14.8693H84.5782H83.6164H83.5164V14.9693V23.4911ZM97.5664 23.7357V23.7372H97.6664C100.32 23.7372 102.125 21.6294 102.125 19.2298V19.2059C102.125 16.8063 100.344 14.7232 97.6908 14.7232C95.0375 14.7232 93.2325 16.8306 93.2325 19.2302V19.2541C93.2325 21.6234 94.9684 23.6841 97.5664 23.7357ZM105.905 15.0023L108.942 23.5687V23.6519H109.042H109.846H109.918L109.941 23.5841L112.195 16.9487L114.438 23.584L114.461 23.6519H114.533H115.349H115.419L115.443 23.5854L118.486 15.0028L118.534 14.8693H118.392H117.382H117.31L117.287 14.9369L114.949 21.752L112.704 14.9134L112.682 14.8445H112.609H111.818H111.746L111.723 14.9134L109.479 21.752L107.141 14.9364L107.117 14.8689H107.046H105.999H105.857L105.905 15.0023ZM46.9159 20.2745H43.3408L45.134 16.2736L46.9159 20.2745ZM97.6908 22.6485C95.8043 22.6485 94.4308 21.117 94.4308 19.2302V19.2059C94.4308 17.319 95.7801 15.8115 97.6664 15.8115C99.5528 15.8115 100.926 17.343 100.926 19.2302V19.2541C100.926 21.1414 99.5771 22.6485 97.6908 22.6485Z" fill="#718096" stroke="#718096" stroke-width="0.2"/>
</g>
<defs>
<clipPath id="clip0_1017_730">
<rect width="110" height="26.5217" fill="white" transform="translate(8.5 6)"/>
</clipPath>
</defs>
</svg>
