<svg width="128" height="39" viewBox="0 0 128 39" fill="none" xmlns="http://www.w3.org/2000/svg">
<g clip-path="url(#clip0_1017_759)">
<mask id="mask0_1017_759" style="mask-type:luminance" maskUnits="userSpaceOnUse" x="9" y="6" width="110" height="27">
<path d="M119 6.5H9V33H119V6.5Z" fill="white"/>
</mask>
<g mask="url(#mask0_1017_759)">
<path d="M22.9505 6.98635L31.3026 11.7662C32.4681 12.4332 33.1888 13.6842 33.1888 15.0403V24.4598C33.1888 25.8158 32.4681 27.0667 31.3026 27.7337L22.9505 32.5136C21.8174 33.1621 20.4319 33.1621 19.2988 32.5136L10.9467 27.7337C9.78125 27.0667 9.06055 25.8158 9.06055 24.4598V15.0403C9.06055 13.6842 9.78125 12.4332 10.9467 11.7662L19.2988 6.98635C20.4319 6.33788 21.8174 6.33788 22.9505 6.98635ZM10.4526 15.0784V24.4598C10.4526 25.3016 10.9008 26.0796 11.6279 26.4958L19.8614 31.2077C19.968 31.2499 20.0817 31.2717 20.1967 31.2717C20.7092 31.2717 21.1247 30.8479 21.1247 30.3253V22.7426C21.1247 21.5068 20.4502 20.3737 19.3751 19.8036L18.7623 19.4786C18.6177 19.4158 18.475 19.3471 18.3345 19.2723L10.4526 15.0784ZM19.0875 18.4332C20.5669 19.2204 21.6864 19.2204 23.1658 18.4332L31.1619 13.8551C30.965 13.3953 30.6235 13.003 30.1767 12.7473L22.2694 8.22438C21.5594 7.81807 20.6899 7.81807 19.98 8.22438L12.0876 12.7473C11.6408 13.003 11.2994 13.3953 11.1025 13.8551L19.0875 18.4332ZM21.1247 9.8125C22.8647 9.8125 24.2851 10.6846 24.3688 11.7805L24.3727 13.6574C24.3727 14.8008 22.9185 15.7277 21.1247 15.7277C19.3308 15.7277 17.8766 14.8008 17.8766 13.6574V11.7805C17.9642 10.6846 19.3847 9.8125 21.1247 9.8125ZM21.125 13.125C22.6318 13.125 23.8534 12.5021 23.8534 11.7338C23.8534 10.9654 22.6318 10.3425 21.125 10.3425C19.6182 10.3425 18.3967 10.9654 18.3967 11.7338C18.3967 12.5021 19.6182 13.125 21.125 13.125Z" fill="#718096"/>
<path fill-rule="evenodd" clip-rule="evenodd" d="M45.9835 20.4613C45.9835 21.5228 46.2511 22.3757 46.7864 23.0201C47.3216 23.6646 48.0278 23.9867 48.9051 23.9867C49.7525 23.9867 50.4438 23.6608 50.9791 23.0088C51.5144 22.3567 51.782 21.5001 51.782 20.4386C51.782 19.3923 51.5218 18.5584 51.0015 17.9367C50.4811 17.315 49.7897 17.0042 48.9273 17.0042C48.065 17.0042 47.3588 17.3188 46.8087 17.9481C46.2586 18.5774 45.9835 19.4151 45.9835 20.4613ZM54.2798 9.56668V26.0338H52.8181C52.4311 26.0338 52.0768 25.8123 51.901 25.4607C51.8068 25.2721 51.7597 25.0887 51.7597 24.9105C51.4595 25.2605 51.2208 25.5544 50.6558 25.8728C50.0907 26.1913 49.3437 26.3067 48.6152 26.3067C47.0688 26.3067 45.8125 25.7533 44.8461 24.6464C43.8797 23.5394 43.3965 22.1444 43.3965 20.4613C43.3965 18.8389 43.8834 17.4667 44.8572 16.3446C45.8311 15.2225 47.0688 14.6615 48.5706 14.6615C49.4329 14.6615 50.128 14.8207 50.6558 15.1391C51.1835 15.4575 51.5516 15.8291 51.7597 16.2536V9.56668H54.2798ZM63.5111 14.8207V17.5046H63.1783C61.2306 17.5046 60.2567 18.5887 60.2567 20.757V26.0338H57.6697V14.9572H59.3474C59.645 14.9572 59.9088 15.1528 60.0003 15.4416L60.2567 16.2501C60.3802 15.9877 60.7234 15.4051 61.3238 15.1129C61.9242 14.8207 62.6208 14.8207 63.3344 14.8207H63.5111ZM64.9607 23.0315C64.9607 22.0914 65.2618 21.337 65.8639 20.7684C66.4661 20.1998 67.2578 19.8397 68.2392 19.6881L71.0268 19.2559C71.5621 19.1801 71.8298 18.9147 71.8298 18.4598C71.8298 17.9595 71.6588 17.5539 71.3168 17.243C70.9749 16.9322 70.4619 16.7767 69.7779 16.7767C69.1237 16.7767 68.6034 16.9625 68.2168 17.334C67.8303 17.7054 67.6072 18.1869 67.5478 18.7782L65.2163 18.7555C65.3204 17.7547 65.7562 16.3787 66.5888 15.6736C67.4213 14.9685 68.477 14.616 69.7557 14.616C71.3316 14.616 72.495 15.0026 73.2459 15.776C73.9968 16.5492 74.3721 17.5425 74.3721 18.7555V24.2597C74.3721 24.9875 74.4167 25.5788 74.506 26.0338H73.1148C72.9678 26.0338 72.822 26.0062 72.6847 25.9526C72.2234 25.7721 71.9927 25.4784 71.9927 25.0716C71.4781 25.9463 70.1571 26.3749 68.6405 26.3749C67.5404 26.3749 66.652 26.0452 65.9755 25.3856C65.299 24.726 64.9607 23.9412 64.9607 23.0315ZM69.1312 24.3052C69.9341 24.3052 70.5846 24.0815 71.0826 23.6342C71.5807 23.1869 71.8298 22.4553 71.8298 21.4394V20.939L68.9974 21.3712C68.0309 21.538 67.5478 22.0383 67.5478 22.8723C67.5478 23.2665 67.689 23.6039 67.9715 23.8844C68.254 24.1649 68.6405 24.3052 69.1312 24.3052ZM82.3116 12.1683C81.8805 12.1683 81.5051 12.2934 81.1854 12.5436C80.8658 12.7938 80.7059 13.2297 80.7059 13.8514V14.9572H83.226V17.2544H80.7059V26.0338H78.0965V17.2544H76.2009V14.9572H76.9454C77.5812 14.9572 78.0965 14.4316 78.0965 13.7832C78.0965 12.555 78.4459 11.5845 79.1447 10.8719C79.8436 10.1592 80.7579 9.80288 81.8879 9.80288H83.226V12.1683H82.3116ZM89.3127 11.6137V15.0026H91.5652V17.3453H89.3127V22.4856C89.3127 22.9708 89.4243 23.3233 89.6472 23.5432C89.8703 23.7631 90.2197 23.873 90.6954 23.873H91.0506V26.2157H90.0041C88.993 26.2157 88.1977 25.9239 87.6178 25.3401C87.038 24.7563 86.748 23.9488 86.748 22.9178V17.3453H84.7408V15.0026H85.2984C85.8485 15.0026 86.2648 14.8434 86.5473 14.525C86.8298 14.2066 86.971 13.7896 86.971 13.274V11.6137H89.3127ZM93.6616 9.5142H96.1815V16.2921C96.3902 15.8675 96.8224 15.5187 97.3499 15.2003C97.8783 14.8819 98.7176 14.6755 99.5802 14.6755C101.082 14.6755 102.282 15.17 103.256 16.2921C104.23 17.4142 104.555 18.8266 104.555 20.4491C104.555 22.1323 104.233 23.4869 103.267 24.5938C102.301 25.7007 100.955 26.3102 99.4087 26.3102C98.6803 26.3102 98.022 26.1388 97.4573 25.8204C96.8926 25.5019 96.482 25.2079 96.1815 24.858C96.1815 25.0362 96.1347 25.2196 96.0403 25.4082C95.8645 25.7598 95.5103 25.9813 95.1233 25.9813H93.6616V9.5142ZM101.15 23.0315C101.7 22.3946 101.975 21.538 101.975 20.4613C101.975 19.3847 101.707 18.5395 101.172 17.9253C100.637 17.3112 99.931 17.0042 99.0536 17.0042C98.2057 17.0042 97.5076 17.3112 96.9576 17.9253C96.4067 18.5395 96.1321 19.3847 96.1321 20.4613C96.1321 21.5228 96.4067 22.3719 96.9576 23.0088C97.5076 23.6456 98.2057 23.964 99.0536 23.964C99.9163 23.964 100.614 23.6532 101.15 23.0315ZM107.082 17.5622H106.013V14.9379H108.586V14.9572H109.647V26.0338H107.082V17.5622ZM107.171 12.2733C106.845 11.9397 106.681 11.5379 106.681 11.0678C106.681 10.5978 106.845 10.1922 107.171 9.85099C107.499 9.50982 107.893 9.33923 108.353 9.33923C108.829 9.33923 109.231 9.50602 109.558 9.83962C109.885 10.1732 110.048 10.5826 110.048 11.0678C110.048 11.5379 109.885 11.9397 109.558 12.2733C109.231 12.6069 108.829 12.7737 108.353 12.7737C107.893 12.7737 107.499 12.6069 107.171 12.2733ZM116.271 11.5682V14.9572H118.523V17.2998H116.271V22.4401C116.271 22.9253 116.383 23.2779 116.605 23.4977C116.829 23.7177 117.178 23.8276 117.653 23.8276H118.008V26.1702H116.962C115.951 26.1702 115.155 25.8784 114.576 25.2946C113.995 24.7108 113.706 23.9033 113.706 22.8723V17.2998H111.698V14.9572H112.256C112.806 14.9572 113.223 14.7979 113.505 14.4795C113.788 14.1611 113.929 13.7441 113.929 13.2286V11.5682H116.271Z" fill="#718096"/>
</g>
</g>
<defs>
<clipPath id="clip0_1017_759">
<rect width="110" height="26.5" fill="white" transform="translate(9 6.5)"/>
</clipPath>
</defs>
</svg>
