<svg width="128" height="39" viewBox="0 0 128 39" fill="none" xmlns="http://www.w3.org/2000/svg">
<path d="M29.9004 13.2631L32.0535 16.5733C32.1602 16.7373 32.3165 16.8631 32.5 16.9327L35.9254 18.2326C36.0452 18.278 36.0361 18.4495 35.9123 18.4822L33.9076 19.0106C33.8973 19.0133 33.8879 19.0184 33.8801 19.0254C33.8723 19.0324 33.8663 19.0412 33.8626 19.051C33.8589 19.0609 33.8576 19.0715 33.8589 19.0819C33.8602 19.0923 33.8639 19.1022 33.8699 19.1109L39.1288 26.771C39.1667 26.8263 39.2233 26.866 39.2881 26.8832L42.6209 27.7611" fill="#718096"/>
<path d="M29.9004 13.2631L32.0535 16.5733C32.1602 16.7373 32.3165 16.8631 32.5 16.9327L35.9254 18.2326C36.0452 18.278 36.0361 18.4495 35.9123 18.4822L33.9076 19.0106C33.8973 19.0133 33.8879 19.0184 33.8801 19.0254C33.8723 19.0324 33.8663 19.0412 33.8626 19.051C33.8589 19.0609 33.8576 19.0715 33.8589 19.0819C33.8602 19.0923 33.8639 19.1022 33.8699 19.1109L39.1288 26.771C39.1667 26.8263 39.2233 26.866 39.2881 26.8832L42.6209 27.7611" stroke="#718096" stroke-width="1.07747" stroke-linecap="round"/>
<path d="M42.6293 27.7226L43.5783 24.8208C43.5995 24.7564 43.5962 24.6866 43.5693 24.6245L38.9092 13.8715C38.9049 13.8615 38.8982 13.8527 38.8897 13.8459C38.8812 13.8392 38.8711 13.8347 38.8604 13.8327C38.8496 13.8308 38.8386 13.8315 38.8282 13.8349C38.8178 13.8383 38.8085 13.8442 38.801 13.852L37.4103 15.2949C37.4008 15.3049 37.3884 15.3116 37.3749 15.3141C37.3613 15.3167 37.3473 15.315 37.3348 15.3092C37.3223 15.3034 37.3119 15.2939 37.3051 15.2819C37.2984 15.2699 37.2956 15.2562 37.2971 15.2425L37.655 11.9509C37.6884 11.6436 37.6058 11.3348 37.4233 11.0846L36.8088 10.2423C35.9335 9.04234 34.6753 8.17247 33.2394 7.77435L30.6074 7.04483C30.5867 7.03904 30.5645 7.04147 30.5455 7.0516C30.5266 7.06179 30.5123 7.07885 30.5058 7.09927L29.9853 8.71999C29.6641 9.6945 28.842 11.8768 30.0469 13.4751" fill="#718096"/>
<path d="M42.6293 27.7226L43.5783 24.8208C43.5995 24.7564 43.5962 24.6866 43.5693 24.6245L38.9092 13.8715C38.9049 13.8615 38.8982 13.8527 38.8897 13.8459C38.8812 13.8392 38.8711 13.8347 38.8604 13.8327C38.8496 13.8308 38.8386 13.8315 38.8282 13.8349C38.8178 13.8383 38.8085 13.8442 38.801 13.852L37.4103 15.2949C37.4008 15.3049 37.3884 15.3116 37.3749 15.3141C37.3613 15.3167 37.3473 15.315 37.3348 15.3092C37.3223 15.3034 37.3119 15.2939 37.3051 15.2819C37.2984 15.2699 37.2956 15.2562 37.2971 15.2425L37.655 11.9509C37.6884 11.6436 37.6058 11.3348 37.4233 11.0846L36.8088 10.2423C35.9335 9.04234 34.6753 8.17247 33.2394 7.77435L30.6074 7.04483C30.5867 7.03904 30.5645 7.04147 30.5455 7.0516C30.5266 7.06179 30.5123 7.07885 30.5058 7.09927L29.9853 8.71999C29.6641 9.6945 28.842 11.8768 30.0469 13.4751" stroke="#718096" stroke-width="1.07747"/>
<mask id="mask0_1017_791" style="mask-type:luminance" maskUnits="userSpaceOnUse" x="38" y="11" width="61" height="21">
<path d="M38.5827 21.087C38.5703 21.0643 38.5624 21.0394 38.5597 21.0137C38.5569 20.988 38.5593 20.962 38.5667 20.9372C38.574 20.9124 38.5862 20.8893 38.6026 20.8691C38.6189 20.849 38.6391 20.8324 38.6619 20.82L39.1449 20.5589C39.1681 20.5463 39.1935 20.5385 39.2197 20.5359C39.246 20.5332 39.2725 20.5358 39.2977 20.5436C39.3229 20.5513 39.3463 20.5639 39.3665 20.5808C39.3868 20.5975 39.4034 20.6182 39.4155 20.6415L45.2613 31.9222H44.5094L38.5827 21.087ZM53.7657 15.7261H57.5636V26.5921C57.5636 27.5136 57.3691 28.2343 56.9791 28.7543C56.5935 29.2743 56.0526 29.6416 55.3554 29.8559C54.6577 30.0704 53.8437 30.1776 52.9126 30.1776C52.7864 30.1778 52.6603 30.1755 52.5342 30.1706C52.4033 30.1656 52.2726 30.1588 52.1419 30.1502V27.3585C52.2335 27.3675 52.314 27.3744 52.3827 27.3789C52.4469 27.3834 52.5134 27.3857 52.5823 27.3857C53.0362 27.3857 53.346 27.3151 53.5112 27.1736C53.6808 27.0368 53.7657 26.8156 53.7657 26.51V15.7261ZM55.6648 14.6312C55.1512 14.6312 54.7105 14.4624 54.3438 14.1247C53.9767 13.7871 53.7934 13.3812 53.7934 12.9069C53.7934 12.4324 53.9767 12.0263 54.3438 11.6889C54.7105 11.3512 55.1512 11.1826 55.6648 11.1826C56.1828 11.1826 56.6235 11.3512 56.9857 11.6889C57.3528 12.0265 57.5363 12.4324 57.5363 12.9069C57.5363 13.3812 57.3528 13.7873 56.9857 14.1247C56.6235 14.4624 56.1828 14.6312 55.6648 14.6312ZM64.176 26.4278C63.0474 26.4278 62.0746 26.2135 61.2581 25.7845C60.4466 25.3512 59.8202 24.7307 59.3801 23.9234C58.9438 23.1114 58.7265 22.1397 58.7265 21.0085C58.7265 19.9228 58.9465 18.9739 59.3866 18.1619C59.8273 17.3501 60.4488 16.7181 61.2516 16.2665C62.0539 15.8148 63.0011 15.5891 64.0932 15.5891C64.8912 15.5891 65.614 15.7124 66.2605 15.9587C66.907 16.2049 67.4599 16.563 67.9185 17.0331C68.3777 17.4982 68.7306 18.0638 68.9785 18.73C69.2257 19.3959 69.3499 20.1463 69.3499 20.981V21.8569H59.9095V19.7769H65.8547C65.8498 19.4757 65.7719 19.2111 65.6205 18.9829C65.4751 18.7514 65.2675 18.5645 65.0219 18.4427C64.7746 18.3102 64.4925 18.2442 64.176 18.2442C63.8683 18.2442 63.5861 18.3102 63.3296 18.4427C63.0801 18.564 62.8666 18.7479 62.7103 18.9762C62.5588 19.2043 62.4782 19.4712 62.469 19.7769V22.021C62.469 22.3587 62.5403 22.6595 62.6825 22.9241C62.8219 23.186 63.0349 23.4022 63.2953 23.5468C63.5611 23.6974 63.8819 23.7727 64.2582 23.7727C64.5197 23.7727 64.7583 23.7361 64.974 23.6633C65.194 23.5902 65.3819 23.4852 65.5382 23.3485C65.6924 23.2098 65.81 23.036 65.8819 22.842H69.3499C69.2306 23.572 68.9485 24.206 68.5035 24.7444C68.0585 25.2781 67.4691 25.6931 66.7355 25.9896C66.0061 26.2816 65.1526 26.4278 64.176 26.4278ZM74.3103 20.3241V26.2362H70.5123V15.7258H74.1181V17.7239H74.2281C74.4574 17.0581 74.861 16.5358 75.4389 16.157C76.0217 15.7784 76.7004 15.5891 77.4755 15.5891C78.2233 15.5891 78.8726 15.7602 79.4227 16.1024C79.9777 16.44 80.4064 16.9052 80.7098 17.498C81.017 18.0913 81.1684 18.7689 81.1635 19.5305V26.2362H77.3654V20.3241C77.3698 19.8043 77.2369 19.3959 76.9662 19.0993C76.7004 18.8028 76.3289 18.6547 75.8518 18.6547C75.5397 18.6547 75.2668 18.723 75.0331 18.8599C74.8033 18.9921 74.6268 19.1838 74.5031 19.4347C74.379 19.6809 74.3147 19.9774 74.3103 20.3241ZM86.4491 20.3241V26.2362H82.651V15.7258H86.2568V17.7239H86.3668C86.5956 17.0581 86.9998 16.5358 87.5777 16.157C88.1605 15.7784 88.8391 15.5891 89.6142 15.5891C90.3621 15.5891 91.0113 15.7602 91.5615 16.1024C92.1165 16.44 92.5452 16.9052 92.8485 17.498C93.1557 18.0913 93.3072 18.7689 93.3023 19.5305V26.2362H89.5042V20.3241C89.5086 19.8043 89.3757 19.3959 89.1049 19.0993C88.8391 18.8028 88.4677 18.6547 87.9905 18.6547C87.6784 18.6547 87.4055 18.723 87.1719 18.8599C86.942 18.9921 86.7655 19.1838 86.6419 19.4347C86.5177 19.6809 86.4534 19.9774 86.4491 20.3241ZM94.7898 26.2362V15.7258H98.5878V26.2362H94.7898ZM96.6885 14.631C96.1749 14.631 95.7348 14.4624 95.3677 14.1247C95.0006 13.7871 94.8176 13.3812 94.8176 12.9069C94.8176 12.4324 95.0006 12.0263 95.3677 11.6889C95.7348 11.3512 96.1749 11.1826 96.6885 11.1826C97.2071 11.1826 97.6477 11.3512 98.0099 11.6889C98.3771 12.0265 98.5601 12.4324 98.5601 12.9069C98.5601 13.3812 98.3771 13.7873 98.0099 14.1247C97.6477 14.4624 97.2071 14.631 96.6885 14.631Z" fill="white"/>
</mask>
<g mask="url(#mask0_1017_791)">
<path d="M38.5827 21.087C38.5703 21.0643 38.5624 21.0394 38.5597 21.0137C38.5569 20.988 38.5593 20.962 38.5667 20.9372C38.574 20.9124 38.5862 20.8893 38.6026 20.8691C38.6189 20.849 38.6391 20.8324 38.6619 20.82L39.1449 20.5589C39.1681 20.5463 39.1935 20.5385 39.2197 20.5359C39.246 20.5332 39.2725 20.5358 39.2977 20.5436C39.3229 20.5513 39.3463 20.5639 39.3665 20.5808C39.3868 20.5975 39.4034 20.6182 39.4155 20.6415L45.2613 31.9222H44.5094L38.5827 21.087ZM53.7657 15.7261H57.5636V26.5921C57.5636 27.5136 57.3691 28.2343 56.9791 28.7543C56.5935 29.2743 56.0526 29.6416 55.3554 29.8559C54.6577 30.0704 53.8437 30.1776 52.9126 30.1776C52.7864 30.1778 52.6603 30.1755 52.5342 30.1706C52.4033 30.1656 52.2726 30.1588 52.1419 30.1502V27.3585C52.2335 27.3675 52.314 27.3744 52.3827 27.3789C52.4469 27.3834 52.5134 27.3857 52.5823 27.3857C53.0362 27.3857 53.346 27.3151 53.5112 27.1736C53.6808 27.0368 53.7657 26.8156 53.7657 26.51V15.7261ZM55.6648 14.6312C55.1512 14.6312 54.7105 14.4624 54.3438 14.1247C53.9767 13.7871 53.7934 13.3812 53.7934 12.9069C53.7934 12.4324 53.9767 12.0263 54.3438 11.6889C54.7105 11.3512 55.1512 11.1826 55.6648 11.1826C56.1828 11.1826 56.6235 11.3512 56.9857 11.6889C57.3528 12.0265 57.5363 12.4324 57.5363 12.9069C57.5363 13.3812 57.3528 13.7873 56.9857 14.1247C56.6235 14.4624 56.1828 14.6312 55.6648 14.6312ZM64.176 26.4278C63.0474 26.4278 62.0746 26.2135 61.2581 25.7845C60.4466 25.3512 59.8202 24.7307 59.3801 23.9234C58.9438 23.1114 58.7265 22.1397 58.7265 21.0085C58.7265 19.9228 58.9465 18.9739 59.3866 18.1619C59.8273 17.3501 60.4488 16.7181 61.2516 16.2665C62.0539 15.8148 63.0011 15.5891 64.0932 15.5891C64.8912 15.5891 65.614 15.7124 66.2605 15.9587C66.907 16.2049 67.4599 16.563 67.9185 17.0331C68.3777 17.4982 68.7306 18.0638 68.9785 18.73C69.2257 19.3959 69.3499 20.1463 69.3499 20.981V21.8569H59.9095V19.7769H65.8547C65.8498 19.4757 65.7719 19.2111 65.6205 18.9829C65.4751 18.7514 65.2675 18.5645 65.0219 18.4427C64.7746 18.3102 64.4925 18.2442 64.176 18.2442C63.8683 18.2442 63.5861 18.3102 63.3296 18.4427C63.0801 18.564 62.8666 18.7479 62.7103 18.9762C62.5588 19.2043 62.4782 19.4712 62.469 19.7769V22.021C62.469 22.3587 62.5403 22.6595 62.6825 22.9241C62.8219 23.186 63.0349 23.4022 63.2953 23.5468C63.5611 23.6974 63.8819 23.7727 64.2582 23.7727C64.5197 23.7727 64.7583 23.7361 64.974 23.6633C65.194 23.5902 65.3819 23.4852 65.5382 23.3485C65.6924 23.2098 65.81 23.036 65.8819 22.842H69.3499C69.2306 23.572 68.9485 24.206 68.5035 24.7444C68.0585 25.2781 67.4691 25.6931 66.7355 25.9896C66.0061 26.2816 65.1526 26.4278 64.176 26.4278ZM74.3103 20.3241V26.2362H70.5123V15.7258H74.1181V17.7239H74.2281C74.4574 17.0581 74.861 16.5358 75.4389 16.157C76.0217 15.7784 76.7004 15.5891 77.4755 15.5891C78.2233 15.5891 78.8726 15.7602 79.4227 16.1024C79.9777 16.44 80.4064 16.9052 80.7098 17.498C81.017 18.0913 81.1684 18.7689 81.1635 19.5305V26.2362H77.3654V20.3241C77.3698 19.8043 77.2369 19.3959 76.9662 19.0993C76.7004 18.8028 76.3289 18.6547 75.8518 18.6547C75.5397 18.6547 75.2668 18.723 75.0331 18.8599C74.8033 18.9921 74.6268 19.1838 74.5031 19.4347C74.379 19.6809 74.3147 19.9774 74.3103 20.3241ZM86.4491 20.3241V26.2362H82.651V15.7258H86.2568V17.7239H86.3668C86.5956 17.0581 86.9998 16.5358 87.5777 16.157C88.1605 15.7784 88.8391 15.5891 89.6142 15.5891C90.3621 15.5891 91.0113 15.7602 91.5615 16.1024C92.1165 16.44 92.5452 16.9052 92.8485 17.498C93.1557 18.0913 93.3072 18.7689 93.3023 19.5305V26.2362H89.5042V20.3241C89.5086 19.8043 89.3757 19.3959 89.1049 19.0993C88.8391 18.8028 88.4677 18.6547 87.9905 18.6547C87.6784 18.6547 87.4055 18.723 87.1719 18.8599C86.942 18.9921 86.7655 19.1838 86.6419 19.4347C86.5177 19.6809 86.4534 19.9774 86.4491 20.3241ZM94.7898 26.2362V15.7258H98.5878V26.2362H94.7898ZM96.6885 14.631C96.1749 14.631 95.7348 14.4624 95.3677 14.1247C95.0006 13.7871 94.8176 13.3812 94.8176 12.9069C94.8176 12.4324 95.0006 12.0263 95.3677 11.6889C95.7348 11.3512 96.1749 11.1826 96.6885 11.1826C97.2071 11.1826 97.6477 11.3512 98.0099 11.6889C98.3771 12.0265 98.5601 12.4324 98.5601 12.9069C98.5601 13.3812 98.3771 13.7873 98.0099 14.1247C97.6477 14.4624 97.2071 14.631 96.6885 14.631Z" fill="#718096" stroke="#718096" stroke-width="0.41156"/>
</g>
</svg>
