<svg width="128" height="39" viewBox="0 0 128 39" fill="none" xmlns="http://www.w3.org/2000/svg">
<path fill-rule="evenodd" clip-rule="evenodd" d="M6.5 19.8159C6.5 19 7.19851 18.2993 8.01658 18.2993C8.92385 18.2993 9.6215 19 9.64982 19.8159C9.6215 26.4081 14.9197 31.7297 21.4325 31.7152C27.9453 31.7297 33.2434 26.4081 33.2151 19.8159C33.2434 19 33.9412 18.2993 34.8484 18.2993C35.6664 18.2993 36.365 19 36.365 19.8159C36.365 28.1367 29.6662 34.865 21.4325 34.865C13.1988 34.865 6.5 28.1367 6.5 19.8159Z" fill="#718096"/>
<path fill-rule="evenodd" clip-rule="evenodd" d="M33.2151 20.0491C33.2434 13.4569 27.9453 8.13529 21.4325 8.14982C14.9197 8.13529 9.6215 13.4569 9.64982 20.0491C9.6215 20.865 8.92385 21.5657 8.01658 21.5657C7.19851 21.5657 6.5 20.865 6.5 20.0491C6.5 11.7284 13.1988 5 21.4325 5C29.6662 5 36.365 11.7284 36.365 20.0491C36.365 20.865 35.6664 21.5657 34.8484 21.5657C33.9412 21.5657 33.2434 20.865 33.2151 20.0491Z" fill="#718096"/>
<path fill-rule="evenodd" clip-rule="evenodd" d="M33.3325 20.7491C30.8983 16.2856 26.1281 14.3017 21.1999 14.3328C16.5618 14.3017 12.0066 16.2184 9.53386 20.7491C8.97588 21.4168 8.02326 21.668 7.20066 21.2157C6.53104 20.8035 6.27957 19.85 6.73402 18.9992C9.86648 13.6938 15.4555 11.183 21.1999 11.183C27.2178 11.183 33.0479 13.7758 36.1323 18.9992C36.5869 19.85 36.3353 20.8035 35.6657 21.2157C35.3426 21.3801 35.0728 21.4491 34.8491 21.4491C34.2686 21.4491 33.7455 21.1716 33.3325 20.7491Z" fill="#718096"/>
<path fill-rule="evenodd" clip-rule="evenodd" d="M6.73382 20.8658C6.27966 20.0147 6.53113 19.0604 7.20046 18.6492C8.01989 18.195 8.97601 18.4462 9.53366 19.1159C11.9657 23.5801 16.7385 25.5632 21.6663 25.5322C26.3041 25.5632 30.8603 23.6464 33.3323 19.1159C33.8902 18.4462 34.8473 18.1984 35.6655 18.6492C36.3351 19.0604 36.5867 20.0147 36.1322 20.8658C33.0012 26.1719 27.4122 28.682 21.6663 28.682C15.647 28.682 9.81687 26.0891 6.73382 20.8658Z" fill="#718096"/>
<path d="M51.7633 18.849C51.7633 15.012 54.4492 13.1895 57.0631 13.1895C59.701 13.1895 62.3869 15.012 62.3869 18.849C62.3869 22.686 59.701 24.5085 57.0631 24.5085C54.4492 24.5085 51.7633 22.686 51.7633 18.849ZM48.334 18.873C48.334 24.3407 52.4587 27.722 57.0631 27.722C61.6914 27.722 65.8162 24.3407 65.8162 18.873C65.8162 13.3813 61.6914 10 57.0631 10C52.4587 10 48.334 13.3813 48.334 18.873Z" fill="#718096"/>
<path d="M70.4912 31.6351V26.2112C71.0668 27.0026 72.2841 27.65 73.9148 27.65C77.2482 27.65 79.4784 25.0121 79.4784 21.439C79.4784 17.9377 77.488 15.2998 74.0347 15.2998C72.2601 15.2998 71.0188 16.0912 70.4912 17.0025V15.7346H67.3633V31.6351H70.4912ZM76.3369 21.4629C76.3369 23.5733 75.0419 24.7963 73.4112 24.7963C71.7805 24.7963 70.4615 23.5493 70.4615 21.4629C70.4615 19.3766 71.7805 18.1535 73.4112 18.1535C75.0419 18.1535 76.3369 19.3766 76.3369 21.4629Z" fill="#718096"/>
<path d="M85.0883 12.0852H82.247V13.693C82.247 14.7481 81.7427 15.4738 80.4956 15.4738H79.875V18.3411H81.9603V23.8849C81.9603 26.1631 83.4693 27.53 85.7715 27.53C86.7067 27.53 87.4071 27.3236 87.6949 27.2037V24.5449C87.527 24.5929 86.9705 24.7003 86.5868 24.7003C85.6755 24.7003 85.0883 24.3645 85.0883 23.3334V18.3411H87.6949V15.4738H85.0883V12.0852Z" fill="#718096"/>
<path d="M91.6939 20.1658C91.7659 19.0867 92.6772 17.8199 94.3318 17.8199C96.1544 17.8199 96.9218 18.9908 96.9698 20.1658H91.6939ZM97.3016 23.2417C96.9179 24.2968 96.0825 24.9881 94.5956 24.9881C93.0129 24.9881 91.6939 24.0706 91.622 22.5118H100.063C100.063 22.4639 100.111 21.7747 100.111 21.319C100.111 17.53 97.929 15.2039 94.2839 15.2039C91.2623 15.2039 88.4805 17.6499 88.4805 21.4149C88.4805 25.3958 91.3342 27.722 94.5716 27.722C97.4734 27.722 99.3439 26.0621 99.9434 24.0237L97.3016 23.2417Z" fill="#718096"/>
<path d="M107.318 24.8203C105.759 24.8203 104.32 23.6692 104.32 21.4629C104.32 19.2327 105.759 18.1056 107.318 18.1056C108.877 18.1056 110.316 19.2327 110.316 21.4629C110.316 23.6931 108.877 24.8203 107.318 24.8203ZM107.318 15.2039C103.793 15.2039 101.131 17.8178 101.131 21.4629C101.131 25.084 103.793 27.722 107.318 27.722C110.843 27.722 113.5 25.084 113.5 21.4629C113.5 17.8178 110.843 15.2039 107.318 15.2039Z" fill="#718096"/>
</svg>
