<svg width="128" height="39" viewBox="0 0 128 39" fill="none" xmlns="http://www.w3.org/2000/svg">
<path d="M38.0968 26.41C37.4608 26.41 36.8668 26.332 36.3148 26.176C35.7628 26.02 35.2708 25.804 34.8388 25.528C34.4068 25.24 34.0468 24.922 33.7587 24.574C33.4827 24.226 33.3027 23.86 33.2188 23.476L35.6308 22.756C35.7868 23.164 36.0628 23.518 36.4588 23.818C36.8548 24.106 37.3528 24.256 37.9528 24.268C38.5888 24.28 39.1048 24.142 39.5008 23.854C39.9088 23.566 40.1128 23.194 40.1128 22.738C40.1128 22.342 39.9507 22.012 39.6267 21.748C39.3147 21.472 38.8827 21.262 38.3307 21.118L36.6928 20.686C36.0808 20.53 35.5408 20.296 35.0728 19.984C34.6048 19.66 34.2387 19.264 33.9748 18.796C33.7108 18.328 33.5788 17.782 33.5788 17.158C33.5788 15.97 33.9688 15.046 34.7487 14.386C35.5408 13.714 36.6568 13.378 38.0968 13.378C38.9008 13.378 39.6027 13.498 40.2028 13.738C40.8148 13.966 41.3247 14.296 41.7327 14.728C42.1408 15.16 42.4528 15.67 42.6687 16.258L40.2747 16.996C40.1307 16.588 39.8667 16.24 39.4827 15.952C39.0988 15.664 38.6127 15.52 38.0247 15.52C37.4247 15.52 36.9507 15.658 36.6028 15.934C36.2667 16.21 36.0988 16.6 36.0988 17.104C36.0988 17.5 36.2308 17.812 36.4948 18.04C36.7708 18.268 37.1428 18.442 37.6108 18.562L39.2668 18.976C40.3468 19.24 41.1867 19.714 41.7867 20.398C42.3868 21.082 42.6868 21.844 42.6868 22.684C42.6868 23.428 42.5068 24.082 42.1468 24.646C41.7868 25.198 41.2648 25.63 40.5808 25.942C39.8968 26.254 39.0688 26.41 38.0968 26.41Z" fill="#718096"/>
<path d="M48.1663 26.41C47.1703 26.41 46.4143 26.164 45.8983 25.672C45.3943 25.18 45.1423 24.478 45.1423 23.566V14.386H47.5183V23.044C47.5183 23.428 47.6023 23.722 47.7703 23.926C47.9383 24.118 48.1843 24.214 48.5083 24.214C48.6283 24.214 48.7603 24.19 48.9043 24.142C49.0483 24.082 49.1983 23.998 49.3543 23.89L50.1823 25.672C49.8943 25.888 49.5703 26.062 49.2103 26.194C48.8623 26.338 48.5143 26.41 48.1663 26.41ZM43.6843 19.21V17.194H49.7683V19.21H43.6843Z" fill="#718096"/>
<path d="M53.3745 21.46C53.3745 20.488 53.5605 19.684 53.9325 19.048C54.3165 18.412 54.8025 17.938 55.3905 17.626C55.9905 17.314 56.6145 17.158 57.2625 17.158V19.462C56.7105 19.462 56.1885 19.528 55.6965 19.66C55.2165 19.792 54.8265 20.008 54.5265 20.308C54.2265 20.608 54.0765 20.992 54.0765 21.46H53.3745ZM51.7005 26.194V17.194H54.0765V26.194H51.7005Z" fill="#718096"/>
<path d="M62.5888 26.41C61.7008 26.41 60.9148 26.212 60.2308 25.816C59.5468 25.408 59.0068 24.85 58.6108 24.142C58.2268 23.434 58.0348 22.618 58.0348 21.694C58.0348 20.77 58.2328 19.954 58.6288 19.246C59.0368 18.538 59.5888 17.986 60.2848 17.59C60.9928 17.182 61.8028 16.978 62.7148 16.978C63.4948 16.978 64.2148 17.188 64.8748 17.608C65.5468 18.016 66.0868 18.622 66.4948 19.426C66.9028 20.218 67.1068 21.184 67.1068 22.324H64.6948C64.7068 21.532 64.6228 20.902 64.4428 20.434C64.2748 19.954 64.0348 19.612 63.7228 19.408C63.4108 19.192 63.0448 19.084 62.6248 19.084C62.1568 19.084 61.7608 19.18 61.4368 19.372C61.1128 19.564 60.8668 19.858 60.6988 20.254C60.5428 20.638 60.4648 21.142 60.4648 21.766C60.4648 22.306 60.5728 22.756 60.7888 23.116C61.0048 23.476 61.2928 23.752 61.6528 23.944C62.0128 24.124 62.4088 24.214 62.8408 24.214C63.3088 24.214 63.6868 24.112 63.9748 23.908C64.2748 23.704 64.5028 23.44 64.6588 23.116L66.8908 23.98C66.6388 24.484 66.3088 24.922 65.9008 25.294C65.5048 25.654 65.0308 25.93 64.4788 26.122C63.9268 26.314 63.2968 26.41 62.5888 26.41ZM59.5828 22.324L59.6008 20.47H65.9368V22.324H59.5828Z" fill="#718096"/>
<path d="M73.8876 26.194L73.7976 24.376V21.64C73.7976 21.1 73.7376 20.644 73.6176 20.272C73.4976 19.888 73.3116 19.6 73.0596 19.408C72.8196 19.204 72.4956 19.102 72.0876 19.102C71.7276 19.102 71.4036 19.18 71.1156 19.336C70.8276 19.492 70.5816 19.744 70.3776 20.092L68.2176 19.354C68.3856 18.97 68.6316 18.598 68.9556 18.238C69.2796 17.866 69.6996 17.566 70.2156 17.338C70.7436 17.098 71.3856 16.978 72.1416 16.978C73.0416 16.978 73.7916 17.14 74.3916 17.464C75.0036 17.788 75.4596 18.268 75.7596 18.904C76.0596 19.528 76.2036 20.296 76.1916 21.208L76.1376 26.194H73.8876ZM71.4036 26.41C70.3236 26.41 69.4836 26.17 68.8836 25.69C68.2956 25.21 68.0016 24.532 68.0016 23.656C68.0016 22.696 68.3196 21.976 68.9556 21.496C69.6036 21.004 70.5096 20.758 71.6736 20.758H73.9596V22.522H72.5016C71.7216 22.522 71.1816 22.618 70.8816 22.81C70.5816 22.99 70.4316 23.248 70.4316 23.584C70.4316 23.848 70.5516 24.058 70.7916 24.214C71.0316 24.358 71.3676 24.43 71.7996 24.43C72.1836 24.43 72.5256 24.34 72.8256 24.16C73.1256 23.968 73.3596 23.728 73.5276 23.44C73.7076 23.14 73.7976 22.834 73.7976 22.522H74.4276C74.4276 23.746 74.1876 24.7 73.7076 25.384C73.2396 26.068 72.4716 26.41 71.4036 26.41Z" fill="#718096"/>
<path d="M78.0853 26.194V17.194H80.3173L80.4613 18.85V26.194H78.0853ZM84.0433 26.194V21.586L86.4193 21.046V26.194H84.0433ZM90.0193 26.194V21.586L92.3953 21.046V26.194H90.0193ZM84.0433 21.586C84.0433 20.974 83.9713 20.5 83.8273 20.164C83.6953 19.828 83.5033 19.588 83.2513 19.444C82.9993 19.288 82.7053 19.21 82.3693 19.21C81.7573 19.198 81.2833 19.384 80.9473 19.768C80.6233 20.152 80.4613 20.722 80.4613 21.478H79.6693C79.6693 20.518 79.8073 19.708 80.0833 19.048C80.3713 18.376 80.7673 17.866 81.2713 17.518C81.7753 17.158 82.3693 16.978 83.0533 16.978C84.1453 16.978 84.9793 17.314 85.5553 17.986C86.1433 18.646 86.4313 19.666 86.4193 21.046L84.0433 21.586ZM90.0193 21.586C90.0193 20.974 89.9473 20.5 89.8033 20.164C89.6593 19.828 89.4613 19.588 89.2093 19.444C88.9693 19.288 88.6753 19.21 88.3273 19.21C87.7153 19.198 87.2413 19.384 86.9053 19.768C86.5813 20.152 86.4193 20.722 86.4193 21.478H85.6273C85.6273 20.518 85.7653 19.708 86.0413 19.048C86.3293 18.376 86.7253 17.866 87.2293 17.518C87.7453 17.158 88.3453 16.978 89.0293 16.978C90.1213 16.978 90.9553 17.314 91.5313 17.986C92.1073 18.646 92.3953 19.666 92.3953 21.046L90.0193 21.586Z" fill="#718096"/>
<path d="M94.2923 26.194V13.594H96.6683V26.194H94.2923Z" fill="#718096"/>
<path d="M98.866 26.194V17.194H101.242V26.194H98.866ZM100.054 15.736C99.694 15.736 99.376 15.604 99.1 15.34C98.824 15.064 98.686 14.74 98.686 14.368C98.686 13.996 98.824 13.678 99.1 13.414C99.376 13.138 99.694 13 100.054 13C100.426 13 100.744 13.138 101.008 13.414C101.284 13.678 101.422 13.996 101.422 14.368C101.422 14.74 101.284 15.064 101.008 15.34C100.744 15.604 100.426 15.736 100.054 15.736Z" fill="#718096"/>
<path d="M103.433 26.194V17.194H105.665L105.809 18.85V26.194H103.433ZM109.391 26.194V21.586L111.767 21.046V26.194H109.391ZM109.391 21.586C109.391 20.974 109.319 20.5 109.175 20.164C109.043 19.828 108.851 19.588 108.599 19.444C108.347 19.288 108.053 19.21 107.717 19.21C107.105 19.198 106.631 19.384 106.295 19.768C105.971 20.152 105.809 20.722 105.809 21.478H105.017C105.017 20.518 105.155 19.708 105.431 19.048C105.719 18.376 106.115 17.866 106.619 17.518C107.123 17.158 107.717 16.978 108.401 16.978C109.493 16.978 110.327 17.314 110.903 17.986C111.491 18.646 111.779 19.666 111.767 21.046L109.391 21.586Z" fill="#718096"/>
<path d="M117.731 26.41C116.843 26.41 116.057 26.212 115.373 25.816C114.689 25.408 114.149 24.85 113.753 24.142C113.369 23.434 113.177 22.618 113.177 21.694C113.177 20.77 113.375 19.954 113.771 19.246C114.179 18.538 114.731 17.986 115.427 17.59C116.135 17.182 116.945 16.978 117.857 16.978C118.637 16.978 119.357 17.188 120.017 17.608C120.689 18.016 121.229 18.622 121.637 19.426C122.045 20.218 122.249 21.184 122.249 22.324H119.837C119.849 21.532 119.765 20.902 119.585 20.434C119.417 19.954 119.177 19.612 118.865 19.408C118.553 19.192 118.187 19.084 117.767 19.084C117.299 19.084 116.903 19.18 116.579 19.372C116.255 19.564 116.009 19.858 115.841 20.254C115.685 20.638 115.607 21.142 115.607 21.766C115.607 22.306 115.715 22.756 115.931 23.116C116.147 23.476 116.435 23.752 116.795 23.944C117.155 24.124 117.551 24.214 117.983 24.214C118.451 24.214 118.829 24.112 119.117 23.908C119.417 23.704 119.645 23.44 119.801 23.116L122.033 23.98C121.781 24.484 121.451 24.922 121.043 25.294C120.647 25.654 120.173 25.93 119.621 26.122C119.069 26.314 118.439 26.41 117.731 26.41ZM114.725 22.324L114.743 20.47H121.079V22.324H114.725Z" fill="#718096"/>
<path d="M28 18.9722C28.0036 20.3654 27.6781 21.7398 27.05 22.9833C26.3052 24.4735 25.1603 25.7269 23.7434 26.6031C22.3265 27.4794 20.6937 27.9438 19.0278 27.9444C17.6346 27.9481 16.2602 27.6226 15.0167 26.9944L9 29L11.0056 22.9833C10.3774 21.7398 10.0519 20.3654 10.0556 18.9722C10.0562 17.3063 10.5206 15.6735 11.3969 14.2566C12.2731 12.8397 13.5265 11.6948 15.0167 10.95C16.2602 10.3219 17.6346 9.9964 19.0278 10H19.5555C21.7557 10.1214 23.8337 11.0501 25.3918 12.6082C26.9499 14.1663 27.8786 16.2443 28 18.4445V18.9722Z" stroke="#718096" stroke-width="1.5" stroke-linecap="round" stroke-linejoin="round"/>
<path d="M20.785 21H20.785H20.785ZM16.5258 21.173C16.811 22.4078 17.888 22.9991 18.9226 23C19.9549 23.0009 21.055 22.42 21.4539 21.2229C21.5722 20.8677 21.3079 20.5 20.9328 20.5H17.061C16.7057 20.5 16.4469 20.8311 16.5258 21.173Z" stroke="#718096"/>
<circle cx="16.5" cy="17" r="1" fill="#718096"/>
<circle cx="21.5" cy="17" r="1" fill="#718096"/>
</svg>
