<svg width="128" height="39" viewBox="0 0 128 39" fill="none" xmlns="http://www.w3.org/2000/svg">
<g clip-path="url(#clip0_1017_747)">
<mask id="mask0_1017_747" style="mask-type:luminance" maskUnits="userSpaceOnUse" x="30" y="7" width="68" height="26">
<path d="M98 7H30.5V32.8841H98V7Z" fill="white"/>
</mask>
<g mask="url(#mask0_1017_747)">
<path d="M41.3562 24.6788C40.952 24.7938 40.5364 24.8471 40.1151 24.8387C39.5906 24.8695 39.0746 24.7069 38.6648 24.3844C38.2778 23.9805 38.0858 23.4309 38.1431 22.8785V17.0006H42.5944V13.4643H38.1431V8.8147L33.0613 10.1888V13.4643H30.4902V17.0034H33.0584V23.7001C33.0297 24.6536 33.2734 25.5959 33.7606 26.4203C34.2163 27.1074 34.8871 27.6318 35.6753 27.9122C36.6183 28.2432 37.6157 28.403 38.6189 28.3806C39.4042 28.3806 40.1896 28.2824 40.9492 28.0889C41.6227 27.9318 42.2619 27.6542 42.8323 27.27L42.2934 24.1993C42.0154 24.4124 41.6973 24.5751 41.3562 24.6788Z" fill="#718096"/>
<path d="M51.4095 24.8974C50.9967 24.9395 50.5869 24.788 50.3031 24.488C50.0451 24.0757 49.9305 23.5934 49.9764 23.1138V7.26367H44.8945V23.756C44.8945 25.3938 45.2528 26.5716 45.9694 27.2951C46.6859 28.0158 47.841 28.3776 49.4375 28.3776C50.0107 28.3748 50.584 28.3075 51.14 28.1729C51.633 28.0691 52.106 27.8925 52.5445 27.6457L52.8712 24.6646C52.5932 24.7432 52.3525 24.8021 52.1547 24.8413C51.911 24.8806 51.6588 24.9002 51.4095 24.8974Z" fill="#718096"/>
<path d="M55.7763 17.7606C56.3868 18.2541 57.1664 18.5037 57.9575 18.4617C58.7543 18.5094 59.5397 18.257 60.153 17.7606C60.6948 17.2614 60.9842 16.5575 60.9441 15.8312C60.9871 15.0965 60.6976 14.3786 60.153 13.871C59.5368 13.3746 58.7543 13.1222 57.9575 13.1699C57.1664 13.1278 56.3868 13.3774 55.7763 13.871C55.2231 14.3729 54.9279 15.0909 54.9709 15.8312C54.9308 16.5603 55.226 17.267 55.7763 17.7606Z" fill="#718096"/>
<path d="M59.6883 23.5515C59.1494 23.2038 58.5103 23.0299 57.8654 23.0551C57.3581 23.0523 56.8593 23.1617 56.4008 23.3776C55.9507 23.5852 55.5695 23.9077 55.2944 24.3143C54.9992 24.7798 54.853 25.3182 54.8759 25.8651C54.8558 26.3418 54.9848 26.8101 55.2485 27.2112C55.4807 27.5477 55.8017 27.8197 56.1743 27.9992C56.5125 28.1674 56.8851 28.2572 57.2664 28.2628C57.4785 28.2684 57.6877 28.2488 57.894 28.2039C58.0345 28.173 58.1663 28.1141 58.281 28.0272L58.43 28.1141C58.2322 28.5516 57.9657 28.9555 57.6389 29.3116C57.2721 29.7154 56.8622 30.08 56.4122 30.3941C55.9364 30.7278 55.4205 31.0054 54.873 31.2129L56.9338 32.7048C57.6991 32.3711 58.3956 31.9 58.9803 31.3139C59.6109 30.6941 60.1268 29.9734 60.5052 29.1798C60.8892 28.389 61.087 27.5252 61.087 26.6503C61.0956 26.0333 60.9781 25.422 60.7431 24.8527C60.531 24.3283 60.1641 23.8768 59.6883 23.5515Z" fill="#718096"/>
<path d="M74.3035 15.9629C74.0255 15.3823 73.647 14.8467 73.1829 14.384C72.3085 13.5567 71.1249 13.1165 69.9096 13.1698C68.7515 13.1473 67.6107 13.4642 66.6363 14.0756C65.659 14.7177 64.8909 15.6207 64.4264 16.678C63.8618 17.9904 63.5924 19.4066 63.6353 20.8312C63.5982 22.225 63.8589 23.6075 64.3979 24.8975C64.8391 25.9491 65.5873 26.8493 66.5503 27.4859C67.5164 28.0917 68.6456 28.4029 69.7922 28.3777C70.6834 28.3917 71.5606 28.1842 72.3489 27.7748C73.0997 27.3737 73.736 26.796 74.2034 26.0922C74.378 25.8257 74.53 25.5453 74.6589 25.2565L74.8451 28.0804H79.3884V7.26099H74.3064V15.9629H74.3035ZM73.974 22.9092C73.8047 23.442 73.4752 23.916 73.0338 24.2693C72.6067 24.5778 72.0878 24.7377 71.5577 24.7236C70.7522 24.7573 69.9784 24.4011 69.4911 23.773C68.9924 23.1392 68.7429 22.1408 68.7429 20.7751C68.7429 19.4122 68.9982 18.411 69.5055 17.7773C69.9985 17.1491 70.7752 16.7957 71.5833 16.8266C72.1137 16.8126 72.6355 16.9724 73.0626 17.2809C73.498 17.6202 73.8191 18.0773 73.9884 18.5961C74.2117 19.272 74.3179 19.9787 74.3035 20.6882C74.3208 21.4398 74.2088 22.1913 73.974 22.9092Z" fill="#718096"/>
<path d="M92.7419 13.4642L89.6033 24.6031L86.5252 13.4642H81.1738L86.5537 28.0833H92.6213L98.0012 13.4642H92.7419Z" fill="#718096"/>
</g>
</g>
<defs>
<clipPath id="clip0_1017_747">
<rect width="67.5" height="26" fill="white" transform="translate(30.5 7)"/>
</clipPath>
</defs>
</svg>
