<svg width="439" height="272" viewBox="0 0 439 272" fill="none" xmlns="http://www.w3.org/2000/svg">
<g filter="url(#filter0_d_5619_20565)">
<rect x="32" y="36" width="200" height="200" rx="100" fill="white"/>
</g>
<rect x="89" y="86" width="85.7143" height="100" rx="12" fill="black"/>
<path d="M131.857 164.571C129.66 164.571 127.466 163.737 125.788 162.071L123.703 159.985C122.894 159.18 121.811 158.734 120.662 158.731H117.728C112.985 158.731 109.124 154.871 109.124 150.128V147.19C109.122 146.044 108.676 144.962 107.867 144.147L105.816 142.098C102.455 138.758 102.441 133.298 105.784 129.935L107.87 127.846C108.676 127.037 109.122 125.955 109.124 124.806V121.874C109.124 117.128 112.985 113.268 117.728 113.268H120.665C121.811 113.268 122.891 112.822 123.705 112.008L125.76 109.959C129.1 106.599 134.558 106.582 137.924 109.928L140.009 112.014C140.821 112.822 141.901 113.268 143.047 113.268H145.984C150.727 113.268 154.588 117.128 154.588 121.874V124.809C154.59 125.955 155.036 127.037 155.845 127.852L157.896 129.903C159.522 131.521 160.422 133.675 160.431 135.975C160.436 138.261 159.556 140.413 157.953 142.038C157.925 142.067 157.899 142.098 157.871 142.124L155.842 144.153C155.036 144.962 154.59 146.044 154.588 147.193V150.128C154.588 154.871 150.727 158.731 145.984 158.731H143.047C141.901 158.734 140.818 159.18 140.007 159.988L137.952 162.04C136.278 163.726 134.066 164.571 131.857 164.571Z" fill="white"/>
<path fill-rule="evenodd" clip-rule="evenodd" d="M126.268 130.435C125.797 130.906 125.185 131.16 124.508 131.16C123.874 131.16 123.251 130.9 122.751 130.432C122.276 129.96 122.008 129.315 122.008 128.66C122.008 128.037 122.271 127.397 122.734 126.903C122.988 126.646 123.291 126.452 123.594 126.349C124.457 125.954 125.602 126.186 126.282 126.9C126.525 127.143 126.711 127.409 126.834 127.686C126.968 127.983 127.037 128.32 127.037 128.66C127.037 129.34 126.765 129.972 126.268 130.435ZM140.981 126.893C140.006 125.922 138.421 125.922 137.446 126.893L122.76 141.58C121.785 142.554 121.785 144.14 122.76 145.117C123.234 145.589 123.86 145.849 124.528 145.849C125.197 145.849 125.823 145.589 126.294 145.117L140.981 130.431C141.955 129.453 141.955 127.87 140.981 126.893ZM140.166 141.046C139.24 140.658 138.143 140.869 137.412 141.601C137.26 141.778 137.046 142.052 136.9 142.375C136.746 142.724 136.726 143.098 136.726 143.349C136.726 143.601 136.746 143.972 136.9 144.321C137.043 144.641 137.215 144.901 137.44 145.127C137.958 145.607 138.558 145.85 139.226 145.85C139.861 145.85 140.483 145.592 140.995 145.115C141.449 144.661 141.698 144.032 141.698 143.349C141.698 142.664 141.449 142.038 140.992 141.581C140.741 141.332 140.438 141.138 140.166 141.046Z" fill="black"/>
<g filter="url(#filter1_d_5619_20565)">
<rect x="212" y="36" width="200" height="200" rx="100" fill="white"/>
</g>
<rect x="262" y="86" width="100" height="100" rx="24" fill="#4E26DE"/>
<path fill-rule="evenodd" clip-rule="evenodd" d="M313.888 144.195L334.767 153.766C337.354 154.953 339.181 156.944 340.167 159.229C342.662 165.014 339.252 170.931 333.899 173.06C328.545 175.187 322.839 173.818 320.245 167.801L311.159 146.678C310.455 145.041 312.223 143.432 313.888 144.195Z" fill="#FFC233"/>
<path fill-rule="evenodd" clip-rule="evenodd" d="M316.257 137.825L337.4 129.729C344.427 127.038 352.103 132.129 351.999 139.526C351.997 139.623 351.996 139.719 351.993 139.817C351.841 147.02 344.379 151.861 337.507 149.313L316.277 141.442C314.584 140.815 314.571 138.47 316.257 137.825Z" fill="#FFC233"/>
<path fill-rule="evenodd" clip-rule="evenodd" d="M313.962 133.832L336.138 124.96C343.506 122.011 345.376 113.162 339.605 108.049C339.53 107.982 339.454 107.915 339.377 107.848C333.719 102.903 324.366 104.644 321.144 111.158L311.193 131.282C310.399 132.886 312.194 134.539 313.962 133.832Z" fill="#FFC233"/>
<path fill-rule="evenodd" clip-rule="evenodd" d="M309.361 131.679L317.346 110.235C318.336 107.576 318.153 104.865 317.129 102.525C314.537 96.6033 307.518 94.6917 301.969 96.8741C296.421 99.0574 293.287 104.016 295.982 110.174L305.463 131.781C306.198 133.455 308.724 133.389 309.361 131.679Z" fill="#FFC233"/>
<defs>
<filter id="filter0_d_5619_20565" x="0" y="0" width="264" height="264" filterUnits="userSpaceOnUse" color-interpolation-filters="sRGB">
<feFlood flood-opacity="0" result="BackgroundImageFix"/>
<feColorMatrix in="SourceAlpha" type="matrix" values="0 0 0 0 0 0 0 0 0 0 0 0 0 0 0 0 0 0 127 0" result="hardAlpha"/>
<feOffset dy="-4"/>
<feGaussianBlur stdDeviation="16"/>
<feComposite in2="hardAlpha" operator="out"/>
<feColorMatrix type="matrix" values="0 0 0 0 0 0 0 0 0 0 0 0 0 0 0 0 0 0 0.1 0"/>
<feBlend mode="normal" in2="BackgroundImageFix" result="effect1_dropShadow_5619_20565"/>
<feBlend mode="normal" in="SourceGraphic" in2="effect1_dropShadow_5619_20565" result="shape"/>
</filter>
<filter id="filter1_d_5619_20565" x="175" y="8" width="264" height="264" filterUnits="userSpaceOnUse" color-interpolation-filters="sRGB">
<feFlood flood-opacity="0" result="BackgroundImageFix"/>
<feColorMatrix in="SourceAlpha" type="matrix" values="0 0 0 0 0 0 0 0 0 0 0 0 0 0 0 0 0 0 127 0" result="hardAlpha"/>
<feOffset dx="-5" dy="4"/>
<feGaussianBlur stdDeviation="16"/>
<feComposite in2="hardAlpha" operator="out"/>
<feColorMatrix type="matrix" values="0 0 0 0 0.168627 0 0 0 0 0.454902 0 0 0 0 0.905882 0 0 0 0.1 0"/>
<feBlend mode="normal" in2="BackgroundImageFix" result="effect1_dropShadow_5619_20565"/>
<feBlend mode="normal" in="SourceGraphic" in2="effect1_dropShadow_5619_20565" result="shape"/>
</filter>
</defs>
</svg>
