<svg width="419" height="252" viewBox="0 0 419 252" fill="none" xmlns="http://www.w3.org/2000/svg">
<g filter="url(#filter0_d_6473_30327)">
<path d="M12 58C12 52.4772 16.4772 48 22 48H392C397.523 48 402 52.4772 402 58V88.8197C402 92.6074 399.529 96.2615 398.477 99.9001C398.186 100.908 398 102.099 398 103.5C398 104.901 398.186 106.092 398.477 107.1C399.529 110.739 402 114.393 402 118.18V226C402 231.523 397.523 236 392 236H22C16.4772 236 12 231.523 12 226V116.142C12 113.49 13.1508 110.987 14.4572 108.679C15.2836 107.219 16 105.404 16 103.5C16 101.619 15.4338 99.9502 14.7275 98.6002C13.3907 96.0452 12 93.3459 12 90.4623V58Z" fill="white"/>
</g>
<path d="M57.999 201.525C55.9996 201.525 54.0027 200.763 52.4764 199.241L50.5784 197.336C49.8425 196.6 48.8571 196.193 47.8119 196.19H45.1416C40.8254 196.19 37.3127 192.664 37.3127 188.332V185.649C37.3101 184.603 36.9045 183.613 36.1686 182.87L34.3018 180.998C31.244 177.947 31.231 172.96 34.2732 169.888L36.1712 167.98C36.9045 167.242 37.3101 166.253 37.3127 165.203V162.526C37.3127 158.191 40.8254 154.665 45.1416 154.665H47.8145C48.8571 154.665 49.8399 154.258 50.581 153.514L52.4504 151.642C55.4899 148.573 60.4561 148.558 63.519 151.614L65.4171 153.519C66.1555 154.258 67.1384 154.665 68.181 154.665H70.8539C75.1701 154.665 78.6828 158.191 78.6828 162.526V165.206C78.6854 166.253 79.091 167.242 79.8268 167.985L81.6937 169.859C83.1731 171.337 83.9922 173.304 84 175.405C84.0052 177.493 83.2043 179.458 81.7457 180.943C81.7197 180.97 81.6963 180.998 81.6703 181.022L79.8242 182.875C79.091 183.613 78.6854 184.603 78.6828 185.652V188.332C78.6828 192.664 75.1701 196.19 70.8539 196.19H68.181C67.1384 196.193 66.1529 196.6 65.4145 197.339L63.545 199.213C62.0214 200.752 60.0089 201.525 57.999 201.525Z" fill="#EEAB00"/>
<path fill-rule="evenodd" clip-rule="evenodd" d="M52.9139 170.345C52.4848 170.776 51.9284 171.008 51.3122 171.008C50.735 171.008 50.1682 170.771 49.7131 170.343C49.2815 169.912 49.0371 169.322 49.0371 168.724C49.0371 168.155 49.2763 167.571 49.6975 167.119C49.9289 166.884 50.2046 166.707 50.4802 166.613C51.2654 166.253 52.308 166.464 52.9269 167.117C53.1479 167.339 53.3169 167.581 53.4287 167.834C53.5509 168.106 53.6133 168.414 53.6133 168.724C53.6133 169.346 53.3663 169.922 52.9139 170.345ZM66.3005 167.106C65.4138 166.219 63.9708 166.219 63.0842 167.106L49.7197 180.521C48.833 181.411 48.833 182.859 49.7197 183.752C50.1513 184.182 50.7207 184.42 51.3291 184.42C51.9375 184.42 52.507 184.182 52.936 183.752L66.3005 170.337C67.1871 169.444 67.1871 167.999 66.3005 167.106ZM65.5582 180.035C64.7158 179.68 63.7174 179.873 63.0518 180.541C62.914 180.703 62.7189 180.953 62.5863 181.248C62.4459 181.567 62.4277 181.909 62.4277 182.138C62.4277 182.368 62.4459 182.707 62.5863 183.026C62.7163 183.318 62.8724 183.556 63.0778 183.762C63.5484 184.2 64.0944 184.422 64.7028 184.422C65.28 184.422 65.8469 184.187 66.3123 183.751C66.7257 183.336 66.9519 182.762 66.9519 182.138C66.9519 181.512 66.7257 180.94 66.3097 180.523C66.0809 180.296 65.8053 180.118 65.5582 180.035Z" fill="white"/>
<path d="M112.943 158.148H111.17C111.102 157.769 110.975 157.436 110.79 157.148C110.604 156.86 110.377 156.616 110.108 156.415C109.839 156.214 109.538 156.062 109.205 155.96C108.875 155.858 108.525 155.807 108.153 155.807C107.483 155.807 106.883 155.975 106.352 156.312C105.826 156.65 105.409 157.144 105.102 157.795C104.799 158.447 104.648 159.242 104.648 160.182C104.648 161.129 104.799 161.928 105.102 162.58C105.409 163.231 105.828 163.723 106.358 164.057C106.888 164.39 107.485 164.557 108.148 164.557C108.515 164.557 108.864 164.508 109.193 164.409C109.527 164.307 109.828 164.157 110.097 163.96C110.366 163.763 110.593 163.523 110.778 163.239C110.968 162.951 111.098 162.621 111.17 162.25L112.943 162.256C112.848 162.828 112.665 163.354 112.392 163.835C112.123 164.312 111.777 164.725 111.352 165.074C110.932 165.419 110.451 165.686 109.909 165.875C109.367 166.064 108.777 166.159 108.136 166.159C107.129 166.159 106.231 165.92 105.443 165.443C104.655 164.962 104.034 164.275 103.58 163.381C103.129 162.487 102.903 161.42 102.903 160.182C102.903 158.939 103.131 157.873 103.585 156.983C104.04 156.089 104.661 155.403 105.449 154.926C106.237 154.445 107.133 154.205 108.136 154.205C108.754 154.205 109.33 154.294 109.864 154.472C110.402 154.646 110.884 154.903 111.312 155.244C111.741 155.581 112.095 155.994 112.375 156.483C112.655 156.968 112.845 157.523 112.943 158.148ZM118.584 166.176C117.766 166.176 117.052 165.989 116.442 165.614C115.832 165.239 115.358 164.714 115.021 164.04C114.684 163.366 114.516 162.578 114.516 161.676C114.516 160.771 114.684 159.979 115.021 159.301C115.358 158.623 115.832 158.097 116.442 157.722C117.052 157.347 117.766 157.159 118.584 157.159C119.402 157.159 120.116 157.347 120.726 157.722C121.336 158.097 121.809 158.623 122.146 159.301C122.483 159.979 122.652 160.771 122.652 161.676C122.652 162.578 122.483 163.366 122.146 164.04C121.809 164.714 121.336 165.239 120.726 165.614C120.116 165.989 119.402 166.176 118.584 166.176ZM118.589 164.75C119.12 164.75 119.559 164.61 119.908 164.33C120.256 164.049 120.514 163.676 120.68 163.21C120.851 162.744 120.936 162.231 120.936 161.67C120.936 161.114 120.851 160.602 120.68 160.136C120.514 159.667 120.256 159.29 119.908 159.006C119.559 158.722 119.12 158.58 118.589 158.58C118.055 158.58 117.612 158.722 117.26 159.006C116.911 159.29 116.652 159.667 116.482 160.136C116.315 160.602 116.232 161.114 116.232 161.67C116.232 162.231 116.315 162.744 116.482 163.21C116.652 163.676 116.911 164.049 117.26 164.33C117.612 164.61 118.055 164.75 118.589 164.75ZM130.077 162.381V157.273H131.781V166H130.111V164.489H130.02C129.819 164.955 129.497 165.343 129.054 165.653C128.615 165.96 128.067 166.114 127.412 166.114C126.851 166.114 126.355 165.991 125.923 165.744C125.495 165.494 125.158 165.125 124.912 164.636C124.67 164.148 124.548 163.544 124.548 162.824V157.273H126.247V162.619C126.247 163.214 126.412 163.687 126.741 164.04C127.071 164.392 127.499 164.568 128.026 164.568C128.344 164.568 128.66 164.489 128.974 164.33C129.293 164.17 129.556 163.93 129.764 163.608C129.976 163.286 130.08 162.877 130.077 162.381ZM134.064 169.273V157.273H135.723V158.688H135.865C135.964 158.506 136.106 158.295 136.291 158.057C136.477 157.818 136.734 157.61 137.064 157.432C137.393 157.25 137.829 157.159 138.371 157.159C139.075 157.159 139.704 157.337 140.257 157.693C140.81 158.049 141.244 158.562 141.558 159.233C141.876 159.903 142.036 160.71 142.036 161.653C142.036 162.597 141.878 163.405 141.564 164.08C141.25 164.75 140.818 165.267 140.268 165.631C139.719 165.991 139.092 166.17 138.388 166.17C137.857 166.17 137.424 166.081 137.087 165.903C136.753 165.725 136.492 165.517 136.303 165.278C136.113 165.04 135.967 164.828 135.865 164.642H135.763V169.273H134.064ZM135.729 161.636C135.729 162.25 135.818 162.788 135.996 163.25C136.174 163.712 136.431 164.074 136.768 164.335C137.106 164.593 137.518 164.722 138.007 164.722C138.515 164.722 138.939 164.587 139.28 164.318C139.621 164.045 139.878 163.676 140.053 163.21C140.231 162.744 140.32 162.22 140.32 161.636C140.32 161.061 140.232 160.544 140.058 160.085C139.888 159.627 139.63 159.265 139.286 159C138.945 158.735 138.518 158.602 138.007 158.602C137.515 158.602 137.098 158.729 136.757 158.983C136.42 159.237 136.164 159.591 135.99 160.045C135.816 160.5 135.729 161.03 135.729 161.636ZM147.615 166.176C146.797 166.176 146.083 165.989 145.473 165.614C144.863 165.239 144.39 164.714 144.053 164.04C143.715 163.366 143.547 162.578 143.547 161.676C143.547 160.771 143.715 159.979 144.053 159.301C144.39 158.623 144.863 158.097 145.473 157.722C146.083 157.347 146.797 157.159 147.615 157.159C148.433 157.159 149.147 157.347 149.757 157.722C150.367 158.097 150.84 158.623 151.178 159.301C151.515 159.979 151.683 160.771 151.683 161.676C151.683 162.578 151.515 163.366 151.178 164.04C150.84 164.714 150.367 165.239 149.757 165.614C149.147 165.989 148.433 166.176 147.615 166.176ZM147.621 164.75C148.151 164.75 148.59 164.61 148.939 164.33C149.287 164.049 149.545 163.676 149.712 163.21C149.882 162.744 149.967 162.231 149.967 161.67C149.967 161.114 149.882 160.602 149.712 160.136C149.545 159.667 149.287 159.29 148.939 159.006C148.59 158.722 148.151 158.58 147.621 158.58C147.087 158.58 146.643 158.722 146.291 159.006C145.943 159.29 145.683 159.667 145.513 160.136C145.346 160.602 145.263 161.114 145.263 161.67C145.263 162.231 145.346 162.744 145.513 163.21C145.683 163.676 145.943 164.049 146.291 164.33C146.643 164.61 147.087 164.75 147.621 164.75ZM155.278 160.818V166H153.58V157.273H155.21V158.693H155.318C155.519 158.231 155.833 157.86 156.261 157.58C156.693 157.299 157.237 157.159 157.892 157.159C158.487 157.159 159.008 157.284 159.455 157.534C159.902 157.78 160.248 158.148 160.494 158.636C160.741 159.125 160.864 159.729 160.864 160.449V166H159.165V160.653C159.165 160.021 159 159.527 158.67 159.17C158.341 158.811 157.888 158.631 157.312 158.631C156.919 158.631 156.568 158.716 156.261 158.886C155.958 159.057 155.718 159.307 155.54 159.636C155.366 159.962 155.278 160.356 155.278 160.818ZM171.053 166.176C170.208 166.176 169.481 165.985 168.871 165.602C168.265 165.216 167.799 164.684 167.473 164.006C167.147 163.328 166.984 162.551 166.984 161.676C166.984 160.79 167.151 160.008 167.484 159.33C167.818 158.648 168.287 158.116 168.893 157.733C169.5 157.35 170.214 157.159 171.036 157.159C171.698 157.159 172.289 157.282 172.808 157.528C173.327 157.771 173.746 158.112 174.064 158.551C174.386 158.991 174.577 159.504 174.638 160.091H172.984C172.893 159.682 172.685 159.33 172.359 159.034C172.037 158.739 171.606 158.591 171.064 158.591C170.59 158.591 170.176 158.716 169.82 158.966C169.467 159.212 169.193 159.564 168.996 160.023C168.799 160.477 168.7 161.015 168.7 161.636C168.7 162.273 168.797 162.822 168.99 163.284C169.183 163.746 169.456 164.104 169.808 164.358C170.164 164.612 170.583 164.739 171.064 164.739C171.386 164.739 171.678 164.68 171.939 164.562C172.204 164.441 172.426 164.269 172.604 164.045C172.786 163.822 172.912 163.553 172.984 163.239H174.638C174.577 163.803 174.393 164.307 174.087 164.75C173.78 165.193 173.369 165.542 172.854 165.795C172.342 166.049 171.742 166.176 171.053 166.176ZM180.131 166.176C179.313 166.176 178.598 165.989 177.989 165.614C177.379 165.239 176.905 164.714 176.568 164.04C176.231 163.366 176.062 162.578 176.062 161.676C176.062 160.771 176.231 159.979 176.568 159.301C176.905 158.623 177.379 158.097 177.989 157.722C178.598 157.347 179.313 157.159 180.131 157.159C180.949 157.159 181.663 157.347 182.273 157.722C182.883 158.097 183.356 158.623 183.693 159.301C184.03 159.979 184.199 160.771 184.199 161.676C184.199 162.578 184.03 163.366 183.693 164.04C183.356 164.714 182.883 165.239 182.273 165.614C181.663 165.989 180.949 166.176 180.131 166.176ZM180.136 164.75C180.667 164.75 181.106 164.61 181.455 164.33C181.803 164.049 182.061 163.676 182.227 163.21C182.398 162.744 182.483 162.231 182.483 161.67C182.483 161.114 182.398 160.602 182.227 160.136C182.061 159.667 181.803 159.29 181.455 159.006C181.106 158.722 180.667 158.58 180.136 158.58C179.602 158.58 179.159 158.722 178.807 159.006C178.458 159.29 178.199 159.667 178.028 160.136C177.862 160.602 177.778 161.114 177.778 161.67C177.778 162.231 177.862 162.744 178.028 163.21C178.199 163.676 178.458 164.049 178.807 164.33C179.159 164.61 179.602 164.75 180.136 164.75ZM189.362 166.17C188.658 166.17 188.029 165.991 187.476 165.631C186.927 165.267 186.495 164.75 186.18 164.08C185.87 163.405 185.714 162.597 185.714 161.653C185.714 160.71 185.872 159.903 186.186 159.233C186.504 158.562 186.94 158.049 187.493 157.693C188.046 157.337 188.673 157.159 189.374 157.159C189.915 157.159 190.351 157.25 190.68 157.432C191.014 157.61 191.271 157.818 191.453 158.057C191.639 158.295 191.783 158.506 191.885 158.688H191.987V154.364H193.686V166H192.027V164.642H191.885C191.783 164.828 191.635 165.04 191.442 165.278C191.252 165.517 190.991 165.725 190.658 165.903C190.324 166.081 189.893 166.17 189.362 166.17ZM189.737 164.722C190.226 164.722 190.639 164.593 190.976 164.335C191.317 164.074 191.574 163.712 191.749 163.25C191.927 162.788 192.016 162.25 192.016 161.636C192.016 161.03 191.929 160.5 191.754 160.045C191.58 159.591 191.324 159.237 190.987 158.983C190.65 158.729 190.233 158.602 189.737 158.602C189.226 158.602 188.8 158.735 188.459 159C188.118 159.265 187.86 159.627 187.686 160.085C187.516 160.544 187.43 161.061 187.43 161.636C187.43 162.22 187.518 162.744 187.692 163.21C187.866 163.676 188.124 164.045 188.464 164.318C188.809 164.587 189.233 164.722 189.737 164.722ZM199.872 166.176C199.012 166.176 198.272 165.992 197.651 165.625C197.033 165.254 196.556 164.733 196.219 164.062C195.885 163.388 195.719 162.598 195.719 161.693C195.719 160.799 195.885 160.011 196.219 159.33C196.556 158.648 197.026 158.116 197.628 157.733C198.234 157.35 198.942 157.159 199.753 157.159C200.245 157.159 200.723 157.241 201.185 157.403C201.647 157.566 202.062 157.822 202.429 158.17C202.796 158.519 203.086 158.972 203.298 159.528C203.51 160.081 203.616 160.754 203.616 161.545V162.148H196.679V160.875H201.952C201.952 160.428 201.861 160.032 201.679 159.688C201.497 159.339 201.241 159.064 200.912 158.864C200.586 158.663 200.204 158.562 199.764 158.562C199.287 158.562 198.87 158.68 198.514 158.915C198.162 159.146 197.889 159.449 197.696 159.824C197.507 160.195 197.412 160.598 197.412 161.034V162.028C197.412 162.612 197.514 163.108 197.719 163.517C197.927 163.926 198.217 164.239 198.588 164.455C198.959 164.667 199.393 164.773 199.889 164.773C200.211 164.773 200.505 164.727 200.77 164.636C201.035 164.542 201.264 164.402 201.457 164.216C201.651 164.03 201.798 163.801 201.901 163.528L203.509 163.818C203.38 164.292 203.149 164.706 202.815 165.062C202.486 165.415 202.071 165.689 201.571 165.886C201.075 166.08 200.509 166.176 199.872 166.176Z" fill="#2D3748"/>
<rect x="102.5" y="180.5" width="209" height="39" rx="5.5" fill="white"/>
<path d="M119.409 206V194.364H123.341C124.254 194.364 125 194.528 125.58 194.858C126.163 195.184 126.595 195.625 126.875 196.182C127.155 196.739 127.295 197.36 127.295 198.045C127.295 198.731 127.155 199.354 126.875 199.915C126.598 200.475 126.17 200.922 125.591 201.256C125.011 201.585 124.269 201.75 123.364 201.75H120.545V200.5H123.318C123.943 200.5 124.445 200.392 124.824 200.176C125.203 199.96 125.477 199.669 125.648 199.301C125.822 198.93 125.909 198.511 125.909 198.045C125.909 197.58 125.822 197.163 125.648 196.795C125.477 196.428 125.201 196.14 124.818 195.932C124.436 195.72 123.928 195.614 123.295 195.614H120.818V206H119.409ZM129.565 206V194.364H133.497C134.41 194.364 135.156 194.528 135.736 194.858C136.319 195.184 136.751 195.625 137.031 196.182C137.312 196.739 137.452 197.36 137.452 198.045C137.452 198.731 137.312 199.354 137.031 199.915C136.755 200.475 136.327 200.922 135.747 201.256C135.168 201.585 134.425 201.75 133.52 201.75H130.702V200.5H133.474C134.099 200.5 134.601 200.392 134.98 200.176C135.359 199.96 135.634 199.669 135.804 199.301C135.978 198.93 136.065 198.511 136.065 198.045C136.065 197.58 135.978 197.163 135.804 196.795C135.634 196.428 135.357 196.14 134.974 195.932C134.592 195.72 134.084 195.614 133.452 195.614H130.974V206H129.565ZM139.722 206V194.364H143.653C144.566 194.364 145.313 194.528 145.892 194.858C146.475 195.184 146.907 195.625 147.188 196.182C147.468 196.739 147.608 197.36 147.608 198.045C147.608 198.731 147.468 199.354 147.188 199.915C146.911 200.475 146.483 200.922 145.903 201.256C145.324 201.585 144.581 201.75 143.676 201.75H140.858V200.5H143.631C144.256 200.5 144.758 200.392 145.136 200.176C145.515 199.96 145.79 199.669 145.96 199.301C146.134 198.93 146.222 198.511 146.222 198.045C146.222 197.58 146.134 197.163 145.96 196.795C145.79 196.428 145.513 196.14 145.131 195.932C144.748 195.72 144.241 195.614 143.608 195.614H141.131V206H139.722ZM149.168 206H147.69L151.963 194.364H153.418L157.69 206H156.213L152.736 196.205H152.645L149.168 206ZM149.713 201.455H155.668V202.705H149.713V201.455ZM159.503 194.364H161.185L165.139 204.023H165.276L169.23 194.364H170.912V206H169.594V197.159H169.48L165.844 206H164.571L160.935 197.159H160.821V206H159.503V194.364ZM177.328 206H173.737V194.364H177.487C178.616 194.364 179.582 194.597 180.385 195.062C181.188 195.525 181.804 196.189 182.232 197.057C182.66 197.92 182.874 198.955 182.874 200.159C182.874 201.371 182.658 202.415 182.226 203.29C181.794 204.161 181.165 204.831 180.339 205.301C179.514 205.767 178.51 206 177.328 206ZM175.146 204.75H177.237C178.199 204.75 178.997 204.564 179.629 204.193C180.262 203.822 180.733 203.294 181.044 202.608C181.355 201.922 181.51 201.106 181.51 200.159C181.51 199.22 181.357 198.411 181.05 197.733C180.743 197.051 180.285 196.528 179.675 196.165C179.065 195.797 178.305 195.614 177.396 195.614H175.146V204.75ZM184.76 203.614V202.455L189.874 194.364H190.714V196.159H190.146L186.283 202.273V202.364H193.169V203.614H184.76ZM190.237 206V203.261V202.722V194.364H191.578V206H190.237ZM199.094 206.159C198.238 206.159 197.509 205.926 196.906 205.46C196.304 204.991 195.844 204.311 195.526 203.42C195.207 202.527 195.048 201.447 195.048 200.182C195.048 198.924 195.207 197.85 195.526 196.96C195.848 196.066 196.31 195.384 196.912 194.915C197.518 194.441 198.245 194.205 199.094 194.205C199.942 194.205 200.668 194.441 201.27 194.915C201.876 195.384 202.338 196.066 202.656 196.96C202.978 197.85 203.139 198.924 203.139 200.182C203.139 201.447 202.98 202.527 202.662 203.42C202.344 204.311 201.884 204.991 201.281 205.46C200.679 205.926 199.95 206.159 199.094 206.159ZM199.094 204.909C199.942 204.909 200.601 204.5 201.071 203.682C201.541 202.864 201.776 201.697 201.776 200.182C201.776 199.174 201.668 198.316 201.452 197.608C201.24 196.9 200.933 196.36 200.531 195.989C200.134 195.617 199.654 195.432 199.094 195.432C198.253 195.432 197.596 195.847 197.122 196.676C196.649 197.502 196.412 198.67 196.412 200.182C196.412 201.189 196.518 202.045 196.73 202.75C196.942 203.455 197.247 203.991 197.645 204.358C198.046 204.725 198.529 204.909 199.094 204.909Z" fill="#2D3748"/>
<rect x="102.5" y="180.5" width="209" height="39" rx="5.5" stroke="#E2E8F0"/>
<path d="M52.9432 74.1477H51.1705C51.1023 73.7689 50.9754 73.4356 50.7898 73.1477C50.6042 72.8598 50.3769 72.6155 50.108 72.4148C49.839 72.214 49.5379 72.0625 49.2045 71.9602C48.875 71.858 48.5246 71.8068 48.1534 71.8068C47.483 71.8068 46.8826 71.9754 46.3523 72.3125C45.8258 72.6496 45.4091 73.1439 45.1023 73.7955C44.7992 74.447 44.6477 75.2424 44.6477 76.1818C44.6477 77.1288 44.7992 77.928 45.1023 78.5795C45.4091 79.2311 45.8277 79.7235 46.358 80.0568C46.8883 80.3902 47.4848 80.5568 48.1477 80.5568C48.5152 80.5568 48.8636 80.5076 49.1932 80.4091C49.5265 80.3068 49.8277 80.1572 50.0966 79.9602C50.3655 79.7633 50.5928 79.5227 50.7784 79.2386C50.9678 78.9508 51.0985 78.6212 51.1705 78.25L52.9432 78.2557C52.8485 78.8277 52.6648 79.3542 52.392 79.8352C52.1231 80.3125 51.7765 80.7254 51.3523 81.0739C50.9318 81.4186 50.4508 81.6856 49.9091 81.875C49.3674 82.0644 48.7765 82.1591 48.1364 82.1591C47.1288 82.1591 46.2311 81.9205 45.4432 81.4432C44.6553 80.9621 44.0341 80.2746 43.5795 79.3807C43.1288 78.4867 42.9034 77.4205 42.9034 76.1818C42.9034 74.9394 43.1307 73.8731 43.5852 72.983C44.0398 72.089 44.661 71.4034 45.4489 70.9261C46.2367 70.4451 47.1326 70.2045 48.1364 70.2045C48.7538 70.2045 49.3295 70.2936 49.8636 70.4716C50.4015 70.6458 50.8845 70.9034 51.3125 71.2443C51.7405 71.5814 52.0947 71.9943 52.375 72.483C52.6553 72.9678 52.8447 73.5227 52.9432 74.1477ZM58.5838 82.1761C57.7656 82.1761 57.0516 81.9886 56.4418 81.6136C55.8319 81.2386 55.3584 80.714 55.0213 80.0398C54.6842 79.3655 54.5156 78.5777 54.5156 77.6761C54.5156 76.7708 54.6842 75.9792 55.0213 75.3011C55.3584 74.6231 55.8319 74.0966 56.4418 73.7216C57.0516 73.3466 57.7656 73.1591 58.5838 73.1591C59.402 73.1591 60.116 73.3466 60.7259 73.7216C61.3357 74.0966 61.8092 74.6231 62.1463 75.3011C62.4834 75.9792 62.652 76.7708 62.652 77.6761C62.652 78.5777 62.4834 79.3655 62.1463 80.0398C61.8092 80.714 61.3357 81.2386 60.7259 81.6136C60.116 81.9886 59.402 82.1761 58.5838 82.1761ZM58.5895 80.75C59.1198 80.75 59.5592 80.6098 59.9077 80.3295C60.2562 80.0492 60.5137 79.6761 60.6804 79.2102C60.8509 78.7443 60.9361 78.2311 60.9361 77.6705C60.9361 77.1136 60.8509 76.6023 60.6804 76.1364C60.5137 75.6667 60.2562 75.2898 59.9077 75.0057C59.5592 74.7216 59.1198 74.5795 58.5895 74.5795C58.0554 74.5795 57.6122 74.7216 57.2599 75.0057C56.9115 75.2898 56.652 75.6667 56.4815 76.1364C56.3149 76.6023 56.2315 77.1136 56.2315 77.6705C56.2315 78.2311 56.3149 78.7443 56.4815 79.2102C56.652 79.6761 56.9115 80.0492 57.2599 80.3295C57.6122 80.6098 58.0554 80.75 58.5895 80.75ZM70.0767 78.3807V73.2727H71.7812V82H70.1108V80.4886H70.0199C69.8191 80.9545 69.4972 81.3428 69.054 81.6534C68.6146 81.9602 68.0672 82.1136 67.4119 82.1136C66.8513 82.1136 66.3551 81.9905 65.9233 81.7443C65.4953 81.4943 65.1581 81.125 64.9119 80.6364C64.6695 80.1477 64.5483 79.5436 64.5483 78.8239V73.2727H66.2472V78.6193C66.2472 79.214 66.4119 79.6875 66.7415 80.0398C67.071 80.392 67.4991 80.5682 68.0256 80.5682C68.3438 80.5682 68.66 80.4886 68.9744 80.3295C69.2926 80.1705 69.5559 79.9299 69.7642 79.608C69.9763 79.286 70.0805 78.8769 70.0767 78.3807ZM74.0639 85.2727V73.2727H75.723V74.6875H75.8651C75.9635 74.5057 76.1056 74.2955 76.2912 74.0568C76.4768 73.8182 76.7344 73.6098 77.0639 73.4318C77.3935 73.25 77.8291 73.1591 78.3707 73.1591C79.0753 73.1591 79.7041 73.3371 80.2571 73.6932C80.8101 74.0492 81.2438 74.5625 81.5582 75.233C81.8764 75.9034 82.0355 76.7102 82.0355 77.6534C82.0355 78.5966 81.8783 79.4053 81.5639 80.0795C81.2495 80.75 80.8177 81.267 80.2685 81.6307C79.7192 81.9905 79.0923 82.1705 78.3878 82.1705C77.8575 82.1705 77.4238 82.0814 77.0866 81.9034C76.7533 81.7254 76.492 81.517 76.3026 81.2784C76.1132 81.0398 75.9673 80.8277 75.8651 80.642H75.7628V85.2727H74.0639ZM75.7287 77.6364C75.7287 78.25 75.8177 78.7879 75.9957 79.25C76.1738 79.7121 76.4313 80.0739 76.7685 80.3352C77.1056 80.5928 77.5185 80.7216 78.0071 80.7216C78.5147 80.7216 78.9389 80.5871 79.2798 80.3182C79.6207 80.0455 79.8783 79.6761 80.0526 79.2102C80.2306 78.7443 80.3196 78.2197 80.3196 77.6364C80.3196 77.0606 80.2325 76.5436 80.0582 76.0852C79.8878 75.6269 79.6302 75.2652 79.2855 75C78.9446 74.7348 78.5185 74.6023 78.0071 74.6023C77.5147 74.6023 77.098 74.7292 76.7571 74.983C76.42 75.2367 76.1643 75.5909 75.9901 76.0455C75.8158 76.5 75.7287 77.0303 75.7287 77.6364ZM87.6151 82.1761C86.7969 82.1761 86.0829 81.9886 85.473 81.6136C84.8632 81.2386 84.3897 80.714 84.0526 80.0398C83.7154 79.3655 83.5469 78.5777 83.5469 77.6761C83.5469 76.7708 83.7154 75.9792 84.0526 75.3011C84.3897 74.6231 84.8632 74.0966 85.473 73.7216C86.0829 73.3466 86.7969 73.1591 87.6151 73.1591C88.4332 73.1591 89.1473 73.3466 89.7571 73.7216C90.367 74.0966 90.8404 74.6231 91.1776 75.3011C91.5147 75.9792 91.6832 76.7708 91.6832 77.6761C91.6832 78.5777 91.5147 79.3655 91.1776 80.0398C90.8404 80.714 90.367 81.2386 89.7571 81.6136C89.1473 81.9886 88.4332 82.1761 87.6151 82.1761ZM87.6207 80.75C88.151 80.75 88.5904 80.6098 88.9389 80.3295C89.2874 80.0492 89.545 79.6761 89.7116 79.2102C89.8821 78.7443 89.9673 78.2311 89.9673 77.6705C89.9673 77.1136 89.8821 76.6023 89.7116 76.1364C89.545 75.6667 89.2874 75.2898 88.9389 75.0057C88.5904 74.7216 88.151 74.5795 87.6207 74.5795C87.0866 74.5795 86.6435 74.7216 86.2912 75.0057C85.9427 75.2898 85.6832 75.6667 85.5128 76.1364C85.3461 76.6023 85.2628 77.1136 85.2628 77.6705C85.2628 78.2311 85.3461 78.7443 85.5128 79.2102C85.6832 79.6761 85.9427 80.0492 86.2912 80.3295C86.6435 80.6098 87.0866 80.75 87.6207 80.75ZM95.2784 76.8182V82H93.5795V73.2727H95.2102V74.6932H95.3182C95.5189 74.2311 95.8333 73.8598 96.2614 73.5795C96.6932 73.2992 97.2367 73.1591 97.892 73.1591C98.4867 73.1591 99.0076 73.2841 99.4545 73.5341C99.9015 73.7803 100.248 74.1477 100.494 74.6364C100.741 75.125 100.864 75.7292 100.864 76.4489V82H99.1648V76.6534C99.1648 76.0208 99 75.5265 98.6705 75.1705C98.3409 74.8106 97.8883 74.6307 97.3125 74.6307C96.9186 74.6307 96.5682 74.7159 96.2614 74.8864C95.9583 75.0568 95.7178 75.3068 95.5398 75.6364C95.3655 75.9621 95.2784 76.3561 95.2784 76.8182ZM111.053 82.1761C110.208 82.1761 109.481 81.9848 108.871 81.6023C108.265 81.2159 107.799 80.6837 107.473 80.0057C107.147 79.3277 106.984 78.5511 106.984 77.6761C106.984 76.7898 107.151 76.0076 107.484 75.3295C107.818 74.6477 108.287 74.1155 108.893 73.733C109.5 73.3504 110.214 73.1591 111.036 73.1591C111.698 73.1591 112.289 73.2822 112.808 73.5284C113.327 73.7708 113.746 74.1117 114.064 74.5511C114.386 74.9905 114.577 75.5038 114.638 76.0909H112.984C112.893 75.6818 112.685 75.3295 112.359 75.0341C112.037 74.7386 111.606 74.5909 111.064 74.5909C110.59 74.5909 110.176 74.7159 109.82 74.9659C109.467 75.2121 109.193 75.5644 108.996 76.0227C108.799 76.4773 108.7 77.0152 108.7 77.6364C108.7 78.2727 108.797 78.822 108.99 79.2841C109.183 79.7462 109.456 80.1042 109.808 80.358C110.164 80.6117 110.583 80.7386 111.064 80.7386C111.386 80.7386 111.678 80.6799 111.939 80.5625C112.204 80.4413 112.426 80.2689 112.604 80.0455C112.786 79.822 112.912 79.553 112.984 79.2386H114.638C114.577 79.803 114.393 80.3068 114.087 80.75C113.78 81.1932 113.369 81.5417 112.854 81.7955C112.342 82.0492 111.742 82.1761 111.053 82.1761ZM120.131 82.1761C119.313 82.1761 118.598 81.9886 117.989 81.6136C117.379 81.2386 116.905 80.714 116.568 80.0398C116.231 79.3655 116.062 78.5777 116.062 77.6761C116.062 76.7708 116.231 75.9792 116.568 75.3011C116.905 74.6231 117.379 74.0966 117.989 73.7216C118.598 73.3466 119.313 73.1591 120.131 73.1591C120.949 73.1591 121.663 73.3466 122.273 73.7216C122.883 74.0966 123.356 74.6231 123.693 75.3011C124.03 75.9792 124.199 76.7708 124.199 77.6761C124.199 78.5777 124.03 79.3655 123.693 80.0398C123.356 80.714 122.883 81.2386 122.273 81.6136C121.663 81.9886 120.949 82.1761 120.131 82.1761ZM120.136 80.75C120.667 80.75 121.106 80.6098 121.455 80.3295C121.803 80.0492 122.061 79.6761 122.227 79.2102C122.398 78.7443 122.483 78.2311 122.483 77.6705C122.483 77.1136 122.398 76.6023 122.227 76.1364C122.061 75.6667 121.803 75.2898 121.455 75.0057C121.106 74.7216 120.667 74.5795 120.136 74.5795C119.602 74.5795 119.159 74.7216 118.807 75.0057C118.458 75.2898 118.199 75.6667 118.028 76.1364C117.862 76.6023 117.778 77.1136 117.778 77.6705C117.778 78.2311 117.862 78.7443 118.028 79.2102C118.199 79.6761 118.458 80.0492 118.807 80.3295C119.159 80.6098 119.602 80.75 120.136 80.75ZM129.362 82.1705C128.658 82.1705 128.029 81.9905 127.476 81.6307C126.927 81.267 126.495 80.75 126.18 80.0795C125.87 79.4053 125.714 78.5966 125.714 77.6534C125.714 76.7102 125.872 75.9034 126.186 75.233C126.504 74.5625 126.94 74.0492 127.493 73.6932C128.046 73.3371 128.673 73.1591 129.374 73.1591C129.915 73.1591 130.351 73.25 130.68 73.4318C131.014 73.6098 131.271 73.8182 131.453 74.0568C131.639 74.2955 131.783 74.5057 131.885 74.6875H131.987V70.3636H133.686V82H132.027V80.642H131.885C131.783 80.8277 131.635 81.0398 131.442 81.2784C131.252 81.517 130.991 81.7254 130.658 81.9034C130.324 82.0814 129.893 82.1705 129.362 82.1705ZM129.737 80.7216C130.226 80.7216 130.639 80.5928 130.976 80.3352C131.317 80.0739 131.574 79.7121 131.749 79.25C131.927 78.7879 132.016 78.25 132.016 77.6364C132.016 77.0303 131.929 76.5 131.754 76.0455C131.58 75.5909 131.324 75.2367 130.987 74.983C130.65 74.7292 130.233 74.6023 129.737 74.6023C129.226 74.6023 128.8 74.7348 128.459 75C128.118 75.2652 127.86 75.6269 127.686 76.0852C127.516 76.5436 127.43 77.0606 127.43 77.6364C127.43 78.2197 127.518 78.7443 127.692 79.2102C127.866 79.6761 128.124 80.0455 128.464 80.3182C128.809 80.5871 129.233 80.7216 129.737 80.7216ZM139.872 82.1761C139.012 82.1761 138.272 81.9924 137.651 81.625C137.033 81.2538 136.556 80.733 136.219 80.0625C135.885 79.3883 135.719 78.5985 135.719 77.6932C135.719 76.7992 135.885 76.0114 136.219 75.3295C136.556 74.6477 137.026 74.1155 137.628 73.733C138.234 73.3504 138.942 73.1591 139.753 73.1591C140.245 73.1591 140.723 73.2405 141.185 73.4034C141.647 73.5663 142.062 73.822 142.429 74.1705C142.796 74.5189 143.086 74.9716 143.298 75.5284C143.51 76.0814 143.616 76.7538 143.616 77.5455V78.1477H136.679V76.875H141.952C141.952 76.428 141.861 76.0322 141.679 75.6875C141.497 75.339 141.241 75.0644 140.912 74.8636C140.586 74.6629 140.204 74.5625 139.764 74.5625C139.287 74.5625 138.87 74.6799 138.514 74.9148C138.162 75.1458 137.889 75.4489 137.696 75.8239C137.507 76.1951 137.412 76.5985 137.412 77.0341V78.0284C137.412 78.6117 137.514 79.108 137.719 79.517C137.927 79.9261 138.217 80.2386 138.588 80.4545C138.959 80.6667 139.393 80.7727 139.889 80.7727C140.211 80.7727 140.505 80.7273 140.77 80.6364C141.035 80.5417 141.264 80.4015 141.457 80.2159C141.651 80.0303 141.798 79.8011 141.901 79.5284L143.509 79.8182C143.38 80.2917 143.149 80.7064 142.815 81.0625C142.486 81.4148 142.071 81.6894 141.571 81.8864C141.075 82.0795 140.509 82.1761 139.872 82.1761Z" fill="#2D3748"/>
<rect x="42.5" y="96.5" width="212" height="39" rx="5.5" fill="white"/>
<path d="M59.4091 122V110.364H63.3409C64.2538 110.364 65 110.528 65.5795 110.858C66.1629 111.184 66.5947 111.625 66.875 112.182C67.1553 112.739 67.2955 113.36 67.2955 114.045C67.2955 114.731 67.1553 115.354 66.875 115.915C66.5985 116.475 66.1705 116.922 65.5909 117.256C65.0114 117.585 64.2689 117.75 63.3636 117.75H60.5455V116.5H63.3182C63.9432 116.5 64.4451 116.392 64.8239 116.176C65.2027 115.96 65.4773 115.669 65.6477 115.301C65.822 114.93 65.9091 114.511 65.9091 114.045C65.9091 113.58 65.822 113.163 65.6477 112.795C65.4773 112.428 65.2008 112.14 64.8182 111.932C64.4356 111.72 63.928 111.614 63.2955 111.614H60.8182V122H59.4091ZM69.5653 122V110.364H73.4972C74.41 110.364 75.1563 110.528 75.7358 110.858C76.3191 111.184 76.7509 111.625 77.0312 112.182C77.3116 112.739 77.4517 113.36 77.4517 114.045C77.4517 114.731 77.3116 115.354 77.0312 115.915C76.7547 116.475 76.3267 116.922 75.7472 117.256C75.1676 117.585 74.4252 117.75 73.5199 117.75H70.7017V116.5H73.4744C74.0994 116.5 74.6013 116.392 74.9801 116.176C75.3589 115.96 75.6335 115.669 75.804 115.301C75.9782 114.93 76.0653 114.511 76.0653 114.045C76.0653 113.58 75.9782 113.163 75.804 112.795C75.6335 112.428 75.357 112.14 74.9744 111.932C74.5919 111.72 74.0843 111.614 73.4517 111.614H70.9744V122H69.5653ZM79.7216 122V110.364H83.6534C84.5663 110.364 85.3125 110.528 85.892 110.858C86.4754 111.184 86.9072 111.625 87.1875 112.182C87.4678 112.739 87.608 113.36 87.608 114.045C87.608 114.731 87.4678 115.354 87.1875 115.915C86.911 116.475 86.483 116.922 85.9034 117.256C85.3239 117.585 84.5814 117.75 83.6761 117.75H80.858V116.5H83.6307C84.2557 116.5 84.7576 116.392 85.1364 116.176C85.5152 115.96 85.7898 115.669 85.9602 115.301C86.1345 114.93 86.2216 114.511 86.2216 114.045C86.2216 113.58 86.1345 113.163 85.9602 112.795C85.7898 112.428 85.5133 112.14 85.1307 111.932C84.7481 111.72 84.2405 111.614 83.608 111.614H81.1307V122H79.7216ZM91.2869 110.364V122H89.8778V110.364H91.2869ZM103.339 110.364V122H101.976L95.6349 112.864H95.5213V122H94.1122V110.364H95.4759L101.839 119.523H101.953V110.364H103.339ZM109.75 122H106.159V110.364H109.909C111.038 110.364 112.004 110.597 112.807 111.062C113.61 111.525 114.225 112.189 114.653 113.057C115.081 113.92 115.295 114.955 115.295 116.159C115.295 117.371 115.08 118.415 114.648 119.29C114.216 120.161 113.587 120.831 112.761 121.301C111.936 121.767 110.932 122 109.75 122ZM107.568 120.75H109.659C110.621 120.75 111.419 120.564 112.051 120.193C112.684 119.822 113.155 119.294 113.466 118.608C113.777 117.922 113.932 117.106 113.932 116.159C113.932 115.22 113.778 114.411 113.472 113.733C113.165 113.051 112.706 112.528 112.097 112.165C111.487 111.797 110.727 111.614 109.818 111.614H107.568V120.75ZM117.182 119.614V118.455L122.295 110.364H123.136V112.159H122.568L118.705 118.273V118.364H125.591V119.614H117.182ZM122.659 122V119.261V118.722V110.364H124V122H122.659ZM131.516 122.159C130.66 122.159 129.93 121.926 129.328 121.46C128.726 120.991 128.266 120.311 127.947 119.42C127.629 118.527 127.47 117.447 127.47 116.182C127.47 114.924 127.629 113.85 127.947 112.96C128.269 112.066 128.732 111.384 129.334 110.915C129.94 110.441 130.667 110.205 131.516 110.205C132.364 110.205 133.089 110.441 133.692 110.915C134.298 111.384 134.76 112.066 135.078 112.96C135.4 113.85 135.561 114.924 135.561 116.182C135.561 117.447 135.402 118.527 135.084 119.42C134.766 120.311 134.305 120.991 133.703 121.46C133.101 121.926 132.372 122.159 131.516 122.159ZM131.516 120.909C132.364 120.909 133.023 120.5 133.493 119.682C133.963 118.864 134.197 117.697 134.197 116.182C134.197 115.174 134.089 114.316 133.874 113.608C133.661 112.9 133.355 112.36 132.953 111.989C132.555 111.617 132.076 111.432 131.516 111.432C130.675 111.432 130.018 111.847 129.544 112.676C129.071 113.502 128.834 114.67 128.834 116.182C128.834 117.189 128.94 118.045 129.152 118.75C129.364 119.455 129.669 119.991 130.067 120.358C130.468 120.725 130.951 120.909 131.516 120.909Z" fill="#2D3748"/>
<rect x="42.5" y="96.5" width="212" height="39" rx="5.5" stroke="#E2E8F0"/>
<g filter="url(#filter1_d_6473_30327)">
<circle cx="345" cy="70" r="62" fill="white"/>
</g>
<path d="M345.037 86.1938C343.803 86.1938 342.572 85.7238 341.63 84.7853L340.459 83.6101C340.006 83.1561 339.398 82.905 338.753 82.9034H337.106C334.444 82.9034 332.277 80.7286 332.277 78.0563V76.4014C332.275 75.7559 332.025 75.1458 331.571 74.687L330.42 73.5328C328.534 71.6509 328.526 68.5746 330.402 66.6798L331.573 65.5031C332.025 65.0475 332.275 64.4374 332.277 63.7902V62.1386C332.277 59.4647 334.444 57.2899 337.106 57.2899H338.755C339.398 57.2899 340.004 57.0387 340.461 56.5799L341.614 55.4257C343.489 53.5326 346.552 53.5229 348.441 55.408L349.612 56.5831C350.068 57.0387 350.674 57.2899 351.317 57.2899H352.966C355.628 57.2899 357.795 59.4647 357.795 62.1386V63.7918C357.796 64.4374 358.046 65.0475 358.5 65.5063L359.652 66.6621C360.564 67.5733 361.069 68.7871 361.074 70.0829C361.077 71.3708 360.584 72.583 359.684 73.4989C359.668 73.515 359.653 73.5328 359.637 73.5472L358.499 74.6902C358.046 75.1458 357.796 75.7559 357.795 76.403V78.0563C357.795 80.7286 355.628 82.9034 352.966 82.9034H351.317C350.674 82.905 350.066 83.1561 349.61 83.6117L348.457 84.7676C347.518 85.7173 346.276 86.1938 345.037 86.1938Z" fill="#EEAB00"/>
<path fill-rule="evenodd" clip-rule="evenodd" d="M341.901 66.9614C341.636 67.227 341.293 67.3703 340.913 67.3703C340.557 67.3703 340.207 67.2238 339.927 66.9598C339.66 66.6942 339.51 66.3304 339.51 65.9617C339.51 65.6108 339.657 65.2502 339.917 64.9717C340.06 64.8268 340.23 64.7174 340.4 64.6594C340.884 64.4373 341.527 64.5677 341.909 64.9701C342.045 65.1069 342.149 65.2566 342.218 65.4128C342.294 65.5802 342.332 65.7702 342.332 65.9617C342.332 66.3449 342.18 66.7006 341.901 66.9614ZM350.158 64.9635C349.611 64.4161 348.721 64.4161 348.174 64.9635L339.931 73.2378C339.384 73.7868 339.384 74.6802 339.931 75.2308C340.197 75.4964 340.548 75.6429 340.923 75.6429C341.299 75.6429 341.65 75.4964 341.914 75.2308L350.158 66.9564C350.705 66.4058 350.705 65.514 350.158 64.9635ZM349.7 72.9382C349.18 72.7192 348.565 72.8384 348.154 73.2505C348.069 73.3503 347.949 73.5048 347.867 73.6867C347.78 73.8831 347.769 74.094 347.769 74.2357C347.769 74.3773 347.78 74.5866 347.867 74.783C347.947 74.9633 348.043 75.1098 348.17 75.237C348.46 75.5074 348.797 75.6442 349.172 75.6442C349.528 75.6442 349.878 75.4994 350.165 75.2305C350.42 74.9746 350.56 74.6204 350.56 74.2357C350.56 73.8493 350.42 73.4968 350.163 73.2392C350.022 73.0991 349.852 72.9897 349.7 72.9382Z" fill="white"/>
<path d="M386 70C386 92.632 367.632 111 345 111C322.368 111 308.551 88.204 308.551 88.204M308.551 88.204H327.083M308.551 88.204V108.704M304 70C304 47.368 322.204 29 345 29C372.347 29 386 51.796 386 51.796M386 51.796V31.296M386 51.796H367.796" stroke="#38386C" stroke-width="2" stroke-linecap="round" stroke-linejoin="round"/>
<defs>
<filter id="filter0_d_6473_30327" x="0" y="40" width="414" height="212" filterUnits="userSpaceOnUse" color-interpolation-filters="sRGB">
<feFlood flood-opacity="0" result="BackgroundImageFix"/>
<feColorMatrix in="SourceAlpha" type="matrix" values="0 0 0 0 0 0 0 0 0 0 0 0 0 0 0 0 0 0 127 0" result="hardAlpha"/>
<feOffset dy="4"/>
<feGaussianBlur stdDeviation="6"/>
<feComposite in2="hardAlpha" operator="out"/>
<feColorMatrix type="matrix" values="0 0 0 0 0.219608 0 0 0 0 0.219608 0 0 0 0 0.423529 0 0 0 0.12 0"/>
<feBlend mode="normal" in2="BackgroundImageFix" result="effect1_dropShadow_6473_30327"/>
<feBlend mode="normal" in="SourceGraphic" in2="effect1_dropShadow_6473_30327" result="shape"/>
</filter>
<filter id="filter1_d_6473_30327" x="271" y="0" width="148" height="148" filterUnits="userSpaceOnUse" color-interpolation-filters="sRGB">
<feFlood flood-opacity="0" result="BackgroundImageFix"/>
<feColorMatrix in="SourceAlpha" type="matrix" values="0 0 0 0 0 0 0 0 0 0 0 0 0 0 0 0 0 0 127 0" result="hardAlpha"/>
<feOffset dy="4"/>
<feGaussianBlur stdDeviation="6"/>
<feComposite in2="hardAlpha" operator="out"/>
<feColorMatrix type="matrix" values="0 0 0 0 0.219608 0 0 0 0 0.219608 0 0 0 0 0.423529 0 0 0 0.12 0"/>
<feBlend mode="normal" in2="BackgroundImageFix" result="effect1_dropShadow_6473_30327"/>
<feBlend mode="normal" in="SourceGraphic" in2="effect1_dropShadow_6473_30327" result="shape"/>
</filter>
</defs>
</svg>
