<svg width="214" height="216" viewBox="0 0 214 216" fill="none" xmlns="http://www.w3.org/2000/svg">
<g filter="url(#filter0_d_1272_13022)">
<rect x="24" y="18" width="148" height="168" rx="11" fill="white"/>
</g>
<path d="M40.8807 90H43.5085C45.2273 90 45.9375 89.1619 45.9375 88.0682C45.9375 86.9176 45.142 86.2926 44.4744 86.25V86.179C45.0994 86.0085 45.6534 85.5966 45.6534 84.6591C45.6534 83.5938 44.9432 82.7273 43.4233 82.7273H40.8807V90ZM41.7614 89.2188V86.6903H43.5511C44.5028 86.6903 45.0994 87.3295 45.0994 88.0682C45.0994 88.7074 44.6591 89.2188 43.5085 89.2188H41.7614ZM41.7614 85.9233V83.5085H43.4233C44.3892 83.5085 44.8153 84.0199 44.8153 84.6591C44.8153 85.4261 44.1903 85.9233 43.3949 85.9233H41.7614ZM48.8761 90.1278C49.8278 90.1278 50.3249 89.6165 50.4954 89.2614H50.538V90H51.3761V86.4062C51.3761 84.6733 50.055 84.4744 49.359 84.4744C48.5352 84.4744 47.5977 84.7585 47.1715 85.7528L47.967 86.0369C48.1516 85.6392 48.5884 85.2131 49.3874 85.2131C50.158 85.2131 50.538 85.6214 50.538 86.321V86.3494C50.538 86.7543 50.1261 86.7188 49.1317 86.8466C48.1197 86.978 47.0153 87.2017 47.0153 88.4517C47.0153 89.517 47.8391 90.1278 48.8761 90.1278ZM49.0039 89.375C48.3363 89.375 47.8533 89.0767 47.8533 88.4943C47.8533 87.8551 48.4357 87.6562 49.0891 87.571C49.4442 87.5284 50.396 87.429 50.538 87.2585V88.0256C50.538 88.7074 49.9982 89.375 49.0039 89.375ZM53.7438 86.7188C53.7438 85.767 54.3333 85.2273 55.1358 85.2273C55.9135 85.2273 56.3858 85.7351 56.3858 86.5909V90H57.2239V86.5341C57.2239 85.142 56.4817 84.4744 55.3773 84.4744C54.5534 84.4744 54.0421 84.8438 53.7864 85.3977H53.7154V84.5455H52.9057V90H53.7438V86.7188ZM59.5934 86.7188C59.5934 85.767 60.1829 85.2273 60.9854 85.2273C61.7631 85.2273 62.2354 85.7351 62.2354 86.5909V90H63.0735V86.5341C63.0735 85.142 62.3313 84.4744 61.2269 84.4744C60.4031 84.4744 59.8917 84.8438 59.636 85.3977H59.565V84.5455H58.7553V90H59.5934V86.7188ZM66.8919 90.1136C67.9998 90.1136 68.8095 89.5597 69.0652 88.7358L68.2555 88.5085C68.0424 89.0767 67.5488 89.3608 66.8919 89.3608C65.9082 89.3608 65.2299 88.7251 65.1909 87.5568H69.1504V87.2017C69.1504 85.1705 67.943 84.4744 66.8066 84.4744C65.3294 84.4744 64.3493 85.6392 64.3493 87.3153C64.3493 88.9915 65.3152 90.1136 66.8919 90.1136ZM65.1909 86.8324C65.2477 85.9837 65.8478 85.2273 66.8066 85.2273C67.7157 85.2273 68.2981 85.9091 68.2981 86.8324H65.1909ZM70.4252 90H71.2633V86.5483C71.2633 85.8097 71.8457 85.2699 72.6412 85.2699C72.8649 85.2699 73.0957 85.3125 73.1525 85.3267V84.4744C73.0566 84.4673 72.8365 84.4602 72.7122 84.4602C72.0588 84.4602 71.4906 84.8295 71.2917 85.3693H71.2349V84.5455H70.4252V90ZM79.1744 90.1136C80.3817 90.1136 81.1772 89.375 81.3192 88.4091H80.4812C80.3249 89.0057 79.8278 89.3608 79.1744 89.3608C78.18 89.3608 77.5408 88.5369 77.5408 87.2727C77.5408 86.0369 78.1942 85.2273 79.1744 85.2273C79.913 85.2273 80.3533 85.6818 80.4812 86.179H81.3192C81.1772 85.1562 80.3107 84.4744 79.1602 84.4744C77.6829 84.4744 76.7028 85.6392 76.7028 87.3011C76.7028 88.9347 77.6403 90.1136 79.1744 90.1136ZM84.7603 90.1136C86.2376 90.1136 87.2319 88.9915 87.2319 87.3011C87.2319 85.5966 86.2376 84.4744 84.7603 84.4744C83.283 84.4744 82.2887 85.5966 82.2887 87.3011C82.2887 88.9915 83.283 90.1136 84.7603 90.1136ZM84.7603 89.3608C83.6381 89.3608 83.1268 88.3949 83.1268 87.3011C83.1268 86.2074 83.6381 85.2273 84.7603 85.2273C85.8825 85.2273 86.3938 86.2074 86.3938 87.3011C86.3938 88.3949 85.8825 89.3608 84.7603 89.3608ZM89.3493 82.7273H88.5112V90H89.3493V82.7273ZM93.1001 90.1136C94.5774 90.1136 95.5717 88.9915 95.5717 87.3011C95.5717 85.5966 94.5774 84.4744 93.1001 84.4744C91.6229 84.4744 90.6286 85.5966 90.6286 87.3011C90.6286 88.9915 91.6229 90.1136 93.1001 90.1136ZM93.1001 89.3608C91.978 89.3608 91.4666 88.3949 91.4666 87.3011C91.4666 86.2074 91.978 85.2273 93.1001 85.2273C94.2223 85.2273 94.7337 86.2074 94.7337 87.3011C94.7337 88.3949 94.2223 89.3608 93.1001 89.3608ZM96.851 90H97.6891V86.5483C97.6891 85.8097 98.2715 85.2699 99.0669 85.2699C99.2907 85.2699 99.5215 85.3125 99.5783 85.3267V84.4744C99.4824 84.4673 99.2623 84.4602 99.138 84.4602C98.4846 84.4602 97.9164 84.8295 97.7175 85.3693H97.6607V84.5455H96.851V90Z" fill="black"/>
<path d="M40.8807 139H43.5085C45.2273 139 45.9375 138.162 45.9375 137.068C45.9375 135.918 45.142 135.293 44.4744 135.25V135.179C45.0994 135.009 45.6534 134.597 45.6534 133.659C45.6534 132.594 44.9432 131.727 43.4233 131.727H40.8807V139ZM41.7614 138.219V135.69H43.5511C44.5028 135.69 45.0994 136.33 45.0994 137.068C45.0994 137.707 44.6591 138.219 43.5085 138.219H41.7614ZM41.7614 134.923V132.509H43.4233C44.3892 132.509 44.8153 133.02 44.8153 133.659C44.8153 134.426 44.1903 134.923 43.3949 134.923H41.7614ZM48.8761 139.128C49.8278 139.128 50.3249 138.616 50.4954 138.261H50.538V139H51.3761V135.406C51.3761 133.673 50.055 133.474 49.359 133.474C48.5352 133.474 47.5977 133.759 47.1715 134.753L47.967 135.037C48.1516 134.639 48.5884 134.213 49.3874 134.213C50.158 134.213 50.538 134.621 50.538 135.321V135.349C50.538 135.754 50.1261 135.719 49.1317 135.847C48.1197 135.978 47.0153 136.202 47.0153 137.452C47.0153 138.517 47.8391 139.128 48.8761 139.128ZM49.0039 138.375C48.3363 138.375 47.8533 138.077 47.8533 137.494C47.8533 136.855 48.4357 136.656 49.0891 136.571C49.4442 136.528 50.396 136.429 50.538 136.259V137.026C50.538 137.707 49.9982 138.375 49.0039 138.375ZM53.7438 135.719C53.7438 134.767 54.3333 134.227 55.1358 134.227C55.9135 134.227 56.3858 134.735 56.3858 135.591V139H57.2239V135.534C57.2239 134.142 56.4817 133.474 55.3773 133.474C54.5534 133.474 54.0421 133.844 53.7864 134.398H53.7154V133.545H52.9057V139H53.7438V135.719ZM59.5934 135.719C59.5934 134.767 60.1829 134.227 60.9854 134.227C61.7631 134.227 62.2354 134.735 62.2354 135.591V139H63.0735V135.534C63.0735 134.142 62.3313 133.474 61.2269 133.474C60.4031 133.474 59.8917 133.844 59.636 134.398H59.565V133.545H58.7553V139H59.5934V135.719ZM66.8919 139.114C67.9998 139.114 68.8095 138.56 69.0652 137.736L68.2555 137.509C68.0424 138.077 67.5488 138.361 66.8919 138.361C65.9082 138.361 65.2299 137.725 65.1909 136.557H69.1504V136.202C69.1504 134.17 67.943 133.474 66.8066 133.474C65.3294 133.474 64.3493 134.639 64.3493 136.315C64.3493 137.991 65.3152 139.114 66.8919 139.114ZM65.1909 135.832C65.2477 134.984 65.8478 134.227 66.8066 134.227C67.7157 134.227 68.2981 134.909 68.2981 135.832H65.1909ZM70.4252 139H71.2633V135.548C71.2633 134.81 71.8457 134.27 72.6412 134.27C72.8649 134.27 73.0957 134.312 73.1525 134.327V133.474C73.0566 133.467 72.8365 133.46 72.7122 133.46C72.0588 133.46 71.4906 133.83 71.2917 134.369H71.2349V133.545H70.4252V139ZM76.9585 141.045H77.7965V138.162H77.8675C78.0522 138.46 78.4073 139.114 79.4585 139.114C80.8221 139.114 81.7738 138.02 81.7738 136.287C81.7738 134.568 80.8221 133.474 79.4442 133.474C78.3789 133.474 78.0522 134.128 77.8675 134.412H77.7681V133.545H76.9585V141.045ZM77.7823 136.273C77.7823 135.051 78.3221 134.227 79.3448 134.227C80.4102 134.227 80.9357 135.122 80.9357 136.273C80.9357 137.438 80.396 138.361 79.3448 138.361C78.3363 138.361 77.7823 137.509 77.7823 136.273ZM83.8903 131.727H83.0522V139H83.8903V131.727ZM87.0304 139.128C87.9821 139.128 88.4792 138.616 88.6497 138.261H88.6923V139H89.5304V135.406C89.5304 133.673 88.2093 133.474 87.5133 133.474C86.6895 133.474 85.752 133.759 85.3258 134.753L86.1213 135.037C86.3059 134.639 86.7427 134.213 87.5417 134.213C88.3123 134.213 88.6923 134.621 88.6923 135.321V135.349C88.6923 135.754 88.2804 135.719 87.286 135.847C86.274 135.978 85.1696 136.202 85.1696 137.452C85.1696 138.517 85.9934 139.128 87.0304 139.128ZM87.1582 138.375C86.4906 138.375 86.0076 138.077 86.0076 137.494C86.0076 136.855 86.59 136.656 87.2434 136.571C87.5985 136.528 88.5502 136.429 88.6923 136.259V137.026C88.6923 137.707 88.1525 138.375 87.1582 138.375ZM93.2759 139.114C94.4833 139.114 95.2788 138.375 95.4208 137.409H94.5827C94.4265 138.006 93.9293 138.361 93.2759 138.361C92.2816 138.361 91.6424 137.537 91.6424 136.273C91.6424 135.037 92.2958 134.227 93.2759 134.227C94.0146 134.227 94.4549 134.682 94.5827 135.179H95.4208C95.2788 134.156 94.4123 133.474 93.2617 133.474C91.7844 133.474 90.8043 134.639 90.8043 136.301C90.8043 137.935 91.7418 139.114 93.2759 139.114ZM98.9329 139.114C100.041 139.114 100.85 138.56 101.106 137.736L100.297 137.509C100.083 138.077 99.5898 138.361 98.9329 138.361C97.9492 138.361 97.271 137.725 97.2319 136.557H101.191V136.202C101.191 134.17 99.984 133.474 98.8477 133.474C97.3704 133.474 96.3903 134.639 96.3903 136.315C96.3903 137.991 97.3562 139.114 98.9329 139.114ZM97.2319 135.832C97.2887 134.984 97.8888 134.227 98.8477 134.227C99.7567 134.227 100.339 134.909 100.339 135.832H97.2319ZM102.466 139H103.304V135.591C103.304 134.792 103.887 134.227 104.54 134.227C105.176 134.227 105.62 134.643 105.62 135.264V139H106.472V135.449C106.472 134.746 106.912 134.227 107.679 134.227C108.276 134.227 108.787 134.543 108.787 135.349V139H109.625V135.349C109.625 134.067 108.936 133.474 107.963 133.474C107.182 133.474 106.61 133.833 106.33 134.398H106.273C106.003 133.815 105.527 133.474 104.81 133.474C104.1 133.474 103.574 133.815 103.347 134.398H103.276V133.545H102.466V139ZM113.445 139.114C114.553 139.114 115.362 138.56 115.618 137.736L114.808 137.509C114.595 138.077 114.102 138.361 113.445 138.361C112.461 138.361 111.783 137.725 111.744 136.557H115.703V136.202C115.703 134.17 114.496 133.474 113.359 133.474C111.882 133.474 110.902 134.639 110.902 136.315C110.902 137.991 111.868 139.114 113.445 139.114ZM111.744 135.832C111.8 134.984 112.401 134.227 113.359 134.227C114.268 134.227 114.851 134.909 114.851 135.832H111.744ZM117.816 135.719C117.816 134.767 118.406 134.227 119.208 134.227C119.986 134.227 120.458 134.735 120.458 135.591V139H121.296V135.534C121.296 134.142 120.554 133.474 119.45 133.474C118.626 133.474 118.114 133.844 117.859 134.398H117.788V133.545H116.978V139H117.816V135.719ZM125.2 133.545H124.035V132.239H123.197V133.545H122.373V134.256H123.197V137.665C123.197 138.616 123.964 139.071 124.674 139.071C124.987 139.071 125.186 139.014 125.299 138.972L125.129 138.219C125.058 138.233 124.944 138.261 124.759 138.261C124.39 138.261 124.035 138.148 124.035 137.438V134.256H125.2V133.545Z" fill="black"/>
<rect x="40.5" y="95.5" width="93" height="19" rx="3.5" stroke="#DAE3ED"/>
<path d="M40 99C40 96.7909 41.7909 95 44 95H60V115H44C41.7909 115 40 113.209 40 111V99Z" fill="#29920D"/>
<path d="M68.4801 109H69.1903L69.5206 106.983H70.5966L70.7102 106.273H69.6378L69.9361 104.455H71.0227L71.1364 103.744H70.0533L70.3835 101.727H69.6733L69.343 103.744H67.4964L67.8267 101.727H67.1165L66.7862 103.744H65.7102L65.5966 104.455H66.669L66.3707 106.273H65.2841L65.1705 106.983H66.2536L65.9233 109H66.6335L66.9638 106.983H68.8104L68.4801 109ZM67.081 106.273L67.3793 104.455H69.2259L68.9276 106.273H67.081ZM72.0614 109H76.6495V108.219H73.2688V108.162L74.9023 106.415C76.1523 105.076 76.5217 104.451 76.5217 103.645C76.5217 102.523 75.6126 101.628 74.3342 101.628C73.0593 101.628 72.0898 102.494 72.0898 103.773H72.9279C72.9279 102.945 73.4641 102.395 74.3058 102.395C75.0941 102.395 75.6978 102.878 75.6978 103.645C75.6978 104.316 75.3036 104.813 74.462 105.733L72.0614 108.361V109ZM80.4315 101.628C78.9542 101.61 78.0025 102.722 78.0025 104.057C78.0025 105.463 79.0394 106.472 80.2894 106.472C81.0423 106.472 81.6815 106.102 82.0792 105.506H82.136C82.136 107.295 81.44 108.318 80.3178 108.318C79.5508 108.318 79.082 107.835 78.9258 107.168H78.0593C78.2298 108.318 79.0962 109.099 80.3178 109.099C81.9513 109.099 82.9599 107.651 82.9599 105.065C82.9599 102.395 81.6246 101.642 80.4315 101.628ZM80.4315 102.409C81.3406 102.409 82.0082 103.19 82.0082 104.043C82.0082 104.909 81.2979 105.69 80.4031 105.69C79.5082 105.69 78.8548 104.966 78.8548 104.057C78.8548 103.148 79.5366 102.409 80.4315 102.409ZM86.6717 101.628C85.1944 101.61 84.2427 102.722 84.2427 104.057C84.2427 105.463 85.2797 106.472 86.5297 106.472C87.2825 106.472 87.9217 106.102 88.3194 105.506H88.3762C88.3762 107.295 87.6802 108.318 86.5581 108.318C85.791 108.318 85.3223 107.835 85.166 107.168H84.2995C84.47 108.318 85.3365 109.099 86.5581 109.099C88.1916 109.099 89.2001 107.651 89.2001 105.065C89.2001 102.395 87.8649 101.642 86.6717 101.628ZM86.6717 102.409C87.5808 102.409 88.2484 103.19 88.2484 104.043C88.2484 104.909 87.5382 105.69 86.6433 105.69C85.7484 105.69 85.095 104.966 85.095 104.057C85.095 103.148 85.7768 102.409 86.6717 102.409ZM90.5966 109H95.1847V108.219H91.804V108.162L93.4375 106.415C94.6875 105.076 95.0568 104.451 95.0568 103.645C95.0568 102.523 94.1477 101.628 92.8693 101.628C91.5945 101.628 90.625 102.494 90.625 103.773H91.4631C91.4631 102.945 91.9993 102.395 92.8409 102.395C93.6293 102.395 94.233 102.878 94.233 103.645C94.233 104.316 93.8388 104.813 92.9972 105.733L90.5966 108.361V109ZM99.0234 109.099C100.629 109.099 101.552 107.739 101.552 105.364C101.552 103.006 100.614 101.628 99.0234 101.628C97.4325 101.628 96.495 103.006 96.495 105.364C96.495 107.739 97.4183 109.099 99.0234 109.099ZM99.0234 108.318C97.9652 108.318 97.3473 107.256 97.3473 105.364C97.3473 103.474 97.9723 102.395 99.0234 102.395C100.075 102.395 100.7 103.474 100.7 105.364C100.7 107.256 100.082 108.318 99.0234 108.318ZM105.273 109C107.489 109 108.739 107.622 108.739 105.349C108.739 103.091 107.489 101.727 105.373 101.727H103.029V109H105.273ZM103.91 108.219V102.509H105.316C107.021 102.509 107.887 103.588 107.887 105.349C107.887 107.125 107.021 108.219 105.217 108.219H103.91Z" fill="black"/>
<path d="M40 150C40 147.791 41.7909 146 44 146H70C72.2091 146 74 147.791 74 150V162C74 164.209 72.2091 166 70 166H44C41.7909 166 40 164.209 40 162V150Z" fill="black" fill-opacity="0.92"/>
<path d="M48.483 153.509H50.7699V160H51.6506V153.509H53.9375V152.727H48.483V153.509ZM56.608 160.114C58.0852 160.114 59.0795 158.991 59.0795 157.301C59.0795 155.597 58.0852 154.474 56.608 154.474C55.1307 154.474 54.1364 155.597 54.1364 157.301C54.1364 158.991 55.1307 160.114 56.608 160.114ZM56.608 159.361C55.4858 159.361 54.9744 158.395 54.9744 157.301C54.9744 156.207 55.4858 155.227 56.608 155.227C57.7301 155.227 58.2415 156.207 58.2415 157.301C58.2415 158.395 57.7301 159.361 56.608 159.361ZM60.3588 162.045H61.1969V159.162H61.2679C61.4526 159.46 61.8077 160.114 62.8588 160.114C64.2225 160.114 65.1742 159.02 65.1742 157.287C65.1742 155.568 64.2225 154.474 62.8446 154.474C61.7793 154.474 61.4526 155.128 61.2679 155.412H61.1685V154.545H60.3588V162.045ZM61.1827 157.273C61.1827 156.051 61.7225 155.227 62.7452 155.227C63.8105 155.227 64.3361 156.122 64.3361 157.273C64.3361 158.438 63.7963 159.361 62.7452 159.361C61.7367 159.361 61.1827 158.509 61.1827 157.273Z" fill="white"/>
<path d="M91.8807 160H94.5085C96.2273 160 96.9375 159.162 96.9375 158.068C96.9375 156.918 96.142 156.293 95.4744 156.25V156.179C96.0994 156.009 96.6534 155.597 96.6534 154.659C96.6534 153.594 95.9432 152.727 94.4233 152.727H91.8807V160ZM92.7614 159.219V156.69H94.5511C95.5028 156.69 96.0994 157.33 96.0994 158.068C96.0994 158.707 95.6591 159.219 94.5085 159.219H92.7614ZM92.7614 155.923V153.509H94.4233C95.3892 153.509 95.8153 154.02 95.8153 154.659C95.8153 155.426 95.1903 155.923 94.3949 155.923H92.7614ZM100.487 160.114C101.964 160.114 102.958 158.991 102.958 157.301C102.958 155.597 101.964 154.474 100.487 154.474C99.0096 154.474 98.0153 155.597 98.0153 157.301C98.0153 158.991 99.0096 160.114 100.487 160.114ZM100.487 159.361C99.3647 159.361 98.8533 158.395 98.8533 157.301C98.8533 156.207 99.3647 155.227 100.487 155.227C101.609 155.227 102.12 156.207 102.12 157.301C102.12 158.395 101.609 159.361 100.487 159.361ZM106.61 154.545H105.445V153.239H104.607V154.545H103.783V155.256H104.607V158.665C104.607 159.616 105.374 160.071 106.084 160.071C106.397 160.071 106.596 160.014 106.709 159.972L106.539 159.219C106.468 159.233 106.354 159.261 106.17 159.261C105.8 159.261 105.445 159.148 105.445 158.438V155.256H106.61V154.545ZM110.243 154.545H109.078V153.239H108.24V154.545H107.416V155.256H108.24V158.665C108.24 159.616 109.007 160.071 109.717 160.071C110.03 160.071 110.229 160.014 110.342 159.972L110.172 159.219C110.101 159.233 109.987 159.261 109.802 159.261C109.433 159.261 109.078 159.148 109.078 158.438V155.256H110.243V154.545ZM113.661 160.114C115.138 160.114 116.132 158.991 116.132 157.301C116.132 155.597 115.138 154.474 113.661 154.474C112.183 154.474 111.189 155.597 111.189 157.301C111.189 158.991 112.183 160.114 113.661 160.114ZM113.661 159.361C112.539 159.361 112.027 158.395 112.027 157.301C112.027 156.207 112.539 155.227 113.661 155.227C114.783 155.227 115.294 156.207 115.294 157.301C115.294 158.395 114.783 159.361 113.661 159.361ZM117.412 160H118.25V156.591C118.25 155.792 118.832 155.227 119.485 155.227C120.121 155.227 120.565 155.643 120.565 156.264V160H121.417V156.449C121.417 155.746 121.858 155.227 122.625 155.227C123.221 155.227 123.733 155.543 123.733 156.349V160H124.571V156.349C124.571 155.067 123.882 154.474 122.909 154.474C122.127 154.474 121.556 154.833 121.275 155.398H121.218C120.949 154.815 120.473 154.474 119.755 154.474C119.045 154.474 118.52 154.815 118.292 155.398H118.221V154.545H117.412V160Z" fill="#171923"/>
<path d="M87 147H130V145H87V147ZM133 150V162H135V150H133ZM130 165H87V167H130V165ZM84 162V150H82V162H84ZM87 165C85.3431 165 84 163.657 84 162H82C82 164.761 84.2386 167 87 167V165ZM133 162C133 163.657 131.657 165 130 165V167C132.761 167 135 164.761 135 162H133ZM130 147C131.657 147 133 148.343 133 150H135C135 147.239 132.761 145 130 145V147ZM87 145C84.2386 145 82 147.239 82 150H84C84 148.343 85.3431 147 87 147V145Z" fill="black" fill-opacity="0.92"/>
<g filter="url(#filter1_d_1272_13022)">
<rect x="54" y="26" width="148" height="37" rx="6" fill="white"/>
</g>
<path d="M182 57C181.077 57 180.155 56.6496 179.451 55.9499L178.575 55.0739C178.235 54.7354 177.78 54.5482 177.298 54.547H176.066C174.073 54.547 172.452 52.9257 172.452 50.9336V49.6999C172.451 49.2187 172.264 48.7638 171.924 48.4218L171.062 47.5614C169.651 46.1585 169.645 43.8651 171.049 42.4526L171.925 41.5753C172.264 41.2357 172.451 40.7809 172.452 40.2985V39.0672C172.452 37.0738 174.073 35.4525 176.066 35.4525H177.299C177.78 35.4525 178.234 35.2653 178.576 34.9233L179.439 34.0628C180.842 32.6515 183.134 32.6443 184.548 34.0496L185.424 34.9257C185.765 35.2653 186.218 35.4525 186.699 35.4525H187.933C189.925 35.4525 191.547 37.0738 191.547 39.0672V40.2997C191.548 40.7809 191.735 41.2357 192.075 41.5777L192.936 42.4394C193.619 43.1187 193.997 44.0235 194.001 44.9896C194.003 45.9496 193.634 46.8533 192.96 47.5362C192.948 47.5482 192.937 47.5614 192.925 47.5722L192.073 48.4242C191.735 48.7638 191.548 49.2187 191.547 49.7011V50.9336C191.547 52.9257 189.925 54.547 187.933 54.547H186.699C186.218 54.5482 185.763 54.7354 185.423 55.0751L184.56 55.9367C183.856 56.6448 182.928 57 182 57Z" fill="#EEAB00"/>
<path fill-rule="evenodd" clip-rule="evenodd" d="M179.654 42.6621C179.456 42.8601 179.199 42.9669 178.914 42.9669C178.648 42.9669 178.386 42.8577 178.176 42.6609C177.977 42.4629 177.864 42.1917 177.864 41.9168C177.864 41.6552 177.975 41.3864 178.169 41.1788C178.276 41.0708 178.403 40.9892 178.53 40.946C178.893 40.7804 179.374 40.8776 179.66 41.1776C179.762 41.2796 179.84 41.3912 179.891 41.5076C179.948 41.6324 179.976 41.774 179.976 41.9168C179.976 42.2025 179.862 42.4677 179.654 42.6621ZM185.832 41.1729C185.423 40.7649 184.757 40.7649 184.347 41.1729L178.179 47.3414C177.77 47.7506 177.77 48.4166 178.179 48.8271C178.378 49.0251 178.641 49.1343 178.922 49.1343C179.203 49.1343 179.465 49.0251 179.664 48.8271L185.832 42.6586C186.241 42.2482 186.241 41.5834 185.832 41.1729ZM185.49 47.1181C185.101 46.9549 184.64 47.0437 184.333 47.3509C184.269 47.4253 184.179 47.5406 184.118 47.6762C184.053 47.8226 184.045 47.9798 184.045 48.0854C184.045 48.191 184.053 48.347 184.118 48.4934C184.178 48.6278 184.25 48.737 184.345 48.8318C184.562 49.0335 184.814 49.1355 185.095 49.1355C185.361 49.1355 185.623 49.0275 185.838 48.827C186.029 48.6362 186.133 48.3722 186.133 48.0854C186.133 47.7974 186.029 47.5346 185.837 47.3425C185.731 47.2381 185.604 47.1565 185.49 47.1181Z" fill="white"/>
<rect x="64" y="36" width="90" height="4" rx="2" fill="#E5F0E2"/>
<rect x="64" y="46" width="70" height="4" rx="2" fill="#E5F0E2"/>
<defs>
<filter id="filter0_d_1272_13022" x="0" y="0" width="196" height="216" filterUnits="userSpaceOnUse" color-interpolation-filters="sRGB">
<feFlood flood-opacity="0" result="BackgroundImageFix"/>
<feColorMatrix in="SourceAlpha" type="matrix" values="0 0 0 0 0 0 0 0 0 0 0 0 0 0 0 0 0 0 127 0" result="hardAlpha"/>
<feOffset dy="6"/>
<feGaussianBlur stdDeviation="12"/>
<feComposite in2="hardAlpha" operator="out"/>
<feColorMatrix type="matrix" values="0 0 0 0 0 0 0 0 0 0 0 0 0 0 0 0 0 0 0.1 0"/>
<feBlend mode="normal" in2="BackgroundImageFix" result="effect1_dropShadow_1272_13022"/>
<feBlend mode="normal" in="SourceGraphic" in2="effect1_dropShadow_1272_13022" result="shape"/>
</filter>
<filter id="filter1_d_1272_13022" x="42" y="22" width="172" height="61" filterUnits="userSpaceOnUse" color-interpolation-filters="sRGB">
<feFlood flood-opacity="0" result="BackgroundImageFix"/>
<feColorMatrix in="SourceAlpha" type="matrix" values="0 0 0 0 0 0 0 0 0 0 0 0 0 0 0 0 0 0 127 0" result="hardAlpha"/>
<feOffset dy="8"/>
<feGaussianBlur stdDeviation="6"/>
<feComposite in2="hardAlpha" operator="out"/>
<feColorMatrix type="matrix" values="0 0 0 0 0.0416667 0 0 0 0 0.0416667 0 0 0 0 0.0416667 0 0 0 0.12 0"/>
<feBlend mode="normal" in2="BackgroundImageFix" result="effect1_dropShadow_1272_13022"/>
<feBlend mode="normal" in="SourceGraphic" in2="effect1_dropShadow_1272_13022" result="shape"/>
</filter>
</defs>
</svg>
