<svg width="403" height="190" viewBox="0 0 403 190" fill="none" xmlns="http://www.w3.org/2000/svg">
<path d="M112.147 8C112.147 8 133.317 44.6048 133.317 96.6411C133.317 146.212 112.147 186 112.147 186L17.4049 186C17.4049 186 0.845535 132.128 0.896851 96.6411C0.947769 61.4295 17.4049 8 17.4049 8L112.147 8Z" fill="#C28989"/>
<g filter="url(#filter0_i_2534_14409)">
<path d="M112.144 8C112.144 8 85.5871 34.8486 85.5871 96.6411C85.5871 164.109 112.144 186 112.144 186L17.4016 186C17.4016 186 0.789238 168.774 0.893547 96.6411C0.997864 24.5081 17.4016 8 17.4016 8L112.144 8Z" fill="#F0E2E2"/>
</g>
<path d="M179.312 32.5195C179.312 32.5195 194.678 59.0876 194.678 96.8558C194.678 132.835 179.312 161.713 179.312 161.713L110.548 161.713C110.548 161.713 98.5288 122.613 98.5661 96.8558C98.603 71.299 110.548 32.5195 110.548 32.5195L179.312 32.5195Z" fill="#C28989"/>
<g filter="url(#filter1_i_2534_14409)">
<path d="M179.31 32.5186C179.31 32.5186 160.035 52.0054 160.035 96.8549C160.035 145.823 179.31 161.712 179.31 161.712H110.545C110.545 161.712 98.4879 149.209 98.5636 96.8549C98.6393 44.5002 110.545 32.5186 110.545 32.5186L179.31 32.5186Z" fill="#F0E2E2"/>
</g>
<path d="M224.67 53.876C224.67 53.876 235.018 71.7681 235.018 97.203C235.018 121.433 224.67 140.881 224.67 140.881H178.361C178.361 140.881 170.266 114.549 170.292 97.203C170.316 79.9919 178.361 53.876 178.361 53.876L224.67 53.876Z" fill="#C28989"/>
<g filter="url(#filter2_i_2534_14409)">
<path d="M224.668 53.875C224.668 53.875 211.687 66.9984 211.687 97.2021C211.687 130.18 224.668 140.88 224.668 140.88H178.359C178.359 140.88 170.239 132.46 170.29 97.2021C170.341 61.944 178.359 53.875 178.359 53.875L224.668 53.875Z" fill="#F0E2E2"/>
</g>
<path d="M259.129 65.7393C259.129 65.7393 266.655 78.7518 266.655 97.25C266.655 114.872 259.129 129.016 259.129 129.016H225.45C225.45 129.016 219.563 109.865 219.582 97.25C219.6 84.7327 225.45 65.7393 225.45 65.7393L259.129 65.7393Z" fill="#C28989"/>
<g filter="url(#filter3_i_2534_14409)">
<path d="M259.129 65.7393C259.129 65.7393 249.688 75.2836 249.688 97.25C249.688 121.234 259.129 129.016 259.129 129.016H225.449C225.449 129.016 219.544 122.892 219.581 97.25C219.618 71.6077 225.449 65.7393 225.449 65.7393H259.129Z" fill="#F0E2E2"/>
</g>
<path d="M277.921 81.5586C277.921 81.5586 281.684 88.0649 281.684 97.314C281.684 106.125 277.921 113.197 277.921 113.197H261.081C261.081 113.197 258.138 103.622 258.147 97.314C258.156 91.0553 261.081 81.5586 261.081 81.5586H277.921Z" fill="#C28989"/>
<g filter="url(#filter4_d_2534_14409)">
<rect x="278.52" y="83.8867" width="29.6135" height="29.6135" rx="14.8067" fill="#B38100"/>
</g>
<g filter="url(#filter5_d_2534_14409)">
<rect x="280.544" y="83.3799" width="29.6135" height="29.6135" rx="14.8067" fill="#EEAB00"/>
</g>
<path fill-rule="evenodd" clip-rule="evenodd" d="M295.641 90.1689C296.061 90.1689 296.4 90.5089 296.4 90.9283V105.832C296.4 106.251 296.061 106.591 295.641 106.591C295.222 106.591 294.882 106.251 294.882 105.832V90.9283C294.882 90.5089 295.222 90.1689 295.641 90.1689Z" fill="white"/>
<path fill-rule="evenodd" clip-rule="evenodd" d="M290.817 96.0092C290.817 94.2804 292.219 92.8789 293.948 92.8789H299.028C299.448 92.8789 299.788 93.2189 299.788 93.6382C299.788 94.0576 299.448 94.3975 299.028 94.3975H293.948C293.058 94.3975 292.336 95.1191 292.336 96.0092C292.336 96.8994 293.058 97.6209 293.948 97.6209H297.335C299.064 97.6209 300.465 99.0224 300.465 100.751C300.465 102.48 299.064 103.882 297.335 103.882H291.577C291.157 103.882 290.817 103.542 290.817 103.122C290.817 102.703 291.157 102.363 291.577 102.363H297.335C298.225 102.363 298.947 101.641 298.947 100.751C298.947 99.8611 298.225 99.1396 297.335 99.1396H293.948C292.219 99.1396 290.817 97.7381 290.817 96.0092Z" fill="white"/>
<g filter="url(#filter6_d_2534_14409)">
<rect x="315.694" y="10.7207" width="66.6303" height="66.6303" rx="33.3151" fill="#B38100"/>
</g>
<g filter="url(#filter7_d_2534_14409)">
<rect x="320.25" y="9.58203" width="66.6303" height="66.6303" rx="33.3151" fill="#EEAB00"/>
</g>
<path fill-rule="evenodd" clip-rule="evenodd" d="M354.219 24.8584C355.163 24.8584 355.928 25.6233 355.928 26.5669V60.0998C355.928 61.0433 355.163 61.8082 354.219 61.8082C353.276 61.8082 352.511 61.0433 352.511 60.0998V26.5669C352.511 25.6233 353.276 24.8584 354.219 24.8584Z" fill="white"/>
<path fill-rule="evenodd" clip-rule="evenodd" d="M343.365 37.9983C343.365 34.1084 346.519 30.9551 350.408 30.9551H361.84C362.784 30.9551 363.549 31.72 363.549 32.6635C363.549 33.6071 362.784 34.372 361.84 34.372H350.408C348.406 34.372 346.782 35.9956 346.782 37.9983C346.782 40.0011 348.406 41.6246 350.408 41.6246H358.03C361.919 41.6246 365.073 44.778 365.073 48.6679C365.073 52.5578 361.919 55.7111 358.03 55.7111H345.074C344.13 55.7111 343.365 54.9462 343.365 54.0027C343.365 53.0591 344.13 52.2942 345.074 52.2942H358.03C360.032 52.2942 361.656 50.6706 361.656 48.6679C361.656 46.6651 360.032 45.0416 358.03 45.0416H350.408C346.519 45.0416 343.365 41.8882 343.365 37.9983Z" fill="white"/>
<g filter="url(#filter8_d_2534_14409)">
<rect x="354.452" y="94.8467" width="37.0168" height="37.0168" rx="18.5084" fill="#B38100"/>
</g>
<g filter="url(#filter9_d_2534_14409)">
<rect x="356.983" y="94.2139" width="37.0168" height="37.0168" rx="18.5084" fill="#EEAB00"/>
</g>
<path fill-rule="evenodd" clip-rule="evenodd" d="M375.854 102.701C376.379 102.701 376.804 103.126 376.804 103.65V122.28C376.804 122.804 376.379 123.229 375.854 123.229C375.33 123.229 374.905 122.804 374.905 122.28V103.65C374.905 103.126 375.33 102.701 375.854 102.701Z" fill="white"/>
<path fill-rule="evenodd" clip-rule="evenodd" d="M369.824 110.001C369.824 107.84 371.576 106.088 373.737 106.088H380.088C380.612 106.088 381.037 106.513 381.037 107.037C381.037 107.561 380.612 107.986 380.088 107.986H373.737C372.624 107.986 371.723 108.888 371.723 110.001C371.723 111.113 372.624 112.015 373.737 112.015H377.971C380.132 112.015 381.884 113.767 381.884 115.928C381.884 118.089 380.132 119.841 377.971 119.841H370.773C370.249 119.841 369.824 119.416 369.824 118.892C369.824 118.368 370.249 117.943 370.773 117.943H377.971C379.084 117.943 379.986 117.041 379.986 115.928C379.986 114.816 379.084 113.914 377.971 113.914H373.737C371.576 113.914 369.824 112.162 369.824 110.001Z" fill="white"/>
<g filter="url(#filter10_d_2534_14409)">
<rect x="309.368" y="136.012" width="44.4202" height="44.4202" rx="22.2101" fill="#B38100"/>
</g>
<g filter="url(#filter11_d_2534_14409)">
<rect x="312.405" y="135.253" width="44.4202" height="44.4202" rx="22.2101" fill="#EEAB00"/>
</g>
<path fill-rule="evenodd" clip-rule="evenodd" d="M335.051 145.438C335.68 145.438 336.19 145.947 336.19 146.576V168.932C336.19 169.561 335.68 170.071 335.051 170.071C334.422 170.071 333.912 169.561 333.912 168.932V146.576C333.912 145.947 334.422 145.438 335.051 145.438Z" fill="white"/>
<path fill-rule="evenodd" clip-rule="evenodd" d="M327.815 154.197C327.815 151.604 329.918 149.502 332.511 149.502H340.132C340.761 149.502 341.271 150.012 341.271 150.641C341.271 151.27 340.761 151.78 340.132 151.78H332.511C331.176 151.78 330.093 152.862 330.093 154.197C330.093 155.533 331.176 156.615 332.511 156.615H337.592C340.185 156.615 342.287 158.717 342.287 161.31C342.287 163.904 340.185 166.006 337.592 166.006H328.954C328.325 166.006 327.815 165.496 327.815 164.867C327.815 164.238 328.325 163.728 328.954 163.728H337.592C338.927 163.728 340.009 162.646 340.009 161.31C340.009 159.975 338.927 158.893 337.592 158.893H332.511C329.918 158.893 327.815 156.791 327.815 154.197Z" fill="white"/>
<g filter="url(#filter12_i_2534_14409)">
<path d="M277.92 81.5586C277.92 81.5586 273.2 86.3307 273.2 97.314C273.2 109.306 277.92 113.197 277.92 113.197H261.08C261.08 113.197 258.127 110.135 258.146 97.314C258.165 84.4928 261.08 81.5586 261.08 81.5586H277.92Z" fill="#F0E2E2"/>
</g>
<defs>
<filter id="filter0_i_2534_14409" x="0.892578" y="6" width="113.251" height="180" filterUnits="userSpaceOnUse" color-interpolation-filters="sRGB">
<feFlood flood-opacity="0" result="BackgroundImageFix"/>
<feBlend mode="normal" in="SourceGraphic" in2="BackgroundImageFix" result="shape"/>
<feColorMatrix in="SourceAlpha" type="matrix" values="0 0 0 0 0 0 0 0 0 0 0 0 0 0 0 0 0 0 127 0" result="hardAlpha"/>
<feOffset dx="2" dy="-2"/>
<feGaussianBlur stdDeviation="2"/>
<feComposite in2="hardAlpha" operator="arithmetic" k2="-1" k3="1"/>
<feColorMatrix type="matrix" values="0 0 0 0 0 0 0 0 0 0 0 0 0 0 0 0 0 0 0.12 0"/>
<feBlend mode="normal" in2="shape" result="effect1_innerShadow_2534_14409"/>
</filter>
<filter id="filter1_i_2534_14409" x="98.5635" y="30.5186" width="82.7461" height="131.193" filterUnits="userSpaceOnUse" color-interpolation-filters="sRGB">
<feFlood flood-opacity="0" result="BackgroundImageFix"/>
<feBlend mode="normal" in="SourceGraphic" in2="BackgroundImageFix" result="shape"/>
<feColorMatrix in="SourceAlpha" type="matrix" values="0 0 0 0 0 0 0 0 0 0 0 0 0 0 0 0 0 0 127 0" result="hardAlpha"/>
<feOffset dx="2" dy="-2"/>
<feGaussianBlur stdDeviation="2"/>
<feComposite in2="hardAlpha" operator="arithmetic" k2="-1" k3="1"/>
<feColorMatrix type="matrix" values="0 0 0 0 0 0 0 0 0 0 0 0 0 0 0 0 0 0 0.12 0"/>
<feBlend mode="normal" in2="shape" result="effect1_innerShadow_2534_14409"/>
</filter>
<filter id="filter2_i_2534_14409" x="170.29" y="51.875" width="56.3779" height="89.0049" filterUnits="userSpaceOnUse" color-interpolation-filters="sRGB">
<feFlood flood-opacity="0" result="BackgroundImageFix"/>
<feBlend mode="normal" in="SourceGraphic" in2="BackgroundImageFix" result="shape"/>
<feColorMatrix in="SourceAlpha" type="matrix" values="0 0 0 0 0 0 0 0 0 0 0 0 0 0 0 0 0 0 127 0" result="hardAlpha"/>
<feOffset dx="2" dy="-2"/>
<feGaussianBlur stdDeviation="2"/>
<feComposite in2="hardAlpha" operator="arithmetic" k2="-1" k3="1"/>
<feColorMatrix type="matrix" values="0 0 0 0 0 0 0 0 0 0 0 0 0 0 0 0 0 0 0.12 0"/>
<feBlend mode="normal" in2="shape" result="effect1_innerShadow_2534_14409"/>
</filter>
<filter id="filter3_i_2534_14409" x="219.581" y="63.7393" width="41.5479" height="65.2764" filterUnits="userSpaceOnUse" color-interpolation-filters="sRGB">
<feFlood flood-opacity="0" result="BackgroundImageFix"/>
<feBlend mode="normal" in="SourceGraphic" in2="BackgroundImageFix" result="shape"/>
<feColorMatrix in="SourceAlpha" type="matrix" values="0 0 0 0 0 0 0 0 0 0 0 0 0 0 0 0 0 0 127 0" result="hardAlpha"/>
<feOffset dx="2" dy="-2"/>
<feGaussianBlur stdDeviation="2"/>
<feComposite in2="hardAlpha" operator="arithmetic" k2="-1" k3="1"/>
<feColorMatrix type="matrix" values="0 0 0 0 0 0 0 0 0 0 0 0 0 0 0 0 0 0 0.12 0"/>
<feBlend mode="normal" in2="shape" result="effect1_innerShadow_2534_14409"/>
</filter>
<filter id="filter4_d_2534_14409" x="269.52" y="74.8867" width="47.6133" height="47.6133" filterUnits="userSpaceOnUse" color-interpolation-filters="sRGB">
<feFlood flood-opacity="0" result="BackgroundImageFix"/>
<feColorMatrix in="SourceAlpha" type="matrix" values="0 0 0 0 0 0 0 0 0 0 0 0 0 0 0 0 0 0 127 0" result="hardAlpha"/>
<feOffset/>
<feGaussianBlur stdDeviation="4.5"/>
<feColorMatrix type="matrix" values="0 0 0 0 0.760784 0 0 0 0 0.8 0 0 0 0 0.843137 0 0 0 0.16 0"/>
<feBlend mode="normal" in2="BackgroundImageFix" result="effect1_dropShadow_2534_14409"/>
<feBlend mode="normal" in="SourceGraphic" in2="effect1_dropShadow_2534_14409" result="shape"/>
</filter>
<filter id="filter5_d_2534_14409" x="271.544" y="74.3799" width="47.6133" height="47.6133" filterUnits="userSpaceOnUse" color-interpolation-filters="sRGB">
<feFlood flood-opacity="0" result="BackgroundImageFix"/>
<feColorMatrix in="SourceAlpha" type="matrix" values="0 0 0 0 0 0 0 0 0 0 0 0 0 0 0 0 0 0 127 0" result="hardAlpha"/>
<feOffset/>
<feGaussianBlur stdDeviation="4.5"/>
<feColorMatrix type="matrix" values="0 0 0 0 0.760784 0 0 0 0 0.8 0 0 0 0 0.843137 0 0 0 0.16 0"/>
<feBlend mode="normal" in2="BackgroundImageFix" result="effect1_dropShadow_2534_14409"/>
<feBlend mode="normal" in="SourceGraphic" in2="effect1_dropShadow_2534_14409" result="shape"/>
</filter>
<filter id="filter6_d_2534_14409" x="306.694" y="1.7207" width="84.6299" height="84.6299" filterUnits="userSpaceOnUse" color-interpolation-filters="sRGB">
<feFlood flood-opacity="0" result="BackgroundImageFix"/>
<feColorMatrix in="SourceAlpha" type="matrix" values="0 0 0 0 0 0 0 0 0 0 0 0 0 0 0 0 0 0 127 0" result="hardAlpha"/>
<feOffset/>
<feGaussianBlur stdDeviation="4.5"/>
<feColorMatrix type="matrix" values="0 0 0 0 0.760784 0 0 0 0 0.8 0 0 0 0 0.843137 0 0 0 0.16 0"/>
<feBlend mode="normal" in2="BackgroundImageFix" result="effect1_dropShadow_2534_14409"/>
<feBlend mode="normal" in="SourceGraphic" in2="effect1_dropShadow_2534_14409" result="shape"/>
</filter>
<filter id="filter7_d_2534_14409" x="311.25" y="0.582031" width="84.6299" height="84.6299" filterUnits="userSpaceOnUse" color-interpolation-filters="sRGB">
<feFlood flood-opacity="0" result="BackgroundImageFix"/>
<feColorMatrix in="SourceAlpha" type="matrix" values="0 0 0 0 0 0 0 0 0 0 0 0 0 0 0 0 0 0 127 0" result="hardAlpha"/>
<feOffset/>
<feGaussianBlur stdDeviation="4.5"/>
<feColorMatrix type="matrix" values="0 0 0 0 0.760784 0 0 0 0 0.8 0 0 0 0 0.843137 0 0 0 0.16 0"/>
<feBlend mode="normal" in2="BackgroundImageFix" result="effect1_dropShadow_2534_14409"/>
<feBlend mode="normal" in="SourceGraphic" in2="effect1_dropShadow_2534_14409" result="shape"/>
</filter>
<filter id="filter8_d_2534_14409" x="345.452" y="85.8467" width="55.0166" height="55.0166" filterUnits="userSpaceOnUse" color-interpolation-filters="sRGB">
<feFlood flood-opacity="0" result="BackgroundImageFix"/>
<feColorMatrix in="SourceAlpha" type="matrix" values="0 0 0 0 0 0 0 0 0 0 0 0 0 0 0 0 0 0 127 0" result="hardAlpha"/>
<feOffset/>
<feGaussianBlur stdDeviation="4.5"/>
<feColorMatrix type="matrix" values="0 0 0 0 0.760784 0 0 0 0 0.8 0 0 0 0 0.843137 0 0 0 0.16 0"/>
<feBlend mode="normal" in2="BackgroundImageFix" result="effect1_dropShadow_2534_14409"/>
<feBlend mode="normal" in="SourceGraphic" in2="effect1_dropShadow_2534_14409" result="shape"/>
</filter>
<filter id="filter9_d_2534_14409" x="347.983" y="85.2139" width="55.0166" height="55.0166" filterUnits="userSpaceOnUse" color-interpolation-filters="sRGB">
<feFlood flood-opacity="0" result="BackgroundImageFix"/>
<feColorMatrix in="SourceAlpha" type="matrix" values="0 0 0 0 0 0 0 0 0 0 0 0 0 0 0 0 0 0 127 0" result="hardAlpha"/>
<feOffset/>
<feGaussianBlur stdDeviation="4.5"/>
<feColorMatrix type="matrix" values="0 0 0 0 0.760784 0 0 0 0 0.8 0 0 0 0 0.843137 0 0 0 0.16 0"/>
<feBlend mode="normal" in2="BackgroundImageFix" result="effect1_dropShadow_2534_14409"/>
<feBlend mode="normal" in="SourceGraphic" in2="effect1_dropShadow_2534_14409" result="shape"/>
</filter>
<filter id="filter10_d_2534_14409" x="300.368" y="127.012" width="62.4199" height="62.4199" filterUnits="userSpaceOnUse" color-interpolation-filters="sRGB">
<feFlood flood-opacity="0" result="BackgroundImageFix"/>
<feColorMatrix in="SourceAlpha" type="matrix" values="0 0 0 0 0 0 0 0 0 0 0 0 0 0 0 0 0 0 127 0" result="hardAlpha"/>
<feOffset/>
<feGaussianBlur stdDeviation="4.5"/>
<feColorMatrix type="matrix" values="0 0 0 0 0.760784 0 0 0 0 0.8 0 0 0 0 0.843137 0 0 0 0.16 0"/>
<feBlend mode="normal" in2="BackgroundImageFix" result="effect1_dropShadow_2534_14409"/>
<feBlend mode="normal" in="SourceGraphic" in2="effect1_dropShadow_2534_14409" result="shape"/>
</filter>
<filter id="filter11_d_2534_14409" x="303.405" y="126.253" width="62.4199" height="62.4199" filterUnits="userSpaceOnUse" color-interpolation-filters="sRGB">
<feFlood flood-opacity="0" result="BackgroundImageFix"/>
<feColorMatrix in="SourceAlpha" type="matrix" values="0 0 0 0 0 0 0 0 0 0 0 0 0 0 0 0 0 0 127 0" result="hardAlpha"/>
<feOffset/>
<feGaussianBlur stdDeviation="4.5"/>
<feColorMatrix type="matrix" values="0 0 0 0 0.760784 0 0 0 0 0.8 0 0 0 0 0.843137 0 0 0 0.16 0"/>
<feBlend mode="normal" in2="BackgroundImageFix" result="effect1_dropShadow_2534_14409"/>
<feBlend mode="normal" in="SourceGraphic" in2="effect1_dropShadow_2534_14409" result="shape"/>
</filter>
<filter id="filter12_i_2534_14409" x="258.146" y="79.5586" width="21.7744" height="33.6387" filterUnits="userSpaceOnUse" color-interpolation-filters="sRGB">
<feFlood flood-opacity="0" result="BackgroundImageFix"/>
<feBlend mode="normal" in="SourceGraphic" in2="BackgroundImageFix" result="shape"/>
<feColorMatrix in="SourceAlpha" type="matrix" values="0 0 0 0 0 0 0 0 0 0 0 0 0 0 0 0 0 0 127 0" result="hardAlpha"/>
<feOffset dx="2" dy="-2"/>
<feGaussianBlur stdDeviation="2"/>
<feComposite in2="hardAlpha" operator="arithmetic" k2="-1" k3="1"/>
<feColorMatrix type="matrix" values="0 0 0 0 0 0 0 0 0 0 0 0 0 0 0 0 0 0 0.12 0"/>
<feBlend mode="normal" in2="shape" result="effect1_innerShadow_2534_14409"/>
</filter>
</defs>
</svg>
