<svg width="670" height="450" viewBox="0 0 670 450" fill="none" xmlns="http://www.w3.org/2000/svg">
<path d="M38 397L632 396.13" stroke="#C5D7E8"/>
<path d="M399.514 356.967L400.212 357.682L399.514 356.967ZM450.747 316.063L450.008 315.388L450.747 316.063ZM504.509 226.423L505.198 227.147L504.509 226.423ZM583.158 189.524C583.448 189.054 583.301 188.438 582.831 188.148L575.165 183.433C574.694 183.143 574.079 183.29 573.789 183.76C573.5 184.231 573.647 184.847 574.117 185.136L580.931 189.328L576.739 196.142C576.45 196.612 576.597 197.228 577.067 197.517C577.537 197.807 578.153 197.66 578.443 197.19L583.158 189.524ZM364.727 396.13C365.503 396.76 365.503 396.76 365.503 396.76C365.503 396.76 365.503 396.76 365.504 396.759C365.504 396.758 365.505 396.757 365.506 396.756C365.509 396.753 365.512 396.748 365.517 396.742C365.527 396.73 365.542 396.712 365.561 396.688C365.6 396.641 365.658 396.569 365.735 396.476C365.888 396.288 366.114 396.012 366.407 395.654C366.994 394.939 367.848 393.902 368.918 392.614C371.058 390.037 374.06 386.455 377.509 382.438C384.413 374.397 393.086 364.634 400.212 357.682L398.816 356.251C391.623 363.268 382.902 373.087 375.992 381.135C372.534 385.163 369.524 388.753 367.379 391.336C366.306 392.628 365.45 393.668 364.861 394.386C364.567 394.744 364.339 395.022 364.185 395.211C364.108 395.305 364.05 395.377 364.01 395.426C363.991 395.45 363.976 395.468 363.966 395.48C363.961 395.487 363.957 395.491 363.954 395.494C363.953 395.496 363.952 395.497 363.951 395.498C363.951 395.498 363.951 395.499 363.951 395.499C363.951 395.499 363.95 395.499 364.727 396.13ZM400.212 357.682C409.57 348.553 417.775 343.328 425.971 337.873C434.178 332.41 442.349 326.733 451.485 316.737L450.008 315.388C441.039 325.202 433.029 330.773 424.863 336.208C416.687 341.649 408.328 346.971 398.816 356.251L400.212 357.682ZM451.485 316.737C464.525 302.469 471.244 286.353 478.053 270.731C484.878 255.074 491.797 239.902 505.198 227.147L503.82 225.698C490.093 238.763 483.039 254.287 476.22 269.932C469.385 285.613 462.786 301.407 450.008 315.388L451.485 316.737ZM505.198 227.147C518.287 214.69 537.585 205.391 553.693 199.197C561.733 196.106 568.95 193.798 574.156 192.264C576.758 191.497 578.857 190.923 580.304 190.542C581.028 190.351 581.588 190.208 581.966 190.114C582.156 190.066 582.3 190.031 582.396 190.007C582.444 189.996 582.48 189.987 582.504 189.981C582.516 189.978 582.525 189.976 582.53 189.975C582.533 189.974 582.535 189.973 582.537 189.973C582.537 189.973 582.538 189.973 582.538 189.973C582.538 189.973 582.538 189.973 582.307 189C582.075 188.027 582.074 188.027 582.074 188.027C582.073 188.028 582.073 188.028 582.072 188.028C582.07 188.028 582.067 188.029 582.064 188.03C582.057 188.031 582.048 188.034 582.035 188.037C582.009 188.043 581.971 188.052 581.921 188.064C581.822 188.089 581.674 188.125 581.481 188.173C581.095 188.27 580.526 188.415 579.794 188.608C578.331 188.994 576.213 189.572 573.59 190.345C568.345 191.891 561.076 194.216 552.975 197.331C536.801 203.55 517.201 212.962 503.82 225.698L505.198 227.147Z" fill="#D4E1EE"/>
<path d="M400.645 355.985V395.5M448.75 318.75V395.25M505.75 226.75V395.25M571.75 192.75V395.25" stroke="#BACFE5" stroke-width="1.5" stroke-linecap="round" stroke-dasharray="8 8"/>
<g filter="url(#filter0_d_2335_12862)">
<rect x="542" y="142.563" width="32.937" height="32.937" rx="16.4685" fill="#039100"/>
</g>
<g filter="url(#filter1_d_2335_12862)">
<rect x="544.252" y="142" width="32.937" height="32.937" rx="16.4685" fill="#09B905"/>
</g>
<path fill-rule="evenodd" clip-rule="evenodd" d="M561.045 149.396C561.597 149.396 562.045 149.843 562.045 150.396V166.972C562.045 167.524 561.597 167.972 561.045 167.972C560.493 167.972 560.045 167.524 560.045 166.972V150.396C560.045 149.843 560.493 149.396 561.045 149.396Z" fill="white"/>
<path fill-rule="evenodd" clip-rule="evenodd" d="M555.523 156.047C555.523 154.039 557.152 152.41 559.161 152.41H564.811C565.364 152.41 565.811 152.858 565.811 153.41C565.811 153.962 565.364 154.41 564.811 154.41H559.161C558.256 154.41 557.523 155.143 557.523 156.047C557.523 156.951 558.256 157.684 559.161 157.684H562.928C564.937 157.684 566.565 159.313 566.565 161.321C566.565 163.33 564.937 164.959 562.928 164.959H556.523C555.971 164.959 555.523 164.511 555.523 163.959C555.523 163.406 555.971 162.959 556.523 162.959H562.928C563.832 162.959 564.565 162.226 564.565 161.321C564.565 160.417 563.832 159.684 562.928 159.684H559.161C557.152 159.684 555.523 158.056 555.523 156.047Z" fill="white"/>
<g filter="url(#filter2_i_2335_12862)">
<path d="M426.836 111.668C426.836 100.342 431.053 92.4886 440.336 86.0011C450.152 79.1415 462.143 74.5987 470.836 82.8345C493.003 103.834 502.054 132.403 507.67 152.501C510.836 163.834 479.668 193.468 461.002 186C457.337 184.534 452.471 169.326 445.002 154.5C430.002 144 426.836 123.6 426.836 111.668Z" fill="#60BED6"/>
</g>
<g filter="url(#filter3_i_2335_12862)">
<path fill-rule="evenodd" clip-rule="evenodd" d="M449.72 151.504C440.194 155.892 431.613 158.185 423.196 160.433C414.44 162.772 405.861 165.064 396.581 169.619C393.2 171.279 389.98 161.556 393.581 160.452C406.564 156.476 419.609 150.001 429.787 144.95C433.295 143.209 436.462 141.637 439.169 140.394C445.27 124.835 452.919 107.615 460.089 92.7856C463.973 84.7525 483.751 92.1737 480.422 100.452C476.449 110.336 469.102 122.166 462.858 132.22C458.362 139.459 454.437 145.777 452.756 149.786C452.259 150.97 451.133 151.485 449.72 151.504Z" fill="#347C9C"/>
</g>
<mask id="mask0_2335_12862" style="mask-type:alpha" maskUnits="userSpaceOnUse" x="381" y="59" width="143" height="143">
<circle cx="452.5" cy="130.5" r="62.5" stroke="black" stroke-width="18"/>
<circle cx="452.5" cy="130.5" r="62.5" stroke="black" stroke-width="18"/>
</mask>
<g mask="url(#mask0_2335_12862)">
<rect x="343" y="10" width="186" height="192" fill="#CAC202"/>
<rect x="418.023" y="141.382" width="144.512" height="158" transform="rotate(-12.9036 418.023 141.382)" fill="#A76290"/>
</g>
<g filter="url(#filter4_i_2335_12862)">
<path d="M452.97 80.838L443.828 58.1999L428.795 64.7986C428.795 64.7986 441.097 85.0465 437.355 87.6106C434.841 89.333 443.522 88.5 449.028 85.9014C451.718 84.6317 453.398 82.8045 452.97 80.838Z" fill="#F5B4A6"/>
</g>
<path d="M416.403 59.0421C416.403 59.0421 410 54.6256 410 49.356C410 44.0864 418.157 34.5006 429.401 35.9184C440.645 37.3362 443.897 39.1179 443.897 39.1179C443.897 39.1179 455.807 28.4657 470.15 41.4264C484.493 54.3872 463.644 67.7119 451.325 54.2116C451.325 54.2116 457.613 68.54 446.497 69.895C435.382 71.25 416.403 59.0421 416.403 59.0421Z" fill="black"/>
<path d="M445.774 67.4734C445.774 67.4734 440.298 83.9601 433.125 82.9559C425.953 81.9517 417.024 58.5706 417.024 58.5706C416.876 56.745 417.406 54.9289 418.513 53.4748C420.298 51.4514 420.194 47 420.194 47C421.192 48.2388 422.45 49.239 423.878 49.9284C425.307 50.6179 426.869 50.9793 428.453 50.9868C434.182 51.1966 437.619 57.7763 440.64 56.1876C440.845 55.276 441.371 54.4701 442.121 53.919C442.87 53.3679 443.793 53.1089 444.717 53.19C448.185 53.2949 450.194 58.2709 449.985 62.6174C449.958 63.7951 449.522 64.926 448.753 65.8132C447.983 66.7005 446.929 67.2879 445.774 67.4734Z" fill="#FFC4B7"/>
<path fill-rule="evenodd" clip-rule="evenodd" d="M407.164 108.622C416.202 103.263 425.35 97.8393 433 93.0002C440.43 88.3001 452.371 103.709 445 108.5C431.007 117.597 405.967 130.1 389.515 138.316C386.372 139.885 383.543 141.297 381.165 142.5C380.109 143.033 379.191 142.955 378.424 142.445C369.2 139.357 329 126.704 329 126.704V118L378.85 125.89C378.952 125.811 379.057 125.737 379.165 125.667C386.785 120.704 396.903 114.705 407.164 108.622Z" fill="#60BED6"/>
<path d="M331.114 118.176C327.782 117.676 321.885 114.194 313 116.501L316.5 119.001C316.5 119.001 319.741 122.169 319.114 124.509C318.555 126.599 315.087 126.335 313.5 126.335C311.887 126.335 309.5 127.976 310.114 129.009C311 130.501 313.667 129.335 315.114 129.676C323.501 127.835 327.449 125.176 331.114 126.009C334.097 126.687 334.14 118.63 331.114 118.176Z" fill="#FFC4B7"/>
<path d="M304.031 124.833C303.615 123.038 307.531 121.667 307.531 121.667L317.698 121C317.698 121 304.533 127 304.031 124.833Z" fill="#FFC4B7"/>
<path d="M294 115.852C285.5 118.851 274 129.852 274 129.852L279 135.852C279 135.852 287 129.852 291.5 126.852C298.656 122.081 308.024 121.219 313.5 127.851C319.04 134.559 316.734 144.343 310 149.852C304.5 154.351 297 159.852 297 159.852L302.5 166.352C302.5 166.352 313.5 158.851 321 151.352C329.152 143.201 328 129.852 320 121.851C313.402 113.463 303.827 112.385 294 115.852Z" fill="black"/>
<g clip-path="url(#clip0_2335_12862)">
<path d="M292.704 176.06L286.492 168.224" stroke="#CD0000" stroke-width="2" stroke-linecap="round" stroke-linejoin="round"/>
<path d="M299.267 174.684L289.328 162.146" stroke="#CD0000" stroke-width="2" stroke-linecap="round" stroke-linejoin="round"/>
<path d="M286.137 177.436L283.652 174.302" stroke="#CD0000" stroke-width="2" stroke-linecap="round" stroke-linejoin="round"/>
</g>
<g clip-path="url(#clip1_2335_12862)">
<path d="M269.148 147.313L262.688 139.68" stroke="#CD0000" stroke-width="2" stroke-linecap="round" stroke-linejoin="round"/>
<path d="M275.669 145.726L265.332 133.513" stroke="#CD0000" stroke-width="2" stroke-linecap="round" stroke-linejoin="round"/>
<path d="M262.631 148.899L260.047 145.846" stroke="#CD0000" stroke-width="2" stroke-linecap="round" stroke-linejoin="round"/>
</g>
<rect x="53" y="64" width="60" height="60" rx="30" fill="black"/>
<g clip-path="url(#clip2_2335_12862)">
<rect x="54" y="66" width="60" height="60" rx="30" fill="#E2E2F0"/>
<path d="M96.2207 113.483C87.7643 112.639 89.0931 121.077 89.0931 121.077L92.2826 126.521H73.1158C71.8577 124.548 78.4623 116.014 78.4623 116.014C78.4623 116.014 80.3032 106.131 82.6905 100.826C85.0777 95.52 83.5361 97.4503 86.9186 94.0751C90.3012 90.6999 91.1468 91.5437 97.0663 92.3875C102.986 93.2313 104.677 114.326 96.2207 113.483Z" fill="#CB9191"/>
<path d="M98.2734 126.522L88.6901 121.73C88.6901 121.73 74.9056 115.917 73.1171 121.73C72.5668 123.518 73.1171 126.522 73.1171 126.522H98.2734Z" fill="#4D4D9D"/>
<path fill-rule="evenodd" clip-rule="evenodd" d="M95.9264 95.8518C100.35 95.8518 102.041 95.008 103.732 94.1642C105.424 93.3204 114.813 85.9667 103.732 83.1948C92.6521 80.4228 81.392 79.3274 73.3761 85.7262C65.3602 92.125 69.0816 106.412 69.9068 110.196C70.732 113.981 73.2763 118.432 79.4473 113.572C82.5946 111.093 86.633 106.614 85.0618 102.983C83.8162 100.103 84.2826 99.2269 85.9739 99.2269C86.8196 99.2269 86.8196 100.915 86.8196 100.915C86.8196 100.915 87.65 100.915 87.6652 100.915C87.6895 100.915 87.6652 96.6956 88.1205 95.8518C89.4162 93.4507 91.5031 95.8518 95.9264 95.8518Z" fill="#121111"/>
</g>
<rect x="62" y="214" width="60" height="60" rx="30" fill="black"/>
<rect x="63" y="216" width="60" height="60" rx="30" fill="#E5F0E2"/>
<path d="M109.247 260.116C100.886 259.282 102.2 267.624 102.2 267.624L105.354 273.007H86.403C85.1591 271.057 91.6892 262.619 91.6892 262.619C91.6892 262.619 93.5093 252.847 95.8696 247.602C98.23 242.356 96.7057 244.265 100.05 240.927C103.395 237.59 104.231 238.425 110.083 239.259C115.936 240.093 117.608 260.95 109.247 260.116Z" fill="#CB9191"/>
<path d="M111.273 273.008L101.798 268.27C101.798 268.27 88.1692 262.523 86.4009 268.27C85.8567 270.038 86.4009 273.008 86.4009 273.008H111.273Z" fill="#BC3F3F"/>
<path fill-rule="evenodd" clip-rule="evenodd" d="M110.75 241.754C114.657 240.405 116.077 238.042 113.591 233.656C111.105 229.269 104.712 227.244 99.5617 228.256C94.4116 229.269 84.9993 232.812 88.0183 244.623C91.0374 256.434 77.7181 260.989 77.0078 265.039C76.2974 269.088 80.3676 271.629 85.5321 270.269C90.6965 268.909 96.5426 264.195 97.9634 257.615C99.3841 251.034 103.032 251.536 102.226 247.322C101.87 245.466 102.293 243.101 102.936 242.261C104.357 240.405 106.843 243.104 110.75 241.754Z" fill="#191000"/>
<rect x="166" y="179" width="60" height="60" rx="30" fill="black"/>
<rect x="167" y="181" width="60" height="60" rx="30" fill="#EFF8FF"/>
<path d="M203.595 223.888C195.74 223.104 196.974 230.942 196.974 230.942L199.937 236H182.132C180.963 234.167 187.099 226.239 187.099 226.239C187.099 226.239 188.809 217.059 191.026 212.13C193.244 207.202 191.812 208.995 194.954 205.86C198.096 202.724 198.882 203.508 204.381 204.292C209.879 205.076 211.451 224.672 203.595 223.888Z" fill="#CB9191"/>
<path d="M205.504 236L196.602 231.549C196.602 231.549 183.797 226.15 182.135 231.549C181.624 233.211 182.135 236 182.135 236H205.504Z" fill="#7DB86D"/>
<path fill-rule="evenodd" clip-rule="evenodd" d="M211.828 207.968C213.473 202.627 208.615 194.74 202.676 199.718C196.738 204.696 193.578 195.678 189.122 200.286C184.666 204.895 184.494 215.299 185.72 218.32C186.946 221.34 186.689 224.577 188.408 226.465C189.461 227.601 191.625 227.588 191.625 227.588C191.625 227.588 188.51 222.652 189.158 221.979C189.807 221.307 190.712 221.028 190.712 221.028L191.936 220.315C191.936 220.315 191.078 214.825 192.589 211.98C194.099 209.135 196.962 209.277 199.937 209.91C204.645 210.911 210.183 213.31 211.828 207.968Z" fill="black"/>
<rect x="172" y="316" width="60" height="60" rx="30" fill="black"/>
<rect x="173" y="318" width="60" height="60" rx="30" fill="#E2E2F0"/>
<path d="M216.247 363.116C207.886 362.282 209.2 370.624 209.2 370.624L212.354 376.007H193.403C192.159 374.057 198.689 365.619 198.689 365.619C198.689 365.619 200.509 355.847 202.87 350.602C205.23 345.356 203.706 347.265 207.05 343.927C210.395 340.59 211.231 341.425 217.083 342.259C222.936 343.093 224.608 363.95 216.247 363.116Z" fill="#CB9191"/>
<path d="M218.273 376.008L208.798 371.27C208.798 371.27 195.169 365.523 193.401 371.27C192.857 373.038 193.401 376.008 193.401 376.008H218.273Z" fill="#BC3F3F"/>
<path fill-rule="evenodd" clip-rule="evenodd" d="M217.75 344.754C221.657 343.405 223.077 341.042 220.591 336.656C218.105 332.269 211.712 330.244 206.562 331.256C201.412 332.269 191.999 335.812 195.018 347.623C198.037 359.434 184.718 363.989 184.008 368.039C183.297 372.088 187.368 374.629 192.532 373.269C197.697 371.909 203.543 367.195 204.963 360.615C206.384 354.034 210.032 354.536 209.226 350.322C208.87 348.466 209.293 346.101 209.936 345.261C211.357 343.405 213.843 346.104 217.75 344.754Z" fill="#191000"/>
<rect x="300" y="228" width="60" height="60" rx="30" fill="black"/>
<g clip-path="url(#clip3_2335_12862)">
<rect x="301" y="230" width="60" height="60" rx="30" fill="#E2E2F0"/>
<path d="M340.262 276.888C331.081 275.972 332.524 285.132 332.524 285.132L335.986 291.043H315.179C313.813 288.901 320.983 279.636 320.983 279.636C320.983 279.636 322.982 268.907 325.573 263.148C328.165 257.388 326.491 259.483 330.163 255.819C333.835 252.155 334.754 253.071 341.18 253.987C347.606 254.903 349.442 277.804 340.262 276.888Z" fill="#CB9191"/>
<path d="M342.492 291.043L332.088 285.841C332.088 285.841 317.124 279.53 315.182 285.841C314.585 287.782 315.182 291.043 315.182 291.043H342.492Z" fill="#7DB86D"/>
<path fill-rule="evenodd" clip-rule="evenodd" d="M349.882 258.283C351.804 252.041 346.127 242.824 339.187 248.642C332.246 254.459 328.554 243.92 323.346 249.306C318.139 254.692 317.938 266.851 319.371 270.381C320.804 273.911 320.503 277.693 322.512 279.899C323.743 281.227 326.272 281.212 326.272 281.212C326.272 281.212 322.632 275.443 323.389 274.657C324.147 273.871 325.205 273.545 325.205 273.545L326.635 272.713C326.635 272.713 325.633 266.297 327.398 262.972C329.163 259.647 332.509 259.813 335.986 260.553C341.487 261.723 347.959 264.526 349.882 258.283Z" fill="black"/>
</g>
<rect x="61" y="318" width="60" height="60" rx="30" fill="black"/>
<g clip-path="url(#clip4_2335_12862)">
<rect x="62" y="320" width="60" height="60" rx="30" fill="#F0E2E2"/>
<path d="M104.221 367.483C95.7643 366.639 97.0931 375.077 97.0931 375.077L100.283 380.521H81.1158C79.8577 378.548 86.4623 370.014 86.4623 370.014C86.4623 370.014 88.3032 360.131 90.6905 354.826C93.0777 349.52 91.5361 351.45 94.9186 348.075C98.3012 344.7 99.1468 345.544 105.066 346.388C110.986 347.231 112.677 368.326 104.221 367.483Z" fill="#CB9191"/>
<path d="M106.273 380.522L96.6901 375.73C96.6901 375.73 82.9056 369.917 81.1171 375.73C80.5668 377.518 81.1171 380.522 81.1171 380.522H106.273Z" fill="#4D4D9D"/>
<path fill-rule="evenodd" clip-rule="evenodd" d="M103.926 349.852C108.35 349.852 110.041 349.008 111.732 348.164C113.424 347.32 122.813 339.967 111.732 337.195C100.652 334.423 89.392 333.327 81.3761 339.726C73.3602 346.125 77.0816 360.412 77.9068 364.196C78.732 367.981 81.2763 372.432 87.4473 367.572C90.5946 365.093 94.633 360.614 93.0618 356.983C91.8162 354.103 92.2826 353.227 93.9739 353.227C94.8196 353.227 94.8196 354.915 94.8196 354.915C94.8196 354.915 95.65 354.915 95.6652 354.915C95.6895 354.915 95.6652 350.696 96.1205 349.852C97.4162 347.451 99.5031 349.852 103.926 349.852Z" fill="#121111"/>
</g>
<defs>
<filter id="filter0_d_2335_12862" x="533" y="133.563" width="50.9375" height="50.9365" filterUnits="userSpaceOnUse" color-interpolation-filters="sRGB">
<feFlood flood-opacity="0" result="BackgroundImageFix"/>
<feColorMatrix in="SourceAlpha" type="matrix" values="0 0 0 0 0 0 0 0 0 0 0 0 0 0 0 0 0 0 127 0" result="hardAlpha"/>
<feOffset/>
<feGaussianBlur stdDeviation="4.5"/>
<feColorMatrix type="matrix" values="0 0 0 0 0.760784 0 0 0 0 0.8 0 0 0 0 0.843137 0 0 0 0.16 0"/>
<feBlend mode="normal" in2="BackgroundImageFix" result="effect1_dropShadow_2335_12862"/>
<feBlend mode="normal" in="SourceGraphic" in2="effect1_dropShadow_2335_12862" result="shape"/>
</filter>
<filter id="filter1_d_2335_12862" x="535.252" y="133" width="50.9375" height="50.9365" filterUnits="userSpaceOnUse" color-interpolation-filters="sRGB">
<feFlood flood-opacity="0" result="BackgroundImageFix"/>
<feColorMatrix in="SourceAlpha" type="matrix" values="0 0 0 0 0 0 0 0 0 0 0 0 0 0 0 0 0 0 127 0" result="hardAlpha"/>
<feOffset/>
<feGaussianBlur stdDeviation="4.5"/>
<feColorMatrix type="matrix" values="0 0 0 0 0.760784 0 0 0 0 0.8 0 0 0 0 0.843137 0 0 0 0.16 0"/>
<feBlend mode="normal" in2="BackgroundImageFix" result="effect1_dropShadow_2335_12862"/>
<feBlend mode="normal" in="SourceGraphic" in2="effect1_dropShadow_2335_12862" result="shape"/>
</filter>
<filter id="filter2_i_2335_12862" x="426.836" y="78.4072" width="81.0586" height="112.784" filterUnits="userSpaceOnUse" color-interpolation-filters="sRGB">
<feFlood flood-opacity="0" result="BackgroundImageFix"/>
<feBlend mode="normal" in="SourceGraphic" in2="BackgroundImageFix" result="shape"/>
<feColorMatrix in="SourceAlpha" type="matrix" values="0 0 0 0 0 0 0 0 0 0 0 0 0 0 0 0 0 0 127 0" result="hardAlpha"/>
<feOffset dy="4"/>
<feGaussianBlur stdDeviation="2"/>
<feComposite in2="hardAlpha" operator="arithmetic" k2="-1" k3="1"/>
<feColorMatrix type="matrix" values="0 0 0 0 0 0 0 0 0 0 0 0 0 0 0 0 0 0 0.08 0"/>
<feBlend mode="normal" in2="shape" result="effect1_innerShadow_2335_12862"/>
</filter>
<filter id="filter3_i_2335_12862" x="392" y="89.334" width="88.7969" height="84.4756" filterUnits="userSpaceOnUse" color-interpolation-filters="sRGB">
<feFlood flood-opacity="0" result="BackgroundImageFix"/>
<feBlend mode="normal" in="SourceGraphic" in2="BackgroundImageFix" result="shape"/>
<feColorMatrix in="SourceAlpha" type="matrix" values="0 0 0 0 0 0 0 0 0 0 0 0 0 0 0 0 0 0 127 0" result="hardAlpha"/>
<feOffset dy="4"/>
<feGaussianBlur stdDeviation="2"/>
<feComposite in2="hardAlpha" operator="arithmetic" k2="-1" k3="1"/>
<feColorMatrix type="matrix" values="0 0 0 0 0 0 0 0 0 0 0 0 0 0 0 0 0 0 0.08 0"/>
<feBlend mode="normal" in2="shape" result="effect1_innerShadow_2335_12862"/>
</filter>
<filter id="filter4_i_2335_12862" x="428.793" y="58.2002" width="24.2422" height="34.3145" filterUnits="userSpaceOnUse" color-interpolation-filters="sRGB">
<feFlood flood-opacity="0" result="BackgroundImageFix"/>
<feBlend mode="normal" in="SourceGraphic" in2="BackgroundImageFix" result="shape"/>
<feColorMatrix in="SourceAlpha" type="matrix" values="0 0 0 0 0 0 0 0 0 0 0 0 0 0 0 0 0 0 127 0" result="hardAlpha"/>
<feOffset dy="4"/>
<feGaussianBlur stdDeviation="2"/>
<feComposite in2="hardAlpha" operator="arithmetic" k2="-1" k3="1"/>
<feColorMatrix type="matrix" values="0 0 0 0 0 0 0 0 0 0 0 0 0 0 0 0 0 0 0.25 0"/>
<feBlend mode="normal" in2="shape" result="effect1_innerShadow_2335_12862"/>
</filter>
<clipPath id="clip0_2335_12862">
<rect width="24" height="24" fill="white" transform="translate(272.453 169.832) rotate(-38.4024)"/>
</clipPath>
<clipPath id="clip1_2335_12862">
<rect width="24" height="24" fill="white" transform="translate(248.711 141.738) rotate(-40.2436)"/>
</clipPath>
<clipPath id="clip2_2335_12862">
<rect x="54" y="66" width="60" height="60" rx="30" fill="white"/>
</clipPath>
<clipPath id="clip3_2335_12862">
<rect x="301" y="230" width="60" height="60" rx="30" fill="white"/>
</clipPath>
<clipPath id="clip4_2335_12862">
<rect x="62" y="320" width="60" height="60" rx="30" fill="white"/>
</clipPath>
</defs>
</svg>
