<svg width="632" height="324" viewBox="0 0 632 324" fill="none" xmlns="http://www.w3.org/2000/svg">
<path d="M497.026 162.204C497.026 178.616 482.506 193.204 464.355 193.204C482.506 193.204 497.026 207.792 497.026 226.027C497.026 207.792 511.547 193.204 529.698 193.204C509.732 193.204 497.026 178.616 497.026 162.204Z" fill="#B1D2A8"/>
<path d="M66.1018 132.204C66.1018 95.4804 95.4804 66.1018 132.204 66.1018C95.4804 66.1018 66.1018 36.7232 66.1018 0C66.1018 36.7232 36.7232 66.1018 0 66.1018C36.7232 69.7741 66.1018 95.4804 66.1018 132.204Z" fill="#B1D2A8"/>
<path d="M584.132 227.938C584.132 254.531 562.858 275.805 536.266 275.805C562.858 275.805 584.132 297.079 584.132 323.672C584.132 297.079 605.407 275.805 631.999 275.805C605.407 275.805 584.132 254.531 584.132 227.938Z" fill="#B1D2A8"/>
<path d="M27.6211 322.169H171.337V193.247H27.6211" fill="#B1D2A8"/>
<path d="M88.9072 322.168H110.042V172.112H88.9072" fill="#95BD8B"/>
<path d="M17.0508 172.112H181.901V193.247H17.0508" fill="#95BD8B"/>
<path d="M101.744 172.256C118.112 114.762 188.362 162.731 101.744 172.256" stroke="#B1D2A8" stroke-width="3"/>
<path d="M93.7207 169.098C21.1524 172.109 56.1981 107.379 93.7207 169.098" stroke="#B1D2A8" stroke-width="3"/>
<path d="M98.7567 173.373C61.7106 110.9 135.319 111.08 98.7567 173.373" stroke="#B1D2A8" stroke-width="3"/>
<path d="M195.686 323.994H435.489V225.444H195.686" fill="#B1D2A8"/>
<path d="M179.261 225.444H451.913V258.294H179.261" fill="#95BD8B"/>
<path d="M300.805 323.994H333.654V225.444H300.805" fill="#95BD8B"/>
<path d="M320.516 225.444C208.827 209.019 281.097 120.325 320.516 225.444" stroke="#B1D2A8" stroke-width="3"/>
<path d="M320.516 225.444C333.656 133.465 451.915 192.595 320.516 225.444" stroke="#B1D2A8" stroke-width="3"/>
<path d="M223.378 191.467C219.404 191.467 215.436 189.958 212.403 186.946L208.631 183.174C207.169 181.717 205.211 180.911 203.134 180.906H197.827C189.251 180.906 182.27 173.925 182.27 165.348V160.037C182.265 157.965 181.459 156.006 179.997 154.534L176.287 150.829C170.211 144.789 170.185 134.915 176.23 128.834L180.002 125.057C181.459 123.595 182.265 121.637 182.27 119.56V114.258C182.27 105.676 189.251 98.6959 197.827 98.6959H203.139C205.211 98.6959 207.164 97.8898 208.636 96.4173L212.351 92.7127C218.391 86.6365 228.26 86.6055 234.347 92.6558L238.119 96.4276C239.586 97.8898 241.539 98.6959 243.611 98.6959H248.922C257.499 98.6959 264.48 105.676 264.48 114.258V119.565C264.485 121.637 265.291 123.595 266.753 125.067L270.463 128.777C273.403 131.702 275.03 135.597 275.046 139.757C275.056 143.89 273.465 147.781 270.566 150.721C270.515 150.772 270.468 150.829 270.416 150.876L266.748 154.544C265.291 156.006 264.485 157.965 264.48 160.042V165.348C264.48 173.925 257.499 180.906 248.922 180.906H243.611C241.539 180.911 239.581 181.717 238.113 183.179L234.398 186.889C231.371 189.937 227.371 191.467 223.378 191.467Z" fill="#EEAB00"/>
<path fill-rule="evenodd" clip-rule="evenodd" d="M213.272 129.736C212.42 130.589 211.314 131.048 210.089 131.048C208.942 131.048 207.816 130.578 206.912 129.731C206.054 128.878 205.568 127.711 205.568 126.527C205.568 125.401 206.044 124.244 206.881 123.35C207.341 122.885 207.888 122.533 208.436 122.347C209.996 121.634 212.068 122.053 213.298 123.345C213.737 123.784 214.073 124.264 214.295 124.766C214.538 125.303 214.662 125.913 214.662 126.527C214.662 127.757 214.171 128.899 213.272 129.736ZM239.875 123.323C238.113 121.567 235.245 121.567 233.483 123.323L206.926 149.881C205.164 151.643 205.164 154.51 206.926 156.278C207.784 157.13 208.915 157.6 210.124 157.6C211.333 157.6 212.465 157.13 213.317 156.278L239.875 129.72C241.637 127.953 241.637 125.09 239.875 123.323ZM238.401 148.922C236.727 148.219 234.742 148.601 233.42 149.924C233.146 150.244 232.758 150.74 232.495 151.324C232.216 151.955 232.18 152.631 232.18 153.086C232.18 153.541 232.216 154.212 232.495 154.843C232.753 155.421 233.063 155.892 233.471 156.3C234.407 157.168 235.492 157.607 236.701 157.607C237.848 157.607 238.974 157.142 239.899 156.279C240.72 155.458 241.17 154.321 241.17 153.086C241.17 151.846 240.72 150.714 239.894 149.888C239.439 149.438 238.891 149.087 238.401 148.922Z" fill="white"/>
<rect x="206" y="0.5" width="299.214" height="52.5034" rx="7.5" stroke="#B1D2A8"/>
<path d="M225.918 37.1551V17.6994H232.482C233.749 17.6994 234.804 17.921 235.646 18.3644C236.495 18.8077 237.131 19.4125 237.555 20.1788C237.98 20.9452 238.192 21.816 238.192 22.7913C238.192 23.602 238.056 24.2955 237.783 24.8718C237.511 25.4481 237.141 25.9136 236.672 26.2683C236.203 26.6229 235.681 26.8794 235.104 27.0378V27.1898C235.731 27.2341 236.339 27.4558 236.928 27.8548C237.517 28.2474 238.002 28.7984 238.382 29.5077C238.762 30.2171 238.952 31.0657 238.952 32.0537C238.952 33.0354 238.733 33.9125 238.296 34.6852C237.859 35.4515 237.188 36.0563 236.282 36.4997C235.383 36.9366 234.237 37.1551 232.843 37.1551H225.918ZM227.694 35.5592H232.843C234.344 35.5592 235.453 35.2267 236.168 34.5617C236.89 33.8967 237.251 33.0607 237.251 32.0537C237.251 31.3127 237.071 30.6414 236.71 30.0397C236.355 29.4317 235.852 28.9504 235.199 28.5957C234.553 28.2411 233.793 28.0637 232.919 28.0637H227.694V35.5592ZM227.694 26.4868H232.644C233.41 26.4868 234.082 26.3284 234.658 26.0118C235.234 25.6951 235.684 25.2581 236.007 24.7008C236.33 24.1435 236.491 23.507 236.491 22.7913C236.491 21.759 236.156 20.9198 235.484 20.2738C234.813 19.6215 233.812 19.2953 232.482 19.2953H227.694V26.4868Z" fill="#588D49"/>
<path d="M244.578 17.6994V37.1551H242.887V17.6994H244.578Z" fill="#588D49"/>
<path d="M253.128 37.4876C252.248 37.4876 251.443 37.3166 250.715 36.9746C249.987 36.6263 249.407 36.126 248.977 35.4737C248.546 34.815 248.331 34.017 248.331 33.0797C248.331 32.3577 248.467 31.7497 248.739 31.2557C249.011 30.7617 249.398 30.3564 249.898 30.0397C250.398 29.7231 250.991 29.4729 251.675 29.2892C252.359 29.1056 253.112 28.9631 253.936 28.8617C254.753 28.7604 255.443 28.6717 256.007 28.5957C256.576 28.5197 257.01 28.3994 257.308 28.2347C257.606 28.0701 257.754 27.8041 257.754 27.4368V27.0948C257.754 26.1004 257.457 25.3183 256.861 24.7483C256.273 24.172 255.424 23.8838 254.316 23.8838C253.264 23.8838 252.406 24.115 251.741 24.5773C251.082 25.0396 250.62 25.5843 250.354 26.2113L248.749 25.6318C249.078 24.8338 249.534 24.1973 250.117 23.7223C250.699 23.241 251.352 22.8958 252.074 22.6868C252.796 22.4715 253.527 22.3638 254.268 22.3638C254.825 22.3638 255.405 22.4366 256.007 22.5823C256.614 22.728 257.178 22.9813 257.697 23.3423C258.217 23.697 258.638 24.1941 258.961 24.8338C259.284 25.4671 259.445 26.2714 259.445 27.2468V37.1551H257.754V34.8467H257.65C257.447 35.2773 257.146 35.6953 256.747 36.1007C256.349 36.506 255.848 36.8385 255.247 37.0981C254.645 37.3578 253.939 37.4876 253.128 37.4876ZM253.356 35.9392C254.255 35.9392 255.034 35.7397 255.693 35.3407C256.352 34.9417 256.858 34.4128 257.213 33.7542C257.574 33.0892 257.754 32.3577 257.754 31.5597V29.4507C257.628 29.5711 257.416 29.6787 257.118 29.7737C256.827 29.8687 256.488 29.9542 256.102 30.0302C255.722 30.0999 255.342 30.1601 254.962 30.2107C254.582 30.2614 254.24 30.3057 253.936 30.3437C253.112 30.4451 252.409 30.6034 251.827 30.8187C251.244 31.034 250.797 31.3317 250.487 31.7117C250.177 32.0854 250.022 32.5667 250.022 33.1557C250.022 34.0423 250.338 34.7295 250.972 35.2172C251.605 35.6985 252.4 35.9392 253.356 35.9392Z" fill="#588D49"/>
<path d="M269.644 37.4591C268.339 37.4591 267.202 37.133 266.233 36.4807C265.27 35.8283 264.523 34.9353 263.991 33.8017C263.459 32.668 263.193 31.376 263.193 29.9257C263.193 28.4627 263.462 27.1613 264.001 26.0213C264.545 24.8813 265.299 23.9883 266.262 23.3423C267.224 22.69 268.342 22.3638 269.615 22.3638C270.59 22.3638 271.474 22.5538 272.266 22.9338C273.057 23.3075 273.71 23.8363 274.223 24.5203C274.742 25.1979 275.068 25.9896 275.201 26.8953H273.491C273.314 26.0719 272.886 25.3689 272.209 24.7863C271.537 24.1973 270.682 23.9028 269.644 23.9028C268.713 23.9028 267.889 24.1561 267.174 24.6628C266.458 25.1631 265.897 25.8629 265.492 26.7623C265.093 27.6553 264.894 28.6907 264.894 29.8687C264.894 31.053 265.09 32.1012 265.483 33.0132C265.875 33.9188 266.426 34.6282 267.136 35.1412C267.851 35.6542 268.687 35.9107 269.644 35.9107C270.29 35.9107 270.879 35.7903 271.411 35.5497C271.949 35.3027 272.399 34.9543 272.76 34.5047C273.127 34.055 273.374 33.5199 273.501 32.8992H275.211C275.084 33.7795 274.77 34.5648 274.27 35.2552C273.776 35.9392 273.133 36.4775 272.342 36.8702C271.556 37.2628 270.657 37.4591 269.644 37.4591Z" fill="#588D49"/>
<path d="M280.374 31.6452L280.355 29.4317H280.735L287.575 22.5633H289.712L282.958 29.3272L282.806 29.3557L280.374 31.6452ZM278.835 37.1551V17.6994H280.526V37.1551H278.835ZM287.926 37.1551L281.998 29.6597L283.214 28.4912L290.092 37.1551H287.926Z" fill="#588D49"/>
<path d="M300.765 37.1551V17.6994H312.023V19.2953H302.542V26.6198H311.139V28.2157H302.542V37.1551H300.765Z" fill="#588D49"/>
<path d="M315.932 37.1551V22.5633H317.575V24.8053H317.699C317.99 24.0706 318.497 23.4785 319.219 23.0288C319.947 22.5728 320.77 22.3448 321.689 22.3448C321.828 22.3448 321.983 22.348 322.154 22.3543C322.325 22.3606 322.468 22.367 322.582 22.3733V24.0928C322.506 24.0801 322.373 24.0611 322.183 24.0358C321.993 24.0105 321.787 23.9978 321.565 23.9978C320.805 23.9978 320.128 24.1593 319.532 24.4823C318.943 24.799 318.478 25.2391 318.136 25.8028C317.794 26.3664 317.623 27.0093 317.623 27.7313V37.1551H315.932Z" fill="#588D49"/>
<path d="M325.486 37.1551V22.5633H327.187V37.1551H325.486ZM326.351 20.0553C326.002 20.0553 325.705 19.9382 325.458 19.7038C325.211 19.4632 325.087 19.175 325.087 18.8394C325.087 18.5037 325.211 18.2187 325.458 17.9844C325.705 17.7437 326.002 17.6234 326.351 17.6234C326.699 17.6234 326.997 17.7437 327.244 17.9844C327.491 18.2187 327.614 18.5037 327.614 18.8394C327.614 19.175 327.491 19.4632 327.244 19.7038C326.997 19.9382 326.699 20.0553 326.351 20.0553Z" fill="#588D49"/>
<path d="M336.912 37.4591C335.715 37.4591 334.667 37.1425 333.768 36.5092C332.869 35.8758 332.166 34.9923 331.659 33.8587C331.159 32.725 330.908 31.4045 330.908 29.8972C330.908 28.3962 331.159 27.0821 331.659 25.9548C332.166 24.8211 332.872 23.9408 333.777 23.3138C334.683 22.6805 335.738 22.3638 336.941 22.3638C337.827 22.3638 338.565 22.5221 339.154 22.8388C339.743 23.1491 340.215 23.5355 340.57 23.9978C340.924 24.4601 341.2 24.9098 341.396 25.3468H341.548V17.6994H343.249V37.1551H341.596V34.4477H341.396C341.2 34.891 340.921 35.347 340.56 35.8157C340.199 36.278 339.721 36.6675 339.126 36.9841C338.537 37.3008 337.799 37.4591 336.912 37.4591ZM337.112 35.9107C338.055 35.9107 338.86 35.6542 339.525 35.1412C340.19 34.6218 340.696 33.9094 341.045 33.0037C341.399 32.0917 341.577 31.0467 341.577 29.8687C341.577 28.7034 341.403 27.6743 341.054 26.7813C340.706 25.8819 340.199 25.1789 339.534 24.6723C338.869 24.1593 338.062 23.9028 337.112 23.9028C336.137 23.9028 335.313 24.1688 334.642 24.7008C333.977 25.2264 333.47 25.9389 333.122 26.8383C332.78 27.7376 332.609 28.7477 332.609 29.8687C332.609 31.0024 332.783 32.0252 333.131 32.9372C333.48 33.8492 333.986 34.5743 334.651 35.1127C335.323 35.6447 336.143 35.9107 337.112 35.9107Z" fill="#588D49"/>
<path d="M352.141 37.4876C351.26 37.4876 350.456 37.3166 349.728 36.9746C348.999 36.6263 348.42 36.126 347.989 35.4737C347.559 34.815 347.343 34.017 347.343 33.0797C347.343 32.3577 347.479 31.7497 347.752 31.2557C348.024 30.7617 348.41 30.3564 348.911 30.0397C349.411 29.7231 350.003 29.4729 350.687 29.2892C351.371 29.1056 352.125 28.9631 352.948 28.8617C353.765 28.7604 354.455 28.6717 355.019 28.5957C355.589 28.5197 356.023 28.3994 356.321 28.2347C356.618 28.0701 356.767 27.8041 356.767 27.4368V27.0948C356.767 26.1004 356.469 25.3183 355.874 24.7483C355.285 24.172 354.436 23.8838 353.328 23.8838C352.277 23.8838 351.419 24.115 350.754 24.5773C350.095 25.0396 349.633 25.5843 349.367 26.2113L347.761 25.6318C348.091 24.8338 348.547 24.1973 349.129 23.7223C349.712 23.241 350.364 22.8958 351.086 22.6868C351.808 22.4715 352.54 22.3638 353.281 22.3638C353.838 22.3638 354.417 22.4366 355.019 22.5823C355.627 22.728 356.191 22.9813 356.71 23.3423C357.229 23.697 357.651 24.1941 357.974 24.8338C358.297 25.4671 358.458 26.2714 358.458 27.2468V37.1551H356.767V34.8467H356.663C356.46 35.2773 356.159 35.6953 355.76 36.1007C355.361 36.506 354.861 36.8385 354.259 37.0981C353.657 37.3578 352.951 37.4876 352.141 37.4876ZM352.369 35.9392C353.268 35.9392 354.047 35.7397 354.706 35.3407C355.364 34.9417 355.871 34.4128 356.226 33.7542C356.587 33.0892 356.767 32.3577 356.767 31.5597V29.4507C356.64 29.5711 356.428 29.6787 356.131 29.7737C355.839 29.8687 355.5 29.9542 355.114 30.0302C354.734 30.0999 354.354 30.1601 353.974 30.2107C353.594 30.2614 353.252 30.3057 352.948 30.3437C352.125 30.4451 351.422 30.6034 350.839 30.8187C350.257 31.034 349.81 31.3317 349.5 31.7117C349.189 32.0854 349.034 32.5667 349.034 33.1557C349.034 34.0423 349.351 34.7295 349.984 35.2172C350.618 35.6985 351.412 35.9392 352.369 35.9392Z" fill="#588D49"/>
<path d="M363.612 42.6271C363.276 42.6271 362.963 42.5954 362.671 42.5321C362.38 42.4688 362.149 42.3991 361.978 42.3231L362.434 40.8316C363.01 41.0089 363.523 41.0723 363.973 41.0216C364.422 40.9773 364.821 40.7746 365.17 40.4136C365.518 40.0589 365.828 39.5143 366.101 38.7796L366.633 37.2976L361.265 22.5633H363.099L367.431 34.9227H367.564L371.896 22.5633H373.729L367.554 39.4636C367.295 40.1666 366.975 40.7524 366.595 41.2211C366.215 41.6961 365.775 42.0476 365.274 42.2756C364.78 42.5099 364.226 42.6271 363.612 42.6271Z" fill="#588D49"/>
<path d="M384.029 32.9752V31.5312L392.703 17.6994H393.767V20.1218H392.978L386.015 31.2557V31.3792H397.386V32.9752H384.029ZM393.111 37.1551V32.5192V31.8542V17.6994H394.802V37.1551H393.111Z" fill="#588D49"/>
<path d="M407.283 37.4211C405.915 37.4211 404.746 37.0285 403.777 36.2432C402.815 35.4515 402.074 34.3083 401.554 32.8137C401.041 31.319 400.785 29.5236 400.785 27.4273C400.785 25.3373 401.041 23.5481 401.554 22.0598C402.074 20.5652 402.818 19.422 403.787 18.6304C404.762 17.8324 405.927 17.4334 407.283 17.4334C408.638 17.4334 409.8 17.8324 410.769 18.6304C411.745 19.422 412.489 20.5652 413.002 22.0598C413.521 23.5481 413.781 25.3373 413.781 27.4273C413.781 29.5236 413.521 31.319 413.002 32.8137C412.489 34.3083 411.748 35.4515 410.779 36.2432C409.816 37.0285 408.651 37.4211 407.283 37.4211ZM407.283 35.8252C408.784 35.8252 409.955 35.0937 410.798 33.6307C411.64 32.1614 412.061 30.0936 412.061 27.4273C412.061 25.6539 411.868 24.1403 411.482 22.8863C411.102 21.626 410.554 20.6633 409.838 19.9983C409.129 19.3333 408.277 19.0008 407.283 19.0008C405.794 19.0008 404.626 19.7418 403.777 21.2238C402.929 22.6995 402.504 24.7673 402.504 27.4273C402.504 29.2006 402.694 30.7142 403.074 31.9682C403.461 33.2222 404.008 34.1785 404.718 34.8372C405.433 35.4958 406.288 35.8252 407.283 35.8252Z" fill="#588D49"/>
<path d="M427.489 33.5452V32.6617C427.489 31.9334 427.635 31.2779 427.926 30.6952C428.217 30.1062 428.632 29.6407 429.171 29.2987C429.709 28.9567 430.349 28.7857 431.09 28.7857C431.837 28.7857 432.477 28.9567 433.009 29.2987C433.54 29.6407 433.949 30.1062 434.234 30.6952C434.519 31.2779 434.661 31.9334 434.661 32.6617V33.5452C434.661 34.2735 434.516 34.929 434.225 35.5117C433.94 36.0943 433.531 36.5598 432.999 36.9081C432.467 37.2501 431.831 37.4211 431.09 37.4211C430.336 37.4211 429.69 37.2501 429.152 36.9081C428.62 36.5598 428.208 36.0943 427.917 35.5117C427.632 34.929 427.489 34.2735 427.489 33.5452ZM428.981 32.6617V33.5452C428.981 34.2608 429.155 34.872 429.503 35.3787C429.858 35.879 430.387 36.1292 431.09 36.1292C431.774 36.1292 432.29 35.879 432.638 35.3787C432.986 34.872 433.161 34.2608 433.161 33.5452V32.6617C433.161 31.946 432.99 31.338 432.648 30.8377C432.306 30.3311 431.786 30.0777 431.09 30.0777C430.399 30.0777 429.874 30.3311 429.513 30.8377C429.158 31.338 428.981 31.946 428.981 32.6617ZM417.685 22.1928V21.3093C417.685 20.581 417.831 19.9255 418.122 19.3428C418.414 18.7602 418.828 18.2979 419.367 17.9559C419.905 17.6075 420.545 17.4334 421.286 17.4334C422.033 17.4334 422.673 17.6075 423.205 17.9559C423.737 18.2979 424.145 18.7602 424.43 19.3428C424.715 19.9255 424.858 20.581 424.858 21.3093V22.1928C424.858 22.9211 424.712 23.5798 424.421 24.1688C424.136 24.7515 423.727 25.2138 423.195 25.5558C422.663 25.8978 422.027 26.0688 421.286 26.0688C420.532 26.0688 419.886 25.8978 419.348 25.5558C418.816 25.2138 418.404 24.7515 418.113 24.1688C417.828 23.5798 417.685 22.9211 417.685 22.1928ZM419.177 21.3093V22.1928C419.177 22.9085 419.351 23.5196 419.699 24.0263C420.054 24.5266 420.583 24.7768 421.286 24.7768C421.97 24.7768 422.486 24.5266 422.834 24.0263C423.182 23.5196 423.357 22.9085 423.357 22.1928V21.3093C423.357 20.5937 423.186 19.9857 422.844 19.4853C422.502 18.9787 421.982 18.7254 421.286 18.7254C420.595 18.7254 420.07 18.9787 419.709 19.4853C419.354 19.9857 419.177 20.5937 419.177 21.3093ZM418.559 37.1551L431.926 17.6994H433.607L420.241 37.1551H418.559Z" fill="#588D49"/>
<path d="M444.781 37.4591C443.521 37.4591 442.406 37.1393 441.437 36.4997C440.475 35.86 439.721 34.9765 439.176 33.8492C438.632 32.7155 438.359 31.4077 438.359 29.9257C438.359 28.4311 438.632 27.1169 439.176 25.9833C439.721 24.8433 440.475 23.9566 441.437 23.3233C442.406 22.6836 443.521 22.3638 444.781 22.3638C446.042 22.3638 447.153 22.6836 448.116 23.3233C449.078 23.963 449.832 24.8496 450.377 25.9833C450.928 27.1169 451.203 28.4311 451.203 29.9257C451.203 31.4077 450.931 32.7155 450.386 33.8492C449.842 34.9765 449.085 35.86 448.116 36.4997C447.153 37.1393 446.042 37.4591 444.781 37.4591ZM444.781 35.9107C445.795 35.9107 446.653 35.6383 447.356 35.0937C448.059 34.549 448.591 33.8239 448.952 32.9182C449.319 32.0125 449.503 31.015 449.503 29.9257C449.503 28.8364 449.319 27.8358 448.952 26.9238C448.591 26.0118 448.059 25.2803 447.356 24.7293C446.653 24.1783 445.795 23.9028 444.781 23.9028C443.774 23.9028 442.916 24.1783 442.207 24.7293C441.504 25.2803 440.969 26.0118 440.601 26.9238C440.24 27.8358 440.06 28.8364 440.06 29.9257C440.06 31.015 440.24 32.0125 440.601 32.9182C440.969 33.8239 441.504 34.549 442.207 35.0937C442.91 35.6383 443.768 35.9107 444.781 35.9107Z" fill="#588D49"/>
<path d="M460.919 22.5633V24.0358H453.747V22.5633H460.919ZM455.989 37.1551V20.4258C455.989 19.6405 456.169 18.9787 456.53 18.4404C456.898 17.902 457.376 17.4935 457.965 17.2149C458.554 16.9362 459.178 16.7969 459.836 16.7969C460.28 16.7969 460.647 16.8349 460.938 16.9109C461.236 16.9805 461.47 17.0502 461.641 17.1199L461.147 18.6019C461.021 18.5639 460.865 18.5195 460.682 18.4689C460.498 18.4182 460.267 18.3929 459.988 18.3929C459.254 18.3929 458.687 18.5987 458.288 19.0104C457.889 19.422 457.689 20.011 457.689 20.7773L457.68 37.1551H455.989Z" fill="#588D49"/>
<path d="M470.298 22.5633V24.0358H463.126V22.5633H470.298ZM465.368 37.1551V20.4258C465.368 19.6405 465.548 18.9787 465.909 18.4404C466.276 17.902 466.755 17.4935 467.343 17.2149C467.932 16.9362 468.556 16.7969 469.215 16.7969C469.658 16.7969 470.026 16.8349 470.317 16.9109C470.615 16.9805 470.849 17.0502 471.02 17.1199L470.526 18.6019C470.399 18.5639 470.244 18.5195 470.06 18.4689C469.877 18.4182 469.646 18.3929 469.367 18.3929C468.632 18.3929 468.065 18.5987 467.666 19.0104C467.268 19.422 467.068 20.011 467.068 20.7773L467.059 37.1551H465.368Z" fill="#588D49"/>
<path d="M473.507 37.2976C473.133 37.2976 472.81 37.1646 472.538 36.8987C472.272 36.6263 472.139 36.3033 472.139 35.9297C472.139 35.5497 472.272 35.2267 472.538 34.9607C472.81 34.6947 473.133 34.5617 473.507 34.5617C473.887 34.5617 474.21 34.6947 474.476 34.9607C474.742 35.2267 474.875 35.5497 474.875 35.9297C474.875 36.1767 474.811 36.4047 474.685 36.6137C474.564 36.8226 474.4 36.9905 474.191 37.1171C473.988 37.2375 473.76 37.2976 473.507 37.2976Z" fill="#588D49"/>
<path d="M480.691 37.2976C480.317 37.2976 479.994 37.1646 479.722 36.8987C479.456 36.6263 479.323 36.3033 479.323 35.9297C479.323 35.5497 479.456 35.2267 479.722 34.9607C479.994 34.6947 480.317 34.5617 480.691 34.5617C481.071 34.5617 481.394 34.6947 481.66 34.9607C481.926 35.2267 482.059 35.5497 482.059 35.9297C482.059 36.1767 481.995 36.4047 481.869 36.6137C481.748 36.8226 481.584 36.9905 481.375 37.1171C481.172 37.2375 480.944 37.2976 480.691 37.2976Z" fill="#588D49"/>
<path d="M487.875 37.2976C487.501 37.2976 487.178 37.1646 486.906 36.8987C486.64 36.6263 486.507 36.3033 486.507 35.9297C486.507 35.5497 486.64 35.2267 486.906 34.9607C487.178 34.6947 487.501 34.5617 487.875 34.5617C488.255 34.5617 488.578 34.6947 488.844 34.9607C489.11 35.2267 489.243 35.5497 489.243 35.9297C489.243 36.1767 489.18 36.4047 489.053 36.6137C488.933 36.8226 488.768 36.9905 488.559 37.1171C488.356 37.2375 488.128 37.2976 487.875 37.2976Z" fill="#588D49"/>
<rect x="358.145" y="71.8379" width="272.462" height="52.5034" rx="7.5" stroke="#B1D2A8"/>
<path d="M393.3 95.1172H391.514C391.381 94.4522 391.141 93.8379 390.792 93.2742C390.45 92.7042 390.02 92.2071 389.5 91.7827C388.981 91.3584 388.392 91.0291 387.733 90.7947C387.075 90.5604 386.362 90.4432 385.596 90.4432C384.367 90.4432 383.246 90.7631 382.233 91.4027C381.226 92.0424 380.418 92.9829 379.81 94.2242C379.209 95.4592 378.908 96.9728 378.908 98.7651C378.908 100.57 379.209 102.09 379.81 103.325C380.418 104.56 381.226 105.497 382.233 106.137C383.246 106.77 384.367 107.087 385.596 107.087C386.362 107.087 387.075 106.97 387.733 106.736C388.392 106.501 388.981 106.175 389.5 105.757C390.02 105.333 390.45 104.836 390.792 104.266C391.141 103.696 391.381 103.078 391.514 102.413H393.3C393.142 103.306 392.844 104.139 392.407 104.912C391.977 105.678 391.426 106.349 390.754 106.926C390.089 107.502 389.323 107.952 388.455 108.275C387.588 108.598 386.635 108.759 385.596 108.759C383.962 108.759 382.512 108.351 381.245 107.534C379.978 106.71 378.984 105.551 378.262 104.057C377.546 102.562 377.188 100.798 377.188 98.7651C377.188 96.7322 377.546 94.9684 378.262 93.4737C378.984 91.9791 379.978 90.8232 381.245 90.0062C382.512 89.1829 383.962 88.7713 385.596 88.7713C386.635 88.7713 387.588 88.9328 388.455 89.2558C389.323 89.5724 390.089 90.0221 390.754 90.6047C391.426 91.1811 391.977 91.8524 392.407 92.6187C392.844 93.385 393.142 94.2179 393.3 95.1172Z" fill="#588D49"/>
<path d="M398.813 99.3731V108.493H397.122V89.0373H398.813V96.1907H398.965C399.307 95.437 399.835 94.8354 400.551 94.3857C401.273 93.936 402.185 93.7112 403.287 93.7112C404.275 93.7112 405.143 93.9139 405.89 94.3192C406.637 94.7245 407.22 95.323 407.638 96.1147C408.056 96.9063 408.265 97.8817 408.265 99.0406V108.493H406.565V99.1451C406.565 97.9418 406.229 96.995 405.558 96.3047C404.893 95.608 403.993 95.2597 402.86 95.2597C402.081 95.2597 401.387 95.4244 400.779 95.7537C400.171 96.083 399.69 96.558 399.335 97.1787C398.987 97.793 398.813 98.5245 398.813 99.3731Z" fill="#588D49"/>
<path d="M412.718 108.493V93.9012H414.362V96.1432H414.485C414.776 95.4085 415.283 94.8164 416.005 94.3667C416.733 93.9107 417.557 93.6827 418.475 93.6827C418.614 93.6827 418.77 93.6859 418.941 93.6922C419.111 93.6985 419.254 93.7049 419.368 93.7112V95.4307C419.292 95.418 419.159 95.399 418.969 95.3737C418.779 95.3484 418.573 95.3357 418.352 95.3357C417.592 95.3357 416.914 95.4972 416.319 95.8202C415.73 96.1368 415.264 96.577 414.922 97.1407C414.58 97.7043 414.409 98.3471 414.409 99.0691V108.493H412.718Z" fill="#588D49"/>
<path d="M422.273 108.493V93.9012H423.973V108.493H422.273ZM423.137 91.3932C422.789 91.3932 422.491 91.2761 422.244 91.0417C421.997 90.8011 421.874 90.5129 421.874 90.1772C421.874 89.8416 421.997 89.5566 422.244 89.3223C422.491 89.0816 422.789 88.9613 423.137 88.9613C423.485 88.9613 423.783 89.0816 424.03 89.3223C424.277 89.5566 424.401 89.8416 424.401 90.1772C424.401 90.5129 424.277 90.8011 424.03 91.0417C423.783 91.2761 423.485 91.3932 423.137 91.3932Z" fill="#588D49"/>
<path d="M438.249 97.1027L436.701 97.5397C436.549 97.1027 436.333 96.7068 436.055 96.3522C435.776 95.9975 435.412 95.7157 434.962 95.5067C434.519 95.2977 433.968 95.1932 433.309 95.1932C432.321 95.1932 431.51 95.4275 430.877 95.8962C430.244 96.3648 429.927 96.9697 429.927 97.7107C429.927 98.3377 430.142 98.8475 430.573 99.2401C431.01 99.6265 431.681 99.9336 432.587 100.162L434.791 100.703C436.013 101.001 436.929 101.473 437.537 102.119C438.151 102.765 438.458 103.575 438.458 104.551C438.458 105.374 438.23 106.105 437.774 106.745C437.318 107.385 436.682 107.888 435.865 108.256C435.054 108.617 434.113 108.797 433.043 108.797C431.618 108.797 430.443 108.477 429.519 107.838C428.594 107.192 428.002 106.261 427.742 105.045L429.367 104.646C429.576 105.513 429.984 106.169 430.592 106.612C431.206 107.055 432.014 107.277 433.015 107.277C434.136 107.277 435.032 107.027 435.703 106.527C436.374 106.02 436.71 105.387 436.71 104.627C436.71 104.038 436.514 103.544 436.121 103.145C435.728 102.739 435.133 102.442 434.335 102.252L431.951 101.682C430.684 101.378 429.747 100.896 429.139 100.238C428.531 99.579 428.227 98.762 428.227 97.7867C428.227 96.9823 428.445 96.2762 428.882 95.6682C429.319 95.0539 429.921 94.5725 430.687 94.2242C431.453 93.8759 432.327 93.7017 433.309 93.7017C434.645 93.7017 435.713 94.0057 436.511 94.6137C437.315 95.2154 437.894 96.045 438.249 97.1027Z" fill="#588D49"/>
<path d="M447.908 93.9012V95.3737H440.945V93.9012H447.908ZM443.12 90.4052H444.821V104.684C444.821 105.292 444.925 105.77 445.134 106.118C445.343 106.46 445.615 106.704 445.951 106.85C446.287 106.989 446.645 107.059 447.025 107.059C447.246 107.059 447.436 107.046 447.595 107.021C447.753 106.989 447.892 106.957 448.013 106.926L448.374 108.455C448.209 108.518 448.006 108.575 447.766 108.626C447.525 108.683 447.227 108.712 446.873 108.712C446.252 108.712 445.653 108.575 445.077 108.303C444.507 108.031 444.038 107.625 443.671 107.087C443.304 106.549 443.12 105.881 443.12 105.083V90.4052Z" fill="#588D49"/>
<path d="M451.748 108.493V93.9012H453.392V96.1432H453.544C453.835 95.3895 454.32 94.7974 454.997 94.3667C455.681 93.9297 456.501 93.7112 457.458 93.7112C458.465 93.7112 459.291 93.9487 459.937 94.4237C460.59 94.8924 461.077 95.5383 461.4 96.3617H461.524C461.853 95.551 462.388 94.9082 463.129 94.4332C463.877 93.9519 464.782 93.7112 465.846 93.7112C467.202 93.7112 468.272 94.1387 469.057 94.9937C469.843 95.8423 470.235 97.0837 470.235 98.7176V108.493H468.544V98.7176C468.544 97.565 468.25 96.7005 467.661 96.1242C467.072 95.5478 466.296 95.2597 465.333 95.2597C464.219 95.2597 463.36 95.6017 462.759 96.2857C462.157 96.9697 461.856 97.8373 461.856 98.8886V108.493H460.127V98.5656C460.127 97.5777 459.852 96.7797 459.301 96.1717C458.75 95.5637 457.974 95.2597 456.973 95.2597C456.302 95.2597 455.697 95.4244 455.159 95.7537C454.627 96.083 454.206 96.5422 453.895 97.1312C453.591 97.7138 453.439 98.3852 453.439 99.1451V108.493H451.748Z" fill="#588D49"/>
<path d="M478.787 108.826C477.907 108.826 477.103 108.655 476.374 108.313C475.646 107.964 475.067 107.464 474.636 106.812C474.205 106.153 473.99 105.355 473.99 104.418C473.99 103.696 474.126 103.088 474.398 102.594C474.671 102.1 475.057 101.694 475.557 101.378C476.058 101.061 476.65 100.811 477.334 100.627C478.018 100.443 478.772 100.301 479.595 100.2C480.412 100.098 481.102 100.01 481.666 99.9336C482.236 99.8576 482.67 99.7373 482.967 99.5726C483.265 99.408 483.414 99.142 483.414 98.7746V98.4326C483.414 97.4383 483.116 96.6562 482.521 96.0862C481.932 95.5098 481.083 95.2217 479.975 95.2217C478.924 95.2217 478.065 95.4529 477.4 95.9152C476.742 96.3775 476.279 96.9222 476.013 97.5492L474.408 96.9697C474.737 96.1717 475.193 95.5352 475.776 95.0602C476.359 94.5789 477.011 94.2337 477.733 94.0247C478.455 93.8094 479.186 93.7017 479.927 93.7017C480.485 93.7017 481.064 93.7745 481.666 93.9202C482.274 94.0659 482.838 94.3192 483.357 94.6802C483.876 95.0349 484.297 95.532 484.62 96.1717C484.943 96.805 485.105 97.6093 485.105 98.5846V108.493H483.414V106.185H483.309C483.107 106.615 482.806 107.033 482.407 107.439C482.008 107.844 481.508 108.176 480.906 108.436C480.304 108.696 479.598 108.826 478.787 108.826ZM479.015 107.277C479.915 107.277 480.694 107.078 481.352 106.679C482.011 106.28 482.518 105.751 482.872 105.092C483.233 104.427 483.414 103.696 483.414 102.898V100.789C483.287 100.909 483.075 101.017 482.777 101.112C482.486 101.207 482.147 101.292 481.761 101.368C481.381 101.438 481.001 101.498 480.621 101.549C480.241 101.599 479.899 101.644 479.595 101.682C478.772 101.783 478.069 101.941 477.486 102.157C476.903 102.372 476.457 102.67 476.146 103.05C475.836 103.423 475.681 103.905 475.681 104.494C475.681 105.38 475.998 106.067 476.631 106.555C477.264 107.036 478.059 107.277 479.015 107.277Z" fill="#588D49"/>
<path d="M499.407 97.1027L497.858 97.5397C497.706 97.1027 497.491 96.7068 497.212 96.3522C496.934 95.9975 496.57 95.7157 496.12 95.5067C495.677 95.2977 495.126 95.1932 494.467 95.1932C493.479 95.1932 492.668 95.4275 492.035 95.8962C491.402 96.3648 491.085 96.9697 491.085 97.7107C491.085 98.3377 491.3 98.8475 491.731 99.2401C492.168 99.6265 492.839 99.9336 493.745 100.162L495.949 100.703C497.171 101.001 498.086 101.473 498.694 102.119C499.309 102.765 499.616 103.575 499.616 104.551C499.616 105.374 499.388 106.105 498.932 106.745C498.476 107.385 497.839 107.888 497.022 108.256C496.212 108.617 495.271 108.797 494.201 108.797C492.776 108.797 491.601 108.477 490.677 107.838C489.752 107.192 489.16 106.261 488.9 105.045L490.525 104.646C490.734 105.513 491.142 106.169 491.75 106.612C492.364 107.055 493.172 107.277 494.173 107.277C495.294 107.277 496.19 107.027 496.861 106.527C497.532 106.02 497.868 105.387 497.868 104.627C497.868 104.038 497.672 103.544 497.279 103.145C496.886 102.739 496.291 102.442 495.493 102.252L493.109 101.682C491.842 101.378 490.905 100.896 490.297 100.238C489.689 99.579 489.385 98.762 489.385 97.7867C489.385 96.9823 489.603 96.2762 490.04 95.6682C490.477 95.0539 491.079 94.5725 491.845 94.2242C492.611 93.8759 493.485 93.7017 494.467 93.7017C495.803 93.7017 496.87 94.0057 497.668 94.6137C498.473 95.2154 499.052 96.045 499.407 97.1027Z" fill="#588D49"/>
<path d="M510.776 108.493V107.192L517.131 100.048C517.961 99.1103 518.629 98.3092 519.136 97.6442C519.643 96.9792 520.01 96.3648 520.238 95.8012C520.472 95.2375 520.589 94.6517 520.589 94.0437C520.589 93.3027 520.415 92.6567 520.067 92.1057C519.725 91.5484 519.253 91.1146 518.651 90.8042C518.05 90.4939 517.372 90.3387 516.618 90.3387C515.82 90.3387 515.121 90.5097 514.519 90.8517C513.924 91.1937 513.461 91.6624 513.132 92.2577C512.803 92.853 512.638 93.537 512.638 94.3097H510.937C510.937 93.233 511.184 92.2799 511.678 91.4502C512.179 90.6142 512.86 89.9587 513.721 89.4838C514.589 89.0088 515.57 88.7713 516.666 88.7713C517.749 88.7713 518.712 89.0056 519.554 89.4743C520.396 89.9366 521.058 90.5667 521.539 91.3647C522.021 92.1627 522.261 93.0557 522.261 94.0437C522.261 94.7594 522.135 95.4529 521.881 96.1242C521.634 96.7955 521.207 97.5428 520.599 98.3661C519.991 99.1895 519.149 100.196 518.072 101.387L513.246 106.774V106.897H522.869V108.493H510.776Z" fill="#588D49"/>
<path d="M532.794 108.759C531.711 108.759 530.742 108.541 529.887 108.104C529.039 107.66 528.361 107.052 527.854 106.28C527.354 105.507 527.088 104.623 527.056 103.629H528.776C528.833 104.661 529.238 105.51 529.992 106.175C530.746 106.834 531.68 107.163 532.794 107.163C533.662 107.163 534.435 106.957 535.112 106.546C535.79 106.128 536.319 105.558 536.699 104.836C537.085 104.107 537.278 103.287 537.278 102.375C537.272 101.425 537.066 100.589 536.661 99.8671C536.255 99.1388 535.704 98.5688 535.008 98.1572C534.317 97.7455 533.542 97.5397 532.68 97.5397C532.028 97.5333 531.388 97.641 530.761 97.8627C530.134 98.0843 529.612 98.3693 529.194 98.7176L527.417 98.4896L528.586 89.0373H538.2V90.6332H530.077L529.298 97.1407H529.393C529.824 96.7797 530.347 96.4852 530.961 96.2572C531.582 96.0292 532.237 95.9152 532.927 95.9152C534.074 95.9152 535.103 96.1907 536.015 96.7417C536.933 97.2927 537.658 98.0527 538.19 99.0216C538.729 99.9843 538.998 101.093 538.998 102.347C538.998 103.575 538.729 104.674 538.19 105.643C537.658 106.606 536.924 107.366 535.986 107.923C535.055 108.48 533.991 108.759 532.794 108.759Z" fill="#588D49"/>
<path d="M552.882 104.883V104C552.882 103.271 553.028 102.616 553.319 102.033C553.61 101.444 554.025 100.979 554.563 100.637C555.102 100.295 555.741 100.124 556.482 100.124C557.23 100.124 557.869 100.295 558.401 100.637C558.933 100.979 559.342 101.444 559.627 102.033C559.912 102.616 560.054 103.271 560.054 104V104.883C560.054 105.611 559.909 106.267 559.617 106.85C559.332 107.432 558.924 107.898 558.392 108.246C557.86 108.588 557.223 108.759 556.482 108.759C555.729 108.759 555.083 108.588 554.544 108.246C554.012 107.898 553.601 107.432 553.309 106.85C553.024 106.267 552.882 105.611 552.882 104.883ZM554.373 104V104.883C554.373 105.599 554.548 106.21 554.896 106.717C555.251 107.217 555.779 107.467 556.482 107.467C557.166 107.467 557.682 107.217 558.031 106.717C558.379 106.21 558.553 105.599 558.553 104.883V104C558.553 103.284 558.382 102.676 558.04 102.176C557.698 101.669 557.179 101.416 556.482 101.416C555.792 101.416 555.266 101.669 554.905 102.176C554.551 102.676 554.373 103.284 554.373 104ZM543.078 93.5307V92.6472C543.078 91.9189 543.224 91.2634 543.515 90.6807C543.806 90.0981 544.221 89.6357 544.759 89.2938C545.298 88.9454 545.937 88.7713 546.678 88.7713C547.426 88.7713 548.065 88.9454 548.597 89.2938C549.129 89.6357 549.538 90.0981 549.823 90.6807C550.108 91.2634 550.25 91.9189 550.25 92.6472V93.5307C550.25 94.259 550.105 94.9177 549.813 95.5067C549.528 96.0893 549.12 96.5517 548.588 96.8937C548.056 97.2357 547.419 97.4067 546.678 97.4067C545.925 97.4067 545.279 97.2357 544.74 96.8937C544.208 96.5517 543.797 96.0893 543.505 95.5067C543.22 94.9177 543.078 94.259 543.078 93.5307ZM544.569 92.6472V93.5307C544.569 94.2464 544.744 94.8575 545.092 95.3642C545.447 95.8645 545.975 96.1147 546.678 96.1147C547.362 96.1147 547.879 95.8645 548.227 95.3642C548.575 94.8575 548.749 94.2464 548.749 93.5307V92.6472C548.749 91.9316 548.578 91.3236 548.236 90.8232C547.894 90.3166 547.375 90.0632 546.678 90.0632C545.988 90.0632 545.462 90.3166 545.101 90.8232C544.747 91.3236 544.569 91.9316 544.569 92.6472ZM543.952 108.493L557.318 89.0373H559L545.633 108.493H543.952Z" fill="#588D49"/>
<path d="M570.174 108.797C568.914 108.797 567.799 108.477 566.83 107.838C565.867 107.198 565.114 106.314 564.569 105.187C564.024 104.053 563.752 102.746 563.752 101.264C563.752 99.769 564.024 98.4548 564.569 97.3212C565.114 96.1812 565.867 95.2945 566.83 94.6612C567.799 94.0215 568.914 93.7017 570.174 93.7017C571.434 93.7017 572.546 94.0215 573.508 94.6612C574.471 95.3009 575.225 96.1875 575.769 97.3212C576.32 98.4548 576.596 99.769 576.596 101.264C576.596 102.746 576.324 104.053 575.779 105.187C575.234 106.314 574.477 107.198 573.508 107.838C572.546 108.477 571.434 108.797 570.174 108.797ZM570.174 107.249C571.187 107.249 572.046 106.976 572.749 106.432C573.451 105.887 573.983 105.162 574.344 104.256C574.712 103.35 574.895 102.353 574.895 101.264C574.895 100.174 574.712 99.1736 574.344 98.2617C573.983 97.3497 573.451 96.6182 572.749 96.0672C572.046 95.5162 571.187 95.2407 570.174 95.2407C569.167 95.2407 568.309 95.5162 567.6 96.0672C566.897 96.6182 566.361 97.3497 565.994 98.2617C565.633 99.1736 565.453 100.174 565.453 101.264C565.453 102.353 565.633 103.35 565.994 104.256C566.361 105.162 566.897 105.887 567.6 106.432C568.303 106.976 569.161 107.249 570.174 107.249Z" fill="#588D49"/>
<path d="M586.312 93.9012V95.3737H579.14V93.9012H586.312ZM581.382 108.493V91.7637C581.382 90.9784 581.562 90.3166 581.923 89.7782C582.29 89.2399 582.768 88.8314 583.357 88.5528C583.946 88.2741 584.57 88.1348 585.229 88.1348C585.672 88.1348 586.04 88.1728 586.331 88.2488C586.629 88.3184 586.863 88.3881 587.034 88.4578L586.54 89.9397C586.413 89.9017 586.258 89.8574 586.074 89.8067C585.891 89.7561 585.66 89.7307 585.381 89.7307C584.646 89.7307 584.079 89.9366 583.68 90.3482C583.281 90.7599 583.082 91.3489 583.082 92.1152L583.072 108.493H581.382Z" fill="#588D49"/>
<path d="M595.691 93.9012V95.3737H588.518V93.9012H595.691ZM590.76 108.493V91.7637C590.76 90.9784 590.941 90.3166 591.302 89.7782C591.669 89.2399 592.147 88.8314 592.736 88.5528C593.325 88.2741 593.949 88.1348 594.608 88.1348C595.051 88.1348 595.418 88.1728 595.71 88.2488C596.007 88.3184 596.242 88.3881 596.413 88.4578L595.919 89.9397C595.792 89.9017 595.637 89.8574 595.453 89.8067C595.27 89.7561 595.038 89.7307 594.76 89.7307C594.025 89.7307 593.458 89.9366 593.059 90.3482C592.66 90.7599 592.461 91.3489 592.461 92.1152L592.451 108.493H590.76Z" fill="#588D49"/>
<path d="M598.899 108.636C598.526 108.636 598.203 108.503 597.93 108.237C597.664 107.964 597.531 107.641 597.531 107.268C597.531 106.888 597.664 106.565 597.93 106.299C598.203 106.033 598.526 105.9 598.899 105.9C599.279 105.9 599.602 106.033 599.868 106.299C600.134 106.565 600.267 106.888 600.267 107.268C600.267 107.515 600.204 107.743 600.077 107.952C599.957 108.161 599.792 108.328 599.583 108.455C599.381 108.575 599.153 108.636 598.899 108.636Z" fill="#588D49"/>
<path d="M606.084 108.636C605.71 108.636 605.387 108.503 605.115 108.237C604.849 107.964 604.716 107.641 604.716 107.268C604.716 106.888 604.849 106.565 605.115 106.299C605.387 106.033 605.71 105.9 606.084 105.9C606.464 105.9 606.787 106.033 607.053 106.299C607.319 106.565 607.452 106.888 607.452 107.268C607.452 107.515 607.388 107.743 607.262 107.952C607.141 108.161 606.977 108.328 606.768 108.455C606.565 108.575 606.337 108.636 606.084 108.636Z" fill="#588D49"/>
<path d="M613.268 108.636C612.894 108.636 612.571 108.503 612.299 108.237C612.033 107.964 611.9 107.641 611.9 107.268C611.9 106.888 612.033 106.565 612.299 106.299C612.571 106.033 612.894 105.9 613.268 105.9C613.648 105.9 613.971 106.033 614.237 106.299C614.503 106.565 614.636 106.888 614.636 107.268C614.636 107.515 614.573 107.743 614.446 107.952C614.326 108.161 614.161 108.328 613.952 108.455C613.749 108.575 613.521 108.636 613.268 108.636Z" fill="#588D49"/>
</svg>
