<svg width="392" height="218" viewBox="0 0 392 218" fill="none" xmlns="http://www.w3.org/2000/svg">
<path d="M327.698 88.9541C327.698 99.9966 317.928 109.812 305.715 109.812C317.928 109.812 327.698 119.628 327.698 131.897C327.698 119.628 337.468 109.812 349.681 109.812C336.247 109.812 327.698 99.9966 327.698 88.9541Z" fill="#B1D2A8"/>
<path d="M44.4769 88.9538C44.4769 64.2444 64.2444 44.4769 88.9538 44.4769C64.2444 44.4769 44.4769 24.7094 44.4769 0C44.4769 24.7094 24.7094 44.4769 0 44.4769C24.7094 46.9479 44.4769 64.2444 44.4769 88.9538Z" fill="#B1D2A8"/>
<path d="M359.394 153.369C359.394 171.262 345.08 185.577 327.187 185.577C345.08 185.577 359.394 199.891 359.394 217.784C359.394 199.891 373.708 185.577 391.601 185.577C373.708 185.577 359.394 171.262 359.394 153.369Z" fill="#B1D2A8"/>
<path d="M18.584 216.773H115.284V130.027H18.584" fill="#B1D2A8"/>
<path d="M59.8203 216.773H74.0409V115.807H59.8203" fill="#95BD8B"/>
<path d="M11.4717 115.807H122.392V130.027H11.4717" fill="#95BD8B"/>
<path d="M68.4577 115.903C79.4712 77.2189 126.739 109.495 68.4577 115.903" stroke="#B1D2A8" stroke-width="3"/>
<path d="M63.0594 113.779C14.2315 115.805 37.8122 72.2509 63.0594 113.779" stroke="#B1D2A8" stroke-width="3"/>
<path d="M66.4477 116.655C41.521 74.6201 91.0484 74.741 66.4477 116.655" stroke="#B1D2A8" stroke-width="3"/>
<path d="M131.668 218.001H293.021V151.691H131.668" fill="#B1D2A8"/>
<path d="M120.616 151.691H304.072V173.794H120.616" fill="#95BD8B"/>
<path d="M202.397 218.001H224.501V151.691H202.397" fill="#95BD8B"/>
<path d="M215.661 151.691C140.51 140.639 189.137 80.9611 215.661 151.691" stroke="#B1D2A8" stroke-width="3"/>
<path d="M215.66 151.691C224.501 89.8026 304.072 129.588 215.66 151.691" stroke="#B1D2A8" stroke-width="3"/>
<path d="M150.3 128.829C147.626 128.829 144.956 127.814 142.916 125.787L140.378 123.249C139.394 122.268 138.076 121.726 136.679 121.723H133.108C127.337 121.723 122.641 117.026 122.641 111.255V107.681C122.637 106.287 122.095 104.969 121.111 103.978L118.615 101.486C114.526 97.4217 114.509 90.778 118.577 86.6861L121.114 84.1448C122.095 83.1609 122.637 81.8433 122.641 80.4457V76.8788C122.641 71.1043 127.337 66.4075 133.108 66.4075H136.682C138.076 66.4075 139.391 65.8652 140.381 64.8744L142.881 62.3817C146.945 58.2933 153.585 58.2724 157.681 62.3434L160.218 64.8813C161.206 65.8652 162.52 66.4075 163.914 66.4075H167.488C173.259 66.4075 177.956 71.1043 177.956 76.8788V80.4492C177.959 81.8433 178.502 83.1609 179.485 84.1517L181.982 86.6479C183.96 88.6156 185.055 91.2369 185.065 94.0355C185.072 96.8167 184.001 99.4346 182.051 101.413C182.016 101.447 181.985 101.486 181.95 101.517L179.482 103.985C178.502 104.969 177.959 106.287 177.956 107.684V111.255C177.956 117.026 173.259 121.723 167.488 121.723H163.914C162.52 121.726 161.202 122.268 160.215 123.252L157.715 125.748C155.678 127.8 152.987 128.829 150.3 128.829Z" fill="#EEAB00"/>
<path fill-rule="evenodd" clip-rule="evenodd" d="M143.501 87.2928C142.927 87.8664 142.183 88.1758 141.359 88.1758C140.588 88.1758 139.83 87.8595 139.221 87.2893C138.644 86.7157 138.317 85.93 138.317 85.1339C138.317 84.376 138.637 83.5972 139.2 82.9958C139.51 82.6829 139.878 82.4465 140.247 82.3214C141.297 81.8416 142.691 82.1232 143.518 82.9923C143.814 83.2878 144.04 83.6112 144.189 83.9484C144.353 84.3099 144.436 84.7202 144.436 85.1339C144.436 85.9613 144.106 86.7296 143.501 87.2928ZM161.4 82.9784C160.215 81.7964 158.285 81.7964 157.1 82.9784L139.23 100.848C138.045 102.033 138.045 103.963 139.23 105.152C139.808 105.725 140.569 106.042 141.382 106.042C142.196 106.042 142.957 105.725 143.531 105.152L161.4 87.2823C162.586 86.0934 162.586 84.1674 161.4 82.9784ZM160.408 100.201C159.282 99.7287 157.947 99.9859 157.057 100.876C156.872 101.091 156.612 101.425 156.434 101.818C156.247 102.242 156.222 102.698 156.222 103.004C156.222 103.309 156.247 103.761 156.434 104.186C156.608 104.575 156.817 104.891 157.092 105.166C157.721 105.75 158.451 106.046 159.264 106.046C160.036 106.046 160.794 105.733 161.416 105.152C161.969 104.599 162.272 103.834 162.272 103.004C162.272 102.169 161.969 101.408 161.413 100.852C161.107 100.549 160.738 100.313 160.408 100.201Z" fill="white"/>
<rect x="145.5" y="0.5" width="201" height="35" rx="7.5" stroke="#B1D2A8"/>
<path d="M158.738 24.9999V11.909H163.155C164.007 11.909 164.717 12.0581 165.284 12.3564C165.855 12.6547 166.283 13.0617 166.569 13.5773C166.854 14.093 166.997 14.6789 166.997 15.3351C166.997 15.8806 166.905 16.3472 166.722 16.735C166.539 17.1228 166.289 17.436 165.974 17.6746C165.659 17.9133 165.307 18.0858 164.919 18.1924V18.2947C165.341 18.3245 165.75 18.4736 166.147 18.7421C166.543 19.0063 166.869 19.377 167.125 19.8543C167.38 20.3316 167.508 20.9026 167.508 21.5674C167.508 22.2279 167.361 22.8181 167.067 23.338C166.773 23.8536 166.321 24.2606 165.712 24.5589C165.107 24.8529 164.336 24.9999 163.398 24.9999H158.738ZM159.934 23.926H163.398C164.408 23.926 165.154 23.7023 165.635 23.2549C166.121 22.8074 166.364 22.2449 166.364 21.5674C166.364 21.0688 166.243 20.6171 166 20.2123C165.761 19.8032 165.422 19.4793 164.983 19.2407C164.549 19.002 164.037 18.8827 163.449 18.8827H159.934V23.926ZM159.934 17.8216H163.264C163.779 17.8216 164.231 17.7151 164.619 17.502C165.007 17.289 165.309 16.9949 165.527 16.6199C165.744 16.2449 165.853 15.8167 165.853 15.3351C165.853 14.6405 165.627 14.0759 165.175 13.6412C164.723 13.2023 164.05 12.9829 163.155 12.9829H159.934V17.8216Z" fill="#588D49"/>
<path d="M171.294 11.909V24.9999H170.156V11.909H171.294Z" fill="#588D49"/>
<path d="M177.047 25.2236C176.454 25.2236 175.913 25.1086 175.423 24.8785C174.933 24.6441 174.543 24.3074 174.253 23.8685C173.964 23.4253 173.819 22.8884 173.819 22.2577C173.819 21.7719 173.91 21.3628 174.094 21.0305C174.277 20.6981 174.537 20.4253 174.873 20.2123C175.21 19.9992 175.608 19.8309 176.069 19.7073C176.529 19.5837 177.036 19.4878 177.59 19.4197C178.14 19.3515 178.604 19.2918 178.983 19.2407C179.367 19.1895 179.659 19.1086 179.859 18.9978C180.059 18.887 180.16 18.708 180.16 18.4608V18.2307C180.16 17.5617 179.959 17.0354 179.559 16.6519C179.162 16.2641 178.591 16.0702 177.846 16.0702C177.138 16.0702 176.561 16.2258 176.113 16.5368C175.67 16.8479 175.359 17.2144 175.18 17.6363L174.1 17.2464C174.322 16.7094 174.628 16.2812 175.02 15.9616C175.412 15.6377 175.851 15.4055 176.337 15.2648C176.823 15.1199 177.315 15.0475 177.814 15.0475C178.189 15.0475 178.579 15.0965 178.983 15.1945C179.393 15.2925 179.772 15.463 180.121 15.7059C180.471 15.9445 180.754 16.279 180.971 16.7094C181.189 17.1356 181.297 17.6768 181.297 18.333V24.9999H180.16V23.4466H180.089C179.953 23.7364 179.751 24.0177 179.482 24.2904C179.214 24.5631 178.877 24.7868 178.472 24.9616C178.067 25.1363 177.592 25.2236 177.047 25.2236ZM177.2 24.1817C177.805 24.1817 178.329 24.0475 178.773 23.779C179.216 23.5106 179.557 23.1547 179.795 22.7116C180.038 22.2641 180.16 21.7719 180.16 21.235V19.816C180.074 19.8969 179.932 19.9694 179.731 20.0333C179.535 20.0972 179.307 20.1547 179.047 20.2059C178.792 20.2528 178.536 20.2932 178.28 20.3273C178.025 20.3614 177.795 20.3912 177.59 20.4168C177.036 20.485 176.563 20.5915 176.171 20.7364C175.779 20.8813 175.479 21.0816 175.27 21.3373C175.061 21.5887 174.956 21.9126 174.956 22.3089C174.956 22.9055 175.17 23.3678 175.596 23.6959C176.022 24.0198 176.557 24.1817 177.2 24.1817Z" fill="#588D49"/>
<path d="M188.159 25.2045C187.281 25.2045 186.517 24.985 185.865 24.5461C185.217 24.1072 184.714 23.5063 184.356 22.7435C183.998 21.9807 183.819 21.1114 183.819 20.1356C183.819 19.1512 184 18.2755 184.362 17.5084C184.729 16.7414 185.236 16.1405 185.884 15.7059C186.531 15.267 187.284 15.0475 188.14 15.0475C188.796 15.0475 189.391 15.1753 189.923 15.431C190.456 15.6824 190.895 16.0383 191.24 16.4985C191.59 16.9545 191.809 17.4871 191.899 18.0965H190.748C190.629 17.5425 190.341 17.0695 189.885 16.6775C189.433 16.2812 188.858 16.083 188.159 16.083C187.533 16.083 186.979 16.2535 186.497 16.5944C186.016 16.931 185.639 17.4019 185.366 18.007C185.097 18.6079 184.963 19.3046 184.963 20.0972C184.963 20.8941 185.095 21.5993 185.36 22.213C185.624 22.8224 185.994 23.2996 186.472 23.6448C186.953 23.99 187.516 24.1626 188.159 24.1626C188.594 24.1626 188.99 24.0816 189.348 23.9197C189.71 23.7535 190.013 23.5191 190.256 23.2165C190.503 22.914 190.669 22.5539 190.754 22.1363H191.905C191.82 22.7286 191.609 23.257 191.272 23.7215C190.94 24.1817 190.507 24.5439 189.975 24.8082C189.446 25.0724 188.841 25.2045 188.159 25.2045Z" fill="#588D49"/>
<path d="M195.379 21.2925L195.366 19.8032H195.622L200.224 15.1817H201.662L197.118 19.7329L197.015 19.752L195.379 21.2925ZM194.344 24.9999V11.909H195.481V24.9999H194.344ZM200.461 24.9999L196.472 19.9566L197.29 19.1704L201.918 24.9999H200.461Z" fill="#588D49"/>
<path d="M209.1 24.9999V11.909H216.674V12.9829H210.295V17.9111H216.08V18.985H210.295V24.9999H209.1Z" fill="#588D49"/>
<path d="M219.305 24.9999V15.1817H220.41V16.6903H220.493C220.689 16.1959 221.03 15.7975 221.516 15.4949C222.006 15.1881 222.56 15.0347 223.178 15.0347C223.272 15.0347 223.376 15.0368 223.491 15.0411C223.606 15.0454 223.702 15.0496 223.779 15.0539V16.2108C223.728 16.2023 223.638 16.1895 223.51 16.1725C223.383 16.1555 223.244 16.1469 223.095 16.1469C222.584 16.1469 222.128 16.2556 221.727 16.4729C221.331 16.686 221.018 16.9822 220.787 17.3614C220.557 17.7407 220.442 18.1732 220.442 18.659V24.9999H219.305Z" fill="#588D49"/>
<path d="M225.733 24.9999V15.1817H226.877V24.9999H225.733ZM226.315 13.4942C226.081 13.4942 225.88 13.4154 225.714 13.2577C225.548 13.0958 225.465 12.9019 225.465 12.676C225.465 12.4502 225.548 12.2584 225.714 12.1008C225.88 11.9388 226.081 11.8579 226.315 11.8579C226.549 11.8579 226.75 11.9388 226.916 12.1008C227.082 12.2584 227.165 12.4502 227.165 12.676C227.165 12.9019 227.082 13.0958 226.916 13.2577C226.75 13.4154 226.549 13.4942 226.315 13.4942Z" fill="#588D49"/>
<path d="M233.421 25.2045C232.616 25.2045 231.911 24.9914 231.306 24.5653C230.7 24.1391 230.227 23.5447 229.887 22.7819C229.55 22.0191 229.382 21.1306 229.382 20.1164C229.382 19.1064 229.55 18.2222 229.887 17.4637C230.227 16.7009 230.703 16.1086 231.312 15.6867C231.921 15.2606 232.631 15.0475 233.441 15.0475C234.037 15.0475 234.534 15.154 234.93 15.3671C235.326 15.5759 235.644 15.8358 235.882 16.1469C236.121 16.458 236.306 16.7606 236.438 17.0546H236.541V11.909H237.685V24.9999H236.573V23.1782H236.438C236.306 23.4765 236.119 23.7833 235.876 24.0986C235.633 24.4097 235.311 24.6718 234.911 24.8849C234.514 25.0979 234.018 25.2045 233.421 25.2045ZM233.556 24.1626C234.191 24.1626 234.732 23.99 235.179 23.6448C235.627 23.2954 235.968 22.816 236.202 22.2066C236.441 21.593 236.56 20.8898 236.56 20.0972C236.56 19.3131 236.443 18.6206 236.208 18.0198C235.974 17.4147 235.633 16.9417 235.186 16.6008C234.738 16.2556 234.195 16.083 233.556 16.083C232.899 16.083 232.345 16.262 231.894 16.6199C231.446 16.9736 231.105 17.453 230.871 18.0582C230.641 18.6633 230.526 19.343 230.526 20.0972C230.526 20.86 230.643 21.5482 230.877 22.1618C231.112 22.7755 231.453 23.2634 231.9 23.6256C232.352 23.9836 232.904 24.1626 233.556 24.1626Z" fill="#588D49"/>
<path d="M243.668 25.2236C243.075 25.2236 242.534 25.1086 242.044 24.8785C241.554 24.6441 241.164 24.3074 240.874 23.8685C240.585 23.4253 240.44 22.8884 240.44 22.2577C240.44 21.7719 240.531 21.3628 240.715 21.0305C240.898 20.6981 241.158 20.4253 241.494 20.2123C241.831 19.9992 242.23 19.8309 242.69 19.7073C243.15 19.5837 243.657 19.4878 244.211 19.4197C244.761 19.3515 245.225 19.2918 245.605 19.2407C245.988 19.1895 246.28 19.1086 246.48 18.9978C246.681 18.887 246.781 18.708 246.781 18.4608V18.2307C246.781 17.5617 246.58 17.0354 246.18 16.6519C245.784 16.2641 245.213 16.0702 244.467 16.0702C243.759 16.0702 243.182 16.2258 242.735 16.5368C242.291 16.8479 241.98 17.2144 241.801 17.6363L240.721 17.2464C240.943 16.7094 241.249 16.2812 241.642 15.9616C242.034 15.6377 242.472 15.4055 242.958 15.2648C243.444 15.1199 243.936 15.0475 244.435 15.0475C244.81 15.0475 245.2 15.0965 245.605 15.1945C246.014 15.2925 246.393 15.463 246.742 15.7059C247.092 15.9445 247.375 16.279 247.593 16.7094C247.81 17.1356 247.918 17.6768 247.918 18.333V24.9999H246.781V23.4466H246.71C246.574 23.7364 246.372 24.0177 246.103 24.2904C245.835 24.5631 245.498 24.7868 245.093 24.9616C244.688 25.1363 244.213 25.2236 243.668 25.2236ZM243.821 24.1817C244.426 24.1817 244.95 24.0475 245.394 23.779C245.837 23.5106 246.178 23.1547 246.416 22.7116C246.659 22.2641 246.781 21.7719 246.781 21.235V19.816C246.695 19.8969 246.553 19.9694 246.352 20.0333C246.156 20.0972 245.928 20.1547 245.668 20.2059C245.413 20.2528 245.157 20.2932 244.901 20.3273C244.646 20.3614 244.416 20.3912 244.211 20.4168C243.657 20.485 243.184 20.5915 242.792 20.7364C242.4 20.8813 242.1 21.0816 241.891 21.3373C241.682 21.5887 241.578 21.9126 241.578 22.3089C241.578 22.9055 241.791 23.3678 242.217 23.6959C242.643 24.0198 243.178 24.1817 243.821 24.1817Z" fill="#588D49"/>
<path d="M251.386 28.6817C251.16 28.6817 250.949 28.6604 250.753 28.6178C250.557 28.5752 250.402 28.5283 250.287 28.4772L250.594 27.4736C250.981 27.593 251.327 27.6356 251.629 27.6015C251.932 27.5716 252.2 27.4353 252.434 27.1924C252.669 26.9537 252.878 26.5873 253.061 26.093L253.419 25.0958L249.807 15.1817H251.041L253.956 23.4978H254.045L256.96 15.1817H258.194L254.039 26.5532C253.864 27.0262 253.649 27.4204 253.393 27.7357C253.138 28.0553 252.841 28.2918 252.505 28.4452C252.172 28.6029 251.8 28.6817 251.386 28.6817Z" fill="#588D49"/>
<path d="M265.124 22.1874V21.2158L270.96 11.909H271.676V13.539H271.146L266.46 21.0305V21.1135H274.112V22.1874H265.124ZM271.235 24.9999V21.8806V21.4332V11.909H272.373V24.9999H271.235Z" fill="#588D49"/>
<path d="M280.77 25.1789C279.85 25.1789 279.064 24.9147 278.412 24.3863C277.764 23.8536 277.265 23.0844 276.916 22.0787C276.571 21.0731 276.398 19.865 276.398 18.4545C276.398 17.0482 276.571 15.8444 276.916 14.843C277.265 13.8373 277.766 13.0681 278.418 12.5354C279.074 11.9985 279.858 11.73 280.77 11.73C281.682 11.73 282.464 11.9985 283.116 12.5354C283.773 13.0681 284.273 13.8373 284.618 14.843C284.968 15.8444 285.143 17.0482 285.143 18.4545C285.143 19.865 284.968 21.0731 284.618 22.0787C284.273 23.0844 283.775 23.8536 283.123 24.3863C282.475 24.9147 281.691 25.1789 280.77 25.1789ZM280.77 24.105C281.78 24.105 282.569 23.6128 283.135 22.6285C283.702 21.6398 283.986 20.2485 283.986 18.4545C283.986 17.2613 283.856 16.2428 283.596 15.3991C283.34 14.551 282.971 13.9033 282.49 13.4559C282.013 13.0084 281.439 12.7847 280.77 12.7847C279.769 12.7847 278.983 13.2833 278.412 14.2805C277.841 15.2733 277.555 16.6647 277.555 18.4545C277.555 19.6476 277.683 20.6661 277.939 21.5099C278.199 22.3536 278.567 22.9971 279.045 23.4403C279.526 23.8834 280.101 24.105 280.77 24.105Z" fill="#588D49"/>
<path d="M294.366 22.5709V21.9765C294.366 21.4864 294.464 21.0454 294.66 20.6533C294.856 20.257 295.135 19.9438 295.498 19.7137C295.86 19.4836 296.29 19.3685 296.789 19.3685C297.292 19.3685 297.722 19.4836 298.08 19.7137C298.438 19.9438 298.713 20.257 298.905 20.6533C299.096 21.0454 299.192 21.4864 299.192 21.9765V22.5709C299.192 23.061 299.094 23.502 298.898 23.8941C298.707 24.2861 298.432 24.5993 298.074 24.8337C297.716 25.0638 297.287 25.1789 296.789 25.1789C296.282 25.1789 295.847 25.0638 295.485 24.8337C295.127 24.5993 294.85 24.2861 294.654 23.8941C294.462 23.502 294.366 23.061 294.366 22.5709ZM295.37 21.9765V22.5709C295.37 23.0525 295.487 23.4637 295.721 23.8046C295.96 24.1412 296.316 24.3096 296.789 24.3096C297.249 24.3096 297.596 24.1412 297.831 23.8046C298.065 23.4637 298.182 23.0525 298.182 22.5709V21.9765C298.182 21.4949 298.067 21.0859 297.837 20.7492C297.607 20.4083 297.258 20.2378 296.789 20.2378C296.324 20.2378 295.971 20.4083 295.728 20.7492C295.489 21.0859 295.37 21.4949 295.37 21.9765ZM287.77 14.9324V14.338C287.77 13.8479 287.868 13.4069 288.064 13.0148C288.26 12.6228 288.539 12.3117 288.901 12.0816C289.263 11.8472 289.694 11.73 290.192 11.73C290.695 11.73 291.126 11.8472 291.483 12.0816C291.841 12.3117 292.116 12.6228 292.308 13.0148C292.5 13.4069 292.596 13.8479 292.596 14.338V14.9324C292.596 15.4225 292.498 15.8657 292.302 16.262C292.11 16.654 291.835 16.9651 291.477 17.1952C291.119 17.4253 290.691 17.5404 290.192 17.5404C289.685 17.5404 289.251 17.4253 288.888 17.1952C288.53 16.9651 288.253 16.654 288.057 16.262C287.866 15.8657 287.77 15.4225 287.77 14.9324ZM288.773 14.338V14.9324C288.773 15.414 288.89 15.8252 289.125 16.1661C289.363 16.5028 289.719 16.6711 290.192 16.6711C290.653 16.6711 291 16.5028 291.234 16.1661C291.469 15.8252 291.586 15.414 291.586 14.9324V14.338C291.586 13.8564 291.471 13.4474 291.241 13.1107C291.01 12.7698 290.661 12.5993 290.192 12.5993C289.728 12.5993 289.374 12.7698 289.131 13.1107C288.893 13.4474 288.773 13.8564 288.773 14.338ZM288.358 24.9999L297.351 11.909H298.483L289.489 24.9999H288.358Z" fill="#588D49"/>
<path d="M306.001 25.2045C305.153 25.2045 304.403 24.9893 303.751 24.5589C303.104 24.1285 302.597 23.534 302.23 22.7755C301.864 22.0127 301.68 21.1327 301.68 20.1356C301.68 19.1299 301.864 18.2456 302.23 17.4829C302.597 16.7158 303.104 16.1192 303.751 15.6931C304.403 15.2627 305.153 15.0475 306.001 15.0475C306.849 15.0475 307.597 15.2627 308.245 15.6931C308.893 16.1235 309.4 16.7201 309.766 17.4829C310.137 18.2456 310.322 19.1299 310.322 20.1356C310.322 21.1327 310.139 22.0127 309.773 22.7755C309.406 23.534 308.897 24.1285 308.245 24.5589C307.597 24.9893 306.849 25.2045 306.001 25.2045ZM306.001 24.1626C306.683 24.1626 307.261 23.9793 307.734 23.6128C308.207 23.2464 308.565 22.7584 308.808 22.1491C309.055 21.5397 309.178 20.8685 309.178 20.1356C309.178 19.4026 309.055 18.7293 308.808 18.1157C308.565 17.502 308.207 17.0099 307.734 16.6391C307.261 16.2684 306.683 16.083 306.001 16.083C305.324 16.083 304.746 16.2684 304.269 16.6391C303.796 17.0099 303.436 17.502 303.189 18.1157C302.946 18.7293 302.825 19.4026 302.825 20.1356C302.825 20.8685 302.946 21.5397 303.189 22.1491C303.436 22.7584 303.796 23.2464 304.269 23.6128C304.742 23.9793 305.32 24.1626 306.001 24.1626Z" fill="#588D49"/>
<path d="M316.86 15.1817V16.1725H312.034V15.1817H316.86ZM313.542 24.9999V13.7435C313.542 13.2151 313.664 12.7698 313.907 12.4076C314.154 12.0454 314.476 11.7705 314.872 11.583C315.268 11.3955 315.688 11.3018 316.131 11.3018C316.43 11.3018 316.677 11.3273 316.873 11.3785C317.073 11.4253 317.231 11.4722 317.346 11.5191L317.013 12.5162C316.928 12.4907 316.824 12.4608 316.7 12.4268C316.577 12.3927 316.421 12.3756 316.233 12.3756C315.739 12.3756 315.358 12.5141 315.089 12.7911C314.821 13.0681 314.687 13.4644 314.687 13.98L314.68 24.9999H313.542Z" fill="#588D49"/>
<path d="M323.17 15.1817V16.1725H318.344V15.1817H323.17ZM319.853 24.9999V13.7435C319.853 13.2151 319.974 12.7698 320.217 12.4076C320.464 12.0454 320.786 11.7705 321.183 11.583C321.579 11.3955 321.999 11.3018 322.442 11.3018C322.74 11.3018 322.987 11.3273 323.183 11.3785C323.384 11.4253 323.541 11.4722 323.656 11.5191L323.324 12.5162C323.239 12.4907 323.134 12.4608 323.011 12.4268C322.887 12.3927 322.732 12.3756 322.544 12.3756C322.05 12.3756 321.668 12.5141 321.4 12.7911C321.131 13.0681 320.997 13.4644 320.997 13.98L320.991 24.9999H319.853Z" fill="#588D49"/>
<path d="M325.329 25.0958C325.078 25.0958 324.861 25.0063 324.677 24.8273C324.498 24.6441 324.409 24.4268 324.409 24.1753C324.409 23.9197 324.498 23.7023 324.677 23.5233C324.861 23.3444 325.078 23.2549 325.329 23.2549C325.585 23.2549 325.802 23.3444 325.981 23.5233C326.16 23.7023 326.25 23.9197 326.25 24.1753C326.25 24.3415 326.207 24.4949 326.122 24.6356C326.041 24.7762 325.93 24.8891 325.79 24.9743C325.653 25.0553 325.5 25.0958 325.329 25.0958Z" fill="#588D49"/>
<path d="M330.163 25.0958C329.912 25.0958 329.695 25.0063 329.511 24.8273C329.332 24.6441 329.243 24.4268 329.243 24.1753C329.243 23.9197 329.332 23.7023 329.511 23.5233C329.695 23.3444 329.912 23.2549 330.163 23.2549C330.419 23.2549 330.636 23.3444 330.815 23.5233C330.994 23.7023 331.084 23.9197 331.084 24.1753C331.084 24.3415 331.041 24.4949 330.956 24.6356C330.875 24.7762 330.764 24.8891 330.624 24.9743C330.487 25.0553 330.334 25.0958 330.163 25.0958Z" fill="#588D49"/>
<path d="M334.997 25.0958C334.746 25.0958 334.529 25.0063 334.345 24.8273C334.166 24.6441 334.077 24.4268 334.077 24.1753C334.077 23.9197 334.166 23.7023 334.345 23.5233C334.529 23.3444 334.746 23.2549 334.997 23.2549C335.253 23.2549 335.47 23.3444 335.649 23.5233C335.828 23.7023 335.918 23.9197 335.918 24.1753C335.918 24.3415 335.875 24.4949 335.79 24.6356C335.709 24.7762 335.598 24.8891 335.458 24.9743C335.321 25.0553 335.168 25.0958 334.997 25.0958Z" fill="#588D49"/>
<rect x="207.5" y="48.5" width="183" height="35" rx="7.5" stroke="#B1D2A8"/>
<path d="M230.991 63.9999H229.79C229.7 63.5525 229.538 63.1391 229.304 62.7599C229.074 62.3763 228.784 62.0418 228.434 61.7563C228.085 61.4708 227.689 61.2492 227.246 61.0915C226.802 60.9339 226.323 60.855 225.807 60.855C224.981 60.855 224.226 61.0702 223.545 61.5006C222.867 61.931 222.324 62.5638 221.915 63.3991C221.51 64.23 221.307 65.2485 221.307 66.4545C221.307 67.6689 221.51 68.6917 221.915 69.5226C222.324 70.3536 222.867 70.9843 223.545 71.4147C224.226 71.8408 224.981 72.0539 225.807 72.0539C226.323 72.0539 226.802 71.9751 227.246 71.8174C227.689 71.6597 228.085 71.4403 228.434 71.159C228.784 70.8735 229.074 70.539 229.304 70.1555C229.538 69.7719 229.7 69.3564 229.79 68.909H230.991C230.885 69.5099 230.684 70.0702 230.39 70.5901C230.101 71.1057 229.73 71.5574 229.278 71.9452C228.831 72.333 228.315 72.6356 227.731 72.8529C227.148 73.0702 226.506 73.1789 225.807 73.1789C224.708 73.1789 223.732 72.904 222.88 72.3543C222.028 71.8003 221.358 71.0205 220.873 70.0148C220.391 69.0091 220.15 67.8224 220.15 66.4545C220.15 65.0866 220.391 63.8998 220.873 62.8941C221.358 61.8884 222.028 61.1107 222.88 60.561C223.732 60.007 224.708 59.73 225.807 59.73C226.506 59.73 227.148 59.8387 227.731 60.056C228.315 60.2691 228.831 60.5716 229.278 60.9637C229.73 61.3515 230.101 61.8032 230.39 62.3188C230.684 62.8344 230.885 63.3948 230.991 63.9999Z" fill="#588D49"/>
<path d="M234.7 66.8635V72.9999H233.562V59.909H234.7V64.7222H234.803C235.033 64.2151 235.388 63.8103 235.87 63.5077C236.356 63.2052 236.969 63.0539 237.711 63.0539C238.376 63.0539 238.96 63.1903 239.462 63.463C239.965 63.7357 240.357 64.1384 240.638 64.6711C240.92 65.2037 241.06 65.86 241.06 66.6398V72.9999H239.916V66.7101C239.916 65.9005 239.69 65.2634 239.239 64.7989C238.791 64.3302 238.186 64.0958 237.423 64.0958C236.899 64.0958 236.433 64.2066 236.023 64.4282C235.614 64.6498 235.29 64.9694 235.052 65.387C234.817 65.8003 234.7 66.2925 234.7 66.8635Z" fill="#588D49"/>
<path d="M244.057 72.9999V63.1817H245.162V64.6903H245.246C245.442 64.1959 245.782 63.7975 246.268 63.4949C246.758 63.1881 247.312 63.0347 247.93 63.0347C248.024 63.0347 248.128 63.0368 248.243 63.0411C248.358 63.0454 248.454 63.0496 248.531 63.0539V64.2108C248.48 64.2023 248.39 64.1895 248.263 64.1725C248.135 64.1555 247.996 64.1469 247.847 64.1469C247.336 64.1469 246.88 64.2556 246.479 64.4729C246.083 64.686 245.77 64.9822 245.54 65.3614C245.309 65.7407 245.194 66.1732 245.194 66.659V72.9999H244.057Z" fill="#588D49"/>
<path d="M250.485 72.9999V63.1817H251.63V72.9999H250.485ZM251.067 61.4942C250.833 61.4942 250.632 61.4154 250.466 61.2577C250.3 61.0958 250.217 60.9019 250.217 60.676C250.217 60.4502 250.3 60.2584 250.466 60.1008C250.632 59.9388 250.833 59.8579 251.067 59.8579C251.301 59.8579 251.502 59.9388 251.668 60.1008C251.834 60.2584 251.917 60.4502 251.917 60.676C251.917 60.9019 251.834 61.0958 251.668 61.2577C251.502 61.4154 251.301 61.4942 251.067 61.4942Z" fill="#588D49"/>
<path d="M261.235 65.3358L260.193 65.6299C260.091 65.3358 259.946 65.0695 259.759 64.8309C259.571 64.5922 259.326 64.4026 259.024 64.262C258.725 64.1214 258.355 64.051 257.911 64.051C257.247 64.051 256.701 64.2087 256.275 64.5241C255.849 64.8394 255.636 65.2464 255.636 65.7449C255.636 66.1668 255.781 66.5099 256.07 66.7741C256.365 67.034 256.816 67.2407 257.426 67.3941L258.909 67.7584C259.731 67.9587 260.347 68.2762 260.756 68.7108C261.169 69.1455 261.376 69.691 261.376 70.3472C261.376 70.9012 261.222 71.3934 260.916 71.8238C260.609 72.2542 260.181 72.593 259.631 72.8401C259.085 73.083 258.453 73.2045 257.732 73.2045C256.774 73.2045 255.983 72.9893 255.361 72.5589C254.739 72.1242 254.34 71.4978 254.166 70.6796L255.259 70.4111C255.399 70.9949 255.674 71.436 256.083 71.7343C256.497 72.0326 257.04 72.1817 257.713 72.1817C258.468 72.1817 259.07 72.0134 259.522 71.6768C259.974 71.3359 260.2 70.9097 260.2 70.3983C260.2 70.002 260.068 69.6697 259.803 69.4012C259.539 69.1285 259.139 68.9282 258.602 68.8003L256.997 68.4168C256.145 68.2123 255.514 67.8884 255.105 67.4452C254.696 67.002 254.492 66.4523 254.492 65.7961C254.492 65.2549 254.639 64.7797 254.933 64.3706C255.227 63.9573 255.632 63.6334 256.147 63.3991C256.663 63.1647 257.251 63.0475 257.911 63.0475C258.811 63.0475 259.529 63.252 260.066 63.6611C260.607 64.066 260.997 64.6242 261.235 65.3358Z" fill="#588D49"/>
<path d="M267.734 63.1817V64.1725H263.049V63.1817H267.734ZM264.513 60.8295H265.657V70.4367C265.657 70.8458 265.727 71.1675 265.868 71.4019C266.009 71.632 266.192 71.7961 266.418 71.8941C266.643 71.9878 266.884 72.0347 267.14 72.0347C267.289 72.0347 267.417 72.0262 267.523 72.0091C267.63 71.9878 267.724 71.9665 267.805 71.9452L268.048 72.9743C267.937 73.017 267.8 73.0553 267.638 73.0894C267.477 73.1278 267.276 73.1469 267.038 73.1469C266.62 73.1469 266.217 73.0553 265.83 72.8721C265.446 72.6888 265.131 72.4161 264.884 72.0539C264.636 71.6917 264.513 71.2421 264.513 70.7052V60.8295Z" fill="#588D49"/>
<path d="M270.318 72.9999V63.1817H271.424V64.6903H271.526C271.722 64.1831 272.048 63.7847 272.504 63.4949C272.965 63.2009 273.517 63.0539 274.16 63.0539C274.838 63.0539 275.394 63.2137 275.828 63.5333C276.267 63.8486 276.595 64.2833 276.813 64.8373H276.896C277.117 64.2918 277.477 63.8593 277.976 63.5397C278.479 63.2158 279.088 63.0539 279.804 63.0539C280.716 63.0539 281.436 63.3415 281.965 63.9168C282.493 64.4878 282.757 65.3231 282.757 66.4225V72.9999H281.619V66.4225C281.619 65.6469 281.421 65.0653 281.025 64.6775C280.629 64.2897 280.107 64.0958 279.459 64.0958C278.709 64.0958 278.132 64.3259 277.727 64.7861C277.322 65.2464 277.119 65.8302 277.119 66.5376V72.9999H275.956V66.3202C275.956 65.6555 275.771 65.1185 275.4 64.7094C275.029 64.3003 274.507 64.0958 273.834 64.0958C273.382 64.0958 272.975 64.2066 272.613 64.4282C272.255 64.6498 271.972 64.9587 271.763 65.355C271.558 65.7471 271.456 66.1988 271.456 66.7101V72.9999H270.318Z" fill="#588D49"/>
<path d="M288.512 73.2236C287.919 73.2236 287.378 73.1086 286.888 72.8785C286.398 72.6441 286.008 72.3074 285.718 71.8685C285.429 71.4253 285.284 70.8884 285.284 70.2577C285.284 69.7719 285.375 69.3628 285.559 69.0305C285.742 68.6981 286.002 68.4253 286.338 68.2123C286.675 67.9992 287.074 67.8309 287.534 67.7073C287.994 67.5837 288.501 67.4878 289.055 67.4197C289.605 67.3515 290.069 67.2918 290.449 67.2407C290.832 67.1895 291.124 67.1086 291.324 66.9978C291.525 66.887 291.625 66.708 291.625 66.4608V66.2307C291.625 65.5617 291.424 65.0354 291.024 64.6519C290.627 64.2641 290.056 64.0702 289.311 64.0702C288.603 64.0702 288.026 64.2258 287.578 64.5368C287.135 64.8479 286.824 65.2144 286.645 65.6363L285.565 65.2464C285.787 64.7094 286.093 64.2812 286.485 63.9616C286.877 63.6377 287.316 63.4055 287.802 63.2648C288.288 63.1199 288.78 63.0475 289.279 63.0475C289.654 63.0475 290.044 63.0965 290.449 63.1945C290.858 63.2925 291.237 63.463 291.586 63.7059C291.936 63.9445 292.219 64.279 292.436 64.7094C292.654 65.1356 292.762 65.6768 292.762 66.333V72.9999H291.625V71.4466H291.554C291.418 71.7364 291.216 72.0177 290.947 72.2904C290.679 72.5631 290.342 72.7868 289.937 72.9616C289.532 73.1363 289.057 73.2236 288.512 73.2236ZM288.665 72.1817C289.27 72.1817 289.794 72.0475 290.238 71.779C290.681 71.5106 291.022 71.1547 291.26 70.7116C291.503 70.2641 291.625 69.7719 291.625 69.235V67.816C291.539 67.8969 291.397 67.9694 291.196 68.0333C291 68.0972 290.772 68.1547 290.512 68.2059C290.257 68.2528 290.001 68.2932 289.745 68.3273C289.49 68.3614 289.26 68.3912 289.055 68.4168C288.501 68.485 288.028 68.5915 287.636 68.7364C287.244 68.8813 286.944 69.0816 286.735 69.3373C286.526 69.5887 286.422 69.9126 286.422 70.3089C286.422 70.9055 286.635 71.3678 287.061 71.6959C287.487 72.0198 288.022 72.1817 288.665 72.1817Z" fill="#588D49"/>
<path d="M302.386 65.3358L301.344 65.6299C301.241 65.3358 301.097 65.0695 300.909 64.8309C300.722 64.5922 300.477 64.4026 300.174 64.262C299.876 64.1214 299.505 64.051 299.062 64.051C298.397 64.051 297.852 64.2087 297.425 64.5241C296.999 64.8394 296.786 65.2464 296.786 65.7449C296.786 66.1668 296.931 66.5099 297.221 66.7741C297.515 67.034 297.967 67.2407 298.576 67.3941L300.059 67.7584C300.881 67.9587 301.497 68.2762 301.906 68.7108C302.32 69.1455 302.526 69.691 302.526 70.3472C302.526 70.9012 302.373 71.3934 302.066 71.8238C301.759 72.2542 301.331 72.593 300.781 72.8401C300.236 73.083 299.603 73.2045 298.883 73.2045C297.924 73.2045 297.134 72.9893 296.511 72.5589C295.889 72.1242 295.491 71.4978 295.316 70.6796L296.409 70.4111C296.55 70.9949 296.825 71.436 297.234 71.7343C297.647 72.0326 298.19 72.1817 298.864 72.1817C299.618 72.1817 300.221 72.0134 300.673 71.6768C301.124 71.3359 301.35 70.9097 301.35 70.3983C301.35 70.002 301.218 69.6697 300.954 69.4012C300.69 69.1285 300.289 68.9282 299.752 68.8003L298.148 68.4168C297.295 68.2123 296.665 67.8884 296.256 67.4452C295.847 67.002 295.642 66.4523 295.642 65.7961C295.642 65.2549 295.789 64.7797 296.083 64.3706C296.377 63.9573 296.782 63.6334 297.298 63.3991C297.813 63.1647 298.401 63.0475 299.062 63.0475C299.961 63.0475 300.679 63.252 301.216 63.6611C301.757 64.066 302.147 64.6242 302.386 65.3358Z" fill="#588D49"/>
<path d="M310.035 72.9999V72.1242L314.312 67.3174C314.87 66.6867 315.319 66.1476 315.66 65.7002C316.001 65.2528 316.248 64.8394 316.402 64.4601C316.559 64.0809 316.638 63.6867 316.638 63.2776C316.638 62.779 316.521 62.3444 316.287 61.9736C316.057 61.5986 315.739 61.3067 315.334 61.0979C314.93 60.8891 314.474 60.7847 313.966 60.7847C313.43 60.7847 312.959 60.8998 312.554 61.1299C312.153 61.36 311.842 61.6753 311.621 62.0759C311.399 62.4765 311.288 62.9367 311.288 63.4566H310.144C310.144 62.7322 310.31 62.0908 310.643 61.5326C310.979 60.9701 311.437 60.529 312.017 60.2094C312.601 59.8898 313.261 59.73 313.998 59.73C314.727 59.73 315.375 59.8877 315.942 60.203C316.508 60.5141 316.954 60.9381 317.278 61.4751C317.601 62.012 317.763 62.6128 317.763 63.2776C317.763 63.7591 317.678 64.2258 317.508 64.6775C317.341 65.1292 317.054 65.632 316.645 66.186C316.236 66.74 315.669 67.4175 314.944 68.2187L311.697 71.843V71.926H318.172V72.9999H310.035Z" fill="#588D49"/>
<path d="M324.851 73.1789C324.122 73.1789 323.47 73.0319 322.895 72.7378C322.324 72.4395 321.868 72.0305 321.527 71.5106C321.19 70.9907 321.011 70.3962 320.99 69.7272H322.147C322.185 70.4218 322.458 70.9928 322.965 71.4403C323.472 71.8834 324.101 72.105 324.851 72.105C325.434 72.105 325.954 71.9665 326.41 71.6895C326.866 71.4083 327.222 71.0248 327.478 70.539C327.738 70.0489 327.868 69.4971 327.868 68.8834C327.863 68.2442 327.725 67.6817 327.452 67.1959C327.179 66.7059 326.809 66.3224 326.34 66.0454C325.875 65.7684 325.353 65.6299 324.774 65.6299C324.335 65.6256 323.904 65.6981 323.483 65.8472C323.061 65.9964 322.709 66.1881 322.428 66.4225L321.233 66.2691L322.019 59.909H328.488V60.9829H323.022L322.498 65.3614H322.562C322.852 65.1185 323.203 64.9204 323.617 64.767C324.034 64.6135 324.476 64.5368 324.94 64.5368C325.711 64.5368 326.404 64.7222 327.017 65.093C327.635 65.4637 328.123 65.9751 328.481 66.627C328.843 67.2748 329.025 68.0205 329.025 68.8643C329.025 69.691 328.843 70.4303 328.481 71.0823C328.123 71.73 327.629 72.2414 326.998 72.6164C326.372 72.9914 325.656 73.1789 324.851 73.1789Z" fill="#588D49"/>
<path d="M338.366 70.5709V69.9765C338.366 69.4864 338.464 69.0454 338.661 68.6533C338.857 68.257 339.136 67.9438 339.498 67.7137C339.86 67.4836 340.29 67.3685 340.789 67.3685C341.292 67.3685 341.722 67.4836 342.08 67.7137C342.438 67.9438 342.713 68.257 342.905 68.6533C343.097 69.0454 343.192 69.4864 343.192 69.9765V70.5709C343.192 71.061 343.094 71.502 342.898 71.8941C342.707 72.2861 342.432 72.5993 342.074 72.8337C341.716 73.0638 341.288 73.1789 340.789 73.1789C340.282 73.1789 339.847 73.0638 339.485 72.8337C339.127 72.5993 338.85 72.2861 338.654 71.8941C338.462 71.502 338.366 71.061 338.366 70.5709ZM339.37 69.9765V70.5709C339.37 71.0525 339.487 71.4637 339.722 71.8046C339.96 72.1412 340.316 72.3096 340.789 72.3096C341.249 72.3096 341.597 72.1412 341.831 71.8046C342.065 71.4637 342.183 71.0525 342.183 70.5709V69.9765C342.183 69.4949 342.067 69.0859 341.837 68.7492C341.607 68.4083 341.258 68.2378 340.789 68.2378C340.325 68.2378 339.971 68.4083 339.728 68.7492C339.489 69.0859 339.37 69.4949 339.37 69.9765ZM331.77 62.9324V62.338C331.77 61.8479 331.868 61.4069 332.064 61.0148C332.26 60.6228 332.539 60.3117 332.901 60.0816C333.263 59.8472 333.694 59.73 334.192 59.73C334.695 59.73 335.126 59.8472 335.484 60.0816C335.842 60.3117 336.116 60.6228 336.308 61.0148C336.5 61.4069 336.596 61.8479 336.596 62.338V62.9324C336.596 63.4225 336.498 63.8657 336.302 64.262C336.11 64.654 335.835 64.9651 335.477 65.1952C335.119 65.4253 334.691 65.5404 334.192 65.5404C333.685 65.5404 333.251 65.4253 332.888 65.1952C332.531 64.9651 332.254 64.654 332.058 64.262C331.866 63.8657 331.77 63.4225 331.77 62.9324ZM332.773 62.338V62.9324C332.773 63.414 332.891 63.8252 333.125 64.1661C333.364 64.5028 333.719 64.6711 334.192 64.6711C334.653 64.6711 335 64.5028 335.234 64.1661C335.469 63.8252 335.586 63.414 335.586 62.9324V62.338C335.586 61.8564 335.471 61.4474 335.241 61.1107C335.011 60.7698 334.661 60.5993 334.192 60.5993C333.728 60.5993 333.374 60.7698 333.131 61.1107C332.893 61.4474 332.773 61.8564 332.773 62.338ZM332.358 72.9999L341.352 59.909H342.483L333.489 72.9999H332.358Z" fill="#588D49"/>
<path d="M350.002 73.2045C349.154 73.2045 348.404 72.9893 347.752 72.5589C347.104 72.1285 346.597 71.534 346.23 70.7755C345.864 70.0127 345.681 69.1327 345.681 68.1356C345.681 67.1299 345.864 66.2456 346.23 65.4829C346.597 64.7158 347.104 64.1192 347.752 63.6931C348.404 63.2627 349.154 63.0475 350.002 63.0475C350.85 63.0475 351.597 63.2627 352.245 63.6931C352.893 64.1235 353.4 64.7201 353.767 65.4829C354.137 66.2456 354.323 67.1299 354.323 68.1356C354.323 69.1327 354.139 70.0127 353.773 70.7755C353.406 71.534 352.897 72.1285 352.245 72.5589C351.597 72.9893 350.85 73.2045 350.002 73.2045ZM350.002 72.1626C350.683 72.1626 351.261 71.9793 351.734 71.6128C352.207 71.2464 352.565 70.7584 352.808 70.1491C353.055 69.5397 353.178 68.8685 353.178 68.1356C353.178 67.4026 353.055 66.7293 352.808 66.1157C352.565 65.502 352.207 65.0099 351.734 64.6391C351.261 64.2684 350.683 64.083 350.002 64.083C349.324 64.083 348.747 64.2684 348.269 64.6391C347.796 65.0099 347.436 65.502 347.189 66.1157C346.946 66.7293 346.825 67.4026 346.825 68.1356C346.825 68.8685 346.946 69.5397 347.189 70.1491C347.436 70.7584 347.796 71.2464 348.269 71.6128C348.742 71.9793 349.32 72.1626 350.002 72.1626Z" fill="#588D49"/>
<path d="M360.86 63.1817V64.1725H356.034V63.1817H360.86ZM357.543 72.9999V61.7435C357.543 61.2151 357.664 60.7698 357.907 60.4076C358.154 60.0454 358.476 59.7705 358.872 59.583C359.268 59.3955 359.688 59.3018 360.131 59.3018C360.43 59.3018 360.677 59.3273 360.873 59.3785C361.073 59.4253 361.231 59.4722 361.346 59.5191L361.013 60.5162C360.928 60.4907 360.824 60.4608 360.7 60.4268C360.577 60.3927 360.421 60.3756 360.234 60.3756C359.739 60.3756 359.358 60.5141 359.089 60.7911C358.821 61.0681 358.687 61.4644 358.687 61.98L358.68 72.9999H357.543Z" fill="#588D49"/>
<path d="M367.171 63.1817V64.1725H362.345V63.1817H367.171ZM363.853 72.9999V61.7435C363.853 61.2151 363.975 60.7698 364.217 60.4076C364.465 60.0454 364.786 59.7705 365.183 59.583C365.579 59.3955 365.999 59.3018 366.442 59.3018C366.74 59.3018 366.987 59.3273 367.183 59.3785C367.384 59.4253 367.541 59.4722 367.656 59.5191L367.324 60.5162C367.239 60.4907 367.134 60.4608 367.011 60.4268C366.887 60.3927 366.732 60.3756 366.544 60.3756C366.05 60.3756 365.668 60.5141 365.4 60.7911C365.132 61.0681 364.997 61.4644 364.997 61.98L364.991 72.9999H363.853Z" fill="#588D49"/>
<path d="M369.33 73.0958C369.078 73.0958 368.861 73.0063 368.678 72.8273C368.499 72.6441 368.409 72.4268 368.409 72.1753C368.409 71.9197 368.499 71.7023 368.678 71.5233C368.861 71.3444 369.078 71.2549 369.33 71.2549C369.585 71.2549 369.803 71.3444 369.982 71.5233C370.16 71.7023 370.25 71.9197 370.25 72.1753C370.25 72.3415 370.207 72.4949 370.122 72.6356C370.041 72.7762 369.93 72.8891 369.79 72.9743C369.653 73.0553 369.5 73.0958 369.33 73.0958Z" fill="#588D49"/>
<path d="M374.164 73.0958C373.912 73.0958 373.695 73.0063 373.512 72.8273C373.333 72.6441 373.243 72.4268 373.243 72.1753C373.243 71.9197 373.333 71.7023 373.512 71.5233C373.695 71.3444 373.912 71.2549 374.164 71.2549C374.419 71.2549 374.637 71.3444 374.816 71.5233C374.994 71.7023 375.084 71.9197 375.084 72.1753C375.084 72.3415 375.041 72.4949 374.956 72.6356C374.875 72.7762 374.764 72.8891 374.624 72.9743C374.487 73.0553 374.334 73.0958 374.164 73.0958Z" fill="#588D49"/>
<path d="M378.998 73.0958C378.746 73.0958 378.529 73.0063 378.346 72.8273C378.167 72.6441 378.077 72.4268 378.077 72.1753C378.077 71.9197 378.167 71.7023 378.346 71.5233C378.529 71.3444 378.746 71.2549 378.998 71.2549C379.253 71.2549 379.471 71.3444 379.649 71.5233C379.828 71.7023 379.918 71.9197 379.918 72.1753C379.918 72.3415 379.875 72.4949 379.79 72.6356C379.709 72.7762 379.598 72.8891 379.458 72.9743C379.321 73.0553 379.168 73.0958 378.998 73.0958Z" fill="#588D49"/>
</svg>
