<svg width="670" height="450" viewBox="0 0 670 450" fill="none" xmlns="http://www.w3.org/2000/svg">
<path d="M526.748 362.928L523.056 282.996L499.871 283.232L516.537 363.496L526.748 362.928Z" fill="#000A03"/>
<path d="M481.272 361.19C482.378 349.813 476.876 294.575 478.04 282.599C478.887 273.893 454.395 277.263 455.481 285.943C458.371 309.042 467.797 349.343 470.494 360.141C472.234 367.11 480.862 365.399 481.272 361.19Z" fill="#000A03"/>
<path d="M527.656 359L515.762 359C515.762 359 513.883 363.408 511.23 364.3C508.577 365.193 502 365.7 502 371L530 371C529.81 368.321 529.392 365.663 528.751 363.055C528.278 361.735 527.912 360.379 527.656 359Z" fill="#F0B80E"/>
<path d="M530 371L502 371L502 373L530 373L530 371Z" fill="#000A03"/>
<path d="M481.847 359L469.746 359C469.746 359 464.309 364.609 458.46 365.237C452.61 365.865 449.533 367.441 448 371L484 371L481.847 359Z" fill="#F0B80E"/>
<path d="M484 371L448 371L448 373L484 373L484 371Z" fill="#000A03"/>
<path d="M506.898 207.419C501.503 254.509 482.232 282.619 476.968 287.733C471.135 293.4 454.88 287.176 455.613 284.726C459.976 270.137 473.681 228.476 479.244 196.59C481.673 182.674 508.506 193.384 506.898 207.419Z" fill="#000A03"/>
<path d="M522.844 283.374C522.844 271.493 526.903 209.225 526.905 196.593C526.907 183.73 493.967 183.73 493.967 196.593C493.967 219.302 499.683 275.704 499.683 283.374C499.683 292.419 522.845 292.419 522.844 283.374Z" fill="#000A03"/>
<path d="M494.161 106.562L490.795 84.3989L474.352 88.0595C474.352 88.0595 481.423 108.535 477.101 110.29C472.778 112.044 487.499 108.018 494.161 106.562Z" fill="#F7AD9D"/>
<g filter="url(#filter0_i_1272_12662)">
<path fill-rule="evenodd" clip-rule="evenodd" d="M480.65 104.825C471.232 108.793 461.839 115.16 463.489 125.246C466.619 144.375 470.576 155.252 474.334 162.579C475.056 163.986 475.964 165.185 477.023 166.193C478.839 170.43 482.418 181.986 477.492 199.577C473.866 212.528 484.308 209.08 496.625 205.013C505.765 201.995 515.937 198.636 522.161 201.382C536.773 207.83 532.954 188.098 529.846 179.649C526.222 169.798 520.808 154.457 520.808 154.457L520.807 154.457C520.807 154.457 520.807 154.457 520.807 154.457C520.58 150.751 520.541 147.588 520.506 144.724C520.363 133.066 520.28 126.366 507.766 108.125C504.118 102.807 498.714 101.166 492.833 101.6C491.206 101.719 489.543 101.998 487.87 102.401C485.456 102.983 483.022 103.825 480.65 104.825Z" fill="#F8CC46"/>
</g>
<path d="M486.516 113.85C486.516 113.85 474.334 138.215 484.26 161.226C495.162 186.498 478.395 207.7 478.395 207.7" stroke="white" stroke-opacity="0.31"/>
<g filter="url(#filter1_i_1272_12662)">
<path d="M473.822 152.026C465.141 153.089 444.363 160.326 424.923 162.004C421.537 162.297 422.54 171.485 425.837 170.66C444.048 166.103 458.019 169.097 477.635 164.38C482.544 163.199 478.833 151.413 473.822 152.026Z" fill="#F6BD0E"/>
</g>
<g filter="url(#filter2_i_1272_12662)">
<path d="M468.376 153.781C476.812 140.977 490.043 128.682 496.403 114.874C504.564 97.1541 517.397 118.808 512.895 125.484C503.649 139.192 484.508 156.093 479.153 163.782C476.264 167.931 465.217 158.576 468.376 153.781Z" fill="#F6BD0E"/>
</g>
<path d="M484.666 54.9385C504.792 57.0102 498.308 78.476 492.943 86.8706C492.943 86.8706 480.322 104.749 473.206 99.8931C466.329 95.1993 465.907 75.289 465.907 75.289C464.036 66.2561 466.022 53.0193 484.666 54.9385Z" fill="#FFC4B7"/>
<path d="M484.667 54.9391C504.793 57.0108 499.678 78.7448 494.312 87.1395C494.312 87.1395 488.536 94.0792 486.836 85.4941C485.763 83.7809 485.971 78.3806 484.109 75.9942C475.634 65.131 465.908 75.2896 465.908 75.2896C464.036 66.2567 466.022 53.02 484.667 54.9391Z" fill="black"/>
<ellipse rx="7.67047" ry="8.12168" transform="matrix(-0.938214 0.346056 0.346056 0.938214 498.672 59.4012)" fill="black"/>
<g filter="url(#filter3_i_1272_12662)">
<path d="M423.445 130.508L375.818 112.303L374.179 119.95C374.179 119.95 409.554 143.095 416.128 143.629C421.98 144.104 423.445 130.508 423.445 130.508Z" fill="#F8CC46"/>
</g>
<path d="M466.554 114.521C450.187 120.549 433.191 123.06 418.78 128.585C413.201 130.724 411.583 145.334 417.361 143.816C431.87 140.004 454.414 139.607 471.167 133.199C478.577 130.364 473.999 111.778 466.554 114.521Z" fill="#563DA9"/>
<g filter="url(#filter4_i_1272_12662)">
<path d="M466.554 114.521C450.187 120.549 433.191 123.06 418.78 128.585C413.201 130.724 411.583 145.334 417.361 143.816C431.87 140.004 454.414 139.607 471.167 133.199C478.577 130.364 473.999 111.778 466.554 114.521Z" fill="#F8CC46"/>
</g>
<path d="M352.56 113.164C352.533 111.501 356.247 111.031 356.247 111.031L365.344 112.366C365.344 112.366 352.593 115.17 352.56 113.164Z" fill="#FFC4B7"/>
<path d="M374.007 96.7041L358.215 96.7041L358.215 103.021L374.007 103.021L374.007 96.7041Z" fill="black"/>
<path d="M358.215 116.106L358.215 103.021M358.215 103.021L358.215 96.7041L374.007 96.7041L374.007 103.021L358.215 103.021Z" stroke="black"/>
<path d="M358.039 108.192C354.116 108.361 349.71 109.022 348.133 109.915C347.111 110.493 348.242 112.876 349.394 112.646C355.339 111.459 362.787 112.594 362.787 112.594C362.787 112.594 367.889 114.45 366.894 116.397C366.005 118.135 362.995 117.246 361.595 116.946C360.171 116.641 357.756 117.637 358.102 118.665C358.602 120.15 361.175 119.624 362.388 120.199C370.135 120.16 374.122 118.561 377.199 119.989C379.703 121.152 381.264 114.05 378.68 113.077C375.835 112.006 366.315 107.837 358.039 108.192Z" fill="#FFC4B7"/>
<path d="M96.1983 344.972L95.4463 264.958L118.608 263.905L106.426 344.972H96.1983Z" fill="#000A03"/>
<path d="M96.3361 342.584C96.3361 342.584 93.4485 348.581 93.6122 353.577L122.306 353.692C122.306 353.692 121.19 350.901 113.643 348.379C109.061 346.848 107.165 346.79 105.423 342.603L96.3361 342.584Z" fill="#FF5C5C"/>
<path d="M93.7052 353.596L93.6943 356.089L122.398 356.214L122.409 353.721L93.7052 353.596Z" fill="#000A03"/>
<path d="M130.039 340.611C130.039 329.181 140.867 274.735 140.868 262.703C140.869 253.955 164.598 259.283 162.676 267.817C157.562 290.527 144.597 330.125 140.868 340.611C138.461 347.379 130.039 344.84 130.039 340.611Z" fill="#000A03"/>
<path d="M130.635 339.734C130.635 339.734 126.788 345.166 126.117 350.119L154.391 355.014C154.391 355.014 153.755 352.076 146.735 348.332C142.472 346.059 140.612 345.686 139.592 341.267L130.635 339.734Z" fill="#FF5C5C"/>
<path d="M126.205 350.155L125.779 352.611L154.061 357.517L154.487 355.061L126.205 350.155Z" fill="#000A03"/>
<path d="M111.39 188.554C126.13 221.943 136.056 263.755 141.32 268.869C147.153 274.535 163.408 268.311 162.675 265.861C158.312 251.273 152.899 216.379 147.336 184.493C144.907 170.577 105.684 175.63 111.39 188.554Z" fill="#000A03"/>
<path d="M95.4437 264.509C95.444 252.627 91.3846 190.36 91.3828 177.727C91.381 164.864 124.321 164.864 124.321 177.727C124.321 200.437 118.606 256.839 118.606 264.509C118.606 273.554 95.4434 273.554 95.4437 264.509Z" fill="#000A03"/>
<g filter="url(#filter5_i_1272_12662)">
<path d="M184.335 140.276C171.699 133.357 148.838 126.74 135.455 119.971C128.258 116.332 118.334 88.131 144.93 101.622C150.66 104.529 175.912 118.618 186.892 126.74C191.217 129.939 186.892 141.676 184.335 140.276Z" fill="#EB4F4F"/>
</g>
<g filter="url(#filter6_i_1272_12662)">
<path fill-rule="evenodd" clip-rule="evenodd" d="M98.3032 99.516C98.3032 99.516 111.297 94.4412 120.111 94.7477C129.209 95.0641 135.48 95.9955 142.07 102.569C149.544 110.023 144.477 147.945 144.477 147.945L144.463 147.947L144.476 147.946C144.476 147.946 146.161 182.533 144.627 184.493C139.212 191.412 92.1366 176.823 92.1366 176.823V155.444L91.9863 155.466L98.3032 99.516Z" fill="#FF5C5C"/>
</g>
<path d="M128.083 96.5076L110.664 96.2514C110.664 96.2514 110.979 90.0126 110.637 85.8742C110.232 80.9774 108.381 73.4961 108.381 73.4961L128.083 76.8049V96.5076Z" fill="#F39C89"/>
<path d="M120.139 104.374C115.163 104.751 110.664 96.2523 110.664 96.2523L119.237 90.8379L128.261 96.2523C128.261 96.2523 124.612 104.035 120.139 104.374Z" fill="#F39C89"/>
<g filter="url(#filter7_i_1272_12662)">
<path d="M129.003 88.5823C111.199 96.8909 105.974 70.3663 105.974 70.3663L107.212 58.7096H116.499L132.905 56.9531C132.905 56.9531 135.771 85.4238 129.003 88.5823Z" fill="#FFC4B7"/>
</g>
<path d="M94.6279 81.6102C88.5033 77.343 94.0243 69.5047 100.494 73.1623C99.0581 51.9197 101.546 44.8286 115.418 45.9895C124.821 34.6681 142.333 48.6027 139.227 73.1623C148.889 69.766 152.306 76.9037 145.266 85.0068C151.563 91.6261 144.662 101.293 136.812 94.9354C134.138 104.864 126.115 103.035 124.303 86.2261C134.793 78.064 135.133 71.238 131.204 57.2244C131.824 60.8731 131.937 62.7875 131.204 65.6723C122.962 63.3934 118.274 63.0013 109.724 64.8014C108.726 63.2536 108.559 61.802 108.603 58.7052C106.446 68.6341 106.267 79.5142 115.418 86.2261C116.108 100.858 104.549 106.345 101.443 93.1935C90.8325 100.945 83.3273 85.0068 94.6279 81.6102Z" fill="#000A03"/>
<g filter="url(#filter8_i_1272_12662)">
<path d="M234.417 130.95C224.34 129.597 186.74 127.04 186.74 127.04C186.042 132.109 181.794 138.214 184.952 140.019C188.111 141.824 219.226 139.674 234.417 138.621C237.405 138.414 237.386 131.349 234.417 130.95Z" fill="#EB4F4F"/>
</g>
<path d="M233.501 139.348C232.803 138.259 231.146 138.731 230.754 137.498C230.101 135.446 231.038 132.635 233.405 132.104C235.526 131.628 237.229 129.468 238.606 129.637C242.82 130.155 250.304 130.963 249.896 132.321C249.465 133.758 247.723 134.018 245.846 133.836C251.434 135.231 259.418 137.26 260.235 137.667C261.131 138.113 260.153 139.942 259.226 139.729C257.874 139.42 248.472 137.899 248.472 137.899C248.472 137.899 259.163 140.642 260.583 141.26C261.283 141.565 260.767 143.214 260.008 143.129C257.106 142.805 247.998 140.816 247.998 140.816C247.998 140.816 257.121 142.955 258.178 144.515C258.68 145.255 258.352 146.311 257.425 146.099C255.431 145.642 245.671 143.308 245.671 143.308C245.671 143.308 251.471 145.466 253.204 146.205C253.853 146.481 253.681 147.365 253.378 148.002C253.001 148.794 246.429 146.684 242.344 144.839C238.639 143.165 236.881 144.611 233.501 139.348Z" fill="#FFC4B7"/>
<g filter="url(#filter9_i_1272_12662)">
<path fill-rule="evenodd" clip-rule="evenodd" d="M81.8583 130.46C79.0303 139.444 76.2716 148.208 74.1162 153.104C74.03 153.3 74.0114 153.497 74.0522 153.693C73.9679 154.077 73.9832 154.483 74.1162 154.909C76.723 163.266 83.9879 178.798 89.8639 191.361C93.8238 199.828 97.153 206.946 98.0007 209.61C98.8704 212.343 103.518 207.01 102.964 204.195C101.988 199.241 99.7756 191.513 97.1869 182.471C94.6175 173.497 91.6775 163.228 89.2081 153.092C92.4551 145.916 101.641 126.568 109.899 111.49C112.612 106.536 107.035 99.6725 102.857 98.0976C98.6801 96.5227 94.3753 98.6118 92.0742 102.307C89.3362 106.703 85.5386 118.768 81.8583 130.46Z" fill="#EB4F4F"/>
</g>
<path d="M113.343 225.704C111.538 224.952 108.095 222.889 106.124 219.838C105.082 218.225 102.71 214.076 104.168 215.326C105.222 216.228 110.786 221.492 113.343 222.696C114.406 223.196 114.427 226.155 113.343 225.704Z" fill="#FFC4B7"/>
<path d="M99.508 198.631C97.0869 198.294 94.1574 199.807 94.3944 202.24C94.995 208.407 100.259 213.447 104.17 220.589C107.3 226.305 114.104 227.553 113.512 226.942C104.037 217.166 103.495 208.894 105.541 208.894C108.399 208.894 106.276 210.663 111.089 213.671C112.871 214.784 111.732 211.165 109.886 208.858C108.081 206.602 104.922 199.383 99.508 198.631Z" fill="#FFC4B7"/>
<g clip-path="url(#clip0_1272_12662)">
<rect x="190" y="107.999" width="254" height="247" rx="123.5" fill="#D1ECFF"/>
<g filter="url(#filter10_d_1272_12662)">
<path d="M338 215.999H345.5L355.5 198.999C355.5 198.999 342 198.999 338 202.999C335.495 205.504 321 191.499 321 191.499V202.999L296.5 206.999C296.5 206.999 293.575 200.096 296.5 198.999C304.5 195.999 311.5 191.499 311.5 191.499L302.5 184.999L314.5 179.999L327 167.499L321 150.499L327 140.499V131.499L352.5 118.499H372L396 130.499L414.5 148.999L434.5 182.499L398 198.999H389.5C389.5 198.999 395 218.499 396 223.499C396.565 226.326 391.995 229.806 389.5 226.999C385.5 222.499 369 206.999 369 206.999L380.5 222.499L389.5 233.499C389.5 233.499 375.5 327.499 360.5 313.499C341.634 295.89 327 256.499 327 256.499C327 256.499 302.5 265.499 293.5 262.999C284.643 260.539 277 239.499 277 239.499C277 239.499 274.129 230.947 277 226.999C285 215.999 311.5 208.999 321 206.999C328.351 205.451 338 215.999 338 215.999Z" fill="white"/>
<path d="M310.5 338.499L250 337.999C263.083 343.076 276.417 350.922 289.5 355.999C289.5 355.999 301.465 355.977 310.5 355.999C319.341 356.02 326.191 356.747 335 355.999C353.728 354.409 377 332.499 377 332.499H363.5L319.5 342.999L310.5 338.499Z" fill="white"/>
</g>
<g filter="url(#filter11_d_1272_12662)">
<path d="M209 279.999L233.5 319.499L224 279.999L238 272.999L233.5 265.999L257.5 256.499V245.999C257.5 245.999 246 236.999 238 228.499C229.059 218.999 209 218.999 209 218.999V206.499L233.5 196.499L238 182.999L257.5 179.499L281 151.999L299.5 141.999V131.999H291L299.5 117.499L275 131.999L260.5 112.999L209 151.999L202 179.499V202.999V218.999L190 230.499L209 279.999Z" fill="white"/>
</g>
<path d="M228.5 217.999H211V224.999H228.5V217.999Z" fill="black"/>
<path d="M211 239.499V224.999M211 224.999V217.999H228.5V224.999H211Z" stroke="black"/>
<g filter="url(#filter12_d_1272_12662)">
<path d="M410.5 225.999C404.462 223.889 402 211.999 402 211.999C402 211.999 414.779 206.874 419 211.999C422.476 216.219 419 225.999 419 225.999C419 225.999 413.633 227.094 410.5 225.999Z" fill="white"/>
<path d="M289.5 117.999L286.5 111.999H305.5L334.5 114.999L324.5 123.999L305.5 114.999L289.5 117.999Z" fill="white"/>
<path d="M289.5 190.999C286.5 188.999 283.842 176.72 289.5 176.499C293.373 176.348 296.599 179.144 297 182.999C297.443 187.259 293.063 193.374 289.5 190.999Z" fill="white"/>
</g>
<rect x="233" y="132.999" width="24" height="24" rx="12" fill="#E5F0E2"/>
<path d="M242.356 151.556C245.886 151.204 245.331 154.726 245.331 154.726L244 156.999H252C252.525 156.175 249.768 152.613 249.768 152.613C249.768 152.613 249 148.488 248.004 146.273C247.007 144.059 247.651 144.865 246.239 143.456C244.827 142.047 244.474 142.399 242.003 142.752C239.533 143.104 238.827 151.909 242.356 151.556Z" fill="#CB9191"/>
<path d="M241.5 156.999L245.5 154.999C245.5 154.999 251.253 152.573 252 154.999C252.23 155.746 252 156.999 252 156.999H241.5Z" fill="#7DB86D"/>
<path fill-rule="evenodd" clip-rule="evenodd" d="M238.658 144.404C237.919 142.004 240.102 138.46 242.77 140.697C245.439 142.934 246.858 138.881 248.86 140.952C250.863 143.023 250.94 147.698 250.389 149.055C249.838 150.412 249.954 151.866 249.181 152.715C248.708 153.225 247.736 153.219 247.736 153.219C247.736 153.219 249.135 151.001 248.844 150.699C248.553 150.397 248.146 150.272 248.146 150.272L247.596 149.952C247.596 149.952 247.981 147.485 247.303 146.206C246.624 144.928 245.338 144.992 244.001 145.276C241.886 145.726 239.397 146.804 238.658 144.404Z" fill="black"/>
<rect x="209" y="233.999" width="24" height="24" rx="12" fill="#E2F0EA"/>
<path d="M216.033 252.557C219.563 252.205 219.008 255.727 219.008 255.727L217.677 258H225.677C226.202 257.176 223.445 253.614 223.445 253.614C223.445 253.614 222.677 249.489 221.68 247.274C220.684 245.06 221.327 245.866 219.916 244.457C218.504 243.048 218.151 243.4 215.68 243.753C213.209 244.105 212.503 252.91 216.033 252.557Z" fill="#CB9191"/>
<path d="M215.177 257.999L219.177 255.999C219.177 255.999 224.93 253.573 225.677 255.999C225.906 256.746 225.677 257.999 225.677 257.999H215.177Z" fill="#BC3F3F"/>
<path fill-rule="evenodd" clip-rule="evenodd" d="M215.398 244.805C213.749 244.236 213.149 243.238 214.199 241.387C215.248 239.535 217.947 238.68 220.122 239.107C222.296 239.535 226.269 241.03 224.995 246.016C223.72 251.002 229.343 252.925 229.643 254.635C229.943 256.344 228.224 257.417 226.044 256.843C223.864 256.269 221.396 254.279 220.796 251.501C220.196 248.723 218.657 248.935 218.997 247.156C219.147 246.372 218.969 245.374 218.697 245.019C218.097 244.236 217.048 245.375 215.398 244.805Z" fill="#191000"/>
<rect x="341" y="245.999" width="24" height="24" rx="12" fill="#EEF0E2"/>
<path d="M350.356 264.557C353.886 264.205 353.331 267.727 353.331 267.727L352 270H360C360.525 269.176 357.768 265.614 357.768 265.614C357.768 265.614 357 261.489 356.004 259.274C355.007 257.06 355.651 257.866 354.239 256.457C352.827 255.048 352.474 255.4 350.003 255.753C347.533 256.105 346.827 264.91 350.356 264.557Z" fill="#CB9191"/>
<path d="M349.5 269.999L353.5 267.999C353.5 267.999 359.253 265.573 360 267.999C360.23 268.746 360 269.999 360 269.999H349.5Z" fill="#4D4D9D"/>
<path fill-rule="evenodd" clip-rule="evenodd" d="M350.48 257.198C348.633 257.198 347.927 256.846 347.222 256.494C346.516 256.141 342.597 253.072 347.222 251.915C351.846 250.758 356.546 250.301 359.892 252.972C363.238 255.642 361.684 261.606 361.34 263.185C360.996 264.765 359.934 266.623 357.358 264.594C356.044 263.559 354.359 261.69 355.014 260.174C355.534 258.973 355.34 258.607 354.634 258.607C354.281 258.607 354.281 259.311 354.281 259.311C354.281 259.311 353.934 259.311 353.928 259.311C353.918 259.311 353.928 257.55 353.738 257.198C353.197 256.196 352.326 257.198 350.48 257.198Z" fill="#121111"/>
<rect x="360" y="295.999" width="24" height="24" rx="12" fill="#F0E2E2"/>
<path d="M368.033 314.556C371.563 314.204 371.008 317.726 371.008 317.726L369.677 319.999H377.677C378.202 319.175 375.445 315.613 375.445 315.613C375.445 315.613 374.677 311.488 373.68 309.273C372.684 307.059 373.327 307.865 371.916 306.456C370.504 305.047 370.151 305.399 367.68 305.752C365.209 306.104 364.503 314.909 368.033 314.556Z" fill="#CB9191"/>
<path d="M367.177 319.999L371.177 317.999C371.177 317.999 376.93 315.573 377.677 317.999C377.906 318.746 377.677 319.999 377.677 319.999H367.177Z" fill="#7DB86D"/>
<path fill-rule="evenodd" clip-rule="evenodd" d="M364.335 307.404C363.596 305.004 365.779 301.46 368.447 303.697C371.115 305.934 372.535 301.881 374.537 303.952C376.539 306.023 376.617 310.698 376.066 312.055C375.515 313.412 375.63 314.866 374.858 315.715C374.385 316.225 373.412 316.219 373.412 316.219C373.412 316.219 374.812 314.001 374.521 313.699C374.23 313.397 373.823 313.272 373.823 313.272L373.273 312.952C373.273 312.952 373.658 310.485 372.98 309.206C372.301 307.928 371.014 307.992 369.678 308.276C367.562 308.726 365.074 309.804 364.335 307.404Z" fill="black"/>
<rect x="292" y="218.999" width="24" height="24" rx="12" fill="#E2E2F0"/>
<path d="M301.356 237.557C304.886 237.205 304.331 240.727 304.331 240.727L303 243H311C311.525 242.176 308.768 238.614 308.768 238.614C308.768 238.614 308 234.489 307.004 232.274C306.007 230.06 306.651 230.866 305.239 229.457C303.827 228.048 303.474 228.4 301.003 228.753C298.533 229.105 297.827 237.91 301.356 237.557Z" fill="#CB9191"/>
<path d="M300.5 242.999L304.5 240.999C304.5 240.999 310.253 238.573 311 240.999C311.23 241.746 311 242.999 311 242.999H300.5Z" fill="#4D4D9D"/>
<path fill-rule="evenodd" clip-rule="evenodd" d="M301.48 230.198C299.633 230.198 298.927 229.846 298.222 229.494C297.516 229.141 293.597 226.072 298.222 224.915C302.846 223.758 307.546 223.301 310.892 225.972C314.238 228.642 312.684 234.606 312.34 236.185C311.996 237.765 310.934 239.623 308.358 237.594C307.044 236.559 305.359 234.69 306.014 233.174C306.534 231.973 306.34 231.607 305.634 231.607C305.281 231.607 305.281 232.311 305.281 232.311C305.281 232.311 304.934 232.311 304.928 232.311C304.918 232.311 304.928 230.55 304.738 230.198C304.197 229.196 303.326 230.198 301.48 230.198Z" fill="#121111"/>
<rect x="331" y="137.999" width="24" height="24" rx="12" fill="#E2E2F0"/>
<path d="M340.356 156.557C343.886 156.205 343.331 159.727 343.331 159.727L342 162H350C350.525 161.176 347.768 157.614 347.768 157.614C347.768 157.614 347 153.489 346.004 151.274C345.007 149.06 345.651 149.866 344.239 148.457C342.827 147.048 342.474 147.4 340.003 147.753C337.533 148.105 336.827 156.91 340.356 156.557Z" fill="#CB9191"/>
<path d="M339.5 161.999L343.5 159.999C343.5 159.999 349.253 157.573 350 159.999C350.23 160.746 350 161.999 350 161.999H339.5Z" fill="#4D4D9D"/>
<path fill-rule="evenodd" clip-rule="evenodd" d="M340.48 149.198C338.633 149.198 337.927 148.846 337.222 148.494C336.516 148.141 332.597 145.072 337.222 143.915C341.846 142.758 346.546 142.301 349.892 144.972C353.238 147.642 351.684 153.606 351.34 155.185C350.996 156.765 349.934 158.623 347.358 156.594C346.044 155.559 344.359 153.69 345.014 152.174C345.534 150.973 345.34 150.607 344.634 150.607C344.281 150.607 344.281 151.311 344.281 151.311C344.281 151.311 343.934 151.311 343.928 151.311C343.918 151.311 343.928 149.55 343.738 149.198C343.197 148.196 342.326 149.198 340.48 149.198Z" fill="#121111"/>
<rect x="348" y="201.999" width="24" height="24" rx="12" fill="#F0EAE2"/>
<path d="M356.033 220.557C359.563 220.205 359.008 223.727 359.008 223.727L357.677 226H365.677C366.202 225.176 363.445 221.614 363.445 221.614C363.445 221.614 362.677 217.489 361.68 215.274C360.684 213.06 361.327 213.866 359.916 212.457C358.504 211.048 358.151 211.4 355.68 211.753C353.209 212.105 352.503 220.91 356.033 220.557Z" fill="#CB9191"/>
<path d="M355.177 225.999L359.177 223.999C359.177 223.999 364.93 221.573 365.677 223.999C365.906 224.746 365.677 225.999 365.677 225.999H355.177Z" fill="#BC3F3F"/>
<path fill-rule="evenodd" clip-rule="evenodd" d="M355.398 212.805C353.749 212.236 353.149 211.238 354.199 209.387C355.248 207.535 357.947 206.68 360.122 207.107C362.296 207.535 366.269 209.03 364.995 214.016C363.72 219.002 369.343 220.925 369.643 222.635C369.943 224.344 368.224 225.417 366.044 224.843C363.864 224.269 361.396 222.279 360.796 219.501C360.196 216.723 358.657 216.935 358.997 215.156C359.147 214.372 358.969 213.374 358.697 213.019C358.097 212.236 357.048 213.375 355.398 212.805Z" fill="#191000"/>
<rect x="409" y="204.999" width="24" height="24" rx="12" fill="#E2E2F0"/>
<path d="M418.356 223.557C421.886 223.205 421.331 226.727 421.331 226.727L420 229H428C428.525 228.176 425.768 224.614 425.768 224.614C425.768 224.614 425 220.489 424.004 218.274C423.007 216.06 423.651 216.866 422.239 215.457C420.827 214.048 420.474 214.4 418.003 214.753C415.533 215.105 414.827 223.91 418.356 223.557Z" fill="#CB9191"/>
<path d="M417.5 228.999L421.5 226.999C421.5 226.999 427.253 224.573 428 226.999C428.23 227.746 428 228.999 428 228.999H417.5Z" fill="#4D4D9D"/>
<path fill-rule="evenodd" clip-rule="evenodd" d="M418.48 216.198C416.633 216.198 415.927 215.846 415.222 215.494C414.516 215.141 410.597 212.072 415.222 210.915C419.846 209.758 424.546 209.301 427.892 211.972C431.238 214.642 429.684 220.606 429.34 222.185C428.996 223.765 427.934 225.623 425.358 223.594C424.044 222.559 422.359 220.69 423.014 219.174C423.534 217.973 423.34 217.607 422.634 217.607C422.281 217.607 422.281 218.311 422.281 218.311C422.281 218.311 421.934 218.311 421.928 218.311C421.918 218.311 421.928 216.55 421.738 216.198C421.197 215.196 420.326 216.198 418.48 216.198Z" fill="#121111"/>
<rect x="288" y="168.999" width="24" height="24" rx="12" fill="#F0E2E2"/>
<path d="M297.356 187.557C300.886 187.205 300.331 190.727 300.331 190.727L299 193H307C307.525 192.176 304.768 188.614 304.768 188.614C304.768 188.614 304 184.489 303.004 182.274C302.007 180.06 302.651 180.866 301.239 179.457C299.827 178.048 299.474 178.4 297.003 178.753C294.533 179.105 293.827 187.91 297.356 187.557Z" fill="#CB9191"/>
<path d="M296.5 192.999L300.5 190.999C300.5 190.999 306.253 188.573 307 190.999C307.23 191.746 307 192.999 307 192.999H296.5Z" fill="#4D4D9D"/>
<path fill-rule="evenodd" clip-rule="evenodd" d="M297.48 180.198C295.633 180.198 294.927 179.846 294.222 179.494C293.516 179.141 289.597 176.072 294.222 174.915C298.846 173.758 303.546 173.301 306.892 175.972C310.238 178.642 308.684 184.606 308.34 186.185C307.996 187.765 306.934 189.623 304.358 187.594C303.044 186.559 301.359 184.69 302.014 183.174C302.534 181.973 302.34 181.607 301.634 181.607C301.281 181.607 301.281 182.311 301.281 182.311C301.281 182.311 300.934 182.311 300.928 182.311C300.918 182.311 300.928 180.55 300.738 180.198C300.197 179.196 299.326 180.198 297.48 180.198Z" fill="#121111"/>
<rect x="221" y="287.999" width="24" height="24" rx="12" fill="#F0E2E2"/>
<path d="M230.356 306.557C233.886 306.205 233.331 309.727 233.331 309.727L232 312H240C240.525 311.176 237.768 307.614 237.768 307.614C237.768 307.614 237 303.489 236.004 301.274C235.007 299.06 235.651 299.866 234.239 298.457C232.827 297.048 232.474 297.4 230.003 297.753C227.533 298.105 226.827 306.91 230.356 306.557Z" fill="#CB9191"/>
<path d="M229.5 311.999L233.5 309.999C233.5 309.999 239.253 307.573 240 309.999C240.23 310.746 240 311.999 240 311.999H229.5Z" fill="#4D4D9D"/>
<path fill-rule="evenodd" clip-rule="evenodd" d="M230.48 299.198C228.633 299.198 227.927 298.846 227.222 298.494C226.516 298.141 222.597 295.072 227.222 293.915C231.846 292.758 236.546 292.301 239.892 294.972C243.238 297.642 241.684 303.606 241.34 305.185C240.996 306.765 239.934 308.623 237.358 306.594C236.044 305.559 234.359 303.69 235.014 302.174C235.534 300.973 235.34 300.607 234.634 300.607C234.281 300.607 234.281 301.311 234.281 301.311C234.281 301.311 233.934 301.311 233.928 301.311C233.918 301.311 233.928 299.55 233.738 299.198C233.197 298.196 232.326 299.198 230.48 299.198Z" fill="#121111"/>
</g>
<path d="M400.334 167.674C399.986 166.047 403.54 164.87 403.54 164.87L412.723 164.423C412.723 164.423 400.754 169.637 400.334 167.674Z" fill="#FFC4B7"/>
<path d="M422.42 147.239H406.628V153.556H422.42V147.239Z" fill="black"/>
<path d="M406.628 166.641V153.556M406.628 153.556V147.239H422.42V153.556H406.628Z" stroke="black"/>
<path d="M404.751 161.738C400.934 162.66 396.739 164.16 395.364 165.34C394.472 166.105 396.042 168.225 397.128 167.777C402.732 165.464 410.259 165.14 410.259 165.14C410.259 165.14 415.624 165.977 415.023 168.078C414.486 169.955 411.362 169.664 409.93 169.64C408.474 169.615 406.296 171.06 406.834 172.002C407.611 173.361 410.035 172.349 411.335 172.679C418.93 171.145 422.533 168.806 425.828 169.614C428.509 170.271 428.669 163.002 425.947 162.546C422.948 162.044 412.802 159.791 404.751 161.738Z" fill="#FFC4B7"/>
<path d="M236.098 112.044C234.293 112.044 232.491 111.359 231.114 109.991L229.401 108.278C228.737 107.617 227.848 107.251 226.905 107.248H224.495C220.6 107.248 217.43 104.078 217.43 100.183V97.7714C217.428 96.8305 217.062 95.9412 216.398 95.2725L214.713 93.5902C211.954 90.8472 211.942 86.3633 214.687 83.6016L216.4 81.8864C217.062 81.2224 217.428 80.3331 217.43 79.3899V76.9825C217.43 73.0852 220.6 69.9153 224.495 69.9153H226.907C227.848 69.9153 228.735 69.5492 229.404 68.8805L231.091 67.1982C233.833 64.4388 238.315 64.4247 241.079 67.1723L242.792 68.8852C243.458 69.5492 244.345 69.9153 245.286 69.9153H247.698C251.593 69.9153 254.763 73.0852 254.763 76.9825V79.3923C254.766 80.3331 255.132 81.2224 255.796 81.8911L257.48 83.5758C258.815 84.9039 259.554 86.6731 259.561 88.5619C259.566 90.439 258.843 92.2058 257.527 93.5409C257.504 93.5644 257.483 93.5902 257.459 93.6113L255.793 95.2772C255.132 95.9412 254.766 96.8305 254.763 97.7737V100.183C254.763 104.078 251.593 107.248 247.698 107.248H245.286C244.345 107.251 243.456 107.617 242.79 108.281L241.103 109.966C239.728 111.35 237.911 112.044 236.098 112.044Z" fill="#EEAB00"/>
<path fill-rule="evenodd" clip-rule="evenodd" d="M231.509 84.0103C231.122 84.3974 230.62 84.6063 230.064 84.6063C229.543 84.6063 229.031 84.3927 228.621 84.0079C228.231 83.6208 228.011 83.0905 228.011 82.5532C228.011 82.0417 228.227 81.5161 228.607 81.1102C228.816 80.899 229.064 80.7394 229.313 80.655C230.022 80.3312 230.962 80.5212 231.521 81.1078C231.72 81.3073 231.873 81.5255 231.974 81.7531C232.084 81.9971 232.14 82.274 232.14 82.5532C232.14 83.1116 231.917 83.6302 231.509 84.0103ZM243.584 81.0982C242.784 80.3004 241.482 80.3004 240.682 81.0982L228.622 93.1586C227.822 93.9587 227.822 95.2609 228.622 96.0634C229.011 96.4505 229.525 96.664 230.074 96.664C230.623 96.664 231.137 96.4505 231.524 96.0634L243.584 84.003C244.385 83.2006 244.385 81.9007 243.584 81.0982ZM242.921 92.7241C242.16 92.405 241.259 92.5786 240.659 93.1793C240.534 93.3248 240.358 93.55 240.239 93.8152C240.112 94.1014 240.096 94.4088 240.096 94.6153C240.096 94.8218 240.112 95.1268 240.239 95.4131C240.356 95.6758 240.497 95.8894 240.682 96.0747C241.107 96.4689 241.6 96.6684 242.149 96.6684C242.67 96.6684 243.181 96.4572 243.601 96.0653C243.974 95.6923 244.178 95.1761 244.178 94.6153C244.178 94.0522 243.974 93.5383 243.599 93.1629C243.392 92.9587 243.144 92.7992 242.921 92.7241Z" fill="white"/>
<path d="M487.418 109.789C482.555 110.911 478.394 105.728 478.394 105.728L487.418 100.313L493.283 101.216C493.283 101.216 493.283 108.435 487.418 109.789Z" fill="#F7AD9D"/>
<g filter="url(#filter13_i_1272_12662)">
<ellipse cx="121.041" cy="128.739" rx="5.86563" ry="7.67044" fill="#EB4F4F"/>
</g>
<g filter="url(#filter14_i_1272_12662)">
<ellipse cx="121.041" cy="159.42" rx="5.86563" ry="7.67044" fill="#EB4F4F"/>
</g>
<defs>
<filter id="filter0_i_1272_12662" x="463.3" y="101.533" width="70.4307" height="111.166" filterUnits="userSpaceOnUse" color-interpolation-filters="sRGB">
<feFlood flood-opacity="0" result="BackgroundImageFix"/>
<feBlend mode="normal" in="SourceGraphic" in2="BackgroundImageFix" result="shape"/>
<feColorMatrix in="SourceAlpha" type="matrix" values="0 0 0 0 0 0 0 0 0 0 0 0 0 0 0 0 0 0 127 0" result="hardAlpha"/>
<feOffset dx="1" dy="4"/>
<feGaussianBlur stdDeviation="2"/>
<feComposite in2="hardAlpha" operator="arithmetic" k2="-1" k3="1"/>
<feColorMatrix type="matrix" values="0 0 0 0 0 0 0 0 0 0 0 0 0 0 0 0 0 0 0.08 0"/>
<feBlend mode="normal" in2="shape" result="effect1_innerShadow_1272_12662"/>
</filter>
<filter id="filter1_i_1272_12662" x="422.823" y="152.003" width="57.1182" height="22.71" filterUnits="userSpaceOnUse" color-interpolation-filters="sRGB">
<feFlood flood-opacity="0" result="BackgroundImageFix"/>
<feBlend mode="normal" in="SourceGraphic" in2="BackgroundImageFix" result="shape"/>
<feColorMatrix in="SourceAlpha" type="matrix" values="0 0 0 0 0 0 0 0 0 0 0 0 0 0 0 0 0 0 127 0" result="hardAlpha"/>
<feOffset dy="4"/>
<feGaussianBlur stdDeviation="2"/>
<feComposite in2="hardAlpha" operator="arithmetic" k2="-1" k3="1"/>
<feColorMatrix type="matrix" values="0 0 0 0 0 0 0 0 0 0 0 0 0 0 0 0 0 0 0.04 0"/>
<feBlend mode="normal" in2="shape" result="effect1_innerShadow_1272_12662"/>
</filter>
<filter id="filter2_i_1272_12662" x="467.813" y="108.057" width="46.0137" height="60.7598" filterUnits="userSpaceOnUse" color-interpolation-filters="sRGB">
<feFlood flood-opacity="0" result="BackgroundImageFix"/>
<feBlend mode="normal" in="SourceGraphic" in2="BackgroundImageFix" result="shape"/>
<feColorMatrix in="SourceAlpha" type="matrix" values="0 0 0 0 0 0 0 0 0 0 0 0 0 0 0 0 0 0 127 0" result="hardAlpha"/>
<feOffset dy="4"/>
<feGaussianBlur stdDeviation="2"/>
<feComposite in2="hardAlpha" operator="arithmetic" k2="-1" k3="1"/>
<feColorMatrix type="matrix" values="0 0 0 0 0 0 0 0 0 0 0 0 0 0 0 0 0 0 0.04 0"/>
<feBlend mode="normal" in2="shape" result="effect1_innerShadow_1272_12662"/>
</filter>
<filter id="filter3_i_1272_12662" x="374.18" y="112.303" width="49.2656" height="35.3389" filterUnits="userSpaceOnUse" color-interpolation-filters="sRGB">
<feFlood flood-opacity="0" result="BackgroundImageFix"/>
<feBlend mode="normal" in="SourceGraphic" in2="BackgroundImageFix" result="shape"/>
<feColorMatrix in="SourceAlpha" type="matrix" values="0 0 0 0 0 0 0 0 0 0 0 0 0 0 0 0 0 0 127 0" result="hardAlpha"/>
<feOffset dy="4"/>
<feGaussianBlur stdDeviation="2"/>
<feComposite in2="hardAlpha" operator="arithmetic" k2="-1" k3="1"/>
<feColorMatrix type="matrix" values="0 0 0 0 0 0 0 0 0 0 0 0 0 0 0 0 0 0 0.04 0"/>
<feBlend mode="normal" in2="shape" result="effect1_innerShadow_1272_12662"/>
</filter>
<filter id="filter4_i_1272_12662" x="413.736" y="114.245" width="61.1982" height="33.6816" filterUnits="userSpaceOnUse" color-interpolation-filters="sRGB">
<feFlood flood-opacity="0" result="BackgroundImageFix"/>
<feBlend mode="normal" in="SourceGraphic" in2="BackgroundImageFix" result="shape"/>
<feColorMatrix in="SourceAlpha" type="matrix" values="0 0 0 0 0 0 0 0 0 0 0 0 0 0 0 0 0 0 127 0" result="hardAlpha"/>
<feOffset dy="4"/>
<feGaussianBlur stdDeviation="2"/>
<feComposite in2="hardAlpha" operator="arithmetic" k2="-1" k3="1"/>
<feColorMatrix type="matrix" values="0 0 0 0 0 0 0 0 0 0 0 0 0 0 0 0 0 0 0.04 0"/>
<feBlend mode="normal" in2="shape" result="effect1_innerShadow_1272_12662"/>
</filter>
<filter id="filter5_i_1272_12662" x="127.52" y="97.9932" width="61.2119" height="46.3975" filterUnits="userSpaceOnUse" color-interpolation-filters="sRGB">
<feFlood flood-opacity="0" result="BackgroundImageFix"/>
<feBlend mode="normal" in="SourceGraphic" in2="BackgroundImageFix" result="shape"/>
<feColorMatrix in="SourceAlpha" type="matrix" values="0 0 0 0 0 0 0 0 0 0 0 0 0 0 0 0 0 0 127 0" result="hardAlpha"/>
<feOffset dy="4"/>
<feGaussianBlur stdDeviation="2"/>
<feComposite in2="hardAlpha" operator="arithmetic" k2="-1" k3="1"/>
<feColorMatrix type="matrix" values="0 0 0 0 0 0 0 0 0 0 0 0 0 0 0 0 0 0 0.08 0"/>
<feBlend mode="normal" in2="shape" result="effect1_innerShadow_1272_12662"/>
</filter>
<filter id="filter6_i_1272_12662" x="89.9863" y="94.7344" width="56.1689" height="95.6211" filterUnits="userSpaceOnUse" color-interpolation-filters="sRGB">
<feFlood flood-opacity="0" result="BackgroundImageFix"/>
<feBlend mode="normal" in="SourceGraphic" in2="BackgroundImageFix" result="shape"/>
<feColorMatrix in="SourceAlpha" type="matrix" values="0 0 0 0 0 0 0 0 0 0 0 0 0 0 0 0 0 0 127 0" result="hardAlpha"/>
<feOffset dx="-2" dy="4"/>
<feGaussianBlur stdDeviation="2"/>
<feComposite in2="hardAlpha" operator="arithmetic" k2="-1" k3="1"/>
<feColorMatrix type="matrix" values="0 0 0 0 0 0 0 0 0 0 0 0 0 0 0 0 0 0 0.08 0"/>
<feBlend mode="normal" in2="shape" result="effect1_innerShadow_1272_12662"/>
</filter>
<filter id="filter7_i_1272_12662" x="105.974" y="56.9531" width="27.5342" height="37.2402" filterUnits="userSpaceOnUse" color-interpolation-filters="sRGB">
<feFlood flood-opacity="0" result="BackgroundImageFix"/>
<feBlend mode="normal" in="SourceGraphic" in2="BackgroundImageFix" result="shape"/>
<feColorMatrix in="SourceAlpha" type="matrix" values="0 0 0 0 0 0 0 0 0 0 0 0 0 0 0 0 0 0 127 0" result="hardAlpha"/>
<feOffset dy="4"/>
<feGaussianBlur stdDeviation="2"/>
<feComposite in2="hardAlpha" operator="arithmetic" k2="-1" k3="1"/>
<feColorMatrix type="matrix" values="0 0 0 0 0 0 0 0 0 0 0 0 0 0 0 0 0 0 0.25 0"/>
<feBlend mode="normal" in2="shape" result="effect1_innerShadow_1272_12662"/>
</filter>
<filter id="filter8_i_1272_12662" x="183.798" y="127.04" width="52.8535" height="17.6758" filterUnits="userSpaceOnUse" color-interpolation-filters="sRGB">
<feFlood flood-opacity="0" result="BackgroundImageFix"/>
<feBlend mode="normal" in="SourceGraphic" in2="BackgroundImageFix" result="shape"/>
<feColorMatrix in="SourceAlpha" type="matrix" values="0 0 0 0 0 0 0 0 0 0 0 0 0 0 0 0 0 0 127 0" result="hardAlpha"/>
<feOffset dy="4"/>
<feGaussianBlur stdDeviation="2"/>
<feComposite in2="hardAlpha" operator="arithmetic" k2="-1" k3="1"/>
<feColorMatrix type="matrix" values="0 0 0 0 0 0 0 0 0 0 0 0 0 0 0 0 0 0 0.08 0"/>
<feBlend mode="normal" in2="shape" result="effect1_innerShadow_1272_12662"/>
</filter>
<filter id="filter9_i_1272_12662" x="74" y="97.5674" width="36.6152" height="116.8" filterUnits="userSpaceOnUse" color-interpolation-filters="sRGB">
<feFlood flood-opacity="0" result="BackgroundImageFix"/>
<feBlend mode="normal" in="SourceGraphic" in2="BackgroundImageFix" result="shape"/>
<feColorMatrix in="SourceAlpha" type="matrix" values="0 0 0 0 0 0 0 0 0 0 0 0 0 0 0 0 0 0 127 0" result="hardAlpha"/>
<feOffset dy="4"/>
<feGaussianBlur stdDeviation="2"/>
<feComposite in2="hardAlpha" operator="arithmetic" k2="-1" k3="1"/>
<feColorMatrix type="matrix" values="0 0 0 0 0 0 0 0 0 0 0 0 0 0 0 0 0 0 0.08 0"/>
<feBlend mode="normal" in2="shape" result="effect1_innerShadow_1272_12662"/>
</filter>
<filter id="filter10_d_1272_12662" x="246" y="118.499" width="192.5" height="245.837" filterUnits="userSpaceOnUse" color-interpolation-filters="sRGB">
<feFlood flood-opacity="0" result="BackgroundImageFix"/>
<feColorMatrix in="SourceAlpha" type="matrix" values="0 0 0 0 0 0 0 0 0 0 0 0 0 0 0 0 0 0 127 0" result="hardAlpha"/>
<feOffset dy="4"/>
<feGaussianBlur stdDeviation="2"/>
<feComposite in2="hardAlpha" operator="out"/>
<feColorMatrix type="matrix" values="0 0 0 0 0 0 0 0 0 0 0 0 0 0 0 0 0 0 0.12 0"/>
<feBlend mode="normal" in2="BackgroundImageFix" result="effect1_dropShadow_1272_12662"/>
<feBlend mode="normal" in="SourceGraphic" in2="effect1_dropShadow_1272_12662" result="shape"/>
</filter>
<filter id="filter11_d_1272_12662" x="186" y="112.999" width="117.5" height="214.5" filterUnits="userSpaceOnUse" color-interpolation-filters="sRGB">
<feFlood flood-opacity="0" result="BackgroundImageFix"/>
<feColorMatrix in="SourceAlpha" type="matrix" values="0 0 0 0 0 0 0 0 0 0 0 0 0 0 0 0 0 0 127 0" result="hardAlpha"/>
<feOffset dy="4"/>
<feGaussianBlur stdDeviation="2"/>
<feComposite in2="hardAlpha" operator="out"/>
<feColorMatrix type="matrix" values="0 0 0 0 0 0 0 0 0 0 0 0 0 0 0 0 0 0 0.12 0"/>
<feBlend mode="normal" in2="BackgroundImageFix" result="effect1_dropShadow_1272_12662"/>
<feBlend mode="normal" in="SourceGraphic" in2="effect1_dropShadow_1272_12662" result="shape"/>
</filter>
<filter id="filter12_d_1272_12662" x="282.18" y="111.999" width="142.365" height="122.486" filterUnits="userSpaceOnUse" color-interpolation-filters="sRGB">
<feFlood flood-opacity="0" result="BackgroundImageFix"/>
<feColorMatrix in="SourceAlpha" type="matrix" values="0 0 0 0 0 0 0 0 0 0 0 0 0 0 0 0 0 0 127 0" result="hardAlpha"/>
<feOffset dy="4"/>
<feGaussianBlur stdDeviation="2"/>
<feComposite in2="hardAlpha" operator="out"/>
<feColorMatrix type="matrix" values="0 0 0 0 0 0 0 0 0 0 0 0 0 0 0 0 0 0 0.12 0"/>
<feBlend mode="normal" in2="BackgroundImageFix" result="effect1_dropShadow_1272_12662"/>
<feBlend mode="normal" in="SourceGraphic" in2="effect1_dropShadow_1272_12662" result="shape"/>
</filter>
<filter id="filter13_i_1272_12662" x="115.176" y="121.068" width="11.7314" height="19.3408" filterUnits="userSpaceOnUse" color-interpolation-filters="sRGB">
<feFlood flood-opacity="0" result="BackgroundImageFix"/>
<feBlend mode="normal" in="SourceGraphic" in2="BackgroundImageFix" result="shape"/>
<feColorMatrix in="SourceAlpha" type="matrix" values="0 0 0 0 0 0 0 0 0 0 0 0 0 0 0 0 0 0 127 0" result="hardAlpha"/>
<feOffset dy="4"/>
<feGaussianBlur stdDeviation="2"/>
<feComposite in2="hardAlpha" operator="arithmetic" k2="-1" k3="1"/>
<feColorMatrix type="matrix" values="0 0 0 0 0 0 0 0 0 0 0 0 0 0 0 0 0 0 0.08 0"/>
<feBlend mode="normal" in2="shape" result="effect1_innerShadow_1272_12662"/>
</filter>
<filter id="filter14_i_1272_12662" x="115.176" y="151.75" width="11.7314" height="19.3408" filterUnits="userSpaceOnUse" color-interpolation-filters="sRGB">
<feFlood flood-opacity="0" result="BackgroundImageFix"/>
<feBlend mode="normal" in="SourceGraphic" in2="BackgroundImageFix" result="shape"/>
<feColorMatrix in="SourceAlpha" type="matrix" values="0 0 0 0 0 0 0 0 0 0 0 0 0 0 0 0 0 0 127 0" result="hardAlpha"/>
<feOffset dy="4"/>
<feGaussianBlur stdDeviation="2"/>
<feComposite in2="hardAlpha" operator="arithmetic" k2="-1" k3="1"/>
<feColorMatrix type="matrix" values="0 0 0 0 0 0 0 0 0 0 0 0 0 0 0 0 0 0 0.08 0"/>
<feBlend mode="normal" in2="shape" result="effect1_innerShadow_1272_12662"/>
</filter>
<clipPath id="clip0_1272_12662">
<rect x="190" y="107.999" width="254" height="247" rx="123.5" fill="white"/>
</clipPath>
</defs>
</svg>
