<svg width="670" height="450" viewBox="0 0 670 450" fill="none" xmlns="http://www.w3.org/2000/svg">
<g filter="url(#filter0_d_2453_14282)">
<rect x="104.904" y="28" width="304.668" height="171.833" rx="12" fill="white"/>
</g>
<circle cx="257.239" cy="113.308" r="57.2776" fill="#E2E2F0"/>
<path d="M256.869 56.0293V113.676H199.962C199.961 113.552 199.961 113.429 199.961 113.306C199.961 81.7953 225.406 56.2278 256.869 56.0293Z" fill="#38386C"/>
<g filter="url(#filter1_d_2453_14282)">
<rect x="22" y="211" width="374" height="221" rx="12" fill="white"/>
</g>
<path d="M69.8693 239.455L73.9176 251.301H74.081L78.1293 239.455H80.5014L75.267 254H72.7315L67.4972 239.455H69.8693ZM82.4315 254V243.091H84.555V254H82.4315ZM83.5039 241.408C83.1346 241.408 82.8174 241.285 82.5522 241.038C82.2918 240.787 82.1616 240.489 82.1616 240.143C82.1616 239.793 82.2918 239.495 82.5522 239.249C82.8174 238.998 83.1346 238.872 83.5039 238.872C83.8732 238.872 84.1881 238.998 84.4485 239.249C84.7137 239.495 84.8462 239.793 84.8462 240.143C84.8462 240.489 84.7137 240.787 84.4485 241.038C84.1881 241.285 83.8732 241.408 83.5039 241.408ZM95.5866 245.754L93.6619 246.095C93.5814 245.849 93.4536 245.615 93.2784 245.392C93.108 245.17 92.8759 244.987 92.5824 244.845C92.2888 244.703 91.9219 244.632 91.4815 244.632C90.8802 244.632 90.3783 244.767 89.9759 245.037C89.5734 245.302 89.3722 245.645 89.3722 246.067C89.3722 246.431 89.5071 246.725 89.777 246.947C90.0469 247.17 90.4825 247.352 91.0838 247.494L92.8168 247.892C93.8205 248.124 94.5687 248.482 95.0611 248.964C95.5535 249.447 95.7997 250.075 95.7997 250.847C95.7997 251.5 95.6103 252.082 95.2315 252.594C94.8575 253.1 94.3343 253.498 93.6619 253.787C92.9943 254.076 92.2202 254.22 91.3395 254.22C90.1179 254.22 89.1212 253.96 88.3494 253.439C87.5777 252.913 87.1042 252.168 86.929 251.202L88.9815 250.889C89.1094 251.424 89.3722 251.829 89.7699 252.104C90.1676 252.374 90.6861 252.509 91.3253 252.509C92.0213 252.509 92.5777 252.364 92.9943 252.075C93.411 251.782 93.6193 251.424 93.6193 251.003C93.6193 250.662 93.4915 250.375 93.2358 250.143C92.9848 249.911 92.599 249.736 92.0781 249.618L90.2315 249.213C89.2135 248.981 88.4607 248.612 87.973 248.105C87.4901 247.598 87.2486 246.957 87.2486 246.18C87.2486 245.536 87.4285 244.973 87.7884 244.49C88.1482 244.007 88.6454 243.631 89.2798 243.361C89.9143 243.086 90.6411 242.949 91.4602 242.949C92.6392 242.949 93.5672 243.205 94.2443 243.716C94.9214 244.223 95.3688 244.902 95.5866 245.754ZM98.1346 254V243.091H100.258V254H98.1346ZM99.207 241.408C98.8377 241.408 98.5205 241.285 98.2553 241.038C97.9949 240.787 97.8647 240.489 97.8647 240.143C97.8647 239.793 97.9949 239.495 98.2553 239.249C98.5205 238.998 98.8377 238.872 99.207 238.872C99.5763 238.872 99.8912 238.998 100.152 239.249C100.417 239.495 100.549 239.793 100.549 240.143C100.549 240.489 100.417 240.787 100.152 241.038C99.8912 241.285 99.5763 241.408 99.207 241.408ZM108.207 243.091V244.795H102.249V243.091H108.207ZM103.847 240.477H105.97V250.797C105.97 251.209 106.032 251.519 106.155 251.727C106.278 251.931 106.437 252.071 106.631 252.146C106.83 252.217 107.045 252.253 107.277 252.253C107.447 252.253 107.597 252.241 107.724 252.217C107.852 252.194 107.952 252.175 108.023 252.161L108.406 253.915C108.283 253.962 108.108 254.009 107.881 254.057C107.653 254.109 107.369 254.137 107.028 254.142C106.47 254.152 105.949 254.052 105.466 253.844C104.983 253.635 104.592 253.313 104.294 252.878C103.996 252.442 103.847 251.895 103.847 251.237V240.477ZM115.034 254.22C114.012 254.22 113.119 253.986 112.357 253.517C111.595 253.048 111.003 252.393 110.581 251.55C110.16 250.707 109.949 249.722 109.949 248.595C109.949 247.464 110.16 246.474 110.581 245.626C111.003 244.779 111.595 244.121 112.357 243.652C113.119 243.183 114.012 242.949 115.034 242.949C116.057 242.949 116.95 243.183 117.712 243.652C118.474 244.121 119.066 244.779 119.488 245.626C119.909 246.474 120.12 247.464 120.12 248.595C120.12 249.722 119.909 250.707 119.488 251.55C119.066 252.393 118.474 253.048 117.712 253.517C116.95 253.986 116.057 254.22 115.034 254.22ZM115.042 252.438C115.704 252.438 116.254 252.262 116.689 251.912C117.125 251.562 117.447 251.095 117.655 250.513C117.868 249.93 117.975 249.289 117.975 248.588C117.975 247.892 117.868 247.253 117.655 246.67C117.447 246.083 117.125 245.612 116.689 245.257C116.254 244.902 115.704 244.724 115.042 244.724C114.374 244.724 113.82 244.902 113.38 245.257C112.944 245.612 112.62 246.083 112.407 246.67C112.198 247.253 112.094 247.892 112.094 248.588C112.094 249.289 112.198 249.93 112.407 250.513C112.62 251.095 112.944 251.562 113.38 251.912C113.82 252.262 114.374 252.438 115.042 252.438ZM122.49 254V243.091H124.543V244.824H124.656C124.855 244.237 125.205 243.775 125.707 243.439C126.214 243.098 126.787 242.928 127.426 242.928C127.559 242.928 127.715 242.932 127.895 242.942C128.08 242.951 128.224 242.963 128.328 242.977V245.009C128.243 244.985 128.091 244.959 127.874 244.93C127.656 244.897 127.438 244.881 127.22 244.881C126.718 244.881 126.271 244.987 125.878 245.2C125.49 245.409 125.182 245.7 124.955 246.074C124.727 246.443 124.614 246.865 124.614 247.338V254H122.49ZM138.341 245.754L136.416 246.095C136.335 245.849 136.208 245.615 136.032 245.392C135.862 245.17 135.63 244.987 135.336 244.845C135.043 244.703 134.676 244.632 134.235 244.632C133.634 244.632 133.132 244.767 132.73 245.037C132.327 245.302 132.126 245.645 132.126 246.067C132.126 246.431 132.261 246.725 132.531 246.947C132.801 247.17 133.236 247.352 133.838 247.494L135.571 247.892C136.574 248.124 137.323 248.482 137.815 248.964C138.307 249.447 138.554 250.075 138.554 250.847C138.554 251.5 138.364 252.082 137.985 252.594C137.611 253.1 137.088 253.498 136.416 253.787C135.748 254.076 134.974 254.22 134.093 254.22C132.872 254.22 131.875 253.96 131.103 253.439C130.332 252.913 129.858 252.168 129.683 251.202L131.735 250.889C131.863 251.424 132.126 251.829 132.524 252.104C132.922 252.374 133.44 252.509 134.079 252.509C134.775 252.509 135.332 252.364 135.748 252.075C136.165 251.782 136.373 251.424 136.373 251.003C136.373 250.662 136.245 250.375 135.99 250.143C135.739 249.911 135.353 249.736 134.832 249.618L132.985 249.213C131.967 248.981 131.215 248.612 130.727 248.105C130.244 247.598 130.002 246.957 130.002 246.18C130.002 245.536 130.182 244.973 130.542 244.49C130.902 244.007 131.399 243.631 132.034 243.361C132.668 243.086 133.395 242.949 134.214 242.949C135.393 242.949 136.321 243.205 136.998 243.716C137.675 244.223 138.123 244.902 138.341 245.754ZM146.352 254V239.455H148.475V244.859H148.603C148.726 244.632 148.904 244.369 149.136 244.071C149.368 243.773 149.69 243.512 150.102 243.29C150.514 243.062 151.058 242.949 151.735 242.949C152.616 242.949 153.402 243.171 154.093 243.616C154.785 244.062 155.327 244.703 155.72 245.541C156.118 246.379 156.316 247.388 156.316 248.567C156.316 249.746 156.12 250.757 155.727 251.599C155.334 252.437 154.794 253.084 154.108 253.538C153.421 253.988 152.637 254.213 151.757 254.213C151.094 254.213 150.552 254.102 150.13 253.879C149.714 253.657 149.387 253.396 149.15 253.098C148.913 252.8 148.731 252.535 148.603 252.303H148.426V254H146.352ZM148.433 248.545C148.433 249.312 148.544 249.985 148.767 250.562C148.989 251.14 149.311 251.592 149.733 251.919C150.154 252.241 150.67 252.402 151.281 252.402C151.915 252.402 152.446 252.234 152.872 251.898C153.298 251.557 153.62 251.095 153.838 250.513C154.06 249.93 154.172 249.275 154.172 248.545C154.172 247.826 154.063 247.179 153.845 246.607C153.632 246.034 153.31 245.581 152.879 245.25C152.453 244.919 151.92 244.753 151.281 244.753C150.665 244.753 150.145 244.911 149.718 245.229C149.297 245.546 148.977 245.989 148.76 246.557C148.542 247.125 148.433 247.788 148.433 248.545ZM159.672 258.091C159.355 258.091 159.066 258.065 158.806 258.013C158.545 257.965 158.351 257.913 158.223 257.857L158.735 256.116C159.123 256.221 159.469 256.266 159.772 256.251C160.075 256.237 160.342 256.124 160.574 255.911C160.811 255.697 161.019 255.349 161.199 254.866L161.462 254.142L157.471 243.091H159.743L162.506 251.557H162.62L165.382 243.091H167.662L163.167 255.456C162.958 256.024 162.693 256.505 162.371 256.898C162.049 257.295 161.666 257.594 161.221 257.793C160.775 257.991 160.259 258.091 159.672 258.091ZM179.546 254.22C178.49 254.22 177.581 253.981 176.819 253.503C176.061 253.02 175.479 252.355 175.072 251.507C174.665 250.66 174.461 249.689 174.461 248.595C174.461 247.487 174.669 246.509 175.086 245.662C175.503 244.81 176.09 244.144 176.847 243.666C177.605 243.188 178.497 242.949 179.525 242.949C180.353 242.949 181.092 243.103 181.741 243.411C182.389 243.714 182.913 244.14 183.31 244.689C183.713 245.238 183.952 245.88 184.028 246.614H181.961C181.847 246.102 181.587 245.662 181.18 245.293C180.777 244.923 180.237 244.739 179.56 244.739C178.969 244.739 178.45 244.895 178.005 245.207C177.565 245.515 177.221 245.955 176.975 246.528C176.729 247.097 176.606 247.769 176.606 248.545C176.606 249.341 176.727 250.027 176.968 250.605C177.21 251.183 177.55 251.63 177.991 251.947C178.436 252.265 178.959 252.423 179.56 252.423C179.963 252.423 180.327 252.35 180.654 252.203C180.986 252.052 181.263 251.836 181.485 251.557C181.712 251.277 181.871 250.941 181.961 250.548H184.028C183.952 251.254 183.722 251.884 183.339 252.438C182.955 252.991 182.442 253.427 181.798 253.744C181.158 254.062 180.408 254.22 179.546 254.22ZM190.894 254.22C189.871 254.22 188.979 253.986 188.216 253.517C187.454 253.048 186.862 252.393 186.441 251.55C186.019 250.707 185.809 249.722 185.809 248.595C185.809 247.464 186.019 246.474 186.441 245.626C186.862 244.779 187.454 244.121 188.216 243.652C188.979 243.183 189.871 242.949 190.894 242.949C191.917 242.949 192.809 243.183 193.571 243.652C194.334 244.121 194.926 244.779 195.347 245.626C195.768 246.474 195.979 247.464 195.979 248.595C195.979 249.722 195.768 250.707 195.347 251.55C194.926 252.393 194.334 253.048 193.571 253.517C192.809 253.986 191.917 254.22 190.894 254.22ZM190.901 252.438C191.564 252.438 192.113 252.262 192.549 251.912C192.984 251.562 193.306 251.095 193.515 250.513C193.728 249.93 193.834 249.289 193.834 248.588C193.834 247.892 193.728 247.253 193.515 246.67C193.306 246.083 192.984 245.612 192.549 245.257C192.113 244.902 191.564 244.724 190.901 244.724C190.233 244.724 189.679 244.902 189.239 245.257C188.803 245.612 188.479 246.083 188.266 246.67C188.058 247.253 187.953 247.892 187.953 248.588C187.953 249.289 188.058 249.93 188.266 250.513C188.479 251.095 188.803 251.562 189.239 251.912C189.679 252.262 190.233 252.438 190.901 252.438ZM205.26 249.476V243.091H207.391V254H205.303V252.111H205.189C204.938 252.693 204.536 253.179 203.982 253.567C203.432 253.95 202.748 254.142 201.929 254.142C201.228 254.142 200.608 253.988 200.068 253.68C199.533 253.368 199.112 252.906 198.804 252.295C198.501 251.685 198.349 250.929 198.349 250.03V243.091H200.473V249.774C200.473 250.518 200.679 251.109 201.091 251.55C201.503 251.99 202.038 252.21 202.696 252.21C203.094 252.21 203.489 252.111 203.882 251.912C204.28 251.713 204.609 251.412 204.869 251.01C205.134 250.607 205.265 250.096 205.26 249.476ZM212.368 247.523V254H210.244V243.091H212.282V244.866H212.417C212.668 244.289 213.061 243.825 213.596 243.474C214.136 243.124 214.815 242.949 215.635 242.949C216.378 242.949 217.029 243.105 217.588 243.418C218.146 243.725 218.58 244.185 218.887 244.795C219.195 245.406 219.349 246.161 219.349 247.061V254H217.225V247.317C217.225 246.526 217.02 245.908 216.608 245.463C216.196 245.013 215.63 244.788 214.91 244.788C214.418 244.788 213.98 244.895 213.596 245.108C213.217 245.321 212.917 245.634 212.694 246.045C212.476 246.453 212.368 246.945 212.368 247.523ZM227.289 243.091V244.795H221.331V243.091H227.289ZM222.929 240.477H225.052V250.797C225.052 251.209 225.114 251.519 225.237 251.727C225.36 251.931 225.519 252.071 225.713 252.146C225.912 252.217 226.127 252.253 226.359 252.253C226.529 252.253 226.679 252.241 226.806 252.217C226.934 252.194 227.034 252.175 227.105 252.161L227.488 253.915C227.365 253.962 227.19 254.009 226.963 254.057C226.735 254.109 226.451 254.137 226.11 254.142C225.552 254.152 225.031 254.052 224.548 253.844C224.065 253.635 223.674 253.313 223.376 252.878C223.078 252.442 222.929 251.895 222.929 251.237V240.477ZM229.638 254V243.091H231.691V244.824H231.805C232.004 244.237 232.354 243.775 232.856 243.439C233.362 243.098 233.935 242.928 234.575 242.928C234.707 242.928 234.863 242.932 235.043 242.942C235.228 242.951 235.372 242.963 235.477 242.977V245.009C235.391 244.985 235.24 244.959 235.022 244.93C234.804 244.897 234.586 244.881 234.369 244.881C233.867 244.881 233.419 244.987 233.026 245.2C232.638 245.409 232.33 245.7 232.103 246.074C231.876 246.443 231.762 246.865 231.762 247.338V254H229.638ZM238.989 258.091C238.671 258.091 238.383 258.065 238.122 258.013C237.862 257.965 237.668 257.913 237.54 257.857L238.051 256.116C238.439 256.221 238.785 256.266 239.088 256.251C239.391 256.237 239.659 256.124 239.891 255.911C240.127 255.697 240.336 255.349 240.516 254.866L240.778 254.142L236.787 243.091H239.06L241.822 251.557H241.936L244.699 243.091H246.979L242.483 255.456C242.275 256.024 242.009 256.505 241.688 256.898C241.366 257.295 240.982 257.594 240.537 257.793C240.092 257.991 239.576 258.091 238.989 258.091Z" fill="black"/>
<rect x="67" y="280" width="282" height="32" rx="4" fill="#E2E2F0"/>
<path d="M82.1705 289.909V303H80.5852V289.909H82.1705ZM86.6529 297.094V303H85.1444V293.182H86.6017V294.716H86.7296C86.9597 294.217 87.3091 293.817 87.7779 293.514C88.2466 293.207 88.8517 293.054 89.5932 293.054C90.258 293.054 90.8397 293.19 91.3382 293.463C91.8368 293.732 92.2246 294.141 92.5016 294.69C92.7786 295.236 92.9171 295.926 92.9171 296.761V303H91.4086V296.864C91.4086 296.092 91.2083 295.491 90.8077 295.061C90.4071 294.626 89.8574 294.409 89.1586 294.409C88.677 294.409 88.2466 294.513 87.8674 294.722C87.4924 294.931 87.1962 295.236 86.9789 295.636C86.7615 296.037 86.6529 296.523 86.6529 297.094ZM99.381 303.205C98.5629 303.205 97.8406 302.998 97.2141 302.585C96.5877 302.167 96.0977 301.579 95.744 300.82C95.3903 300.058 95.2134 299.156 95.2134 298.116C95.2134 297.085 95.3903 296.19 95.744 295.432C96.0977 294.673 96.5898 294.087 97.2205 293.674C97.8512 293.261 98.5799 293.054 99.4066 293.054C100.046 293.054 100.551 293.161 100.922 293.374C101.297 293.582 101.582 293.821 101.778 294.089C101.978 294.354 102.134 294.571 102.245 294.741H102.373V289.909H103.881V303H102.424V301.491H102.245C102.134 301.67 101.976 301.896 101.772 302.169C101.567 302.437 101.275 302.678 100.896 302.891C100.517 303.1 100.012 303.205 99.381 303.205ZM99.5856 301.849C100.191 301.849 100.702 301.692 101.12 301.376C101.537 301.057 101.855 300.616 102.072 300.053C102.289 299.487 102.398 298.832 102.398 298.091C102.398 297.358 102.292 296.717 102.078 296.167C101.865 295.613 101.55 295.183 101.132 294.876C100.715 294.565 100.199 294.409 99.5856 294.409C98.9464 294.409 98.4137 294.573 97.9876 294.901C97.5657 295.225 97.2482 295.666 97.0352 296.224C96.8263 296.778 96.7219 297.401 96.7219 298.091C96.7219 298.79 96.8285 299.425 97.0415 299.996C97.2589 300.562 97.5785 301.014 98.0004 301.351C98.4265 301.683 98.9549 301.849 99.5856 301.849ZM106.853 303V293.182H108.362V303H106.853ZM107.62 291.545C107.326 291.545 107.073 291.445 106.86 291.245C106.651 291.045 106.547 290.804 106.547 290.523C106.547 290.241 106.651 290.001 106.86 289.8C107.073 289.6 107.326 289.5 107.62 289.5C107.914 289.5 108.166 289.6 108.375 289.8C108.588 290.001 108.694 290.241 108.694 290.523C108.694 290.804 108.588 291.045 108.375 291.245C108.166 291.445 107.914 291.545 107.62 291.545ZM114.014 303.23C113.392 303.23 112.827 303.113 112.32 302.879C111.813 302.64 111.41 302.297 111.112 301.849C110.814 301.398 110.665 300.852 110.665 300.213C110.665 299.651 110.775 299.195 110.997 298.845C111.219 298.491 111.515 298.214 111.885 298.014C112.256 297.814 112.665 297.665 113.113 297.567C113.564 297.464 114.018 297.384 114.474 297.324C115.071 297.247 115.555 297.19 115.925 297.151C116.3 297.109 116.573 297.038 116.743 296.94C116.918 296.842 117.006 296.672 117.006 296.429V296.378C117.006 295.747 116.833 295.257 116.488 294.908C116.147 294.558 115.629 294.384 114.934 294.384C114.214 294.384 113.65 294.541 113.241 294.857C112.831 295.172 112.544 295.509 112.378 295.866L110.946 295.355C111.202 294.759 111.542 294.294 111.969 293.962C112.399 293.625 112.868 293.391 113.375 293.259C113.886 293.122 114.389 293.054 114.883 293.054C115.199 293.054 115.561 293.092 115.97 293.169C116.383 293.241 116.782 293.393 117.165 293.623C117.553 293.853 117.875 294.2 118.131 294.665C118.386 295.129 118.514 295.751 118.514 296.531V303H117.006V301.67H116.929C116.827 301.884 116.656 302.112 116.417 302.354C116.179 302.597 115.861 302.804 115.465 302.974C115.069 303.145 114.585 303.23 114.014 303.23ZM114.244 301.875C114.841 301.875 115.344 301.758 115.753 301.523C116.166 301.289 116.477 300.987 116.686 300.616C116.899 300.245 117.006 299.855 117.006 299.446V298.065C116.942 298.142 116.801 298.212 116.584 298.276C116.371 298.336 116.123 298.389 115.842 298.436C115.565 298.479 115.295 298.517 115.03 298.551C114.77 298.581 114.559 298.607 114.398 298.628C114.006 298.679 113.639 298.762 113.298 298.877C112.961 298.988 112.689 299.156 112.48 299.382C112.275 299.604 112.173 299.906 112.173 300.29C112.173 300.814 112.367 301.21 112.755 301.479C113.147 301.743 113.643 301.875 114.244 301.875Z" fill="#38386C"/>
<path d="M293.214 303V301.849L297.536 297.119C298.043 296.565 298.46 296.084 298.788 295.675C299.116 295.261 299.359 294.874 299.517 294.511C299.679 294.145 299.76 293.761 299.76 293.361C299.76 292.901 299.649 292.502 299.428 292.165C299.21 291.829 298.912 291.569 298.533 291.386C298.153 291.202 297.727 291.111 297.254 291.111C296.751 291.111 296.312 291.215 295.938 291.424C295.567 291.629 295.279 291.916 295.075 292.287C294.874 292.658 294.774 293.092 294.774 293.591H293.266C293.266 292.824 293.442 292.151 293.796 291.571C294.15 290.991 294.631 290.54 295.241 290.216C295.854 289.892 296.543 289.73 297.305 289.73C298.072 289.73 298.752 289.892 299.344 290.216C299.937 290.54 300.401 290.977 300.738 291.526C301.075 292.076 301.243 292.688 301.243 293.361C301.243 293.842 301.156 294.313 300.981 294.773C300.81 295.229 300.512 295.739 300.086 296.301C299.664 296.859 299.078 297.541 298.328 298.347L295.388 301.491V301.594H301.473V303H293.214ZM308.383 303.179C307.42 303.179 306.599 302.917 305.922 302.393C305.244 301.864 304.727 301.099 304.369 300.098C304.011 299.092 303.832 297.878 303.832 296.455C303.832 295.04 304.011 293.832 304.369 292.83C304.731 291.825 305.251 291.058 305.928 290.529C306.61 289.996 307.428 289.73 308.383 289.73C309.337 289.73 310.153 289.996 310.831 290.529C311.513 291.058 312.033 291.825 312.391 292.83C312.753 293.832 312.934 295.04 312.934 296.455C312.934 297.878 312.755 299.092 312.397 300.098C312.039 301.099 311.521 301.864 310.844 302.393C310.166 302.917 309.346 303.179 308.383 303.179ZM308.383 301.773C309.337 301.773 310.079 301.312 310.607 300.392C311.136 299.472 311.4 298.159 311.4 296.455C311.4 295.321 311.278 294.356 311.036 293.559C310.797 292.762 310.452 292.155 310 291.737C309.553 291.32 309.013 291.111 308.383 291.111C307.437 291.111 306.697 291.577 306.165 292.511C305.632 293.44 305.366 294.754 305.366 296.455C305.366 297.588 305.485 298.551 305.724 299.344C305.962 300.136 306.305 300.739 306.753 301.153C307.205 301.566 307.748 301.773 308.383 301.773ZM319.633 303.179C318.67 303.179 317.849 302.917 317.172 302.393C316.494 301.864 315.977 301.099 315.619 300.098C315.261 299.092 315.082 297.878 315.082 296.455C315.082 295.04 315.261 293.832 315.619 292.83C315.981 291.825 316.501 291.058 317.178 290.529C317.86 289.996 318.678 289.73 319.633 289.73C320.587 289.73 321.403 289.996 322.081 290.529C322.763 291.058 323.283 291.825 323.641 292.83C324.003 293.832 324.184 295.04 324.184 296.455C324.184 297.878 324.005 299.092 323.647 300.098C323.289 301.099 322.771 301.864 322.094 302.393C321.416 302.917 320.596 303.179 319.633 303.179ZM319.633 301.773C320.587 301.773 321.329 301.312 321.857 300.392C322.386 299.472 322.65 298.159 322.65 296.455C322.65 295.321 322.528 294.356 322.286 293.559C322.047 292.762 321.702 292.155 321.25 291.737C320.803 291.32 320.263 291.111 319.633 291.111C318.687 291.111 317.947 291.577 317.415 292.511C316.882 293.44 316.616 294.754 316.616 296.455C316.616 297.588 316.735 298.551 316.974 299.344C317.212 300.136 317.555 300.739 318.003 301.153C318.455 301.566 318.998 301.773 319.633 301.773ZM326.843 303V289.909H328.428V296.403H328.582L334.462 289.909H336.533L331.036 295.815L336.533 303H334.616L330.065 296.915L328.428 298.756V303H326.843Z" fill="#38386C"/>
<rect x="67" y="324" width="186" height="32" rx="4" fill="#E2E2F0"/>
<path d="M79.8693 335.315V333.909H89.6875V335.315H85.571V347H83.9858V335.315H79.8693ZM96.7811 342.986V337.182H98.2896V347H96.7811V345.338H96.6788C96.4487 345.837 96.0907 346.261 95.6049 346.61C95.1191 346.955 94.5055 347.128 93.764 347.128C93.1504 347.128 92.6049 346.994 92.1277 346.725C91.6504 346.452 91.2754 346.043 91.0027 345.498C90.7299 344.948 90.5936 344.256 90.5936 343.42V337.182H92.1021V343.318C92.1021 344.034 92.3024 344.605 92.7029 345.031C93.1078 345.457 93.6234 345.67 94.2498 345.67C94.6248 345.67 95.0062 345.575 95.394 345.383C95.786 345.191 96.1142 344.897 96.3784 344.501C96.6468 344.104 96.7811 343.599 96.7811 342.986ZM101.053 347V337.182H102.51V338.665H102.612C102.791 338.179 103.115 337.785 103.584 337.482C104.053 337.18 104.581 337.028 105.169 337.028C105.28 337.028 105.418 337.031 105.585 337.035C105.751 337.039 105.876 337.045 105.962 337.054V338.588C105.911 338.575 105.793 338.556 105.61 338.531C105.431 338.501 105.241 338.486 105.041 338.486C104.564 338.486 104.138 338.586 103.763 338.786C103.392 338.982 103.098 339.255 102.881 339.604C102.668 339.95 102.561 340.344 102.561 340.787V347H101.053ZM109.156 343.42L109.131 341.554H109.437L113.733 337.182H115.599L111.023 341.81H110.895L109.156 343.42ZM107.75 347V333.909H109.258V347H107.75ZM113.988 347L110.153 342.142L111.227 341.094L115.906 347H113.988ZM121.253 347.205C120.307 347.205 119.491 346.996 118.805 346.578C118.123 346.156 117.597 345.568 117.226 344.814C116.86 344.055 116.676 343.173 116.676 342.168C116.676 341.162 116.86 340.276 117.226 339.509C117.597 338.737 118.112 338.136 118.773 337.706C119.438 337.271 120.213 337.054 121.1 337.054C121.611 337.054 122.116 337.139 122.615 337.31C123.113 337.48 123.567 337.757 123.976 338.141C124.385 338.52 124.711 339.023 124.954 339.649C125.197 340.276 125.318 341.047 125.318 341.963V342.602H117.75V341.298H123.784C123.784 340.744 123.673 340.25 123.452 339.815C123.235 339.381 122.923 339.038 122.519 338.786C122.118 338.535 121.645 338.409 121.1 338.409C120.499 338.409 119.979 338.558 119.54 338.857C119.105 339.151 118.771 339.534 118.536 340.007C118.302 340.48 118.185 340.987 118.185 341.528V342.398C118.185 343.139 118.313 343.768 118.568 344.283C118.828 344.795 119.188 345.185 119.649 345.453C120.109 345.717 120.644 345.849 121.253 345.849C121.649 345.849 122.007 345.794 122.327 345.683C122.651 345.568 122.93 345.398 123.164 345.172C123.399 344.942 123.58 344.656 123.708 344.315L125.165 344.724C125.012 345.219 124.754 345.653 124.392 346.028C124.029 346.399 123.582 346.689 123.049 346.898C122.517 347.102 121.918 347.205 121.253 347.205ZM128.286 350.682C128.03 350.682 127.802 350.661 127.602 350.618C127.402 350.58 127.263 350.541 127.186 350.503L127.57 349.173C127.936 349.267 128.26 349.301 128.542 349.276C128.823 349.25 129.072 349.124 129.289 348.898C129.511 348.677 129.713 348.317 129.897 347.818L130.178 347.051L126.547 337.182H128.184L130.894 345.006H130.996L133.706 337.182H135.343L131.175 348.432C130.988 348.939 130.755 349.359 130.478 349.691C130.201 350.028 129.88 350.277 129.513 350.439C129.151 350.601 128.742 350.682 128.286 350.682Z" fill="#38386C"/>
<path d="M204.506 333.909V347H202.921V335.571H202.844L199.648 337.693V336.082L202.921 333.909H204.506ZM212.464 347.179C211.586 347.179 210.811 347.023 210.138 346.712C209.469 346.397 208.947 345.964 208.572 345.415C208.197 344.861 208.011 344.23 208.015 343.523C208.011 342.969 208.12 342.457 208.341 341.989C208.563 341.516 208.866 341.121 209.249 340.806C209.637 340.487 210.069 340.284 210.547 340.199V340.122C209.92 339.96 209.422 339.609 209.051 339.067C208.68 338.522 208.497 337.902 208.501 337.207C208.497 336.543 208.665 335.948 209.006 335.424C209.347 334.9 209.816 334.487 210.412 334.184C211.013 333.881 211.697 333.73 212.464 333.73C213.223 333.73 213.9 333.881 214.497 334.184C215.094 334.487 215.562 334.9 215.903 335.424C216.248 335.948 216.423 336.543 216.427 337.207C216.423 337.902 216.233 338.522 215.858 339.067C215.488 339.609 214.996 339.96 214.382 340.122V340.199C214.855 340.284 215.281 340.487 215.66 340.806C216.04 341.121 216.342 341.516 216.568 341.989C216.794 342.457 216.909 342.969 216.913 343.523C216.909 344.23 216.717 344.861 216.338 345.415C215.963 345.964 215.441 346.397 214.772 346.712C214.107 347.023 213.338 347.179 212.464 347.179ZM212.464 345.773C213.057 345.773 213.568 345.677 213.998 345.485C214.429 345.293 214.761 345.023 214.996 344.673C215.23 344.324 215.349 343.915 215.354 343.446C215.349 342.952 215.221 342.515 214.97 342.136C214.719 341.756 214.376 341.458 213.941 341.241C213.51 341.023 213.018 340.915 212.464 340.915C211.906 340.915 211.407 341.023 210.969 341.241C210.534 341.458 210.191 341.756 209.939 342.136C209.692 342.515 209.571 342.952 209.575 343.446C209.571 343.915 209.684 344.324 209.914 344.673C210.148 345.023 210.483 345.293 210.917 345.485C211.352 345.677 211.868 345.773 212.464 345.773ZM212.464 339.56C212.933 339.56 213.349 339.466 213.711 339.278C214.077 339.091 214.365 338.829 214.574 338.492C214.782 338.156 214.889 337.761 214.893 337.31C214.889 336.866 214.785 336.481 214.58 336.153C214.376 335.82 214.092 335.565 213.73 335.386C213.368 335.202 212.946 335.111 212.464 335.111C211.974 335.111 211.546 335.202 211.18 335.386C210.813 335.565 210.53 335.82 210.329 336.153C210.129 336.481 210.031 336.866 210.035 337.31C210.031 337.761 210.131 338.156 210.336 338.492C210.545 338.829 210.832 339.091 211.199 339.278C211.565 339.466 211.987 339.56 212.464 339.56ZM223.633 347.179C222.67 347.179 221.849 346.917 221.172 346.393C220.494 345.864 219.977 345.099 219.619 344.098C219.261 343.092 219.082 341.878 219.082 340.455C219.082 339.04 219.261 337.832 219.619 336.83C219.981 335.825 220.501 335.058 221.178 334.529C221.86 333.996 222.678 333.73 223.633 333.73C224.587 333.73 225.403 333.996 226.081 334.529C226.763 335.058 227.283 335.825 227.641 336.83C228.003 337.832 228.184 339.04 228.184 340.455C228.184 341.878 228.005 343.092 227.647 344.098C227.289 345.099 226.771 345.864 226.094 346.393C225.416 346.917 224.596 347.179 223.633 347.179ZM223.633 345.773C224.587 345.773 225.329 345.312 225.857 344.392C226.386 343.472 226.65 342.159 226.65 340.455C226.65 339.321 226.528 338.356 226.286 337.559C226.047 336.762 225.702 336.155 225.25 335.737C224.803 335.32 224.263 335.111 223.633 335.111C222.687 335.111 221.947 335.577 221.415 336.511C220.882 337.44 220.616 338.754 220.616 340.455C220.616 341.588 220.735 342.551 220.974 343.344C221.212 344.136 221.555 344.739 222.003 345.153C222.455 345.566 222.998 345.773 223.633 345.773ZM230.843 347V333.909H232.428V340.403H232.582L238.462 333.909H240.533L235.036 339.815L240.533 347H238.616L234.065 340.915L232.428 342.756V347H230.843Z" fill="#38386C"/>
<rect x="67" y="368" width="143" height="32" rx="4" fill="#E2E2F0"/>
<path d="M80.5852 391V377.909H85.1619C86.0739 377.909 86.826 378.067 87.4183 378.382C88.0107 378.693 88.4517 379.113 88.7415 379.641C89.0313 380.165 89.1761 380.747 89.1761 381.386C89.1761 381.949 89.076 382.413 88.8757 382.78C88.6797 383.146 88.4197 383.436 88.0959 383.649C87.7763 383.862 87.429 384.02 87.054 384.122V384.25C87.4545 384.276 87.8572 384.416 88.2621 384.672C88.6669 384.928 89.0057 385.294 89.2784 385.771C89.5511 386.249 89.6875 386.832 89.6875 387.523C89.6875 388.179 89.5384 388.769 89.2401 389.293C88.9418 389.817 88.4709 390.233 87.8274 390.54C87.1839 390.847 86.3466 391 85.3153 391H80.5852ZM82.1705 389.594H85.3153C86.3509 389.594 87.0859 389.393 87.5206 388.993C87.9595 388.588 88.179 388.098 88.179 387.523C88.179 387.08 88.0661 386.67 87.8402 386.295C87.6143 385.916 87.2926 385.614 86.875 385.388C86.4574 385.158 85.9631 385.043 85.392 385.043H82.1705V389.594ZM82.1705 383.662H85.1108C85.5881 383.662 86.0185 383.568 86.402 383.381C86.7898 383.193 87.0966 382.929 87.3224 382.588C87.5526 382.247 87.6676 381.847 87.6676 381.386C87.6676 380.811 87.4673 380.323 87.0668 379.923C86.6662 379.518 86.0313 379.315 85.1619 379.315H82.1705V383.662ZM92.0877 391V381.182H93.5451V382.665H93.6474C93.8263 382.179 94.1502 381.785 94.619 381.482C95.0877 381.18 95.6161 381.028 96.2042 381.028C96.315 381.028 96.4535 381.031 96.6197 381.035C96.7859 381.039 96.9116 381.045 96.9968 381.054V382.588C96.9457 382.575 96.8285 382.556 96.6452 382.531C96.4663 382.501 96.2766 382.486 96.0763 382.486C95.5991 382.486 95.1729 382.586 94.7979 382.786C94.4272 382.982 94.1332 383.255 93.9158 383.604C93.7028 383.95 93.5962 384.344 93.5962 384.787V391H92.0877ZM101.674 391.23C101.052 391.23 100.487 391.113 99.9803 390.879C99.4732 390.64 99.0705 390.297 98.7722 389.849C98.4739 389.398 98.3248 388.852 98.3248 388.213C98.3248 387.651 98.4355 387.195 98.6571 386.845C98.8787 386.491 99.1749 386.214 99.5456 386.014C99.9164 385.814 100.325 385.665 100.773 385.567C101.225 385.464 101.678 385.384 102.134 385.324C102.731 385.247 103.215 385.19 103.585 385.151C103.96 385.109 104.233 385.038 104.404 384.94C104.578 384.842 104.666 384.672 104.666 384.429V384.378C104.666 383.747 104.493 383.257 104.148 382.908C103.807 382.558 103.289 382.384 102.595 382.384C101.874 382.384 101.31 382.541 100.901 382.857C100.492 383.172 100.204 383.509 100.038 383.866L98.606 383.355C98.8617 382.759 99.2026 382.294 99.6287 381.962C100.059 381.625 100.528 381.391 101.035 381.259C101.546 381.122 102.049 381.054 102.544 381.054C102.859 381.054 103.221 381.092 103.63 381.169C104.044 381.241 104.442 381.393 104.825 381.623C105.213 381.853 105.535 382.2 105.791 382.665C106.046 383.129 106.174 383.751 106.174 384.531V391H104.666V389.67H104.589C104.487 389.884 104.316 390.112 104.078 390.354C103.839 390.597 103.521 390.804 103.125 390.974C102.729 391.145 102.245 391.23 101.674 391.23ZM101.904 389.875C102.501 389.875 103.004 389.758 103.413 389.523C103.826 389.289 104.137 388.987 104.346 388.616C104.559 388.245 104.666 387.855 104.666 387.446V386.065C104.602 386.142 104.461 386.212 104.244 386.276C104.031 386.336 103.784 386.389 103.502 386.436C103.225 386.479 102.955 386.517 102.691 386.551C102.431 386.581 102.22 386.607 102.058 386.628C101.666 386.679 101.299 386.762 100.958 386.877C100.622 386.988 100.349 387.156 100.14 387.382C99.9355 387.604 99.8333 387.906 99.8333 388.29C99.8333 388.814 100.027 389.21 100.415 389.479C100.807 389.743 101.303 389.875 101.904 389.875ZM108.646 391V389.849L114.22 382.69V382.588H108.825V381.182H116.163V382.384L110.743 389.491V389.594H116.342V391H108.646ZM118.666 391V381.182H120.174V391H118.666ZM119.433 379.545C119.139 379.545 118.885 379.445 118.672 379.245C118.463 379.045 118.359 378.804 118.359 378.523C118.359 378.241 118.463 378.001 118.672 377.8C118.885 377.6 119.139 377.5 119.433 377.5C119.727 377.5 119.978 377.6 120.187 377.8C120.4 378.001 120.507 378.241 120.507 378.523C120.507 378.804 120.4 379.045 120.187 379.245C119.978 379.445 119.727 379.545 119.433 379.545ZM124.446 377.909V391H122.937V377.909H124.446Z" fill="#38386C"/>
<path d="M161.348 377.909V391H159.763V379.571H159.686L156.49 381.693V380.082L159.763 377.909H161.348ZM169.383 391.179C168.42 391.179 167.599 390.917 166.922 390.393C166.244 389.864 165.727 389.099 165.369 388.098C165.011 387.092 164.832 385.878 164.832 384.455C164.832 383.04 165.011 381.832 165.369 380.83C165.731 379.825 166.251 379.058 166.928 378.529C167.61 377.996 168.428 377.73 169.383 377.73C170.337 377.73 171.153 377.996 171.831 378.529C172.513 379.058 173.033 379.825 173.391 380.83C173.753 381.832 173.934 383.04 173.934 384.455C173.934 385.878 173.755 387.092 173.397 388.098C173.039 389.099 172.521 389.864 171.844 390.393C171.166 390.917 170.346 391.179 169.383 391.179ZM169.383 389.773C170.337 389.773 171.079 389.312 171.607 388.392C172.136 387.472 172.4 386.159 172.4 384.455C172.4 383.321 172.278 382.356 172.036 381.559C171.797 380.762 171.452 380.155 171 379.737C170.553 379.32 170.013 379.111 169.383 379.111C168.437 379.111 167.697 379.577 167.165 380.511C166.632 381.44 166.366 382.754 166.366 384.455C166.366 385.588 166.485 386.551 166.724 387.344C166.962 388.136 167.305 388.739 167.753 389.153C168.205 389.566 168.748 389.773 169.383 389.773ZM180.633 391.179C179.67 391.179 178.849 390.917 178.172 390.393C177.494 389.864 176.977 389.099 176.619 388.098C176.261 387.092 176.082 385.878 176.082 384.455C176.082 383.04 176.261 381.832 176.619 380.83C176.981 379.825 177.501 379.058 178.178 378.529C178.86 377.996 179.678 377.73 180.633 377.73C181.587 377.73 182.403 377.996 183.081 378.529C183.763 379.058 184.283 379.825 184.641 380.83C185.003 381.832 185.184 383.04 185.184 384.455C185.184 385.878 185.005 387.092 184.647 388.098C184.289 389.099 183.771 389.864 183.094 390.393C182.416 390.917 181.596 391.179 180.633 391.179ZM180.633 389.773C181.587 389.773 182.329 389.312 182.857 388.392C183.386 387.472 183.65 386.159 183.65 384.455C183.65 383.321 183.528 382.356 183.286 381.559C183.047 380.762 182.702 380.155 182.25 379.737C181.803 379.32 181.263 379.111 180.633 379.111C179.687 379.111 178.947 379.577 178.415 380.511C177.882 381.44 177.616 382.754 177.616 384.455C177.616 385.588 177.735 386.551 177.974 387.344C178.212 388.136 178.555 388.739 179.003 389.153C179.455 389.566 179.998 389.773 180.633 389.773ZM187.843 391V377.909H189.428V384.403H189.582L195.462 377.909H197.533L192.036 383.815L197.533 391H195.616L191.065 384.915L189.428 386.756V391H187.843Z" fill="#38386C"/>
<g filter="url(#filter2_d_2453_14282)">
<rect x="371.793" y="125.108" width="256.207" height="173.373" rx="12" fill="#CDCDE5"/>
</g>
<rect x="410.32" y="229.134" width="5.77909" height="34.6746" rx="1.5" fill="white"/>
<rect x="429.584" y="200.238" width="5.77909" height="63.57" rx="1.5" fill="white"/>
<rect x="448.848" y="236.837" width="5.77909" height="26.9691" rx="1.5" fill="white"/>
<rect x="468.112" y="213.722" width="5.77909" height="50.0855" rx="1.5" fill="white"/>
<rect x="487.375" y="211.795" width="5.77909" height="52.0118" rx="1.5" fill="white"/>
<rect x="506.639" y="229.134" width="5.77909" height="34.6746" rx="1.5" fill="white"/>
<rect x="525.903" y="200.238" width="5.77909" height="63.57" rx="1.5" fill="white"/>
<rect x="545.167" y="236.837" width="5.77909" height="26.9691" rx="1.5" fill="white"/>
<rect x="564.429" y="213.722" width="5.77909" height="50.0855" rx="1.5" fill="white"/>
<rect x="583.693" y="211.795" width="5.77909" height="52.0118" rx="1.5" fill="white"/>
<path d="M410.32 182.899L429.583 163.636L451.737 193.494L471 178.083H490.264L509.528 189.642L528.791 182.899L548.055 193.494L567.319 185.789L586.582 189.642" stroke="white" stroke-linecap="round" stroke-linejoin="round"/>
<circle cx="410.32" cy="182.9" r="3.85273" fill="white"/>
<circle cx="410.32" cy="182.9" r="3.85273" fill="white"/>
<circle cx="429.584" cy="165.562" r="3.85273" fill="white"/>
<circle cx="452.7" cy="192.53" r="3.85273" fill="white"/>
<circle cx="471.965" cy="179.047" r="3.85273" fill="white"/>
<circle cx="491.227" cy="179.047" r="3.85273" fill="white"/>
<circle cx="510.492" cy="188.679" r="3.85273" fill="white"/>
<circle cx="529.756" cy="184.826" r="3.85273" fill="white"/>
<circle cx="549.019" cy="192.53" r="3.85273" fill="white"/>
<circle cx="568.282" cy="186.752" r="3.85273" fill="white"/>
<circle cx="587.546" cy="190.606" r="3.85273" fill="white"/>
<defs>
<filter id="filter0_d_2453_14282" x="92.9043" y="18" width="328.668" height="195.833" filterUnits="userSpaceOnUse" color-interpolation-filters="sRGB">
<feFlood flood-opacity="0" result="BackgroundImageFix"/>
<feColorMatrix in="SourceAlpha" type="matrix" values="0 0 0 0 0 0 0 0 0 0 0 0 0 0 0 0 0 0 127 0" result="hardAlpha"/>
<feOffset dy="2"/>
<feGaussianBlur stdDeviation="6"/>
<feComposite in2="hardAlpha" operator="out"/>
<feColorMatrix type="matrix" values="0 0 0 0 0 0 0 0 0 0 0 0 0 0 0 0 0 0 0.12 0"/>
<feBlend mode="normal" in2="BackgroundImageFix" result="effect1_dropShadow_2453_14282"/>
<feBlend mode="normal" in="SourceGraphic" in2="effect1_dropShadow_2453_14282" result="shape"/>
</filter>
<filter id="filter1_d_2453_14282" x="10" y="201" width="398" height="245" filterUnits="userSpaceOnUse" color-interpolation-filters="sRGB">
<feFlood flood-opacity="0" result="BackgroundImageFix"/>
<feColorMatrix in="SourceAlpha" type="matrix" values="0 0 0 0 0 0 0 0 0 0 0 0 0 0 0 0 0 0 127 0" result="hardAlpha"/>
<feOffset dy="2"/>
<feGaussianBlur stdDeviation="6"/>
<feComposite in2="hardAlpha" operator="out"/>
<feColorMatrix type="matrix" values="0 0 0 0 0 0 0 0 0 0 0 0 0 0 0 0 0 0 0.12 0"/>
<feBlend mode="normal" in2="BackgroundImageFix" result="effect1_dropShadow_2453_14282"/>
<feBlend mode="normal" in="SourceGraphic" in2="effect1_dropShadow_2453_14282" result="shape"/>
</filter>
<filter id="filter2_d_2453_14282" x="355.793" y="117.108" width="288.207" height="205.373" filterUnits="userSpaceOnUse" color-interpolation-filters="sRGB">
<feFlood flood-opacity="0" result="BackgroundImageFix"/>
<feColorMatrix in="SourceAlpha" type="matrix" values="0 0 0 0 0 0 0 0 0 0 0 0 0 0 0 0 0 0 127 0" result="hardAlpha"/>
<feOffset dy="8"/>
<feGaussianBlur stdDeviation="8"/>
<feColorMatrix type="matrix" values="0 0 0 0 0.760784 0 0 0 0 0.8 0 0 0 0 0.843137 0 0 0 0.3 0"/>
<feBlend mode="normal" in2="BackgroundImageFix" result="effect1_dropShadow_2453_14282"/>
<feBlend mode="normal" in="SourceGraphic" in2="effect1_dropShadow_2453_14282" result="shape"/>
</filter>
</defs>
</svg>
