<svg width="670" height="450" viewBox="0 0 670 450" fill="none" xmlns="http://www.w3.org/2000/svg">
<g filter="url(#filter0_d_2456_14922)">
<rect x="114.904" y="23" width="304.668" height="171.833" rx="12" fill="white"/>
</g>
<circle cx="267.239" cy="108.308" r="57.2776" fill="#A8CFFF"/>
<path d="M266.869 51.0293V108.676H209.962C209.961 108.552 209.961 108.429 209.961 108.306C209.961 76.7953 235.406 51.2278 266.869 51.0293Z" fill="#0049A3"/>
<g filter="url(#filter1_d_2456_14922)">
<rect x="32" y="206" width="374" height="221" rx="12" fill="white"/>
</g>
<path d="M86.5312 238.276C86.4555 237.603 86.143 237.082 85.5938 236.713C85.0445 236.339 84.3532 236.152 83.5199 236.152C82.9233 236.152 82.4072 236.247 81.9716 236.436C81.536 236.621 81.1974 236.876 80.956 237.203C80.7192 237.525 80.6009 237.892 80.6009 238.304C80.6009 238.65 80.6813 238.948 80.8423 239.199C81.008 239.45 81.2235 239.661 81.4886 239.831C81.7585 239.997 82.0473 240.136 82.3551 240.25C82.6629 240.359 82.9588 240.449 83.2429 240.52L84.6634 240.889C85.1274 241.003 85.6032 241.157 86.0909 241.351C86.5786 241.545 87.0308 241.801 87.4474 242.118C87.8641 242.435 88.2003 242.828 88.456 243.297C88.7164 243.766 88.8466 244.327 88.8466 244.98C88.8466 245.804 88.6335 246.536 88.2074 247.175C87.786 247.814 87.1728 248.318 86.3679 248.688C85.5677 249.057 84.5994 249.241 83.4631 249.241C82.3741 249.241 81.4318 249.069 80.6364 248.723C79.8409 248.377 79.2183 247.887 78.7685 247.253C78.3187 246.614 78.0701 245.856 78.0227 244.98H80.2244C80.267 245.506 80.4375 245.944 80.7358 246.294C81.0388 246.64 81.4247 246.898 81.8935 247.068C82.367 247.234 82.8854 247.317 83.4489 247.317C84.0691 247.317 84.6207 247.22 85.1037 247.026C85.5914 246.827 85.9749 246.552 86.2543 246.202C86.5336 245.847 86.6733 245.432 86.6733 244.959C86.6733 244.528 86.5502 244.175 86.304 243.901C86.0625 243.626 85.7334 243.399 85.3168 243.219C84.9048 243.039 84.4384 242.88 83.9176 242.743L82.1989 242.274C81.0341 241.957 80.1108 241.491 79.429 240.875C78.7519 240.259 78.4134 239.445 78.4134 238.432C78.4134 237.594 78.6406 236.862 79.0952 236.237C79.5497 235.612 80.1652 235.127 80.9418 234.781C81.7183 234.431 82.5942 234.256 83.5696 234.256C84.5545 234.256 85.4233 234.429 86.1761 234.774C86.9337 235.12 87.5303 235.596 87.9659 236.202C88.4015 236.803 88.6288 237.494 88.6477 238.276H86.5312ZM94.4734 249.241C93.7821 249.241 93.1571 249.114 92.5984 248.858C92.0397 248.598 91.5969 248.221 91.2702 247.729C90.9483 247.236 90.7873 246.633 90.7873 245.918C90.7873 245.302 90.9057 244.795 91.1424 244.398C91.3791 244 91.6987 243.685 92.1012 243.453C92.5037 243.221 92.9535 243.046 93.4506 242.928C93.9478 242.809 94.4544 242.719 94.9705 242.658C95.6239 242.582 96.1542 242.52 96.5614 242.473C96.9686 242.421 97.2646 242.338 97.4492 242.224C97.6339 242.111 97.7262 241.926 97.7262 241.67V241.621C97.7262 241 97.551 240.52 97.2006 240.179C96.855 239.838 96.3389 239.668 95.6523 239.668C94.9374 239.668 94.3739 239.826 93.962 240.143C93.5548 240.456 93.2731 240.804 93.1168 241.188L91.1211 240.733C91.3578 240.07 91.7035 239.535 92.158 239.128C92.6173 238.716 93.1452 238.418 93.7418 238.233C94.3384 238.044 94.9658 237.949 95.6239 237.949C96.0595 237.949 96.5212 238.001 97.0089 238.105C97.5013 238.205 97.9606 238.389 98.3867 238.659C98.8176 238.929 99.1703 239.315 99.445 239.817C99.7196 240.314 99.8569 240.96 99.8569 241.756V249H97.783V247.509H97.6978C97.5605 247.783 97.3545 248.053 97.0799 248.318C96.8053 248.583 96.4525 248.804 96.0217 248.979C95.5908 249.154 95.0747 249.241 94.4734 249.241ZM94.935 247.537C95.5221 247.537 96.024 247.421 96.4407 247.189C96.8621 246.957 97.1817 246.654 97.3995 246.28C97.622 245.901 97.7333 245.496 97.7333 245.065V243.659C97.6576 243.735 97.5108 243.806 97.293 243.872C97.0799 243.934 96.8361 243.988 96.5614 244.036C96.2868 244.078 96.0193 244.118 95.7589 244.156C95.4985 244.189 95.2807 244.218 95.1055 244.241C94.6935 244.294 94.3171 244.381 93.9762 244.504C93.64 244.627 93.3701 244.805 93.1665 245.037C92.9677 245.264 92.8683 245.567 92.8683 245.946C92.8683 246.472 93.0624 246.869 93.4506 247.139C93.8389 247.404 94.3337 247.537 94.935 247.537ZM104.809 234.455V249H102.685V234.455H104.809ZM112.368 249.22C111.293 249.22 110.367 248.991 109.591 248.531C108.819 248.067 108.222 247.416 107.801 246.578C107.384 245.735 107.176 244.748 107.176 243.616C107.176 242.499 107.384 241.514 107.801 240.662C108.222 239.81 108.809 239.144 109.562 238.666C110.32 238.188 111.205 237.949 112.218 237.949C112.834 237.949 113.431 238.051 114.008 238.254C114.586 238.458 115.104 238.777 115.564 239.213C116.023 239.649 116.385 240.214 116.65 240.911C116.915 241.602 117.048 242.442 117.048 243.432V244.185H108.376V242.594H114.967C114.967 242.035 114.853 241.54 114.626 241.109C114.399 240.674 114.079 240.33 113.667 240.08C113.26 239.829 112.782 239.703 112.233 239.703C111.636 239.703 111.115 239.85 110.67 240.143C110.23 240.432 109.889 240.811 109.647 241.28C109.411 241.744 109.292 242.248 109.292 242.793V244.036C109.292 244.765 109.42 245.385 109.676 245.896C109.936 246.408 110.298 246.798 110.762 247.068C111.226 247.333 111.769 247.466 112.389 247.466C112.791 247.466 113.158 247.409 113.49 247.295C113.821 247.177 114.108 247.002 114.349 246.77C114.591 246.538 114.775 246.251 114.903 245.911L116.913 246.273C116.752 246.865 116.463 247.383 116.047 247.828C115.635 248.268 115.116 248.612 114.491 248.858C113.871 249.099 113.163 249.22 112.368 249.22ZM127.579 240.754L125.654 241.095C125.574 240.849 125.446 240.615 125.271 240.392C125.1 240.17 124.868 239.987 124.575 239.845C124.281 239.703 123.914 239.632 123.474 239.632C122.872 239.632 122.371 239.767 121.968 240.037C121.566 240.302 121.364 240.645 121.364 241.067C121.364 241.431 121.499 241.725 121.769 241.947C122.039 242.17 122.475 242.352 123.076 242.494L124.809 242.892C125.813 243.124 126.561 243.482 127.053 243.964C127.546 244.447 127.792 245.075 127.792 245.847C127.792 246.5 127.603 247.082 127.224 247.594C126.85 248.1 126.326 248.498 125.654 248.787C124.987 249.076 124.212 249.22 123.332 249.22C122.11 249.22 121.113 248.96 120.342 248.439C119.57 247.913 119.096 247.168 118.921 246.202L120.974 245.889C121.102 246.424 121.364 246.829 121.762 247.104C122.16 247.374 122.678 247.509 123.317 247.509C124.013 247.509 124.57 247.364 124.987 247.075C125.403 246.782 125.612 246.424 125.612 246.003C125.612 245.662 125.484 245.375 125.228 245.143C124.977 244.911 124.591 244.736 124.07 244.618L122.224 244.213C121.206 243.981 120.453 243.612 119.965 243.105C119.482 242.598 119.241 241.957 119.241 241.18C119.241 240.536 119.421 239.973 119.781 239.49C120.14 239.007 120.638 238.631 121.272 238.361C121.906 238.086 122.633 237.949 123.452 237.949C124.631 237.949 125.559 238.205 126.237 238.716C126.914 239.223 127.361 239.902 127.579 240.754ZM135.59 249V234.455H137.714V239.859H137.842C137.965 239.632 138.142 239.369 138.374 239.071C138.606 238.773 138.928 238.512 139.34 238.29C139.752 238.062 140.297 237.949 140.974 237.949C141.854 237.949 142.64 238.171 143.332 238.616C144.023 239.062 144.565 239.703 144.958 240.541C145.356 241.379 145.555 242.388 145.555 243.567C145.555 244.746 145.358 245.757 144.965 246.599C144.572 247.437 144.032 248.084 143.346 248.538C142.659 248.988 141.876 249.213 140.995 249.213C140.332 249.213 139.79 249.102 139.369 248.879C138.952 248.657 138.625 248.396 138.388 248.098C138.152 247.8 137.969 247.535 137.842 247.303H137.664V249H135.59ZM137.671 243.545C137.671 244.312 137.782 244.985 138.005 245.562C138.228 246.14 138.549 246.592 138.971 246.919C139.392 247.241 139.908 247.402 140.519 247.402C141.154 247.402 141.684 247.234 142.11 246.898C142.536 246.557 142.858 246.095 143.076 245.513C143.299 244.93 143.41 244.275 143.41 243.545C143.41 242.826 143.301 242.179 143.083 241.607C142.87 241.034 142.548 240.581 142.117 240.25C141.691 239.919 141.158 239.753 140.519 239.753C139.904 239.753 139.383 239.911 138.957 240.229C138.535 240.546 138.216 240.989 137.998 241.557C137.78 242.125 137.671 242.788 137.671 243.545ZM148.911 253.091C148.593 253.091 148.304 253.065 148.044 253.013C147.784 252.965 147.589 252.913 147.462 252.857L147.973 251.116C148.361 251.221 148.707 251.266 149.01 251.251C149.313 251.237 149.58 251.124 149.812 250.911C150.049 250.697 150.258 250.349 150.438 249.866L150.7 249.142L146.709 238.091H148.982L151.744 246.557H151.858L154.621 238.091H156.901L152.405 250.456C152.196 251.024 151.931 251.505 151.609 251.898C151.287 252.295 150.904 252.594 150.459 252.793C150.014 252.991 149.498 253.091 148.911 253.091ZM168.273 249.213C167.392 249.213 166.606 248.988 165.915 248.538C165.229 248.084 164.689 247.437 164.296 246.599C163.908 245.757 163.713 244.746 163.713 243.567C163.713 242.388 163.91 241.379 164.303 240.541C164.701 239.703 165.245 239.062 165.936 238.616C166.628 238.171 167.411 237.949 168.287 237.949C168.964 237.949 169.509 238.062 169.921 238.29C170.337 238.512 170.659 238.773 170.887 239.071C171.119 239.369 171.299 239.632 171.426 239.859H171.554V234.455H173.678V249H171.604V247.303H171.426C171.299 247.535 171.114 247.8 170.873 248.098C170.636 248.396 170.309 248.657 169.892 248.879C169.476 249.102 168.936 249.213 168.273 249.213ZM168.742 247.402C169.353 247.402 169.869 247.241 170.29 246.919C170.716 246.592 171.038 246.14 171.256 245.562C171.479 244.985 171.59 244.312 171.59 243.545C171.59 242.788 171.481 242.125 171.263 241.557C171.045 240.989 170.726 240.546 170.304 240.229C169.883 239.911 169.362 239.753 168.742 239.753C168.103 239.753 167.57 239.919 167.144 240.25C166.718 240.581 166.396 241.034 166.178 241.607C165.965 242.179 165.858 242.826 165.858 243.545C165.858 244.275 165.967 244.93 166.185 245.513C166.403 246.095 166.725 246.557 167.151 246.898C167.582 247.234 168.112 247.402 168.742 247.402ZM176.709 249V238.091H178.832V249H176.709ZM177.781 236.408C177.412 236.408 177.095 236.285 176.83 236.038C176.569 235.787 176.439 235.489 176.439 235.143C176.439 234.793 176.569 234.495 176.83 234.249C177.095 233.998 177.412 233.872 177.781 233.872C178.151 233.872 178.465 233.998 178.726 234.249C178.991 234.495 179.124 234.793 179.124 235.143C179.124 235.489 178.991 235.787 178.726 236.038C178.465 236.285 178.151 236.408 177.781 236.408ZM189.864 240.754L187.939 241.095C187.859 240.849 187.731 240.615 187.556 240.392C187.385 240.17 187.153 239.987 186.86 239.845C186.566 239.703 186.199 239.632 185.759 239.632C185.158 239.632 184.656 239.767 184.253 240.037C183.851 240.302 183.65 240.645 183.65 241.067C183.65 241.431 183.784 241.725 184.054 241.947C184.324 242.17 184.76 242.352 185.361 242.494L187.094 242.892C188.098 243.124 188.846 243.482 189.338 243.964C189.831 244.447 190.077 245.075 190.077 245.847C190.077 246.5 189.888 247.082 189.509 247.594C189.135 248.1 188.612 248.498 187.939 248.787C187.272 249.076 186.498 249.22 185.617 249.22C184.395 249.22 183.399 248.96 182.627 248.439C181.855 247.913 181.382 247.168 181.206 246.202L183.259 245.889C183.387 246.424 183.65 246.829 184.047 247.104C184.445 247.374 184.963 247.509 185.603 247.509C186.299 247.509 186.855 247.364 187.272 247.075C187.688 246.782 187.897 246.424 187.897 246.003C187.897 245.662 187.769 245.375 187.513 245.143C187.262 244.911 186.876 244.736 186.355 244.618L184.509 244.213C183.491 243.981 182.738 243.612 182.25 243.105C181.767 242.598 181.526 241.957 181.526 241.18C181.526 240.536 181.706 239.973 182.066 239.49C182.426 239.007 182.923 238.631 183.557 238.361C184.192 238.086 184.918 237.949 185.738 237.949C186.917 237.949 187.845 238.205 188.522 238.716C189.199 239.223 189.646 239.902 189.864 240.754ZM197.007 249.22C195.951 249.22 195.042 248.981 194.28 248.503C193.522 248.02 192.94 247.355 192.533 246.507C192.125 245.66 191.922 244.689 191.922 243.595C191.922 242.487 192.13 241.509 192.547 240.662C192.964 239.81 193.551 239.144 194.308 238.666C195.066 238.188 195.958 237.949 196.986 237.949C197.814 237.949 198.553 238.103 199.202 238.411C199.85 238.714 200.374 239.14 200.771 239.689C201.174 240.238 201.413 240.88 201.489 241.614H199.422C199.308 241.102 199.048 240.662 198.641 240.293C198.238 239.923 197.698 239.739 197.021 239.739C196.429 239.739 195.911 239.895 195.466 240.207C195.026 240.515 194.682 240.955 194.436 241.528C194.19 242.097 194.067 242.769 194.067 243.545C194.067 244.341 194.188 245.027 194.429 245.605C194.67 246.183 195.011 246.63 195.452 246.947C195.897 247.265 196.42 247.423 197.021 247.423C197.424 247.423 197.788 247.35 198.115 247.203C198.446 247.052 198.723 246.836 198.946 246.557C199.173 246.277 199.332 245.941 199.422 245.548H201.489C201.413 246.254 201.183 246.884 200.8 247.438C200.416 247.991 199.902 248.427 199.259 248.744C198.619 249.062 197.869 249.22 197.007 249.22ZM208.355 249.22C207.332 249.22 206.44 248.986 205.677 248.517C204.915 248.048 204.323 247.393 203.902 246.55C203.48 245.707 203.27 244.722 203.27 243.595C203.27 242.464 203.48 241.474 203.902 240.626C204.323 239.779 204.915 239.121 205.677 238.652C206.44 238.183 207.332 237.949 208.355 237.949C209.377 237.949 210.27 238.183 211.032 238.652C211.795 239.121 212.386 239.779 212.808 240.626C213.229 241.474 213.44 242.464 213.44 243.595C213.44 244.722 213.229 245.707 212.808 246.55C212.386 247.393 211.795 248.048 211.032 248.517C210.27 248.986 209.377 249.22 208.355 249.22ZM208.362 247.438C209.025 247.438 209.574 247.262 210.01 246.912C210.445 246.562 210.767 246.095 210.975 245.513C211.189 244.93 211.295 244.289 211.295 243.588C211.295 242.892 211.189 242.253 210.975 241.67C210.767 241.083 210.445 240.612 210.01 240.257C209.574 239.902 209.025 239.724 208.362 239.724C207.694 239.724 207.14 239.902 206.7 240.257C206.264 240.612 205.94 241.083 205.727 241.67C205.519 242.253 205.414 242.892 205.414 243.588C205.414 244.289 205.519 244.93 205.727 245.513C205.94 246.095 206.264 246.562 206.7 246.912C207.14 247.262 207.694 247.438 208.362 247.438ZM222.721 244.476V238.091H224.852V249H222.763V247.111H222.65C222.399 247.693 221.996 248.179 221.442 248.567C220.893 248.95 220.209 249.142 219.39 249.142C218.689 249.142 218.069 248.988 217.529 248.68C216.994 248.368 216.573 247.906 216.265 247.295C215.962 246.685 215.81 245.929 215.81 245.03V238.091H217.934V244.774C217.934 245.518 218.14 246.109 218.552 246.55C218.964 246.99 219.499 247.21 220.157 247.21C220.555 247.21 220.95 247.111 221.343 246.912C221.741 246.713 222.07 246.412 222.33 246.01C222.595 245.607 222.726 245.096 222.721 244.476ZM229.828 242.523V249H227.705V238.091H229.743V239.866H229.878C230.129 239.289 230.522 238.825 231.057 238.474C231.597 238.124 232.276 237.949 233.096 237.949C233.839 237.949 234.49 238.105 235.049 238.418C235.607 238.725 236.041 239.185 236.348 239.795C236.656 240.406 236.81 241.161 236.81 242.061V249H234.686V242.317C234.686 241.526 234.48 240.908 234.069 240.463C233.657 240.013 233.091 239.788 232.371 239.788C231.879 239.788 231.441 239.895 231.057 240.108C230.678 240.321 230.378 240.634 230.155 241.045C229.937 241.453 229.828 241.945 229.828 242.523ZM244.75 238.091V239.795H238.792V238.091H244.75ZM240.39 235.477H242.513V245.797C242.513 246.209 242.575 246.519 242.698 246.727C242.821 246.931 242.98 247.071 243.174 247.146C243.373 247.217 243.588 247.253 243.82 247.253C243.99 247.253 244.14 247.241 244.267 247.217C244.395 247.194 244.495 247.175 244.566 247.161L244.949 248.915C244.826 248.962 244.651 249.009 244.424 249.057C244.196 249.109 243.912 249.137 243.571 249.142C243.013 249.152 242.492 249.052 242.009 248.844C241.526 248.635 241.135 248.313 240.837 247.878C240.539 247.442 240.39 246.895 240.39 246.237V235.477ZM252.392 253.091V238.091H254.466V239.859H254.644C254.767 239.632 254.944 239.369 255.176 239.071C255.408 238.773 255.73 238.512 256.142 238.29C256.554 238.062 257.099 237.949 257.776 237.949C258.657 237.949 259.443 238.171 260.134 238.616C260.825 239.062 261.367 239.703 261.76 240.541C262.158 241.379 262.357 242.388 262.357 243.567C262.357 244.746 262.16 245.757 261.767 246.599C261.374 247.437 260.835 248.084 260.148 248.538C259.462 248.988 258.678 249.213 257.797 249.213C257.134 249.213 256.592 249.102 256.171 248.879C255.754 248.657 255.427 248.396 255.191 248.098C254.954 247.8 254.772 247.535 254.644 247.303H254.516V253.091H252.392ZM254.473 243.545C254.473 244.312 254.585 244.985 254.807 245.562C255.03 246.14 255.352 246.592 255.773 246.919C256.194 247.241 256.711 247.402 257.321 247.402C257.956 247.402 258.486 247.234 258.912 246.898C259.338 246.557 259.66 246.095 259.878 245.513C260.101 244.93 260.212 244.275 260.212 243.545C260.212 242.826 260.103 242.179 259.885 241.607C259.672 241.034 259.35 240.581 258.919 240.25C258.493 239.919 257.961 239.753 257.321 239.753C256.706 239.753 256.185 239.911 255.759 240.229C255.337 240.546 255.018 240.989 254.8 241.557C254.582 242.125 254.473 242.788 254.473 243.545ZM269.438 249.22C268.363 249.22 267.437 248.991 266.661 248.531C265.889 248.067 265.292 247.416 264.871 246.578C264.454 245.735 264.246 244.748 264.246 243.616C264.246 242.499 264.454 241.514 264.871 240.662C265.292 239.81 265.88 239.144 266.632 238.666C267.39 238.188 268.275 237.949 269.289 237.949C269.904 237.949 270.501 238.051 271.078 238.254C271.656 238.458 272.175 238.777 272.634 239.213C273.093 239.649 273.455 240.214 273.721 240.911C273.986 241.602 274.118 242.442 274.118 243.432V244.185H265.446V242.594H272.037C272.037 242.035 271.924 241.54 271.696 241.109C271.469 240.674 271.15 240.33 270.738 240.08C270.33 239.829 269.852 239.703 269.303 239.703C268.706 239.703 268.185 239.85 267.74 240.143C267.3 240.432 266.959 240.811 266.718 241.28C266.481 241.744 266.363 242.248 266.363 242.793V244.036C266.363 244.765 266.49 245.385 266.746 245.896C267.007 246.408 267.369 246.798 267.833 247.068C268.297 247.333 268.839 247.466 269.459 247.466C269.862 247.466 270.229 247.409 270.56 247.295C270.891 247.177 271.178 247.002 271.419 246.77C271.661 246.538 271.846 246.251 271.973 245.911L273.983 246.273C273.822 246.865 273.533 247.383 273.117 247.828C272.705 248.268 272.186 248.612 271.561 248.858C270.941 249.099 270.233 249.22 269.438 249.22ZM276.474 249V238.091H278.527V239.824H278.641C278.839 239.237 279.19 238.775 279.692 238.439C280.198 238.098 280.771 237.928 281.411 237.928C281.543 237.928 281.699 237.932 281.879 237.942C282.064 237.951 282.208 237.963 282.312 237.977V240.009C282.227 239.985 282.076 239.959 281.858 239.93C281.64 239.897 281.422 239.881 281.205 239.881C280.703 239.881 280.255 239.987 279.862 240.2C279.474 240.409 279.166 240.7 278.939 241.074C278.712 241.443 278.598 241.865 278.598 242.338V249H276.474ZM288.355 249.22C287.299 249.22 286.39 248.981 285.627 248.503C284.87 248.02 284.288 247.355 283.88 246.507C283.473 245.66 283.27 244.689 283.27 243.595C283.27 242.487 283.478 241.509 283.895 240.662C284.311 239.81 284.898 239.144 285.656 238.666C286.413 238.188 287.306 237.949 288.333 237.949C289.162 237.949 289.901 238.103 290.549 238.411C291.198 238.714 291.721 239.14 292.119 239.689C292.521 240.238 292.761 240.88 292.836 241.614H290.77C290.656 241.102 290.395 240.662 289.988 240.293C289.586 239.923 289.046 239.739 288.369 239.739C287.777 239.739 287.259 239.895 286.814 240.207C286.373 240.515 286.03 240.955 285.784 241.528C285.538 242.097 285.414 242.769 285.414 243.545C285.414 244.341 285.535 245.027 285.777 245.605C286.018 246.183 286.359 246.63 286.799 246.947C287.244 247.265 287.768 247.423 288.369 247.423C288.771 247.423 289.136 247.35 289.463 247.203C289.794 247.052 290.071 246.836 290.294 246.557C290.521 246.277 290.68 245.941 290.77 245.548H292.836C292.761 246.254 292.531 246.884 292.147 247.438C291.764 247.991 291.25 248.427 290.606 248.744C289.967 249.062 289.217 249.22 288.355 249.22ZM299.809 249.22C298.734 249.22 297.808 248.991 297.032 248.531C296.26 248.067 295.664 247.416 295.242 246.578C294.826 245.735 294.617 244.748 294.617 243.616C294.617 242.499 294.826 241.514 295.242 240.662C295.664 239.81 296.251 239.144 297.004 238.666C297.761 238.188 298.647 237.949 299.66 237.949C300.275 237.949 300.872 238.051 301.45 238.254C302.027 238.458 302.546 238.777 303.005 239.213C303.464 239.649 303.826 240.214 304.092 240.911C304.357 241.602 304.489 242.442 304.489 243.432V244.185H295.817V242.594H302.408C302.408 242.035 302.295 241.54 302.067 241.109C301.84 240.674 301.521 240.33 301.109 240.08C300.701 239.829 300.223 239.703 299.674 239.703C299.077 239.703 298.557 239.85 298.112 240.143C297.671 240.432 297.33 240.811 297.089 241.28C296.852 241.744 296.734 242.248 296.734 242.793V244.036C296.734 244.765 296.862 245.385 297.117 245.896C297.378 246.408 297.74 246.798 298.204 247.068C298.668 247.333 299.21 247.466 299.83 247.466C300.233 247.466 300.6 247.409 300.931 247.295C301.263 247.177 301.549 247.002 301.79 246.77C302.032 246.538 302.217 246.251 302.344 245.911L304.354 246.273C304.193 246.865 303.905 247.383 303.488 247.828C303.076 248.268 302.558 248.612 301.933 248.858C301.312 249.099 300.604 249.22 299.809 249.22ZM308.969 242.523V249H306.846V238.091H308.884V239.866H309.019C309.27 239.289 309.663 238.825 310.198 238.474C310.738 238.124 311.417 237.949 312.236 237.949C312.98 237.949 313.631 238.105 314.189 238.418C314.748 238.725 315.181 239.185 315.489 239.795C315.797 240.406 315.951 241.161 315.951 242.061V249H313.827V242.317C313.827 241.526 313.621 240.908 313.209 240.463C312.797 240.013 312.231 239.788 311.512 239.788C311.019 239.788 310.581 239.895 310.198 240.108C309.819 240.321 309.518 240.634 309.296 241.045C309.078 241.453 308.969 241.945 308.969 242.523ZM323.891 238.091V239.795H317.932V238.091H323.891ZM319.53 235.477H321.654V245.797C321.654 246.209 321.715 246.519 321.838 246.727C321.962 246.931 322.12 247.071 322.314 247.146C322.513 247.217 322.729 247.253 322.961 247.253C323.131 247.253 323.28 247.241 323.408 247.217C323.536 247.194 323.635 247.175 323.706 247.161L324.09 248.915C323.967 248.962 323.792 249.009 323.564 249.057C323.337 249.109 323.053 249.137 322.712 249.142C322.153 249.152 321.632 249.052 321.15 248.844C320.667 248.635 320.276 248.313 319.978 247.878C319.679 247.442 319.53 246.895 319.53 246.237V235.477ZM329.415 249.241C328.723 249.241 328.098 249.114 327.54 248.858C326.981 248.598 326.538 248.221 326.212 247.729C325.89 247.236 325.729 246.633 325.729 245.918C325.729 245.302 325.847 244.795 326.084 244.398C326.321 244 326.64 243.685 327.043 243.453C327.445 243.221 327.895 243.046 328.392 242.928C328.889 242.809 329.396 242.719 329.912 242.658C330.565 242.582 331.096 242.52 331.503 242.473C331.91 242.421 332.206 242.338 332.391 242.224C332.575 242.111 332.668 241.926 332.668 241.67V241.621C332.668 241 332.492 240.52 332.142 240.179C331.796 239.838 331.28 239.668 330.594 239.668C329.879 239.668 329.315 239.826 328.903 240.143C328.496 240.456 328.214 240.804 328.058 241.188L326.062 240.733C326.299 240.07 326.645 239.535 327.099 239.128C327.559 238.716 328.087 238.418 328.683 238.233C329.28 238.044 329.907 237.949 330.565 237.949C331.001 237.949 331.463 238.001 331.95 238.105C332.443 238.205 332.902 238.389 333.328 238.659C333.759 238.929 334.112 239.315 334.386 239.817C334.661 240.314 334.798 240.96 334.798 241.756V249H332.724V247.509H332.639C332.502 247.783 332.296 248.053 332.021 248.318C331.747 248.583 331.394 248.804 330.963 248.979C330.532 249.154 330.016 249.241 329.415 249.241ZM329.876 247.537C330.464 247.537 330.965 247.421 331.382 247.189C331.804 246.957 332.123 246.654 332.341 246.28C332.563 245.901 332.675 245.496 332.675 245.065V243.659C332.599 243.735 332.452 243.806 332.234 243.872C332.021 243.934 331.777 243.988 331.503 244.036C331.228 244.078 330.961 244.118 330.7 244.156C330.44 244.189 330.222 244.218 330.047 244.241C329.635 244.294 329.259 244.381 328.918 244.504C328.581 244.627 328.312 244.805 328.108 245.037C327.909 245.264 327.81 245.567 327.81 245.946C327.81 246.472 328.004 246.869 328.392 247.139C328.78 247.404 329.275 247.537 329.876 247.537ZM342.201 253.318C341.334 253.318 340.588 253.205 339.963 252.977C339.343 252.75 338.837 252.449 338.444 252.075C338.051 251.701 337.757 251.292 337.563 250.847L339.388 250.094C339.516 250.302 339.686 250.522 339.9 250.754C340.117 250.991 340.411 251.192 340.78 251.358C341.154 251.524 341.635 251.607 342.222 251.607C343.027 251.607 343.692 251.41 344.218 251.017C344.743 250.629 345.006 250.009 345.006 249.156V247.011H344.871C344.743 247.243 344.559 247.501 344.317 247.786C344.08 248.07 343.754 248.316 343.337 248.524C342.92 248.732 342.378 248.837 341.711 248.837C340.849 248.837 340.072 248.635 339.381 248.233C338.694 247.826 338.15 247.227 337.748 246.436C337.35 245.641 337.151 244.663 337.151 243.503C337.151 242.343 337.347 241.348 337.74 240.52C338.138 239.691 338.683 239.057 339.374 238.616C340.065 238.171 340.849 237.949 341.725 237.949C342.402 237.949 342.949 238.062 343.365 238.29C343.782 238.512 344.106 238.773 344.338 239.071C344.575 239.369 344.757 239.632 344.885 239.859H345.042V238.091H347.123V249.241C347.123 250.179 346.905 250.948 346.469 251.55C346.033 252.151 345.444 252.596 344.701 252.885C343.962 253.174 343.129 253.318 342.201 253.318ZM342.179 247.075C342.79 247.075 343.306 246.933 343.728 246.649C344.154 246.36 344.476 245.948 344.694 245.413C344.916 244.874 345.027 244.227 345.027 243.474C345.027 242.741 344.918 242.094 344.701 241.536C344.483 240.977 344.163 240.541 343.742 240.229C343.32 239.911 342.8 239.753 342.179 239.753C341.54 239.753 341.007 239.919 340.581 240.25C340.155 240.577 339.833 241.022 339.615 241.585C339.402 242.149 339.296 242.778 339.296 243.474C339.296 244.189 339.405 244.817 339.623 245.357C339.84 245.896 340.162 246.318 340.588 246.621C341.019 246.924 341.55 247.075 342.179 247.075ZM354.672 249.22C353.597 249.22 352.672 248.991 351.895 248.531C351.123 248.067 350.527 247.416 350.105 246.578C349.689 245.735 349.48 244.748 349.48 243.616C349.48 242.499 349.689 241.514 350.105 240.662C350.527 239.81 351.114 239.144 351.867 238.666C352.624 238.188 353.51 237.949 354.523 237.949C355.139 237.949 355.735 238.051 356.313 238.254C356.891 238.458 357.409 238.777 357.868 239.213C358.328 239.649 358.69 240.214 358.955 240.911C359.22 241.602 359.353 242.442 359.353 243.432V244.185H350.681V242.594H357.272C357.272 242.035 357.158 241.54 356.931 241.109C356.703 240.674 356.384 240.33 355.972 240.08C355.565 239.829 355.087 239.703 354.537 239.703C353.941 239.703 353.42 239.85 352.975 240.143C352.534 240.432 352.194 240.811 351.952 241.28C351.715 241.744 351.597 242.248 351.597 242.793V244.036C351.597 244.765 351.725 245.385 351.98 245.896C352.241 246.408 352.603 246.798 353.067 247.068C353.531 247.333 354.073 247.466 354.694 247.466C355.096 247.466 355.463 247.409 355.794 247.295C356.126 247.177 356.412 247.002 356.654 246.77C356.895 246.538 357.08 246.251 357.208 245.911L359.218 246.273C359.057 246.865 358.768 247.383 358.351 247.828C357.939 248.268 357.421 248.612 356.796 248.858C356.176 249.099 355.468 249.22 354.672 249.22Z" fill="black"/>
<rect x="77" y="275" width="282" height="32" rx="4" fill="#D9EAFF"/>
<path d="M94.446 298.179C93.696 298.179 93.0206 298.03 92.4197 297.732C91.8189 297.433 91.3374 297.024 90.9751 296.504C90.6129 295.984 90.4148 295.392 90.3807 294.727H91.9148C91.9744 295.32 92.2429 295.81 92.7202 296.197C93.2017 296.581 93.777 296.773 94.446 296.773C94.983 296.773 95.4602 296.647 95.8778 296.396C96.2997 296.144 96.63 295.799 96.8686 295.36C97.1115 294.917 97.233 294.416 97.233 293.858C97.233 293.287 97.1072 292.778 96.8558 292.33C96.6087 291.879 96.2678 291.523 95.8331 291.263C95.3984 291.003 94.902 290.871 94.3438 290.866C93.9432 290.862 93.532 290.924 93.1101 291.052C92.6882 291.175 92.3409 291.335 92.0682 291.531L90.5852 291.352L91.3778 284.909H98.179V286.315H92.7074L92.2472 290.176H92.3239C92.5923 289.963 92.929 289.786 93.3338 289.646C93.7386 289.505 94.1605 289.435 94.5994 289.435C95.4006 289.435 96.1143 289.626 96.7408 290.01C97.3714 290.389 97.8658 290.909 98.2237 291.57C98.5859 292.23 98.767 292.984 98.767 293.832C98.767 294.668 98.5795 295.413 98.2045 296.07C97.8338 296.722 97.3224 297.237 96.6705 297.616C96.0185 297.991 95.277 298.179 94.446 298.179ZM105.576 298.179C104.613 298.179 103.793 297.917 103.115 297.393C102.438 296.864 101.92 296.099 101.562 295.098C101.204 294.092 101.025 292.878 101.025 291.455C101.025 290.04 101.204 288.832 101.562 287.83C101.924 286.825 102.444 286.058 103.122 285.529C103.803 284.996 104.622 284.73 105.576 284.73C106.531 284.73 107.347 284.996 108.024 285.529C108.706 286.058 109.226 286.825 109.584 287.83C109.946 288.832 110.127 290.04 110.127 291.455C110.127 292.878 109.948 294.092 109.59 295.098C109.232 296.099 108.715 296.864 108.037 297.393C107.36 297.917 106.539 298.179 105.576 298.179ZM105.576 296.773C106.531 296.773 107.272 296.312 107.801 295.392C108.329 294.472 108.593 293.159 108.593 291.455C108.593 290.321 108.472 289.356 108.229 288.559C107.99 287.762 107.645 287.155 107.193 286.737C106.746 286.32 106.207 286.111 105.576 286.111C104.63 286.111 103.891 286.577 103.358 287.511C102.825 288.44 102.559 289.754 102.559 291.455C102.559 292.588 102.678 293.551 102.917 294.344C103.156 295.136 103.499 295.739 103.946 296.153C104.398 296.566 104.941 296.773 105.576 296.773ZM119.23 295.545V294.855C119.23 294.378 119.328 293.941 119.524 293.545C119.724 293.144 120.014 292.825 120.393 292.586C120.776 292.343 121.241 292.222 121.786 292.222C122.34 292.222 122.805 292.343 123.18 292.586C123.555 292.825 123.838 293.144 124.03 293.545C124.222 293.941 124.318 294.378 124.318 294.855V295.545C124.318 296.023 124.22 296.462 124.024 296.862C123.832 297.259 123.546 297.578 123.167 297.821C122.792 298.06 122.332 298.179 121.786 298.179C121.232 298.179 120.766 298.06 120.387 297.821C120.007 297.578 119.72 297.259 119.524 296.862C119.328 296.462 119.23 296.023 119.23 295.545ZM120.534 294.855V295.545C120.534 295.942 120.627 296.298 120.815 296.613C121.002 296.924 121.326 297.08 121.786 297.08C122.234 297.08 122.549 296.924 122.732 296.613C122.92 296.298 123.014 295.942 123.014 295.545V294.855C123.014 294.459 122.924 294.105 122.745 293.794C122.566 293.479 122.247 293.321 121.786 293.321C121.339 293.321 121.017 293.479 120.821 293.794C120.629 294.105 120.534 294.459 120.534 294.855ZM112.71 288.054V287.364C112.71 286.886 112.808 286.45 113.004 286.053C113.204 285.653 113.494 285.333 113.873 285.094C114.257 284.852 114.721 284.73 115.267 284.73C115.82 284.73 116.285 284.852 116.66 285.094C117.035 285.333 117.318 285.653 117.51 286.053C117.702 286.45 117.798 286.886 117.798 287.364V288.054C117.798 288.531 117.7 288.97 117.504 289.371C117.312 289.767 117.026 290.087 116.647 290.33C116.272 290.568 115.812 290.688 115.267 290.688C114.713 290.688 114.246 290.568 113.867 290.33C113.487 290.087 113.2 289.767 113.004 289.371C112.808 288.97 112.71 288.531 112.71 288.054ZM114.014 287.364V288.054C114.014 288.45 114.107 288.806 114.295 289.121C114.482 289.433 114.806 289.588 115.267 289.588C115.714 289.588 116.029 289.433 116.213 289.121C116.4 288.806 116.494 288.45 116.494 288.054V287.364C116.494 286.967 116.404 286.614 116.225 286.303C116.046 285.987 115.727 285.83 115.267 285.83C114.819 285.83 114.497 285.987 114.301 286.303C114.11 286.614 114.014 286.967 114.014 287.364ZM113.195 298L122.195 284.909H123.653L114.653 298H113.195ZM136.258 298.205C135.372 298.205 134.594 297.994 133.925 297.572C133.26 297.15 132.74 296.56 132.365 295.801C131.994 295.043 131.809 294.156 131.809 293.142C131.809 292.119 131.994 291.227 132.365 290.464C132.74 289.701 133.26 289.109 133.925 288.687C134.594 288.265 135.372 288.054 136.258 288.054C137.144 288.054 137.92 288.265 138.585 288.687C139.254 289.109 139.774 289.701 140.144 290.464C140.519 291.227 140.707 292.119 140.707 293.142C140.707 294.156 140.519 295.043 140.144 295.801C139.774 296.56 139.254 297.15 138.585 297.572C137.92 297.994 137.144 298.205 136.258 298.205ZM136.258 296.849C136.931 296.849 137.485 296.677 137.92 296.332C138.355 295.987 138.676 295.533 138.885 294.97C139.094 294.408 139.198 293.798 139.198 293.142C139.198 292.486 139.094 291.874 138.885 291.308C138.676 290.741 138.355 290.283 137.92 289.933C137.485 289.584 136.931 289.409 136.258 289.409C135.585 289.409 135.031 289.584 134.596 289.933C134.161 290.283 133.84 290.741 133.631 291.308C133.422 291.874 133.318 292.486 133.318 293.142C133.318 293.798 133.422 294.408 133.631 294.97C133.84 295.533 134.161 295.987 134.596 296.332C135.031 296.677 135.585 296.849 136.258 296.849ZM147.382 288.182V289.46H142.089V288.182H147.382ZM143.674 298V286.827C143.674 286.264 143.806 285.795 144.071 285.42C144.335 285.045 144.678 284.764 145.1 284.577C145.522 284.389 145.967 284.295 146.436 284.295C146.806 284.295 147.109 284.325 147.343 284.385C147.578 284.445 147.752 284.5 147.868 284.551L147.433 285.855C147.356 285.83 147.25 285.798 147.113 285.759C146.981 285.721 146.806 285.702 146.589 285.702C146.091 285.702 145.73 285.827 145.509 286.079C145.292 286.33 145.183 286.699 145.183 287.185V298H143.674ZM153.868 288.182V289.46H148.575V288.182H153.868ZM150.161 298V286.827C150.161 286.264 150.293 285.795 150.557 285.42C150.821 285.045 151.164 284.764 151.586 284.577C152.008 284.389 152.453 284.295 152.922 284.295C153.293 284.295 153.595 284.325 153.83 284.385C154.064 284.445 154.239 284.5 154.354 284.551L153.919 285.855C153.843 285.83 153.736 285.798 153.6 285.759C153.468 285.721 153.293 285.702 153.075 285.702C152.577 285.702 152.217 285.827 151.995 286.079C151.778 286.33 151.669 286.699 151.669 287.185V298H150.161Z" fill="#38386C"/>
<path d="M303.214 298V296.849L307.536 292.119C308.043 291.565 308.46 291.084 308.788 290.675C309.116 290.261 309.359 289.874 309.517 289.511C309.679 289.145 309.76 288.761 309.76 288.361C309.76 287.901 309.649 287.502 309.428 287.165C309.21 286.829 308.912 286.569 308.533 286.386C308.153 286.202 307.727 286.111 307.254 286.111C306.751 286.111 306.312 286.215 305.938 286.424C305.567 286.629 305.279 286.916 305.075 287.287C304.874 287.658 304.774 288.092 304.774 288.591H303.266C303.266 287.824 303.442 287.151 303.796 286.571C304.15 285.991 304.631 285.54 305.241 285.216C305.854 284.892 306.543 284.73 307.305 284.73C308.072 284.73 308.752 284.892 309.344 285.216C309.937 285.54 310.401 285.977 310.738 286.526C311.075 287.076 311.243 287.688 311.243 288.361C311.243 288.842 311.156 289.313 310.981 289.773C310.81 290.229 310.512 290.739 310.086 291.301C309.664 291.859 309.078 292.541 308.328 293.347L305.388 296.491V296.594H311.473V298H303.214ZM318.383 298.179C317.42 298.179 316.599 297.917 315.922 297.393C315.244 296.864 314.727 296.099 314.369 295.098C314.011 294.092 313.832 292.878 313.832 291.455C313.832 290.04 314.011 288.832 314.369 287.83C314.731 286.825 315.251 286.058 315.928 285.529C316.61 284.996 317.428 284.73 318.383 284.73C319.337 284.73 320.153 284.996 320.831 285.529C321.513 286.058 322.033 286.825 322.391 287.83C322.753 288.832 322.934 290.04 322.934 291.455C322.934 292.878 322.755 294.092 322.397 295.098C322.039 296.099 321.521 296.864 320.844 297.393C320.166 297.917 319.346 298.179 318.383 298.179ZM318.383 296.773C319.337 296.773 320.079 296.312 320.607 295.392C321.136 294.472 321.4 293.159 321.4 291.455C321.4 290.321 321.278 289.356 321.036 288.559C320.797 287.762 320.452 287.155 320 286.737C319.553 286.32 319.013 286.111 318.383 286.111C317.437 286.111 316.697 286.577 316.165 287.511C315.632 288.44 315.366 289.754 315.366 291.455C315.366 292.588 315.485 293.551 315.724 294.344C315.962 295.136 316.305 295.739 316.753 296.153C317.205 296.566 317.748 296.773 318.383 296.773ZM329.633 298.179C328.67 298.179 327.849 297.917 327.172 297.393C326.494 296.864 325.977 296.099 325.619 295.098C325.261 294.092 325.082 292.878 325.082 291.455C325.082 290.04 325.261 288.832 325.619 287.83C325.981 286.825 326.501 286.058 327.178 285.529C327.86 284.996 328.678 284.73 329.633 284.73C330.587 284.73 331.403 284.996 332.081 285.529C332.763 286.058 333.283 286.825 333.641 287.83C334.003 288.832 334.184 290.04 334.184 291.455C334.184 292.878 334.005 294.092 333.647 295.098C333.289 296.099 332.771 296.864 332.094 297.393C331.416 297.917 330.596 298.179 329.633 298.179ZM329.633 296.773C330.587 296.773 331.329 296.312 331.857 295.392C332.386 294.472 332.65 293.159 332.65 291.455C332.65 290.321 332.528 289.356 332.286 288.559C332.047 287.762 331.702 287.155 331.25 286.737C330.803 286.32 330.263 286.111 329.633 286.111C328.687 286.111 327.947 286.577 327.415 287.511C326.882 288.44 326.616 289.754 326.616 291.455C326.616 292.588 326.735 293.551 326.974 294.344C327.212 295.136 327.555 295.739 328.003 296.153C328.455 296.566 328.998 296.773 329.633 296.773ZM336.843 298V284.909H338.428V291.403H338.582L344.462 284.909H346.533L341.036 290.815L346.533 298H344.616L340.065 291.915L338.428 293.756V298H336.843Z" fill="#38386C"/>
<rect x="77" y="319" width="236" height="32" rx="4" fill="#D9EAFF"/>
<path d="M90.0483 339.315V338.011L95.8011 328.909H96.7472V330.929H96.108L91.7614 337.807V337.909H99.5085V339.315H90.0483ZM96.2102 342V338.919V338.312V328.909H97.7188V342H96.2102ZM106.174 342.179C105.211 342.179 104.39 341.917 103.713 341.393C103.035 340.864 102.518 340.099 102.16 339.098C101.802 338.092 101.623 336.878 101.623 335.455C101.623 334.04 101.802 332.832 102.16 331.83C102.522 330.825 103.042 330.058 103.719 329.529C104.401 328.996 105.219 328.73 106.174 328.73C107.128 328.73 107.944 328.996 108.622 329.529C109.304 330.058 109.824 330.825 110.182 331.83C110.544 332.832 110.725 334.04 110.725 335.455C110.725 336.878 110.546 338.092 110.188 339.098C109.83 340.099 109.312 340.864 108.635 341.393C107.957 341.917 107.137 342.179 106.174 342.179ZM106.174 340.773C107.128 340.773 107.87 340.312 108.398 339.392C108.927 338.472 109.191 337.159 109.191 335.455C109.191 334.321 109.069 333.356 108.827 332.559C108.588 331.762 108.243 331.155 107.791 330.737C107.344 330.32 106.805 330.111 106.174 330.111C105.228 330.111 104.488 330.577 103.956 331.511C103.423 332.44 103.157 333.754 103.157 335.455C103.157 336.588 103.276 337.551 103.515 338.344C103.753 339.136 104.096 339.739 104.544 340.153C104.996 340.566 105.539 340.773 106.174 340.773ZM119.827 339.545V338.855C119.827 338.378 119.925 337.941 120.121 337.545C120.322 337.144 120.611 336.825 120.991 336.586C121.374 336.343 121.839 336.222 122.384 336.222C122.938 336.222 123.403 336.343 123.778 336.586C124.153 336.825 124.436 337.144 124.628 337.545C124.819 337.941 124.915 338.378 124.915 338.855V339.545C124.915 340.023 124.817 340.462 124.621 340.862C124.43 341.259 124.144 341.578 123.765 341.821C123.39 342.06 122.93 342.179 122.384 342.179C121.83 342.179 121.363 342.06 120.984 341.821C120.605 341.578 120.317 341.259 120.121 340.862C119.925 340.462 119.827 340.023 119.827 339.545ZM121.131 338.855V339.545C121.131 339.942 121.225 340.298 121.412 340.613C121.6 340.924 121.924 341.08 122.384 341.08C122.831 341.08 123.147 340.924 123.33 340.613C123.518 340.298 123.611 339.942 123.611 339.545V338.855C123.611 338.459 123.522 338.105 123.343 337.794C123.164 337.479 122.844 337.321 122.384 337.321C121.937 337.321 121.615 337.479 121.419 337.794C121.227 338.105 121.131 338.459 121.131 338.855ZM113.307 332.054V331.364C113.307 330.886 113.405 330.45 113.601 330.053C113.802 329.653 114.091 329.333 114.471 329.094C114.854 328.852 115.319 328.73 115.864 328.73C116.418 328.73 116.883 328.852 117.258 329.094C117.633 329.333 117.916 329.653 118.108 330.053C118.3 330.45 118.395 330.886 118.395 331.364V332.054C118.395 332.531 118.297 332.97 118.101 333.371C117.91 333.767 117.624 334.087 117.245 334.33C116.87 334.568 116.41 334.688 115.864 334.688C115.31 334.688 114.844 334.568 114.464 334.33C114.085 334.087 113.797 333.767 113.601 333.371C113.405 332.97 113.307 332.531 113.307 332.054ZM114.611 331.364V332.054C114.611 332.45 114.705 332.806 114.893 333.121C115.08 333.433 115.404 333.588 115.864 333.588C116.312 333.588 116.627 333.433 116.81 333.121C116.998 332.806 117.091 332.45 117.091 332.054V331.364C117.091 330.967 117.002 330.614 116.823 330.303C116.644 329.987 116.324 329.83 115.864 329.83C115.417 329.83 115.095 329.987 114.899 330.303C114.707 330.614 114.611 330.967 114.611 331.364ZM113.793 342L122.793 328.909H124.251L115.251 342H113.793ZM136.856 342.205C135.969 342.205 135.192 341.994 134.523 341.572C133.858 341.15 133.338 340.56 132.963 339.801C132.592 339.043 132.407 338.156 132.407 337.142C132.407 336.119 132.592 335.227 132.963 334.464C133.338 333.701 133.858 333.109 134.523 332.687C135.192 332.265 135.969 332.054 136.856 332.054C137.742 332.054 138.518 332.265 139.182 332.687C139.851 333.109 140.371 333.701 140.742 334.464C141.117 335.227 141.305 336.119 141.305 337.142C141.305 338.156 141.117 339.043 140.742 339.801C140.371 340.56 139.851 341.15 139.182 341.572C138.518 341.994 137.742 342.205 136.856 342.205ZM136.856 340.849C137.529 340.849 138.083 340.677 138.518 340.332C138.952 339.987 139.274 339.533 139.483 338.97C139.692 338.408 139.796 337.798 139.796 337.142C139.796 336.486 139.692 335.874 139.483 335.308C139.274 334.741 138.952 334.283 138.518 333.933C138.083 333.584 137.529 333.409 136.856 333.409C136.182 333.409 135.628 333.584 135.194 333.933C134.759 334.283 134.437 334.741 134.229 335.308C134.02 335.874 133.915 336.486 133.915 337.142C133.915 337.798 134.02 338.408 134.229 338.97C134.437 339.533 134.759 339.987 135.194 340.332C135.628 340.677 136.182 340.849 136.856 340.849ZM147.979 332.182V333.46H142.687V332.182H147.979ZM144.272 342V330.827C144.272 330.264 144.404 329.795 144.668 329.42C144.933 329.045 145.276 328.764 145.697 328.577C146.119 328.389 146.565 328.295 147.033 328.295C147.404 328.295 147.707 328.325 147.941 328.385C148.175 328.445 148.35 328.5 148.465 328.551L148.031 329.855C147.954 329.83 147.847 329.798 147.711 329.759C147.579 329.721 147.404 329.702 147.187 329.702C146.688 329.702 146.328 329.827 146.107 330.079C145.889 330.33 145.781 330.699 145.781 331.185V342H144.272ZM154.466 332.182V333.46H149.173V332.182H154.466ZM150.758 342V330.827C150.758 330.264 150.89 329.795 151.155 329.42C151.419 329.045 151.762 328.764 152.184 328.577C152.606 328.389 153.051 328.295 153.52 328.295C153.89 328.295 154.193 328.325 154.427 328.385C154.662 328.445 154.836 328.5 154.952 328.551L154.517 329.855C154.44 329.83 154.334 329.798 154.197 329.759C154.065 329.721 153.89 329.702 153.673 329.702C153.175 329.702 152.814 329.827 152.593 330.079C152.376 330.33 152.267 330.699 152.267 331.185V342H150.758Z" fill="#38386C"/>
<path d="M264.506 328.909V342H262.921V330.571H262.844L259.648 332.693V331.082L262.921 328.909H264.506ZM272.464 342.179C271.586 342.179 270.811 342.023 270.138 341.712C269.469 341.397 268.947 340.964 268.572 340.415C268.197 339.861 268.011 339.23 268.015 338.523C268.011 337.969 268.12 337.457 268.341 336.989C268.563 336.516 268.866 336.121 269.249 335.806C269.637 335.487 270.069 335.284 270.547 335.199V335.122C269.92 334.96 269.422 334.609 269.051 334.067C268.68 333.522 268.497 332.902 268.501 332.207C268.497 331.543 268.665 330.948 269.006 330.424C269.347 329.9 269.816 329.487 270.412 329.184C271.013 328.881 271.697 328.73 272.464 328.73C273.223 328.73 273.9 328.881 274.497 329.184C275.094 329.487 275.562 329.9 275.903 330.424C276.248 330.948 276.423 331.543 276.427 332.207C276.423 332.902 276.233 333.522 275.858 334.067C275.488 334.609 274.996 334.96 274.382 335.122V335.199C274.855 335.284 275.281 335.487 275.66 335.806C276.04 336.121 276.342 336.516 276.568 336.989C276.794 337.457 276.909 337.969 276.913 338.523C276.909 339.23 276.717 339.861 276.338 340.415C275.963 340.964 275.441 341.397 274.772 341.712C274.107 342.023 273.338 342.179 272.464 342.179ZM272.464 340.773C273.057 340.773 273.568 340.677 273.998 340.485C274.429 340.293 274.761 340.023 274.996 339.673C275.23 339.324 275.349 338.915 275.354 338.446C275.349 337.952 275.221 337.515 274.97 337.136C274.719 336.756 274.376 336.458 273.941 336.241C273.51 336.023 273.018 335.915 272.464 335.915C271.906 335.915 271.407 336.023 270.969 336.241C270.534 336.458 270.191 336.756 269.939 337.136C269.692 337.515 269.571 337.952 269.575 338.446C269.571 338.915 269.684 339.324 269.914 339.673C270.148 340.023 270.483 340.293 270.917 340.485C271.352 340.677 271.868 340.773 272.464 340.773ZM272.464 334.56C272.933 334.56 273.349 334.466 273.711 334.278C274.077 334.091 274.365 333.829 274.574 333.492C274.782 333.156 274.889 332.761 274.893 332.31C274.889 331.866 274.785 331.481 274.58 331.153C274.376 330.82 274.092 330.565 273.73 330.386C273.368 330.202 272.946 330.111 272.464 330.111C271.974 330.111 271.546 330.202 271.18 330.386C270.813 330.565 270.53 330.82 270.329 331.153C270.129 331.481 270.031 331.866 270.035 332.31C270.031 332.761 270.131 333.156 270.336 333.492C270.545 333.829 270.832 334.091 271.199 334.278C271.565 334.466 271.987 334.56 272.464 334.56ZM283.633 342.179C282.67 342.179 281.849 341.917 281.172 341.393C280.494 340.864 279.977 340.099 279.619 339.098C279.261 338.092 279.082 336.878 279.082 335.455C279.082 334.04 279.261 332.832 279.619 331.83C279.981 330.825 280.501 330.058 281.178 329.529C281.86 328.996 282.678 328.73 283.633 328.73C284.587 328.73 285.403 328.996 286.081 329.529C286.763 330.058 287.283 330.825 287.641 331.83C288.003 332.832 288.184 334.04 288.184 335.455C288.184 336.878 288.005 338.092 287.647 339.098C287.289 340.099 286.771 340.864 286.094 341.393C285.416 341.917 284.596 342.179 283.633 342.179ZM283.633 340.773C284.587 340.773 285.329 340.312 285.857 339.392C286.386 338.472 286.65 337.159 286.65 335.455C286.65 334.321 286.528 333.356 286.286 332.559C286.047 331.762 285.702 331.155 285.25 330.737C284.803 330.32 284.263 330.111 283.633 330.111C282.687 330.111 281.947 330.577 281.415 331.511C280.882 332.44 280.616 333.754 280.616 335.455C280.616 336.588 280.735 337.551 280.974 338.344C281.212 339.136 281.555 339.739 282.003 340.153C282.455 340.566 282.998 340.773 283.633 340.773ZM290.843 342V328.909H292.428V335.403H292.582L298.462 328.909H300.533L295.036 334.815L300.533 342H298.616L294.065 335.915L292.428 337.756V342H290.843Z" fill="#38386C"/>
<rect x="77" y="363" width="203" height="32" rx="4" fill="#D9EAFF"/>
<path d="M90.3551 386V384.849L94.6761 380.119C95.1832 379.565 95.6009 379.084 95.929 378.675C96.2571 378.261 96.5 377.874 96.6577 377.511C96.8196 377.145 96.9006 376.761 96.9006 376.361C96.9006 375.901 96.7898 375.502 96.5682 375.165C96.3509 374.829 96.0526 374.569 95.6733 374.386C95.294 374.202 94.8679 374.111 94.3949 374.111C93.892 374.111 93.4531 374.215 93.0781 374.424C92.7074 374.629 92.4197 374.916 92.2152 375.287C92.0149 375.658 91.9148 376.092 91.9148 376.591H90.4062C90.4062 375.824 90.5831 375.151 90.9368 374.571C91.2905 373.991 91.772 373.54 92.3814 373.216C92.995 372.892 93.6832 372.73 94.446 372.73C95.2131 372.73 95.8928 372.892 96.4851 373.216C97.0774 373.54 97.5419 373.977 97.8786 374.526C98.2152 375.076 98.3835 375.688 98.3835 376.361C98.3835 376.842 98.2962 377.313 98.1214 377.773C97.951 378.229 97.6527 378.739 97.2266 379.301C96.8047 379.859 96.2188 380.541 95.4688 381.347L92.5284 384.491V384.594H98.6136V386H90.3551ZM105.523 386.179C104.56 386.179 103.74 385.917 103.062 385.393C102.385 384.864 101.867 384.099 101.509 383.098C101.151 382.092 100.972 380.878 100.972 379.455C100.972 378.04 101.151 376.832 101.509 375.83C101.871 374.825 102.391 374.058 103.069 373.529C103.751 372.996 104.569 372.73 105.523 372.73C106.478 372.73 107.294 372.996 107.972 373.529C108.653 374.058 109.173 374.825 109.531 375.83C109.893 376.832 110.075 378.04 110.075 379.455C110.075 380.878 109.896 382.092 109.538 383.098C109.18 384.099 108.662 384.864 107.984 385.393C107.307 385.917 106.487 386.179 105.523 386.179ZM105.523 384.773C106.478 384.773 107.219 384.312 107.748 383.392C108.276 382.472 108.54 381.159 108.54 379.455C108.54 378.321 108.419 377.356 108.176 376.559C107.938 375.762 107.592 375.155 107.141 374.737C106.693 374.32 106.154 374.111 105.523 374.111C104.577 374.111 103.838 374.577 103.305 375.511C102.773 376.44 102.506 377.754 102.506 379.455C102.506 380.588 102.626 381.551 102.864 382.344C103.103 383.136 103.446 383.739 103.893 384.153C104.345 384.566 104.888 384.773 105.523 384.773ZM119.177 383.545V382.855C119.177 382.378 119.275 381.941 119.471 381.545C119.671 381.144 119.961 380.825 120.34 380.586C120.724 380.343 121.188 380.222 121.734 380.222C122.288 380.222 122.752 380.343 123.127 380.586C123.502 380.825 123.786 381.144 123.977 381.545C124.169 381.941 124.265 382.378 124.265 382.855V383.545C124.265 384.023 124.167 384.462 123.971 384.862C123.779 385.259 123.494 385.578 123.114 385.821C122.739 386.06 122.279 386.179 121.734 386.179C121.18 386.179 120.713 386.06 120.334 385.821C119.955 385.578 119.667 385.259 119.471 384.862C119.275 384.462 119.177 384.023 119.177 383.545ZM120.481 382.855V383.545C120.481 383.942 120.575 384.298 120.762 384.613C120.95 384.924 121.273 385.08 121.734 385.08C122.181 385.08 122.496 384.924 122.68 384.613C122.867 384.298 122.961 383.942 122.961 383.545V382.855C122.961 382.459 122.871 382.105 122.692 381.794C122.513 381.479 122.194 381.321 121.734 381.321C121.286 381.321 120.964 381.479 120.768 381.794C120.577 382.105 120.481 382.459 120.481 382.855ZM112.657 376.054V375.364C112.657 374.886 112.755 374.45 112.951 374.053C113.151 373.653 113.441 373.333 113.82 373.094C114.204 372.852 114.668 372.73 115.214 372.73C115.768 372.73 116.232 372.852 116.607 373.094C116.982 373.333 117.266 373.653 117.457 374.053C117.649 374.45 117.745 374.886 117.745 375.364V376.054C117.745 376.531 117.647 376.97 117.451 377.371C117.259 377.767 116.974 378.087 116.594 378.33C116.219 378.568 115.759 378.688 115.214 378.688C114.66 378.688 114.193 378.568 113.814 378.33C113.435 378.087 113.147 377.767 112.951 377.371C112.755 376.97 112.657 376.531 112.657 376.054ZM113.961 375.364V376.054C113.961 376.45 114.055 376.806 114.242 377.121C114.43 377.433 114.754 377.588 115.214 377.588C115.661 377.588 115.977 377.433 116.16 377.121C116.347 376.806 116.441 376.45 116.441 376.054V375.364C116.441 374.967 116.352 374.614 116.173 374.303C115.994 373.987 115.674 373.83 115.214 373.83C114.766 373.83 114.445 373.987 114.249 374.303C114.057 374.614 113.961 374.967 113.961 375.364ZM113.143 386L122.143 372.909H123.6L114.6 386H113.143ZM136.205 386.205C135.319 386.205 134.541 385.994 133.872 385.572C133.207 385.15 132.688 384.56 132.312 383.801C131.942 383.043 131.756 382.156 131.756 381.142C131.756 380.119 131.942 379.227 132.312 378.464C132.688 377.701 133.207 377.109 133.872 376.687C134.541 376.265 135.319 376.054 136.205 376.054C137.092 376.054 137.867 376.265 138.532 376.687C139.201 377.109 139.721 377.701 140.092 378.464C140.467 379.227 140.654 380.119 140.654 381.142C140.654 382.156 140.467 383.043 140.092 383.801C139.721 384.56 139.201 385.15 138.532 385.572C137.867 385.994 137.092 386.205 136.205 386.205ZM136.205 384.849C136.879 384.849 137.433 384.677 137.867 384.332C138.302 383.987 138.624 383.533 138.832 382.97C139.041 382.408 139.146 381.798 139.146 381.142C139.146 380.486 139.041 379.874 138.832 379.308C138.624 378.741 138.302 378.283 137.867 377.933C137.433 377.584 136.879 377.409 136.205 377.409C135.532 377.409 134.978 377.584 134.543 377.933C134.109 378.283 133.787 378.741 133.578 379.308C133.369 379.874 133.265 380.486 133.265 381.142C133.265 381.798 133.369 382.408 133.578 382.97C133.787 383.533 134.109 383.987 134.543 384.332C134.978 384.677 135.532 384.849 136.205 384.849ZM147.329 376.182V377.46H142.036V376.182H147.329ZM143.622 386V374.827C143.622 374.264 143.754 373.795 144.018 373.42C144.282 373.045 144.625 372.764 145.047 372.577C145.469 372.389 145.914 372.295 146.383 372.295C146.754 372.295 147.056 372.325 147.291 372.385C147.525 372.445 147.7 372.5 147.815 372.551L147.38 373.855C147.303 373.83 147.197 373.798 147.061 373.759C146.928 373.721 146.754 373.702 146.536 373.702C146.038 373.702 145.678 373.827 145.456 374.079C145.239 374.33 145.13 374.699 145.13 375.185V386H143.622ZM153.815 376.182V377.46H148.523V376.182H153.815ZM150.108 386V374.827C150.108 374.264 150.24 373.795 150.504 373.42C150.768 373.045 151.112 372.764 151.533 372.577C151.955 372.389 152.401 372.295 152.869 372.295C153.24 372.295 153.543 372.325 153.777 372.385C154.011 372.445 154.186 372.5 154.301 372.551L153.866 373.855C153.79 373.83 153.683 373.798 153.547 373.759C153.415 373.721 153.24 373.702 153.023 373.702C152.524 373.702 152.164 373.827 151.942 374.079C151.725 374.33 151.616 374.699 151.616 375.185V386H150.108Z" fill="#38386C"/>
<path d="M221.366 372.909V386H219.78V374.571H219.704L216.508 376.693V375.082L219.78 372.909H221.366ZM229.477 386.179C228.94 386.17 228.403 386.068 227.866 385.872C227.329 385.676 226.839 385.346 226.396 384.881C225.953 384.413 225.597 383.78 225.329 382.983C225.06 382.182 224.926 381.176 224.926 379.966C224.926 378.807 225.035 377.78 225.252 376.885C225.469 375.986 225.785 375.229 226.198 374.616C226.611 373.998 227.11 373.529 227.694 373.21C228.282 372.89 228.944 372.73 229.682 372.73C230.415 372.73 231.067 372.877 231.638 373.171C232.213 373.461 232.682 373.866 233.044 374.386C233.406 374.906 233.64 375.504 233.747 376.182H232.187C232.042 375.594 231.761 375.106 231.344 374.718C230.926 374.33 230.372 374.136 229.682 374.136C228.667 374.136 227.868 374.577 227.285 375.46C226.705 376.342 226.413 377.58 226.409 379.173H226.511C226.75 378.811 227.033 378.502 227.361 378.246C227.694 377.987 228.06 377.786 228.461 377.646C228.861 377.505 229.285 377.435 229.733 377.435C230.483 377.435 231.169 377.622 231.791 377.997C232.413 378.368 232.912 378.881 233.287 379.538C233.662 380.19 233.849 380.938 233.849 381.781C233.849 382.591 233.668 383.332 233.306 384.006C232.944 384.675 232.434 385.207 231.778 385.604C231.126 385.996 230.359 386.188 229.477 386.179ZM229.477 384.773C230.014 384.773 230.496 384.638 230.922 384.37C231.352 384.102 231.691 383.741 231.938 383.29C232.189 382.838 232.315 382.335 232.315 381.781C232.315 381.24 232.194 380.748 231.951 380.305C231.712 379.857 231.382 379.501 230.96 379.237C230.542 378.973 230.065 378.841 229.528 378.841C229.123 378.841 228.746 378.922 228.397 379.084C228.047 379.241 227.741 379.459 227.476 379.736C227.216 380.013 227.012 380.33 226.863 380.688C226.714 381.042 226.639 381.415 226.639 381.807C226.639 382.327 226.76 382.812 227.003 383.264C227.251 383.716 227.587 384.08 228.013 384.357C228.444 384.634 228.932 384.773 229.477 384.773ZM240.633 386.179C239.67 386.179 238.849 385.917 238.172 385.393C237.494 384.864 236.977 384.099 236.619 383.098C236.261 382.092 236.082 380.878 236.082 379.455C236.082 378.04 236.261 376.832 236.619 375.83C236.981 374.825 237.501 374.058 238.178 373.529C238.86 372.996 239.678 372.73 240.633 372.73C241.587 372.73 242.403 372.996 243.081 373.529C243.763 374.058 244.283 374.825 244.641 375.83C245.003 376.832 245.184 378.04 245.184 379.455C245.184 380.878 245.005 382.092 244.647 383.098C244.289 384.099 243.771 384.864 243.094 385.393C242.416 385.917 241.596 386.179 240.633 386.179ZM240.633 384.773C241.587 384.773 242.329 384.312 242.857 383.392C243.386 382.472 243.65 381.159 243.65 379.455C243.65 378.321 243.528 377.356 243.286 376.559C243.047 375.762 242.702 375.155 242.25 374.737C241.803 374.32 241.263 374.111 240.633 374.111C239.687 374.111 238.947 374.577 238.415 375.511C237.882 376.44 237.616 377.754 237.616 379.455C237.616 380.588 237.735 381.551 237.974 382.344C238.212 383.136 238.555 383.739 239.003 384.153C239.455 384.566 239.998 384.773 240.633 384.773ZM247.843 386V372.909H249.428V379.403H249.582L255.462 372.909H257.533L252.036 378.815L257.533 386H255.616L251.065 379.915L249.428 381.756V386H247.843Z" fill="#38386C"/>
<g filter="url(#filter2_d_2456_14922)">
<rect x="381.793" y="120.108" width="256.207" height="173.373" rx="12" fill="#A8CFFF"/>
</g>
<rect x="420.32" y="224.134" width="5.77909" height="34.6746" rx="1.5" fill="white"/>
<rect x="439.584" y="195.238" width="5.77909" height="63.57" rx="1.5" fill="white"/>
<rect x="458.848" y="231.837" width="5.77909" height="26.9691" rx="1.5" fill="white"/>
<rect x="478.112" y="208.722" width="5.77909" height="50.0855" rx="1.5" fill="white"/>
<rect x="497.375" y="206.795" width="5.77909" height="52.0118" rx="1.5" fill="white"/>
<rect x="516.639" y="224.134" width="5.77909" height="34.6746" rx="1.5" fill="white"/>
<rect x="535.903" y="195.238" width="5.77909" height="63.57" rx="1.5" fill="white"/>
<rect x="555.167" y="231.837" width="5.77909" height="26.9691" rx="1.5" fill="white"/>
<rect x="574.429" y="208.722" width="5.77909" height="50.0855" rx="1.5" fill="white"/>
<rect x="593.694" y="206.795" width="5.77909" height="52.0118" rx="1.5" fill="white"/>
<path d="M420.32 177.899L439.583 158.636L461.736 188.494L481 173.083H500.264L519.527 184.642L538.791 177.899L558.055 188.494L577.318 180.789L596.582 184.642" stroke="white" stroke-linecap="round" stroke-linejoin="round"/>
<circle cx="420.321" cy="177.9" r="3.85273" fill="white"/>
<circle cx="420.321" cy="177.9" r="3.85273" fill="white"/>
<circle cx="439.584" cy="160.562" r="3.85273" fill="white"/>
<circle cx="462.701" cy="187.53" r="3.85273" fill="white"/>
<circle cx="481.964" cy="174.047" r="3.85273" fill="white"/>
<circle cx="501.227" cy="174.047" r="3.85273" fill="white"/>
<circle cx="520.492" cy="183.679" r="3.85273" fill="white"/>
<circle cx="539.756" cy="179.826" r="3.85273" fill="white"/>
<circle cx="559.019" cy="187.53" r="3.85273" fill="white"/>
<circle cx="578.282" cy="181.752" r="3.85273" fill="white"/>
<circle cx="597.546" cy="185.606" r="3.85273" fill="white"/>
<defs>
<filter id="filter0_d_2456_14922" x="102.904" y="13" width="328.668" height="195.833" filterUnits="userSpaceOnUse" color-interpolation-filters="sRGB">
<feFlood flood-opacity="0" result="BackgroundImageFix"/>
<feColorMatrix in="SourceAlpha" type="matrix" values="0 0 0 0 0 0 0 0 0 0 0 0 0 0 0 0 0 0 127 0" result="hardAlpha"/>
<feOffset dy="2"/>
<feGaussianBlur stdDeviation="6"/>
<feComposite in2="hardAlpha" operator="out"/>
<feColorMatrix type="matrix" values="0 0 0 0 0 0 0 0 0 0 0 0 0 0 0 0 0 0 0.12 0"/>
<feBlend mode="normal" in2="BackgroundImageFix" result="effect1_dropShadow_2456_14922"/>
<feBlend mode="normal" in="SourceGraphic" in2="effect1_dropShadow_2456_14922" result="shape"/>
</filter>
<filter id="filter1_d_2456_14922" x="20" y="196" width="398" height="245" filterUnits="userSpaceOnUse" color-interpolation-filters="sRGB">
<feFlood flood-opacity="0" result="BackgroundImageFix"/>
<feColorMatrix in="SourceAlpha" type="matrix" values="0 0 0 0 0 0 0 0 0 0 0 0 0 0 0 0 0 0 127 0" result="hardAlpha"/>
<feOffset dy="2"/>
<feGaussianBlur stdDeviation="6"/>
<feComposite in2="hardAlpha" operator="out"/>
<feColorMatrix type="matrix" values="0 0 0 0 0 0 0 0 0 0 0 0 0 0 0 0 0 0 0.12 0"/>
<feBlend mode="normal" in2="BackgroundImageFix" result="effect1_dropShadow_2456_14922"/>
<feBlend mode="normal" in="SourceGraphic" in2="effect1_dropShadow_2456_14922" result="shape"/>
</filter>
<filter id="filter2_d_2456_14922" x="365.793" y="112.108" width="288.207" height="205.373" filterUnits="userSpaceOnUse" color-interpolation-filters="sRGB">
<feFlood flood-opacity="0" result="BackgroundImageFix"/>
<feColorMatrix in="SourceAlpha" type="matrix" values="0 0 0 0 0 0 0 0 0 0 0 0 0 0 0 0 0 0 127 0" result="hardAlpha"/>
<feOffset dy="8"/>
<feGaussianBlur stdDeviation="8"/>
<feColorMatrix type="matrix" values="0 0 0 0 0.760784 0 0 0 0 0.8 0 0 0 0 0.843137 0 0 0 0.3 0"/>
<feBlend mode="normal" in2="BackgroundImageFix" result="effect1_dropShadow_2456_14922"/>
<feBlend mode="normal" in="SourceGraphic" in2="effect1_dropShadow_2456_14922" result="shape"/>
</filter>
</defs>
</svg>
