<svg width="670" height="450" viewBox="0 0 670 450" fill="none" xmlns="http://www.w3.org/2000/svg">
<g filter="url(#filter0_d_2455_14806)">
<rect x="114.904" y="23" width="304.668" height="171.833" rx="12" fill="white"/>
</g>
<circle cx="267.239" cy="108.308" r="57.2776" fill="#E5F0E2"/>
<path d="M266.869 51.0293V108.676H209.962C209.961 108.552 209.961 108.429 209.961 108.306C209.961 76.7953 235.406 51.2278 266.869 51.0293Z" fill="#436C38"/>
<g filter="url(#filter1_d_2455_14806)">
<rect x="32" y="206" width="374" height="221" rx="12" fill="white"/>
</g>
<path d="M86.5312 238.276C86.4555 237.603 86.143 237.082 85.5938 236.713C85.0445 236.339 84.3532 236.152 83.5199 236.152C82.9233 236.152 82.4072 236.247 81.9716 236.436C81.536 236.621 81.1974 236.876 80.956 237.203C80.7192 237.525 80.6009 237.892 80.6009 238.304C80.6009 238.65 80.6813 238.948 80.8423 239.199C81.008 239.45 81.2235 239.661 81.4886 239.831C81.7585 239.997 82.0473 240.136 82.3551 240.25C82.6629 240.359 82.9588 240.449 83.2429 240.52L84.6634 240.889C85.1274 241.003 85.6032 241.157 86.0909 241.351C86.5786 241.545 87.0308 241.801 87.4474 242.118C87.8641 242.435 88.2003 242.828 88.456 243.297C88.7164 243.766 88.8466 244.327 88.8466 244.98C88.8466 245.804 88.6335 246.536 88.2074 247.175C87.786 247.814 87.1728 248.318 86.3679 248.688C85.5677 249.057 84.5994 249.241 83.4631 249.241C82.3741 249.241 81.4318 249.069 80.6364 248.723C79.8409 248.377 79.2183 247.887 78.7685 247.253C78.3187 246.614 78.0701 245.856 78.0227 244.98H80.2244C80.267 245.506 80.4375 245.944 80.7358 246.294C81.0388 246.64 81.4247 246.898 81.8935 247.068C82.367 247.234 82.8854 247.317 83.4489 247.317C84.0691 247.317 84.6207 247.22 85.1037 247.026C85.5914 246.827 85.9749 246.552 86.2543 246.202C86.5336 245.847 86.6733 245.432 86.6733 244.959C86.6733 244.528 86.5502 244.175 86.304 243.901C86.0625 243.626 85.7334 243.399 85.3168 243.219C84.9048 243.039 84.4384 242.88 83.9176 242.743L82.1989 242.274C81.0341 241.957 80.1108 241.491 79.429 240.875C78.7519 240.259 78.4134 239.445 78.4134 238.432C78.4134 237.594 78.6406 236.862 79.0952 236.237C79.5497 235.612 80.1652 235.127 80.9418 234.781C81.7183 234.431 82.5942 234.256 83.5696 234.256C84.5545 234.256 85.4233 234.429 86.1761 234.774C86.9337 235.12 87.5303 235.596 87.9659 236.202C88.4015 236.803 88.6288 237.494 88.6477 238.276H86.5312ZM94.4734 249.241C93.7821 249.241 93.1571 249.114 92.5984 248.858C92.0397 248.598 91.5969 248.221 91.2702 247.729C90.9483 247.236 90.7873 246.633 90.7873 245.918C90.7873 245.302 90.9057 244.795 91.1424 244.398C91.3791 244 91.6987 243.685 92.1012 243.453C92.5037 243.221 92.9535 243.046 93.4506 242.928C93.9478 242.809 94.4544 242.719 94.9705 242.658C95.6239 242.582 96.1542 242.52 96.5614 242.473C96.9686 242.421 97.2646 242.338 97.4492 242.224C97.6339 242.111 97.7262 241.926 97.7262 241.67V241.621C97.7262 241 97.551 240.52 97.2006 240.179C96.855 239.838 96.3389 239.668 95.6523 239.668C94.9374 239.668 94.3739 239.826 93.962 240.143C93.5548 240.456 93.2731 240.804 93.1168 241.188L91.1211 240.733C91.3578 240.07 91.7035 239.535 92.158 239.128C92.6173 238.716 93.1452 238.418 93.7418 238.233C94.3384 238.044 94.9658 237.949 95.6239 237.949C96.0595 237.949 96.5212 238.001 97.0089 238.105C97.5013 238.205 97.9606 238.389 98.3867 238.659C98.8176 238.929 99.1703 239.315 99.445 239.817C99.7196 240.314 99.8569 240.96 99.8569 241.756V249H97.783V247.509H97.6978C97.5605 247.783 97.3545 248.053 97.0799 248.318C96.8053 248.583 96.4525 248.804 96.0217 248.979C95.5908 249.154 95.0747 249.241 94.4734 249.241ZM94.935 247.537C95.5221 247.537 96.024 247.421 96.4407 247.189C96.8621 246.957 97.1817 246.654 97.3995 246.28C97.622 245.901 97.7333 245.496 97.7333 245.065V243.659C97.6576 243.735 97.5108 243.806 97.293 243.872C97.0799 243.934 96.8361 243.988 96.5614 244.036C96.2868 244.078 96.0193 244.118 95.7589 244.156C95.4985 244.189 95.2807 244.218 95.1055 244.241C94.6935 244.294 94.3171 244.381 93.9762 244.504C93.64 244.627 93.3701 244.805 93.1665 245.037C92.9677 245.264 92.8683 245.567 92.8683 245.946C92.8683 246.472 93.0624 246.869 93.4506 247.139C93.8389 247.404 94.3337 247.537 94.935 247.537ZM104.809 234.455V249H102.685V234.455H104.809ZM112.368 249.22C111.293 249.22 110.367 248.991 109.591 248.531C108.819 248.067 108.222 247.416 107.801 246.578C107.384 245.735 107.176 244.748 107.176 243.616C107.176 242.499 107.384 241.514 107.801 240.662C108.222 239.81 108.809 239.144 109.562 238.666C110.32 238.188 111.205 237.949 112.218 237.949C112.834 237.949 113.431 238.051 114.008 238.254C114.586 238.458 115.104 238.777 115.564 239.213C116.023 239.649 116.385 240.214 116.65 240.911C116.915 241.602 117.048 242.442 117.048 243.432V244.185H108.376V242.594H114.967C114.967 242.035 114.853 241.54 114.626 241.109C114.399 240.674 114.079 240.33 113.667 240.08C113.26 239.829 112.782 239.703 112.233 239.703C111.636 239.703 111.115 239.85 110.67 240.143C110.23 240.432 109.889 240.811 109.647 241.28C109.411 241.744 109.292 242.248 109.292 242.793V244.036C109.292 244.765 109.42 245.385 109.676 245.896C109.936 246.408 110.298 246.798 110.762 247.068C111.226 247.333 111.769 247.466 112.389 247.466C112.791 247.466 113.158 247.409 113.49 247.295C113.821 247.177 114.108 247.002 114.349 246.77C114.591 246.538 114.775 246.251 114.903 245.911L116.913 246.273C116.752 246.865 116.463 247.383 116.047 247.828C115.635 248.268 115.116 248.612 114.491 248.858C113.871 249.099 113.163 249.22 112.368 249.22ZM127.579 240.754L125.654 241.095C125.574 240.849 125.446 240.615 125.271 240.392C125.1 240.17 124.868 239.987 124.575 239.845C124.281 239.703 123.914 239.632 123.474 239.632C122.872 239.632 122.371 239.767 121.968 240.037C121.566 240.302 121.364 240.645 121.364 241.067C121.364 241.431 121.499 241.725 121.769 241.947C122.039 242.17 122.475 242.352 123.076 242.494L124.809 242.892C125.813 243.124 126.561 243.482 127.053 243.964C127.546 244.447 127.792 245.075 127.792 245.847C127.792 246.5 127.603 247.082 127.224 247.594C126.85 248.1 126.326 248.498 125.654 248.787C124.987 249.076 124.212 249.22 123.332 249.22C122.11 249.22 121.113 248.96 120.342 248.439C119.57 247.913 119.096 247.168 118.921 246.202L120.974 245.889C121.102 246.424 121.364 246.829 121.762 247.104C122.16 247.374 122.678 247.509 123.317 247.509C124.013 247.509 124.57 247.364 124.987 247.075C125.403 246.782 125.612 246.424 125.612 246.003C125.612 245.662 125.484 245.375 125.228 245.143C124.977 244.911 124.591 244.736 124.07 244.618L122.224 244.213C121.206 243.981 120.453 243.612 119.965 243.105C119.482 242.598 119.241 241.957 119.241 241.18C119.241 240.536 119.421 239.973 119.781 239.49C120.14 239.007 120.638 238.631 121.272 238.361C121.906 238.086 122.633 237.949 123.452 237.949C124.631 237.949 125.559 238.205 126.237 238.716C126.914 239.223 127.361 239.902 127.579 240.754ZM135.59 249V234.455H137.714V239.859H137.842C137.965 239.632 138.142 239.369 138.374 239.071C138.606 238.773 138.928 238.512 139.34 238.29C139.752 238.062 140.297 237.949 140.974 237.949C141.854 237.949 142.64 238.171 143.332 238.616C144.023 239.062 144.565 239.703 144.958 240.541C145.356 241.379 145.555 242.388 145.555 243.567C145.555 244.746 145.358 245.757 144.965 246.599C144.572 247.437 144.032 248.084 143.346 248.538C142.659 248.988 141.876 249.213 140.995 249.213C140.332 249.213 139.79 249.102 139.369 248.879C138.952 248.657 138.625 248.396 138.388 248.098C138.152 247.8 137.969 247.535 137.842 247.303H137.664V249H135.59ZM137.671 243.545C137.671 244.312 137.782 244.985 138.005 245.562C138.228 246.14 138.549 246.592 138.971 246.919C139.392 247.241 139.908 247.402 140.519 247.402C141.154 247.402 141.684 247.234 142.11 246.898C142.536 246.557 142.858 246.095 143.076 245.513C143.299 244.93 143.41 244.275 143.41 243.545C143.41 242.826 143.301 242.179 143.083 241.607C142.87 241.034 142.548 240.581 142.117 240.25C141.691 239.919 141.158 239.753 140.519 239.753C139.904 239.753 139.383 239.911 138.957 240.229C138.535 240.546 138.216 240.989 137.998 241.557C137.78 242.125 137.671 242.788 137.671 243.545ZM148.911 253.091C148.593 253.091 148.304 253.065 148.044 253.013C147.784 252.965 147.589 252.913 147.462 252.857L147.973 251.116C148.361 251.221 148.707 251.266 149.01 251.251C149.313 251.237 149.58 251.124 149.812 250.911C150.049 250.697 150.258 250.349 150.438 249.866L150.7 249.142L146.709 238.091H148.982L151.744 246.557H151.858L154.621 238.091H156.901L152.405 250.456C152.196 251.024 151.931 251.505 151.609 251.898C151.287 252.295 150.904 252.594 150.459 252.793C150.014 252.991 149.498 253.091 148.911 253.091ZM166.313 242.523V249H164.189V234.455H166.284V239.866H166.419C166.675 239.279 167.066 238.813 167.591 238.467C168.117 238.122 168.803 237.949 169.651 237.949C170.399 237.949 171.052 238.103 171.611 238.411C172.175 238.718 172.61 239.178 172.918 239.788C173.23 240.394 173.387 241.152 173.387 242.061V249H171.263V242.317C171.263 241.517 171.057 240.896 170.645 240.456C170.233 240.011 169.66 239.788 168.926 239.788C168.425 239.788 167.975 239.895 167.577 240.108C167.184 240.321 166.874 240.634 166.647 241.045C166.424 241.453 166.313 241.945 166.313 242.523ZM180.816 249.22C179.793 249.22 178.9 248.986 178.138 248.517C177.376 248.048 176.784 247.393 176.363 246.55C175.941 245.707 175.73 244.722 175.73 243.595C175.73 242.464 175.941 241.474 176.363 240.626C176.784 239.779 177.376 239.121 178.138 238.652C178.9 238.183 179.793 237.949 180.816 237.949C181.838 237.949 182.731 238.183 183.493 238.652C184.256 239.121 184.847 239.779 185.269 240.626C185.69 241.474 185.901 242.464 185.901 243.595C185.901 244.722 185.69 245.707 185.269 246.55C184.847 247.393 184.256 248.048 183.493 248.517C182.731 248.986 181.838 249.22 180.816 249.22ZM180.823 247.438C181.486 247.438 182.035 247.262 182.471 246.912C182.906 246.562 183.228 246.095 183.436 245.513C183.65 244.93 183.756 244.289 183.756 243.588C183.756 242.892 183.65 242.253 183.436 241.67C183.228 241.083 182.906 240.612 182.471 240.257C182.035 239.902 181.486 239.724 180.823 239.724C180.155 239.724 179.601 239.902 179.161 240.257C178.725 240.612 178.401 241.083 178.188 241.67C177.98 242.253 177.875 242.892 177.875 243.588C177.875 244.289 177.98 244.93 178.188 245.513C178.401 246.095 178.725 246.562 179.161 246.912C179.601 247.262 180.155 247.438 180.823 247.438ZM190.395 234.455V249H188.271V234.455H190.395ZM193.252 249V238.091H195.375V249H193.252ZM194.324 236.408C193.955 236.408 193.638 236.285 193.373 236.038C193.112 235.787 192.982 235.489 192.982 235.143C192.982 234.793 193.112 234.495 193.373 234.249C193.638 233.998 193.955 233.872 194.324 233.872C194.694 233.872 195.008 233.998 195.269 234.249C195.534 234.495 195.667 234.793 195.667 235.143C195.667 235.489 195.534 235.787 195.269 236.038C195.008 236.285 194.694 236.408 194.324 236.408ZM202.316 249.213C201.435 249.213 200.649 248.988 199.958 248.538C199.272 248.084 198.732 247.437 198.339 246.599C197.951 245.757 197.756 244.746 197.756 243.567C197.756 242.388 197.953 241.379 198.346 240.541C198.744 239.703 199.288 239.062 199.979 238.616C200.671 238.171 201.454 237.949 202.33 237.949C203.007 237.949 203.552 238.062 203.964 238.29C204.38 238.512 204.702 238.773 204.93 239.071C205.162 239.369 205.342 239.632 205.469 239.859H205.597V234.455H207.721V249H205.647V247.303H205.469C205.342 247.535 205.157 247.8 204.915 248.098C204.679 248.396 204.352 248.657 203.935 248.879C203.519 249.102 202.979 249.213 202.316 249.213ZM202.785 247.402C203.396 247.402 203.912 247.241 204.333 246.919C204.759 246.592 205.081 246.14 205.299 245.562C205.522 244.985 205.633 244.312 205.633 243.545C205.633 242.788 205.524 242.125 205.306 241.557C205.088 240.989 204.769 240.546 204.347 240.229C203.926 239.911 203.405 239.753 202.785 239.753C202.146 239.753 201.613 239.919 201.187 240.25C200.761 240.581 200.439 241.034 200.221 241.607C200.008 242.179 199.901 242.826 199.901 243.545C199.901 244.275 200.01 244.93 200.228 245.513C200.446 246.095 200.768 246.557 201.194 246.898C201.625 247.234 202.155 247.402 202.785 247.402ZM213.926 249.241C213.235 249.241 212.61 249.114 212.051 248.858C211.493 248.598 211.05 248.221 210.723 247.729C210.401 247.236 210.24 246.633 210.24 245.918C210.24 245.302 210.359 244.795 210.596 244.398C210.832 244 211.152 243.685 211.554 243.453C211.957 243.221 212.407 243.046 212.904 242.928C213.401 242.809 213.908 242.719 214.424 242.658C215.077 242.582 215.607 242.52 216.015 242.473C216.422 242.421 216.718 242.338 216.902 242.224C217.087 242.111 217.179 241.926 217.179 241.67V241.621C217.179 241 217.004 240.52 216.654 240.179C216.308 239.838 215.792 239.668 215.105 239.668C214.391 239.668 213.827 239.826 213.415 240.143C213.008 240.456 212.726 240.804 212.57 241.188L210.574 240.733C210.811 240.07 211.157 239.535 211.611 239.128C212.07 238.716 212.598 238.418 213.195 238.233C213.792 238.044 214.419 237.949 215.077 237.949C215.513 237.949 215.974 238.001 216.462 238.105C216.954 238.205 217.414 238.389 217.84 238.659C218.271 238.929 218.623 239.315 218.898 239.817C219.173 240.314 219.31 240.96 219.31 241.756V249H217.236V247.509H217.151C217.014 247.783 216.808 248.053 216.533 248.318C216.258 248.583 215.906 248.804 215.475 248.979C215.044 249.154 214.528 249.241 213.926 249.241ZM214.388 247.537C214.975 247.537 215.477 247.421 215.894 247.189C216.315 246.957 216.635 246.654 216.853 246.28C217.075 245.901 217.186 245.496 217.186 245.065V243.659C217.111 243.735 216.964 243.806 216.746 243.872C216.533 243.934 216.289 243.988 216.015 244.036C215.74 244.078 215.472 244.118 215.212 244.156C214.952 244.189 214.734 244.218 214.559 244.241C214.147 244.294 213.77 244.381 213.429 244.504C213.093 244.627 212.823 244.805 212.62 245.037C212.421 245.264 212.321 245.567 212.321 245.946C212.321 246.472 212.516 246.869 212.904 247.139C213.292 247.404 213.787 247.537 214.388 247.537ZM223.09 253.091C222.773 253.091 222.484 253.065 222.224 253.013C221.963 252.965 221.769 252.913 221.641 252.857L222.153 251.116C222.541 251.221 222.887 251.266 223.19 251.251C223.493 251.237 223.76 251.124 223.992 250.911C224.229 250.697 224.437 250.349 224.617 249.866L224.88 249.142L220.888 238.091H223.161L225.924 246.557H226.038L228.8 238.091H231.08L226.585 250.456C226.376 251.024 226.111 251.505 225.789 251.898C225.467 252.295 225.084 252.594 224.638 252.793C224.193 252.991 223.677 253.091 223.09 253.091ZM241.251 240.754L239.326 241.095C239.246 240.849 239.118 240.615 238.942 240.392C238.772 240.17 238.54 239.987 238.246 239.845C237.953 239.703 237.586 239.632 237.146 239.632C236.544 239.632 236.042 239.767 235.64 240.037C235.237 240.302 235.036 240.645 235.036 241.067C235.036 241.431 235.171 241.725 235.441 241.947C235.711 242.17 236.147 242.352 236.748 242.494L238.481 242.892C239.485 243.124 240.233 243.482 240.725 243.964C241.218 244.447 241.464 245.075 241.464 245.847C241.464 246.5 241.274 247.082 240.896 247.594C240.522 248.1 239.998 248.498 239.326 248.787C238.658 249.076 237.884 249.22 237.004 249.22C235.782 249.22 234.785 248.96 234.013 248.439C233.242 247.913 232.768 247.168 232.593 246.202L234.646 245.889C234.773 246.424 235.036 246.829 235.434 247.104C235.832 247.374 236.35 247.509 236.989 247.509C237.685 247.509 238.242 247.364 238.658 247.075C239.075 246.782 239.283 246.424 239.283 246.003C239.283 245.662 239.156 245.375 238.9 245.143C238.649 244.911 238.263 244.736 237.742 244.618L235.896 244.213C234.878 243.981 234.125 243.612 233.637 243.105C233.154 242.598 232.913 241.957 232.913 241.18C232.913 240.536 233.093 239.973 233.452 239.49C233.812 239.007 234.309 238.631 234.944 238.361C235.578 238.086 236.305 237.949 237.124 237.949C238.303 237.949 239.231 238.205 239.908 238.716C240.585 239.223 241.033 239.902 241.251 240.754Z" fill="black"/>
<rect x="77" y="275" width="282" height="32" rx="4" fill="#E5F0E2"/>
<path d="M101.119 289H99.5341C99.4403 288.544 99.2763 288.143 99.0419 287.798C98.8118 287.453 98.5305 287.163 98.1982 286.929C97.87 286.69 97.5057 286.511 97.1051 286.392C96.7045 286.273 96.2869 286.213 95.8523 286.213C95.0597 286.213 94.3416 286.413 93.6982 286.814C93.0589 287.214 92.5497 287.805 92.1705 288.585C91.7955 289.364 91.608 290.321 91.608 291.455C91.608 292.588 91.7955 293.545 92.1705 294.325C92.5497 295.104 93.0589 295.695 93.6982 296.095C94.3416 296.496 95.0597 296.696 95.8523 296.696C96.2869 296.696 96.7045 296.636 97.1051 296.517C97.5057 296.398 97.87 296.221 98.1982 295.987C98.5305 295.748 98.8118 295.456 99.0419 295.111C99.2763 294.761 99.4403 294.361 99.5341 293.909H101.119C101 294.578 100.783 295.177 100.467 295.705C100.152 296.234 99.7599 296.683 99.2912 297.054C98.8224 297.42 98.2962 297.7 97.7124 297.891C97.1328 298.083 96.5128 298.179 95.8523 298.179C94.7358 298.179 93.7429 297.906 92.8736 297.361C92.0043 296.815 91.3203 296.04 90.8217 295.034C90.3232 294.028 90.0739 292.835 90.0739 291.455C90.0739 290.074 90.3232 288.881 90.8217 287.875C91.3203 286.869 92.0043 286.094 92.8736 285.548C93.7429 285.003 94.7358 284.73 95.8523 284.73C96.5128 284.73 97.1328 284.826 97.7124 285.018C98.2962 285.21 98.8224 285.491 99.2912 285.862C99.7599 286.228 100.152 286.675 100.467 287.204C100.783 287.728 101 288.327 101.119 289ZM104.985 292.094V298H103.476V284.909H104.985V289.716H105.113C105.343 289.209 105.688 288.806 106.148 288.508C106.613 288.205 107.231 288.054 108.002 288.054C108.671 288.054 109.257 288.188 109.76 288.457C110.263 288.721 110.653 289.128 110.93 289.678C111.211 290.223 111.351 290.918 111.351 291.761V298H109.843V291.864C109.843 291.084 109.64 290.481 109.236 290.055C108.835 289.624 108.279 289.409 107.567 289.409C107.073 289.409 106.63 289.513 106.238 289.722C105.85 289.931 105.543 290.236 105.317 290.636C105.096 291.037 104.985 291.523 104.985 292.094ZM114.111 298V288.182H115.569V289.665H115.671C115.85 289.179 116.174 288.785 116.642 288.482C117.111 288.18 117.64 288.028 118.228 288.028C118.338 288.028 118.477 288.031 118.643 288.035C118.809 288.039 118.935 288.045 119.02 288.054V289.588C118.969 289.575 118.852 289.556 118.669 289.531C118.49 289.501 118.3 289.486 118.1 289.486C117.623 289.486 117.196 289.586 116.821 289.786C116.451 289.982 116.157 290.255 115.939 290.604C115.726 290.95 115.62 291.344 115.62 291.787V298H114.111ZM120.808 298V288.182H122.317V298H120.808ZM121.575 286.545C121.281 286.545 121.028 286.445 120.815 286.245C120.606 286.045 120.502 285.804 120.502 285.523C120.502 285.241 120.606 285.001 120.815 284.8C121.028 284.6 121.281 284.5 121.575 284.5C121.869 284.5 122.121 284.6 122.33 284.8C122.543 285.001 122.649 285.241 122.649 285.523C122.649 285.804 122.543 286.045 122.33 286.245C122.121 286.445 121.869 286.545 121.575 286.545ZM132.034 290.381L130.679 290.764C130.594 290.538 130.468 290.319 130.302 290.106C130.14 289.888 129.919 289.71 129.637 289.569C129.356 289.428 128.996 289.358 128.557 289.358C127.956 289.358 127.456 289.496 127.055 289.773C126.659 290.046 126.461 290.393 126.461 290.815C126.461 291.19 126.597 291.487 126.87 291.704C127.142 291.921 127.569 292.102 128.148 292.247L129.605 292.605C130.483 292.818 131.137 293.144 131.568 293.583C131.998 294.018 132.213 294.578 132.213 295.264C132.213 295.827 132.051 296.33 131.728 296.773C131.408 297.216 130.961 297.565 130.385 297.821C129.81 298.077 129.141 298.205 128.378 298.205C127.377 298.205 126.548 297.987 125.892 297.553C125.235 297.118 124.82 296.483 124.645 295.648L126.077 295.29C126.213 295.818 126.471 296.214 126.85 296.479C127.234 296.743 127.735 296.875 128.353 296.875C129.056 296.875 129.614 296.726 130.027 296.428C130.445 296.125 130.654 295.763 130.654 295.341C130.654 295 130.534 294.714 130.296 294.484C130.057 294.25 129.691 294.075 129.196 293.96L127.56 293.577C126.661 293.364 126 293.033 125.578 292.586C125.161 292.134 124.952 291.57 124.952 290.892C124.952 290.338 125.108 289.848 125.419 289.422C125.734 288.996 126.162 288.661 126.703 288.418C127.249 288.175 127.867 288.054 128.557 288.054C129.529 288.054 130.292 288.267 130.846 288.693C131.404 289.119 131.8 289.682 132.034 290.381ZM138.754 288.182V289.46H133.666V288.182H138.754ZM135.149 285.83H136.657V295.188C136.657 295.614 136.719 295.933 136.843 296.146C136.971 296.355 137.133 296.496 137.329 296.568C137.529 296.636 137.74 296.67 137.961 296.67C138.128 296.67 138.264 296.662 138.371 296.645C138.477 296.624 138.562 296.607 138.626 296.594L138.933 297.949C138.831 297.987 138.688 298.026 138.505 298.064C138.322 298.107 138.089 298.128 137.808 298.128C137.382 298.128 136.964 298.036 136.555 297.853C136.15 297.67 135.814 297.391 135.545 297.016C135.281 296.641 135.149 296.168 135.149 295.597V285.83ZM141.023 298V288.182H142.481V289.716H142.608C142.813 289.192 143.143 288.785 143.599 288.495C144.055 288.201 144.603 288.054 145.242 288.054C145.89 288.054 146.429 288.201 146.859 288.495C147.294 288.785 147.633 289.192 147.876 289.716H147.978C148.229 289.209 148.606 288.806 149.109 288.508C149.612 288.205 150.215 288.054 150.918 288.054C151.796 288.054 152.514 288.329 153.072 288.879C153.631 289.424 153.91 290.274 153.91 291.429V298H152.401V291.429C152.401 290.705 152.203 290.187 151.807 289.876C151.41 289.565 150.944 289.409 150.407 289.409C149.716 289.409 149.182 289.618 148.802 290.036C148.423 290.449 148.233 290.973 148.233 291.608V298H146.699V291.276C146.699 290.717 146.518 290.268 146.156 289.927C145.794 289.582 145.327 289.409 144.756 289.409C144.364 289.409 143.998 289.513 143.657 289.722C143.32 289.931 143.047 290.221 142.839 290.592C142.634 290.958 142.532 291.382 142.532 291.864V298H141.023ZM159.557 298.23C158.935 298.23 158.37 298.113 157.863 297.879C157.356 297.64 156.953 297.297 156.655 296.849C156.357 296.398 156.208 295.852 156.208 295.213C156.208 294.651 156.318 294.195 156.54 293.845C156.762 293.491 157.058 293.214 157.428 293.014C157.799 292.814 158.208 292.665 158.656 292.567C159.107 292.464 159.561 292.384 160.017 292.324C160.614 292.247 161.097 292.19 161.468 292.151C161.843 292.109 162.116 292.038 162.286 291.94C162.461 291.842 162.548 291.672 162.548 291.429V291.378C162.548 290.747 162.376 290.257 162.031 289.908C161.69 289.558 161.172 289.384 160.477 289.384C159.757 289.384 159.193 289.541 158.784 289.857C158.374 290.172 158.087 290.509 157.921 290.866L156.489 290.355C156.744 289.759 157.085 289.294 157.512 288.962C157.942 288.625 158.411 288.391 158.918 288.259C159.429 288.122 159.932 288.054 160.426 288.054C160.742 288.054 161.104 288.092 161.513 288.169C161.926 288.241 162.325 288.393 162.708 288.623C163.096 288.853 163.418 289.2 163.673 289.665C163.929 290.129 164.057 290.751 164.057 291.531V298H162.548V296.67H162.472C162.369 296.884 162.199 297.112 161.96 297.354C161.722 297.597 161.404 297.804 161.008 297.974C160.612 298.145 160.128 298.23 159.557 298.23ZM159.787 296.875C160.384 296.875 160.887 296.758 161.296 296.523C161.709 296.289 162.02 295.987 162.229 295.616C162.442 295.245 162.548 294.855 162.548 294.446V293.065C162.485 293.142 162.344 293.212 162.127 293.276C161.914 293.336 161.666 293.389 161.385 293.436C161.108 293.479 160.838 293.517 160.573 293.551C160.313 293.581 160.102 293.607 159.941 293.628C159.548 293.679 159.182 293.762 158.841 293.877C158.504 293.988 158.232 294.156 158.023 294.382C157.818 294.604 157.716 294.906 157.716 295.29C157.716 295.814 157.91 296.21 158.298 296.479C158.69 296.743 159.186 296.875 159.787 296.875ZM173.765 290.381L172.41 290.764C172.325 290.538 172.199 290.319 172.033 290.106C171.871 289.888 171.649 289.71 171.368 289.569C171.087 289.428 170.727 289.358 170.288 289.358C169.687 289.358 169.186 289.496 168.786 289.773C168.389 290.046 168.191 290.393 168.191 290.815C168.191 291.19 168.327 291.487 168.6 291.704C168.873 291.921 169.299 292.102 169.879 292.247L171.336 292.605C172.214 292.818 172.868 293.144 173.298 293.583C173.729 294.018 173.944 294.578 173.944 295.264C173.944 295.827 173.782 296.33 173.458 296.773C173.138 297.216 172.691 297.565 172.116 297.821C171.54 298.077 170.871 298.205 170.109 298.205C169.107 298.205 168.278 297.987 167.622 297.553C166.966 297.118 166.55 296.483 166.376 295.648L167.808 295.29C167.944 295.818 168.202 296.214 168.581 296.479C168.964 296.743 169.465 296.875 170.083 296.875C170.786 296.875 171.344 296.726 171.758 296.428C172.175 296.125 172.384 295.763 172.384 295.341C172.384 295 172.265 294.714 172.026 294.484C171.788 294.25 171.421 294.075 170.927 293.96L169.29 293.577C168.391 293.364 167.731 293.033 167.309 292.586C166.891 292.134 166.683 291.57 166.683 290.892C166.683 290.338 166.838 289.848 167.149 289.422C167.464 288.996 167.893 288.661 168.434 288.418C168.979 288.175 169.597 288.054 170.288 288.054C171.259 288.054 172.022 288.267 172.576 288.693C173.134 289.119 173.531 289.682 173.765 290.381Z" fill="#38386C"/>
<path d="M303.214 298V296.849L307.536 292.119C308.043 291.565 308.46 291.084 308.788 290.675C309.116 290.261 309.359 289.874 309.517 289.511C309.679 289.145 309.76 288.761 309.76 288.361C309.76 287.901 309.649 287.502 309.428 287.165C309.21 286.829 308.912 286.569 308.533 286.386C308.153 286.202 307.727 286.111 307.254 286.111C306.751 286.111 306.312 286.215 305.938 286.424C305.567 286.629 305.279 286.916 305.075 287.287C304.874 287.658 304.774 288.092 304.774 288.591H303.266C303.266 287.824 303.442 287.151 303.796 286.571C304.15 285.991 304.631 285.54 305.241 285.216C305.854 284.892 306.543 284.73 307.305 284.73C308.072 284.73 308.752 284.892 309.344 285.216C309.937 285.54 310.401 285.977 310.738 286.526C311.075 287.076 311.243 287.688 311.243 288.361C311.243 288.842 311.156 289.313 310.981 289.773C310.81 290.229 310.512 290.739 310.086 291.301C309.664 291.859 309.078 292.541 308.328 293.347L305.388 296.491V296.594H311.473V298H303.214ZM318.383 298.179C317.42 298.179 316.599 297.917 315.922 297.393C315.244 296.864 314.727 296.099 314.369 295.098C314.011 294.092 313.832 292.878 313.832 291.455C313.832 290.04 314.011 288.832 314.369 287.83C314.731 286.825 315.251 286.058 315.928 285.529C316.61 284.996 317.428 284.73 318.383 284.73C319.337 284.73 320.153 284.996 320.831 285.529C321.513 286.058 322.033 286.825 322.391 287.83C322.753 288.832 322.934 290.04 322.934 291.455C322.934 292.878 322.755 294.092 322.397 295.098C322.039 296.099 321.521 296.864 320.844 297.393C320.166 297.917 319.346 298.179 318.383 298.179ZM318.383 296.773C319.337 296.773 320.079 296.312 320.607 295.392C321.136 294.472 321.4 293.159 321.4 291.455C321.4 290.321 321.278 289.356 321.036 288.559C320.797 287.762 320.452 287.155 320 286.737C319.553 286.32 319.013 286.111 318.383 286.111C317.437 286.111 316.697 286.577 316.165 287.511C315.632 288.44 315.366 289.754 315.366 291.455C315.366 292.588 315.485 293.551 315.724 294.344C315.962 295.136 316.305 295.739 316.753 296.153C317.205 296.566 317.748 296.773 318.383 296.773ZM329.633 298.179C328.67 298.179 327.849 297.917 327.172 297.393C326.494 296.864 325.977 296.099 325.619 295.098C325.261 294.092 325.082 292.878 325.082 291.455C325.082 290.04 325.261 288.832 325.619 287.83C325.981 286.825 326.501 286.058 327.178 285.529C327.86 284.996 328.678 284.73 329.633 284.73C330.587 284.73 331.403 284.996 332.081 285.529C332.763 286.058 333.283 286.825 333.641 287.83C334.003 288.832 334.184 290.04 334.184 291.455C334.184 292.878 334.005 294.092 333.647 295.098C333.289 296.099 332.771 296.864 332.094 297.393C331.416 297.917 330.596 298.179 329.633 298.179ZM329.633 296.773C330.587 296.773 331.329 296.312 331.857 295.392C332.386 294.472 332.65 293.159 332.65 291.455C332.65 290.321 332.528 289.356 332.286 288.559C332.047 287.762 331.702 287.155 331.25 286.737C330.803 286.32 330.263 286.111 329.633 286.111C328.687 286.111 327.947 286.577 327.415 287.511C326.882 288.44 326.616 289.754 326.616 291.455C326.616 292.588 326.735 293.551 326.974 294.344C327.212 295.136 327.555 295.739 328.003 296.153C328.455 296.566 328.998 296.773 329.633 296.773ZM336.843 298V284.909H338.428V291.403H338.582L344.462 284.909H346.533L341.036 290.815L346.533 298H344.616L340.065 291.915L338.428 293.756V298H336.843Z" fill="#38386C"/>
<rect x="77" y="319" width="236" height="32" rx="4" fill="#E5F0E2"/>
<path d="M90.5852 342V328.909H95.1619C96.0739 328.909 96.826 329.067 97.4183 329.382C98.0107 329.693 98.4517 330.113 98.7415 330.641C99.0313 331.165 99.1761 331.747 99.1761 332.386C99.1761 332.949 99.076 333.413 98.8757 333.78C98.6797 334.146 98.4197 334.436 98.0959 334.649C97.7763 334.862 97.429 335.02 97.054 335.122V335.25C97.4545 335.276 97.8572 335.416 98.2621 335.672C98.6669 335.928 99.0057 336.294 99.2784 336.771C99.5511 337.249 99.6875 337.832 99.6875 338.523C99.6875 339.179 99.5384 339.769 99.2401 340.293C98.9418 340.817 98.4709 341.233 97.8274 341.54C97.1839 341.847 96.3466 342 95.3153 342H90.5852ZM92.1705 340.594H95.3153C96.3509 340.594 97.0859 340.393 97.5206 339.993C97.9595 339.588 98.179 339.098 98.179 338.523C98.179 338.08 98.0661 337.67 97.8402 337.295C97.6143 336.916 97.2926 336.614 96.875 336.388C96.4574 336.158 95.9631 336.043 95.392 336.043H92.1705V340.594ZM92.1705 334.662H95.1108C95.5881 334.662 96.0185 334.568 96.402 334.381C96.7898 334.193 97.0966 333.929 97.3224 333.588C97.5526 333.247 97.6676 332.847 97.6676 332.386C97.6676 331.811 97.4673 331.323 97.0668 330.923C96.6662 330.518 96.0313 330.315 95.1619 330.315H92.1705V334.662ZM103.596 328.909V342H102.088V328.909H103.596ZM109.248 342.23C108.626 342.23 108.062 342.113 107.555 341.879C107.047 341.64 106.645 341.297 106.346 340.849C106.048 340.398 105.899 339.852 105.899 339.213C105.899 338.651 106.01 338.195 106.231 337.845C106.453 337.491 106.749 337.214 107.12 337.014C107.491 336.814 107.9 336.665 108.347 336.567C108.799 336.464 109.253 336.384 109.709 336.324C110.305 336.247 110.789 336.19 111.16 336.151C111.535 336.109 111.807 336.038 111.978 335.94C112.153 335.842 112.24 335.672 112.24 335.429V335.378C112.24 334.747 112.067 334.257 111.722 333.908C111.381 333.558 110.863 333.384 110.169 333.384C109.449 333.384 108.884 333.541 108.475 333.857C108.066 334.172 107.778 334.509 107.612 334.866L106.18 334.355C106.436 333.759 106.777 333.294 107.203 332.962C107.633 332.625 108.102 332.391 108.609 332.259C109.121 332.122 109.623 332.054 110.118 332.054C110.433 332.054 110.795 332.092 111.204 332.169C111.618 332.241 112.016 332.393 112.4 332.623C112.787 332.853 113.109 333.2 113.365 333.665C113.621 334.129 113.748 334.751 113.748 335.531V342H112.24V340.67H112.163C112.061 340.884 111.89 341.112 111.652 341.354C111.413 341.597 111.096 341.804 110.699 341.974C110.303 342.145 109.819 342.23 109.248 342.23ZM109.479 340.875C110.075 340.875 110.578 340.758 110.987 340.523C111.4 340.289 111.711 339.987 111.92 339.616C112.133 339.245 112.24 338.855 112.24 338.446V337.065C112.176 337.142 112.035 337.212 111.818 337.276C111.605 337.336 111.358 337.389 111.077 337.436C110.8 337.479 110.529 337.517 110.265 337.551C110.005 337.581 109.794 337.607 109.632 337.628C109.24 337.679 108.873 337.762 108.532 337.877C108.196 337.988 107.923 338.156 107.714 338.382C107.51 338.604 107.407 338.906 107.407 339.29C107.407 339.814 107.601 340.21 107.989 340.479C108.381 340.743 108.878 340.875 109.479 340.875ZM120.49 342.205C119.57 342.205 118.777 341.987 118.113 341.553C117.448 341.118 116.936 340.519 116.578 339.756C116.221 338.994 116.042 338.122 116.042 337.142C116.042 336.145 116.225 335.265 116.591 334.502C116.962 333.735 117.478 333.136 118.138 332.706C118.803 332.271 119.578 332.054 120.465 332.054C121.155 332.054 121.777 332.182 122.331 332.438C122.885 332.693 123.339 333.051 123.693 333.511C124.047 333.972 124.266 334.509 124.351 335.122H122.843C122.728 334.675 122.472 334.278 122.076 333.933C121.684 333.584 121.155 333.409 120.49 333.409C119.902 333.409 119.387 333.562 118.944 333.869C118.505 334.172 118.162 334.6 117.914 335.154C117.672 335.704 117.55 336.349 117.55 337.091C117.55 337.849 117.669 338.51 117.908 339.072C118.151 339.635 118.492 340.072 118.931 340.383C119.374 340.694 119.894 340.849 120.49 340.849C120.882 340.849 121.238 340.781 121.558 340.645C121.877 340.509 122.148 340.312 122.37 340.057C122.591 339.801 122.749 339.494 122.843 339.136H124.351C124.266 339.716 124.055 340.238 123.718 340.702C123.386 341.163 122.945 341.529 122.395 341.802C121.85 342.07 121.215 342.205 120.49 342.205ZM127.963 338.42L127.937 336.554H128.244L132.539 332.182H134.406L129.829 336.81H129.701L127.963 338.42ZM126.556 342V328.909H128.065V342H126.556ZM132.795 342L128.96 337.142L130.034 336.094L134.713 342H132.795ZM141.615 342V328.909H149.464V330.315H143.2V334.739H148.876V336.145H143.2V342H141.615ZM151.869 342V332.182H153.326V333.665H153.429C153.608 333.179 153.931 332.785 154.4 332.482C154.869 332.18 155.397 332.028 155.985 332.028C156.096 332.028 156.235 332.031 156.401 332.035C156.567 332.039 156.693 332.045 156.778 332.054V333.588C156.727 333.575 156.61 333.556 156.426 333.531C156.248 333.501 156.058 333.486 155.858 333.486C155.38 333.486 154.954 333.586 154.579 333.786C154.208 333.982 153.914 334.255 153.697 334.604C153.484 334.95 153.377 335.344 153.377 335.787V342H151.869ZM158.566 342V332.182H160.075V342H158.566ZM159.333 330.545C159.039 330.545 158.786 330.445 158.573 330.245C158.364 330.045 158.259 329.804 158.259 329.523C158.259 329.241 158.364 329.001 158.573 328.8C158.786 328.6 159.039 328.5 159.333 328.5C159.627 328.5 159.879 328.6 160.088 328.8C160.301 329.001 160.407 329.241 160.407 329.523C160.407 329.804 160.301 330.045 160.088 330.245C159.879 330.445 159.627 330.545 159.333 330.545ZM166.545 342.205C165.727 342.205 165.005 341.998 164.378 341.585C163.752 341.167 163.262 340.579 162.908 339.82C162.554 339.058 162.377 338.156 162.377 337.116C162.377 336.085 162.554 335.19 162.908 334.432C163.262 333.673 163.754 333.087 164.385 332.674C165.015 332.261 165.744 332.054 166.571 332.054C167.21 332.054 167.715 332.161 168.086 332.374C168.461 332.582 168.746 332.821 168.942 333.089C169.142 333.354 169.298 333.571 169.409 333.741H169.537V328.909H171.045V342H169.588V340.491H169.409C169.298 340.67 169.14 340.896 168.936 341.169C168.731 341.437 168.439 341.678 168.06 341.891C167.681 342.1 167.176 342.205 166.545 342.205ZM166.75 340.849C167.355 340.849 167.866 340.692 168.284 340.376C168.701 340.057 169.019 339.616 169.236 339.053C169.453 338.487 169.562 337.832 169.562 337.091C169.562 336.358 169.456 335.717 169.243 335.167C169.029 334.613 168.714 334.183 168.297 333.876C167.879 333.565 167.363 333.409 166.75 333.409C166.11 333.409 165.578 333.573 165.152 333.901C164.73 334.225 164.412 334.666 164.199 335.224C163.99 335.778 163.886 336.401 163.886 337.091C163.886 337.79 163.993 338.425 164.206 338.996C164.423 339.562 164.743 340.014 165.164 340.351C165.591 340.683 166.119 340.849 166.75 340.849ZM176.907 342.23C176.284 342.23 175.72 342.113 175.213 341.879C174.706 341.64 174.303 341.297 174.005 340.849C173.706 340.398 173.557 339.852 173.557 339.213C173.557 338.651 173.668 338.195 173.89 337.845C174.111 337.491 174.407 337.214 174.778 337.014C175.149 336.814 175.558 336.665 176.005 336.567C176.457 336.464 176.911 336.384 177.367 336.324C177.963 336.247 178.447 336.19 178.818 336.151C179.193 336.109 179.466 336.038 179.636 335.94C179.811 335.842 179.898 335.672 179.898 335.429V335.378C179.898 334.747 179.725 334.257 179.38 333.908C179.039 333.558 178.522 333.384 177.827 333.384C177.107 333.384 176.542 333.541 176.133 333.857C175.724 334.172 175.436 334.509 175.27 334.866L173.838 334.355C174.094 333.759 174.435 333.294 174.861 332.962C175.292 332.625 175.76 332.391 176.267 332.259C176.779 332.122 177.282 332.054 177.776 332.054C178.091 332.054 178.453 332.092 178.863 332.169C179.276 332.241 179.674 332.393 180.058 332.623C180.446 332.853 180.767 333.2 181.023 333.665C181.279 334.129 181.407 334.751 181.407 335.531V342H179.898V340.67H179.821C179.719 340.884 179.549 341.112 179.31 341.354C179.071 341.597 178.754 341.804 178.358 341.974C177.961 342.145 177.478 342.23 176.907 342.23ZM177.137 340.875C177.733 340.875 178.236 340.758 178.645 340.523C179.059 340.289 179.37 339.987 179.578 339.616C179.792 339.245 179.898 338.855 179.898 338.446V337.065C179.834 337.142 179.694 337.212 179.476 337.276C179.263 337.336 179.016 337.389 178.735 337.436C178.458 337.479 178.187 337.517 177.923 337.551C177.663 337.581 177.452 337.607 177.29 337.628C176.898 337.679 176.532 337.762 176.191 337.877C175.854 337.988 175.581 338.156 175.373 338.382C175.168 338.604 175.066 338.906 175.066 339.29C175.066 339.814 175.26 340.21 175.647 340.479C176.039 340.743 176.536 340.875 177.137 340.875ZM184.78 345.682C184.524 345.682 184.296 345.661 184.096 345.618C183.896 345.58 183.757 345.541 183.681 345.503L184.064 344.173C184.431 344.267 184.754 344.301 185.036 344.276C185.317 344.25 185.566 344.124 185.784 343.898C186.005 343.677 186.208 343.317 186.391 342.818L186.672 342.051L183.041 332.182H184.678L187.388 340.006H187.49L190.2 332.182H191.837L187.669 343.432C187.482 343.939 187.249 344.359 186.972 344.691C186.695 345.028 186.374 345.277 186.007 345.439C185.645 345.601 185.236 345.682 184.78 345.682Z" fill="#38386C"/>
<path d="M264.506 328.909V342H262.921V330.571H262.844L259.648 332.693V331.082L262.921 328.909H264.506ZM272.464 342.179C271.586 342.179 270.811 342.023 270.138 341.712C269.469 341.397 268.947 340.964 268.572 340.415C268.197 339.861 268.011 339.23 268.015 338.523C268.011 337.969 268.12 337.457 268.341 336.989C268.563 336.516 268.866 336.121 269.249 335.806C269.637 335.487 270.069 335.284 270.547 335.199V335.122C269.92 334.96 269.422 334.609 269.051 334.067C268.68 333.522 268.497 332.902 268.501 332.207C268.497 331.543 268.665 330.948 269.006 330.424C269.347 329.9 269.816 329.487 270.412 329.184C271.013 328.881 271.697 328.73 272.464 328.73C273.223 328.73 273.9 328.881 274.497 329.184C275.094 329.487 275.562 329.9 275.903 330.424C276.248 330.948 276.423 331.543 276.427 332.207C276.423 332.902 276.233 333.522 275.858 334.067C275.488 334.609 274.996 334.96 274.382 335.122V335.199C274.855 335.284 275.281 335.487 275.66 335.806C276.04 336.121 276.342 336.516 276.568 336.989C276.794 337.457 276.909 337.969 276.913 338.523C276.909 339.23 276.717 339.861 276.338 340.415C275.963 340.964 275.441 341.397 274.772 341.712C274.107 342.023 273.338 342.179 272.464 342.179ZM272.464 340.773C273.057 340.773 273.568 340.677 273.998 340.485C274.429 340.293 274.761 340.023 274.996 339.673C275.23 339.324 275.349 338.915 275.354 338.446C275.349 337.952 275.221 337.515 274.97 337.136C274.719 336.756 274.376 336.458 273.941 336.241C273.51 336.023 273.018 335.915 272.464 335.915C271.906 335.915 271.407 336.023 270.969 336.241C270.534 336.458 270.191 336.756 269.939 337.136C269.692 337.515 269.571 337.952 269.575 338.446C269.571 338.915 269.684 339.324 269.914 339.673C270.148 340.023 270.483 340.293 270.917 340.485C271.352 340.677 271.868 340.773 272.464 340.773ZM272.464 334.56C272.933 334.56 273.349 334.466 273.711 334.278C274.077 334.091 274.365 333.829 274.574 333.492C274.782 333.156 274.889 332.761 274.893 332.31C274.889 331.866 274.785 331.481 274.58 331.153C274.376 330.82 274.092 330.565 273.73 330.386C273.368 330.202 272.946 330.111 272.464 330.111C271.974 330.111 271.546 330.202 271.18 330.386C270.813 330.565 270.53 330.82 270.329 331.153C270.129 331.481 270.031 331.866 270.035 332.31C270.031 332.761 270.131 333.156 270.336 333.492C270.545 333.829 270.832 334.091 271.199 334.278C271.565 334.466 271.987 334.56 272.464 334.56ZM283.633 342.179C282.67 342.179 281.849 341.917 281.172 341.393C280.494 340.864 279.977 340.099 279.619 339.098C279.261 338.092 279.082 336.878 279.082 335.455C279.082 334.04 279.261 332.832 279.619 331.83C279.981 330.825 280.501 330.058 281.178 329.529C281.86 328.996 282.678 328.73 283.633 328.73C284.587 328.73 285.403 328.996 286.081 329.529C286.763 330.058 287.283 330.825 287.641 331.83C288.003 332.832 288.184 334.04 288.184 335.455C288.184 336.878 288.005 338.092 287.647 339.098C287.289 340.099 286.771 340.864 286.094 341.393C285.416 341.917 284.596 342.179 283.633 342.179ZM283.633 340.773C284.587 340.773 285.329 340.312 285.857 339.392C286.386 338.472 286.65 337.159 286.65 335.455C286.65 334.321 286.528 333.356 286.286 332.559C286.047 331.762 285.702 331.155 285.25 330.737C284.803 330.32 284.263 330.111 283.633 330.111C282.687 330.111 281.947 330.577 281.415 331.511C280.882 332.44 280.616 333.754 280.616 335.455C280.616 336.588 280.735 337.551 280.974 338.344C281.212 339.136 281.555 339.739 282.003 340.153C282.455 340.566 282.998 340.773 283.633 340.773ZM290.843 342V328.909H292.428V335.403H292.582L298.462 328.909H300.533L295.036 334.815L300.533 342H298.616L294.065 335.915L292.428 337.756V342H290.843Z" fill="#38386C"/>
<rect x="77" y="363" width="203" height="32" rx="4" fill="#E5F0E2"/>
<path d="M100.966 372.909V386H99.4318L92.2983 375.722H92.1705V386H90.5852V372.909H92.1193L99.2784 383.213H99.4062V372.909H100.966ZM108.05 386.205C107.104 386.205 106.288 385.996 105.602 385.578C104.92 385.156 104.394 384.568 104.023 383.814C103.656 383.055 103.473 382.173 103.473 381.168C103.473 380.162 103.656 379.276 104.023 378.509C104.394 377.737 104.909 377.136 105.57 376.706C106.235 376.271 107.01 376.054 107.896 376.054C108.408 376.054 108.913 376.139 109.411 376.31C109.91 376.48 110.364 376.757 110.773 377.141C111.182 377.52 111.508 378.023 111.751 378.649C111.994 379.276 112.115 380.047 112.115 380.963V381.602H104.547V380.298H110.581C110.581 379.744 110.47 379.25 110.249 378.815C110.031 378.381 109.72 378.038 109.316 377.786C108.915 377.535 108.442 377.409 107.896 377.409C107.296 377.409 106.776 377.558 106.337 377.857C105.902 378.151 105.568 378.534 105.333 379.007C105.099 379.48 104.982 379.987 104.982 380.528V381.398C104.982 382.139 105.11 382.768 105.365 383.283C105.625 383.795 105.985 384.185 106.445 384.453C106.906 384.717 107.441 384.849 108.05 384.849C108.446 384.849 108.804 384.794 109.124 384.683C109.448 384.568 109.727 384.398 109.961 384.172C110.195 383.942 110.377 383.656 110.504 383.315L111.962 383.724C111.808 384.219 111.551 384.653 111.188 385.028C110.826 385.399 110.379 385.689 109.846 385.898C109.313 386.102 108.715 386.205 108.05 386.205ZM116.634 386L113.643 376.182H115.228L117.35 383.699H117.453L119.549 376.182H121.16L123.231 383.673H123.333L125.455 376.182H127.041L124.049 386H122.566L120.419 378.457H120.265L118.117 386H116.634ZM133.177 372.909H134.992L138.623 379.02H138.776L142.407 372.909H144.222L139.492 380.605V386H137.907V380.605L133.177 372.909ZM148.796 386.205C147.85 386.205 147.034 385.996 146.348 385.578C145.666 385.156 145.14 384.568 144.769 383.814C144.403 383.055 144.219 382.173 144.219 381.168C144.219 380.162 144.403 379.276 144.769 378.509C145.14 377.737 145.655 377.136 146.316 376.706C146.981 376.271 147.756 376.054 148.643 376.054C149.154 376.054 149.659 376.139 150.157 376.31C150.656 376.48 151.11 376.757 151.519 377.141C151.928 377.52 152.254 378.023 152.497 378.649C152.74 379.276 152.861 380.047 152.861 380.963V381.602H145.293V380.298H151.327C151.327 379.744 151.216 379.25 150.995 378.815C150.778 378.381 150.466 378.038 150.062 377.786C149.661 377.535 149.188 377.409 148.643 377.409C148.042 377.409 147.522 377.558 147.083 377.857C146.648 378.151 146.314 378.534 146.079 379.007C145.845 379.48 145.728 379.987 145.728 380.528V381.398C145.728 382.139 145.856 382.768 146.111 383.283C146.371 383.795 146.731 384.185 147.192 384.453C147.652 384.717 148.187 384.849 148.796 384.849C149.192 384.849 149.55 384.794 149.87 384.683C150.194 384.568 150.473 384.398 150.707 384.172C150.942 383.942 151.123 383.656 151.251 383.315L152.708 383.724C152.555 384.219 152.297 384.653 151.934 385.028C151.572 385.399 151.125 385.689 150.592 385.898C150.059 386.102 149.461 386.205 148.796 386.205ZM158.045 386.23C157.423 386.23 156.858 386.113 156.351 385.879C155.844 385.64 155.442 385.297 155.143 384.849C154.845 384.398 154.696 383.852 154.696 383.213C154.696 382.651 154.807 382.195 155.028 381.845C155.25 381.491 155.546 381.214 155.917 381.014C156.287 380.814 156.697 380.665 157.144 380.567C157.596 380.464 158.05 380.384 158.506 380.324C159.102 380.247 159.586 380.19 159.956 380.151C160.331 380.109 160.604 380.038 160.775 379.94C160.949 379.842 161.037 379.672 161.037 379.429V379.378C161.037 378.747 160.864 378.257 160.519 377.908C160.178 377.558 159.66 377.384 158.966 377.384C158.246 377.384 157.681 377.541 157.272 377.857C156.863 378.172 156.575 378.509 156.409 378.866L154.977 378.355C155.233 377.759 155.574 377.294 156 376.962C156.43 376.625 156.899 376.391 157.406 376.259C157.917 376.122 158.42 376.054 158.915 376.054C159.23 376.054 159.592 376.092 160.001 376.169C160.415 376.241 160.813 376.393 161.197 376.623C161.584 376.853 161.906 377.2 162.162 377.665C162.417 378.129 162.545 378.751 162.545 379.531V386H161.037V384.67H160.96C160.858 384.884 160.687 385.112 160.449 385.354C160.21 385.597 159.893 385.804 159.496 385.974C159.1 386.145 158.616 386.23 158.045 386.23ZM158.275 384.875C158.872 384.875 159.375 384.758 159.784 384.523C160.197 384.289 160.508 383.987 160.717 383.616C160.93 383.245 161.037 382.855 161.037 382.446V381.065C160.973 381.142 160.832 381.212 160.615 381.276C160.402 381.336 160.155 381.389 159.873 381.436C159.596 381.479 159.326 381.517 159.062 381.551C158.802 381.581 158.591 381.607 158.429 381.628C158.037 381.679 157.67 381.762 157.329 381.877C156.993 381.988 156.72 382.156 156.511 382.382C156.307 382.604 156.204 382.906 156.204 383.29C156.204 383.814 156.398 384.21 156.786 384.479C157.178 384.743 157.675 384.875 158.275 384.875ZM165.299 386V376.182H166.756V377.665H166.858C167.037 377.179 167.361 376.785 167.83 376.482C168.299 376.18 168.827 376.028 169.415 376.028C169.526 376.028 169.664 376.031 169.831 376.035C169.997 376.039 170.123 376.045 170.208 376.054V377.588C170.157 377.575 170.039 377.556 169.856 377.531C169.677 377.501 169.488 377.486 169.287 377.486C168.81 377.486 168.384 377.586 168.009 377.786C167.638 377.982 167.344 378.255 167.127 378.604C166.914 378.95 166.807 379.344 166.807 379.787V386H165.299Z" fill="#38386C"/>
<path d="M221.366 372.909V386H219.78V374.571H219.704L216.508 376.693V375.082L219.78 372.909H221.366ZM229.477 386.179C228.94 386.17 228.403 386.068 227.866 385.872C227.329 385.676 226.839 385.346 226.396 384.881C225.953 384.413 225.597 383.78 225.329 382.983C225.06 382.182 224.926 381.176 224.926 379.966C224.926 378.807 225.035 377.78 225.252 376.885C225.469 375.986 225.785 375.229 226.198 374.616C226.611 373.998 227.11 373.529 227.694 373.21C228.282 372.89 228.944 372.73 229.682 372.73C230.415 372.73 231.067 372.877 231.638 373.171C232.213 373.461 232.682 373.866 233.044 374.386C233.406 374.906 233.64 375.504 233.747 376.182H232.187C232.042 375.594 231.761 375.106 231.344 374.718C230.926 374.33 230.372 374.136 229.682 374.136C228.667 374.136 227.868 374.577 227.285 375.46C226.705 376.342 226.413 377.58 226.409 379.173H226.511C226.75 378.811 227.033 378.502 227.361 378.246C227.694 377.987 228.06 377.786 228.461 377.646C228.861 377.505 229.285 377.435 229.733 377.435C230.483 377.435 231.169 377.622 231.791 377.997C232.413 378.368 232.912 378.881 233.287 379.538C233.662 380.19 233.849 380.938 233.849 381.781C233.849 382.591 233.668 383.332 233.306 384.006C232.944 384.675 232.434 385.207 231.778 385.604C231.126 385.996 230.359 386.188 229.477 386.179ZM229.477 384.773C230.014 384.773 230.496 384.638 230.922 384.37C231.352 384.102 231.691 383.741 231.938 383.29C232.189 382.838 232.315 382.335 232.315 381.781C232.315 381.24 232.194 380.748 231.951 380.305C231.712 379.857 231.382 379.501 230.96 379.237C230.542 378.973 230.065 378.841 229.528 378.841C229.123 378.841 228.746 378.922 228.397 379.084C228.047 379.241 227.741 379.459 227.476 379.736C227.216 380.013 227.012 380.33 226.863 380.688C226.714 381.042 226.639 381.415 226.639 381.807C226.639 382.327 226.76 382.812 227.003 383.264C227.251 383.716 227.587 384.08 228.013 384.357C228.444 384.634 228.932 384.773 229.477 384.773ZM240.633 386.179C239.67 386.179 238.849 385.917 238.172 385.393C237.494 384.864 236.977 384.099 236.619 383.098C236.261 382.092 236.082 380.878 236.082 379.455C236.082 378.04 236.261 376.832 236.619 375.83C236.981 374.825 237.501 374.058 238.178 373.529C238.86 372.996 239.678 372.73 240.633 372.73C241.587 372.73 242.403 372.996 243.081 373.529C243.763 374.058 244.283 374.825 244.641 375.83C245.003 376.832 245.184 378.04 245.184 379.455C245.184 380.878 245.005 382.092 244.647 383.098C244.289 384.099 243.771 384.864 243.094 385.393C242.416 385.917 241.596 386.179 240.633 386.179ZM240.633 384.773C241.587 384.773 242.329 384.312 242.857 383.392C243.386 382.472 243.65 381.159 243.65 379.455C243.65 378.321 243.528 377.356 243.286 376.559C243.047 375.762 242.702 375.155 242.25 374.737C241.803 374.32 241.263 374.111 240.633 374.111C239.687 374.111 238.947 374.577 238.415 375.511C237.882 376.44 237.616 377.754 237.616 379.455C237.616 380.588 237.735 381.551 237.974 382.344C238.212 383.136 238.555 383.739 239.003 384.153C239.455 384.566 239.998 384.773 240.633 384.773ZM247.843 386V372.909H249.428V379.403H249.582L255.462 372.909H257.533L252.036 378.815L257.533 386H255.616L251.065 379.915L249.428 381.756V386H247.843Z" fill="#38386C"/>
<g filter="url(#filter2_d_2455_14806)">
<rect x="381.793" y="120.108" width="256.207" height="173.373" rx="12" fill="#B1D2A8"/>
</g>
<rect x="420.32" y="224.134" width="5.77909" height="34.6746" rx="1.5" fill="white"/>
<rect x="439.584" y="195.238" width="5.77909" height="63.57" rx="1.5" fill="white"/>
<rect x="458.848" y="231.837" width="5.77909" height="26.9691" rx="1.5" fill="white"/>
<rect x="478.112" y="208.722" width="5.77909" height="50.0855" rx="1.5" fill="white"/>
<rect x="497.375" y="206.795" width="5.77909" height="52.0118" rx="1.5" fill="white"/>
<rect x="516.639" y="224.134" width="5.77909" height="34.6746" rx="1.5" fill="white"/>
<rect x="535.903" y="195.238" width="5.77909" height="63.57" rx="1.5" fill="white"/>
<rect x="555.167" y="231.837" width="5.77909" height="26.9691" rx="1.5" fill="white"/>
<rect x="574.429" y="208.722" width="5.77909" height="50.0855" rx="1.5" fill="white"/>
<rect x="593.693" y="206.795" width="5.77909" height="52.0118" rx="1.5" fill="white"/>
<path d="M420.32 177.899L439.583 158.636L461.737 188.494L481 173.083H500.264L519.528 184.642L538.791 177.899L558.055 188.494L577.319 180.789L596.582 184.642" stroke="white" stroke-linecap="round" stroke-linejoin="round"/>
<circle cx="420.32" cy="177.9" r="3.85273" fill="white"/>
<circle cx="420.32" cy="177.9" r="3.85273" fill="white"/>
<circle cx="439.584" cy="160.562" r="3.85273" fill="white"/>
<circle cx="462.7" cy="187.53" r="3.85273" fill="white"/>
<circle cx="481.965" cy="174.047" r="3.85273" fill="white"/>
<circle cx="501.227" cy="174.047" r="3.85273" fill="white"/>
<circle cx="520.492" cy="183.679" r="3.85273" fill="white"/>
<circle cx="539.756" cy="179.826" r="3.85273" fill="white"/>
<circle cx="559.019" cy="187.53" r="3.85273" fill="white"/>
<circle cx="578.282" cy="181.752" r="3.85273" fill="white"/>
<circle cx="597.546" cy="185.606" r="3.85273" fill="white"/>
<defs>
<filter id="filter0_d_2455_14806" x="102.904" y="13" width="328.668" height="195.833" filterUnits="userSpaceOnUse" color-interpolation-filters="sRGB">
<feFlood flood-opacity="0" result="BackgroundImageFix"/>
<feColorMatrix in="SourceAlpha" type="matrix" values="0 0 0 0 0 0 0 0 0 0 0 0 0 0 0 0 0 0 127 0" result="hardAlpha"/>
<feOffset dy="2"/>
<feGaussianBlur stdDeviation="6"/>
<feComposite in2="hardAlpha" operator="out"/>
<feColorMatrix type="matrix" values="0 0 0 0 0 0 0 0 0 0 0 0 0 0 0 0 0 0 0.12 0"/>
<feBlend mode="normal" in2="BackgroundImageFix" result="effect1_dropShadow_2455_14806"/>
<feBlend mode="normal" in="SourceGraphic" in2="effect1_dropShadow_2455_14806" result="shape"/>
</filter>
<filter id="filter1_d_2455_14806" x="20" y="196" width="398" height="245" filterUnits="userSpaceOnUse" color-interpolation-filters="sRGB">
<feFlood flood-opacity="0" result="BackgroundImageFix"/>
<feColorMatrix in="SourceAlpha" type="matrix" values="0 0 0 0 0 0 0 0 0 0 0 0 0 0 0 0 0 0 127 0" result="hardAlpha"/>
<feOffset dy="2"/>
<feGaussianBlur stdDeviation="6"/>
<feComposite in2="hardAlpha" operator="out"/>
<feColorMatrix type="matrix" values="0 0 0 0 0 0 0 0 0 0 0 0 0 0 0 0 0 0 0.12 0"/>
<feBlend mode="normal" in2="BackgroundImageFix" result="effect1_dropShadow_2455_14806"/>
<feBlend mode="normal" in="SourceGraphic" in2="effect1_dropShadow_2455_14806" result="shape"/>
</filter>
<filter id="filter2_d_2455_14806" x="365.793" y="112.108" width="288.207" height="205.373" filterUnits="userSpaceOnUse" color-interpolation-filters="sRGB">
<feFlood flood-opacity="0" result="BackgroundImageFix"/>
<feColorMatrix in="SourceAlpha" type="matrix" values="0 0 0 0 0 0 0 0 0 0 0 0 0 0 0 0 0 0 127 0" result="hardAlpha"/>
<feOffset dy="8"/>
<feGaussianBlur stdDeviation="8"/>
<feColorMatrix type="matrix" values="0 0 0 0 0.760784 0 0 0 0 0.8 0 0 0 0 0.843137 0 0 0 0.3 0"/>
<feBlend mode="normal" in2="BackgroundImageFix" result="effect1_dropShadow_2455_14806"/>
<feBlend mode="normal" in="SourceGraphic" in2="effect1_dropShadow_2455_14806" result="shape"/>
</filter>
</defs>
</svg>
