<svg width="670" height="450" viewBox="0 0 670 450" fill="none" xmlns="http://www.w3.org/2000/svg">
<g filter="url(#filter0_d_2453_14095)">
<rect x="18" y="32" width="382" height="105" rx="12" fill="white"/>
</g>
<rect x="113" y="53" width="222" height="16" rx="8" fill="#CDCDE5"/>
<rect x="113" y="85" width="147" height="13" rx="6.5" fill="#CDCDE5"/>
<rect x="39.6172" y="53.0791" width="63.2348" height="63.2348" rx="12" fill="#CDCDE5"/>
<path d="M64.2688 101.973C73.5685 101.045 72.1071 110.325 72.1071 110.325L68.5997 116.312H89.6779C91.0615 114.143 83.7982 104.757 83.7982 104.757C83.7982 104.757 81.7737 93.8885 79.1484 88.0538C76.523 82.2192 78.2184 84.342 74.4985 80.6302C70.7786 76.9184 69.8486 77.8464 63.3388 78.7743C56.829 79.7023 54.9691 102.901 64.2688 101.973Z" fill="#CB9191"/>
<path d="M62.0127 116.314L72.5518 111.044C72.5518 111.044 87.711 104.652 89.6779 111.044C90.2831 113.011 89.6779 116.314 89.6779 116.314H62.0127Z" fill="#4D4D9D"/>
<path fill-rule="evenodd" clip-rule="evenodd" d="M64.5938 82.5859C59.7293 82.5859 57.8694 81.6579 56.0094 80.73C54.1495 79.802 43.8242 71.715 56.0094 68.6666C68.1947 65.6182 80.5777 64.4135 89.3931 71.4504C98.2085 78.4874 94.1159 94.199 93.2084 98.361C92.3009 102.523 89.5028 107.418 82.7164 102.073C79.2552 99.3469 74.8141 94.4219 76.5419 90.4281C77.9118 87.2615 77.3988 86.2977 75.5389 86.2977C74.6089 86.2977 74.6089 88.1536 74.6089 88.1536C74.6089 88.1536 73.6956 88.1536 73.6789 88.1536C73.6522 88.1536 73.6789 83.5138 73.1782 82.5859C71.7533 79.9454 69.4583 82.5859 64.5938 82.5859Z" fill="#121111"/>
<g filter="url(#filter1_d_2453_14095)">
<rect x="220" y="153" width="421" height="129.043" rx="12" fill="white"/>
</g>
<rect x="339.043" y="178.809" width="250.339" height="19.3565" rx="8" fill="#E5F0E2"/>
<rect x="339.043" y="217.521" width="185.817" height="16.1304" rx="8" fill="#E5F0E2"/>
<rect x="248.713" y="178.808" width="77.4261" height="77.4261" rx="12" fill="#E5F0E2"/>
<path d="M278.897 238.676C290.284 237.54 288.494 248.902 288.494 248.902L284.199 256.233H310.008C311.702 253.577 302.809 242.085 302.809 242.085C302.809 242.085 300.33 228.777 297.116 221.633C293.901 214.489 295.977 217.088 291.422 212.544C286.867 207.999 285.729 209.135 277.758 210.271C269.787 211.407 267.51 239.812 278.897 238.676Z" fill="#CB9191"/>
<path d="M276.134 256.236L289.039 249.783C289.039 249.783 307.6 241.956 310.008 249.783C310.749 252.192 310.008 256.236 310.008 256.236H276.134Z" fill="#7DB86D"/>
<path fill-rule="evenodd" clip-rule="evenodd" d="M266.966 215.603C264.581 207.86 271.623 196.427 280.232 203.643C288.84 210.859 293.42 197.787 299.88 204.467C306.339 211.148 306.589 226.229 304.811 230.607C303.033 234.986 303.406 239.677 300.914 242.414C299.388 244.061 296.251 244.042 296.251 244.042C296.251 244.042 300.766 236.887 299.827 235.912C298.887 234.937 297.574 234.533 297.574 234.533L295.801 233.5C295.801 233.5 297.044 225.542 294.854 221.418C292.665 217.294 288.515 217.5 284.202 218.417C277.378 219.869 269.351 223.345 266.966 215.603Z" fill="black"/>
<g filter="url(#filter2_d_2453_14095)">
<rect x="48" y="298" width="465" height="120" rx="12" fill="white"/>
</g>
<rect x="158" y="322" width="272" height="18" rx="8" fill="#F0E2E2"/>
<rect x="158" y="358" width="180" height="15" rx="7.5" fill="#F0E2E2"/>
<rect x="74" y="322" width="72" height="72" rx="12" fill="#F0E2E2"/>
<path d="M102.069 377.672C112.658 376.615 110.994 387.181 110.994 387.181L107 393.999H131C132.575 391.528 124.305 380.842 124.305 380.842C124.305 380.842 122 368.467 119.011 361.823C116.022 355.18 117.952 357.597 113.717 353.371C109.481 349.144 108.422 350.201 101.01 351.258C93.5978 352.314 91.48 378.729 102.069 377.672Z" fill="#CB9191"/>
<path d="M99.5 394.001L111.5 388.001C111.5 388.001 128.76 380.722 131 388.001C131.689 390.24 131 394.001 131 394.001H99.5Z" fill="#BC3F3F"/>
<path fill-rule="evenodd" clip-rule="evenodd" d="M100.165 354.419C95.217 352.71 93.4177 349.718 96.5665 344.163C99.7152 338.607 107.812 336.042 114.334 337.325C120.857 338.607 132.777 343.094 128.953 358.052C125.13 373.01 141.998 378.779 142.898 383.908C143.797 389.036 138.643 392.255 132.102 390.532C125.562 388.809 118.158 382.839 116.358 374.506C114.559 366.172 109.939 366.807 110.961 361.471C111.41 359.12 110.875 356.124 110.061 355.06C108.262 352.71 105.113 356.129 100.165 354.419Z" fill="#191000"/>
<g filter="url(#filter3_di_2453_14095)">
<path d="M589.361 210.589C591.012 211.505 592.988 211.505 594.639 210.589C606.225 204.167 652 176.305 652 137V88.658C652 86.1569 650.449 83.9182 648.107 83.04L594.107 62.79C592.748 62.2807 591.252 62.2807 589.893 62.79L535.893 83.04C533.551 83.9182 532 86.1569 532 88.658V137C532 176.305 577.775 204.167 589.361 210.589Z" fill="white"/>
</g>
<path d="M563.227 120.727L568.852 138.409H569.068L574.705 120.727H580.159L572.136 144H565.795L557.761 120.727H563.227ZM582.96 144V120.727H592.142C593.907 120.727 595.411 121.064 596.653 121.739C597.896 122.405 598.843 123.333 599.494 124.523C600.153 125.705 600.483 127.068 600.483 128.614C600.483 130.159 600.15 131.523 599.483 132.705C598.816 133.886 597.85 134.807 596.585 135.466C595.328 136.125 593.805 136.455 592.017 136.455H586.165V132.511H591.222C592.169 132.511 592.949 132.348 593.562 132.023C594.184 131.689 594.646 131.231 594.949 130.648C595.259 130.057 595.415 129.379 595.415 128.614C595.415 127.841 595.259 127.167 594.949 126.591C594.646 126.008 594.184 125.557 593.562 125.239C592.941 124.913 592.153 124.75 591.199 124.75H587.881V144H582.96ZM623.145 120.727V144H618.895L608.77 129.352H608.599V144H603.679V120.727H607.997L618.043 135.364H618.247V120.727H623.145Z" fill="#38386C"/>
<path d="M591.488 170.67C614.041 170.67 632.323 152.387 632.323 129.835C632.323 107.282 614.041 89 591.488 89C568.936 89 550.653 107.282 550.653 129.835C550.653 152.387 568.936 170.67 591.488 170.67Z" stroke="#FF7C7C" stroke-width="2" stroke-linecap="round" stroke-linejoin="round"/>
<path d="M562.618 100.962L620.359 158.703" stroke="#FF7C7C" stroke-width="2" stroke-linecap="round" stroke-linejoin="round"/>
<defs>
<filter id="filter0_d_2453_14095" x="6" y="22" width="406" height="129" filterUnits="userSpaceOnUse" color-interpolation-filters="sRGB">
<feFlood flood-opacity="0" result="BackgroundImageFix"/>
<feColorMatrix in="SourceAlpha" type="matrix" values="0 0 0 0 0 0 0 0 0 0 0 0 0 0 0 0 0 0 127 0" result="hardAlpha"/>
<feOffset dy="2"/>
<feGaussianBlur stdDeviation="6"/>
<feComposite in2="hardAlpha" operator="out"/>
<feColorMatrix type="matrix" values="0 0 0 0 0 0 0 0 0 0 0 0 0 0 0 0 0 0 0.12 0"/>
<feBlend mode="normal" in2="BackgroundImageFix" result="effect1_dropShadow_2453_14095"/>
<feBlend mode="normal" in="SourceGraphic" in2="effect1_dropShadow_2453_14095" result="shape"/>
</filter>
<filter id="filter1_d_2453_14095" x="208" y="143" width="445" height="153.044" filterUnits="userSpaceOnUse" color-interpolation-filters="sRGB">
<feFlood flood-opacity="0" result="BackgroundImageFix"/>
<feColorMatrix in="SourceAlpha" type="matrix" values="0 0 0 0 0 0 0 0 0 0 0 0 0 0 0 0 0 0 127 0" result="hardAlpha"/>
<feOffset dy="2"/>
<feGaussianBlur stdDeviation="6"/>
<feComposite in2="hardAlpha" operator="out"/>
<feColorMatrix type="matrix" values="0 0 0 0 0 0 0 0 0 0 0 0 0 0 0 0 0 0 0.12 0"/>
<feBlend mode="normal" in2="BackgroundImageFix" result="effect1_dropShadow_2453_14095"/>
<feBlend mode="normal" in="SourceGraphic" in2="effect1_dropShadow_2453_14095" result="shape"/>
</filter>
<filter id="filter2_d_2453_14095" x="36" y="288" width="489" height="144" filterUnits="userSpaceOnUse" color-interpolation-filters="sRGB">
<feFlood flood-opacity="0" result="BackgroundImageFix"/>
<feColorMatrix in="SourceAlpha" type="matrix" values="0 0 0 0 0 0 0 0 0 0 0 0 0 0 0 0 0 0 127 0" result="hardAlpha"/>
<feOffset dy="2"/>
<feGaussianBlur stdDeviation="6"/>
<feComposite in2="hardAlpha" operator="out"/>
<feColorMatrix type="matrix" values="0 0 0 0 0 0 0 0 0 0 0 0 0 0 0 0 0 0 0.12 0"/>
<feBlend mode="normal" in2="BackgroundImageFix" result="effect1_dropShadow_2453_14095"/>
<feBlend mode="normal" in="SourceGraphic" in2="effect1_dropShadow_2453_14095" result="shape"/>
</filter>
<filter id="filter3_di_2453_14095" x="528" y="62.4082" width="128" height="156.867" filterUnits="userSpaceOnUse" color-interpolation-filters="sRGB">
<feFlood flood-opacity="0" result="BackgroundImageFix"/>
<feColorMatrix in="SourceAlpha" type="matrix" values="0 0 0 0 0 0 0 0 0 0 0 0 0 0 0 0 0 0 127 0" result="hardAlpha"/>
<feOffset dy="4"/>
<feGaussianBlur stdDeviation="2"/>
<feComposite in2="hardAlpha" operator="out"/>
<feColorMatrix type="matrix" values="0 0 0 0 0 0 0 0 0 0 0 0 0 0 0 0 0 0 0.25 0"/>
<feBlend mode="normal" in2="BackgroundImageFix" result="effect1_dropShadow_2453_14095"/>
<feBlend mode="normal" in="SourceGraphic" in2="effect1_dropShadow_2453_14095" result="shape"/>
<feColorMatrix in="SourceAlpha" type="matrix" values="0 0 0 0 0 0 0 0 0 0 0 0 0 0 0 0 0 0 127 0" result="hardAlpha"/>
<feOffset dy="2"/>
<feGaussianBlur stdDeviation="4"/>
<feComposite in2="hardAlpha" operator="arithmetic" k2="-1" k3="1"/>
<feColorMatrix type="matrix" values="0 0 0 0 0.803922 0 0 0 0 0.803922 0 0 0 0 0.898039 0 0 0 1 0"/>
<feBlend mode="normal" in2="shape" result="effect2_innerShadow_2453_14095"/>
</filter>
</defs>
</svg>
