<svg width="209" height="186" viewBox="0 0 209 186" fill="none" xmlns="http://www.w3.org/2000/svg">
<path d="M17 25C17 30.9143 11.6667 36.1714 5 36.1714C11.6667 36.1714 17 41.4286 17 48C17 41.4286 22.3333 36.1714 29 36.1714C21.6667 36.1714 17 30.9143 17 25Z" fill="#EEAB00"/>
<path d="M20 52C20 55.0857 17.3333 57.8286 14 57.8286C17.3333 57.8286 20 60.5714 20 64C20 60.5714 22.6667 57.8286 26 57.8286C22.3333 57.8286 20 55.0857 20 52Z" fill="#EEAB00"/>
<g filter="url(#filter0_d_2420_13235)">
<rect x="30" y="38" width="171" height="40" rx="6" fill="white"/>
<rect x="30.5" y="38.5" width="170" height="39" rx="5.5" stroke="#95BD8B"/>
</g>
<path d="M174.244 69.4185H191.149V54.2529H174.244" fill="#B1D2A8"/>
<path d="M181.453 69.4193H183.939V51.7676H181.453" fill="#95BD8B"/>
<path d="M173 51.7676H192.392V54.2537H173" fill="#95BD8B"/>
<path d="M182.963 51.7841C184.888 45.0209 193.152 50.6637 182.963 51.7841" stroke="#95BD8B"/>
<path d="M182.019 51.4129C173.482 51.7671 177.605 44.1527 182.019 51.4129" stroke="#95BD8B"/>
<path d="M182.611 51.9154C178.253 44.5665 186.912 44.5877 182.611 51.9154" stroke="#95BD8B"/>
<path d="M38.9326 64.0004V54.5459H42.5519C43.2352 54.5459 43.803 54.6536 44.2554 54.8691C44.7109 55.0814 45.051 55.3722 45.2757 55.7416C45.5034 56.1109 45.6173 56.5294 45.6173 56.9972C45.6173 57.382 45.5434 57.7113 45.3957 57.9852C45.248 58.256 45.0494 58.4761 44.8002 58.6453C44.5509 58.8146 44.2723 58.9362 43.9646 59.01V59.1024C44.3 59.1208 44.6217 59.2239 44.9294 59.4117C45.2403 59.5963 45.4942 59.8579 45.6911 60.1965C45.8881 60.535 45.9866 60.9443 45.9866 61.4244C45.9866 61.9138 45.8681 62.3539 45.6311 62.7448C45.3941 63.1325 45.0371 63.4388 44.5601 63.6634C44.0831 63.8881 43.4829 64.0004 42.7597 64.0004H38.9326ZM40.6453 62.5693H42.4873C43.109 62.5693 43.5568 62.4508 43.8307 62.2139C44.1077 61.9738 44.2462 61.666 44.2462 61.2906C44.2462 61.0105 44.1769 60.7581 44.0384 60.5335C43.8999 60.3057 43.703 60.1272 43.4475 59.998C43.1921 59.8656 42.8874 59.7994 42.5335 59.7994H40.6453V62.5693ZM40.6453 58.5669H42.3396C42.635 58.5669 42.9012 58.513 43.1382 58.4053C43.3752 58.2945 43.5614 58.1391 43.6968 57.939C43.8353 57.7359 43.9046 57.4958 43.9046 57.2188C43.9046 56.8526 43.7753 56.551 43.5168 56.314C43.2613 56.077 42.8812 55.9585 42.3765 55.9585H40.6453V58.5669Z" fill="#436C38"/>
<path d="M48.6839 54.5459V64.0004H47.0127V54.5459H48.6839Z" fill="#436C38"/>
<path d="M52.0528 64.1436C51.6035 64.1436 51.1988 64.0635 50.8387 63.9035C50.4817 63.7404 50.1985 63.5003 49.9893 63.1833C49.7831 62.8663 49.68 62.4755 49.68 62.0107C49.68 61.6106 49.7538 61.2798 49.9016 61.0182C50.0493 60.7566 50.2509 60.5473 50.5063 60.3904C50.7618 60.2334 51.0495 60.1149 51.3696 60.0349C51.6927 59.9518 52.0267 59.8918 52.3714 59.8548C52.7868 59.8118 53.1239 59.7733 53.3824 59.7394C53.6409 59.7025 53.8286 59.6471 53.9456 59.5732C54.0656 59.4963 54.1256 59.3778 54.1256 59.2178V59.1901C54.1256 58.8423 54.0225 58.573 53.8163 58.3822C53.6101 58.1914 53.3131 58.096 52.9253 58.096C52.516 58.096 52.1913 58.1852 51.9513 58.3637C51.7143 58.5422 51.5543 58.753 51.4712 58.9962L49.9108 58.7746C50.0339 58.3437 50.237 57.9836 50.5202 57.6943C50.8033 57.402 51.1495 57.1834 51.5589 57.0388C51.9682 56.8911 52.4206 56.8172 52.9161 56.8172C53.2577 56.8172 53.5978 56.8572 53.9364 56.9372C54.2749 57.0173 54.5842 57.1496 54.8643 57.3343C55.1443 57.5158 55.369 57.7636 55.5383 58.0775C55.7106 58.3914 55.7968 58.7838 55.7968 59.2547V64.0004H54.1903V63.0264H54.1349C54.0333 63.2233 53.8902 63.408 53.7055 63.5803C53.5239 63.7496 53.2947 63.8866 53.0177 63.9912C52.7438 64.0928 52.4221 64.1436 52.0528 64.1436ZM52.4868 62.9156C52.8222 62.9156 53.1131 62.8494 53.3593 62.7171C53.6055 62.5816 53.7948 62.4031 53.9271 62.1816C54.0625 61.96 54.1302 61.7184 54.1302 61.4568V60.6212C54.0779 60.6643 53.9887 60.7043 53.8625 60.7412C53.7394 60.7781 53.6009 60.8105 53.447 60.8382C53.2931 60.8659 53.1408 60.8905 52.99 60.912C52.8392 60.9336 52.7084 60.952 52.5976 60.9674C52.3483 61.0013 52.1252 61.0567 51.9282 61.1336C51.7312 61.2106 51.5758 61.3183 51.4619 61.4568C51.348 61.5922 51.2911 61.7676 51.2911 61.983C51.2911 62.2908 51.4034 62.5232 51.6281 62.6801C51.8528 62.8371 52.139 62.9156 52.4868 62.9156Z" fill="#436C38"/>
<path d="M60.1802 64.1389C59.4724 64.1389 58.8645 63.9835 58.3567 63.6727C57.852 63.3618 57.4627 62.9325 57.1888 62.3847C56.9179 61.8338 56.7825 61.1998 56.7825 60.4827C56.7825 59.7625 56.921 59.127 57.198 58.5761C57.475 58.0221 57.8658 57.5912 58.3706 57.2835C58.8784 56.9726 59.4785 56.8172 60.171 56.8172C60.7465 56.8172 61.2559 56.9234 61.6991 57.1357C62.1453 57.345 62.5008 57.642 62.7655 58.0267C63.0301 58.4084 63.1809 58.8546 63.2179 59.3655H61.6206C61.5559 59.0239 61.4021 58.7392 61.1589 58.5115C60.9189 58.2806 60.5973 58.1652 60.1941 58.1652C59.8525 58.1652 59.5524 58.2575 59.2939 58.4422C59.0353 58.6238 58.8338 58.8854 58.6891 59.227C58.5475 59.5686 58.4768 59.978 58.4768 60.455C58.4768 60.9382 58.5475 61.3537 58.6891 61.7014C58.8307 62.0461 59.0292 62.3124 59.2846 62.5001C59.5432 62.6847 59.8463 62.7771 60.1941 62.7771C60.4403 62.7771 60.6603 62.7309 60.8542 62.6386C61.0512 62.5432 61.2159 62.4062 61.3482 62.2277C61.4805 62.0492 61.5713 61.8322 61.6206 61.5768H63.2179C63.1779 62.0785 63.0301 62.5232 62.7747 62.911C62.5192 63.2957 62.1715 63.5973 61.7314 63.8158C61.2913 64.0312 60.7742 64.1389 60.1802 64.1389Z" fill="#436C38"/>
<path d="M65.7236 61.7753L65.7189 59.7579H65.9867L68.535 56.9095H70.4878L67.3532 60.3996H67.0069L65.7236 61.7753ZM64.2001 64.0004V54.5459H65.8713V64.0004H64.2001ZM68.6504 64.0004L66.3422 60.7735L67.4686 59.5963L70.6493 64.0004H68.6504Z" fill="#436C38"/>
<path d="M74.12 64.0004V54.5459H80.1768V55.9816H75.8327V58.5484H79.7613V59.9841H75.8327V64.0004H74.12Z" fill="#436C38"/>
<path d="M81.1717 64.0004V56.9095H82.7921V58.0914H82.866C82.9952 57.682 83.2168 57.3666 83.5307 57.145C83.8477 56.9203 84.2094 56.808 84.6156 56.808C84.7079 56.808 84.811 56.8126 84.9249 56.8218C85.0419 56.828 85.1388 56.8387 85.2158 56.8541V58.3914C85.145 58.3668 85.0326 58.3453 84.8788 58.3268C84.7279 58.3053 84.5818 58.2945 84.4402 58.2945C84.1355 58.2945 83.8616 58.3606 83.6185 58.493C83.3784 58.6222 83.1891 58.8023 83.0506 59.0331C82.9121 59.2639 82.8429 59.5302 82.8429 59.8318V64.0004H81.1717Z" fill="#436C38"/>
<path d="M85.936 64.0004V56.9095H87.6072V64.0004H85.936ZM86.7762 55.9031C86.5115 55.9031 86.2838 55.8154 86.093 55.64C85.9022 55.4615 85.8068 55.2476 85.8068 54.9983C85.8068 54.7459 85.9022 54.532 86.093 54.3566C86.2838 54.1781 86.5115 54.0889 86.7762 54.0889C87.044 54.0889 87.2717 54.1781 87.4595 54.3566C87.6503 54.532 87.7457 54.7459 87.7457 54.9983C87.7457 55.2476 87.6503 55.4615 87.4595 55.64C87.2717 55.8154 87.044 55.9031 86.7762 55.9031Z" fill="#436C38"/>
<path d="M91.5671 64.1251C91.01 64.1251 90.5114 63.982 90.0713 63.6958C89.6312 63.4095 89.2834 62.9941 89.028 62.4493C88.7726 61.9046 88.6448 61.2429 88.6448 60.4642C88.6448 59.6763 88.7741 59.0116 89.0326 58.4699C89.2942 57.9252 89.6466 57.5143 90.0898 57.2373C90.533 56.9572 91.0269 56.8172 91.5717 56.8172C91.9872 56.8172 92.3288 56.888 92.5965 57.0296C92.8643 57.1681 93.0766 57.3358 93.2336 57.5328C93.3906 57.7267 93.5121 57.9098 93.5983 58.0821H93.6676V54.5459H95.3433V64.0004H93.6999V62.8833H93.5983C93.5121 63.0556 93.3875 63.2387 93.2244 63.4326C93.0613 63.6234 92.8458 63.7865 92.5781 63.922C92.3103 64.0574 91.9733 64.1251 91.5671 64.1251ZM92.0333 62.754C92.3873 62.754 92.6889 62.6586 92.9382 62.4678C93.1874 62.2739 93.3767 62.0046 93.506 61.6599C93.6352 61.3152 93.6999 60.9136 93.6999 60.455C93.6999 59.9964 93.6352 59.5979 93.506 59.2593C93.3798 58.9208 93.1921 58.6576 92.9428 58.4699C92.6966 58.2822 92.3934 58.1883 92.0333 58.1883C91.6609 58.1883 91.3501 58.2852 91.1008 58.4791C90.8515 58.673 90.6638 58.9408 90.5376 59.2824C90.4114 59.624 90.3483 60.0149 90.3483 60.455C90.3483 60.8982 90.4114 61.2936 90.5376 61.6414C90.6668 61.9861 90.8561 62.2585 91.1054 62.4585C91.3578 62.6555 91.6671 62.754 92.0333 62.754Z" fill="#436C38"/>
<path d="M98.7746 64.1436C98.3253 64.1436 97.9206 64.0635 97.5605 63.9035C97.2035 63.7404 96.9203 63.5003 96.7111 63.1833C96.5049 62.8663 96.4018 62.4755 96.4018 62.0107C96.4018 61.6106 96.4756 61.2798 96.6233 61.0182C96.7711 60.7566 96.9727 60.5473 97.2281 60.3904C97.4835 60.2334 97.7713 60.1149 98.0914 60.0349C98.4145 59.9518 98.7485 59.8918 99.0932 59.8548C99.5086 59.8118 99.8456 59.7733 100.104 59.7394C100.363 59.7025 100.55 59.6471 100.667 59.5732C100.787 59.4963 100.847 59.3778 100.847 59.2178V59.1901C100.847 58.8423 100.744 58.573 100.538 58.3822C100.332 58.1914 100.035 58.096 99.6471 58.096C99.2378 58.096 98.9131 58.1852 98.6731 58.3637C98.4361 58.5422 98.276 58.753 98.1929 58.9962L96.6326 58.7746C96.7557 58.3437 96.9588 57.9836 97.242 57.6943C97.5251 57.402 97.8713 57.1834 98.2807 57.0388C98.69 56.8911 99.1424 56.8172 99.6379 56.8172C99.9795 56.8172 100.32 56.8572 100.658 56.9372C100.997 57.0173 101.306 57.1496 101.586 57.3343C101.866 57.5158 102.091 57.7636 102.26 58.0775C102.432 58.3914 102.519 58.7838 102.519 59.2547V64.0004H100.912V63.0264H100.857C100.755 63.2233 100.612 63.408 100.427 63.5803C100.246 63.7496 100.016 63.8866 99.7395 63.9912C99.4656 64.0928 99.1439 64.1436 98.7746 64.1436ZM99.2086 62.9156C99.544 62.9156 99.8349 62.8494 100.081 62.7171C100.327 62.5816 100.517 62.4031 100.649 62.1816C100.784 61.96 100.852 61.7184 100.852 61.4568V60.6212C100.8 60.6643 100.71 60.7043 100.584 60.7412C100.461 60.7781 100.323 60.8105 100.169 60.8382C100.015 60.8659 99.8626 60.8905 99.7118 60.912C99.561 60.9336 99.4302 60.952 99.3194 60.9674C99.0701 61.0013 98.8469 61.0567 98.65 61.1336C98.453 61.2106 98.2976 61.3183 98.1837 61.4568C98.0698 61.5922 98.0129 61.7676 98.0129 61.983C98.0129 62.2908 98.1252 62.5232 98.3499 62.6801C98.5746 62.8371 98.8608 62.9156 99.2086 62.9156Z" fill="#436C38"/>
<path d="M104.594 66.6595C104.366 66.6595 104.155 66.6411 103.961 66.6041C103.771 66.5703 103.618 66.5303 103.504 66.4841L103.892 65.1823C104.135 65.253 104.352 65.2869 104.543 65.2838C104.734 65.2807 104.902 65.2207 105.046 65.1038C105.194 64.9899 105.319 64.7991 105.42 64.5313L105.563 64.1482L102.992 56.9095H104.765L106.399 62.2646H106.473L108.112 56.9095H109.889L107.05 64.8591C106.917 65.2346 106.742 65.5562 106.523 65.824C106.305 66.0948 106.037 66.301 105.72 66.4426C105.406 66.5872 105.031 66.6595 104.594 66.6595Z" fill="#436C38"/>
<path d="M113.301 62.2462V60.8843L117.312 54.5459H118.448V56.4848H117.756L115.055 60.7643V60.8382H120.655V62.2462H113.301ZM117.811 64.0004V61.8307L117.829 61.2213V54.5459H119.445V64.0004H117.811Z" fill="#436C38"/>
<path d="M125.234 64.1805C124.474 64.1805 123.822 63.9881 123.277 63.6034C122.735 63.2156 122.318 62.657 122.026 61.9276C121.737 61.1952 121.592 60.3134 121.592 59.2824C121.595 58.2514 121.741 57.3743 122.031 56.651C122.323 55.9247 122.74 55.3707 123.282 54.9891C123.826 54.6075 124.477 54.4166 125.234 54.4166C125.991 54.4166 126.642 54.6075 127.187 54.9891C127.732 55.3707 128.149 55.9247 128.438 56.651C128.731 57.3773 128.877 58.2545 128.877 59.2824C128.877 60.3165 128.731 61.1998 128.438 61.9323C128.149 62.6617 127.732 63.2187 127.187 63.6034C126.645 63.9881 125.995 64.1805 125.234 64.1805ZM125.234 62.7355C125.825 62.7355 126.292 62.4447 126.633 61.863C126.978 61.2783 127.15 60.4181 127.15 59.2824C127.15 58.5315 127.072 57.9005 126.915 57.3896C126.758 56.8788 126.536 56.4941 126.25 56.2355C125.964 55.9739 125.625 55.8431 125.234 55.8431C124.647 55.8431 124.182 56.1355 123.84 56.7203C123.499 57.3019 123.326 58.156 123.323 59.2824C123.32 60.0364 123.395 60.6704 123.549 61.1844C123.706 61.6984 123.928 62.0861 124.214 62.3477C124.5 62.6063 124.84 62.7355 125.234 62.7355Z" fill="#436C38"/>
<path d="M135.076 62.2277V61.7291C135.076 61.3629 135.153 61.0259 135.306 60.7181C135.463 60.4104 135.691 60.1626 135.99 59.9749C136.288 59.7871 136.65 59.6933 137.075 59.6933C137.512 59.6933 137.878 59.7871 138.173 59.9749C138.469 60.1595 138.692 60.4057 138.843 60.7135C138.997 61.0213 139.073 61.3598 139.073 61.7291V62.2277C139.073 62.594 138.997 62.931 138.843 63.2387C138.689 63.5465 138.463 63.7942 138.164 63.982C137.869 64.1697 137.505 64.2636 137.075 64.2636C136.644 64.2636 136.279 64.1697 135.98 63.982C135.682 63.7942 135.456 63.5465 135.302 63.2387C135.151 62.931 135.076 62.594 135.076 62.2277ZM136.281 61.7291V62.2277C136.281 62.4709 136.339 62.694 136.456 62.8971C136.573 63.1002 136.779 63.2018 137.075 63.2018C137.373 63.2018 137.578 63.1018 137.689 62.9017C137.802 62.6986 137.859 62.4739 137.859 62.2277V61.7291C137.859 61.4829 137.805 61.2583 137.698 61.0551C137.59 60.8489 137.382 60.7458 137.075 60.7458C136.785 60.7458 136.581 60.8489 136.461 61.0551C136.341 61.2583 136.281 61.4829 136.281 61.7291ZM130.27 56.8172V56.3186C130.27 55.9493 130.348 55.6108 130.505 55.303C130.662 54.9952 130.89 54.749 131.189 54.5644C131.487 54.3766 131.849 54.2828 132.273 54.2828C132.707 54.2828 133.072 54.3766 133.368 54.5644C133.666 54.749 133.891 54.9952 134.042 55.303C134.192 55.6108 134.268 55.9493 134.268 56.3186V56.8172C134.268 57.1865 134.191 57.5251 134.037 57.8328C133.886 58.1375 133.661 58.3822 133.363 58.5669C133.064 58.7515 132.701 58.8438 132.273 58.8438C131.839 58.8438 131.473 58.7515 131.175 58.5669C130.879 58.3822 130.655 58.136 130.501 57.8282C130.347 57.5204 130.27 57.1834 130.27 56.8172ZM131.484 56.3186V56.8172C131.484 57.0634 131.541 57.2881 131.655 57.4912C131.772 57.6913 131.978 57.7913 132.273 57.7913C132.569 57.7913 132.772 57.6913 132.883 57.4912C132.997 57.2881 133.054 57.0634 133.054 56.8172V56.3186C133.054 56.0724 133 55.8477 132.892 55.6446C132.784 55.4384 132.578 55.3353 132.273 55.3353C131.981 55.3353 131.776 55.4384 131.659 55.6446C131.542 55.8508 131.484 56.0755 131.484 56.3186ZM130.796 64.0004L137.296 54.5459H138.45L131.95 64.0004H130.796Z" fill="#436C38"/>
<path d="M146.545 64.1389C145.853 64.1389 145.253 63.9866 144.745 63.6819C144.237 63.3772 143.843 62.951 143.563 62.4031C143.286 61.8553 143.148 61.2152 143.148 60.4827C143.148 59.7502 143.286 59.1085 143.563 58.5576C143.843 58.0067 144.237 57.5789 144.745 57.2742C145.253 56.9695 145.853 56.8172 146.545 56.8172C147.238 56.8172 147.838 56.9695 148.346 57.2742C148.854 57.5789 149.246 58.0067 149.523 58.5576C149.803 59.1085 149.943 59.7502 149.943 60.4827C149.943 61.2152 149.803 61.8553 149.523 62.4031C149.246 62.951 148.854 63.3772 148.346 63.6819C147.838 63.9866 147.238 64.1389 146.545 64.1389ZM146.555 62.8002C146.93 62.8002 147.244 62.6971 147.496 62.4909C147.749 62.2816 147.937 62.0015 148.06 61.6507C148.186 61.2998 148.249 60.9089 148.249 60.4781C148.249 60.0441 148.186 59.6517 148.06 59.3009C147.937 58.9469 147.749 58.6653 147.496 58.4561C147.244 58.2468 146.93 58.1421 146.555 58.1421C146.17 58.1421 145.85 58.2468 145.594 58.4561C145.342 58.6653 145.153 58.9469 145.027 59.3009C144.904 59.6517 144.842 60.0441 144.842 60.4781C144.842 60.9089 144.904 61.2998 145.027 61.6507C145.153 62.0015 145.342 62.2816 145.594 62.4909C145.85 62.6971 146.17 62.8002 146.555 62.8002Z" fill="#436C38"/>
<path d="M154.563 56.9095V58.2021H150.371V56.9095H154.563ZM151.419 64.0004V56.2401C151.419 55.7631 151.518 55.3661 151.715 55.0491C151.915 54.7321 152.183 54.4951 152.518 54.3382C152.854 54.1812 153.226 54.1027 153.635 54.1027C153.925 54.1027 154.182 54.1258 154.406 54.172C154.631 54.2181 154.797 54.2597 154.905 54.2966L154.572 55.5892C154.502 55.5677 154.412 55.5461 154.305 55.5246C154.197 55.5 154.077 55.4877 153.945 55.4877C153.634 55.4877 153.414 55.5631 153.284 55.7139C153.158 55.8616 153.095 56.074 153.095 56.3509V64.0004H151.419Z" fill="#436C38"/>
<path d="M159.074 56.9095V58.2021H154.882V56.9095H159.074ZM155.93 64.0004V56.2401C155.93 55.7631 156.028 55.3661 156.225 55.0491C156.425 54.7321 156.693 54.4951 157.028 54.3382C157.364 54.1812 157.736 54.1027 158.146 54.1027C158.435 54.1027 158.692 54.1258 158.917 54.172C159.141 54.2181 159.307 54.2597 159.415 54.2966L159.083 55.5892C159.012 55.5677 158.923 55.5461 158.815 55.5246C158.707 55.5 158.587 55.4877 158.455 55.4877C158.144 55.4877 157.924 55.5631 157.795 55.7139C157.669 55.8616 157.606 56.074 157.606 56.3509V64.0004H155.93Z" fill="#436C38"/>
<path d="M160.285 64.102C160.005 64.102 159.765 64.0035 159.565 63.8066C159.365 63.6096 159.267 63.3695 159.27 63.0864C159.267 62.8094 159.365 62.5724 159.565 62.3754C159.765 62.1785 160.005 62.08 160.285 62.08C160.556 62.08 160.792 62.1785 160.992 62.3754C161.195 62.5724 161.298 62.8094 161.301 63.0864C161.298 63.2741 161.249 63.4449 161.153 63.5988C161.061 63.7527 160.938 63.8758 160.784 63.9681C160.633 64.0574 160.467 64.102 160.285 64.102Z" fill="#436C38"/>
<path d="M163.666 64.102C163.386 64.102 163.146 64.0035 162.946 63.8066C162.746 63.6096 162.647 63.3695 162.65 63.0864C162.647 62.8094 162.746 62.5724 162.946 62.3754C163.146 62.1785 163.386 62.08 163.666 62.08C163.937 62.08 164.172 62.1785 164.372 62.3754C164.575 62.5724 164.679 62.8094 164.682 63.0864C164.679 63.2741 164.629 63.4449 164.534 63.5988C164.442 63.7527 164.318 63.8758 164.165 63.9681C164.014 64.0574 163.848 64.102 163.666 64.102Z" fill="#436C38"/>
<path d="M167.047 64.102C166.766 64.102 166.526 64.0035 166.326 63.8066C166.126 63.6096 166.028 63.3695 166.031 63.0864C166.028 62.8094 166.126 62.5724 166.326 62.3754C166.526 62.1785 166.766 62.08 167.047 62.08C167.317 62.08 167.553 62.1785 167.753 62.3754C167.956 62.5724 168.059 62.8094 168.062 63.0864C168.059 63.2741 168.01 63.4449 167.914 63.5988C167.822 63.7527 167.699 63.8758 167.545 63.9681C167.394 64.0574 167.228 64.102 167.047 64.102Z" fill="#436C38"/>
<g filter="url(#filter1_d_2420_13235)">
<rect x="8" y="88" width="185" height="40" rx="6" fill="white"/>
<rect x="8.5" y="88.5" width="184" height="39" rx="5.5" stroke="#D59240"/>
</g>
<path d="M166.244 119.418H183.149V104.253H166.244" fill="#EED3B3"/>
<path d="M173.453 119.419H175.939V101.768H173.453" fill="#D59240"/>
<path d="M165 101.768H184.392V104.254H165" fill="#D59240"/>
<path d="M174.963 101.784C176.888 95.0209 185.152 100.664 174.963 101.784" stroke="#D59240"/>
<path d="M174.019 101.413C165.482 101.767 169.605 94.1527 174.019 101.413" stroke="#D59240"/>
<path d="M174.611 101.915C170.253 94.5665 178.912 94.5877 174.611 101.915" stroke="#D59240"/>
<path d="M24.4587 106.328H22.5922C22.5581 106.086 22.4885 105.872 22.3834 105.684C22.2783 105.494 22.1433 105.332 21.9786 105.199C21.8138 105.065 21.6234 104.963 21.4075 104.892C21.1945 104.821 20.9629 104.785 20.7129 104.785C20.2612 104.785 19.8678 104.897 19.5325 105.122C19.1973 105.343 18.9374 105.667 18.7527 106.093C18.568 106.517 18.4757 107.031 18.4757 107.636C18.4757 108.258 18.568 108.781 18.7527 109.204C18.9402 109.627 19.2016 109.947 19.5368 110.163C19.872 110.379 20.2598 110.487 20.7002 110.487C20.9473 110.487 21.176 110.454 21.3862 110.389C21.5993 110.324 21.7882 110.228 21.953 110.103C22.1178 109.975 22.2541 109.821 22.3621 109.639C22.4729 109.457 22.5496 109.25 22.5922 109.017L24.4587 109.025C24.4104 109.426 24.2896 109.812 24.0965 110.184C23.9061 110.554 23.649 110.885 23.3252 111.177C23.0041 111.467 22.6206 111.697 22.1746 111.868C21.7314 112.035 21.23 112.119 20.6703 112.119C19.8919 112.119 19.1959 111.943 18.5823 111.591C17.9715 111.238 17.4885 110.728 17.1334 110.061C16.7811 109.393 16.605 108.585 16.605 107.636C16.605 106.684 16.784 105.875 17.1419 105.207C17.4999 104.539 17.9857 104.031 18.5993 103.681C19.2129 103.329 19.9033 103.153 20.6703 103.153C21.176 103.153 21.6448 103.224 22.0766 103.366C22.5112 103.508 22.8962 103.716 23.2314 103.988C23.5666 104.258 23.8394 104.589 24.0496 104.981C24.2627 105.373 24.399 105.822 24.4587 106.328Z" fill="#D59240"/>
<path d="M26.9505 114.454C26.7204 114.454 26.5045 114.436 26.3028 114.399C26.1039 114.365 25.9391 114.321 25.8085 114.267L26.2176 112.912C26.4306 112.977 26.6224 113.012 26.7928 113.018C26.9661 113.024 27.1153 112.984 27.2403 112.899C27.3681 112.814 27.4718 112.669 27.5514 112.464L27.6579 112.187L25.3099 105.454H27.219L28.5741 110.261H28.6423L30.0102 105.454H31.932L29.388 112.707C29.2658 113.059 29.0997 113.366 28.8894 113.627C28.682 113.892 28.4193 114.095 28.1011 114.237C27.7829 114.382 27.3994 114.454 26.9505 114.454Z" fill="#D59240"/>
<path d="M32.8951 112V103.272H34.7104V106.554H34.7658C34.8454 106.377 34.9604 106.199 35.111 106.017C35.2644 105.832 35.4633 105.679 35.7076 105.556C35.9548 105.431 36.2616 105.369 36.6281 105.369C37.1053 105.369 37.5457 105.494 37.9491 105.744C38.3525 105.991 38.6749 106.365 38.9164 106.865C39.1579 107.362 39.2786 107.985 39.2786 108.735C39.2786 109.466 39.1607 110.082 38.9249 110.585C38.692 111.085 38.3738 111.464 37.9704 111.723C37.5698 111.978 37.121 112.106 36.6238 112.106C36.2715 112.106 35.9718 112.048 35.7247 111.931C35.4803 111.815 35.2801 111.669 35.1238 111.493C34.9676 111.314 34.8482 111.133 34.7658 110.951H34.6849V112H32.8951ZM34.6721 108.727C34.6721 109.116 34.7261 109.456 34.834 109.745C34.942 110.035 35.0982 110.261 35.3028 110.423C35.5073 110.582 35.7559 110.662 36.0485 110.662C36.344 110.662 36.594 110.581 36.7985 110.419C37.0031 110.254 37.1579 110.027 37.263 109.737C37.371 109.444 37.4249 109.108 37.4249 108.727C37.4249 108.349 37.3724 108.017 37.2673 107.73C37.1622 107.443 37.0073 107.218 36.8028 107.056C36.5982 106.895 36.3468 106.814 36.0485 106.814C35.7531 106.814 35.5031 106.892 35.2985 107.048C35.0968 107.204 34.942 107.426 34.834 107.713C34.7261 108 34.6721 108.338 34.6721 108.727Z" fill="#D59240"/>
<path d="M43.4729 112.127C42.7996 112.127 42.22 111.991 41.7342 111.718C41.2513 111.443 40.8791 111.054 40.6178 110.551C40.3564 110.045 40.2257 109.447 40.2257 108.757C40.2257 108.083 40.3564 107.493 40.6178 106.984C40.8791 106.475 41.247 106.079 41.7215 105.795C42.1987 105.511 42.7584 105.369 43.4004 105.369C43.8323 105.369 44.2342 105.439 44.6064 105.578C44.9814 105.714 45.3081 105.92 45.5865 106.196C45.8678 106.471 46.0865 106.818 46.2428 107.235C46.399 107.65 46.4771 108.136 46.4771 108.693V109.191H40.9502V108.066H44.7683C44.7683 107.805 44.7115 107.574 44.5979 107.372C44.4842 107.17 44.3266 107.012 44.1249 106.899C43.926 106.782 43.6945 106.724 43.4303 106.724C43.1547 106.724 42.9104 106.788 42.6973 106.916C42.4871 107.041 42.3223 107.21 42.203 107.423C42.0837 107.633 42.0226 107.868 42.0198 108.126V109.196C42.0198 109.52 42.0794 109.799 42.1987 110.035C42.3209 110.271 42.4928 110.453 42.7144 110.581C42.9359 110.708 43.1987 110.772 43.5027 110.772C43.7044 110.772 43.8891 110.744 44.0567 110.687C44.2243 110.63 44.3678 110.545 44.4871 110.431C44.6064 110.318 44.6973 110.179 44.7598 110.014L46.4388 110.125C46.3536 110.528 46.1788 110.88 45.9146 111.181C45.6533 111.48 45.3152 111.713 44.9004 111.88C44.4885 112.045 44.0126 112.127 43.4729 112.127Z" fill="#D59240"/>
<path d="M47.6618 112V105.454H49.4217V106.596H49.4899C49.6092 106.19 49.8095 105.883 50.0908 105.676C50.372 105.466 50.6959 105.36 51.0624 105.36C51.1533 105.36 51.2513 105.366 51.3564 105.377C51.4615 105.389 51.5538 105.404 51.6334 105.424V107.035C51.5482 107.01 51.4303 106.987 51.2797 106.967C51.1291 106.947 50.9913 106.937 50.8663 106.937C50.5993 106.937 50.3607 106.995 50.1504 107.112C49.9431 107.225 49.7783 107.385 49.6561 107.589C49.5368 107.794 49.4771 108.029 49.4771 108.297V112H47.6618Z" fill="#D59240"/>
<path d="M55.3834 103.272H57.659L60.0624 109.136H60.1646L62.568 103.272H64.8436V112H63.0538V106.319H62.9814L60.7229 111.957H59.5041L57.2456 106.298H57.1732V112H55.3834V103.272Z" fill="#D59240"/>
<path d="M69.2872 112.127C68.6252 112.127 68.0528 111.987 67.5698 111.706C67.0897 111.422 66.719 111.027 66.4576 110.521C66.1962 110.012 66.0656 109.423 66.0656 108.752C66.0656 108.076 66.1962 107.485 66.4576 106.98C66.719 106.471 67.0897 106.076 67.5698 105.795C68.0528 105.511 68.6252 105.369 69.2872 105.369C69.9491 105.369 70.5201 105.511 71.0002 105.795C71.4832 106.076 71.8553 106.471 72.1167 106.98C72.3781 107.485 72.5087 108.076 72.5087 108.752C72.5087 109.423 72.3781 110.012 72.1167 110.521C71.8553 111.027 71.4832 111.422 71.0002 111.706C70.5201 111.987 69.9491 112.127 69.2872 112.127ZM69.2957 110.721C69.5968 110.721 69.8482 110.636 70.0499 110.466C70.2516 110.292 70.4036 110.056 70.5059 109.758C70.611 109.46 70.6636 109.12 70.6636 108.74C70.6636 108.359 70.611 108.02 70.5059 107.721C70.4036 107.423 70.2516 107.187 70.0499 107.014C69.8482 106.841 69.5968 106.754 69.2957 106.754C68.9917 106.754 68.736 106.841 68.5286 107.014C68.3241 107.187 68.1693 107.423 68.0641 107.721C67.9619 108.02 67.9107 108.359 67.9107 108.74C67.9107 109.12 67.9619 109.46 68.0641 109.758C68.1693 110.056 68.3241 110.292 68.5286 110.466C68.736 110.636 68.9917 110.721 69.2957 110.721Z" fill="#D59240"/>
<path d="M75.5045 108.216V112H73.6891V105.454H75.4193V106.609H75.496C75.6408 106.228 75.8837 105.927 76.2247 105.706C76.5656 105.481 76.9789 105.369 77.4647 105.369C77.9193 105.369 78.3156 105.468 78.6536 105.667C78.9917 105.866 79.2545 106.15 79.442 106.52C79.6295 106.886 79.7232 107.324 79.7232 107.832V112H77.9079V108.156C77.9107 107.755 77.8085 107.443 77.6011 107.218C77.3937 106.991 77.1082 106.877 76.7445 106.877C76.5002 106.877 76.2843 106.93 76.0968 107.035C75.9122 107.14 75.7673 107.294 75.6622 107.495C75.5599 107.694 75.5073 107.934 75.5045 108.216Z" fill="#D59240"/>
<path d="M83.5659 112.106C83.0688 112.106 82.6185 111.978 82.2151 111.723C81.8145 111.464 81.4963 111.085 81.2605 110.585C81.0276 110.082 80.9111 109.466 80.9111 108.735C80.9111 107.985 81.0318 107.362 81.2733 106.865C81.5148 106.365 81.8358 105.991 82.2364 105.744C82.6398 105.494 83.0816 105.369 83.5617 105.369C83.9281 105.369 84.2335 105.431 84.4779 105.556C84.725 105.679 84.9239 105.832 85.0744 106.017C85.2279 106.199 85.3443 106.377 85.4239 106.554H85.4793V103.272H87.2904V112H85.5006V110.951H85.4239C85.3386 111.133 85.2179 111.314 85.0617 111.493C84.9082 111.669 84.708 111.815 84.4608 111.931C84.2165 112.048 83.9182 112.106 83.5659 112.106ZM84.1412 110.662C84.4338 110.662 84.681 110.582 84.8827 110.423C85.0872 110.261 85.2435 110.035 85.3514 109.745C85.4622 109.456 85.5176 109.116 85.5176 108.727C85.5176 108.338 85.4637 108 85.3557 107.713C85.2477 107.426 85.0915 107.204 84.8869 107.048C84.6824 106.892 84.4338 106.814 84.1412 106.814C83.8429 106.814 83.5915 106.895 83.3869 107.056C83.1824 107.218 83.0276 107.443 82.9225 107.73C82.8173 108.017 82.7648 108.349 82.7648 108.727C82.7648 109.108 82.8173 109.444 82.9225 109.737C83.0304 110.027 83.1852 110.254 83.3869 110.419C83.5915 110.581 83.8429 110.662 84.1412 110.662Z" fill="#D59240"/>
<path d="M90.6494 112.123C90.2318 112.123 89.8596 112.051 89.5329 111.906C89.2062 111.758 88.9477 111.541 88.7573 111.254C88.5698 110.964 88.4761 110.603 88.4761 110.172C88.4761 109.808 88.5428 109.502 88.6764 109.255C88.8099 109.008 88.9917 108.809 89.2218 108.659C89.4519 108.508 89.7133 108.395 90.0059 108.318C90.3014 108.241 90.611 108.187 90.9349 108.156C91.3156 108.116 91.6224 108.079 91.8553 108.045C92.0883 108.008 92.2573 107.954 92.3624 107.883C92.4676 107.812 92.5201 107.707 92.5201 107.568V107.542C92.5201 107.272 92.4349 107.064 92.2644 106.916C92.0968 106.768 91.8582 106.694 91.5485 106.694C91.2218 106.694 90.9619 106.767 90.7687 106.912C90.5755 107.054 90.4477 107.233 90.3852 107.449L88.7062 107.312C88.7914 106.914 88.959 106.571 89.209 106.281C89.459 105.988 89.7815 105.764 90.1764 105.608C90.5741 105.449 91.0343 105.369 91.557 105.369C91.9207 105.369 92.2687 105.412 92.6011 105.497C92.9363 105.582 93.2332 105.714 93.4917 105.893C93.7531 106.072 93.959 106.302 94.1096 106.583C94.2602 106.862 94.3354 107.196 94.3354 107.585V112H92.6139V111.092H92.5627C92.4576 111.297 92.317 111.477 92.1409 111.633C91.9647 111.787 91.7531 111.907 91.5059 111.995C91.2587 112.081 90.9732 112.123 90.6494 112.123ZM91.1693 110.87C91.4363 110.87 91.6721 110.818 91.8766 110.713C92.0812 110.605 92.2417 110.46 92.3582 110.278C92.4747 110.096 92.5329 109.89 92.5329 109.66V108.966C92.4761 109.002 92.398 109.037 92.2985 109.068C92.2019 109.096 92.0926 109.123 91.9704 109.149C91.8482 109.172 91.7261 109.193 91.6039 109.213C91.4818 109.23 91.371 109.245 91.2715 109.26C91.0585 109.291 90.8724 109.341 90.7133 109.409C90.5542 109.477 90.4306 109.569 90.3426 109.686C90.2545 109.799 90.2104 109.941 90.2104 110.112C90.2104 110.359 90.2999 110.548 90.4789 110.679C90.6607 110.806 90.8908 110.87 91.1693 110.87Z" fill="#D59240"/>
<path d="M96.6302 114.454C96.4001 114.454 96.1842 114.436 95.9825 114.399C95.7836 114.365 95.6188 114.321 95.4882 114.267L95.8972 112.912C96.1103 112.977 96.3021 113.012 96.4725 113.018C96.6458 113.024 96.795 112.984 96.92 112.899C97.0478 112.814 97.1515 112.669 97.231 112.464L97.3376 112.187L94.9896 105.454H96.8987L98.2538 110.261H98.322L99.6899 105.454H101.612L99.0677 112.707C98.9455 113.059 98.7793 113.366 98.5691 113.627C98.3617 113.892 98.0989 114.095 97.7808 114.237C97.4626 114.382 97.0791 114.454 96.6302 114.454Z" fill="#D59240"/>
<path d="M108.489 112.119C107.886 112.119 107.349 112.008 106.878 111.787C106.409 111.565 106.037 111.26 105.761 110.87C105.486 110.481 105.342 110.035 105.331 109.532H107.121C107.14 109.87 107.283 110.145 107.547 110.355C107.811 110.565 108.125 110.67 108.489 110.67C108.778 110.67 109.034 110.606 109.256 110.478C109.48 110.348 109.655 110.167 109.78 109.937C109.908 109.704 109.971 109.437 109.971 109.136C109.971 108.829 109.906 108.559 109.775 108.326C109.648 108.093 109.47 107.912 109.243 107.781C109.015 107.65 108.756 107.583 108.463 107.581C108.207 107.581 107.959 107.633 107.717 107.738C107.479 107.843 107.292 107.987 107.159 108.169L105.518 107.875L105.932 103.272H111.267V104.781H107.453L107.227 106.967H107.278C107.432 106.751 107.663 106.572 107.973 106.43C108.283 106.288 108.629 106.217 109.013 106.217C109.538 106.217 110.007 106.341 110.419 106.588C110.831 106.835 111.156 107.174 111.395 107.606C111.633 108.035 111.751 108.529 111.748 109.089C111.751 109.677 111.615 110.2 111.339 110.657C111.067 111.112 110.685 111.47 110.193 111.731C109.704 111.99 109.136 112.119 108.489 112.119Z" fill="#D59240"/>
<path d="M116.223 112.119C115.621 112.119 115.084 112.008 114.612 111.787C114.143 111.565 113.771 111.26 113.496 110.87C113.22 110.481 113.077 110.035 113.065 109.532H114.855C114.875 109.87 115.017 110.145 115.281 110.355C115.545 110.565 115.859 110.67 116.223 110.67C116.513 110.67 116.768 110.606 116.99 110.478C117.214 110.348 117.389 110.167 117.514 109.937C117.642 109.704 117.706 109.437 117.706 109.136C117.706 108.829 117.64 108.559 117.51 108.326C117.382 108.093 117.204 107.912 116.977 107.781C116.75 107.65 116.49 107.583 116.197 107.581C115.942 107.581 115.693 107.633 115.452 107.738C115.213 107.843 115.027 107.987 114.893 108.169L113.253 107.875L113.666 103.272H119.001V104.781H115.187L114.962 106.967H115.013C115.166 106.751 115.398 106.572 115.707 106.43C116.017 106.288 116.364 106.217 116.747 106.217C117.273 106.217 117.741 106.341 118.153 106.588C118.565 106.835 118.89 107.174 119.129 107.606C119.368 108.035 119.486 108.529 119.483 109.089C119.486 109.677 119.349 110.2 119.074 110.657C118.801 111.112 118.419 111.47 117.927 111.731C117.439 111.99 116.871 112.119 116.223 112.119Z" fill="#D59240"/>
<path d="M125.547 110.363V109.903C125.547 109.554 125.621 109.233 125.768 108.94C125.919 108.645 126.136 108.409 126.42 108.233C126.707 108.054 127.057 107.964 127.469 107.964C127.886 107.964 128.237 108.052 128.521 108.228C128.808 108.404 129.024 108.64 129.169 108.936C129.317 109.228 129.39 109.551 129.39 109.903V110.363C129.39 110.713 129.317 111.035 129.169 111.331C129.021 111.623 128.804 111.858 128.517 112.034C128.23 112.213 127.881 112.302 127.469 112.302C127.051 112.302 126.7 112.213 126.416 112.034C126.132 111.858 125.916 111.623 125.768 111.331C125.621 111.035 125.547 110.713 125.547 110.363ZM126.787 109.903V110.363C126.787 110.565 126.835 110.755 126.932 110.934C127.031 111.113 127.21 111.203 127.469 111.203C127.727 111.203 127.903 111.115 127.997 110.939C128.094 110.762 128.142 110.571 128.142 110.363V109.903C128.142 109.696 128.096 109.502 128.006 109.324C127.915 109.145 127.736 109.055 127.469 109.055C127.213 109.055 127.035 109.145 126.936 109.324C126.837 109.502 126.787 109.696 126.787 109.903ZM121.068 105.369V104.909C121.068 104.556 121.143 104.234 121.294 103.941C121.444 103.646 121.662 103.41 121.946 103.234C122.233 103.058 122.579 102.97 122.986 102.97C123.406 102.97 123.758 103.058 124.042 103.234C124.327 103.41 124.542 103.646 124.69 103.941C124.838 104.234 124.912 104.556 124.912 104.909V105.369C124.912 105.721 124.837 106.044 124.686 106.336C124.538 106.629 124.321 106.863 124.034 107.039C123.75 107.213 123.4 107.299 122.986 107.299C122.571 107.299 122.22 107.211 121.933 107.035C121.649 106.856 121.433 106.622 121.285 106.332C121.14 106.039 121.068 105.718 121.068 105.369ZM122.317 104.909V105.369C122.317 105.576 122.365 105.768 122.462 105.944C122.561 106.12 122.736 106.208 122.986 106.208C123.247 106.208 123.425 106.12 123.518 105.944C123.615 105.768 123.663 105.576 123.663 105.369V104.909C123.663 104.701 123.618 104.508 123.527 104.329C123.436 104.15 123.256 104.061 122.986 104.061C122.733 104.061 122.558 104.152 122.462 104.333C122.365 104.515 122.317 104.707 122.317 104.909ZM121.631 112L127.631 103.272H128.747L122.747 112H121.631Z" fill="#D59240"/>
<path d="M136.834 112.127C136.172 112.127 135.6 111.987 135.117 111.706C134.637 111.422 134.266 111.027 134.004 110.521C133.743 110.012 133.612 109.423 133.612 108.752C133.612 108.076 133.743 107.485 134.004 106.98C134.266 106.471 134.637 106.076 135.117 105.795C135.6 105.511 136.172 105.369 136.834 105.369C137.496 105.369 138.067 105.511 138.547 105.795C139.03 106.076 139.402 106.471 139.664 106.98C139.925 107.485 140.056 108.076 140.056 108.752C140.056 109.423 139.925 110.012 139.664 110.521C139.402 111.027 139.03 111.422 138.547 111.706C138.067 111.987 137.496 112.127 136.834 112.127ZM136.843 110.721C137.144 110.721 137.395 110.636 137.597 110.466C137.799 110.292 137.951 110.056 138.053 109.758C138.158 109.46 138.21 109.12 138.21 108.74C138.21 108.359 138.158 108.02 138.053 107.721C137.951 107.423 137.799 107.187 137.597 107.014C137.395 106.841 137.144 106.754 136.843 106.754C136.539 106.754 136.283 106.841 136.076 107.014C135.871 107.187 135.716 107.423 135.611 107.721C135.509 108.02 135.458 108.359 135.458 108.74C135.458 109.12 135.509 109.46 135.611 109.758C135.716 110.056 135.871 110.292 136.076 110.466C136.283 110.636 136.539 110.721 136.843 110.721Z" fill="#D59240"/>
<path d="M144.756 105.454V106.818H140.716V105.454H144.756ZM141.641 112V104.981C141.641 104.507 141.733 104.113 141.918 103.801C142.105 103.488 142.361 103.254 142.685 103.098C143.009 102.941 143.377 102.863 143.789 102.863C144.067 102.863 144.321 102.885 144.551 102.927C144.784 102.97 144.958 103.008 145.071 103.042L144.747 104.406C144.676 104.383 144.588 104.362 144.483 104.342C144.381 104.322 144.276 104.312 144.168 104.312C143.901 104.312 143.715 104.375 143.61 104.5C143.504 104.622 143.452 104.794 143.452 105.015V112H141.641Z" fill="#D59240"/>
<path d="M149.385 105.454V106.818H145.345V105.454H149.385ZM146.27 112V104.981C146.27 104.507 146.362 104.113 146.547 103.801C146.734 103.488 146.99 103.254 147.314 103.098C147.638 102.941 148.006 102.863 148.417 102.863C148.696 102.863 148.95 102.885 149.18 102.927C149.413 102.97 149.587 103.008 149.7 103.042L149.376 104.406C149.305 104.383 149.217 104.362 149.112 104.342C149.01 104.322 148.905 104.312 148.797 104.312C148.53 104.312 148.344 104.375 148.238 104.5C148.133 104.622 148.081 104.794 148.081 105.015V112H146.27Z" fill="#D59240"/>
<path d="M150.875 112.11C150.594 112.11 150.352 112.011 150.151 111.812C149.952 111.61 149.852 111.369 149.852 111.088C149.852 110.809 149.952 110.571 150.151 110.372C150.352 110.173 150.594 110.074 150.875 110.074C151.148 110.074 151.387 110.173 151.591 110.372C151.796 110.571 151.898 110.809 151.898 111.088C151.898 111.275 151.85 111.447 151.753 111.603C151.659 111.757 151.536 111.88 151.382 111.974C151.229 112.065 151.06 112.11 150.875 112.11Z" fill="#D59240"/>
<path d="M154.449 112.11C154.168 112.11 153.927 112.011 153.725 111.812C153.526 111.61 153.427 111.369 153.427 111.088C153.427 110.809 153.526 110.571 153.725 110.372C153.927 110.173 154.168 110.074 154.449 110.074C154.722 110.074 154.961 110.173 155.165 110.372C155.37 110.571 155.472 110.809 155.472 111.088C155.472 111.275 155.424 111.447 155.327 111.603C155.234 111.757 155.11 111.88 154.957 111.974C154.803 112.065 154.634 112.11 154.449 112.11Z" fill="#D59240"/>
<path d="M158.024 112.11C157.742 112.11 157.501 112.011 157.299 111.812C157.1 111.61 157.001 111.369 157.001 111.088C157.001 110.809 157.1 110.571 157.299 110.372C157.501 110.173 157.742 110.074 158.024 110.074C158.296 110.074 158.535 110.173 158.74 110.372C158.944 110.571 159.046 110.809 159.046 111.088C159.046 111.275 158.998 111.447 158.901 111.603C158.808 111.757 158.684 111.88 158.531 111.974C158.377 112.065 158.208 112.11 158.024 112.11Z" fill="#D59240"/>
<g filter="url(#filter2_d_2420_13235)">
<rect x="25" y="136" width="171" height="40" rx="6" fill="white"/>
<rect x="25.5" y="136.5" width="170" height="39" rx="5.5" stroke="#0049A3"/>
</g>
<path d="M169.244 167.418H186.149V152.253H169.244" fill="#D9EAFF"/>
<path d="M176.453 167.419H178.939V149.768H176.453" fill="#759FD2"/>
<path d="M168 149.768H187.392V152.254H168" fill="#759FD2"/>
<path d="M177.963 149.784C179.888 143.021 188.152 148.664 177.963 149.784" stroke="#759FD2"/>
<path d="M177.019 149.413C168.482 149.767 172.605 142.153 177.019 149.413" stroke="#759FD2"/>
<path d="M177.611 149.915C173.253 142.567 181.912 142.588 177.611 149.915" stroke="#759FD2"/>
<path d="M41.4587 154.328H39.5922C39.5581 154.087 39.4885 153.872 39.3834 153.685C39.2783 153.495 39.1433 153.333 38.9786 153.199C38.8138 153.066 38.6234 152.963 38.4075 152.892C38.1945 152.821 37.9629 152.786 37.7129 152.786C37.2612 152.786 36.8678 152.898 36.5325 153.122C36.1973 153.344 35.9374 153.668 35.7527 154.094C35.568 154.517 35.4757 155.032 35.4757 155.637C35.4757 156.259 35.568 156.782 35.7527 157.205C35.9402 157.628 36.2016 157.948 36.5368 158.164C36.872 158.38 37.2598 158.487 37.7002 158.487C37.9473 158.487 38.176 158.455 38.3862 158.389C38.5993 158.324 38.7882 158.229 38.953 158.104C39.1178 157.976 39.2541 157.821 39.3621 157.639C39.4729 157.458 39.5496 157.25 39.5922 157.017L41.4587 157.026C41.4104 157.426 41.2896 157.813 41.0965 158.185C40.9061 158.554 40.649 158.885 40.3252 159.178C40.0041 159.468 39.6206 159.698 39.1746 159.868C38.7314 160.036 38.23 160.12 37.6703 160.12C36.8919 160.12 36.1959 159.943 35.5823 159.591C34.9715 159.239 34.4885 158.729 34.1334 158.061C33.7811 157.394 33.605 156.585 33.605 155.637C33.605 154.685 33.784 153.875 34.1419 153.208C34.4999 152.54 34.9857 152.032 35.5993 151.682C36.2129 151.33 36.9033 151.154 37.6703 151.154C38.176 151.154 38.6448 151.225 39.0766 151.367C39.5112 151.509 39.8962 151.716 40.2314 151.989C40.5666 152.259 40.8394 152.59 41.0496 152.982C41.2627 153.374 41.399 153.823 41.4587 154.328Z" fill="#0049A3"/>
<path d="M44.5631 156.216V160H42.7477V151.273H44.5119V154.61H44.5886C44.7364 154.223 44.975 153.921 45.3046 153.702C45.6341 153.48 46.0475 153.37 46.5446 153.37C46.9992 153.37 47.3955 153.469 47.7335 153.668C48.0744 153.864 48.3386 154.147 48.5261 154.516C48.7165 154.882 48.8102 155.321 48.8074 155.833V160H46.9921V156.157C46.9949 155.753 46.8926 155.439 46.6852 155.215C46.4807 154.99 46.1938 154.878 45.8244 154.878C45.5773 154.878 45.3585 154.931 45.1682 155.036C44.9807 155.141 44.833 155.294 44.725 155.496C44.6199 155.695 44.5659 155.935 44.5631 156.216Z" fill="#0049A3"/>
<path d="M50.236 160V153.455H51.996V154.597H52.0641C52.1835 154.191 52.3837 153.884 52.665 153.676C52.9462 153.466 53.2701 153.361 53.6366 153.361C53.7275 153.361 53.8255 153.367 53.9306 153.378C54.0357 153.389 54.1281 153.405 54.2076 153.425V155.036C54.1224 155.01 54.0045 154.987 53.8539 154.968C53.7033 154.948 53.5656 154.938 53.4406 154.938C53.1735 154.938 52.9349 154.996 52.7247 155.112C52.5173 155.226 52.3525 155.385 52.2303 155.59C52.111 155.794 52.0514 156.03 52.0514 156.297V160H50.236Z" fill="#0049A3"/>
<path d="M55.1462 160V153.455H56.9615V160H55.1462ZM56.0581 152.611C55.7882 152.611 55.5567 152.522 55.3635 152.343C55.1732 152.161 55.078 151.943 55.078 151.691C55.078 151.441 55.1732 151.226 55.3635 151.047C55.5567 150.865 55.7882 150.774 56.0581 150.774C56.328 150.774 56.5581 150.865 56.7484 151.047C56.9416 151.226 57.0382 151.441 57.0382 151.691C57.0382 151.943 56.9416 152.161 56.7484 152.343C56.5581 152.522 56.328 152.611 56.0581 152.611Z" fill="#0049A3"/>
<path d="M63.8617 155.321L62.1998 155.424C62.1714 155.282 62.1103 155.154 62.0166 155.04C61.9228 154.924 61.7992 154.831 61.6458 154.763C61.4953 154.692 61.3149 154.657 61.1046 154.657C60.8234 154.657 60.5862 154.716 60.393 154.835C60.1998 154.952 60.1032 155.108 60.1032 155.304C60.1032 155.46 60.1657 155.593 60.2907 155.701C60.4157 155.809 60.6302 155.895 60.9342 155.96L62.1188 156.199C62.7552 156.33 63.2296 156.54 63.5421 156.83C63.8546 157.12 64.0109 157.5 64.0109 157.972C64.0109 158.401 63.8845 158.777 63.6316 159.101C63.3816 159.425 63.0379 159.678 62.6004 159.86C62.1657 160.039 61.6643 160.128 61.0961 160.128C60.2296 160.128 59.5393 159.948 59.0251 159.587C58.5137 159.223 58.214 158.729 58.1259 158.104L59.9114 158.01C59.9654 158.274 60.0961 158.476 60.3035 158.615C60.5109 158.752 60.7765 158.82 61.1004 158.82C61.4185 158.82 61.6742 158.759 61.8674 158.637C62.0634 158.512 62.1629 158.351 62.1657 158.155C62.1629 157.99 62.0933 157.855 61.9569 157.75C61.8205 157.642 61.6103 157.56 61.3262 157.503L60.1927 157.277C59.5535 157.149 59.0776 156.928 58.7651 156.612C58.4555 156.297 58.3006 155.895 58.3006 155.407C58.3006 154.986 58.4143 154.624 58.6416 154.32C58.8717 154.016 59.1941 153.782 59.6089 153.617C60.0265 153.452 60.5151 153.37 61.0748 153.37C61.9015 153.37 62.5521 153.544 63.0265 153.894C63.5038 154.243 63.7822 154.719 63.8617 155.321Z" fill="#0049A3"/>
<path d="M68.6355 153.455V154.818H64.6938V153.455H68.6355ZM65.5886 151.887H67.404V157.989C67.404 158.157 67.4296 158.287 67.4807 158.381C67.5318 158.472 67.6029 158.536 67.6938 158.573C67.7875 158.61 67.8955 158.628 68.0176 158.628C68.1029 158.628 68.1881 158.621 68.2733 158.607C68.3585 158.59 68.4239 158.577 68.4693 158.568L68.7548 159.919C68.6639 159.948 68.5361 159.98 68.3713 160.017C68.2065 160.057 68.0063 160.081 67.7705 160.09C67.333 160.107 66.9494 160.049 66.6199 159.915C66.2932 159.782 66.0389 159.574 65.8571 159.293C65.6753 159.012 65.5858 158.657 65.5886 158.228V151.887Z" fill="#0049A3"/>
<path d="M69.818 160V153.455H71.5482V154.61H71.6249C71.7612 154.226 71.9885 153.924 72.3067 153.702C72.6249 153.48 73.0055 153.37 73.4487 153.37C73.8976 153.37 74.2797 153.482 74.595 153.706C74.9104 153.928 75.1206 154.229 75.2257 154.61H75.2939C75.4274 154.235 75.6689 153.935 76.0183 153.71C76.3706 153.483 76.7868 153.37 77.2669 153.37C77.8777 153.37 78.3734 153.564 78.7541 153.953C79.1376 154.34 79.3294 154.888 79.3294 155.598V160H77.5183V155.956C77.5183 155.593 77.4217 155.32 77.2286 155.138C77.0354 154.956 76.7939 154.865 76.5041 154.865C76.1746 154.865 75.9175 154.97 75.7328 155.181C75.5482 155.388 75.4558 155.662 75.4558 156.003V160H73.6959V155.918C73.6959 155.597 73.6036 155.341 73.4189 155.151C73.2371 154.96 72.997 154.865 72.6987 154.865C72.497 154.865 72.3152 154.916 72.1533 155.019C71.9942 155.118 71.8678 155.259 71.774 155.441C71.6803 155.62 71.6334 155.83 71.6334 156.071V160H69.818Z" fill="#0049A3"/>
<path d="M82.6298 160.124C82.2122 160.124 81.8401 160.051 81.5134 159.907C81.1867 159.759 80.9281 159.541 80.7378 159.255C80.5503 158.965 80.4565 158.604 80.4565 158.172C80.4565 157.809 80.5233 157.503 80.6568 157.256C80.7903 157.009 80.9722 156.81 81.2023 156.659C81.4324 156.509 81.6938 156.395 81.9864 156.318C82.2818 156.242 82.5915 156.188 82.9153 156.157C83.296 156.117 83.6028 156.08 83.8358 156.046C84.0688 156.009 84.2378 155.955 84.3429 155.884C84.448 155.813 84.5006 155.708 84.5006 155.568V155.543C84.5006 155.273 84.4154 155.064 84.2449 154.916C84.0773 154.769 83.8386 154.695 83.529 154.695C83.2023 154.695 82.9423 154.767 82.7492 154.912C82.556 155.054 82.4281 155.233 82.3656 155.449L80.6867 155.313C80.7719 154.915 80.9395 154.571 81.1895 154.282C81.4395 153.989 81.7619 153.764 82.1568 153.608C82.5546 153.449 83.0148 153.37 83.5375 153.37C83.9011 153.37 84.2492 153.412 84.5815 153.497C84.9168 153.583 85.2136 153.715 85.4722 153.894C85.7335 154.073 85.9395 154.303 86.0901 154.584C86.2406 154.862 86.3159 155.196 86.3159 155.585V160H84.5943V159.093H84.5432C84.4381 159.297 84.2975 159.478 84.1213 159.634C83.9452 159.787 83.7335 159.908 83.4864 159.996C83.2392 160.081 82.9537 160.124 82.6298 160.124ZM83.1497 158.871C83.4168 158.871 83.6526 158.818 83.8571 158.713C84.0617 158.605 84.2222 158.46 84.3386 158.279C84.4551 158.097 84.5134 157.891 84.5134 157.661V156.966C84.4565 157.003 84.3784 157.037 84.279 157.068C84.1824 157.097 84.073 157.124 83.9509 157.149C83.8287 157.172 83.7065 157.193 83.5844 157.213C83.4622 157.23 83.3514 157.246 83.252 157.26C83.0389 157.291 82.8529 157.341 82.6938 157.409C82.5347 157.478 82.4111 157.57 82.323 157.686C82.235 157.8 82.1909 157.942 82.1909 158.112C82.1909 158.36 82.2804 158.549 82.4594 158.679C82.6412 158.807 82.8713 158.871 83.1497 158.871Z" fill="#0049A3"/>
<path d="M93.1703 155.321L91.5084 155.424C91.48 155.282 91.4189 155.154 91.3251 155.04C91.2314 154.924 91.1078 154.831 90.9544 154.763C90.8038 154.692 90.6234 154.657 90.4132 154.657C90.132 154.657 89.8948 154.716 89.7016 154.835C89.5084 154.952 89.4118 155.108 89.4118 155.304C89.4118 155.46 89.4743 155.593 89.5993 155.701C89.7243 155.809 89.9388 155.895 90.2428 155.96L91.4274 156.199C92.0638 156.33 92.5382 156.54 92.8507 156.83C93.1632 157.12 93.3195 157.5 93.3195 157.972C93.3195 158.401 93.1931 158.777 92.9402 159.101C92.6902 159.425 92.3465 159.678 91.909 159.86C91.4743 160.039 90.9729 160.128 90.4047 160.128C89.5382 160.128 88.8479 159.948 88.3337 159.587C87.8223 159.223 87.5226 158.729 87.4345 158.104L89.22 158.01C89.274 158.274 89.4047 158.476 89.6121 158.615C89.8195 158.752 90.0851 158.82 90.409 158.82C90.7271 158.82 90.9828 158.759 91.176 158.637C91.372 158.512 91.4715 158.351 91.4743 158.155C91.4715 157.99 91.4019 157.855 91.2655 157.75C91.1291 157.642 90.9189 157.56 90.6348 157.503L89.5013 157.277C88.8621 157.149 88.3862 156.928 88.0737 156.612C87.7641 156.297 87.6092 155.895 87.6092 155.407C87.6092 154.986 87.7229 154.624 87.9501 154.32C88.1803 154.016 88.5027 153.782 88.9175 153.617C89.3351 153.452 89.8237 153.37 90.3834 153.37C91.2101 153.37 91.8607 153.544 92.3351 153.894C92.8124 154.243 93.0908 154.719 93.1703 155.321Z" fill="#0049A3"/>
<path d="M97.2229 160V158.671L100.329 155.794C100.594 155.539 100.815 155.309 100.994 155.104C101.176 154.899 101.314 154.699 101.408 154.503C101.501 154.304 101.548 154.09 101.548 153.86C101.548 153.604 101.49 153.384 101.373 153.199C101.257 153.012 101.098 152.868 100.896 152.769C100.694 152.666 100.466 152.615 100.21 152.615C99.9431 152.615 99.7101 152.669 99.5112 152.777C99.3124 152.885 99.159 153.04 99.051 153.242C98.9431 153.443 98.8891 153.684 98.8891 153.962H97.1377C97.1377 153.391 97.2669 152.895 97.5254 152.475C97.784 152.054 98.1462 151.729 98.6121 151.499C99.078 151.269 99.6149 151.154 100.223 151.154C100.848 151.154 101.392 151.264 101.855 151.486C102.321 151.705 102.683 152.009 102.942 152.398C103.2 152.787 103.329 153.233 103.329 153.736C103.329 154.066 103.264 154.391 103.133 154.712C103.006 155.033 102.777 155.389 102.447 155.782C102.118 156.171 101.653 156.638 101.054 157.184L99.7797 158.432V158.492H103.444V160H97.2229Z" fill="#0049A3"/>
<path d="M107.969 160.12C107.367 160.12 106.83 160.009 106.358 159.787C105.889 159.566 105.517 159.26 105.242 158.871C104.966 158.482 104.823 158.036 104.811 157.533H106.601C106.621 157.871 106.763 158.145 107.027 158.355C107.291 158.566 107.605 158.671 107.969 158.671C108.259 158.671 108.514 158.607 108.736 158.479C108.96 158.348 109.135 158.168 109.26 157.938C109.388 157.705 109.452 157.438 109.452 157.137C109.452 156.83 109.387 156.56 109.256 156.327C109.128 156.094 108.951 155.912 108.723 155.782C108.496 155.651 108.236 155.584 107.943 155.581C107.688 155.581 107.439 155.634 107.198 155.739C106.959 155.844 106.773 155.987 106.639 156.169L104.999 155.875L105.412 151.273H110.747V152.782H106.933L106.708 154.968H106.759C106.912 154.752 107.144 154.573 107.453 154.431C107.763 154.289 108.11 154.218 108.493 154.218C109.019 154.218 109.487 154.341 109.899 154.588C110.311 154.835 110.637 155.175 110.875 155.607C111.114 156.036 111.232 156.53 111.229 157.09C111.232 157.678 111.095 158.201 110.82 158.658C110.547 159.112 110.165 159.47 109.674 159.732C109.185 159.99 108.617 160.12 107.969 160.12Z" fill="#0049A3"/>
<path d="M117.293 158.364V157.904C117.293 157.554 117.367 157.233 117.514 156.941C117.665 156.645 117.882 156.409 118.166 156.233C118.453 156.054 118.803 155.965 119.215 155.965C119.632 155.965 119.983 156.053 120.267 156.229C120.554 156.405 120.77 156.641 120.915 156.936C121.063 157.229 121.137 157.551 121.137 157.904V158.364C121.137 158.713 121.063 159.036 120.915 159.331C120.767 159.624 120.55 159.858 120.263 160.034C119.976 160.213 119.627 160.303 119.215 160.303C118.797 160.303 118.446 160.213 118.162 160.034C117.878 159.858 117.662 159.624 117.514 159.331C117.367 159.036 117.293 158.713 117.293 158.364ZM118.533 157.904V158.364C118.533 158.566 118.581 158.756 118.678 158.935C118.777 159.114 118.956 159.203 119.215 159.203C119.473 159.203 119.649 159.115 119.743 158.939C119.84 158.763 119.888 158.571 119.888 158.364V157.904C119.888 157.696 119.843 157.503 119.752 157.324C119.661 157.145 119.482 157.056 119.215 157.056C118.959 157.056 118.781 157.145 118.682 157.324C118.583 157.503 118.533 157.696 118.533 157.904ZM112.814 153.37V152.909C112.814 152.557 112.889 152.235 113.04 151.942C113.191 151.647 113.408 151.411 113.692 151.235C113.979 151.059 114.326 150.97 114.732 150.97C115.152 150.97 115.504 151.059 115.789 151.235C116.073 151.411 116.289 151.647 116.436 151.942C116.584 152.235 116.658 152.557 116.658 152.909V153.37C116.658 153.722 116.583 154.044 116.432 154.337C116.284 154.63 116.067 154.864 115.78 155.04C115.496 155.213 115.147 155.3 114.732 155.3C114.317 155.3 113.966 155.212 113.679 155.036C113.395 154.857 113.179 154.622 113.031 154.333C112.887 154.04 112.814 153.719 112.814 153.37ZM114.063 152.909V153.37C114.063 153.577 114.111 153.769 114.208 153.945C114.307 154.121 114.482 154.209 114.732 154.209C114.993 154.209 115.171 154.121 115.264 153.945C115.361 153.769 115.409 153.577 115.409 153.37V152.909C115.409 152.702 115.364 152.509 115.273 152.33C115.182 152.151 115.002 152.061 114.732 152.061C114.479 152.061 114.304 152.152 114.208 152.334C114.111 152.516 114.063 152.708 114.063 152.909ZM113.377 160L119.377 151.273H120.493L114.493 160H113.377Z" fill="#0049A3"/>
<path d="M128.58 160.128C127.918 160.128 127.346 159.987 126.863 159.706C126.383 159.422 126.012 159.027 125.751 158.522C125.489 158.013 125.359 157.424 125.359 156.753C125.359 156.077 125.489 155.486 125.751 154.98C126.012 154.472 126.383 154.077 126.863 153.796C127.346 153.512 127.918 153.37 128.58 153.37C129.242 153.37 129.813 153.512 130.293 153.796C130.776 154.077 131.148 154.472 131.41 154.98C131.671 155.486 131.802 156.077 131.802 156.753C131.802 157.424 131.671 158.013 131.41 158.522C131.148 159.027 130.776 159.422 130.293 159.706C129.813 159.987 129.242 160.128 128.58 160.128ZM128.589 158.722C128.89 158.722 129.141 158.637 129.343 158.466C129.545 158.293 129.697 158.057 129.799 157.759C129.904 157.46 129.957 157.121 129.957 156.74C129.957 156.36 129.904 156.02 129.799 155.722C129.697 155.424 129.545 155.188 129.343 155.014C129.141 154.841 128.89 154.755 128.589 154.755C128.285 154.755 128.029 154.841 127.822 155.014C127.617 155.188 127.462 155.424 127.357 155.722C127.255 156.02 127.204 156.36 127.204 156.74C127.204 157.121 127.255 157.46 127.357 157.759C127.462 158.057 127.617 158.293 127.822 158.466C128.029 158.637 128.285 158.722 128.589 158.722Z" fill="#0049A3"/>
<path d="M136.502 153.455V154.818H132.462V153.455H136.502ZM133.387 160V152.982C133.387 152.507 133.479 152.114 133.664 151.801C133.851 151.489 134.107 151.255 134.431 151.098C134.755 150.942 135.123 150.864 135.535 150.864C135.813 150.864 136.067 150.885 136.297 150.928C136.53 150.97 136.704 151.009 136.817 151.043L136.493 152.407C136.422 152.384 136.334 152.362 136.229 152.343C136.127 152.323 136.022 152.313 135.914 152.313C135.647 152.313 135.461 152.375 135.356 152.5C135.251 152.622 135.198 152.794 135.198 153.016V160H133.387Z" fill="#0049A3"/>
<path d="M141.131 153.455V154.818H137.091V153.455H141.131ZM138.016 160V152.982C138.016 152.507 138.108 152.114 138.293 151.801C138.48 151.489 138.736 151.255 139.06 151.098C139.384 150.942 139.752 150.864 140.164 150.864C140.442 150.864 140.696 150.885 140.926 150.928C141.159 150.97 141.333 151.009 141.446 151.043L141.122 152.407C141.051 152.384 140.963 152.362 140.858 152.343C140.756 152.323 140.651 152.313 140.543 152.313C140.276 152.313 140.09 152.375 139.985 152.5C139.879 152.622 139.827 152.794 139.827 153.016V160H138.016Z" fill="#0049A3"/>
<path d="M142.621 160.111C142.34 160.111 142.099 160.012 141.897 159.813C141.698 159.611 141.599 159.37 141.599 159.088C141.599 158.81 141.698 158.571 141.897 158.372C142.099 158.174 142.34 158.074 142.621 158.074C142.894 158.074 143.133 158.174 143.337 158.372C143.542 158.571 143.644 158.81 143.644 159.088C143.644 159.276 143.596 159.448 143.499 159.604C143.405 159.757 143.282 159.881 143.128 159.975C142.975 160.066 142.806 160.111 142.621 160.111Z" fill="#0049A3"/>
<path d="M146.196 160.111C145.914 160.111 145.673 160.012 145.471 159.813C145.272 159.611 145.173 159.37 145.173 159.088C145.173 158.81 145.272 158.571 145.471 158.372C145.673 158.174 145.914 158.074 146.196 158.074C146.468 158.074 146.707 158.174 146.911 158.372C147.116 158.571 147.218 158.81 147.218 159.088C147.218 159.276 147.17 159.448 147.073 159.604C146.98 159.757 146.856 159.881 146.703 159.975C146.549 160.066 146.38 160.111 146.196 160.111Z" fill="#0049A3"/>
<path d="M149.77 160.111C149.489 160.111 149.247 160.012 149.045 159.813C148.846 159.611 148.747 159.37 148.747 159.088C148.747 158.81 148.846 158.571 149.045 158.372C149.247 158.174 149.489 158.074 149.77 158.074C150.042 158.074 150.281 158.174 150.486 158.372C150.69 158.571 150.792 158.81 150.792 159.088C150.792 159.276 150.744 159.448 150.648 159.604C150.554 159.757 150.43 159.881 150.277 159.975C150.123 160.066 149.954 160.111 149.77 160.111Z" fill="#0049A3"/>
<defs>
<filter id="filter0_d_2420_13235" x="22" y="32" width="187" height="56" filterUnits="userSpaceOnUse" color-interpolation-filters="sRGB">
<feFlood flood-opacity="0" result="BackgroundImageFix"/>
<feColorMatrix in="SourceAlpha" type="matrix" values="0 0 0 0 0 0 0 0 0 0 0 0 0 0 0 0 0 0 127 0" result="hardAlpha"/>
<feOffset dy="2"/>
<feGaussianBlur stdDeviation="4"/>
<feComposite in2="hardAlpha" operator="out"/>
<feColorMatrix type="matrix" values="0 0 0 0 0 0 0 0 0 0 0 0 0 0 0 0 0 0 0.12 0"/>
<feBlend mode="normal" in2="BackgroundImageFix" result="effect1_dropShadow_2420_13235"/>
<feBlend mode="normal" in="SourceGraphic" in2="effect1_dropShadow_2420_13235" result="shape"/>
</filter>
<filter id="filter1_d_2420_13235" x="0" y="82" width="201" height="56" filterUnits="userSpaceOnUse" color-interpolation-filters="sRGB">
<feFlood flood-opacity="0" result="BackgroundImageFix"/>
<feColorMatrix in="SourceAlpha" type="matrix" values="0 0 0 0 0 0 0 0 0 0 0 0 0 0 0 0 0 0 127 0" result="hardAlpha"/>
<feOffset dy="2"/>
<feGaussianBlur stdDeviation="4"/>
<feComposite in2="hardAlpha" operator="out"/>
<feColorMatrix type="matrix" values="0 0 0 0 0 0 0 0 0 0 0 0 0 0 0 0 0 0 0.12 0"/>
<feBlend mode="normal" in2="BackgroundImageFix" result="effect1_dropShadow_2420_13235"/>
<feBlend mode="normal" in="SourceGraphic" in2="effect1_dropShadow_2420_13235" result="shape"/>
</filter>
<filter id="filter2_d_2420_13235" x="17" y="130" width="187" height="56" filterUnits="userSpaceOnUse" color-interpolation-filters="sRGB">
<feFlood flood-opacity="0" result="BackgroundImageFix"/>
<feColorMatrix in="SourceAlpha" type="matrix" values="0 0 0 0 0 0 0 0 0 0 0 0 0 0 0 0 0 0 127 0" result="hardAlpha"/>
<feOffset dy="2"/>
<feGaussianBlur stdDeviation="4"/>
<feComposite in2="hardAlpha" operator="out"/>
<feColorMatrix type="matrix" values="0 0 0 0 0 0 0 0 0 0 0 0 0 0 0 0 0 0 0.12 0"/>
<feBlend mode="normal" in2="BackgroundImageFix" result="effect1_dropShadow_2420_13235"/>
<feBlend mode="normal" in="SourceGraphic" in2="effect1_dropShadow_2420_13235" result="shape"/>
</filter>
</defs>
</svg>
