<svg width="434" height="211" viewBox="0 0 434 211" fill="none" xmlns="http://www.w3.org/2000/svg">
<rect width="212" height="172" rx="12" fill="#EEC8C8"/>
<circle cx="102.334" cy="85.3079" r="57.2776" fill="#E2B1B1"/>
<path d="M101.965 28.0293V85.6757H45.0578C45.057 85.5525 45.0566 85.4292 45.0566 85.3058C45.0566 53.7953 70.5015 28.2278 101.965 28.0293Z" fill="#C28989"/>
<rect x="176.889" y="37.1084" width="256.207" height="173.373" rx="12" fill="#C28989"/>
<rect x="215.416" y="141.134" width="5.77909" height="34.6746" rx="1.5" fill="white"/>
<rect x="234.68" y="112.238" width="5.77909" height="63.57" rx="1.5" fill="white"/>
<rect x="253.943" y="148.837" width="5.77909" height="26.9691" rx="1.5" fill="white"/>
<rect x="273.208" y="125.722" width="5.77909" height="50.0855" rx="1.5" fill="white"/>
<rect x="292.47" y="123.795" width="5.77909" height="52.0118" rx="1.5" fill="white"/>
<rect x="311.735" y="141.134" width="5.77909" height="34.6746" rx="1.5" fill="white"/>
<rect x="330.999" y="112.238" width="5.77909" height="63.57" rx="1.5" fill="white"/>
<rect x="350.262" y="148.837" width="5.77909" height="26.9691" rx="1.5" fill="white"/>
<rect x="369.525" y="125.722" width="5.77909" height="50.0855" rx="1.5" fill="white"/>
<rect x="388.789" y="123.795" width="5.77909" height="52.0118" rx="1.5" fill="white"/>
<path d="M215.416 94.8994L234.679 75.6357L256.832 105.494L276.096 90.0835H295.36L314.623 101.642L333.887 94.8994L353.151 105.494L372.414 97.7889L391.678 101.642" stroke="white" stroke-linecap="round" stroke-linejoin="round"/>
<circle cx="215.416" cy="94.8996" r="3.85273" fill="white"/>
<circle cx="215.416" cy="94.8996" r="3.85273" fill="white"/>
<circle cx="234.679" cy="77.5617" r="3.85273" fill="white"/>
<circle cx="257.796" cy="104.53" r="3.85273" fill="white"/>
<circle cx="277.06" cy="91.0471" r="3.85273" fill="white"/>
<circle cx="296.323" cy="91.0471" r="3.85273" fill="white"/>
<circle cx="315.588" cy="100.679" r="3.85273" fill="white"/>
<circle cx="334.851" cy="96.8264" r="3.85273" fill="white"/>
<circle cx="354.115" cy="104.53" r="3.85273" fill="white"/>
<circle cx="373.378" cy="98.7521" r="3.85273" fill="white"/>
<circle cx="392.642" cy="102.606" r="3.85273" fill="white"/>
</svg>
