<svg width="294" height="223" viewBox="0 0 294 223" fill="none" xmlns="http://www.w3.org/2000/svg">
<path d="M57 35H98.8117V111.5M57 188H98.8117V111.5M98.8117 111.5H168" stroke="#0049A3" stroke-linejoin="round" stroke-dasharray="3 3"/>
<g filter="url(#filter0_i_2813_15373)">
<path d="M293.172 114.54L292.088 96.0888L281.992 94.547C281.204 92.012 280.243 89.5328 279.118 87.1261L286.269 79.924L276.019 64.4886L265.493 68.5512C263.762 66.961 261.937 65.4748 260.027 64.1006L262.833 53.3755L246.178 45.0874L238.639 54.4047C236.546 53.918 234.429 53.5422 232.296 53.2787L229.151 42L210.551 43.0803L208.691 55.0663C206.662 55.6402 204.664 56.3198 202.707 57.1022L194.244 48.8467L178.68 59.0051L182.986 69.9759C181.396 71.5373 179.896 73.1872 178.495 74.9178L167.468 72.0816L159.116 88.5964L167.735 95.4514C167.036 97.8345 166.489 100.259 166.095 102.709L156 105.476L157.086 123.922L166.912 125.42C167.559 128.168 168.406 130.867 169.446 133.495L162.9 140.083L173.148 155.513L181.416 152.325C183.575 154.622 185.916 156.743 188.416 158.669L186.333 166.627L202.988 174.913L208.068 168.639C211.306 169.586 214.618 170.261 217.969 170.656L220.017 178L238.622 176.928L239.815 169.229C243.129 168.385 246.364 167.256 249.481 165.857L254.918 171.161L270.484 161.004L267.501 153.407C269.813 151.083 271.925 148.571 273.815 145.898L281.698 147.925L290.059 131.413L282.962 125.768C283.666 122.865 284.149 119.913 284.406 116.938L293.172 114.54ZM239.038 133.111C227.253 140.807 211.404 137.57 203.645 125.884C195.887 114.198 199.152 98.4793 210.938 90.7868C222.725 83.0942 238.573 86.3296 246.336 98.0215C254.099 109.713 250.825 125.42 239.038 133.111Z" fill="#A8CFFF"/>
</g>
<rect x="209" y="94" width="30.5714" height="35.6667" rx="4" fill="#171923"/>
<path fill-rule="evenodd" clip-rule="evenodd" d="M222.121 121.132C222.719 121.726 223.501 122.024 224.285 122.024C225.073 122.024 225.862 121.722 226.459 121.121L227.192 120.389C227.481 120.1 227.867 119.941 228.276 119.94H229.324C231.015 119.94 232.392 118.564 232.392 116.872V115.825C232.393 115.416 232.552 115.029 232.84 114.741L233.563 114.017C233.569 114.012 233.575 114.006 233.581 113.999C233.585 113.995 233.589 113.991 233.593 113.987C234.164 113.407 234.478 112.64 234.476 111.824C234.473 111.004 234.152 110.235 233.572 109.659L232.841 108.927C232.552 108.636 232.393 108.25 232.392 107.841V106.795C232.392 105.102 231.015 103.725 229.324 103.725H228.276C227.867 103.725 227.482 103.566 227.193 103.278L226.449 102.534C225.248 101.341 223.302 101.347 222.11 102.545L221.378 103.276C221.087 103.566 220.702 103.725 220.293 103.725H219.246C217.554 103.725 216.177 105.102 216.177 106.795V107.84C216.176 108.25 216.017 108.636 215.73 108.925L214.986 109.67C213.793 110.869 213.798 112.817 214.997 114.008L215.729 114.739C216.017 115.029 216.176 115.416 216.177 115.824V116.872C216.177 118.564 217.554 119.94 219.246 119.94H220.292C220.702 119.941 221.088 120.1 221.377 120.388L222.121 121.132ZM221.664 110.106C221.905 110.106 222.124 110.016 222.292 109.848C222.469 109.682 222.566 109.457 222.566 109.215C222.566 109.093 222.541 108.973 222.493 108.867C222.45 108.768 222.383 108.674 222.297 108.587C222.054 108.332 221.646 108.25 221.338 108.39C221.23 108.427 221.122 108.496 221.031 108.588C220.866 108.764 220.772 108.993 220.772 109.215C220.772 109.448 220.868 109.678 221.037 109.847C221.216 110.014 221.438 110.106 221.664 110.106ZM226.278 108.583C226.626 108.237 227.191 108.237 227.539 108.583C227.886 108.932 227.886 109.496 227.539 109.845L222.3 115.083C222.132 115.251 221.909 115.344 221.671 115.344C221.432 115.344 221.209 115.251 221.04 115.083C220.692 114.735 220.692 114.169 221.04 113.821L226.278 108.583ZM226.266 113.83C226.526 113.569 226.918 113.494 227.248 113.632C227.345 113.665 227.453 113.734 227.542 113.823C227.706 113.986 227.794 114.209 227.794 114.454C227.794 114.697 227.706 114.921 227.543 115.083C227.361 115.254 227.139 115.345 226.913 115.345C226.674 115.345 226.46 115.259 226.276 115.088C226.195 115.007 226.134 114.914 226.083 114.8C226.028 114.676 226.021 114.543 226.021 114.454C226.021 114.364 226.028 114.23 226.083 114.106C226.135 113.991 226.211 113.893 226.266 113.83Z" fill="white"/>
<path d="M203.259 77.8797C184.873 89.9835 179.777 114.699 191.879 133.087C203.981 151.475 228.701 156.57 247.087 144.461C265.474 132.352 270.57 107.646 258.463 89.2582C246.356 70.8709 221.643 65.7777 203.259 77.8797ZM242.541 137.554C227.971 147.147 208.384 143.112 198.796 128.539C189.208 113.967 193.24 94.378 207.808 84.7871C222.376 75.1962 241.967 79.2375 251.558 93.8089C261.149 108.38 257.11 127.963 242.541 137.554V137.554Z" fill="#2486FF"/>
<g filter="url(#filter1_i_2813_15373)">
<rect width="70" height="70" rx="35" fill="white"/>
</g>
<path d="M24.2588 20.9297H20.002V25.4638H24.2588V20.9297Z" fill="#3EB8BC"/>
<path d="M24.2588 46.6992H20.002V51.2334H24.2588V46.6992Z" fill="#0A968E"/>
<path d="M49.9619 46.6992H45.7051V51.2334H49.9619V46.6992Z" fill="#EB5B28"/>
<path d="M49.9619 29.6211H45.7051V34.1552H49.9619V29.6211Z" fill="#C22C2E"/>
<path d="M33.1475 29.6211H28.8906V34.1552H33.1475V29.6211Z" fill="#CA4C30"/>
<path d="M33.1475 37.9727H28.8906V42.5068H33.1475V37.9727Z" fill="#E94E1B"/>
<path d="M24.1773 25.3809H20.002V46.7957H24.1773V25.3809Z" fill="url(#paint0_linear_2813_15373)"/>
<path d="M45.787 46.7969H24.1602V51.2495H45.787V46.7969Z" fill="url(#paint1_linear_2813_15373)"/>
<path d="M49.9624 34.0605H45.7871V46.7822H49.9624V34.0605Z" fill="url(#paint2_linear_2813_15373)"/>
<path d="M45.7861 29.6211H33.0645V34.0737H45.7861V29.6211Z" fill="url(#paint3_linear_2813_15373)"/>
<path d="M33.0659 34.0605H28.8906V38.0565H33.0659V34.0605Z" fill="url(#paint4_linear_2813_15373)"/>
<path d="M43.683 20V20.9297H24.1602V25.3822H43.683V26.2956H49.9623V20H43.683Z" fill="url(#paint5_linear_2813_15373)"/>
<path d="M36.881 37.3066V38.0732H33.0645V42.5095H36.881V43.5533H43.1276V37.3066H36.881Z" fill="url(#paint6_linear_2813_15373)"/>
<g filter="url(#filter2_i_2813_15373)">
<rect y="153" width="70" height="70" rx="35" fill="white"/>
</g>
<path d="M18.589 175.96C17.499 178.099 17.499 180.899 17.499 186.5V189.5C17.499 195.101 17.499 197.901 18.589 200.04C19.5477 201.922 21.0775 203.451 22.9591 204.41C25.0982 205.5 27.8985 205.5 33.499 205.5H36.499C42.0995 205.5 44.8998 205.5 47.0389 204.41C48.9205 203.451 50.4503 201.922 51.4091 200.04C52.499 197.901 52.499 195.101 52.499 189.5V186.5C52.499 180.899 52.499 178.099 51.4091 175.96C50.4503 174.078 48.9205 172.549 47.0389 171.59C44.8998 170.5 42.0995 170.5 36.499 170.5H33.499C27.8985 170.5 25.0982 170.5 22.9591 171.59C21.0775 172.549 19.5477 174.078 18.589 175.96Z" fill="url(#paint7_linear_2813_15373)"/>
<path d="M17.8306 178.349C17.499 180.233 17.499 182.733 17.499 186.499V189.499C17.499 195.1 17.499 197.9 18.589 200.039C19.5477 201.921 21.0775 203.451 22.9591 204.409C25.0982 205.499 27.8985 205.499 33.499 205.499H36.499C42.0995 205.499 44.8998 205.499 47.0389 204.409C48.9205 203.451 50.4503 201.921 51.4091 200.039C52.499 197.9 52.499 195.1 52.499 189.499V186.499C52.499 180.899 52.499 178.099 51.4091 175.959C50.4837 174.143 49.0263 172.655 47.234 171.691L17.8306 178.349Z" fill="url(#paint8_linear_2813_15373)"/>
<path d="M52.1369 197.818C51.9762 198.663 51.7442 199.383 51.4091 200.041C50.4504 201.922 48.9206 203.452 47.0389 204.411C44.9638 205.468 42.2666 205.5 36.9944 205.501H35.0723V201.547L52.1369 197.818Z" fill="url(#paint9_linear_2813_15373)"/>
<path d="M36.4987 170.5H33.4987C32.4092 170.5 31.4256 170.5 30.5322 170.508V175.463L47.2305 171.69C47.167 171.656 47.103 171.623 47.0386 171.59C45.8511 170.985 44.4598 170.716 42.4987 170.596C40.9273 170.5 38.9901 170.5 36.4987 170.5Z" fill="url(#paint10_linear_2813_15373)"/>
<path d="M52.4992 189.716C52.4991 193.473 52.4924 195.949 52.1371 197.817L46.2021 199.114V190.269L52.4992 188.805V189.716Z" fill="url(#paint11_linear_2813_15373)"/>
<path fill-rule="evenodd" clip-rule="evenodd" d="M33.6753 184.723C33.6753 183.92 34.3321 183.611 35.4199 183.611C36.9798 183.611 38.9502 184.084 40.5102 184.929V180.088C38.8066 179.408 37.1235 179.141 35.4199 179.141C31.2533 179.141 28.4824 181.324 28.4824 184.97C28.4824 190.655 36.282 189.749 36.282 192.2C36.282 193.148 35.461 193.457 34.3116 193.457C32.608 193.457 30.4323 192.756 28.7082 191.809V196.711C30.617 197.535 32.5464 197.885 34.3116 197.885C38.5808 197.885 41.5159 195.764 41.5159 192.077C41.4954 185.938 33.6753 187.03 33.6753 184.723Z" fill="white"/>
<defs>
<filter id="filter0_i_2813_15373" x="156" y="42" width="139.173" height="140" filterUnits="userSpaceOnUse" color-interpolation-filters="sRGB">
<feFlood flood-opacity="0" result="BackgroundImageFix"/>
<feBlend mode="normal" in="SourceGraphic" in2="BackgroundImageFix" result="shape"/>
<feColorMatrix in="SourceAlpha" type="matrix" values="0 0 0 0 0 0 0 0 0 0 0 0 0 0 0 0 0 0 127 0" result="hardAlpha"/>
<feOffset dx="2" dy="4"/>
<feGaussianBlur stdDeviation="2"/>
<feComposite in2="hardAlpha" operator="arithmetic" k2="-1" k3="1"/>
<feColorMatrix type="matrix" values="0 0 0 0 0.141176 0 0 0 0 0.52549 0 0 0 0 1 0 0 0 0.2 0"/>
<feBlend mode="normal" in2="shape" result="effect1_innerShadow_2813_15373"/>
</filter>
<filter id="filter1_i_2813_15373" x="0" y="0" width="70" height="70" filterUnits="userSpaceOnUse" color-interpolation-filters="sRGB">
<feFlood flood-opacity="0" result="BackgroundImageFix"/>
<feBlend mode="normal" in="SourceGraphic" in2="BackgroundImageFix" result="shape"/>
<feColorMatrix in="SourceAlpha" type="matrix" values="0 0 0 0 0 0 0 0 0 0 0 0 0 0 0 0 0 0 127 0" result="hardAlpha"/>
<feOffset/>
<feGaussianBlur stdDeviation="2"/>
<feComposite in2="hardAlpha" operator="arithmetic" k2="-1" k3="1"/>
<feColorMatrix type="matrix" values="0 0 0 0 0 0 0 0 0 0 0 0 0 0 0 0 0 0 0.12 0"/>
<feBlend mode="normal" in2="shape" result="effect1_innerShadow_2813_15373"/>
</filter>
<filter id="filter2_i_2813_15373" x="0" y="153" width="70" height="70" filterUnits="userSpaceOnUse" color-interpolation-filters="sRGB">
<feFlood flood-opacity="0" result="BackgroundImageFix"/>
<feBlend mode="normal" in="SourceGraphic" in2="BackgroundImageFix" result="shape"/>
<feColorMatrix in="SourceAlpha" type="matrix" values="0 0 0 0 0 0 0 0 0 0 0 0 0 0 0 0 0 0 127 0" result="hardAlpha"/>
<feOffset/>
<feGaussianBlur stdDeviation="2"/>
<feComposite in2="hardAlpha" operator="arithmetic" k2="-1" k3="1"/>
<feColorMatrix type="matrix" values="0 0 0 0 0 0 0 0 0 0 0 0 0 0 0 0 0 0 0.12 0"/>
<feBlend mode="normal" in2="shape" result="effect1_innerShadow_2813_15373"/>
</filter>
<linearGradient id="paint0_linear_2813_15373" x1="22.0837" y1="46.4953" x2="22.0837" y2="25.9925" gradientUnits="userSpaceOnUse">
<stop stop-color="#0A968E"/>
<stop offset="1" stop-color="#3EB8BC"/>
</linearGradient>
<linearGradient id="paint1_linear_2813_15373" x1="24.1673" y1="49.0147" x2="45.7924" y2="49.0147" gradientUnits="userSpaceOnUse">
<stop stop-color="#0A968E"/>
<stop offset="1" stop-color="#EB5B28"/>
</linearGradient>
<linearGradient id="paint2_linear_2813_15373" x1="47.8769" y1="34.1181" x2="47.8769" y2="46.6672" gradientUnits="userSpaceOnUse">
<stop stop-color="#C22C2E"/>
<stop offset="1" stop-color="#EB5B28"/>
</linearGradient>
<linearGradient id="paint3_linear_2813_15373" x1="45.6038" y1="31.8409" x2="33.3001" y2="31.8409" gradientUnits="userSpaceOnUse">
<stop stop-color="#C22C2E"/>
<stop offset="1" stop-color="#CA4C30"/>
</linearGradient>
<linearGradient id="paint4_linear_2813_15373" x1="30.9829" y1="34.1586" x2="30.9829" y2="37.9317" gradientUnits="userSpaceOnUse">
<stop stop-color="#CA4C30"/>
<stop offset="1" stop-color="#E94E1B"/>
</linearGradient>
<linearGradient id="paint5_linear_2813_15373" x1="49.9614" y1="23.1507" x2="24.6002" y2="23.1507" gradientUnits="userSpaceOnUse">
<stop stop-color="#0D77BA"/>
<stop offset="1" stop-color="#3EB8BC"/>
</linearGradient>
<linearGradient id="paint6_linear_2813_15373" x1="33.0659" y1="40.4306" x2="43.1351" y2="40.4306" gradientUnits="userSpaceOnUse">
<stop stop-color="#E94E1B"/>
<stop offset="1" stop-color="#F8AE3B"/>
</linearGradient>
<linearGradient id="paint7_linear_2813_15373" x1="17.499" y1="170.5" x2="28.9948" y2="178.628" gradientUnits="userSpaceOnUse">
<stop stop-color="#392993"/>
<stop offset="1" stop-color="#4B47B9"/>
</linearGradient>
<linearGradient id="paint8_linear_2813_15373" x1="18.817" y1="178.717" x2="44.1948" y2="199.651" gradientUnits="userSpaceOnUse">
<stop stop-color="#594BB9"/>
<stop offset="1" stop-color="#60A8F2"/>
</linearGradient>
<linearGradient id="paint9_linear_2813_15373" x1="35.0723" y1="201.693" x2="52.499" y2="205.501" gradientUnits="userSpaceOnUse">
<stop stop-color="#61A2EF"/>
<stop offset="1" stop-color="#58E6FD"/>
</linearGradient>
<linearGradient id="paint10_linear_2813_15373" x1="30.5322" y1="172.99" x2="52.4987" y2="170.5" gradientUnits="userSpaceOnUse">
<stop stop-color="#534EBE"/>
<stop offset="1" stop-color="#6875E2"/>
</linearGradient>
<linearGradient id="paint11_linear_2813_15373" x1="46.2021" y1="190.342" x2="52.4992" y2="197.884" gradientUnits="userSpaceOnUse">
<stop stop-color="#71A5F3"/>
<stop offset="1" stop-color="#6CC3FA"/>
</linearGradient>
</defs>
</svg>
