<svg width="307" height="219" viewBox="0 0 307 219" fill="none" xmlns="http://www.w3.org/2000/svg">
<path d="M260.082 1.32812L216.798 52.8176H255.754L251.425 87.144L294.71 35.6545H255.754L260.082 1.32812Z" fill="#C28989" stroke="#C28989" stroke-width="2" stroke-linecap="round" stroke-linejoin="round"/>
<path d="M286.428 84.8857L261.963 114.018H283.981L281.535 133.439L306 104.307H283.981L286.428 84.8857Z" fill="#C28989" stroke="#C28989" stroke-width="2" stroke-linecap="round" stroke-linejoin="round"/>
<path d="M79.4306 218.128L0.486328 184.074V63.3516L79.4306 96.2133V218.128Z" fill="#DEBFBF"/>
<path d="M79.4189 218.128L184.685 184.074V63.3516L79.4189 96.2133V218.128Z" fill="#C28989"/>
<path d="M126.822 171.797C124.434 171.797 122.019 170.891 120.136 169.081L117.795 166.816C116.887 165.94 115.694 165.456 114.446 165.453H111.257C106.102 165.453 101.768 161.26 101.598 156.108L101.493 152.918C101.449 151.673 100.925 150.497 100.017 149.612L97.7144 147.387C93.9428 143.759 93.7315 137.828 97.2442 134.175L99.4362 131.906C100.283 131.028 100.729 129.851 100.69 128.604L100.585 125.419C100.415 120.264 104.472 116.071 109.627 116.071H112.819C114.065 116.071 115.222 115.587 116.078 114.703L118.238 112.477C121.747 108.827 127.678 108.809 131.456 112.443L133.797 114.709C134.708 115.587 135.898 116.071 137.143 116.071H140.336C145.49 116.071 149.824 120.264 149.994 125.419L150.099 128.607C150.144 129.851 150.667 131.028 151.575 131.912L153.878 134.141C155.703 135.897 156.758 138.237 156.85 140.736C156.938 143.219 156.059 145.556 154.375 147.322C154.345 147.353 154.318 147.387 154.288 147.415L152.156 149.618C151.309 150.497 150.864 151.673 150.902 152.921L151.007 156.108C151.177 161.26 147.12 165.453 141.965 165.453H138.773C137.528 165.456 136.367 165.94 135.514 166.819L133.355 169.047C131.595 170.878 129.222 171.797 126.822 171.797Z" fill="#EEAB00"/>
<path fill-rule="evenodd" clip-rule="evenodd" d="M119.527 134.717C119.032 135.229 118.377 135.505 117.641 135.505C116.951 135.505 116.265 135.223 115.705 134.714C115.172 134.202 114.857 133.5 114.834 132.79C114.812 132.113 115.074 131.418 115.56 130.881C115.827 130.602 116.149 130.391 116.474 130.279C117.398 129.851 118.652 130.102 119.416 130.878C119.689 131.142 119.9 131.43 120.044 131.731C120.2 132.054 120.287 132.42 120.299 132.79C120.324 133.528 120.051 134.214 119.527 134.717ZM135.387 130.866C134.294 129.81 132.57 129.81 131.546 130.866L116.111 146.818C115.087 147.877 115.144 149.599 116.238 150.661C116.77 151.173 117.46 151.455 118.186 151.455C118.913 151.455 119.584 151.173 120.079 150.661L135.514 134.708C136.538 133.646 136.481 131.927 135.387 130.866ZM135.009 146.242C133.988 145.819 132.804 146.049 132.035 146.844C131.877 147.036 131.654 147.334 131.507 147.685C131.352 148.063 131.343 148.47 131.352 148.743C131.361 149.016 131.396 149.42 131.577 149.798C131.743 150.146 131.939 150.428 132.192 150.674C132.772 151.195 133.432 151.459 134.159 151.459C134.848 151.459 135.516 151.179 136.055 150.661C136.532 150.168 136.78 149.485 136.756 148.743C136.731 147.998 136.438 147.318 135.925 146.822C135.643 146.552 135.307 146.341 135.009 146.242Z" fill="white"/>
<path d="M0 63.3957L49.1748 48.3701L129.255 81.4948L79.226 96.3497L0 63.3957Z" fill="white"/>
<path d="M48.8535 48.3746L105.029 31.0439L184.767 63.3149L129.104 81.6701L48.8535 48.3746Z" fill="white"/>
<path d="M201.104 218.126L155.491 198.45V128.699L201.104 147.686V218.126Z" fill="#DEBFBF"/>
<path d="M201.098 218.126L261.918 198.45V128.699L201.098 147.686V218.126Z" fill="#C28989"/>
<path d="M155.21 128.724L183.622 120.043L229.891 139.182L200.985 147.765L155.21 128.724Z" fill="white"/>
<path d="M183.436 120.047L215.893 110.033L261.964 128.679L229.803 139.284L183.436 120.047Z" fill="white"/>
</svg>
