<svg width="410" height="207" viewBox="0 0 410 207" fill="none" xmlns="http://www.w3.org/2000/svg">
<g filter="url(#filter0_di_2604_15076)">
<rect x="4" y="69" width="401" height="129.043" rx="6" fill="white"/>
</g>
<rect x="123.043" y="94.8086" width="250.339" height="19.3565" rx="8" fill="#E5F0E2"/>
<rect x="123.043" y="133.521" width="185.817" height="16.1304" rx="8" fill="#E5F0E2"/>
<rect x="33" y="97" width="77.4261" height="77.4261" rx="12" fill="#E5F0E2"/>
<path d="M77.5528 131.094H79.1643L81.313 127.441C81.313 127.441 78.4123 127.441 77.5528 128.301C77.0145 128.839 73.9001 125.83 73.9001 125.83V128.301L68.6359 129.16C68.6359 129.16 68.0073 127.677 68.6359 127.441C70.3548 126.797 71.8589 125.83 71.8589 125.83L69.9251 124.433L72.5035 123.359L75.1893 120.673L73.9001 117.02L75.1893 114.872V112.938L80.6684 110.145H84.8583L93.1307 117.772L96.4611 125.185L90.4449 127.441H88.6185C88.6185 127.441 89.8003 131.631 90.0151 132.706C90.1366 133.313 89.1547 134.061 88.6185 133.458C87.759 132.491 84.2137 129.16 84.2137 129.16L86.6847 132.491L88.6185 134.854C88.6185 134.854 85.6104 155.052 82.3873 152.044C78.3336 148.26 75.1893 139.796 75.1893 139.796C75.1893 139.796 69.9251 141.73 67.9913 141.193C66.0882 140.664 64.4459 136.143 64.4459 136.143C64.4459 136.143 63.829 134.306 64.4459 133.458C66.1649 131.094 71.8589 129.59 73.9001 129.16C75.4795 128.828 77.5528 131.094 77.5528 131.094Z" fill="#95BD8B"/>
<path d="M71.644 157.415L58.6445 157.308C61.4555 158.399 64.3208 160.085 67.1318 161.175C67.1318 161.175 69.7027 161.171 71.644 161.175C73.5436 161.18 75.0154 161.336 76.9082 161.175C80.9322 160.834 85.9327 156.126 85.9327 156.126H83.0319L73.5778 158.382L71.644 157.415Z" fill="#95BD8B"/>
<path d="M49.8325 144.85L55.0967 153.337L53.0555 144.85L56.0636 143.346L55.0967 141.841L60.2535 139.8V137.544C60.2535 137.544 57.7826 135.61 56.0636 133.784C54.1425 131.743 49.8325 131.743 49.8325 131.743V129.057L55.0967 126.908L56.0636 124.007L60.2535 123.255L65.3029 117.347L69.2779 115.198V113.049H67.4516L69.2779 109.934L64.0137 113.049L60.8981 108.967L49.8325 117.347L48.3284 123.255V128.305V131.743L45.75 134.214L49.8325 144.85Z" fill="#95BD8B"/>
<path d="M93.1293 133.245C91.8319 132.791 91.3029 130.237 91.3029 130.237C91.3029 130.237 94.0489 129.136 94.9557 130.237C95.7025 131.144 94.9557 133.245 94.9557 133.245C94.9557 133.245 93.8026 133.48 93.1293 133.245Z" fill="#95BD8B"/>
<path d="M67.1304 110.039L66.4858 108.75H70.5683L76.7994 109.395L74.6507 111.328L70.5683 109.395L67.1304 110.039Z" fill="#95BD8B"/>
<path d="M67.1304 125.725C66.4857 125.295 65.9146 122.656 67.1304 122.609C67.9625 122.576 68.6558 123.177 68.7419 124.006C68.837 124.921 67.896 126.235 67.1304 125.725Z" fill="#95BD8B"/>
<rect x="44.75" y="107.75" width="54.5" height="54.5" rx="27.25" stroke="#95BD8B" stroke-width="2"/>
<g filter="url(#filter1_di_2604_15076)">
<path d="M343.361 148.589C345.012 149.505 346.988 149.505 348.639 148.589C360.225 142.167 406 114.305 406 75V26.658C406 24.1569 404.449 21.9182 402.107 21.04L348.107 0.790029C346.748 0.280662 345.252 0.280661 343.893 0.790028L289.893 21.04C287.551 21.9182 286 24.1569 286 26.658V75C286 114.305 331.775 142.167 343.361 148.589Z" fill="white"/>
</g>
<path d="M317.227 58.7273L322.852 76.4091H323.068L328.705 58.7273H334.159L326.136 82H319.795L311.761 58.7273H317.227ZM336.96 82V58.7273H346.142C347.907 58.7273 349.411 59.0644 350.653 59.7386C351.896 60.4053 352.843 61.3333 353.494 62.5227C354.153 63.7045 354.483 65.0682 354.483 66.6136C354.483 68.1591 354.15 69.5227 353.483 70.7045C352.816 71.8864 351.85 72.8068 350.585 73.4659C349.328 74.125 347.805 74.4545 346.017 74.4545H340.165V70.5114H345.222C346.169 70.5114 346.949 70.3485 347.562 70.0227C348.184 69.6894 348.646 69.2311 348.949 68.6477C349.259 68.0568 349.415 67.3788 349.415 66.6136C349.415 65.8409 349.259 65.1667 348.949 64.5909C348.646 64.0076 348.184 63.5568 347.562 63.2386C346.941 62.9129 346.153 62.75 345.199 62.75H341.881V82H336.96ZM377.145 58.7273V82H372.895L362.77 67.3523H362.599V82H357.679V58.7273H361.997L372.043 73.3636H372.247V58.7273H377.145Z" fill="#38386C"/>
<path d="M345.488 108.67C368.041 108.67 386.323 90.3875 386.323 67.835C386.323 45.2824 368.041 27 345.488 27C322.936 27 304.653 45.2824 304.653 67.835C304.653 90.3875 322.936 108.67 345.488 108.67Z" stroke="#FF7C7C" stroke-width="2" stroke-linecap="round" stroke-linejoin="round"/>
<path d="M316.618 38.9629L374.359 96.7035" stroke="#FF7C7C" stroke-width="2" stroke-linecap="round" stroke-linejoin="round"/>
<defs>
<filter id="filter0_di_2604_15076" x="0" y="69" width="409" height="137.043" filterUnits="userSpaceOnUse" color-interpolation-filters="sRGB">
<feFlood flood-opacity="0" result="BackgroundImageFix"/>
<feColorMatrix in="SourceAlpha" type="matrix" values="0 0 0 0 0 0 0 0 0 0 0 0 0 0 0 0 0 0 127 0" result="hardAlpha"/>
<feOffset dy="4"/>
<feGaussianBlur stdDeviation="2"/>
<feComposite in2="hardAlpha" operator="out"/>
<feColorMatrix type="matrix" values="0 0 0 0 0.898039 0 0 0 0 0.941176 0 0 0 0 0.886275 0 0 0 0.25 0"/>
<feBlend mode="normal" in2="BackgroundImageFix" result="effect1_dropShadow_2604_15076"/>
<feBlend mode="normal" in="SourceGraphic" in2="effect1_dropShadow_2604_15076" result="shape"/>
<feColorMatrix in="SourceAlpha" type="matrix" values="0 0 0 0 0 0 0 0 0 0 0 0 0 0 0 0 0 0 127 0" result="hardAlpha"/>
<feOffset dy="2"/>
<feGaussianBlur stdDeviation="4"/>
<feComposite in2="hardAlpha" operator="arithmetic" k2="-1" k3="1"/>
<feColorMatrix type="matrix" values="0 0 0 0 0.898039 0 0 0 0 0.941176 0 0 0 0 0.886275 0 0 0 1 0"/>
<feBlend mode="normal" in2="shape" result="effect2_innerShadow_2604_15076"/>
</filter>
<filter id="filter1_di_2604_15076" x="282" y="0.408203" width="128" height="156.867" filterUnits="userSpaceOnUse" color-interpolation-filters="sRGB">
<feFlood flood-opacity="0" result="BackgroundImageFix"/>
<feColorMatrix in="SourceAlpha" type="matrix" values="0 0 0 0 0 0 0 0 0 0 0 0 0 0 0 0 0 0 127 0" result="hardAlpha"/>
<feOffset dy="4"/>
<feGaussianBlur stdDeviation="2"/>
<feComposite in2="hardAlpha" operator="out"/>
<feColorMatrix type="matrix" values="0 0 0 0 0.898039 0 0 0 0 0.941176 0 0 0 0 0.886275 0 0 0 0.25 0"/>
<feBlend mode="normal" in2="BackgroundImageFix" result="effect1_dropShadow_2604_15076"/>
<feBlend mode="normal" in="SourceGraphic" in2="effect1_dropShadow_2604_15076" result="shape"/>
<feColorMatrix in="SourceAlpha" type="matrix" values="0 0 0 0 0 0 0 0 0 0 0 0 0 0 0 0 0 0 127 0" result="hardAlpha"/>
<feOffset dy="2"/>
<feGaussianBlur stdDeviation="4"/>
<feComposite in2="hardAlpha" operator="arithmetic" k2="-1" k3="1"/>
<feColorMatrix type="matrix" values="0 0 0 0 0.898039 0 0 0 0 0.941176 0 0 0 0 0.886275 0 0 0 1 0"/>
<feBlend mode="normal" in2="shape" result="effect2_innerShadow_2604_15076"/>
</filter>
</defs>
</svg>
