<svg width="398" height="236" viewBox="0 0 398 236" fill="none" xmlns="http://www.w3.org/2000/svg">
<g filter="url(#filter0_di_2604_15256)">
<rect x="4" y="40" width="390" height="188" rx="6" fill="white"/>
</g>
<path d="M49.999 195.998C47.9996 195.998 46.0027 195.239 44.4764 193.723L42.5784 191.825C41.8425 191.092 40.8571 190.686 39.8119 190.684H37.1416C32.8254 190.684 29.3127 187.171 29.3127 182.855V180.182C29.3101 179.139 28.9045 178.154 28.1686 177.413L26.3018 175.549C23.244 172.509 23.231 167.54 26.2732 164.48L28.1712 162.579C28.9045 161.844 29.3101 160.858 29.3127 159.813V157.145C29.3127 152.826 32.8254 149.314 37.1416 149.314H39.8145C40.8571 149.314 41.8399 148.908 42.581 148.167L44.4504 146.303C47.4899 143.245 52.4561 143.229 55.519 146.274L57.4171 148.172C58.1555 148.908 59.1384 149.314 60.181 149.314H62.8539C67.1701 149.314 70.6828 152.826 70.6828 157.145V159.815C70.6854 160.858 71.091 161.844 71.8268 162.585L73.6937 164.451C75.1731 165.923 75.9922 167.884 76 169.977C76.0052 172.057 75.2043 174.015 73.7457 175.494C73.7197 175.52 73.6963 175.549 73.6703 175.572L71.8242 177.418C71.091 178.154 70.6854 179.139 70.6828 180.185V182.855C70.6828 187.171 67.1701 190.684 62.8539 190.684H60.181C59.1384 190.686 58.1529 191.092 57.4145 191.828L55.545 193.695C54.0214 195.229 52.0089 195.998 49.999 195.998Z" fill="#EEAB00"/>
<path fill-rule="evenodd" clip-rule="evenodd" d="M44.9143 164.935C44.4853 165.364 43.9289 165.595 43.3127 165.595C42.7355 165.595 42.1686 165.359 41.7136 164.932C41.282 164.503 41.0376 163.916 41.0376 163.32C41.0376 162.754 41.2768 162.171 41.698 161.721C41.9294 161.487 42.205 161.31 42.4807 161.217C43.2659 160.858 44.3085 161.069 44.9273 161.719C45.1483 161.94 45.3174 162.181 45.4292 162.434C45.5514 162.704 45.6138 163.011 45.6138 163.32C45.6138 163.939 45.3668 164.514 44.9143 164.935ZM58.3005 161.708C57.4138 160.824 55.9708 160.824 55.0842 161.708L41.7197 175.072C40.833 175.959 40.833 177.402 41.7197 178.291C42.1513 178.72 42.7207 178.957 43.3291 178.957C43.9375 178.957 44.507 178.72 44.936 178.291L58.3005 164.927C59.1871 164.038 59.1871 162.597 58.3005 161.708ZM57.5591 174.589C56.7167 174.236 55.7183 174.428 55.0526 175.094C54.9148 175.255 54.7198 175.504 54.5872 175.798C54.4468 176.116 54.4286 176.456 54.4286 176.685C54.4286 176.914 54.4468 177.252 54.5872 177.569C54.7172 177.86 54.8732 178.097 55.0786 178.302C55.5493 178.739 56.0953 178.96 56.7037 178.96C57.2809 178.96 57.8477 178.726 58.3132 178.292C58.7266 177.878 58.9528 177.306 58.9528 176.685C58.9528 176.061 58.7266 175.491 58.3106 175.075C58.0817 174.849 57.8061 174.672 57.5591 174.589Z" fill="white"/>
<path d="M104.943 154.148H103.17C103.102 153.769 102.975 153.436 102.79 153.148C102.604 152.86 102.377 152.616 102.108 152.415C101.839 152.214 101.538 152.062 101.205 151.96C100.875 151.858 100.525 151.807 100.153 151.807C99.483 151.807 98.8826 151.975 98.3523 152.312C97.8258 152.65 97.4091 153.144 97.1023 153.795C96.7992 154.447 96.6477 155.242 96.6477 156.182C96.6477 157.129 96.7992 157.928 97.1023 158.58C97.4091 159.231 97.8277 159.723 98.358 160.057C98.8883 160.39 99.4848 160.557 100.148 160.557C100.515 160.557 100.864 160.508 101.193 160.409C101.527 160.307 101.828 160.157 102.097 159.96C102.366 159.763 102.593 159.523 102.778 159.239C102.968 158.951 103.098 158.621 103.17 158.25L104.943 158.256C104.848 158.828 104.665 159.354 104.392 159.835C104.123 160.312 103.777 160.725 103.352 161.074C102.932 161.419 102.451 161.686 101.909 161.875C101.367 162.064 100.777 162.159 100.136 162.159C99.1288 162.159 98.2311 161.92 97.4432 161.443C96.6553 160.962 96.0341 160.275 95.5795 159.381C95.1288 158.487 94.9034 157.42 94.9034 156.182C94.9034 154.939 95.1307 153.873 95.5852 152.983C96.0398 152.089 96.661 151.403 97.4489 150.926C98.2367 150.445 99.1326 150.205 100.136 150.205C100.754 150.205 101.33 150.294 101.864 150.472C102.402 150.646 102.884 150.903 103.312 151.244C103.741 151.581 104.095 151.994 104.375 152.483C104.655 152.968 104.845 153.523 104.943 154.148ZM110.584 162.176C109.766 162.176 109.052 161.989 108.442 161.614C107.832 161.239 107.358 160.714 107.021 160.04C106.684 159.366 106.516 158.578 106.516 157.676C106.516 156.771 106.684 155.979 107.021 155.301C107.358 154.623 107.832 154.097 108.442 153.722C109.052 153.347 109.766 153.159 110.584 153.159C111.402 153.159 112.116 153.347 112.726 153.722C113.336 154.097 113.809 154.623 114.146 155.301C114.483 155.979 114.652 156.771 114.652 157.676C114.652 158.578 114.483 159.366 114.146 160.04C113.809 160.714 113.336 161.239 112.726 161.614C112.116 161.989 111.402 162.176 110.584 162.176ZM110.589 160.75C111.12 160.75 111.559 160.61 111.908 160.33C112.256 160.049 112.514 159.676 112.68 159.21C112.851 158.744 112.936 158.231 112.936 157.67C112.936 157.114 112.851 156.602 112.68 156.136C112.514 155.667 112.256 155.29 111.908 155.006C111.559 154.722 111.12 154.58 110.589 154.58C110.055 154.58 109.612 154.722 109.26 155.006C108.911 155.29 108.652 155.667 108.482 156.136C108.315 156.602 108.232 157.114 108.232 157.67C108.232 158.231 108.315 158.744 108.482 159.21C108.652 159.676 108.911 160.049 109.26 160.33C109.612 160.61 110.055 160.75 110.589 160.75ZM122.077 158.381V153.273H123.781V162H122.111V160.489H122.02C121.819 160.955 121.497 161.343 121.054 161.653C120.615 161.96 120.067 162.114 119.412 162.114C118.851 162.114 118.355 161.991 117.923 161.744C117.495 161.494 117.158 161.125 116.912 160.636C116.67 160.148 116.548 159.544 116.548 158.824V153.273H118.247V158.619C118.247 159.214 118.412 159.687 118.741 160.04C119.071 160.392 119.499 160.568 120.026 160.568C120.344 160.568 120.66 160.489 120.974 160.33C121.293 160.17 121.556 159.93 121.764 159.608C121.976 159.286 122.08 158.877 122.077 158.381ZM126.064 165.273V153.273H127.723V154.688H127.865C127.964 154.506 128.106 154.295 128.291 154.057C128.477 153.818 128.734 153.61 129.064 153.432C129.393 153.25 129.829 153.159 130.371 153.159C131.075 153.159 131.704 153.337 132.257 153.693C132.81 154.049 133.244 154.562 133.558 155.233C133.876 155.903 134.036 156.71 134.036 157.653C134.036 158.597 133.878 159.405 133.564 160.08C133.25 160.75 132.818 161.267 132.268 161.631C131.719 161.991 131.092 162.17 130.388 162.17C129.857 162.17 129.424 162.081 129.087 161.903C128.753 161.725 128.492 161.517 128.303 161.278C128.113 161.04 127.967 160.828 127.865 160.642H127.763V165.273H126.064ZM127.729 157.636C127.729 158.25 127.818 158.788 127.996 159.25C128.174 159.712 128.431 160.074 128.768 160.335C129.106 160.593 129.518 160.722 130.007 160.722C130.515 160.722 130.939 160.587 131.28 160.318C131.621 160.045 131.878 159.676 132.053 159.21C132.231 158.744 132.32 158.22 132.32 157.636C132.32 157.061 132.232 156.544 132.058 156.085C131.888 155.627 131.63 155.265 131.286 155C130.945 154.735 130.518 154.602 130.007 154.602C129.515 154.602 129.098 154.729 128.757 154.983C128.42 155.237 128.164 155.591 127.99 156.045C127.816 156.5 127.729 157.03 127.729 157.636ZM139.615 162.176C138.797 162.176 138.083 161.989 137.473 161.614C136.863 161.239 136.39 160.714 136.053 160.04C135.715 159.366 135.547 158.578 135.547 157.676C135.547 156.771 135.715 155.979 136.053 155.301C136.39 154.623 136.863 154.097 137.473 153.722C138.083 153.347 138.797 153.159 139.615 153.159C140.433 153.159 141.147 153.347 141.757 153.722C142.367 154.097 142.84 154.623 143.178 155.301C143.515 155.979 143.683 156.771 143.683 157.676C143.683 158.578 143.515 159.366 143.178 160.04C142.84 160.714 142.367 161.239 141.757 161.614C141.147 161.989 140.433 162.176 139.615 162.176ZM139.621 160.75C140.151 160.75 140.59 160.61 140.939 160.33C141.287 160.049 141.545 159.676 141.712 159.21C141.882 158.744 141.967 158.231 141.967 157.67C141.967 157.114 141.882 156.602 141.712 156.136C141.545 155.667 141.287 155.29 140.939 155.006C140.59 154.722 140.151 154.58 139.621 154.58C139.087 154.58 138.643 154.722 138.291 155.006C137.943 155.29 137.683 155.667 137.513 156.136C137.346 156.602 137.263 157.114 137.263 157.67C137.263 158.231 137.346 158.744 137.513 159.21C137.683 159.676 137.943 160.049 138.291 160.33C138.643 160.61 139.087 160.75 139.621 160.75ZM147.278 156.818V162H145.58V153.273H147.21V154.693H147.318C147.519 154.231 147.833 153.86 148.261 153.58C148.693 153.299 149.237 153.159 149.892 153.159C150.487 153.159 151.008 153.284 151.455 153.534C151.902 153.78 152.248 154.148 152.494 154.636C152.741 155.125 152.864 155.729 152.864 156.449V162H151.165V156.653C151.165 156.021 151 155.527 150.67 155.17C150.341 154.811 149.888 154.631 149.312 154.631C148.919 154.631 148.568 154.716 148.261 154.886C147.958 155.057 147.718 155.307 147.54 155.636C147.366 155.962 147.278 156.356 147.278 156.818ZM163.053 162.176C162.208 162.176 161.481 161.985 160.871 161.602C160.265 161.216 159.799 160.684 159.473 160.006C159.147 159.328 158.984 158.551 158.984 157.676C158.984 156.79 159.151 156.008 159.484 155.33C159.818 154.648 160.287 154.116 160.893 153.733C161.5 153.35 162.214 153.159 163.036 153.159C163.698 153.159 164.289 153.282 164.808 153.528C165.327 153.771 165.746 154.112 166.064 154.551C166.386 154.991 166.577 155.504 166.638 156.091H164.984C164.893 155.682 164.685 155.33 164.359 155.034C164.037 154.739 163.606 154.591 163.064 154.591C162.59 154.591 162.176 154.716 161.82 154.966C161.467 155.212 161.193 155.564 160.996 156.023C160.799 156.477 160.7 157.015 160.7 157.636C160.7 158.273 160.797 158.822 160.99 159.284C161.183 159.746 161.456 160.104 161.808 160.358C162.164 160.612 162.583 160.739 163.064 160.739C163.386 160.739 163.678 160.68 163.939 160.562C164.204 160.441 164.426 160.269 164.604 160.045C164.786 159.822 164.912 159.553 164.984 159.239H166.638C166.577 159.803 166.393 160.307 166.087 160.75C165.78 161.193 165.369 161.542 164.854 161.795C164.342 162.049 163.742 162.176 163.053 162.176ZM172.131 162.176C171.313 162.176 170.598 161.989 169.989 161.614C169.379 161.239 168.905 160.714 168.568 160.04C168.231 159.366 168.062 158.578 168.062 157.676C168.062 156.771 168.231 155.979 168.568 155.301C168.905 154.623 169.379 154.097 169.989 153.722C170.598 153.347 171.313 153.159 172.131 153.159C172.949 153.159 173.663 153.347 174.273 153.722C174.883 154.097 175.356 154.623 175.693 155.301C176.03 155.979 176.199 156.771 176.199 157.676C176.199 158.578 176.03 159.366 175.693 160.04C175.356 160.714 174.883 161.239 174.273 161.614C173.663 161.989 172.949 162.176 172.131 162.176ZM172.136 160.75C172.667 160.75 173.106 160.61 173.455 160.33C173.803 160.049 174.061 159.676 174.227 159.21C174.398 158.744 174.483 158.231 174.483 157.67C174.483 157.114 174.398 156.602 174.227 156.136C174.061 155.667 173.803 155.29 173.455 155.006C173.106 154.722 172.667 154.58 172.136 154.58C171.602 154.58 171.159 154.722 170.807 155.006C170.458 155.29 170.199 155.667 170.028 156.136C169.862 156.602 169.778 157.114 169.778 157.67C169.778 158.231 169.862 158.744 170.028 159.21C170.199 159.676 170.458 160.049 170.807 160.33C171.159 160.61 171.602 160.75 172.136 160.75ZM181.362 162.17C180.658 162.17 180.029 161.991 179.476 161.631C178.927 161.267 178.495 160.75 178.18 160.08C177.87 159.405 177.714 158.597 177.714 157.653C177.714 156.71 177.872 155.903 178.186 155.233C178.504 154.562 178.94 154.049 179.493 153.693C180.046 153.337 180.673 153.159 181.374 153.159C181.915 153.159 182.351 153.25 182.68 153.432C183.014 153.61 183.271 153.818 183.453 154.057C183.639 154.295 183.783 154.506 183.885 154.688H183.987V150.364H185.686V162H184.027V160.642H183.885C183.783 160.828 183.635 161.04 183.442 161.278C183.252 161.517 182.991 161.725 182.658 161.903C182.324 162.081 181.893 162.17 181.362 162.17ZM181.737 160.722C182.226 160.722 182.639 160.593 182.976 160.335C183.317 160.074 183.574 159.712 183.749 159.25C183.927 158.788 184.016 158.25 184.016 157.636C184.016 157.03 183.929 156.5 183.754 156.045C183.58 155.591 183.324 155.237 182.987 154.983C182.65 154.729 182.233 154.602 181.737 154.602C181.226 154.602 180.8 154.735 180.459 155C180.118 155.265 179.86 155.627 179.686 156.085C179.516 156.544 179.43 157.061 179.43 157.636C179.43 158.22 179.518 158.744 179.692 159.21C179.866 159.676 180.124 160.045 180.464 160.318C180.809 160.587 181.233 160.722 181.737 160.722ZM191.872 162.176C191.012 162.176 190.272 161.992 189.651 161.625C189.033 161.254 188.556 160.733 188.219 160.062C187.885 159.388 187.719 158.598 187.719 157.693C187.719 156.799 187.885 156.011 188.219 155.33C188.556 154.648 189.026 154.116 189.628 153.733C190.234 153.35 190.942 153.159 191.753 153.159C192.245 153.159 192.723 153.241 193.185 153.403C193.647 153.566 194.062 153.822 194.429 154.17C194.796 154.519 195.086 154.972 195.298 155.528C195.51 156.081 195.616 156.754 195.616 157.545V158.148H188.679V156.875H193.952C193.952 156.428 193.861 156.032 193.679 155.688C193.497 155.339 193.241 155.064 192.912 154.864C192.586 154.663 192.204 154.562 191.764 154.562C191.287 154.562 190.87 154.68 190.514 154.915C190.162 155.146 189.889 155.449 189.696 155.824C189.507 156.195 189.412 156.598 189.412 157.034V158.028C189.412 158.612 189.514 159.108 189.719 159.517C189.927 159.926 190.217 160.239 190.588 160.455C190.959 160.667 191.393 160.773 191.889 160.773C192.211 160.773 192.505 160.727 192.77 160.636C193.035 160.542 193.264 160.402 193.457 160.216C193.651 160.03 193.798 159.801 193.901 159.528L195.509 159.818C195.38 160.292 195.149 160.706 194.815 161.062C194.486 161.415 194.071 161.689 193.571 161.886C193.075 162.08 192.509 162.176 191.872 162.176Z" fill="#2D3748"/>
<path d="M94 182C94 178.686 96.6863 176 100 176H298C301.314 176 304 178.686 304 182V210C304 213.314 301.314 216 298 216H100C96.6863 216 94 213.314 94 210V182Z" fill="white"/>
<path d="M111.409 202V190.364H115.341C116.254 190.364 117 190.528 117.58 190.858C118.163 191.184 118.595 191.625 118.875 192.182C119.155 192.739 119.295 193.36 119.295 194.045C119.295 194.731 119.155 195.354 118.875 195.915C118.598 196.475 118.17 196.922 117.591 197.256C117.011 197.585 116.269 197.75 115.364 197.75H112.545V196.5H115.318C115.943 196.5 116.445 196.392 116.824 196.176C117.203 195.96 117.477 195.669 117.648 195.301C117.822 194.93 117.909 194.511 117.909 194.045C117.909 193.58 117.822 193.163 117.648 192.795C117.477 192.428 117.201 192.14 116.818 191.932C116.436 191.72 115.928 191.614 115.295 191.614H112.818V202H111.409ZM121.565 202V190.364H125.497C126.41 190.364 127.156 190.528 127.736 190.858C128.319 191.184 128.751 191.625 129.031 192.182C129.312 192.739 129.452 193.36 129.452 194.045C129.452 194.731 129.312 195.354 129.031 195.915C128.755 196.475 128.327 196.922 127.747 197.256C127.168 197.585 126.425 197.75 125.52 197.75H122.702V196.5H125.474C126.099 196.5 126.601 196.392 126.98 196.176C127.359 195.96 127.634 195.669 127.804 195.301C127.978 194.93 128.065 194.511 128.065 194.045C128.065 193.58 127.978 193.163 127.804 192.795C127.634 192.428 127.357 192.14 126.974 191.932C126.592 191.72 126.084 191.614 125.452 191.614H122.974V202H121.565ZM131.722 202V190.364H135.653C136.566 190.364 137.313 190.528 137.892 190.858C138.475 191.184 138.907 191.625 139.188 192.182C139.468 192.739 139.608 193.36 139.608 194.045C139.608 194.731 139.468 195.354 139.188 195.915C138.911 196.475 138.483 196.922 137.903 197.256C137.324 197.585 136.581 197.75 135.676 197.75H132.858V196.5H135.631C136.256 196.5 136.758 196.392 137.136 196.176C137.515 195.96 137.79 195.669 137.96 195.301C138.134 194.93 138.222 194.511 138.222 194.045C138.222 193.58 138.134 193.163 137.96 192.795C137.79 192.428 137.513 192.14 137.131 191.932C136.748 191.72 136.241 191.614 135.608 191.614H133.131V202H131.722ZM141.168 202H139.69L143.963 190.364H145.418L149.69 202H148.213L144.736 192.205H144.645L141.168 202ZM141.713 197.455H147.668V198.705H141.713V197.455ZM151.503 190.364H153.185L157.139 200.023H157.276L161.23 190.364H162.912V202H161.594V193.159H161.48L157.844 202H156.571L152.935 193.159H152.821V202H151.503V190.364ZM169.328 202H165.737V190.364H169.487C170.616 190.364 171.582 190.597 172.385 191.062C173.188 191.525 173.804 192.189 174.232 193.057C174.66 193.92 174.874 194.955 174.874 196.159C174.874 197.371 174.658 198.415 174.226 199.29C173.794 200.161 173.165 200.831 172.339 201.301C171.514 201.767 170.51 202 169.328 202ZM167.146 200.75H169.237C170.199 200.75 170.997 200.564 171.629 200.193C172.262 199.822 172.733 199.294 173.044 198.608C173.355 197.922 173.51 197.106 173.51 196.159C173.51 195.22 173.357 194.411 173.05 193.733C172.743 193.051 172.285 192.528 171.675 192.165C171.065 191.797 170.305 191.614 169.396 191.614H167.146V200.75ZM176.76 199.614V198.455L181.874 190.364H182.714V192.159H182.146L178.283 198.273V198.364H185.169V199.614H176.76ZM182.237 202V199.261V198.722V190.364H183.578V202H182.237ZM191.094 202.159C190.238 202.159 189.509 201.926 188.906 201.46C188.304 200.991 187.844 200.311 187.526 199.42C187.207 198.527 187.048 197.447 187.048 196.182C187.048 194.924 187.207 193.85 187.526 192.96C187.848 192.066 188.31 191.384 188.912 190.915C189.518 190.441 190.245 190.205 191.094 190.205C191.942 190.205 192.668 190.441 193.27 190.915C193.876 191.384 194.338 192.066 194.656 192.96C194.978 193.85 195.139 194.924 195.139 196.182C195.139 197.447 194.98 198.527 194.662 199.42C194.344 200.311 193.884 200.991 193.281 201.46C192.679 201.926 191.95 202.159 191.094 202.159ZM191.094 200.909C191.942 200.909 192.601 200.5 193.071 199.682C193.541 198.864 193.776 197.697 193.776 196.182C193.776 195.174 193.668 194.316 193.452 193.608C193.24 192.9 192.933 192.36 192.531 191.989C192.134 191.617 191.654 191.432 191.094 191.432C190.253 191.432 189.596 191.847 189.122 192.676C188.649 193.502 188.412 194.67 188.412 196.182C188.412 197.189 188.518 198.045 188.73 198.75C188.942 199.455 189.247 199.991 189.645 200.358C190.046 200.725 190.529 200.909 191.094 200.909Z" fill="#2D3748"/>
<path d="M100 177H298V175H100V177ZM303 182V210H305V182H303ZM298 215H100V217H298V215ZM95 210V182H93V210H95ZM100 215C97.2386 215 95 212.761 95 210H93C93 213.866 96.134 217 100 217V215ZM303 210C303 212.761 300.761 215 298 215V217C301.866 217 305 213.866 305 210H303ZM298 177C300.761 177 303 179.239 303 182H305C305 178.134 301.866 175 298 175V177ZM100 175C96.134 175 93 178.134 93 182H95C95 179.239 97.2386 177 100 177V175Z" fill="#E2E8F0"/>
<path d="M44.9432 62.1477H43.1705C43.1023 61.7689 42.9754 61.4356 42.7898 61.1477C42.6042 60.8598 42.3769 60.6155 42.108 60.4148C41.839 60.214 41.5379 60.0625 41.2045 59.9602C40.875 59.858 40.5246 59.8068 40.1534 59.8068C39.483 59.8068 38.8826 59.9754 38.3523 60.3125C37.8258 60.6496 37.4091 61.1439 37.1023 61.7955C36.7992 62.447 36.6477 63.2424 36.6477 64.1818C36.6477 65.1288 36.7992 65.928 37.1023 66.5795C37.4091 67.2311 37.8277 67.7235 38.358 68.0568C38.8883 68.3902 39.4848 68.5568 40.1477 68.5568C40.5152 68.5568 40.8636 68.5076 41.1932 68.4091C41.5265 68.3068 41.8277 68.1572 42.0966 67.9602C42.3655 67.7633 42.5928 67.5227 42.7784 67.2386C42.9678 66.9508 43.0985 66.6212 43.1705 66.25L44.9432 66.2557C44.8485 66.8277 44.6648 67.3542 44.392 67.8352C44.1231 68.3125 43.7765 68.7254 43.3523 69.0739C42.9318 69.4186 42.4508 69.6856 41.9091 69.875C41.3674 70.0644 40.7765 70.1591 40.1364 70.1591C39.1288 70.1591 38.2311 69.9205 37.4432 69.4432C36.6553 68.9621 36.0341 68.2746 35.5795 67.3807C35.1288 66.4867 34.9034 65.4205 34.9034 64.1818C34.9034 62.9394 35.1307 61.8731 35.5852 60.983C36.0398 60.089 36.661 59.4034 37.4489 58.9261C38.2367 58.4451 39.1326 58.2045 40.1364 58.2045C40.7538 58.2045 41.3295 58.2936 41.8636 58.4716C42.4015 58.6458 42.8845 58.9034 43.3125 59.2443C43.7405 59.5814 44.0947 59.9943 44.375 60.483C44.6553 60.9678 44.8447 61.5227 44.9432 62.1477ZM50.5838 70.1761C49.7656 70.1761 49.0516 69.9886 48.4418 69.6136C47.8319 69.2386 47.3584 68.714 47.0213 68.0398C46.6842 67.3655 46.5156 66.5777 46.5156 65.6761C46.5156 64.7708 46.6842 63.9792 47.0213 63.3011C47.3584 62.6231 47.8319 62.0966 48.4418 61.7216C49.0516 61.3466 49.7656 61.1591 50.5838 61.1591C51.402 61.1591 52.116 61.3466 52.7259 61.7216C53.3357 62.0966 53.8092 62.6231 54.1463 63.3011C54.4834 63.9792 54.652 64.7708 54.652 65.6761C54.652 66.5777 54.4834 67.3655 54.1463 68.0398C53.8092 68.714 53.3357 69.2386 52.7259 69.6136C52.116 69.9886 51.402 70.1761 50.5838 70.1761ZM50.5895 68.75C51.1198 68.75 51.5592 68.6098 51.9077 68.3295C52.2562 68.0492 52.5137 67.6761 52.6804 67.2102C52.8509 66.7443 52.9361 66.2311 52.9361 65.6705C52.9361 65.1136 52.8509 64.6023 52.6804 64.1364C52.5137 63.6667 52.2562 63.2898 51.9077 63.0057C51.5592 62.7216 51.1198 62.5795 50.5895 62.5795C50.0554 62.5795 49.6122 62.7216 49.2599 63.0057C48.9115 63.2898 48.652 63.6667 48.4815 64.1364C48.3149 64.6023 48.2315 65.1136 48.2315 65.6705C48.2315 66.2311 48.3149 66.7443 48.4815 67.2102C48.652 67.6761 48.9115 68.0492 49.2599 68.3295C49.6122 68.6098 50.0554 68.75 50.5895 68.75ZM62.0767 66.3807V61.2727H63.7812V70H62.1108V68.4886H62.0199C61.8191 68.9545 61.4972 69.3428 61.054 69.6534C60.6146 69.9602 60.0672 70.1136 59.4119 70.1136C58.8513 70.1136 58.3551 69.9905 57.9233 69.7443C57.4953 69.4943 57.1581 69.125 56.9119 68.6364C56.6695 68.1477 56.5483 67.5436 56.5483 66.8239V61.2727H58.2472V66.6193C58.2472 67.214 58.4119 67.6875 58.7415 68.0398C59.071 68.392 59.4991 68.5682 60.0256 68.5682C60.3438 68.5682 60.66 68.4886 60.9744 68.3295C61.2926 68.1705 61.5559 67.9299 61.7642 67.608C61.9763 67.286 62.0805 66.8769 62.0767 66.3807ZM66.0639 73.2727V61.2727H67.723V62.6875H67.8651C67.9635 62.5057 68.1056 62.2955 68.2912 62.0568C68.4768 61.8182 68.7344 61.6098 69.0639 61.4318C69.3935 61.25 69.8291 61.1591 70.3707 61.1591C71.0753 61.1591 71.7041 61.3371 72.2571 61.6932C72.8101 62.0492 73.2438 62.5625 73.5582 63.233C73.8764 63.9034 74.0355 64.7102 74.0355 65.6534C74.0355 66.5966 73.8783 67.4053 73.5639 68.0795C73.2495 68.75 72.8177 69.267 72.2685 69.6307C71.7192 69.9905 71.0923 70.1705 70.3878 70.1705C69.8575 70.1705 69.4238 70.0814 69.0866 69.9034C68.7533 69.7254 68.492 69.517 68.3026 69.2784C68.1132 69.0398 67.9673 68.8277 67.8651 68.642H67.7628V73.2727H66.0639ZM67.7287 65.6364C67.7287 66.25 67.8177 66.7879 67.9957 67.25C68.1738 67.7121 68.4313 68.0739 68.7685 68.3352C69.1056 68.5928 69.5185 68.7216 70.0071 68.7216C70.5147 68.7216 70.9389 68.5871 71.2798 68.3182C71.6207 68.0455 71.8783 67.6761 72.0526 67.2102C72.2306 66.7443 72.3196 66.2197 72.3196 65.6364C72.3196 65.0606 72.2325 64.5436 72.0582 64.0852C71.8878 63.6269 71.6302 63.2652 71.2855 63C70.9446 62.7348 70.5185 62.6023 70.0071 62.6023C69.5147 62.6023 69.098 62.7292 68.7571 62.983C68.42 63.2367 68.1643 63.5909 67.9901 64.0455C67.8158 64.5 67.7287 65.0303 67.7287 65.6364ZM79.6151 70.1761C78.7969 70.1761 78.0829 69.9886 77.473 69.6136C76.8632 69.2386 76.3897 68.714 76.0526 68.0398C75.7154 67.3655 75.5469 66.5777 75.5469 65.6761C75.5469 64.7708 75.7154 63.9792 76.0526 63.3011C76.3897 62.6231 76.8632 62.0966 77.473 61.7216C78.0829 61.3466 78.7969 61.1591 79.6151 61.1591C80.4332 61.1591 81.1473 61.3466 81.7571 61.7216C82.367 62.0966 82.8404 62.6231 83.1776 63.3011C83.5147 63.9792 83.6832 64.7708 83.6832 65.6761C83.6832 66.5777 83.5147 67.3655 83.1776 68.0398C82.8404 68.714 82.367 69.2386 81.7571 69.6136C81.1473 69.9886 80.4332 70.1761 79.6151 70.1761ZM79.6207 68.75C80.151 68.75 80.5904 68.6098 80.9389 68.3295C81.2874 68.0492 81.545 67.6761 81.7116 67.2102C81.8821 66.7443 81.9673 66.2311 81.9673 65.6705C81.9673 65.1136 81.8821 64.6023 81.7116 64.1364C81.545 63.6667 81.2874 63.2898 80.9389 63.0057C80.5904 62.7216 80.151 62.5795 79.6207 62.5795C79.0866 62.5795 78.6435 62.7216 78.2912 63.0057C77.9427 63.2898 77.6832 63.6667 77.5128 64.1364C77.3461 64.6023 77.2628 65.1136 77.2628 65.6705C77.2628 66.2311 77.3461 66.7443 77.5128 67.2102C77.6832 67.6761 77.9427 68.0492 78.2912 68.3295C78.6435 68.6098 79.0866 68.75 79.6207 68.75ZM87.2784 64.8182V70H85.5795V61.2727H87.2102V62.6932H87.3182C87.5189 62.2311 87.8333 61.8598 88.2614 61.5795C88.6932 61.2992 89.2367 61.1591 89.892 61.1591C90.4867 61.1591 91.0076 61.2841 91.4545 61.5341C91.9015 61.7803 92.2481 62.1477 92.4943 62.6364C92.7405 63.125 92.8636 63.7292 92.8636 64.4489V70H91.1648V64.6534C91.1648 64.0208 91 63.5265 90.6705 63.1705C90.3409 62.8106 89.8883 62.6307 89.3125 62.6307C88.9186 62.6307 88.5682 62.7159 88.2614 62.8864C87.9583 63.0568 87.7178 63.3068 87.5398 63.6364C87.3655 63.9621 87.2784 64.3561 87.2784 64.8182ZM103.053 70.1761C102.208 70.1761 101.481 69.9848 100.871 69.6023C100.265 69.2159 99.7988 68.6837 99.473 68.0057C99.1473 67.3277 98.9844 66.5511 98.9844 65.6761C98.9844 64.7898 99.151 64.0076 99.4844 63.3295C99.8177 62.6477 100.287 62.1155 100.893 61.733C101.5 61.3504 102.214 61.1591 103.036 61.1591C103.698 61.1591 104.289 61.2822 104.808 61.5284C105.327 61.7708 105.746 62.1117 106.064 62.5511C106.386 62.9905 106.577 63.5038 106.638 64.0909H104.984C104.893 63.6818 104.685 63.3295 104.359 63.0341C104.037 62.7386 103.606 62.5909 103.064 62.5909C102.59 62.5909 102.176 62.7159 101.82 62.9659C101.467 63.2121 101.193 63.5644 100.996 64.0227C100.799 64.4773 100.7 65.0152 100.7 65.6364C100.7 66.2727 100.797 66.822 100.99 67.2841C101.183 67.7462 101.456 68.1042 101.808 68.358C102.164 68.6117 102.583 68.7386 103.064 68.7386C103.386 68.7386 103.678 68.6799 103.939 68.5625C104.204 68.4413 104.426 68.2689 104.604 68.0455C104.786 67.822 104.912 67.553 104.984 67.2386H106.638C106.577 67.803 106.393 68.3068 106.087 68.75C105.78 69.1932 105.369 69.5417 104.854 69.7955C104.342 70.0492 103.742 70.1761 103.053 70.1761ZM112.131 70.1761C111.313 70.1761 110.598 69.9886 109.989 69.6136C109.379 69.2386 108.905 68.714 108.568 68.0398C108.231 67.3655 108.062 66.5777 108.062 65.6761C108.062 64.7708 108.231 63.9792 108.568 63.3011C108.905 62.6231 109.379 62.0966 109.989 61.7216C110.598 61.3466 111.313 61.1591 112.131 61.1591C112.949 61.1591 113.663 61.3466 114.273 61.7216C114.883 62.0966 115.356 62.6231 115.693 63.3011C116.03 63.9792 116.199 64.7708 116.199 65.6761C116.199 66.5777 116.03 67.3655 115.693 68.0398C115.356 68.714 114.883 69.2386 114.273 69.6136C113.663 69.9886 112.949 70.1761 112.131 70.1761ZM112.136 68.75C112.667 68.75 113.106 68.6098 113.455 68.3295C113.803 68.0492 114.061 67.6761 114.227 67.2102C114.398 66.7443 114.483 66.2311 114.483 65.6705C114.483 65.1136 114.398 64.6023 114.227 64.1364C114.061 63.6667 113.803 63.2898 113.455 63.0057C113.106 62.7216 112.667 62.5795 112.136 62.5795C111.602 62.5795 111.159 62.7216 110.807 63.0057C110.458 63.2898 110.199 63.6667 110.028 64.1364C109.862 64.6023 109.778 65.1136 109.778 65.6705C109.778 66.2311 109.862 66.7443 110.028 67.2102C110.199 67.6761 110.458 68.0492 110.807 68.3295C111.159 68.6098 111.602 68.75 112.136 68.75ZM121.362 70.1705C120.658 70.1705 120.029 69.9905 119.476 69.6307C118.927 69.267 118.495 68.75 118.18 68.0795C117.87 67.4053 117.714 66.5966 117.714 65.6534C117.714 64.7102 117.872 63.9034 118.186 63.233C118.504 62.5625 118.94 62.0492 119.493 61.6932C120.046 61.3371 120.673 61.1591 121.374 61.1591C121.915 61.1591 122.351 61.25 122.68 61.4318C123.014 61.6098 123.271 61.8182 123.453 62.0568C123.639 62.2955 123.783 62.5057 123.885 62.6875H123.987V58.3636H125.686V70H124.027V68.642H123.885C123.783 68.8277 123.635 69.0398 123.442 69.2784C123.252 69.517 122.991 69.7254 122.658 69.9034C122.324 70.0814 121.893 70.1705 121.362 70.1705ZM121.737 68.7216C122.226 68.7216 122.639 68.5928 122.976 68.3352C123.317 68.0739 123.574 67.7121 123.749 67.25C123.927 66.7879 124.016 66.25 124.016 65.6364C124.016 65.0303 123.929 64.5 123.754 64.0455C123.58 63.5909 123.324 63.2367 122.987 62.983C122.65 62.7292 122.233 62.6023 121.737 62.6023C121.226 62.6023 120.8 62.7348 120.459 63C120.118 63.2652 119.86 63.6269 119.686 64.0852C119.516 64.5436 119.43 65.0606 119.43 65.6364C119.43 66.2197 119.518 66.7443 119.692 67.2102C119.866 67.6761 120.124 68.0455 120.464 68.3182C120.809 68.5871 121.233 68.7216 121.737 68.7216ZM131.872 70.1761C131.012 70.1761 130.272 69.9924 129.651 69.625C129.033 69.2538 128.556 68.733 128.219 68.0625C127.885 67.3883 127.719 66.5985 127.719 65.6932C127.719 64.7992 127.885 64.0114 128.219 63.3295C128.556 62.6477 129.026 62.1155 129.628 61.733C130.234 61.3504 130.942 61.1591 131.753 61.1591C132.245 61.1591 132.723 61.2405 133.185 61.4034C133.647 61.5663 134.062 61.822 134.429 62.1705C134.796 62.5189 135.086 62.9716 135.298 63.5284C135.51 64.0814 135.616 64.7538 135.616 65.5455V66.1477H128.679V64.875H133.952C133.952 64.428 133.861 64.0322 133.679 63.6875C133.497 63.339 133.241 63.0644 132.912 62.8636C132.586 62.6629 132.204 62.5625 131.764 62.5625C131.287 62.5625 130.87 62.6799 130.514 62.9148C130.162 63.1458 129.889 63.4489 129.696 63.8239C129.507 64.1951 129.412 64.5985 129.412 65.0341V66.0284C129.412 66.6117 129.514 67.108 129.719 67.517C129.927 67.9261 130.217 68.2386 130.588 68.4545C130.959 68.6667 131.393 68.7727 131.889 68.7727C132.211 68.7727 132.505 68.7273 132.77 68.6364C133.035 68.5417 133.264 68.4015 133.457 68.2159C133.651 68.0303 133.798 67.8011 133.901 67.5284L135.509 67.8182C135.38 68.2917 135.149 68.7064 134.815 69.0625C134.486 69.4148 134.071 69.6894 133.571 69.8864C133.075 70.0795 132.509 70.1761 131.872 70.1761Z" fill="#2D3748"/>
<path d="M34 90C34 86.6863 36.6863 84 40 84H241C244.314 84 247 86.6863 247 90V118C247 121.314 244.314 124 241 124H40C36.6863 124 34 121.314 34 118V90Z" fill="white"/>
<path d="M51.4091 110V98.3636H55.3409C56.2538 98.3636 57 98.5284 57.5795 98.858C58.1629 99.1837 58.5947 99.625 58.875 100.182C59.1553 100.739 59.2955 101.36 59.2955 102.045C59.2955 102.731 59.1553 103.354 58.875 103.915C58.5985 104.475 58.1705 104.922 57.5909 105.256C57.0114 105.585 56.2689 105.75 55.3636 105.75H52.5455V104.5H55.3182C55.9432 104.5 56.4451 104.392 56.8239 104.176C57.2027 103.96 57.4773 103.669 57.6477 103.301C57.822 102.93 57.9091 102.511 57.9091 102.045C57.9091 101.58 57.822 101.163 57.6477 100.795C57.4773 100.428 57.2008 100.14 56.8182 99.9318C56.4356 99.7197 55.928 99.6136 55.2955 99.6136H52.8182V110H51.4091ZM61.5653 110V98.3636H65.4972C66.41 98.3636 67.1563 98.5284 67.7358 98.858C68.3191 99.1837 68.7509 99.625 69.0312 100.182C69.3116 100.739 69.4517 101.36 69.4517 102.045C69.4517 102.731 69.3116 103.354 69.0312 103.915C68.7547 104.475 68.3267 104.922 67.7472 105.256C67.1676 105.585 66.4252 105.75 65.5199 105.75H62.7017V104.5H65.4744C66.0994 104.5 66.6013 104.392 66.9801 104.176C67.3589 103.96 67.6335 103.669 67.804 103.301C67.9782 102.93 68.0653 102.511 68.0653 102.045C68.0653 101.58 67.9782 101.163 67.804 100.795C67.6335 100.428 67.357 100.14 66.9744 99.9318C66.5919 99.7197 66.0843 99.6136 65.4517 99.6136H62.9744V110H61.5653ZM71.7216 110V98.3636H75.6534C76.5663 98.3636 77.3125 98.5284 77.892 98.858C78.4754 99.1837 78.9072 99.625 79.1875 100.182C79.4678 100.739 79.608 101.36 79.608 102.045C79.608 102.731 79.4678 103.354 79.1875 103.915C78.911 104.475 78.483 104.922 77.9034 105.256C77.3239 105.585 76.5814 105.75 75.6761 105.75H72.858V104.5H75.6307C76.2557 104.5 76.7576 104.392 77.1364 104.176C77.5152 103.96 77.7898 103.669 77.9602 103.301C78.1345 102.93 78.2216 102.511 78.2216 102.045C78.2216 101.58 78.1345 101.163 77.9602 100.795C77.7898 100.428 77.5133 100.14 77.1307 99.9318C76.7481 99.7197 76.2405 99.6136 75.608 99.6136H73.1307V110H71.7216ZM83.2869 98.3636V110H81.8778V98.3636H83.2869ZM95.3395 98.3636V110H93.9759L87.6349 100.864H87.5213V110H86.1122V98.3636H87.4759L93.8395 107.523H93.9531V98.3636H95.3395ZM101.75 110H98.1591V98.3636H101.909C103.038 98.3636 104.004 98.5966 104.807 99.0625C105.61 99.5246 106.225 100.189 106.653 101.057C107.081 101.92 107.295 102.955 107.295 104.159C107.295 105.371 107.08 106.415 106.648 107.29C106.216 108.161 105.587 108.831 104.761 109.301C103.936 109.767 102.932 110 101.75 110ZM99.5682 108.75H101.659C102.621 108.75 103.419 108.564 104.051 108.193C104.684 107.822 105.155 107.294 105.466 106.608C105.777 105.922 105.932 105.106 105.932 104.159C105.932 103.22 105.778 102.411 105.472 101.733C105.165 101.051 104.706 100.528 104.097 100.165C103.487 99.7973 102.727 99.6136 101.818 99.6136H99.5682V108.75ZM109.182 107.614V106.455L114.295 98.3636H115.136V100.159H114.568L110.705 106.273V106.364H117.591V107.614H109.182ZM114.659 110V107.261V106.722V98.3636H116V110H114.659ZM123.516 110.159C122.66 110.159 121.93 109.926 121.328 109.46C120.726 108.991 120.266 108.311 119.947 107.42C119.629 106.527 119.47 105.447 119.47 104.182C119.47 102.924 119.629 101.85 119.947 100.96C120.269 100.066 120.732 99.3845 121.334 98.9148C121.94 98.4413 122.667 98.2045 123.516 98.2045C124.364 98.2045 125.089 98.4413 125.692 98.9148C126.298 99.3845 126.76 100.066 127.078 100.96C127.4 101.85 127.561 102.924 127.561 104.182C127.561 105.447 127.402 106.527 127.084 107.42C126.766 108.311 126.305 108.991 125.703 109.46C125.101 109.926 124.372 110.159 123.516 110.159ZM123.516 108.909C124.364 108.909 125.023 108.5 125.493 107.682C125.963 106.864 126.197 105.697 126.197 104.182C126.197 103.174 126.089 102.316 125.874 101.608C125.661 100.9 125.355 100.36 124.953 99.9886C124.555 99.6174 124.076 99.4318 123.516 99.4318C122.675 99.4318 122.018 99.8466 121.544 100.676C121.071 101.502 120.834 102.67 120.834 104.182C120.834 105.189 120.94 106.045 121.152 106.75C121.364 107.455 121.669 107.991 122.067 108.358C122.468 108.725 122.951 108.909 123.516 108.909Z" fill="#2D3748"/>
<path d="M40 85H241V83H40V85ZM246 90V118H248V90H246ZM241 123H40V125H241V123ZM35 118V90H33V118H35ZM40 123C37.2386 123 35 120.761 35 118H33C33 121.866 36.134 125 40 125V123ZM246 118C246 120.761 243.761 123 241 123V125C244.866 125 248 121.866 248 118H246ZM241 85C243.761 85 246 87.2386 246 90H248C248 86.134 244.866 83 241 83V85ZM40 83C36.134 83 33 86.134 33 90H35C35 87.2386 37.2386 85 40 85V83Z" fill="#E2E8F0"/>
<circle cx="333" cy="62" r="61.5" fill="#CDCDE5" stroke="#38386C" stroke-dasharray="6 6"/>
<path d="M356.333 61.9994C356.333 74.8794 345.88 85.3327 333 85.3327C320.12 85.3327 312.257 72.3594 312.257 72.3594M312.257 72.3594H322.803M312.257 72.3594V84.026M309.667 61.9994C309.667 49.1193 320.027 38.666 333 38.666C348.563 38.666 356.333 51.6393 356.333 51.6393M356.333 51.6393V39.9727M356.333 51.6393H345.973" stroke="#38386C" stroke-width="5" stroke-linecap="round" stroke-linejoin="round"/>
<defs>
<filter id="filter0_di_2604_15256" x="0" y="40" width="398" height="196" filterUnits="userSpaceOnUse" color-interpolation-filters="sRGB">
<feFlood flood-opacity="0" result="BackgroundImageFix"/>
<feColorMatrix in="SourceAlpha" type="matrix" values="0 0 0 0 0 0 0 0 0 0 0 0 0 0 0 0 0 0 127 0" result="hardAlpha"/>
<feOffset dy="4"/>
<feGaussianBlur stdDeviation="2"/>
<feComposite in2="hardAlpha" operator="out"/>
<feColorMatrix type="matrix" values="0 0 0 0 0.803922 0 0 0 0 0.803922 0 0 0 0 0.898039 0 0 0 0.25 0"/>
<feBlend mode="normal" in2="BackgroundImageFix" result="effect1_dropShadow_2604_15256"/>
<feBlend mode="normal" in="SourceGraphic" in2="effect1_dropShadow_2604_15256" result="shape"/>
<feColorMatrix in="SourceAlpha" type="matrix" values="0 0 0 0 0 0 0 0 0 0 0 0 0 0 0 0 0 0 127 0" result="hardAlpha"/>
<feOffset dy="2"/>
<feGaussianBlur stdDeviation="4"/>
<feComposite in2="hardAlpha" operator="arithmetic" k2="-1" k3="1"/>
<feColorMatrix type="matrix" values="0 0 0 0 0.803922 0 0 0 0 0.803922 0 0 0 0 0.898039 0 0 0 1 0"/>
<feBlend mode="normal" in2="shape" result="effect2_innerShadow_2604_15256"/>
</filter>
</defs>
</svg>
