<svg width="670" height="450" viewBox="0 0 670 450" fill="none" xmlns="http://www.w3.org/2000/svg">
<path d="M490 100C490 73.0556 511.333 51.5 538 51.5C511.333 51.5 490 29.9444 490 3C490 29.9444 468.667 51.5 442 51.5C468.667 54.1944 490 73.0556 490 100Z" fill="#759FD2"/>
<path d="M248.5 115C248.5 89.4444 268.722 69 294 69C268.722 69 248.5 48.5556 248.5 23C248.5 48.5556 228.278 69 203 69C228.278 71.5556 248.5 89.4444 248.5 115Z" fill="#A8CFFF"/>
<path d="M357.784 39C357.784 70.1489 332.991 95.068 302 95.068C332.991 95.068 357.784 119.987 357.784 151.136C357.784 119.987 382.578 95.068 413.569 95.068C382.578 95.068 357.784 70.1489 357.784 39Z" fill="#A8CFFF"/>
<path d="M232 162C232 159.791 233.791 158 236 158H418C420.209 158 422 159.791 422 162V390C422 390.552 421.552 391 421 391H233C232.448 391 232 390.552 232 390V162Z" fill="#A8CFFF"/>
<path d="M267.806 255.766H263.45C263.371 255.202 263.209 254.702 262.963 254.264C262.718 253.82 262.403 253.442 262.019 253.131C261.634 252.819 261.19 252.58 260.686 252.415C260.189 252.249 259.649 252.166 259.066 252.166C258.012 252.166 257.093 252.428 256.311 252.952C255.529 253.469 254.923 254.224 254.492 255.219C254.061 256.206 253.845 257.406 253.845 258.818C253.845 260.27 254.061 261.49 254.492 262.477C254.929 263.465 255.539 264.211 256.321 264.714C257.103 265.218 258.008 265.47 259.036 265.47C259.612 265.47 260.146 265.394 260.637 265.241C261.134 265.089 261.575 264.867 261.959 264.575C262.343 264.277 262.662 263.916 262.914 263.491C263.172 263.067 263.351 262.583 263.45 262.04L267.806 262.06C267.693 262.994 267.411 263.896 266.96 264.764C266.516 265.626 265.916 266.398 265.161 267.081C264.412 267.757 263.517 268.294 262.476 268.692C261.442 269.083 260.272 269.278 258.966 269.278C257.15 269.278 255.526 268.867 254.094 268.045C252.669 267.223 251.542 266.034 250.713 264.476C249.891 262.918 249.48 261.032 249.48 258.818C249.48 256.598 249.898 254.708 250.733 253.151C251.568 251.593 252.702 250.406 254.134 249.591C255.566 248.769 257.176 248.358 258.966 248.358C260.146 248.358 261.24 248.524 262.247 248.855C263.262 249.187 264.16 249.67 264.942 250.307C265.724 250.937 266.36 251.709 266.851 252.624C267.348 253.538 267.666 254.586 267.806 255.766ZM277.774 269.298C276.203 269.298 274.85 268.98 273.717 268.344C272.59 267.701 271.722 266.793 271.112 265.619C270.502 264.439 270.197 263.044 270.197 261.433C270.197 259.862 270.502 258.483 271.112 257.297C271.722 256.11 272.58 255.186 273.687 254.523C274.801 253.86 276.106 253.528 277.605 253.528C278.612 253.528 279.55 253.691 280.419 254.016C281.294 254.334 282.056 254.814 282.705 255.457C283.362 256.1 283.872 256.909 284.237 257.884C284.601 258.851 284.784 259.985 284.784 261.284V262.447H271.887V259.822H280.796C280.796 259.213 280.664 258.672 280.399 258.202C280.133 257.731 279.766 257.363 279.295 257.098C278.831 256.826 278.291 256.69 277.674 256.69C277.031 256.69 276.461 256.839 275.964 257.138C275.473 257.429 275.089 257.824 274.811 258.321C274.532 258.812 274.39 259.358 274.383 259.962V262.457C274.383 263.213 274.522 263.866 274.801 264.416C275.086 264.966 275.487 265.391 276.004 265.689C276.521 265.987 277.134 266.136 277.843 266.136C278.314 266.136 278.745 266.07 279.136 265.938C279.527 265.805 279.862 265.606 280.14 265.341C280.419 265.076 280.631 264.751 280.776 264.366L284.694 264.625C284.495 265.566 284.088 266.388 283.471 267.091C282.861 267.787 282.072 268.33 281.105 268.722C280.143 269.106 279.033 269.298 277.774 269.298ZM291.784 248.636V269H287.548V248.636H291.784ZM302.137 269.298C300.566 269.298 299.214 268.98 298.08 268.344C296.953 267.701 296.085 266.793 295.475 265.619C294.865 264.439 294.56 263.044 294.56 261.433C294.56 259.862 294.865 258.483 295.475 257.297C296.085 256.11 296.943 255.186 298.05 254.523C299.164 253.86 300.47 253.528 301.968 253.528C302.975 253.528 303.913 253.691 304.782 254.016C305.657 254.334 306.419 254.814 307.069 255.457C307.725 256.1 308.235 256.909 308.6 257.884C308.965 258.851 309.147 259.985 309.147 261.284V262.447H296.251V259.822H305.16C305.16 259.213 305.027 258.672 304.762 258.202C304.497 257.731 304.129 257.363 303.658 257.098C303.194 256.826 302.654 256.69 302.037 256.69C301.394 256.69 300.824 256.839 300.327 257.138C299.837 257.429 299.452 257.824 299.174 258.321C298.895 258.812 298.753 259.358 298.746 259.962V262.457C298.746 263.213 298.885 263.866 299.164 264.416C299.449 264.966 299.85 265.391 300.367 265.689C300.884 265.987 301.497 266.136 302.206 266.136C302.677 266.136 303.108 266.07 303.499 265.938C303.89 265.805 304.225 265.606 304.503 265.341C304.782 265.076 304.994 264.751 305.14 264.366L309.057 264.625C308.858 265.566 308.451 266.388 307.834 267.091C307.224 267.787 306.436 268.33 305.468 268.722C304.507 269.106 303.396 269.298 302.137 269.298ZM311.991 269V248.636H316.226V256.293H316.356C316.541 255.882 316.81 255.464 317.161 255.04C317.519 254.609 317.983 254.251 318.553 253.966C319.13 253.674 319.846 253.528 320.701 253.528C321.814 253.528 322.842 253.82 323.783 254.403C324.724 254.98 325.477 255.852 326.04 257.018C326.604 258.179 326.885 259.634 326.885 261.384C326.885 263.087 326.61 264.526 326.06 265.699C325.517 266.866 324.774 267.75 323.833 268.354C322.898 268.95 321.851 269.249 320.691 269.249C319.869 269.249 319.17 269.113 318.593 268.841C318.023 268.569 317.555 268.228 317.191 267.817C316.826 267.399 316.548 266.978 316.356 266.554H316.167V269H311.991ZM316.137 261.364C316.137 262.272 316.263 263.064 316.515 263.74C316.767 264.416 317.131 264.943 317.608 265.321C318.086 265.692 318.666 265.878 319.349 265.878C320.038 265.878 320.621 265.689 321.099 265.311C321.576 264.927 321.937 264.396 322.182 263.72C322.434 263.037 322.56 262.252 322.56 261.364C322.56 260.482 322.438 259.706 322.192 259.037C321.947 258.367 321.586 257.844 321.108 257.466C320.631 257.088 320.045 256.899 319.349 256.899C318.659 256.899 318.076 257.081 317.599 257.446C317.128 257.811 316.767 258.328 316.515 258.997C316.263 259.667 316.137 260.455 316.137 261.364ZM329.712 269V253.727H333.818V256.392H333.977C334.256 255.444 334.723 254.728 335.379 254.244C336.036 253.754 336.791 253.509 337.646 253.509C337.859 253.509 338.087 253.522 338.333 253.548C338.578 253.575 338.793 253.611 338.979 253.658V257.416C338.78 257.357 338.505 257.304 338.154 257.257C337.802 257.211 337.481 257.188 337.189 257.188C336.566 257.188 336.009 257.323 335.519 257.595C335.035 257.86 334.65 258.232 334.365 258.709C334.087 259.186 333.948 259.736 333.948 260.359V269H329.712ZM345.086 269.288C344.112 269.288 343.244 269.119 342.481 268.781C341.719 268.437 341.116 267.929 340.672 267.26C340.234 266.584 340.015 265.742 340.015 264.734C340.015 263.886 340.171 263.173 340.483 262.597C340.794 262.02 341.219 261.556 341.756 261.205C342.292 260.853 342.902 260.588 343.585 260.409C344.274 260.23 344.997 260.104 345.753 260.031C346.641 259.938 347.357 259.852 347.9 259.773C348.444 259.687 348.838 259.561 349.084 259.395C349.329 259.229 349.452 258.984 349.452 258.659V258.599C349.452 257.97 349.253 257.482 348.855 257.138C348.464 256.793 347.907 256.621 347.184 256.621C346.422 256.621 345.816 256.79 345.365 257.128C344.914 257.459 344.616 257.877 344.47 258.381L340.552 258.062C340.751 257.134 341.142 256.332 341.726 255.656C342.309 254.973 343.061 254.45 343.983 254.085C344.911 253.714 345.985 253.528 347.204 253.528C348.053 253.528 348.865 253.628 349.64 253.827C350.423 254.026 351.115 254.334 351.719 254.751C352.328 255.169 352.809 255.706 353.16 256.362C353.512 257.012 353.687 257.791 353.687 258.699V269H349.67V266.882H349.551C349.306 267.359 348.978 267.78 348.567 268.145C348.156 268.503 347.662 268.785 347.085 268.99C346.508 269.189 345.842 269.288 345.086 269.288ZM346.3 266.365C346.923 266.365 347.473 266.242 347.95 265.997C348.427 265.745 348.802 265.407 349.074 264.983C349.345 264.559 349.481 264.078 349.481 263.541V261.92C349.349 262.007 349.166 262.086 348.934 262.159C348.709 262.225 348.454 262.288 348.169 262.348C347.884 262.401 347.599 262.451 347.314 262.497C347.029 262.537 346.77 262.573 346.538 262.607C346.041 262.679 345.607 262.795 345.236 262.955C344.864 263.114 344.576 263.329 344.371 263.601C344.165 263.866 344.062 264.197 344.062 264.595C344.062 265.172 344.271 265.613 344.689 265.918C345.113 266.216 345.65 266.365 346.3 266.365ZM365.097 253.727V256.909H355.9V253.727H365.097ZM357.988 250.068H362.224V264.307C362.224 264.698 362.283 265.003 362.403 265.222C362.522 265.434 362.688 265.583 362.9 265.669C363.118 265.755 363.37 265.798 363.655 265.798C363.854 265.798 364.053 265.782 364.252 265.749C364.451 265.709 364.603 265.679 364.709 265.659L365.376 268.811C365.163 268.877 364.865 268.954 364.481 269.04C364.096 269.133 363.629 269.189 363.079 269.209C362.058 269.249 361.163 269.113 360.394 268.801C359.632 268.49 359.038 268.006 358.614 267.349C358.19 266.693 357.981 265.865 357.988 264.864V250.068ZM367.856 269V253.727H372.092V269H367.856ZM369.984 251.759C369.354 251.759 368.814 251.55 368.363 251.132C367.919 250.708 367.697 250.201 367.697 249.611C367.697 249.027 367.919 248.527 368.363 248.109C368.814 247.685 369.354 247.473 369.984 247.473C370.614 247.473 371.151 247.685 371.595 248.109C372.046 248.527 372.271 249.027 372.271 249.611C372.271 250.201 372.046 250.708 371.595 251.132C371.151 251.55 370.614 251.759 369.984 251.759ZM379.721 260.17V269H375.485V253.727H379.522V256.422H379.701C380.039 255.534 380.606 254.831 381.401 254.314C382.197 253.79 383.161 253.528 384.295 253.528C385.356 253.528 386.28 253.76 387.069 254.224C387.858 254.688 388.471 255.351 388.909 256.213C389.346 257.068 389.565 258.089 389.565 259.276V269H385.329V260.031C385.336 259.097 385.097 258.367 384.613 257.844C384.129 257.313 383.463 257.048 382.615 257.048C382.044 257.048 381.541 257.171 381.103 257.416C380.672 257.661 380.334 258.019 380.089 258.49C379.85 258.954 379.728 259.514 379.721 260.17ZM399.784 275.045C398.412 275.045 397.235 274.857 396.254 274.479C395.28 274.107 394.504 273.6 393.927 272.957C393.351 272.314 392.976 271.592 392.804 270.79L396.721 270.263C396.841 270.568 397.03 270.853 397.288 271.118C397.547 271.383 397.888 271.595 398.312 271.754C398.743 271.92 399.267 272.003 399.883 272.003C400.805 272.003 401.564 271.777 402.16 271.327C402.764 270.883 403.065 270.137 403.065 269.089V266.295H402.886C402.701 266.72 402.422 267.121 402.051 267.499C401.68 267.876 401.202 268.185 400.619 268.423C400.036 268.662 399.34 268.781 398.531 268.781C397.384 268.781 396.34 268.516 395.399 267.986C394.464 267.449 393.719 266.63 393.162 265.53C392.612 264.423 392.336 263.024 392.336 261.334C392.336 259.604 392.618 258.159 393.182 256.999C393.745 255.839 394.494 254.97 395.429 254.393C396.37 253.817 397.401 253.528 398.521 253.528C399.376 253.528 400.092 253.674 400.669 253.966C401.246 254.251 401.71 254.609 402.061 255.04C402.419 255.464 402.694 255.882 402.886 256.293H403.045V253.727H407.251V269.149C407.251 270.448 406.933 271.536 406.297 272.411C405.66 273.286 404.779 273.942 403.652 274.379C402.532 274.823 401.242 275.045 399.784 275.045ZM399.873 265.599C400.556 265.599 401.133 265.43 401.604 265.092C402.081 264.748 402.445 264.257 402.697 263.621C402.956 262.978 403.085 262.209 403.085 261.314C403.085 260.419 402.959 259.643 402.707 258.987C402.455 258.324 402.091 257.811 401.613 257.446C401.136 257.081 400.556 256.899 399.873 256.899C399.177 256.899 398.591 257.088 398.113 257.466C397.636 257.837 397.275 258.354 397.03 259.017C396.784 259.68 396.662 260.446 396.662 261.314C396.662 262.196 396.784 262.958 397.03 263.601C397.282 264.237 397.643 264.731 398.113 265.082C398.591 265.427 399.177 265.599 399.873 265.599ZM278.334 309.278C276.929 309.278 275.676 309.02 274.576 308.503C273.482 307.986 272.614 307.273 271.971 306.365C271.328 305.457 270.993 304.416 270.966 303.243H275.142C275.189 304.032 275.52 304.671 276.137 305.162C276.753 305.652 277.486 305.898 278.334 305.898C279.01 305.898 279.607 305.749 280.124 305.45C280.648 305.145 281.055 304.724 281.347 304.188C281.645 303.644 281.794 303.021 281.794 302.318C281.794 301.602 281.642 300.973 281.337 300.429C281.039 299.885 280.624 299.461 280.094 299.156C279.564 298.851 278.957 298.696 278.275 298.689C277.678 298.689 277.098 298.812 276.534 299.057C275.978 299.302 275.543 299.637 275.232 300.061L271.404 299.375L272.368 288.636H284.817V292.156H275.918L275.391 297.257H275.51C275.868 296.753 276.408 296.336 277.131 296.004C277.854 295.673 278.662 295.507 279.557 295.507C280.783 295.507 281.877 295.795 282.838 296.372C283.8 296.949 284.559 297.741 285.115 298.749C285.672 299.75 285.947 300.903 285.941 302.209C285.947 303.581 285.629 304.801 284.986 305.868C284.35 306.929 283.458 307.764 282.311 308.374C281.171 308.977 279.846 309.278 278.334 309.278ZM289.063 309V288.636H293.368V297.615H293.637L300.965 288.636H306.125L298.569 297.754L306.215 309H301.064L295.486 300.628L293.368 303.213V309H289.063ZM325.895 294.493C325.815 293.691 325.474 293.068 324.871 292.624C324.268 292.179 323.449 291.957 322.415 291.957C321.712 291.957 321.119 292.057 320.635 292.256C320.151 292.448 319.78 292.716 319.521 293.061C319.269 293.406 319.143 293.797 319.143 294.234C319.13 294.599 319.206 294.917 319.372 295.189C319.545 295.461 319.78 295.696 320.078 295.895C320.376 296.087 320.721 296.256 321.112 296.402C321.503 296.541 321.921 296.661 322.365 296.76L324.195 297.197C325.083 297.396 325.898 297.661 326.641 297.993C327.383 298.324 328.026 298.732 328.57 299.216C329.113 299.7 329.534 300.27 329.832 300.926C330.137 301.582 330.293 302.335 330.3 303.183C330.293 304.429 329.975 305.51 329.345 306.425C328.722 307.333 327.821 308.039 326.641 308.543C325.467 309.04 324.052 309.288 322.395 309.288C320.751 309.288 319.319 309.036 318.099 308.533C316.886 308.029 315.938 307.283 315.256 306.295C314.58 305.301 314.225 304.071 314.192 302.607H318.358C318.404 303.289 318.6 303.859 318.945 304.317C319.296 304.768 319.763 305.109 320.347 305.341C320.937 305.566 321.603 305.679 322.345 305.679C323.074 305.679 323.707 305.573 324.244 305.361C324.788 305.149 325.209 304.854 325.507 304.476C325.805 304.098 325.955 303.664 325.955 303.173C325.955 302.716 325.819 302.331 325.547 302.02C325.282 301.708 324.891 301.443 324.374 301.224C323.863 301.006 323.237 300.807 322.494 300.628L320.277 300.071C318.56 299.653 317.205 299 316.21 298.112C315.216 297.224 314.722 296.027 314.729 294.523C314.722 293.29 315.05 292.213 315.713 291.291C316.383 290.37 317.301 289.651 318.467 289.134C319.634 288.616 320.96 288.358 322.445 288.358C323.956 288.358 325.275 288.616 326.402 289.134C327.536 289.651 328.417 290.37 329.047 291.291C329.677 292.213 330.001 293.28 330.021 294.493H325.895ZM337.471 309.288C336.497 309.288 335.628 309.119 334.866 308.781C334.104 308.437 333.501 307.929 333.056 307.26C332.619 306.584 332.4 305.742 332.4 304.734C332.4 303.886 332.556 303.173 332.868 302.597C333.179 302.02 333.603 301.556 334.14 301.205C334.677 300.853 335.287 300.588 335.97 300.409C336.659 300.23 337.382 300.104 338.137 300.031C339.026 299.938 339.742 299.852 340.285 299.773C340.829 299.687 341.223 299.561 341.468 299.395C341.714 299.229 341.836 298.984 341.836 298.659V298.599C341.836 297.97 341.637 297.482 341.24 297.138C340.849 296.793 340.292 296.621 339.569 296.621C338.807 296.621 338.2 296.79 337.75 297.128C337.299 297.459 337.001 297.877 336.855 298.381L332.937 298.062C333.136 297.134 333.527 296.332 334.11 295.656C334.694 294.973 335.446 294.45 336.368 294.085C337.296 293.714 338.369 293.528 339.589 293.528C340.438 293.528 341.25 293.628 342.025 293.827C342.807 294.026 343.5 294.334 344.103 294.751C344.713 295.169 345.194 295.706 345.545 296.362C345.896 297.012 346.072 297.791 346.072 298.699V309H342.055V306.882H341.936C341.69 307.359 341.362 307.78 340.951 308.145C340.54 308.503 340.047 308.785 339.47 308.99C338.893 309.189 338.227 309.288 337.471 309.288ZM338.684 306.365C339.307 306.365 339.858 306.242 340.335 305.997C340.812 305.745 341.187 305.407 341.458 304.983C341.73 304.559 341.866 304.078 341.866 303.541V301.92C341.734 302.007 341.551 302.086 341.319 302.159C341.094 302.225 340.839 302.288 340.554 302.348C340.269 302.401 339.984 302.451 339.699 302.497C339.413 302.537 339.155 302.573 338.923 302.607C338.426 302.679 337.992 302.795 337.62 302.955C337.249 303.114 336.961 303.329 336.755 303.601C336.55 303.866 336.447 304.197 336.447 304.595C336.447 305.172 336.656 305.613 337.074 305.918C337.498 306.216 338.035 306.365 338.684 306.365ZM353.594 288.636V309H349.358V288.636H353.594ZM363.947 309.298C362.376 309.298 361.024 308.98 359.891 308.344C358.764 307.701 357.895 306.793 357.286 305.619C356.676 304.439 356.371 303.044 356.371 301.433C356.371 299.862 356.676 298.483 357.286 297.297C357.895 296.11 358.754 295.186 359.861 294.523C360.974 293.86 362.28 293.528 363.778 293.528C364.786 293.528 365.724 293.691 366.592 294.016C367.467 294.334 368.23 294.814 368.879 295.457C369.536 296.1 370.046 296.909 370.411 297.884C370.775 298.851 370.957 299.985 370.957 301.284V302.447H358.061V299.822H366.97C366.97 299.213 366.838 298.672 366.572 298.202C366.307 297.731 365.939 297.363 365.469 297.098C365.005 296.826 364.464 296.69 363.848 296.69C363.205 296.69 362.635 296.839 362.138 297.138C361.647 297.429 361.263 297.824 360.984 298.321C360.706 298.812 360.563 299.358 360.557 299.962V302.457C360.557 303.213 360.696 303.866 360.974 304.416C361.259 304.966 361.661 305.391 362.178 305.689C362.695 305.987 363.308 306.136 364.017 306.136C364.488 306.136 364.919 306.07 365.31 305.938C365.701 305.805 366.036 305.606 366.314 305.341C366.592 305.076 366.804 304.751 366.95 304.366L370.868 304.625C370.669 305.566 370.261 306.388 369.645 307.091C369.035 307.787 368.246 308.33 367.278 308.722C366.317 309.106 365.207 309.298 363.947 309.298ZM386.429 298.082L382.551 298.321C382.485 297.99 382.342 297.691 382.124 297.426C381.905 297.154 381.616 296.939 381.259 296.78C380.907 296.614 380.486 296.531 379.996 296.531C379.339 296.531 378.786 296.67 378.335 296.949C377.884 297.221 377.659 297.585 377.659 298.043C377.659 298.407 377.805 298.715 378.097 298.967C378.388 299.219 378.889 299.421 379.598 299.574L382.362 300.131C383.847 300.436 384.954 300.926 385.683 301.602C386.412 302.278 386.777 303.167 386.777 304.267C386.777 305.268 386.482 306.146 385.892 306.902C385.309 307.658 384.507 308.248 383.486 308.672C382.472 309.089 381.302 309.298 379.976 309.298C377.954 309.298 376.343 308.877 375.143 308.036C373.95 307.187 373.251 306.034 373.045 304.575L377.212 304.357C377.338 304.973 377.643 305.444 378.126 305.768C378.61 306.087 379.23 306.246 379.986 306.246C380.728 306.246 381.325 306.103 381.776 305.818C382.233 305.527 382.465 305.152 382.472 304.695C382.465 304.31 382.303 303.995 381.984 303.75C381.666 303.498 381.176 303.306 380.513 303.173L377.868 302.646C376.376 302.348 375.266 301.831 374.537 301.095C373.814 300.359 373.453 299.421 373.453 298.281C373.453 297.3 373.718 296.455 374.249 295.746C374.786 295.036 375.538 294.49 376.506 294.105C377.48 293.721 378.62 293.528 379.926 293.528C381.855 293.528 383.373 293.936 384.48 294.751C385.594 295.567 386.243 296.677 386.429 298.082Z" fill="#0049A3"/>
<path d="M460 264C460 261.791 461.791 260 464 260H595C597.209 260 599 261.791 599 264V390C599 390.552 598.552 391 598 391H461C460.448 391 460 390.552 460 390V264Z" fill="#D9EAFF"/>
<path d="M70 234C70 231.791 71.7909 230 74 230H205C207.209 230 209 231.791 209 234V390C209 390.552 208.552 391 208 391H71C70.4477 391 70 390.552 70 390V234Z" fill="#D9EAFF"/>
<path d="M393.203 176.043L388 215L409.5 202.171L431 215L425.797 176" fill="#D59900"/>
<path d="M393.203 176.043L388 215L409.5 202.171L431 215L425.797 176" stroke="#D49900" stroke-width="2" stroke-linecap="round" stroke-linejoin="round"/>
<path d="M409 181C425.569 181 439 167.569 439 151C439 134.431 425.569 121 409 121C392.431 121 379 134.431 379 151C379 167.569 392.431 181 409 181Z" fill="#EEAB00" stroke="#EEAB00" stroke-width="2" stroke-linecap="round" stroke-linejoin="round"/>
<path d="M409 161C414.523 161 419 156.523 419 151C419 145.477 414.523 141 409 141C403.477 141 399 145.477 399 151C399 156.523 403.477 161 409 161Z" fill="#D59900" stroke="#D59900" stroke-width="2" stroke-linecap="round" stroke-linejoin="round"/>
</svg>
