<svg width="670" height="450" viewBox="0 0 670 450" fill="none" xmlns="http://www.w3.org/2000/svg">
<g filter="url(#filter0_d_1272_12563)">
<rect x="409" y="54" width="58.5" height="58.5" rx="29.25" fill="#039100"/>
</g>
<g filter="url(#filter1_d_1272_12563)">
<rect x="413" y="53" width="58.5" height="58.5" rx="29.25" fill="#09B905"/>
</g>
<path fill-rule="evenodd" clip-rule="evenodd" d="M442.823 66.4121C443.652 66.4121 444.323 67.0837 444.323 67.9121V97.3533C444.323 98.1817 443.652 98.8533 442.823 98.8533C441.995 98.8533 441.323 98.1817 441.323 97.3533V67.9121C441.323 67.0837 441.995 66.4121 442.823 66.4121Z" fill="white"/>
<path fill-rule="evenodd" clip-rule="evenodd" d="M433.294 77.9494C433.294 74.5342 436.063 71.7656 439.478 71.7656H449.515C450.343 71.7656 451.015 72.4372 451.015 73.2656C451.015 74.0941 450.343 74.7656 449.515 74.7656H439.478C437.719 74.7656 436.294 76.1911 436.294 77.9494C436.294 79.7078 437.719 81.1333 439.478 81.1333H446.169C449.584 81.1333 452.353 83.9019 452.353 87.3171C452.353 90.7323 449.584 93.5009 446.169 93.5009H434.794C433.966 93.5009 433.294 92.8293 433.294 92.0009C433.294 91.1725 433.966 90.5009 434.794 90.5009H446.169C447.927 90.5009 449.353 89.0755 449.353 87.3171C449.353 85.5587 447.927 84.1333 446.169 84.1333H439.478C436.063 84.1333 433.294 81.3647 433.294 77.9494Z" fill="white"/>
<g opacity="0.4">
<path d="M465 130.194H445.934L433.633 239.265L456.389 236.486L465 130.194Z" fill="#B3CDE7"/>
<path d="M187 182.993H160.553L218.982 254.549L231.898 238.571L187 182.993Z" fill="#B3CDE7"/>
<path d="M270.647 223.982L245.43 222.593L290.943 274.697L302.014 261.497L270.647 223.982Z" fill="#B3CDE7"/>
<path d="M324.154 337.916H298.938L406.57 210.088L421.331 225.372L324.154 337.916Z" fill="#B3CDE7"/>
<path d="M242.969 312.211L218.367 314.295L245.429 283.728L256.5 294.148L242.969 312.211Z" fill="#B3CDE7"/>
<path d="M101.508 337.916L71.9863 340L155.017 245.519L170.393 262.192L101.508 337.916Z" fill="#B3CDE7"/>
<path d="M160.553 182.993L48 310.127L71.9867 340L155.018 245.518L218.367 313.601L245.429 283.033L299.553 337.916L406.571 209.393L433.633 237.876L445.319 129.5L350.602 145.479L378.279 176.046L290.942 274.002L245.429 222.592L218.367 255.244L160.553 182.993Z" fill="#87B0D6" fill-opacity="0.4"/>
</g>
<g filter="url(#filter2_i_1272_12563)">
<path d="M190.352 381.704L153.686 296.037L176.352 289.537L200.352 373.204L190.352 381.704Z" fill="#0C0A4E"/>
</g>
<g filter="url(#filter3_i_1272_12563)">
<path d="M156.185 301.537L111.519 225.204L123.519 213.83L143.019 199.037L176.685 290.537L156.185 301.537Z" fill="#0C0A4E"/>
</g>
<g filter="url(#filter4_i_1272_12563)">
<path d="M100.186 295.038L115.352 199.704L129.352 202.421C136.968 203.898 147.186 205.704 147.186 205.704L121.852 305.038L100.186 295.038Z" fill="#0C0A4E"/>
</g>
<g filter="url(#filter5_i_1272_12563)">
<path d="M100.852 293.037L62.5186 374.871L75.1853 377.037L121.852 304.87L100.852 293.037Z" fill="#0C0A4E"/>
</g>
<path d="M64.9518 372C64.9518 372 58.4063 377.051 56 382.462L89.9999 396C89.9999 396 90.112 392.498 82.4443 386.256C77.7938 382.473 75.5746 381.53 75.6743 376.266L64.9518 372Z" fill="#000A03"/>
<path d="M56.2915 381.777L55 384.438L88.6045 398L89.896 395.338L56.2915 381.777Z" fill="#000A03"/>
<path d="M189.158 378.399C189.158 378.399 189.828 386.753 193.172 392.092L224.354 374.118C224.354 374.118 221.375 371.782 211.594 373.794C205.657 375.017 203.565 376.15 199.022 372.688L189.158 378.399Z" fill="#000A03"/>
<path d="M192.752 391.923L194.324 394.652L225.752 376.55L224.18 373.821L192.752 391.923Z" fill="#000A03"/>
<g filter="url(#filter6_i_1272_12563)">
<path d="M139.685 113.704C144.852 113.871 128.004 115.329 120.519 116.371C120.519 116.371 118.479 109.235 117.5 104.5C116.508 99.7001 115.519 92.0371 115.519 92.0371L134.019 89.5371C134.019 89.5371 134.519 113.537 139.685 113.704Z" fill="#F5B4A6"/>
</g>
<g filter="url(#filter7_i_1272_12563)">
<path fill-rule="evenodd" clip-rule="evenodd" d="M115.019 134.038L156.001 176.5L156.001 176.5C156.001 176.5 156.001 176.5 156.001 176.5L200.476 207.631L205.3 199.831L164.699 164.542L133.686 117.371C133.686 117.371 123.35 115.847 119.019 119.704C114.679 123.569 115.019 134.038 115.019 134.038Z" fill="#3633C9"/>
</g>
<path d="M202.075 216.853C202.191 213.292 200.577 206.781 200.577 206.781C200.577 206.781 200.074 204.03 200.838 202.57C201.693 200.936 204.694 199.847 204.694 199.847C204.694 199.847 217.254 210.864 218.845 219.761C219.556 223.735 216.258 229.771 216.258 229.771C216.258 229.771 214.162 229.031 213.948 227.886C213.483 225.39 215.553 220.731 215.553 220.731L212.728 216.491C212.728 216.491 208.486 211.117 206.694 212.253C205.319 213.124 205.782 216.318 205.782 216.318C205.782 216.318 207.192 217.721 207.259 218.87C207.325 219.992 206.639 221.635 206.639 221.635C206.639 221.635 202.037 218.04 202.075 216.853Z" fill="#FFC4B7"/>
<path d="M212.542 218.841C212.878 216.257 212.501 212.17 212.501 212.17L216.664 218.74L212.56 227.898C212.56 227.898 210.402 227.289 210.376 226.212C210.326 224.151 212.155 221.816 212.542 218.841Z" fill="#FFC4B7"/>
<path d="M208.333 220.114C209.148 217.858 212.183 212.44 212.183 212.44L213.208 218.158C213.208 218.158 211.972 220.331 210.464 220.897C209.446 221.278 208.072 220.834 208.333 220.114Z" fill="#FFC4B7"/>
<g filter="url(#filter8_i_1272_12563)">
<path fill-rule="evenodd" clip-rule="evenodd" d="M151.207 167.711C156.186 129.892 152.761 115.676 129.019 108.537C129.019 108.537 128.939 108.61 128.789 108.751C114.881 114.9 112.996 121.898 110.476 131.257C110.078 132.734 109.665 134.27 109.185 135.871C104.911 150.147 112.685 173.871 112.685 173.871L113.186 173.793V204.537C113.186 204.537 115 203.5 125.5 209.285C137.5 214 148.269 216.118 151.186 209.285C155.014 200.316 151.514 170.268 151.207 167.711Z" fill="#5653FA"/>
</g>
<g filter="url(#filter9_i_1272_12563)">
<path fill-rule="evenodd" clip-rule="evenodd" d="M117.816 181.408L119.352 236.537H111.852C111.852 236.537 102.351 198.204 102.352 179.204C102.352 177.301 102.821 175.49 103.718 174.013C106.302 161.973 113.162 130.67 117.684 116.036C119.243 110.991 124.743 108.011 130 108.499C135.867 109.044 140.99 114.255 139.851 120.036C135.736 140.928 119.446 177.753 117.816 181.408Z" fill="#3633C9"/>
</g>
<path d="M110.52 245.204C109.905 243.871 111.52 236.705 111.52 236.705C111.52 236.705 113.906 234.041 115.853 234.205C118.054 234.39 119.425 236.037 119.853 238.205C125.611 267.353 115.793 270.77 116.52 268.205C119.02 259.371 115.353 245.631 115.353 248.704C115.353 259.704 112.186 258.902 112.186 258.538C112.199 251.704 111.519 247.371 110.52 245.204Z" fill="#FFC4B7"/>
<path d="M113.646 264.853C116.783 261.67 118.799 249.686 118.799 249.686C118.799 249.686 119.987 261.431 116.748 265.354C116.298 265.899 114.585 266.714 113.646 266.588C112.494 266.433 113.121 265.384 113.646 264.853Z" fill="#FFC4B7"/>
<g filter="url(#filter10_i_1272_12563)">
<path d="M114.852 57.204C93.4422 63.8606 105.185 85.7596 112.852 93.7041C112.852 93.7041 124.5 110 139.685 103.871C148.241 100.417 139.685 75.204 139.685 75.204C139.741 64.9818 134.685 51.0374 114.852 57.204Z" fill="#FFC4B7"/>
</g>
<path d="M114.852 57.2032C93.4422 63.86 104.5 88.2415 112.167 96.186C112.167 96.186 119.185 98.5193 119.185 90.87C119.975 88.7743 116.185 80.87 117.685 77.87C124.513 64.2139 139.685 75.2032 139.685 75.2032C139.741 64.981 139.685 49.4818 114.852 57.2032Z" fill="black"/>
<path d="M139.001 61.8518C139.001 65.2575 137.919 70.6851 133.501 70.6851C129.083 70.6851 123.001 65.2575 123.001 61.8518C123.001 58.446 128.583 57.6865 133.001 57.6865C134.501 51.0191 139.001 58.446 139.001 61.8518Z" fill="black"/>
<g filter="url(#filter11_i_1272_12563)">
<path d="M381.784 375.843L345.117 290.177L367.784 283.677L391.784 367.343L381.784 375.843Z" fill="#E9A393"/>
</g>
<g filter="url(#filter12_i_1272_12563)">
<path d="M295.948 287.177L256.281 368.343L268.948 370.51L316.948 299.01L295.948 287.177Z" fill="#E9A393"/>
</g>
<path d="M264.293 362L259.924 363.024C259.924 363.024 254.108 366.833 252.425 370.526C250.743 374.219 247 384.092 247 384.092L252.582 386.01C252.582 386.01 254.277 378.637 256.873 379.337C259.468 380.037 258.959 387.047 263.393 389.703C267.828 392.359 278 396 278 396C278 396 270.449 386.01 269.823 381.915C269.197 377.821 270.67 367.17 270.67 367.17L264.293 362Z" fill="#EB4F4F"/>
<path d="M383.226 368.318L381.169 372.068C381.169 372.068 380.172 378.588 381.74 382.049C383.308 385.511 387.984 394.245 387.984 394.245L392.918 391.433C392.918 391.433 388.735 385.694 390.888 384.271C393.041 382.847 397.742 387.492 402.501 385.97C407.259 384.448 416.338 379.37 416.338 379.37C416.338 379.37 404.365 378.661 401.044 376.591C397.724 374.52 391.011 366.905 391.011 366.905L383.226 368.318Z" fill="#EB4F4F"/>
<path d="M347.617 295.677L302.95 219.344L314.95 207.971L334.45 193.178L368.117 284.677L347.617 295.677Z" fill="#000A03"/>
<path d="M291.617 285.844L306.784 190.511L320.784 193.227C328.399 194.705 338.617 196.511 338.617 196.511L313.284 295.844L291.617 285.844Z" fill="#000A03"/>
<g filter="url(#filter13_i_1272_12563)">
<path d="M287.262 291.991C254.366 284.061 306 193.5 306 193.5C306 193.5 324.5 196 336.931 199.825C354.024 205.084 391.591 291.991 371.591 298.658C351.591 305.325 329.261 300.991 329.261 300.991C329.261 300.991 324.595 300.991 287.262 291.991Z" fill="black"/>
</g>
<g filter="url(#filter14_i_1272_12563)">
<path d="M331.117 107.844C336.283 108.011 319.435 109.47 311.95 110.511C311.95 110.511 309.491 102.97 308.5 98C307.59 93.4335 306.95 86.1777 306.95 86.1777L325.45 83.6777C325.45 83.6777 325.95 107.678 331.117 107.844Z" fill="#CF8574"/>
</g>
<g filter="url(#filter15_i_1272_12563)">
<path fill-rule="evenodd" clip-rule="evenodd" d="M308.043 125.105L346.943 170.318L346.943 170.317C346.943 170.318 346.943 170.318 346.943 170.318L396.901 193.608L400.374 185.12L356.462 158.002L356.47 157.992L327.6 109.493C327.6 109.493 317.364 107.401 312.827 111.014C308.281 114.634 308.043 125.105 308.043 125.105Z" fill="#EB4F4F"/>
</g>
<path d="M399.319 202.47C399.054 198.917 396.755 192.615 396.755 192.615C396.755 192.615 395.962 189.933 396.567 188.4C397.242 186.685 400.11 185.282 400.11 185.282C400.11 185.282 413.773 194.897 416.303 203.574C417.434 207.45 414.798 213.802 414.798 213.802C414.798 213.802 412.634 213.29 412.3 212.175C411.572 209.743 413.133 204.889 413.133 204.889L410.073 200.865C410.073 200.865 405.082 196.084 403.421 197.403C402.147 198.416 402.948 201.543 402.948 201.543C402.948 201.543 404.499 202.787 404.689 203.923C404.874 205.031 404.367 206.738 404.367 206.738C404.367 206.738 399.407 203.654 399.319 202.47Z" fill="#E9A393"/>
<path d="M409.466 202.666C409.381 200.062 408.35 196.089 408.35 196.089L413.517 201.902L410.944 211.601C410.944 211.601 408.716 211.348 408.517 210.29C408.135 208.264 409.563 205.664 409.466 202.666Z" fill="#E9A393"/>
<path d="M405.517 204.602C405.958 202.243 408.08 196.407 408.08 196.407L410.013 201.885C410.013 201.885 409.144 204.229 407.746 205.031C406.803 205.571 405.376 205.354 405.517 204.602Z" fill="#E9A393"/>
<g filter="url(#filter16_i_1272_12563)">
<path d="M342.617 162.011C358.931 138.158 344.225 109.827 320.45 102.678C320.45 102.678 320.37 102.751 320.221 102.891C304.117 110.011 304.133 118.268 300.617 130.011C296.343 144.288 304.117 168.011 304.117 168.011C304.117 168.011 326.303 185.863 342.617 162.011Z" fill="#FF5C5C"/>
</g>
<g filter="url(#filter17_i_1272_12563)">
<path d="M304.617 195V167.844L342.617 161.678L346.5 188C346.5 188 350.5 210.5 340.5 203C330.5 195.5 319.997 197.469 304.617 195Z" fill="#FF5C5C"/>
</g>
<g filter="url(#filter18_i_1272_12563)">
<path fill-rule="evenodd" clip-rule="evenodd" d="M291.282 162.904C291.182 163.189 291.13 163.339 291.13 163.339L291.231 163.368C291.184 163.9 291.176 164.444 291.208 164.993C292.297 183.962 303.98 221.687 303.98 221.687L311.467 221.257L306.756 166.107C310.901 159.776 327.399 133.913 332.935 115.169C334.604 109.519 329.274 104.496 323.483 103.41C318.294 102.437 313.253 104.255 311.234 109.134C305.406 123.214 296.156 149.114 292.595 159.182C291.905 160.266 291.463 161.541 291.282 162.904Z" fill="#FF5C5C"/>
</g>
<path d="M301.305 228.722C301.004 227.285 304.181 220.662 304.181 220.662C304.181 220.662 307.104 218.599 308.964 219.195C311.068 219.868 311.893 221.781 311.968 223.989C312.931 252.481 300.723 254.82 302.005 252.481C306.418 244.432 305.92 230.22 305.232 233.215C302.77 243.936 299.863 242.445 299.945 242.09C301.487 235.433 301.794 231.057 301.305 228.722Z" fill="#E9A393"/>
<path d="M301.076 246.658C304.214 243.476 306.23 231.492 306.23 231.492C306.23 231.492 307.418 243.237 304.178 247.159C303.728 247.705 302.015 248.52 301.077 248.394C299.925 248.239 300.552 247.19 301.076 246.658Z" fill="#E9A393"/>
<g filter="url(#filter19_i_1272_12563)">
<path d="M302.778 52.8158C282.648 62.6877 297.621 82.5186 306.419 89.1887C306.419 89.1887 326.396 102.937 331.932 95.1593C337.282 87.6419 330.085 66.78 330.085 66.78C328.567 56.6711 321.426 43.6708 302.778 52.8158Z" fill="#E9A393"/>
</g>
<path d="M302.778 52.8155C282.648 62.6873 296.301 83.322 305.099 89.992C305.099 89.992 313.765 94.992 312.241 85.4143C312.698 83.222 310.412 77.6871 311.432 74.4921C316.077 59.948 330.085 66.7797 330.085 66.7797C328.567 56.6707 321.426 43.6705 302.778 52.8155Z" fill="black"/>
<ellipse cx="289.929" cy="63.5429" rx="8.49996" ry="8.99996" fill="black"/>
<g filter="url(#filter20_i_1272_12563)">
<path d="M603.08 295.803H506.885C495.947 295.803 487 286.837 487 275.877V39.9263C487 28.9659 495.947 20 506.885 20H603.08C614.017 20 622.965 28.9659 622.965 39.9263V275.873C622.965 286.833 614.017 295.803 603.08 295.803Z" fill="white"/>
</g>
<ellipse cx="555.054" cy="276.069" rx="7.05431" ry="7.06904" fill="#0072DE"/>
<rect x="499" y="49" width="111" height="84" rx="8" fill="#C2CCD7" fill-opacity="0.18"/>
<path d="M561.5 87.5L569 81.5H573L577 87.5L579 81.5H585L592.5 87.5L587.5 92.5L583 90.5V107.5H569V90.5L565.5 92.5L561.5 87.5Z" fill="#7B72DD"/>
<path d="M521 107.5V81.5H543V107.5H535.5L531 90.5L528.5 107.5H521Z" fill="#64E3FF"/>
<rect x="499" y="197" width="111" height="9" rx="4.5" fill="#F4F6F8"/>
<rect x="499" y="217" width="81" height="9" rx="4.5" fill="#F4F6F8"/>
<rect x="499" y="142" width="49" height="44" rx="8" fill="#C2CCD7" fill-opacity="0.18"/>
<path d="M508 159L515.5 153H519.5L523.5 159L525.5 153H531.5L539 159L534 164L529.5 162V179H515.5V162L512 164L508 159Z" fill="#FFC9C9"/>
<rect x="561" y="142" width="49" height="44" rx="8" fill="#C2CCD7" fill-opacity="0.18"/>
<path d="M577.5 172.001C577 173.5 571.074 158.834 575.224 154.048C577 152.001 585 157.5 587.224 163.048C589.523 168.779 605.924 169.673 600.224 172.048C594.225 174.547 591.225 173.047 587.224 172.048C583.224 171.048 582.958 166.562 580.224 163.048C580.224 163.048 578.655 168.533 577.5 172.001Z" fill="#2E1111"/>
<path d="M592.5 78C590.693 78 588.888 77.3138 587.508 75.9436L585.793 74.228C585.127 73.5653 584.237 73.1986 583.292 73.1963H580.878C576.977 73.1963 573.802 70.0212 573.802 66.1199V63.704C573.8 62.7616 573.433 61.8709 572.768 61.2011L571.081 59.516C568.317 56.7687 568.305 52.2775 571.055 49.5114L572.77 47.7934C573.433 47.1283 573.8 46.2376 573.802 45.2928V42.8816C573.802 38.9779 576.977 35.8029 580.878 35.8029H583.294C584.237 35.8029 585.125 35.4362 585.795 34.7665L587.485 33.0814C590.232 30.3176 594.721 30.3035 597.489 33.0555L599.205 34.7712C599.872 35.4362 600.761 35.8029 601.703 35.8029H604.119C608.02 35.8029 611.195 38.9779 611.195 42.8816V45.2952C611.198 46.2376 611.564 47.1283 612.229 47.7981L613.917 49.4855C615.254 50.8157 615.994 52.5877 616.001 54.4796C616.006 56.3597 615.282 58.1294 613.964 59.4666C613.94 59.4901 613.919 59.516 613.896 59.5371L612.227 61.2058C611.564 61.8709 611.198 62.7616 611.195 63.7063V66.1199C611.195 70.0212 608.02 73.1963 604.119 73.1963H601.703C600.761 73.1986 599.87 73.5653 599.203 74.2303L597.513 75.9178C596.136 77.3044 594.317 78 592.5 78Z" fill="#EEAB00"/>
<path fill-rule="evenodd" clip-rule="evenodd" d="M587.903 49.9193C587.515 50.307 587.012 50.5162 586.455 50.5162C585.933 50.5162 585.421 50.3023 585.009 49.9169C584.619 49.5291 584.398 48.998 584.398 48.4598C584.398 47.9475 584.615 47.421 584.995 47.0145C585.205 46.8029 585.454 46.6431 585.703 46.5585C586.413 46.2342 587.355 46.4246 587.914 47.0121C588.114 47.2119 588.267 47.4304 588.368 47.6584C588.478 47.9028 588.535 48.1801 588.535 48.4598C588.535 49.0192 588.311 49.5385 587.903 49.9193ZM599.996 47.0023C599.195 46.2032 597.89 46.2032 597.089 47.0023L585.009 59.0821C584.208 59.8835 584.208 61.1878 585.009 61.9916C585.399 62.3794 585.914 62.5932 586.464 62.5932C587.014 62.5932 587.528 62.3794 587.916 61.9916L599.996 49.9118C600.797 49.108 600.797 47.806 599.996 47.0023ZM599.332 58.6474C598.571 58.3277 597.668 58.5017 597.067 59.1033C596.942 59.249 596.766 59.4746 596.646 59.7402C596.519 60.0269 596.503 60.3348 596.503 60.5416C596.503 60.7484 596.519 61.0539 596.646 61.3406C596.764 61.6039 596.905 61.8177 597.09 62.0034C597.516 62.3982 598.009 62.598 598.559 62.598C599.081 62.598 599.593 62.3865 600.014 61.994C600.388 61.6203 600.592 61.1033 600.592 60.5416C600.592 59.9776 600.388 59.4629 600.011 59.0868C599.805 58.8824 599.556 58.7226 599.332 58.6474Z" fill="white"/>
<defs>
<filter id="filter0_d_1272_12563" x="400" y="45" width="76.5" height="76.5" filterUnits="userSpaceOnUse" color-interpolation-filters="sRGB">
<feFlood flood-opacity="0" result="BackgroundImageFix"/>
<feColorMatrix in="SourceAlpha" type="matrix" values="0 0 0 0 0 0 0 0 0 0 0 0 0 0 0 0 0 0 127 0" result="hardAlpha"/>
<feOffset/>
<feGaussianBlur stdDeviation="4.5"/>
<feColorMatrix type="matrix" values="0 0 0 0 0.760784 0 0 0 0 0.8 0 0 0 0 0.843137 0 0 0 0.16 0"/>
<feBlend mode="normal" in2="BackgroundImageFix" result="effect1_dropShadow_1272_12563"/>
<feBlend mode="normal" in="SourceGraphic" in2="effect1_dropShadow_1272_12563" result="shape"/>
</filter>
<filter id="filter1_d_1272_12563" x="404" y="44" width="76.5" height="76.5" filterUnits="userSpaceOnUse" color-interpolation-filters="sRGB">
<feFlood flood-opacity="0" result="BackgroundImageFix"/>
<feColorMatrix in="SourceAlpha" type="matrix" values="0 0 0 0 0 0 0 0 0 0 0 0 0 0 0 0 0 0 127 0" result="hardAlpha"/>
<feOffset/>
<feGaussianBlur stdDeviation="4.5"/>
<feColorMatrix type="matrix" values="0 0 0 0 0.760784 0 0 0 0 0.8 0 0 0 0 0.843137 0 0 0 0.16 0"/>
<feBlend mode="normal" in2="BackgroundImageFix" result="effect1_dropShadow_1272_12563"/>
<feBlend mode="normal" in="SourceGraphic" in2="effect1_dropShadow_1272_12563" result="shape"/>
</filter>
<filter id="filter2_i_1272_12563" x="153.686" y="289.537" width="46.667" height="96.167" filterUnits="userSpaceOnUse" color-interpolation-filters="sRGB">
<feFlood flood-opacity="0" result="BackgroundImageFix"/>
<feBlend mode="normal" in="SourceGraphic" in2="BackgroundImageFix" result="shape"/>
<feColorMatrix in="SourceAlpha" type="matrix" values="0 0 0 0 0 0 0 0 0 0 0 0 0 0 0 0 0 0 127 0" result="hardAlpha"/>
<feOffset dy="4"/>
<feGaussianBlur stdDeviation="2"/>
<feComposite in2="hardAlpha" operator="arithmetic" k2="-1" k3="1"/>
<feColorMatrix type="matrix" values="0 0 0 0 0 0 0 0 0 0 0 0 0 0 0 0 0 0 0.25 0"/>
<feBlend mode="normal" in2="shape" result="effect1_innerShadow_1272_12563"/>
</filter>
<filter id="filter3_i_1272_12563" x="111.519" y="199.037" width="65.167" height="106.5" filterUnits="userSpaceOnUse" color-interpolation-filters="sRGB">
<feFlood flood-opacity="0" result="BackgroundImageFix"/>
<feBlend mode="normal" in="SourceGraphic" in2="BackgroundImageFix" result="shape"/>
<feColorMatrix in="SourceAlpha" type="matrix" values="0 0 0 0 0 0 0 0 0 0 0 0 0 0 0 0 0 0 127 0" result="hardAlpha"/>
<feOffset dy="4"/>
<feGaussianBlur stdDeviation="2"/>
<feComposite in2="hardAlpha" operator="arithmetic" k2="-1" k3="1"/>
<feColorMatrix type="matrix" values="0 0 0 0 0 0 0 0 0 0 0 0 0 0 0 0 0 0 0.25 0"/>
<feBlend mode="normal" in2="shape" result="effect1_innerShadow_1272_12563"/>
</filter>
<filter id="filter4_i_1272_12563" x="100.186" y="199.704" width="47" height="109.334" filterUnits="userSpaceOnUse" color-interpolation-filters="sRGB">
<feFlood flood-opacity="0" result="BackgroundImageFix"/>
<feBlend mode="normal" in="SourceGraphic" in2="BackgroundImageFix" result="shape"/>
<feColorMatrix in="SourceAlpha" type="matrix" values="0 0 0 0 0 0 0 0 0 0 0 0 0 0 0 0 0 0 127 0" result="hardAlpha"/>
<feOffset dy="4"/>
<feGaussianBlur stdDeviation="2"/>
<feComposite in2="hardAlpha" operator="arithmetic" k2="-1" k3="1"/>
<feColorMatrix type="matrix" values="0 0 0 0 0 0 0 0 0 0 0 0 0 0 0 0 0 0 0.25 0"/>
<feBlend mode="normal" in2="shape" result="effect1_innerShadow_1272_12563"/>
</filter>
<filter id="filter5_i_1272_12563" x="62.5186" y="293.037" width="59.333" height="88" filterUnits="userSpaceOnUse" color-interpolation-filters="sRGB">
<feFlood flood-opacity="0" result="BackgroundImageFix"/>
<feBlend mode="normal" in="SourceGraphic" in2="BackgroundImageFix" result="shape"/>
<feColorMatrix in="SourceAlpha" type="matrix" values="0 0 0 0 0 0 0 0 0 0 0 0 0 0 0 0 0 0 127 0" result="hardAlpha"/>
<feOffset dy="4"/>
<feGaussianBlur stdDeviation="2"/>
<feComposite in2="hardAlpha" operator="arithmetic" k2="-1" k3="1"/>
<feColorMatrix type="matrix" values="0 0 0 0 0 0 0 0 0 0 0 0 0 0 0 0 0 0 0.25 0"/>
<feBlend mode="normal" in2="shape" result="effect1_innerShadow_1272_12563"/>
</filter>
<filter id="filter6_i_1272_12563" x="115.519" y="89.5371" width="25.1348" height="30.833" filterUnits="userSpaceOnUse" color-interpolation-filters="sRGB">
<feFlood flood-opacity="0" result="BackgroundImageFix"/>
<feBlend mode="normal" in="SourceGraphic" in2="BackgroundImageFix" result="shape"/>
<feColorMatrix in="SourceAlpha" type="matrix" values="0 0 0 0 0 0 0 0 0 0 0 0 0 0 0 0 0 0 127 0" result="hardAlpha"/>
<feOffset dy="4"/>
<feGaussianBlur stdDeviation="2"/>
<feComposite in2="hardAlpha" operator="arithmetic" k2="-1" k3="1"/>
<feColorMatrix type="matrix" values="0 0 0 0 0 0 0 0 0 0 0 0 0 0 0 0 0 0 0.25 0"/>
<feBlend mode="normal" in2="shape" result="effect1_innerShadow_1272_12563"/>
</filter>
<filter id="filter7_i_1272_12563" x="115.013" y="117.074" width="90.2871" height="94.5566" filterUnits="userSpaceOnUse" color-interpolation-filters="sRGB">
<feFlood flood-opacity="0" result="BackgroundImageFix"/>
<feBlend mode="normal" in="SourceGraphic" in2="BackgroundImageFix" result="shape"/>
<feColorMatrix in="SourceAlpha" type="matrix" values="0 0 0 0 0 0 0 0 0 0 0 0 0 0 0 0 0 0 127 0" result="hardAlpha"/>
<feOffset dy="4"/>
<feGaussianBlur stdDeviation="2"/>
<feComposite in2="hardAlpha" operator="arithmetic" k2="-1" k3="1"/>
<feColorMatrix type="matrix" values="0 0 0 0 0 0 0 0 0 0 0 0 0 0 0 0 0 0 0.25 0"/>
<feBlend mode="normal" in2="shape" result="effect1_innerShadow_1272_12563"/>
</filter>
<filter id="filter8_i_1272_12563" x="104.902" y="108.537" width="48.2773" height="105.114" filterUnits="userSpaceOnUse" color-interpolation-filters="sRGB">
<feFlood flood-opacity="0" result="BackgroundImageFix"/>
<feBlend mode="normal" in="SourceGraphic" in2="BackgroundImageFix" result="shape"/>
<feColorMatrix in="SourceAlpha" type="matrix" values="0 0 0 0 0 0 0 0 0 0 0 0 0 0 0 0 0 0 127 0" result="hardAlpha"/>
<feOffset dx="-3"/>
<feGaussianBlur stdDeviation="2"/>
<feComposite in2="hardAlpha" operator="arithmetic" k2="-1" k3="1"/>
<feColorMatrix type="matrix" values="0 0 0 0 0 0 0 0 0 0 0 0 0 0 0 0 0 0 0.25 0"/>
<feBlend mode="normal" in2="shape" result="effect1_innerShadow_1272_12563"/>
</filter>
<filter id="filter9_i_1272_12563" x="102.352" y="108.447" width="37.6592" height="132.09" filterUnits="userSpaceOnUse" color-interpolation-filters="sRGB">
<feFlood flood-opacity="0" result="BackgroundImageFix"/>
<feBlend mode="normal" in="SourceGraphic" in2="BackgroundImageFix" result="shape"/>
<feColorMatrix in="SourceAlpha" type="matrix" values="0 0 0 0 0 0 0 0 0 0 0 0 0 0 0 0 0 0 127 0" result="hardAlpha"/>
<feOffset dy="4"/>
<feGaussianBlur stdDeviation="2"/>
<feComposite in2="hardAlpha" operator="arithmetic" k2="-1" k3="1"/>
<feColorMatrix type="matrix" values="0 0 0 0 0 0 0 0 0 0 0 0 0 0 0 0 0 0 0.25 0"/>
<feBlend mode="normal" in2="shape" result="effect1_innerShadow_1272_12563"/>
</filter>
<filter id="filter10_i_1272_12563" x="102.661" y="55.6855" width="40.8271" height="49.5645" filterUnits="userSpaceOnUse" color-interpolation-filters="sRGB">
<feFlood flood-opacity="0" result="BackgroundImageFix"/>
<feBlend mode="normal" in="SourceGraphic" in2="BackgroundImageFix" result="shape"/>
<feColorMatrix in="SourceAlpha" type="matrix" values="0 0 0 0 0 0 0 0 0 0 0 0 0 0 0 0 0 0 127 0" result="hardAlpha"/>
<feOffset/>
<feGaussianBlur stdDeviation="2"/>
<feComposite in2="hardAlpha" operator="arithmetic" k2="-1" k3="1"/>
<feColorMatrix type="matrix" values="0 0 0 0 0 0 0 0 0 0 0 0 0 0 0 0 0 0 0.25 0"/>
<feBlend mode="normal" in2="shape" result="effect1_innerShadow_1272_12563"/>
</filter>
<filter id="filter11_i_1272_12563" x="345.117" y="283.677" width="46.666" height="96.166" filterUnits="userSpaceOnUse" color-interpolation-filters="sRGB">
<feFlood flood-opacity="0" result="BackgroundImageFix"/>
<feBlend mode="normal" in="SourceGraphic" in2="BackgroundImageFix" result="shape"/>
<feColorMatrix in="SourceAlpha" type="matrix" values="0 0 0 0 0 0 0 0 0 0 0 0 0 0 0 0 0 0 127 0" result="hardAlpha"/>
<feOffset dy="4"/>
<feGaussianBlur stdDeviation="2"/>
<feComposite in2="hardAlpha" operator="arithmetic" k2="-1" k3="1"/>
<feColorMatrix type="matrix" values="0 0 0 0 0 0 0 0 0 0 0 0 0 0 0 0 0 0 0.12 0"/>
<feBlend mode="normal" in2="shape" result="effect1_innerShadow_1272_12563"/>
</filter>
<filter id="filter12_i_1272_12563" x="256.281" y="287.177" width="60.666" height="87.333" filterUnits="userSpaceOnUse" color-interpolation-filters="sRGB">
<feFlood flood-opacity="0" result="BackgroundImageFix"/>
<feBlend mode="normal" in="SourceGraphic" in2="BackgroundImageFix" result="shape"/>
<feColorMatrix in="SourceAlpha" type="matrix" values="0 0 0 0 0 0 0 0 0 0 0 0 0 0 0 0 0 0 127 0" result="hardAlpha"/>
<feOffset dy="4"/>
<feGaussianBlur stdDeviation="2"/>
<feComposite in2="hardAlpha" operator="arithmetic" k2="-1" k3="1"/>
<feColorMatrix type="matrix" values="0 0 0 0 0 0 0 0 0 0 0 0 0 0 0 0 0 0 0.12 0"/>
<feBlend mode="normal" in2="shape" result="effect1_innerShadow_1272_12563"/>
</filter>
<filter id="filter13_i_1272_12563" x="272.301" y="189.5" width="105.007" height="112.876" filterUnits="userSpaceOnUse" color-interpolation-filters="sRGB">
<feFlood flood-opacity="0" result="BackgroundImageFix"/>
<feBlend mode="normal" in="SourceGraphic" in2="BackgroundImageFix" result="shape"/>
<feColorMatrix in="SourceAlpha" type="matrix" values="0 0 0 0 0 0 0 0 0 0 0 0 0 0 0 0 0 0 127 0" result="hardAlpha"/>
<feOffset dx="-4" dy="-4"/>
<feGaussianBlur stdDeviation="2"/>
<feComposite in2="hardAlpha" operator="arithmetic" k2="-1" k3="1"/>
<feColorMatrix type="matrix" values="0 0 0 0 0 0 0 0 0 0 0 0 0 0 0 0 0 0 0.08 0"/>
<feBlend mode="normal" in2="shape" result="effect1_innerShadow_1272_12563"/>
</filter>
<filter id="filter14_i_1272_12563" x="306.95" y="83.6777" width="25.1348" height="30.833" filterUnits="userSpaceOnUse" color-interpolation-filters="sRGB">
<feFlood flood-opacity="0" result="BackgroundImageFix"/>
<feBlend mode="normal" in="SourceGraphic" in2="BackgroundImageFix" result="shape"/>
<feColorMatrix in="SourceAlpha" type="matrix" values="0 0 0 0 0 0 0 0 0 0 0 0 0 0 0 0 0 0 127 0" result="hardAlpha"/>
<feOffset dy="4"/>
<feGaussianBlur stdDeviation="2"/>
<feComposite in2="hardAlpha" operator="arithmetic" k2="-1" k3="1"/>
<feColorMatrix type="matrix" values="0 0 0 0 0 0 0 0 0 0 0 0 0 0 0 0 0 0 0.25 0"/>
<feBlend mode="normal" in2="shape" result="effect1_innerShadow_1272_12563"/>
</filter>
<filter id="filter15_i_1272_12563" x="308.043" y="108.891" width="92.3311" height="85.7178" filterUnits="userSpaceOnUse" color-interpolation-filters="sRGB">
<feFlood flood-opacity="0" result="BackgroundImageFix"/>
<feBlend mode="normal" in="SourceGraphic" in2="BackgroundImageFix" result="shape"/>
<feColorMatrix in="SourceAlpha" type="matrix" values="0 0 0 0 0 0 0 0 0 0 0 0 0 0 0 0 0 0 127 0" result="hardAlpha"/>
<feOffset dy="1"/>
<feGaussianBlur stdDeviation="2"/>
<feComposite in2="hardAlpha" operator="arithmetic" k2="-1" k3="1"/>
<feColorMatrix type="matrix" values="0 0 0 0 0 0 0 0 0 0 0 0 0 0 0 0 0 0 0.25 0"/>
<feBlend mode="normal" in2="shape" result="effect1_innerShadow_1272_12563"/>
</filter>
<filter id="filter16_i_1272_12563" x="299.334" y="99.6777" width="50.1865" height="74.749" filterUnits="userSpaceOnUse" color-interpolation-filters="sRGB">
<feFlood flood-opacity="0" result="BackgroundImageFix"/>
<feBlend mode="normal" in="SourceGraphic" in2="BackgroundImageFix" result="shape"/>
<feColorMatrix in="SourceAlpha" type="matrix" values="0 0 0 0 0 0 0 0 0 0 0 0 0 0 0 0 0 0 127 0" result="hardAlpha"/>
<feOffset dy="-3"/>
<feGaussianBlur stdDeviation="2"/>
<feComposite in2="hardAlpha" operator="arithmetic" k2="-1" k3="1"/>
<feColorMatrix type="matrix" values="0 0 0 0 0 0 0 0 0 0 0 0 0 0 0 0 0 0 0.25 0"/>
<feBlend mode="normal" in2="shape" result="effect1_innerShadow_1272_12563"/>
</filter>
<filter id="filter17_i_1272_12563" x="301.617" y="159.678" width="45.6729" height="44.8525" filterUnits="userSpaceOnUse" color-interpolation-filters="sRGB">
<feFlood flood-opacity="0" result="BackgroundImageFix"/>
<feBlend mode="normal" in="SourceGraphic" in2="BackgroundImageFix" result="shape"/>
<feColorMatrix in="SourceAlpha" type="matrix" values="0 0 0 0 0 0 0 0 0 0 0 0 0 0 0 0 0 0 127 0" result="hardAlpha"/>
<feOffset dx="-3" dy="-2"/>
<feGaussianBlur stdDeviation="2"/>
<feComposite in2="hardAlpha" operator="arithmetic" k2="-1" k3="1"/>
<feColorMatrix type="matrix" values="0 0 0 0 0 0 0 0 0 0 0 0 0 0 0 0 0 0 0.25 0"/>
<feBlend mode="normal" in2="shape" result="effect1_innerShadow_1272_12563"/>
</filter>
<filter id="filter18_i_1272_12563" x="288.13" y="103.157" width="45.1162" height="120.53" filterUnits="userSpaceOnUse" color-interpolation-filters="sRGB">
<feFlood flood-opacity="0" result="BackgroundImageFix"/>
<feBlend mode="normal" in="SourceGraphic" in2="BackgroundImageFix" result="shape"/>
<feColorMatrix in="SourceAlpha" type="matrix" values="0 0 0 0 0 0 0 0 0 0 0 0 0 0 0 0 0 0 127 0" result="hardAlpha"/>
<feOffset dx="-3" dy="2"/>
<feGaussianBlur stdDeviation="2"/>
<feComposite in2="hardAlpha" operator="arithmetic" k2="-1" k3="1"/>
<feColorMatrix type="matrix" values="0 0 0 0 0 0 0 0 0 0 0 0 0 0 0 0 0 0 0.07 0"/>
<feBlend mode="normal" in2="shape" result="effect1_innerShadow_1272_12563"/>
</filter>
<filter id="filter19_i_1272_12563" x="292.758" y="49.7119" width="41.1523" height="51.8311" filterUnits="userSpaceOnUse" color-interpolation-filters="sRGB">
<feFlood flood-opacity="0" result="BackgroundImageFix"/>
<feBlend mode="normal" in="SourceGraphic" in2="BackgroundImageFix" result="shape"/>
<feColorMatrix in="SourceAlpha" type="matrix" values="0 0 0 0 0 0 0 0 0 0 0 0 0 0 0 0 0 0 127 0" result="hardAlpha"/>
<feOffset dy="4"/>
<feGaussianBlur stdDeviation="2"/>
<feComposite in2="hardAlpha" operator="arithmetic" k2="-1" k3="1"/>
<feColorMatrix type="matrix" values="0 0 0 0 0 0 0 0 0 0 0 0 0 0 0 0 0 0 0.25 0"/>
<feBlend mode="normal" in2="shape" result="effect1_innerShadow_1272_12563"/>
</filter>
<filter id="filter20_i_1272_12563" x="487" y="20" width="135.965" height="275.804" filterUnits="userSpaceOnUse" color-interpolation-filters="sRGB">
<feFlood flood-opacity="0" result="BackgroundImageFix"/>
<feBlend mode="normal" in="SourceGraphic" in2="BackgroundImageFix" result="shape"/>
<feColorMatrix in="SourceAlpha" type="matrix" values="0 0 0 0 0 0 0 0 0 0 0 0 0 0 0 0 0 0 127 0" result="hardAlpha"/>
<feOffset/>
<feGaussianBlur stdDeviation="4"/>
<feComposite in2="hardAlpha" operator="arithmetic" k2="-1" k3="1"/>
<feColorMatrix type="matrix" values="0 0 0 0 0 0 0 0 0 0 0 0 0 0 0 0 0 0 0.1 0"/>
<feBlend mode="normal" in2="shape" result="effect1_innerShadow_1272_12563"/>
</filter>
</defs>
</svg>
