<svg width="586" height="405" viewBox="0 0 586 405" fill="none" xmlns="http://www.w3.org/2000/svg">
<path d="M234.552 288.045C234.552 288.045 234.552 288.095 234.552 288.115C234.798 288.983 235.322 289.745 236.044 290.286C236.765 290.827 237.644 291.117 238.545 291.111H240.941C241.691 291.102 242.429 291.297 243.076 291.675C243.723 292.053 244.255 292.6 244.616 293.257L245.065 294.036C245.452 294.68 245.657 295.416 245.657 296.168C245.657 296.919 245.452 297.656 245.065 298.299L243.837 300.296C243.375 301.08 243.185 301.995 243.297 302.898C243.409 303.801 243.816 304.641 244.456 305.288L244.506 305.348C245.153 305.989 245.994 306.397 246.898 306.507C247.801 306.617 248.716 306.424 249.498 305.957L251.495 304.739C252.141 304.354 252.879 304.151 253.631 304.151C254.384 304.151 255.122 304.354 255.768 304.739L256.547 305.198C257.205 305.558 257.752 306.09 258.131 306.737C258.509 307.385 258.704 308.123 258.694 308.873V311.259C258.691 312.167 258.987 313.051 259.538 313.773C260.089 314.495 260.862 315.015 261.739 315.253H261.799C262.687 315.485 263.628 315.415 264.472 315.053C265.317 314.692 266.017 314.059 266.461 313.256L267.619 311.169C267.979 310.52 268.507 309.98 269.149 309.607C269.791 309.234 270.522 309.043 271.264 309.052H272.262C273.005 309.041 273.736 309.231 274.378 309.604C275.021 309.977 275.549 310.518 275.906 311.169L277.065 313.256C277.509 314.059 278.209 314.692 279.054 315.053C279.898 315.415 280.839 315.485 281.727 315.253H281.787C282.665 315.017 283.439 314.497 283.99 313.774C284.541 313.052 284.837 312.167 284.832 311.259V308.873C284.822 308.124 285.016 307.387 285.392 306.74C285.769 306.093 286.314 305.56 286.969 305.198L287.758 304.739C288.402 304.355 289.139 304.152 289.889 304.152C290.64 304.152 291.376 304.355 292.021 304.739L294.018 305.957C294.8 306.424 295.715 306.617 296.618 306.507C297.522 306.397 298.363 305.989 299.01 305.348L299.06 305.288C299.703 304.643 300.112 303.802 300.224 302.898C300.336 301.994 300.145 301.079 299.679 300.296L298.461 298.299C298.074 297.656 297.869 296.919 297.869 296.168C297.869 295.416 298.074 294.68 298.461 294.036C298.611 293.776 298.761 293.517 298.92 293.257C299.278 292.598 299.81 292.049 300.458 291.67C301.105 291.292 301.844 291.098 302.595 291.111H304.981C305.891 291.128 306.781 290.843 307.513 290.301C308.244 289.759 308.775 288.991 309.024 288.115C309.02 288.092 309.02 288.069 309.024 288.045C309.258 287.158 309.188 286.218 308.827 285.375C308.465 284.532 307.832 283.835 307.028 283.393L304.941 282.235C304.293 281.875 303.754 281.346 303.383 280.704C303.012 280.062 302.822 279.332 302.834 278.59V277.592C302.822 276.851 303.012 276.12 303.383 275.478C303.754 274.836 304.293 274.307 304.941 273.948L307.028 272.789C307.832 272.348 308.465 271.65 308.827 270.807C309.188 269.964 309.258 269.024 309.024 268.137C309.02 268.114 309.02 268.09 309.024 268.067C308.785 267.182 308.257 266.402 307.525 265.851C306.792 265.299 305.897 265.007 304.981 265.022H302.595C301.844 265.034 301.105 264.84 300.458 264.462C299.81 264.083 299.278 263.534 298.92 262.875C298.761 262.615 298.611 262.356 298.461 262.096C298.074 261.453 297.869 260.716 297.869 259.965C297.869 259.213 298.074 258.476 298.461 257.833L299.679 255.836C300.141 255.052 300.331 254.138 300.219 253.235C300.107 252.332 299.7 251.491 299.06 250.844L299.01 250.794C298.363 250.153 297.522 249.745 296.618 249.635C295.715 249.525 294.8 249.718 294.018 250.185L292.021 251.403C291.376 251.787 290.64 251.99 289.889 251.99C289.139 251.99 288.402 251.787 287.758 251.403L286.969 250.944C286.314 250.582 285.769 250.049 285.392 249.402C285.016 248.755 284.822 248.018 284.832 247.269V244.883C284.837 243.975 284.541 243.09 283.99 242.368C283.439 241.645 282.665 241.125 281.787 240.89H281.727C280.839 240.657 279.898 240.727 279.054 241.089C278.209 241.45 277.509 242.083 277.065 242.886L275.906 244.973C275.549 245.624 275.021 246.165 274.378 246.538C273.736 246.911 273.005 247.102 272.262 247.09H271.264C270.522 247.099 269.791 246.908 269.149 246.535C268.507 246.162 267.979 245.622 267.619 244.973L266.461 242.886C266.017 242.083 265.317 241.45 264.472 241.089C263.628 240.727 262.687 240.657 261.799 240.89H261.739C260.862 241.127 260.089 241.647 259.538 242.369C258.987 243.091 258.691 243.975 258.694 244.883V247.269C258.704 248.019 258.509 248.758 258.131 249.405C257.752 250.052 257.205 250.584 256.547 250.944L255.768 251.403C255.122 251.788 254.384 251.991 253.631 251.991C252.879 251.991 252.141 251.788 251.495 251.403L249.498 250.185C248.716 249.718 247.801 249.525 246.898 249.635C245.994 249.745 245.153 250.153 244.506 250.794L244.456 250.844C243.818 251.492 243.411 252.332 243.3 253.235C243.188 254.137 243.376 255.052 243.837 255.836L245.065 257.833C245.452 258.476 245.657 259.213 245.657 259.965C245.657 260.716 245.452 261.453 245.065 262.096L244.616 262.875C244.255 263.532 243.723 264.079 243.076 264.457C242.429 264.836 241.691 265.031 240.941 265.022H238.545C237.637 265.019 236.753 265.315 236.031 265.866C235.309 266.417 234.789 267.19 234.552 268.067C234.552 268.067 234.552 268.117 234.552 268.137C234.318 269.024 234.387 269.964 234.749 270.807C235.111 271.65 235.744 272.348 236.548 272.789L238.635 273.948C239.283 274.309 239.822 274.837 240.194 275.479C240.567 276.12 240.759 276.85 240.752 277.592C240.752 277.762 240.752 277.931 240.752 278.101C240.752 278.271 240.752 278.45 240.752 278.62C240.759 279.362 240.567 280.092 240.194 280.733C239.822 281.375 239.283 281.904 238.635 282.264L236.548 283.423C235.75 283.863 235.121 284.556 234.76 285.393C234.399 286.229 234.325 287.163 234.552 288.045V288.045ZM248.709 278.061C248.709 273.475 250.069 268.993 252.617 265.18C255.165 261.367 258.786 258.396 263.023 256.641C267.26 254.887 271.922 254.428 276.419 255.324C280.917 256.219 285.048 258.428 288.29 261.671C291.532 264.915 293.739 269.047 294.632 273.544C295.526 278.042 295.065 282.704 293.309 286.94C291.553 291.176 288.579 294.796 284.766 297.342C280.952 299.889 276.468 301.247 271.883 301.245C265.738 301.239 259.847 298.796 255.503 294.451C251.158 290.107 248.715 284.215 248.709 278.071V278.061Z" fill="#A2DABD" fill-opacity="0.8"/>
<path d="M314.815 327.104C314.814 327.133 314.814 327.163 314.815 327.193C315.16 328.49 315.929 329.634 317.001 330.442C318.073 331.249 319.384 331.673 320.726 331.646L324.221 331.596C325.316 331.584 326.394 331.869 327.34 332.421C328.286 332.973 329.064 333.772 329.592 334.731C329.822 335.111 330.041 335.5 330.261 335.88C330.825 336.823 331.123 337.901 331.123 339C331.123 340.099 330.825 341.177 330.261 342.12L328.464 345.115C327.77 346.265 327.482 347.614 327.647 348.947C327.812 350.279 328.419 351.518 329.373 352.464L329.442 352.534C330.388 353.487 331.627 354.094 332.959 354.259C334.292 354.424 335.641 354.136 336.791 353.442L339.786 351.655C340.726 351.082 341.805 350.778 342.906 350.778C344.007 350.778 345.087 351.082 346.026 351.655L347.174 352.314C348.139 352.836 348.941 353.614 349.494 354.561C350.047 355.508 350.329 356.589 350.31 357.685L350.26 361.19C350.226 362.544 350.652 363.869 351.467 364.949C352.283 366.03 353.441 366.802 354.753 367.141H354.843C356.139 367.493 357.517 367.399 358.753 366.873C359.99 366.348 361.014 365.423 361.662 364.245L363.349 361.19C363.875 360.241 364.649 359.453 365.588 358.91C366.527 358.366 367.596 358.088 368.681 358.105H370.178C371.263 358.088 372.332 358.366 373.271 358.91C374.21 359.453 374.984 360.241 375.51 361.19L377.197 364.245C377.845 365.423 378.869 366.348 380.106 366.873C381.343 367.399 382.72 367.493 384.017 367.141H384.106C385.402 366.797 386.544 366.029 387.352 364.959C388.159 363.889 388.584 362.58 388.56 361.24L388.51 357.735C388.49 356.639 388.773 355.558 389.325 354.611C389.878 353.664 390.68 352.886 391.645 352.364L392.793 351.705C393.733 351.131 394.812 350.828 395.913 350.828C397.014 350.828 398.093 351.131 399.033 351.705L402.028 353.492C403.178 354.186 404.527 354.474 405.86 354.309C407.192 354.144 408.431 353.537 409.377 352.583L409.447 352.514C410.4 351.568 411.007 350.329 411.172 348.997C411.337 347.664 411.049 346.315 410.355 345.165L408.558 342.17C407.994 341.227 407.696 340.148 407.696 339.05C407.696 337.951 407.994 336.873 408.558 335.93C408.778 335.55 408.997 335.161 409.227 334.781C409.755 333.822 410.533 333.023 411.479 332.471C412.425 331.919 413.503 331.634 414.598 331.646L418.093 331.696C419.435 331.723 420.747 331.299 421.818 330.492C422.89 329.684 423.66 328.54 424.004 327.243V327.153C424.353 325.858 424.258 324.483 423.733 323.248C423.208 322.014 422.284 320.991 421.108 320.344L418.053 318.647C417.102 318.122 416.312 317.349 415.767 316.41C415.222 315.471 414.942 314.401 414.958 313.315C414.958 313.066 414.958 312.816 414.958 312.566C414.958 312.317 414.958 312.067 414.958 311.827C414.942 310.742 415.222 309.672 415.767 308.733C416.312 307.794 417.102 307.021 418.053 306.496L421.108 304.799C422.286 304.151 423.211 303.127 423.736 301.89C424.262 300.653 424.356 299.276 424.004 297.979V297.889C423.66 296.592 422.89 295.449 421.818 294.641C420.747 293.834 419.435 293.409 418.093 293.436L414.598 293.496C413.503 293.509 412.425 293.224 411.479 292.672C410.533 292.12 409.755 291.321 409.227 290.361L408.558 289.213C407.994 288.27 407.696 287.192 407.696 286.093C407.696 284.994 407.994 283.916 408.558 282.973L410.355 279.978C411.049 278.828 411.337 277.479 411.172 276.146C411.007 274.814 410.4 273.575 409.447 272.629L409.377 272.559C408.431 271.606 407.192 270.998 405.86 270.834C404.527 270.669 403.178 270.957 402.028 271.651L399.033 273.448C398.09 274.012 397.012 274.309 395.913 274.309C394.814 274.309 393.736 274.012 392.793 273.448L391.645 272.789C390.682 272.261 389.882 271.481 389.33 270.533C388.778 269.585 388.494 268.504 388.51 267.407L388.56 263.913C388.587 262.571 388.162 261.259 387.355 260.188C386.547 259.116 385.403 258.346 384.106 258.002H384.017C382.721 257.649 381.344 257.742 380.108 258.265C378.871 258.788 377.846 259.712 377.197 260.888L375.51 263.943C374.985 264.893 374.212 265.684 373.273 266.229C372.334 266.774 371.264 267.054 370.178 267.038H368.681C367.595 267.054 366.525 266.774 365.586 266.229C364.647 265.684 363.874 264.893 363.349 263.943L361.662 260.888C361.013 259.712 359.988 258.788 358.751 258.265C357.515 257.742 356.138 257.649 354.843 258.002H354.753C353.456 258.346 352.312 259.116 351.504 260.188C350.697 261.259 350.273 262.571 350.3 263.913L350.35 267.407C350.365 268.504 350.081 269.585 349.529 270.533C348.977 271.481 348.176 272.261 347.214 272.789L346.066 273.448C345.123 274.012 344.045 274.309 342.946 274.309C341.847 274.309 340.769 274.012 339.826 273.448L336.831 271.651C335.681 270.957 334.332 270.669 332.999 270.834C331.667 270.998 330.428 271.606 329.482 272.559L329.413 272.629C328.459 273.575 327.852 274.814 327.687 276.146C327.522 277.479 327.81 278.828 328.504 279.978L330.301 282.973C330.865 283.916 331.162 284.994 331.162 286.093C331.162 287.192 330.865 288.27 330.301 289.213L329.632 290.361C329.104 291.321 328.326 292.12 327.38 292.672C326.434 293.224 325.356 293.509 324.26 293.496L320.766 293.436C319.424 293.409 318.113 293.834 317.041 294.641C315.969 295.449 315.199 296.592 314.855 297.889V297.979C314.503 299.276 314.597 300.653 315.122 301.89C315.648 303.127 316.573 304.151 317.751 304.799L320.806 306.496C321.755 307.022 322.543 307.796 323.086 308.735C323.63 309.674 323.908 310.743 323.891 311.827C323.891 312.067 323.891 312.317 323.891 312.566C323.891 312.816 323.891 313.066 323.891 313.315C323.908 314.4 323.63 315.469 323.086 316.408C322.543 317.347 321.755 318.121 320.806 318.647L317.751 320.344C316.578 320.983 315.653 321.994 315.121 323.219C314.589 324.444 314.481 325.811 314.815 327.104V327.104ZM335.523 312.516C335.523 305.802 337.514 299.239 341.244 293.657C344.974 288.074 350.276 283.723 356.479 281.154C362.682 278.584 369.507 277.912 376.092 279.222C382.677 280.532 388.726 283.765 393.473 288.513C398.221 293.26 401.454 299.309 402.764 305.894C404.074 312.479 403.401 319.304 400.832 325.507C398.263 331.71 393.912 337.012 388.329 340.742C382.747 344.472 376.183 346.463 369.469 346.463C365.007 346.47 360.588 345.596 356.463 343.893C352.339 342.19 348.591 339.691 345.433 336.538C342.276 333.385 339.771 329.641 338.062 325.519C336.353 321.397 335.473 316.979 335.473 312.516H335.523Z" fill="#A2DABD" fill-opacity="0.8"/>
<path d="M369.388 328.112C377.841 328.112 384.694 321.26 384.694 312.806C384.694 304.353 377.841 297.5 369.388 297.5C360.935 297.5 354.082 304.353 354.082 312.806C354.082 321.26 360.935 328.112 369.388 328.112Z" fill="#A2DABD" fill-opacity="0.8"/>
<g filter="url(#filter0_d_6473_29973)">
<path d="M469.33 79.9331H140.562C136.144 79.9331 132.562 83.5148 132.562 87.9331V286.847C132.562 291.266 136.144 294.847 140.562 294.847H469.33C473.749 294.847 477.33 291.266 477.33 286.847V87.9331C477.33 83.5148 473.749 79.9331 469.33 79.9331Z" fill="white"/>
</g>
<g filter="url(#filter1_d_6473_29973)">
<path d="M289.297 107.264C289.297 103.95 291.983 101.264 295.297 101.264H555.971C559.285 101.264 561.971 103.95 561.971 107.264V295.571H289.297V107.264Z" fill="white"/>
</g>
<path d="M302.178 136.249C302.178 132.935 304.864 130.249 308.178 130.249H543.087C546.401 130.249 549.087 132.935 549.087 136.249V295.571H302.178V136.249Z" fill="#A2DABD"/>
<circle cx="305.935" cy="117.904" r="3.75732" fill="#FFA7A7"/>
<circle cx="316.671" cy="117.904" r="3.75732" fill="#FFE6A7"/>
<circle cx="327.406" cy="117.904" r="3.75732" fill="#B6FFC6"/>
<rect x="335.457" y="147.425" width="205.042" height="6.44112" rx="3.22056" fill="white"/>
<rect x="356.928" y="162.455" width="183.572" height="6.44112" rx="3.22056" fill="white"/>
<rect x="335.457" y="177.484" width="162.102" height="6.44112" rx="3.22056" fill="white"/>
<rect x="346.193" y="192.513" width="194.307" height="6.44112" rx="3.22056" fill="white"/>
<rect x="367.664" y="207.542" width="172.837" height="6.44112" rx="3.22056" fill="white"/>
<rect x="335.457" y="222.572" width="205.042" height="6.44112" rx="3.22056" fill="white"/>
<rect x="346.193" y="237.601" width="76.2199" height="6.44112" rx="3.22056" fill="white"/>
<rect x="426.707" y="237.601" width="81.5875" height="6.44112" rx="3.22056" fill="white"/>
<rect x="335.457" y="252.63" width="172.837" height="6.44112" rx="3.22056" fill="white"/>
<rect x="389.133" y="267.66" width="119.161" height="6.44112" rx="3.22056" fill="white"/>
<rect x="356.928" y="282.689" width="151.366" height="6.44112" rx="3.22056" fill="white"/>
<rect x="310.767" y="147.425" width="20.3969" height="6.44112" rx="3.22056" fill="white"/>
<rect x="310.767" y="162.455" width="41.8673" height="6.44112" rx="3.22056" fill="white"/>
<rect x="310.767" y="177.484" width="20.3969" height="6.44112" rx="3.22056" fill="white"/>
<rect x="310.767" y="192.513" width="31.1321" height="6.44112" rx="3.22056" fill="white"/>
<rect x="310.767" y="207.542" width="52.6025" height="6.44112" rx="3.22056" fill="white"/>
<rect x="310.767" y="222.572" width="20.3969" height="6.44112" rx="3.22056" fill="white"/>
<rect x="310.767" y="237.601" width="31.1321" height="6.44112" rx="3.22056" fill="white"/>
<rect x="310.767" y="252.63" width="20.3969" height="6.44112" rx="3.22056" fill="white"/>
<rect x="310.767" y="267.66" width="74.0729" height="6.44112" rx="3.22056" fill="white"/>
<rect x="310.767" y="282.689" width="41.8673" height="6.44112" rx="3.22056" fill="white"/>
<g filter="url(#filter2_d_6473_29973)">
<path d="M469.33 46.3691H140.562C136.144 46.3691 132.562 49.9509 132.562 54.3691V63.2401C132.562 67.6583 136.144 71.2401 140.562 71.2401H469.33C473.749 71.2401 477.33 67.6583 477.33 63.2401V54.3691C477.33 49.9509 473.749 46.3691 469.33 46.3691Z" fill="white"/>
</g>
<path d="M182.864 58.7992C182.866 59.5091 182.658 60.2035 182.265 60.7945C181.871 61.3855 181.312 61.8465 180.656 62.1191C180.001 62.3916 179.279 62.4635 178.583 62.3255C177.887 62.1875 177.247 61.8458 176.745 61.3439C176.243 60.842 175.902 60.2024 175.764 59.5061C175.626 58.8098 175.697 58.0882 175.97 57.4328C176.243 56.7774 176.703 56.2177 177.294 55.8246C177.885 55.4314 178.58 55.2226 179.29 55.2246C180.238 55.2246 181.147 55.6012 181.817 56.2716C182.488 56.942 182.864 57.8512 182.864 58.7992Z" fill="#45DD91"/>
<path d="M164.592 62.3851C166.572 62.3851 168.177 60.7802 168.177 58.8004C168.177 56.8207 166.572 55.2158 164.592 55.2158C162.612 55.2158 161.008 56.8207 161.008 58.8004C161.008 60.7802 162.612 62.3851 164.592 62.3851Z" fill="#FF3E9A"/>
<path d="M149.895 62.3851C151.875 62.3851 153.48 60.7802 153.48 58.8004C153.48 56.8207 151.875 55.2158 149.895 55.2158C147.915 55.2158 146.31 56.8207 146.31 58.8004C146.31 60.7802 147.915 62.3851 149.895 62.3851Z" fill="#EA9C42"/>
<path d="M209.011 244.463H153.947V248.606H209.011V244.463Z" fill="white"/>
<path d="M222.76 242.147C223.923 242.147 225.038 242.609 225.86 243.431C226.682 244.253 227.143 245.368 227.143 246.53V246.53C227.143 247.693 226.682 248.808 225.86 249.63C225.038 250.452 223.923 250.914 222.76 250.914V250.914C221.599 250.911 220.487 250.448 219.667 249.626C218.847 248.805 218.387 247.691 218.387 246.53V246.53C218.387 245.37 218.847 244.256 219.667 243.434C220.487 242.613 221.599 242.15 222.76 242.147V242.147Z" fill="white"/>
<path d="M131.359 99.6436C130.787 99.7568 130.254 99.982 129.786 100.295L130.065 100.711C129.643 100.993 129.28 101.356 128.998 101.778L128.582 101.499C128.269 101.968 128.044 102.5 127.931 103.072L128.421 103.169C128.373 103.413 128.348 103.665 128.348 103.924V104.908H127.848V106.878H128.348V108.847H127.848V110.817H128.348V112.786H127.848V114.755H128.348V116.725H127.848V118.694H128.348V120.664H127.848V122.633H128.348V124.602H127.848V126.572H128.348V128.541H127.848V130.511H128.348V132.48H127.848V134.449H128.348V136.419H127.848V138.388H128.348V140.358H127.848V142.327H128.348V144.296H127.848V146.266H128.348V148.235H127.848V150.205H128.348V152.174H127.848V154.144H128.348V156.113H127.848V158.082H128.348V160.052H127.848V162.021H128.348V163.991H127.848V165.96H128.348V167.929H127.848V169.899H128.348V171.868H127.848V173.838H128.348V175.807H127.848V177.776H128.348V179.746H127.848V181.715H128.348V183.685H127.848V185.654H128.348V187.623H127.848V189.593H128.348V191.562H127.848V193.532H128.348V195.501H127.848V197.47H128.348V199.44H127.848V201.409H128.348V203.379H127.848V205.348H128.348V207.317H127.848V209.287H128.348V211.256H127.848V213.226H128.348V215.195H127.848V217.165H128.348V219.134H127.848V221.103H128.348V222.088C128.348 222.347 128.373 222.599 128.421 222.842L127.931 222.939C128.044 223.512 128.269 224.044 128.582 224.512L128.998 224.234C129.28 224.656 129.643 225.019 130.065 225.301L129.786 225.716C130.254 226.03 130.787 226.255 131.359 226.368L131.456 225.878C131.7 225.926 131.952 225.951 132.211 225.951H133.217V226.451H135.229V225.951H137.242V226.451H139.254V225.951H141.267V226.451H143.28V225.951H145.292V226.451H147.305V225.951H149.317V226.451H151.33V225.951H153.342V226.451H155.355V225.951H157.367V226.451H159.38V225.951H161.393V226.451H163.405V225.951H165.418V226.451H167.43V225.951H169.443V226.451H171.455V225.951H173.468V226.451H175.48V225.951H177.493V226.451H179.506V225.951H181.518V226.451H183.531V225.951H185.543V226.451H187.556V225.951H189.568V226.451H191.581V225.951H193.593V226.451H195.606V225.951H197.619V226.451H199.631V225.951H201.644V226.451H203.656V225.951H205.669V226.451H207.681V225.951H209.694V226.451H211.706V225.951H213.719V226.451H215.732V225.951H216.738C216.996 225.951 217.249 225.926 217.492 225.878L217.589 226.368C218.162 226.255 218.694 226.03 219.162 225.716L218.884 225.301C219.305 225.019 219.668 224.656 219.951 224.234L220.366 224.512C220.679 224.044 220.905 223.512 221.018 222.939L220.527 222.842C220.576 222.599 220.601 222.347 220.601 222.088V221.103H221.101V219.134H220.601V217.164H221.101V215.195H220.601V213.226H221.101V211.256H220.601V209.287H221.101V207.317H220.601V205.348H221.101V203.379H220.601V201.409H221.101V199.44H220.601V197.47H221.101V195.501H220.601V193.532H221.101V191.562H220.601V189.593H221.101V187.623H220.601V185.654H221.101V183.685H220.601V181.715H221.101V179.746H220.601V177.776H221.101V175.807H220.601V173.838H221.101V171.868H220.601V169.899H221.101V167.929H220.601V165.96H221.101V163.991H220.601V162.021H221.101V160.052H220.601V158.082H221.101V156.113H220.601V154.143H221.101V152.174H220.601V150.205H221.101V148.235H220.601V146.266H221.101V144.296H220.601V142.327H221.101V140.358H220.601V138.388H221.101V136.419H220.601V134.449H221.101V132.48H220.601V130.511H221.101V128.541H220.601V126.572H221.101V124.602H220.601V122.633H221.101V120.664H220.601V118.694H221.101V116.725H220.601V114.755H221.101V112.786H220.601V110.817H221.101V108.847H220.601V106.878H221.101V104.908H220.601V103.924C220.601 103.665 220.576 103.413 220.527 103.169L221.018 103.072C220.905 102.5 220.679 101.968 220.366 101.499L219.951 101.778C219.668 101.356 219.305 100.993 218.884 100.711L219.162 100.295C218.694 99.982 218.162 99.7568 217.589 99.6436L217.492 100.134C217.249 100.086 216.996 100.061 216.738 100.061H215.732V99.5605H213.719V100.061H211.706V99.5605H209.694V100.061H207.681V99.5605H205.669V100.061H203.656V99.5605H201.644V100.061H199.631V99.5605H197.619V100.061H195.606V99.5605H193.593V100.061H191.581V99.5605H189.568V100.061H187.556V99.5605H185.543V100.061H183.531V99.5605H181.518V100.061H179.506V99.5605H177.493V100.061H175.48V99.5605H173.468V100.061H171.455V99.5605H169.443V100.061H167.43V99.5605H165.418V100.061H163.405V99.5605H161.393V100.061H159.38V99.5605H157.367V100.061H155.355V99.5605H153.342V100.061H151.33V99.5605H149.317V100.061H147.305V99.5605H145.292V100.061H143.28V99.5605H141.267V100.061H139.254V99.5605H137.242V100.061H135.229V99.5605H133.217V100.061H132.211C131.952 100.061 131.7 100.086 131.456 100.134L131.359 99.6436Z" stroke="#6FCA9B" stroke-dasharray="2 2"/>
<path d="M210.038 104.812H120.646C118.097 104.812 116.031 106.765 116.031 109.175V227.339C116.031 229.749 118.097 231.703 120.646 231.703H210.038C212.586 231.703 214.652 229.749 214.652 227.339V109.175C214.652 106.765 212.586 104.812 210.038 104.812Z" fill="#A2DABD"/>
<path d="M186.017 143.911C193.577 143.911 199.705 137.782 199.705 130.222C199.705 122.662 193.577 116.534 186.017 116.534C178.457 116.534 172.328 122.662 172.328 130.222C172.328 137.782 178.457 143.911 186.017 143.911Z" fill="white"/>
<path d="M199.504 203.598H129.234V206.942H199.504V203.598Z" fill="white"/>
<path d="M199.504 190.039H129.234V193.384H199.504V190.039Z" fill="white"/>
<path d="M199.504 176.47H129.234V179.815H199.504V176.47Z" fill="white"/>
<path d="M199.504 162.902H129.234V166.247H199.504V162.902Z" fill="white"/>
<path d="M199.504 149.342H129.234V152.687H199.504V149.342Z" fill="white"/>
<path d="M159.946 135.774H129.234V139.119H159.946V135.774Z" fill="white"/>
<path d="M159.946 122.216H129.234V125.561H159.946V122.216Z" fill="white"/>
<g filter="url(#filter3_d_6473_29973)">
<rect x="154.033" y="186.072" width="92.1255" height="59.8767" rx="8" fill="white"/>
</g>
<rect x="181.238" y="198.438" width="55.028" height="7.4195" rx="3.70975" fill="#EEF2F9"/>
<rect x="163.926" y="193.492" width="12.3667" height="12.3667" rx="4" fill="#23AC68"/>
<path d="M173.589 199.328V199.644C173.588 200.385 173.349 201.106 172.905 201.699C172.462 202.292 171.838 202.726 171.128 202.936C170.417 203.146 169.658 203.121 168.963 202.865C168.268 202.608 167.675 202.133 167.272 201.512C166.869 200.891 166.677 200.155 166.726 199.416C166.775 198.677 167.061 197.973 167.542 197.41C168.024 196.847 168.674 196.455 169.397 196.291C170.119 196.128 170.875 196.203 171.552 196.504" stroke="white" stroke-linecap="round" stroke-linejoin="round"/>
<path d="M173.589 196.895L170.153 200.333L169.123 199.303" stroke="white" stroke-linecap="round" stroke-linejoin="round"/>
<rect x="163.926" y="218.223" width="12.3667" height="12.3667" rx="4" fill="#23AC68"/>
<path d="M173.589 224.06V224.376C173.588 225.116 173.349 225.837 172.905 226.431C172.462 227.024 171.838 227.458 171.128 227.668C170.417 227.878 169.658 227.853 168.963 227.596C168.268 227.339 167.675 226.865 167.272 226.243C166.869 225.622 166.677 224.887 166.726 224.148C166.775 223.408 167.061 222.705 167.542 222.142C168.024 221.579 168.674 221.186 169.397 221.023C170.119 220.86 170.875 220.934 171.552 221.236" stroke="white" stroke-linecap="round" stroke-linejoin="round"/>
<path d="M173.589 221.626L170.153 225.065L169.123 224.034" stroke="white" stroke-linecap="round" stroke-linejoin="round"/>
<rect x="181.238" y="220.696" width="55.028" height="7.4195" rx="3.70975" fill="#EEF2F9"/>
<path d="M50.828 384.425L53.543 326.074L70.5877 326.246L58.3353 384.839L50.828 384.425Z" fill="black" fill-opacity="0.92"/>
<path d="M84.2615 383.157C83.4478 374.852 87.4928 334.528 86.637 325.785C86.0148 319.43 104.021 321.89 103.222 328.226C101.097 345.088 94.1673 374.509 92.1852 382.391C90.9059 387.478 84.5625 386.23 84.2615 383.157Z" fill="black" fill-opacity="0.92"/>
<path d="M50.1614 381.559L58.9058 381.559C58.9058 381.559 60.2872 384.776 62.2376 385.428C64.188 386.079 69.0234 386.449 69.0234 390.319L48.4385 390.319C48.578 388.363 48.8853 386.423 49.3569 384.519C49.7045 383.555 49.9736 382.565 50.1614 381.559V381.559Z" fill="#F0B80E"/>
<path d="M48.4385 390.317L69.0234 390.317L69.0234 391.777L48.4385 391.777L48.4385 390.317Z" fill="black" fill-opacity="0.92"/>
<path d="M83.839 381.559L92.7357 381.559C92.7357 381.559 96.7325 385.653 101.033 386.112C105.334 386.57 107.596 387.72 108.723 390.319L82.2563 390.319L83.839 381.559Z" fill="#F0B80E"/>
<path d="M82.2563 390.317L108.723 390.317L108.723 391.777L82.2563 391.777L82.2563 390.317Z" fill="black" fill-opacity="0.92"/>
<path d="M65.4219 270.903C69.3881 305.279 83.5557 325.8 87.4257 329.533C91.7142 333.67 103.665 329.126 103.126 327.337C99.9182 316.688 89.8427 286.275 85.7524 262.998C83.9672 252.839 64.2397 260.657 65.4219 270.903Z" fill="black" fill-opacity="0.92"/>
<path d="M53.6984 326.35C53.6987 317.676 50.7143 272.221 50.713 262.999C50.7117 253.609 74.9282 253.609 74.9282 262.999C74.9282 279.577 70.7265 320.751 70.7265 326.35C70.7265 332.953 53.6982 332.953 53.6984 326.35Z" fill="black" fill-opacity="0.92"/>
<path d="M74.7857 197.277L77.26 181.097L89.3491 183.77C89.3491 183.77 84.1503 198.717 87.328 199.998C90.5057 201.279 79.6838 198.339 74.7857 197.277Z" fill="#F7AD9D"/>
<g filter="url(#filter4_i_6473_29973)">
<path fill-rule="evenodd" clip-rule="evenodd" d="M84.7187 196.008C91.6426 198.905 98.5484 203.553 97.3353 210.916C95.0344 224.88 92.1249 232.82 89.3627 238.169C88.8323 239.196 88.1653 240.07 87.3872 240.805C86.0529 243.896 83.4192 252.333 87.0414 265.179C89.7072 274.633 82.0307 272.116 72.9753 269.147C66.256 266.943 58.7774 264.491 54.2018 266.496C43.4596 271.204 46.2672 256.799 48.5521 250.631C51.1928 243.503 55.1268 232.438 55.196 232.243C55.196 232.242 55.1961 232.241 55.1962 232.24C55.3635 229.534 55.3921 227.225 55.4179 225.135C55.5232 216.624 55.5837 211.733 64.7839 198.417C67.4659 194.535 71.4387 193.338 75.7624 193.654C76.9585 193.741 78.1814 193.945 79.4113 194.239C81.1859 194.664 82.9749 195.278 84.7187 196.008Z" fill="#F8CC46"/>
</g>
<path d="M80.4062 202.597C80.4062 202.597 89.3624 220.384 82.0647 237.182C74.0499 255.631 86.377 271.108 86.377 271.108" stroke="white" stroke-opacity="0.31"/>
<path d="M142.339 232.318C143.064 233.297 141.037 235.146 141.037 235.146L135.016 238.196C135.016 238.196 141.465 231.138 142.339 232.318Z" fill="#FFC4B7"/>
<path d="M141.17 237.593C143.45 235.835 145.809 233.579 146.375 232.381C146.741 231.605 145.049 230.665 144.456 231.288C141.398 234.508 136.45 236.98 136.45 236.98C136.45 236.98 132.602 238.031 132.37 236.452C132.163 235.042 134.345 234.299 135.312 233.886C136.296 233.466 137.32 231.852 136.675 231.386C135.743 230.714 134.424 232.114 133.453 232.285C128.825 235.582 127.116 238.219 124.664 238.669C122.668 239.036 124.755 243.922 126.718 243.409C128.879 242.844 136.36 241.303 141.17 237.593Z" fill="#FFC4B7"/>
<g filter="url(#filter5_i_6473_29973)">
<path d="M89.739 230.466C96.1209 231.242 111.396 236.525 125.688 237.75C128.178 237.964 127.441 244.671 125.016 244.069C111.628 240.742 101.357 242.928 86.9359 239.484C83.327 238.623 86.0547 230.019 89.739 230.466Z" fill="#F6BD0E"/>
</g>
<g filter="url(#filter6_i_6473_29973)">
<path d="M93.7432 231.747C87.5417 222.399 77.8142 213.424 73.1387 203.344C67.1388 190.409 57.7044 206.216 61.0143 211.089C67.8111 221.096 81.8834 233.434 85.82 239.047C87.944 242.076 96.0654 235.247 93.7432 231.747Z" fill="#F6BD0E"/>
</g>
<path d="M81.7664 159.591C66.97 161.103 71.7369 176.774 75.6817 182.902C75.6817 182.902 84.9601 195.953 90.1914 192.408C95.2476 188.982 95.5575 174.447 95.5575 174.447C96.9335 167.853 95.4733 158.19 81.7664 159.591Z" fill="#FFC4B7"/>
<path d="M81.7663 159.591C66.9699 161.104 70.7305 176.97 74.6753 183.098C74.6753 183.098 78.9219 188.164 80.1718 181.897C80.9601 180.646 80.8074 176.704 82.1761 174.962C88.4066 167.032 95.5574 174.447 95.5574 174.447C96.9334 167.853 95.4732 158.19 81.7663 159.591Z" fill="black" fill-opacity="0.92"/>
<ellipse cx="5.62709" cy="5.9417" rx="5.62709" ry="5.9417" transform="matrix(0.940227 0.344358 -0.347754 0.936186 68.2461 155.349)" fill="black" fill-opacity="0.92"/>
<g filter="url(#filter7_i_6473_29973)">
<path d="M124.714 218.095L150.631 191.204L154.126 195.737C154.126 195.737 137.904 222.06 133.704 224.466C129.966 226.608 124.714 218.095 124.714 218.095Z" fill="#F8CC46"/>
</g>
<g filter="url(#filter8_i_6473_29973)">
<path d="M95.0818 203.086C107.114 207.487 119.61 209.32 130.205 213.353C134.306 214.914 135.495 225.58 131.248 224.472C120.581 221.69 104.007 221.399 91.6906 216.721C86.2429 214.652 89.6087 201.084 95.0818 203.086Z" fill="#F8CC46"/>
</g>
<path d="M166.356 184.505C165.851 183.399 163.235 184.25 163.235 184.25L157.611 187.973C157.611 187.973 166.965 185.839 166.356 184.505Z" fill="#FFC4B7"/>
<path d="M161.151 182.938C163.811 181.823 166.947 180.883 168.275 180.979C169.136 181.041 169.135 182.967 168.297 183.175C163.973 184.249 159.382 187.325 159.382 187.325C159.382 187.325 156.575 190.144 157.849 191.117C158.987 191.986 160.707 190.459 161.543 189.824C162.393 189.178 164.312 189.08 164.405 189.867C164.54 191.002 162.665 191.46 162.04 192.218C156.88 194.613 153.727 194.804 152.133 196.707C150.835 198.256 147.563 194.059 148.974 192.61C150.527 191.014 155.541 185.289 161.151 182.938Z" fill="#FFC4B7"/>
<path d="M530.99 380.039L531.566 319.113L513.805 318.311L523.147 380.039H530.99Z" fill="black" fill-opacity="0.92"/>
<path d="M530.885 378.221C530.885 378.221 533.099 382.787 532.973 386.591L510.969 386.679C510.969 386.679 511.826 384.553 517.613 382.633C521.126 381.468 522.58 381.424 523.916 378.235L530.885 378.221Z" fill="#34835A"/>
<path d="M532.902 386.606L532.91 388.504L510.899 388.599L510.89 386.701L532.902 386.606Z" fill="black" fill-opacity="0.92"/>
<path d="M505.041 376.72C505.041 368.016 496.738 326.558 496.737 317.396C496.736 310.735 478.54 314.792 480.013 321.29C483.935 338.583 493.877 368.735 496.737 376.72C498.583 381.873 505.041 379.94 505.041 376.72Z" fill="black" fill-opacity="0.92"/>
<path d="M504.584 376.051C504.584 376.051 507.534 380.187 508.048 383.959L486.366 387.686C486.366 387.686 486.854 385.448 492.238 382.597C495.507 380.867 496.933 380.583 497.716 377.218L504.584 376.051Z" fill="#34835A"/>
<path d="M507.982 383.986L508.309 385.857L486.621 389.593L486.294 387.722L507.982 383.986Z" fill="black" fill-opacity="0.92"/>
<path d="M519.343 260.936C508.04 286.36 500.428 318.198 496.391 322.092C491.918 326.406 479.453 321.667 480.015 319.802C483.361 308.693 487.512 282.123 491.778 257.844C493.64 247.247 523.718 251.095 519.343 260.936Z" fill="black" fill-opacity="0.92"/>
<path d="M531.57 318.771C531.569 309.724 534.682 262.31 534.684 252.691C534.685 242.897 509.425 242.897 509.425 252.691C509.425 269.983 513.808 312.93 513.808 318.771C513.808 325.659 531.57 325.659 531.57 318.771Z" fill="black" fill-opacity="0.92"/>
<g filter="url(#filter9_i_6473_29973)">
<path d="M463.404 224.174C473.094 218.906 490.625 213.867 500.888 208.713C506.406 205.942 514.017 184.468 493.621 194.741C489.228 196.954 469.863 207.682 461.443 213.866C458.126 216.303 461.443 225.239 463.404 224.174Z" fill="#34835A"/>
</g>
<g filter="url(#filter10_i_6473_29973)">
<path fill-rule="evenodd" clip-rule="evenodd" d="M529.377 193.137C529.377 193.137 519.412 189.273 512.653 189.506C505.677 189.747 500.868 190.456 495.814 195.461C490.083 201.137 493.969 230.014 493.969 230.014L494 230.018L493.969 230.014C493.969 230.014 492.677 256.351 493.854 257.843C498.006 263.111 534.106 252.003 534.106 252.003V235.723L534.221 235.74L529.377 193.137Z" fill="#34835A"/>
</g>
<path d="M506.54 190.846L519.897 190.651C519.897 190.651 519.656 185.901 519.918 182.75C520.229 179.021 521.648 173.324 521.648 173.324L506.54 175.844V190.846Z" fill="#F39C89"/>
<path d="M512.632 196.836C516.448 197.123 519.898 190.652 519.898 190.652L513.324 186.529L506.404 190.652C506.404 190.652 509.203 196.578 512.632 196.836Z" fill="#F39C89"/>
<g filter="url(#filter11_i_6473_29973)">
<path d="M505.836 184.812C519.489 191.139 523.496 170.941 523.496 170.941L522.547 162.066H515.425L502.844 160.728C502.844 160.728 500.646 182.407 505.836 184.812Z" fill="#FFC4B7"/>
</g>
<path d="M532.196 179.503C536.893 176.254 532.659 170.285 527.698 173.07C528.799 156.895 526.891 151.496 516.253 152.38C509.043 143.759 495.614 154.369 497.995 173.07C490.586 170.484 487.966 175.919 493.365 182.089C488.535 187.13 493.828 194.491 499.848 189.649C501.898 197.21 508.05 195.817 509.44 183.018C501.396 176.803 501.135 171.605 504.148 160.934C503.672 163.713 503.586 165.17 504.148 167.367C510.468 165.632 514.063 165.333 520.619 166.704C521.385 165.525 521.513 164.42 521.479 162.062C523.133 169.622 523.27 177.907 516.253 183.018C515.724 194.159 524.588 198.337 526.97 188.323C535.107 194.225 540.862 182.089 532.196 179.503Z" fill="#752A00"/>
<g filter="url(#filter12_i_6473_29973)">
<path d="M424.999 217.073C432.727 216.043 461.561 214.096 461.561 214.096C462.096 217.955 465.353 222.604 462.931 223.979C460.509 225.353 436.648 223.716 424.999 222.914C422.708 222.756 422.723 217.377 424.999 217.073Z" fill="#34835A"/>
</g>
<path d="M425.701 223.468C426.237 222.64 427.508 222.999 427.808 222.06C428.309 220.497 427.59 218.357 425.776 217.952C424.149 217.59 422.843 215.946 421.787 216.074C418.555 216.469 412.816 217.083 413.129 218.118C413.46 219.212 414.796 219.41 416.235 219.271C411.95 220.333 405.827 221.879 405.2 222.189C404.514 222.528 405.263 223.921 405.974 223.759C407.011 223.523 414.221 222.365 414.221 222.365C414.221 222.365 406.023 224.454 404.934 224.924C404.397 225.156 404.793 226.412 405.374 226.347C407.6 226.101 414.584 224.586 414.584 224.586C414.584 224.586 407.589 226.215 406.778 227.403C406.393 227.967 406.645 228.771 407.356 228.609C408.885 228.261 416.369 226.484 416.369 226.484C416.369 226.484 411.922 228.127 410.592 228.69C410.095 228.9 410.227 229.573 410.459 230.058C410.748 230.661 415.788 229.054 418.921 227.649C421.761 226.375 423.109 227.476 425.701 223.468Z" fill="#FFC4B7"/>
<g filter="url(#filter13_i_6473_29973)">
<path fill-rule="evenodd" clip-rule="evenodd" d="M541.989 216.701C544.158 223.542 546.273 230.215 547.926 233.943C547.992 234.093 548.006 234.244 547.974 234.394C548.038 234.686 548.026 234.994 547.925 235.317C545.926 241.68 540.355 253.508 535.849 263.074C532.812 269.521 530.259 274.941 529.609 276.969C528.942 279.051 525.378 274.989 525.803 272.846C526.551 269.074 528.248 263.189 530.233 256.305C532.203 249.471 534.458 241.651 536.352 233.932C533.861 228.466 526.818 213.736 520.486 202.256C518.406 198.484 522.682 193.258 525.886 192.058C529.089 190.859 532.39 192.45 534.155 195.263C536.255 198.611 539.167 207.798 541.989 216.701Z" fill="#34835A"/>
</g>
<path d="M517.843 289.223C519.227 288.651 521.868 287.08 523.379 284.757C524.178 283.528 525.997 280.37 524.879 281.321C524.071 282.008 519.804 286.016 517.843 286.933C517.028 287.314 517.012 289.567 517.843 289.223Z" fill="#FFC4B7"/>
<path d="M528.453 268.608C530.309 268.352 532.556 269.504 532.374 271.357C531.914 276.052 527.877 279.89 524.877 285.329C522.477 289.681 517.26 290.631 517.714 290.166C524.98 282.722 525.395 276.423 523.826 276.423C521.635 276.423 523.263 277.77 519.572 280.061C518.205 280.909 519.079 278.153 520.495 276.396C521.879 274.678 524.301 269.181 528.453 268.608Z" fill="#FFC4B7"/>
<g filter="url(#filter14_d_6473_29973)">
<circle cx="471" cy="46" r="26" fill="#4E26DE"/>
</g>
<path fill-rule="evenodd" clip-rule="evenodd" d="M475.928 48.3534L485.207 52.607C486.357 53.1344 487.169 54.0196 487.608 55.035C488.717 57.6064 487.201 60.2361 484.822 61.182C482.442 62.1273 479.906 61.5189 478.753 58.8449L474.715 49.457C474.402 48.7293 475.188 48.0142 475.928 48.3534Z" fill="#FFC233"/>
<path fill-rule="evenodd" clip-rule="evenodd" d="M476.981 45.5221L486.378 41.9241C489.501 40.7283 492.912 42.9909 492.866 46.2783C492.865 46.3213 492.865 46.3641 492.864 46.4075C492.796 49.6088 489.48 51.7605 486.425 50.6279L476.99 47.1299C476.237 46.851 476.232 45.809 476.981 45.5221Z" fill="#FFC233"/>
<path fill-rule="evenodd" clip-rule="evenodd" d="M475.961 43.7472L485.817 39.8041C489.092 38.4937 489.923 34.5606 487.358 32.2881C487.324 32.2582 487.291 32.2286 487.257 32.1991C484.742 30.0012 480.585 30.7751 479.153 33.67L474.73 42.6139C474.377 43.3271 475.175 44.0616 475.961 43.7472Z" fill="#FFC233"/>
<path fill-rule="evenodd" clip-rule="evenodd" d="M473.916 42.7905L477.465 33.2599C477.905 32.0782 477.823 30.8731 477.368 29.8333C476.217 27.2012 473.097 26.3516 470.631 27.3216C468.165 28.2919 466.772 30.4956 467.97 33.2328L472.184 42.8357C472.51 43.5799 473.633 43.5506 473.916 42.7905Z" fill="#FFC233"/>
<g filter="url(#filter15_d_6473_29973)">
<circle cx="523.5" cy="45.5" r="19.5" fill="#2B74E7"/>
</g>
<path fill-rule="evenodd" clip-rule="evenodd" d="M516 53.23V38H531.168L516 53.23Z" fill="white"/>
<path fill-rule="evenodd" clip-rule="evenodd" d="M519.033 53.2296L525.101 47.1377L531.169 53.2296H519.033Z" fill="white"/>
<g filter="url(#filter16_d_6473_29973)">
<circle cx="413" cy="46" r="25" fill="#F096E3"/>
</g>
<path d="M411.407 57C405.484 57 402 52.2021 402 46.234C402 40.0319 405.833 35 413.15 35C420.699 35 423.254 40.1489 423.37 43.0744H417.911C417.795 41.4362 416.401 38.9787 413.033 38.9787C409.433 38.9787 407.11 42.1383 407.11 46C407.11 49.8617 409.433 53.0212 413.033 53.0212C416.285 53.0212 417.679 50.4468 418.26 47.8723H413.033V45.7659H424V56.5319H419.189V49.7447C418.84 52.2021 417.331 57 411.407 57Z" fill="black"/>
<g filter="url(#filter17_d_6473_29973)">
<circle cx="407.5" cy="113.5" r="19.5" fill="#FFDD35"/>
</g>
<path d="M403.047 105.05H408.757C410.083 105.05 411.167 105.289 412.008 105.768C412.856 106.241 413.483 106.882 413.89 107.69C414.297 108.499 414.5 109.401 414.5 110.397C414.5 111.393 414.297 112.298 413.89 113.112C413.488 113.926 412.867 114.575 412.025 115.059C411.183 115.538 410.105 115.777 408.79 115.777H405.093V121.95H403.047V113.962H405.093H408.724C409.632 113.962 410.361 113.805 410.911 113.492C411.461 113.178 411.86 112.754 412.107 112.221C412.36 111.682 412.487 111.074 412.487 110.397C412.487 109.72 412.36 109.115 412.107 108.582C411.86 108.048 411.458 107.63 410.903 107.327C410.347 107.019 409.61 106.865 408.691 106.865H405.093H403.047V105.05Z" fill="#040F0F"/>
<path d="M403.905 107.374C403.905 107.374 404.065 108.87 404.689 109.494C405.313 110.118 406.809 110.279 406.809 110.279C406.809 110.279 405.313 110.439 404.689 111.063C404.065 111.688 403.905 113.183 403.905 113.183C403.905 113.183 403.744 111.688 403.12 111.063C402.496 110.439 401 110.279 401 110.279C401 110.279 402.496 110.118 403.12 109.494C403.744 108.87 403.905 107.374 403.905 107.374Z" fill="#040F0F"/>
<g filter="url(#filter18_d_6473_29973)">
<circle cx="536.5" cy="110.5" r="25.5" fill="#625BF6"/>
</g>
<path fill-rule="evenodd" clip-rule="evenodd" d="M535.081 105.344C535.081 104.251 535.977 103.831 537.46 103.831C539.587 103.831 542.274 104.475 544.401 105.624V99.039C542.078 98.1143 539.783 97.75 537.46 97.75C531.778 97.75 528 100.72 528 105.68C528 113.414 538.636 112.181 538.636 115.516C538.636 116.805 537.516 117.225 535.949 117.225C533.626 117.225 530.659 116.273 528.308 114.984V121.653C530.911 122.774 533.542 123.25 535.949 123.25C541.77 123.25 545.773 120.364 545.773 115.348C545.745 106.997 535.081 108.482 535.081 105.344Z" fill="white"/>
<defs>
<filter id="filter0_d_6473_29973" x="120.562" y="71.9331" width="368.768" height="238.914" filterUnits="userSpaceOnUse" color-interpolation-filters="sRGB">
<feFlood flood-opacity="0" result="BackgroundImageFix"/>
<feColorMatrix in="SourceAlpha" type="matrix" values="0 0 0 0 0 0 0 0 0 0 0 0 0 0 0 0 0 0 127 0" result="hardAlpha"/>
<feOffset dy="4"/>
<feGaussianBlur stdDeviation="6"/>
<feColorMatrix type="matrix" values="0 0 0 0 0 0 0 0 0 0 0 0 0 0 0 0 0 0 0.1 0"/>
<feBlend mode="normal" in2="BackgroundImageFix" result="effect1_dropShadow_6473_29973"/>
<feBlend mode="normal" in="SourceGraphic" in2="effect1_dropShadow_6473_29973" result="shape"/>
</filter>
<filter id="filter1_d_6473_29973" x="281.297" y="87.2642" width="288.674" height="210.307" filterUnits="userSpaceOnUse" color-interpolation-filters="sRGB">
<feFlood flood-opacity="0" result="BackgroundImageFix"/>
<feColorMatrix in="SourceAlpha" type="matrix" values="0 0 0 0 0 0 0 0 0 0 0 0 0 0 0 0 0 0 127 0" result="hardAlpha"/>
<feOffset dy="-6"/>
<feGaussianBlur stdDeviation="4"/>
<feComposite in2="hardAlpha" operator="out"/>
<feColorMatrix type="matrix" values="0 0 0 0 0 0 0 0 0 0 0 0 0 0 0 0 0 0 0.06 0"/>
<feBlend mode="normal" in2="BackgroundImageFix" result="effect1_dropShadow_6473_29973"/>
<feBlend mode="normal" in="SourceGraphic" in2="effect1_dropShadow_6473_29973" result="shape"/>
</filter>
<filter id="filter2_d_6473_29973" x="120.562" y="38.3691" width="368.768" height="48.8711" filterUnits="userSpaceOnUse" color-interpolation-filters="sRGB">
<feFlood flood-opacity="0" result="BackgroundImageFix"/>
<feColorMatrix in="SourceAlpha" type="matrix" values="0 0 0 0 0 0 0 0 0 0 0 0 0 0 0 0 0 0 127 0" result="hardAlpha"/>
<feOffset dy="4"/>
<feGaussianBlur stdDeviation="6"/>
<feColorMatrix type="matrix" values="0 0 0 0 0 0 0 0 0 0 0 0 0 0 0 0 0 0 0.1 0"/>
<feBlend mode="normal" in2="BackgroundImageFix" result="effect1_dropShadow_6473_29973"/>
<feBlend mode="normal" in="SourceGraphic" in2="effect1_dropShadow_6473_29973" result="shape"/>
</filter>
<filter id="filter3_d_6473_29973" x="122.033" y="158.072" width="156.125" height="123.876" filterUnits="userSpaceOnUse" color-interpolation-filters="sRGB">
<feFlood flood-opacity="0" result="BackgroundImageFix"/>
<feColorMatrix in="SourceAlpha" type="matrix" values="0 0 0 0 0 0 0 0 0 0 0 0 0 0 0 0 0 0 127 0" result="hardAlpha"/>
<feOffset dy="4"/>
<feGaussianBlur stdDeviation="16"/>
<feColorMatrix type="matrix" values="0 0 0 0 0 0 0 0 0 0 0 0 0 0 0 0 0 0 0.08 0"/>
<feBlend mode="normal" in2="BackgroundImageFix" result="effect1_dropShadow_6473_29973"/>
<feBlend mode="normal" in="SourceGraphic" in2="effect1_dropShadow_6473_29973" result="shape"/>
</filter>
<filter id="filter4_i_6473_29973" x="46.4312" y="193.605" width="52.0437" height="82.2319" filterUnits="userSpaceOnUse" color-interpolation-filters="sRGB">
<feFlood flood-opacity="0" result="BackgroundImageFix"/>
<feBlend mode="normal" in="SourceGraphic" in2="BackgroundImageFix" result="shape"/>
<feColorMatrix in="SourceAlpha" type="matrix" values="0 0 0 0 0 0 0 0 0 0 0 0 0 0 0 0 0 0 127 0" result="hardAlpha"/>
<feOffset dx="1" dy="4"/>
<feGaussianBlur stdDeviation="2"/>
<feComposite in2="hardAlpha" operator="arithmetic" k2="-1" k3="1"/>
<feColorMatrix type="matrix" values="0 0 0 0 0 0 0 0 0 0 0 0 0 0 0 0 0 0 0.08 0"/>
<feBlend mode="normal" in2="shape" result="effect1_innerShadow_6473_29973"/>
</filter>
<filter id="filter5_i_6473_29973" x="85.2399" y="230.45" width="41.9924" height="17.6577" filterUnits="userSpaceOnUse" color-interpolation-filters="sRGB">
<feFlood flood-opacity="0" result="BackgroundImageFix"/>
<feBlend mode="normal" in="SourceGraphic" in2="BackgroundImageFix" result="shape"/>
<feColorMatrix in="SourceAlpha" type="matrix" values="0 0 0 0 0 0 0 0 0 0 0 0 0 0 0 0 0 0 127 0" result="hardAlpha"/>
<feOffset dy="4"/>
<feGaussianBlur stdDeviation="2"/>
<feComposite in2="hardAlpha" operator="arithmetic" k2="-1" k3="1"/>
<feColorMatrix type="matrix" values="0 0 0 0 0 0 0 0 0 0 0 0 0 0 0 0 0 0 0.04 0"/>
<feBlend mode="normal" in2="shape" result="effect1_innerShadow_6473_29973"/>
</filter>
<filter id="filter6_i_6473_29973" x="60.3289" y="198.367" width="33.8279" height="45.4351" filterUnits="userSpaceOnUse" color-interpolation-filters="sRGB">
<feFlood flood-opacity="0" result="BackgroundImageFix"/>
<feBlend mode="normal" in="SourceGraphic" in2="BackgroundImageFix" result="shape"/>
<feColorMatrix in="SourceAlpha" type="matrix" values="0 0 0 0 0 0 0 0 0 0 0 0 0 0 0 0 0 0 127 0" result="hardAlpha"/>
<feOffset dy="4"/>
<feGaussianBlur stdDeviation="2"/>
<feComposite in2="hardAlpha" operator="arithmetic" k2="-1" k3="1"/>
<feColorMatrix type="matrix" values="0 0 0 0 0 0 0 0 0 0 0 0 0 0 0 0 0 0 0.04 0"/>
<feBlend mode="normal" in2="shape" result="effect1_innerShadow_6473_29973"/>
</filter>
<filter id="filter7_i_6473_29973" x="124.714" y="191.204" width="29.4119" height="37.6079" filterUnits="userSpaceOnUse" color-interpolation-filters="sRGB">
<feFlood flood-opacity="0" result="BackgroundImageFix"/>
<feBlend mode="normal" in="SourceGraphic" in2="BackgroundImageFix" result="shape"/>
<feColorMatrix in="SourceAlpha" type="matrix" values="0 0 0 0 0 0 0 0 0 0 0 0 0 0 0 0 0 0 127 0" result="hardAlpha"/>
<feOffset dy="4"/>
<feGaussianBlur stdDeviation="2"/>
<feComposite in2="hardAlpha" operator="arithmetic" k2="-1" k3="1"/>
<feColorMatrix type="matrix" values="0 0 0 0 0 0 0 0 0 0 0 0 0 0 0 0 0 0 0.04 0"/>
<feBlend mode="normal" in2="shape" result="effect1_innerShadow_6473_29973"/>
</filter>
<filter id="filter8_i_6473_29973" x="88.9208" y="202.885" width="44.9913" height="25.6675" filterUnits="userSpaceOnUse" color-interpolation-filters="sRGB">
<feFlood flood-opacity="0" result="BackgroundImageFix"/>
<feBlend mode="normal" in="SourceGraphic" in2="BackgroundImageFix" result="shape"/>
<feColorMatrix in="SourceAlpha" type="matrix" values="0 0 0 0 0 0 0 0 0 0 0 0 0 0 0 0 0 0 127 0" result="hardAlpha"/>
<feOffset dy="4"/>
<feGaussianBlur stdDeviation="2"/>
<feComposite in2="hardAlpha" operator="arithmetic" k2="-1" k3="1"/>
<feColorMatrix type="matrix" values="0 0 0 0 0 0 0 0 0 0 0 0 0 0 0 0 0 0 0.04 0"/>
<feBlend mode="normal" in2="shape" result="effect1_innerShadow_6473_29973"/>
</filter>
<filter id="filter9_i_6473_29973" x="460.033" y="191.978" width="46.9398" height="36.2837" filterUnits="userSpaceOnUse" color-interpolation-filters="sRGB">
<feFlood flood-opacity="0" result="BackgroundImageFix"/>
<feBlend mode="normal" in="SourceGraphic" in2="BackgroundImageFix" result="shape"/>
<feColorMatrix in="SourceAlpha" type="matrix" values="0 0 0 0 0 0 0 0 0 0 0 0 0 0 0 0 0 0 127 0" result="hardAlpha"/>
<feOffset dy="4"/>
<feGaussianBlur stdDeviation="2"/>
<feComposite in2="hardAlpha" operator="arithmetic" k2="-1" k3="1"/>
<feColorMatrix type="matrix" values="0 0 0 0 0 0 0 0 0 0 0 0 0 0 0 0 0 0 0.08 0"/>
<feBlend mode="normal" in2="shape" result="effect1_innerShadow_6473_29973"/>
</filter>
<filter id="filter10_i_6473_29973" x="490.682" y="189.496" width="43.5391" height="73.7651" filterUnits="userSpaceOnUse" color-interpolation-filters="sRGB">
<feFlood flood-opacity="0" result="BackgroundImageFix"/>
<feBlend mode="normal" in="SourceGraphic" in2="BackgroundImageFix" result="shape"/>
<feColorMatrix in="SourceAlpha" type="matrix" values="0 0 0 0 0 0 0 0 0 0 0 0 0 0 0 0 0 0 127 0" result="hardAlpha"/>
<feOffset dx="-2" dy="4"/>
<feGaussianBlur stdDeviation="2"/>
<feComposite in2="hardAlpha" operator="arithmetic" k2="-1" k3="1"/>
<feColorMatrix type="matrix" values="0 0 0 0 0 0 0 0 0 0 0 0 0 0 0 0 0 0 0.08 0"/>
<feBlend mode="normal" in2="shape" result="effect1_innerShadow_6473_29973"/>
</filter>
<filter id="filter11_i_6473_29973" x="502.382" y="160.728" width="21.1145" height="29.311" filterUnits="userSpaceOnUse" color-interpolation-filters="sRGB">
<feFlood flood-opacity="0" result="BackgroundImageFix"/>
<feBlend mode="normal" in="SourceGraphic" in2="BackgroundImageFix" result="shape"/>
<feColorMatrix in="SourceAlpha" type="matrix" values="0 0 0 0 0 0 0 0 0 0 0 0 0 0 0 0 0 0 127 0" result="hardAlpha"/>
<feOffset dy="4"/>
<feGaussianBlur stdDeviation="2"/>
<feComposite in2="hardAlpha" operator="arithmetic" k2="-1" k3="1"/>
<feColorMatrix type="matrix" values="0 0 0 0 0 0 0 0 0 0 0 0 0 0 0 0 0 0 0.25 0"/>
<feBlend mode="normal" in2="shape" result="effect1_innerShadow_6473_29973"/>
</filter>
<filter id="filter12_i_6473_29973" x="423.286" y="214.096" width="40.5302" height="14.4136" filterUnits="userSpaceOnUse" color-interpolation-filters="sRGB">
<feFlood flood-opacity="0" result="BackgroundImageFix"/>
<feBlend mode="normal" in="SourceGraphic" in2="BackgroundImageFix" result="shape"/>
<feColorMatrix in="SourceAlpha" type="matrix" values="0 0 0 0 0 0 0 0 0 0 0 0 0 0 0 0 0 0 127 0" result="hardAlpha"/>
<feOffset dy="4"/>
<feGaussianBlur stdDeviation="2"/>
<feComposite in2="hardAlpha" operator="arithmetic" k2="-1" k3="1"/>
<feColorMatrix type="matrix" values="0 0 0 0 0 0 0 0 0 0 0 0 0 0 0 0 0 0 0.08 0"/>
<feBlend mode="normal" in2="shape" result="effect1_innerShadow_6473_29973"/>
</filter>
<filter id="filter13_i_6473_29973" x="519.937" y="191.655" width="28.0767" height="89.8911" filterUnits="userSpaceOnUse" color-interpolation-filters="sRGB">
<feFlood flood-opacity="0" result="BackgroundImageFix"/>
<feBlend mode="normal" in="SourceGraphic" in2="BackgroundImageFix" result="shape"/>
<feColorMatrix in="SourceAlpha" type="matrix" values="0 0 0 0 0 0 0 0 0 0 0 0 0 0 0 0 0 0 127 0" result="hardAlpha"/>
<feOffset dy="4"/>
<feGaussianBlur stdDeviation="2"/>
<feComposite in2="hardAlpha" operator="arithmetic" k2="-1" k3="1"/>
<feColorMatrix type="matrix" values="0 0 0 0 0 0 0 0 0 0 0 0 0 0 0 0 0 0 0.08 0"/>
<feBlend mode="normal" in2="shape" result="effect1_innerShadow_6473_29973"/>
</filter>
<filter id="filter14_d_6473_29973" x="421" y="0" width="100" height="100" filterUnits="userSpaceOnUse" color-interpolation-filters="sRGB">
<feFlood flood-opacity="0" result="BackgroundImageFix"/>
<feColorMatrix in="SourceAlpha" type="matrix" values="0 0 0 0 0 0 0 0 0 0 0 0 0 0 0 0 0 0 127 0" result="hardAlpha"/>
<feOffset dy="4"/>
<feGaussianBlur stdDeviation="12"/>
<feColorMatrix type="matrix" values="0 0 0 0 0 0 0 0 0 0 0 0 0 0 0 0 0 0 0.1 0"/>
<feBlend mode="normal" in2="BackgroundImageFix" result="effect1_dropShadow_6473_29973"/>
<feBlend mode="normal" in="SourceGraphic" in2="effect1_dropShadow_6473_29973" result="shape"/>
</filter>
<filter id="filter15_d_6473_29973" x="480" y="6" width="87" height="87" filterUnits="userSpaceOnUse" color-interpolation-filters="sRGB">
<feFlood flood-opacity="0" result="BackgroundImageFix"/>
<feColorMatrix in="SourceAlpha" type="matrix" values="0 0 0 0 0 0 0 0 0 0 0 0 0 0 0 0 0 0 127 0" result="hardAlpha"/>
<feOffset dy="4"/>
<feGaussianBlur stdDeviation="12"/>
<feColorMatrix type="matrix" values="0 0 0 0 0 0 0 0 0 0 0 0 0 0 0 0 0 0 0.1 0"/>
<feBlend mode="normal" in2="BackgroundImageFix" result="effect1_dropShadow_6473_29973"/>
<feBlend mode="normal" in="SourceGraphic" in2="effect1_dropShadow_6473_29973" result="shape"/>
</filter>
<filter id="filter16_d_6473_29973" x="364" y="1" width="98" height="98" filterUnits="userSpaceOnUse" color-interpolation-filters="sRGB">
<feFlood flood-opacity="0" result="BackgroundImageFix"/>
<feColorMatrix in="SourceAlpha" type="matrix" values="0 0 0 0 0 0 0 0 0 0 0 0 0 0 0 0 0 0 127 0" result="hardAlpha"/>
<feOffset dy="4"/>
<feGaussianBlur stdDeviation="12"/>
<feColorMatrix type="matrix" values="0 0 0 0 0 0 0 0 0 0 0 0 0 0 0 0 0 0 0.1 0"/>
<feBlend mode="normal" in2="BackgroundImageFix" result="effect1_dropShadow_6473_29973"/>
<feBlend mode="normal" in="SourceGraphic" in2="effect1_dropShadow_6473_29973" result="shape"/>
</filter>
<filter id="filter17_d_6473_29973" x="364" y="74" width="87" height="87" filterUnits="userSpaceOnUse" color-interpolation-filters="sRGB">
<feFlood flood-opacity="0" result="BackgroundImageFix"/>
<feColorMatrix in="SourceAlpha" type="matrix" values="0 0 0 0 0 0 0 0 0 0 0 0 0 0 0 0 0 0 127 0" result="hardAlpha"/>
<feOffset dy="4"/>
<feGaussianBlur stdDeviation="12"/>
<feColorMatrix type="matrix" values="0 0 0 0 0 0 0 0 0 0 0 0 0 0 0 0 0 0 0.1 0"/>
<feBlend mode="normal" in2="BackgroundImageFix" result="effect1_dropShadow_6473_29973"/>
<feBlend mode="normal" in="SourceGraphic" in2="effect1_dropShadow_6473_29973" result="shape"/>
</filter>
<filter id="filter18_d_6473_29973" x="487" y="65" width="99" height="99" filterUnits="userSpaceOnUse" color-interpolation-filters="sRGB">
<feFlood flood-opacity="0" result="BackgroundImageFix"/>
<feColorMatrix in="SourceAlpha" type="matrix" values="0 0 0 0 0 0 0 0 0 0 0 0 0 0 0 0 0 0 127 0" result="hardAlpha"/>
<feOffset dy="4"/>
<feGaussianBlur stdDeviation="12"/>
<feColorMatrix type="matrix" values="0 0 0 0 0 0 0 0 0 0 0 0 0 0 0 0 0 0 0.1 0"/>
<feBlend mode="normal" in2="BackgroundImageFix" result="effect1_dropShadow_6473_29973"/>
<feBlend mode="normal" in="SourceGraphic" in2="effect1_dropShadow_6473_29973" result="shape"/>
</filter>
</defs>
</svg>
