<svg width="428" height="218" viewBox="0 0 428 218" fill="none" xmlns="http://www.w3.org/2000/svg">
<g filter="url(#filter0_i_2295_12914)">
<rect x="290" y="21" width="120" height="40" rx="4" fill="white"/>
</g>
<path d="M409.499 37.9988C408.077 37.9988 406.656 37.4586 405.57 36.38L404.219 35.0295C403.696 34.5078 402.994 34.2191 402.251 34.2173H400.351C397.28 34.2173 394.78 31.7179 394.78 28.6467V26.7449C394.778 26.003 394.49 25.3018 393.966 24.7745L392.638 23.448C390.462 21.2853 390.453 17.7498 392.617 15.5723L393.968 14.2199C394.49 13.6963 394.778 12.9952 394.78 12.2514V10.3533C394.78 7.28031 397.28 4.78087 400.351 4.78087H402.253C402.994 4.78087 403.694 4.49226 404.221 3.96499L405.551 2.63849C407.714 0.462808 411.248 0.451708 413.427 2.61814L414.778 3.96869C415.303 4.49226 416.002 4.78087 416.744 4.78087H418.646C421.717 4.78087 424.217 7.28031 424.217 10.3533V12.2533C424.218 12.9952 424.507 13.6963 425.031 14.2236L426.359 15.552C427.412 16.5991 427.994 17.994 428 19.4834C428.004 20.9634 427.434 22.3565 426.396 23.4092C426.377 23.4277 426.361 23.448 426.342 23.4647L425.029 24.7782C424.507 25.3018 424.218 26.003 424.217 26.7467V28.6467C424.217 31.7179 421.717 34.2173 418.646 34.2173H416.744C416.002 34.2191 415.301 34.5078 414.776 35.0313L413.446 36.3597C412.361 37.4512 410.929 37.9988 409.499 37.9988Z" fill="#EEAB00"/>
<path fill-rule="evenodd" clip-rule="evenodd" d="M405.881 15.8953C405.576 16.2006 405.18 16.3652 404.742 16.3652C404.331 16.3652 403.928 16.1969 403.604 15.8934C403.297 15.5882 403.123 15.1701 403.123 14.7464C403.123 14.3431 403.293 13.9287 403.593 13.6086C403.758 13.4421 403.954 13.3163 404.15 13.2497C404.709 12.9944 405.45 13.1442 405.891 13.6068C406.048 13.764 406.168 13.9361 406.248 14.1155C406.335 14.3079 406.379 14.5262 406.379 14.7464C406.379 15.1867 406.203 15.5956 405.881 15.8953ZM415.407 13.5993C414.776 12.9703 413.749 12.9703 413.118 13.5993L403.609 23.1086C402.978 23.7395 402.978 24.7663 403.609 25.399C403.916 25.7043 404.321 25.8726 404.754 25.8726C405.187 25.8726 405.592 25.7043 405.897 25.399L415.407 15.8897C416.038 15.257 416.038 14.232 415.407 13.5993ZM414.879 22.7649C414.279 22.5133 413.569 22.6502 413.095 23.1238C412.997 23.2385 412.859 23.4161 412.764 23.6252C412.664 23.8509 412.651 24.0932 412.651 24.256C412.651 24.4188 412.664 24.6593 412.764 24.8851C412.857 25.0923 412.968 25.2606 413.114 25.4068C413.449 25.7176 413.837 25.8748 414.27 25.8748C414.681 25.8748 415.084 25.7083 415.415 25.3994C415.71 25.1052 415.87 24.6982 415.87 24.256C415.87 23.812 415.71 23.4069 415.414 23.1108C415.251 22.9499 415.055 22.8241 414.879 22.7649Z" fill="white"/>
<path d="M323.6 46.7196V47.9996H313.78V46.9796L319.6 41.2796C320.334 40.5596 320.827 39.9396 321.08 39.4196C321.347 38.8862 321.48 38.3529 321.48 37.8196C321.48 36.9929 321.194 36.3529 320.62 35.8996C320.06 35.4329 319.254 35.1996 318.2 35.1996C316.56 35.1996 315.287 35.7196 314.38 36.7596L313.36 35.8796C313.907 35.2396 314.6 34.7462 315.44 34.3996C316.294 34.0529 317.254 33.8796 318.32 33.8796C319.747 33.8796 320.874 34.2196 321.7 34.8996C322.54 35.5662 322.96 36.4862 322.96 37.6596C322.96 38.3796 322.8 39.0729 322.48 39.7396C322.16 40.4062 321.554 41.1729 320.66 42.0396L315.9 46.7196H323.6Z" fill="#38386C"/>
<path d="M329.088 39.7396C331.114 39.7396 332.588 40.1062 333.508 40.8396C334.441 41.5596 334.908 42.5729 334.908 43.8796C334.908 44.6929 334.714 45.4196 334.328 46.0596C333.954 46.6996 333.388 47.2062 332.628 47.5796C331.868 47.9396 330.934 48.1196 329.828 48.1196C328.828 48.1196 327.874 47.9596 326.968 47.6396C326.074 47.3062 325.354 46.8662 324.808 46.3196L325.508 45.1796C325.974 45.6596 326.588 46.0529 327.348 46.3596C328.108 46.6529 328.928 46.7996 329.808 46.7996C330.968 46.7996 331.861 46.5396 332.488 46.0196C333.128 45.4996 333.448 44.8062 333.448 43.9396C333.448 42.9796 333.088 42.2529 332.368 41.7596C331.661 41.2662 330.461 41.0196 328.768 41.0196H325.788L326.508 33.9996H334.168V35.2796H327.768L327.288 39.7396H329.088Z" fill="#38386C"/>
<path d="M339.5 41.4996C338.554 41.4996 337.787 41.1529 337.2 40.4596C336.627 39.7529 336.34 38.8329 336.34 37.6996C336.34 36.5662 336.627 35.6529 337.2 34.9596C337.787 34.2529 338.554 33.8996 339.5 33.8996C340.434 33.8996 341.194 34.2462 341.78 34.9396C342.367 35.6329 342.66 36.5529 342.66 37.6996C342.66 38.8462 342.367 39.7662 341.78 40.4596C341.194 41.1529 340.434 41.4996 339.5 41.4996ZM347.98 33.9996H349.16L339.6 47.9996H338.42L347.98 33.9996ZM339.5 40.5996C340.154 40.5996 340.674 40.3462 341.06 39.8396C341.46 39.3196 341.66 38.6062 341.66 37.6996C341.66 36.7929 341.46 36.0862 341.06 35.5796C340.674 35.0596 340.154 34.7996 339.5 34.7996C338.834 34.7996 338.307 35.0596 337.92 35.5796C337.534 36.0996 337.34 36.8062 337.34 37.6996C337.34 38.5929 337.534 39.2996 337.92 39.8196C338.307 40.3396 338.834 40.5996 339.5 40.5996ZM348.08 48.0996C347.147 48.0996 346.387 47.7529 345.8 47.0596C345.214 46.3529 344.92 45.4329 344.92 44.2996C344.92 43.1662 345.214 42.2529 345.8 41.5596C346.387 40.8529 347.147 40.4996 348.08 40.4996C349.027 40.4996 349.787 40.8529 350.36 41.5596C350.947 42.2529 351.24 43.1662 351.24 44.2996C351.24 45.4329 350.947 46.3529 350.36 47.0596C349.787 47.7529 349.027 48.0996 348.08 48.0996ZM348.08 47.1996C348.747 47.1996 349.274 46.9396 349.66 46.4196C350.047 45.8996 350.24 45.1929 350.24 44.2996C350.24 43.4062 350.047 42.6996 349.66 42.1796C349.274 41.6596 348.747 41.3996 348.08 41.3996C347.427 41.3996 346.9 41.6596 346.5 42.1796C346.114 42.6862 345.92 43.3929 345.92 44.2996C345.92 45.2062 346.114 45.9196 346.5 46.4396C346.9 46.9462 347.427 47.1996 348.08 47.1996Z" fill="#38386C"/>
<path d="M363.597 48.0996C362.583 48.0996 361.67 47.8729 360.857 47.4196C360.043 46.9529 359.403 46.3129 358.937 45.4996C358.47 44.6862 358.237 43.7662 358.237 42.7396C358.237 41.7129 358.47 40.7929 358.937 39.9796C359.403 39.1662 360.043 38.5329 360.857 38.0796C361.67 37.6262 362.583 37.3996 363.597 37.3996C364.61 37.3996 365.523 37.6262 366.337 38.0796C367.15 38.5329 367.783 39.1662 368.237 39.9796C368.703 40.7929 368.937 41.7129 368.937 42.7396C368.937 43.7662 368.703 44.6862 368.237 45.4996C367.783 46.3129 367.15 46.9529 366.337 47.4196C365.523 47.8729 364.61 48.0996 363.597 48.0996ZM363.597 46.8396C364.343 46.8396 365.01 46.6729 365.597 46.3396C366.197 45.9929 366.663 45.5062 366.997 44.8796C367.33 44.2529 367.497 43.5396 367.497 42.7396C367.497 41.9396 367.33 41.2262 366.997 40.5996C366.663 39.9729 366.197 39.4929 365.597 39.1596C365.01 38.8129 364.343 38.6396 363.597 38.6396C362.85 38.6396 362.177 38.8129 361.577 39.1596C360.99 39.4929 360.523 39.9729 360.177 40.5996C359.843 41.2262 359.677 41.9396 359.677 42.7396C359.677 43.5396 359.843 44.2529 360.177 44.8796C360.523 45.5062 360.99 45.9929 361.577 46.3396C362.177 46.6729 362.85 46.8396 363.597 46.8396Z" fill="#38386C"/>
<path d="M375.316 34.2596C374.702 34.2596 374.236 34.4262 373.916 34.7596C373.609 35.0929 373.456 35.5862 373.456 36.2396V37.4796H376.696V38.6796H373.496V47.9996H372.076V38.6796H370.196V37.4796H372.076V36.1796C372.076 35.2196 372.349 34.4596 372.896 33.8996C373.456 33.3396 374.242 33.0596 375.256 33.0596C375.656 33.0596 376.042 33.1196 376.416 33.2396C376.789 33.3462 377.102 33.5062 377.356 33.7196L376.876 34.7796C376.462 34.4329 375.942 34.2596 375.316 34.2596Z" fill="#38386C"/>
<path d="M382.093 34.2596C381.48 34.2596 381.013 34.4262 380.693 34.7596C380.386 35.0929 380.233 35.5862 380.233 36.2396V37.4796H383.473V38.6796H380.273V47.9996H378.853V38.6796H376.973V37.4796H378.853V36.1796C378.853 35.2196 379.126 34.4596 379.673 33.8996C380.233 33.3396 381.02 33.0596 382.033 33.0596C382.433 33.0596 382.82 33.1196 383.193 33.2396C383.566 33.3462 383.88 33.5062 384.133 33.7196L383.653 34.7796C383.24 34.4329 382.72 34.2596 382.093 34.2596Z" fill="#38386C"/>
<g filter="url(#filter1_i_2295_12914)">
<rect x="270" y="103" width="120" height="40" rx="4" fill="white"/>
</g>
<path d="M390.499 121.999C389.077 121.999 387.656 121.459 386.57 120.38L385.219 119.029C384.696 118.508 383.994 118.219 383.251 118.217H381.351C378.28 118.217 375.78 115.718 375.78 112.647V110.745C375.778 110.003 375.49 109.302 374.966 108.775L373.638 107.448C371.462 105.285 371.453 101.75 373.617 99.5723L374.968 98.2199C375.49 97.6963 375.778 96.9952 375.78 96.2514V94.3533C375.78 91.2803 378.28 88.7809 381.351 88.7809H383.253C383.994 88.7809 384.694 88.4923 385.221 87.965L386.551 86.6385C388.714 84.4628 392.248 84.4517 394.427 86.6181L395.778 87.9687C396.303 88.4923 397.002 88.7809 397.744 88.7809H399.646C402.717 88.7809 405.217 91.2803 405.217 94.3533V96.2533C405.218 96.9952 405.507 97.6963 406.031 98.2236L407.359 99.552C408.412 100.599 408.994 101.994 409 103.483C409.004 104.963 408.434 106.357 407.396 107.409C407.377 107.428 407.361 107.448 407.342 107.465L406.029 108.778C405.507 109.302 405.218 110.003 405.217 110.747V112.647C405.217 115.718 402.717 118.217 399.646 118.217H397.744C397.002 118.219 396.301 118.508 395.776 119.031L394.446 120.36C393.361 121.451 391.929 121.999 390.499 121.999Z" fill="#EEAB00"/>
<path fill-rule="evenodd" clip-rule="evenodd" d="M386.881 99.8953C386.576 100.201 386.18 100.365 385.742 100.365C385.331 100.365 384.928 100.197 384.604 99.8934C384.297 99.5882 384.123 99.1701 384.123 98.7464C384.123 98.3431 384.293 97.9287 384.593 97.6086C384.758 97.4421 384.954 97.3163 385.15 97.2497C385.709 96.9944 386.45 97.1442 386.891 97.6068C387.048 97.764 387.168 97.9361 387.248 98.1155C387.335 98.3079 387.379 98.5262 387.379 98.7464C387.379 99.1867 387.203 99.5956 386.881 99.8953ZM396.407 97.5993C395.776 96.9703 394.749 96.9703 394.118 97.5993L384.609 107.109C383.978 107.74 383.978 108.766 384.609 109.399C384.916 109.704 385.321 109.873 385.754 109.873C386.187 109.873 386.592 109.704 386.897 109.399L396.407 99.8897C397.038 99.257 397.038 98.232 396.407 97.5993ZM395.879 106.765C395.279 106.513 394.569 106.65 394.095 107.124C393.997 107.238 393.859 107.416 393.764 107.625C393.664 107.851 393.651 108.093 393.651 108.256C393.651 108.419 393.664 108.659 393.764 108.885C393.857 109.092 393.968 109.261 394.114 109.407C394.449 109.718 394.837 109.875 395.27 109.875C395.681 109.875 396.084 109.708 396.415 109.399C396.71 109.105 396.87 108.698 396.87 108.256C396.87 107.812 396.71 107.407 396.414 107.111C396.251 106.95 396.055 106.824 395.879 106.765Z" fill="white"/>
<path d="M299.84 121.62C300.76 121.62 301.573 121.793 302.28 122.14C303 122.486 303.56 122.98 303.96 123.62C304.36 124.246 304.56 124.98 304.56 125.82C304.56 126.673 304.353 127.426 303.94 128.08C303.527 128.733 302.953 129.24 302.22 129.6C301.5 129.946 300.687 130.12 299.78 130.12C297.927 130.12 296.507 129.513 295.52 128.3C294.533 127.073 294.04 125.346 294.04 123.12C294.04 121.56 294.307 120.24 294.84 119.16C295.373 118.08 296.12 117.266 297.08 116.72C298.04 116.16 299.16 115.88 300.44 115.88C301.827 115.88 302.933 116.133 303.76 116.64L303.18 117.8C302.513 117.36 301.607 117.14 300.46 117.14C298.913 117.14 297.7 117.633 296.82 118.62C295.94 119.593 295.5 121.013 295.5 122.88C295.5 123.213 295.52 123.593 295.56 124.02C295.907 123.26 296.46 122.673 297.22 122.26C297.98 121.833 298.853 121.62 299.84 121.62ZM299.72 128.9C300.733 128.9 301.553 128.626 302.18 128.08C302.82 127.52 303.14 126.78 303.14 125.86C303.14 124.94 302.82 124.206 302.18 123.66C301.553 123.113 300.7 122.84 299.62 122.84C298.913 122.84 298.287 122.973 297.74 123.24C297.207 123.506 296.787 123.873 296.48 124.34C296.173 124.806 296.02 125.326 296.02 125.9C296.02 126.433 296.16 126.926 296.44 127.38C296.733 127.833 297.16 128.2 297.72 128.48C298.28 128.76 298.947 128.9 299.72 128.9Z" fill="#38386C"/>
<path d="M311.808 130.12C310.728 130.12 309.761 129.833 308.908 129.26C308.068 128.686 307.408 127.866 306.928 126.8C306.461 125.72 306.228 124.453 306.228 123C306.228 121.546 306.461 120.286 306.928 119.22C307.408 118.14 308.068 117.313 308.908 116.74C309.761 116.166 310.728 115.88 311.808 115.88C312.888 115.88 313.848 116.166 314.688 116.74C315.541 117.313 316.208 118.14 316.688 119.22C317.168 120.286 317.408 121.546 317.408 123C317.408 124.453 317.168 125.72 316.688 126.8C316.208 127.866 315.541 128.686 314.688 129.26C313.848 129.833 312.888 130.12 311.808 130.12ZM311.808 128.8C312.621 128.8 313.334 128.573 313.948 128.12C314.574 127.666 315.061 127.006 315.408 126.14C315.754 125.273 315.928 124.226 315.928 123C315.928 121.773 315.754 120.726 315.408 119.86C315.061 118.993 314.574 118.333 313.948 117.88C313.334 117.426 312.621 117.2 311.808 117.2C310.994 117.2 310.274 117.426 309.648 117.88C309.034 118.333 308.554 118.993 308.208 119.86C307.861 120.726 307.688 121.773 307.688 123C307.688 124.226 307.861 125.273 308.208 126.14C308.554 127.006 309.034 127.666 309.648 128.12C310.274 128.573 310.994 128.8 311.808 128.8Z" fill="#38386C"/>
<path d="M322.43 123.5C321.483 123.5 320.716 123.153 320.13 122.46C319.556 121.753 319.27 120.833 319.27 119.7C319.27 118.566 319.556 117.653 320.13 116.96C320.716 116.253 321.483 115.9 322.43 115.9C323.363 115.9 324.123 116.246 324.71 116.94C325.296 117.633 325.59 118.553 325.59 119.7C325.59 120.846 325.296 121.766 324.71 122.46C324.123 123.153 323.363 123.5 322.43 123.5ZM330.91 116H332.09L322.53 130H321.35L330.91 116ZM322.43 122.6C323.083 122.6 323.603 122.346 323.99 121.84C324.39 121.32 324.59 120.606 324.59 119.7C324.59 118.793 324.39 118.086 323.99 117.58C323.603 117.06 323.083 116.8 322.43 116.8C321.763 116.8 321.236 117.06 320.85 117.58C320.463 118.1 320.27 118.806 320.27 119.7C320.27 120.593 320.463 121.3 320.85 121.82C321.236 122.34 321.763 122.6 322.43 122.6ZM331.01 130.1C330.076 130.1 329.316 129.753 328.73 129.06C328.143 128.353 327.85 127.433 327.85 126.3C327.85 125.166 328.143 124.253 328.73 123.56C329.316 122.853 330.076 122.5 331.01 122.5C331.956 122.5 332.716 122.853 333.29 123.56C333.876 124.253 334.17 125.166 334.17 126.3C334.17 127.433 333.876 128.353 333.29 129.06C332.716 129.753 331.956 130.1 331.01 130.1ZM331.01 129.2C331.676 129.2 332.203 128.94 332.59 128.42C332.976 127.9 333.17 127.193 333.17 126.3C333.17 125.406 332.976 124.7 332.59 124.18C332.203 123.66 331.676 123.4 331.01 123.4C330.356 123.4 329.83 123.66 329.43 124.18C329.043 124.686 328.85 125.393 328.85 126.3C328.85 127.206 329.043 127.92 329.43 128.44C329.83 128.946 330.356 129.2 331.01 129.2Z" fill="#38386C"/>
<path d="M346.526 130.1C345.513 130.1 344.599 129.873 343.786 129.42C342.973 128.953 342.333 128.313 341.866 127.5C341.399 126.686 341.166 125.766 341.166 124.74C341.166 123.713 341.399 122.793 341.866 121.98C342.333 121.166 342.973 120.533 343.786 120.08C344.599 119.626 345.513 119.4 346.526 119.4C347.539 119.4 348.453 119.626 349.266 120.08C350.079 120.533 350.713 121.166 351.166 121.98C351.633 122.793 351.866 123.713 351.866 124.74C351.866 125.766 351.633 126.686 351.166 127.5C350.713 128.313 350.079 128.953 349.266 129.42C348.453 129.873 347.539 130.1 346.526 130.1ZM346.526 128.84C347.273 128.84 347.939 128.673 348.526 128.34C349.126 127.993 349.593 127.506 349.926 126.88C350.259 126.253 350.426 125.54 350.426 124.74C350.426 123.94 350.259 123.226 349.926 122.6C349.593 121.973 349.126 121.493 348.526 121.16C347.939 120.813 347.273 120.64 346.526 120.64C345.779 120.64 345.106 120.813 344.506 121.16C343.919 121.493 343.453 121.973 343.106 122.6C342.773 123.226 342.606 123.94 342.606 124.74C342.606 125.54 342.773 126.253 343.106 126.88C343.453 127.506 343.919 127.993 344.506 128.34C345.106 128.673 345.779 128.84 346.526 128.84Z" fill="#38386C"/>
<path d="M358.245 116.26C357.632 116.26 357.165 116.426 356.845 116.76C356.539 117.093 356.385 117.586 356.385 118.24V119.48H359.625V120.68H356.425V130H355.005V120.68H353.125V119.48H355.005V118.18C355.005 117.22 355.279 116.46 355.825 115.9C356.385 115.34 357.172 115.06 358.185 115.06C358.585 115.06 358.972 115.12 359.345 115.24C359.719 115.346 360.032 115.506 360.285 115.72L359.805 116.78C359.392 116.433 358.872 116.26 358.245 116.26Z" fill="#38386C"/>
<path d="M365.023 116.26C364.409 116.26 363.943 116.426 363.623 116.76C363.316 117.093 363.163 117.586 363.163 118.24V119.48H366.403V120.68H363.203V130H361.783V120.68H359.903V119.48H361.783V118.18C361.783 117.22 362.056 116.46 362.603 115.9C363.163 115.34 363.949 115.06 364.963 115.06C365.363 115.06 365.749 115.12 366.123 115.24C366.496 115.346 366.809 115.506 367.063 115.72L366.583 116.78C366.169 116.433 365.649 116.26 365.023 116.26Z" fill="#38386C"/>
<g filter="url(#filter2_i_2295_12914)">
<rect x="259" y="173" width="120" height="40" rx="4" fill="white"/>
</g>
<path d="M378.499 192.999C377.077 192.999 375.656 192.459 374.57 191.38L373.219 190.029C372.696 189.508 371.994 189.219 371.251 189.217H369.351C366.28 189.217 363.78 186.718 363.78 183.647V181.745C363.778 181.003 363.49 180.302 362.966 179.775L361.638 178.448C359.462 176.285 359.453 172.75 361.617 170.572L362.968 169.22C363.49 168.696 363.778 167.995 363.78 167.251V165.353C363.78 162.28 366.28 159.781 369.351 159.781H371.253C371.994 159.781 372.694 159.492 373.221 158.965L374.551 157.638C376.714 155.463 380.248 155.452 382.427 157.618L383.778 158.969C384.303 159.492 385.002 159.781 385.744 159.781H387.646C390.717 159.781 393.217 162.28 393.217 165.353V167.253C393.218 167.995 393.507 168.696 394.031 169.224L395.359 170.552C396.412 171.599 396.994 172.994 397 174.483C397.004 175.963 396.434 177.357 395.396 178.409C395.377 178.428 395.361 178.448 395.342 178.465L394.029 179.778C393.507 180.302 393.218 181.003 393.217 181.747V183.647C393.217 186.718 390.717 189.217 387.646 189.217H385.744C385.002 189.219 384.301 189.508 383.776 190.031L382.446 191.36C381.361 192.451 379.929 192.999 378.499 192.999Z" fill="#EEAB00"/>
<path fill-rule="evenodd" clip-rule="evenodd" d="M374.881 170.895C374.576 171.201 374.18 171.365 373.742 171.365C373.331 171.365 372.928 171.197 372.604 170.893C372.297 170.588 372.123 170.17 372.123 169.746C372.123 169.343 372.293 168.929 372.593 168.609C372.758 168.442 372.954 168.316 373.15 168.25C373.709 167.994 374.45 168.144 374.891 168.607C375.048 168.764 375.168 168.936 375.248 169.116C375.335 169.308 375.379 169.526 375.379 169.746C375.379 170.187 375.203 170.596 374.881 170.895ZM384.407 168.599C383.776 167.97 382.749 167.97 382.118 168.599L372.609 178.109C371.978 178.74 371.978 179.766 372.609 180.399C372.916 180.704 373.321 180.873 373.754 180.873C374.187 180.873 374.592 180.704 374.897 180.399L384.407 170.89C385.038 170.257 385.038 169.232 384.407 168.599ZM383.879 177.765C383.279 177.513 382.569 177.65 382.095 178.124C381.997 178.238 381.859 178.416 381.764 178.625C381.664 178.851 381.651 179.093 381.651 179.256C381.651 179.419 381.664 179.659 381.764 179.885C381.857 180.092 381.968 180.261 382.114 180.407C382.449 180.718 382.837 180.875 383.27 180.875C383.681 180.875 384.084 180.708 384.415 180.399C384.71 180.105 384.87 179.698 384.87 179.256C384.87 178.812 384.71 178.407 384.414 178.111C384.251 177.95 384.055 177.824 383.879 177.765Z" fill="white"/>
<path d="M294.94 196.32H292.14V200H290.7V196.32H282.8V195.28L290.22 186H291.82L284.66 195.04H290.74V191.8H292.14V195.04H294.94V196.32Z" fill="#38386C"/>
<path d="M301.842 200.12C300.762 200.12 299.796 199.833 298.942 199.26C298.102 198.686 297.442 197.866 296.962 196.8C296.496 195.72 296.262 194.453 296.262 193C296.262 191.546 296.496 190.286 296.962 189.22C297.442 188.14 298.102 187.313 298.942 186.74C299.796 186.166 300.762 185.88 301.842 185.88C302.922 185.88 303.882 186.166 304.722 186.74C305.576 187.313 306.242 188.14 306.722 189.22C307.202 190.286 307.442 191.546 307.442 193C307.442 194.453 307.202 195.72 306.722 196.8C306.242 197.866 305.576 198.686 304.722 199.26C303.882 199.833 302.922 200.12 301.842 200.12ZM301.842 198.8C302.656 198.8 303.369 198.573 303.982 198.12C304.609 197.666 305.096 197.006 305.442 196.14C305.789 195.273 305.962 194.226 305.962 193C305.962 191.773 305.789 190.726 305.442 189.86C305.096 188.993 304.609 188.333 303.982 187.88C303.369 187.426 302.656 187.2 301.842 187.2C301.029 187.2 300.309 187.426 299.682 187.88C299.069 188.333 298.589 188.993 298.242 189.86C297.896 190.726 297.722 191.773 297.722 193C297.722 194.226 297.896 195.273 298.242 196.14C298.589 197.006 299.069 197.666 299.682 198.12C300.309 198.573 301.029 198.8 301.842 198.8Z" fill="#38386C"/>
<path d="M312.465 193.5C311.518 193.5 310.751 193.153 310.165 192.46C309.591 191.753 309.305 190.833 309.305 189.7C309.305 188.566 309.591 187.653 310.165 186.96C310.751 186.253 311.518 185.9 312.465 185.9C313.398 185.9 314.158 186.246 314.745 186.94C315.331 187.633 315.625 188.553 315.625 189.7C315.625 190.846 315.331 191.766 314.745 192.46C314.158 193.153 313.398 193.5 312.465 193.5ZM320.945 186H322.125L312.565 200H311.385L320.945 186ZM312.465 192.6C313.118 192.6 313.638 192.346 314.025 191.84C314.425 191.32 314.625 190.606 314.625 189.7C314.625 188.793 314.425 188.086 314.025 187.58C313.638 187.06 313.118 186.8 312.465 186.8C311.798 186.8 311.271 187.06 310.885 187.58C310.498 188.1 310.305 188.806 310.305 189.7C310.305 190.593 310.498 191.3 310.885 191.82C311.271 192.34 311.798 192.6 312.465 192.6ZM321.045 200.1C320.111 200.1 319.351 199.753 318.765 199.06C318.178 198.353 317.885 197.433 317.885 196.3C317.885 195.166 318.178 194.253 318.765 193.56C319.351 192.853 320.111 192.5 321.045 192.5C321.991 192.5 322.751 192.853 323.325 193.56C323.911 194.253 324.205 195.166 324.205 196.3C324.205 197.433 323.911 198.353 323.325 199.06C322.751 199.753 321.991 200.1 321.045 200.1ZM321.045 199.2C321.711 199.2 322.238 198.94 322.625 198.42C323.011 197.9 323.205 197.193 323.205 196.3C323.205 195.406 323.011 194.7 322.625 194.18C322.238 193.66 321.711 193.4 321.045 193.4C320.391 193.4 319.865 193.66 319.465 194.18C319.078 194.686 318.885 195.393 318.885 196.3C318.885 197.206 319.078 197.92 319.465 198.44C319.865 198.946 320.391 199.2 321.045 199.2Z" fill="#38386C"/>
<path d="M336.561 200.1C335.548 200.1 334.634 199.873 333.821 199.42C333.008 198.953 332.368 198.313 331.901 197.5C331.434 196.686 331.201 195.766 331.201 194.74C331.201 193.713 331.434 192.793 331.901 191.98C332.368 191.166 333.008 190.533 333.821 190.08C334.634 189.626 335.548 189.4 336.561 189.4C337.574 189.4 338.488 189.626 339.301 190.08C340.114 190.533 340.748 191.166 341.201 191.98C341.668 192.793 341.901 193.713 341.901 194.74C341.901 195.766 341.668 196.686 341.201 197.5C340.748 198.313 340.114 198.953 339.301 199.42C338.488 199.873 337.574 200.1 336.561 200.1ZM336.561 198.84C337.308 198.84 337.974 198.673 338.561 198.34C339.161 197.993 339.628 197.506 339.961 196.88C340.294 196.253 340.461 195.54 340.461 194.74C340.461 193.94 340.294 193.226 339.961 192.6C339.628 191.973 339.161 191.493 338.561 191.16C337.974 190.813 337.308 190.64 336.561 190.64C335.814 190.64 335.141 190.813 334.541 191.16C333.954 191.493 333.488 191.973 333.141 192.6C332.808 193.226 332.641 193.94 332.641 194.74C332.641 195.54 332.808 196.253 333.141 196.88C333.488 197.506 333.954 197.993 334.541 198.34C335.141 198.673 335.814 198.84 336.561 198.84Z" fill="#38386C"/>
<path d="M348.28 186.26C347.667 186.26 347.2 186.426 346.88 186.76C346.573 187.093 346.42 187.586 346.42 188.24V189.48H349.66V190.68H346.46V200H345.04V190.68H343.16V189.48H345.04V188.18C345.04 187.22 345.313 186.46 345.86 185.9C346.42 185.34 347.207 185.06 348.22 185.06C348.62 185.06 349.007 185.12 349.38 185.24C349.753 185.346 350.067 185.506 350.32 185.72L349.84 186.78C349.427 186.433 348.907 186.26 348.28 186.26Z" fill="#38386C"/>
<path d="M355.057 186.26C354.444 186.26 353.977 186.426 353.657 186.76C353.351 187.093 353.197 187.586 353.197 188.24V189.48H356.437V190.68H353.237V200H351.817V190.68H349.937V189.48H351.817V188.18C351.817 187.22 352.091 186.46 352.637 185.9C353.197 185.34 353.984 185.06 354.997 185.06C355.397 185.06 355.784 185.12 356.157 185.24C356.531 185.346 356.844 185.506 357.097 185.72L356.617 186.78C356.204 186.433 355.684 186.26 355.057 186.26Z" fill="#38386C"/>
<g filter="url(#filter3_i_2295_12914)">
<g clip-path="url(#clip0_2295_12914)">
<rect width="224" height="218" rx="109" fill="white"/>
<path d="M135.076 89.9183H141.921L151.048 74.4028C151.048 74.4028 138.727 74.4028 135.076 78.0535C132.789 80.34 119.561 67.5578 119.561 67.5578V78.0535L97.2 81.7042C97.2 81.7042 94.5302 75.404 97.2 74.4028C104.501 71.6648 110.89 67.5578 110.89 67.5578L102.676 61.6254L113.628 57.062L125.037 45.6536L119.561 30.1382L125.037 21.0114V12.7974L148.31 0.932617H166.107L201.245 33.3325L215.391 64.8197L189.836 74.4028H182.079C182.079 74.4028 187.098 92.1999 188.011 96.7633C188.527 99.3435 184.356 102.52 182.079 99.9577C178.428 95.8506 163.369 81.7042 163.369 81.7042L173.865 95.8506L182.079 105.89C182.079 105.89 169.301 191.681 155.611 178.904C138.392 162.833 125.037 126.882 125.037 126.882C125.037 126.882 102.676 135.096 94.462 132.814C86.3785 130.568 79.4029 111.366 79.4029 111.366C79.4029 111.366 76.7825 103.561 79.4029 99.9577C86.7043 89.9183 110.89 83.5295 119.561 81.7042C126.269 80.2918 135.076 89.9183 135.076 89.9183Z" fill="#CDCDE5"/>
<path d="M109.977 201.721L54.7607 201.264C66.7008 205.898 78.8712 213.059 90.8113 217.692C90.8113 217.692 101.732 217.673 109.977 217.692C118.046 217.712 124.298 218.375 132.338 217.692C149.43 216.241 170.67 196.245 170.67 196.245H158.349L118.192 205.828L109.977 201.721Z" fill="#CDCDE5"/>
<path d="M17.3408 148.33L39.7013 184.38L31.0309 148.33L43.8083 141.941L39.7013 135.552L61.6054 126.882V117.299C61.6054 117.299 51.1097 109.085 43.8083 101.327C35.6479 92.6564 17.3408 92.6564 17.3408 92.6564V81.248L39.7013 72.1213L43.8083 59.8002L61.6054 56.6059L83.0533 31.5073L99.9377 22.3806V13.2539H92.18L99.9377 0.0201154L77.5772 13.2539L64.3435 -4.08691L17.3408 31.5073L10.9521 56.6059V78.0537V92.6564L0 103.152L17.3408 148.33Z" fill="#CDCDE5"/>
<path d="M201.245 99.0447C195.734 97.1188 193.487 86.2673 193.487 86.2673C193.487 86.2673 205.151 81.5901 209.003 86.2673C212.175 90.1192 209.003 99.0447 209.003 99.0447C209.003 99.0447 204.105 100.044 201.245 99.0447Z" fill="#CDCDE5"/>
<path d="M90.8115 0.476039L88.0735 -5H105.414L131.882 -2.26198L122.755 5.95208L105.414 -2.26198L90.8115 0.476039Z" fill="#CDCDE5"/>
<path d="M90.8115 67.1012C88.0732 65.2758 85.6473 54.0692 90.8115 53.8674C94.3462 53.7293 97.2909 56.2814 97.6565 59.7998C98.0606 63.6873 94.0636 69.2691 90.8115 67.1012Z" fill="#CDCDE5"/>
</g>
</g>
<path d="M292.887 44L290 41.1132L287.113 44L290 46.8868L292.887 44ZM194.5 43.5L189.5 41.1132V46.8868L194.5 44.5V43.5ZM190.978 44.5C191.254 44.5 191.478 44.2761 191.478 44C191.478 43.7239 191.254 43.5 190.978 43.5V44.5ZM193.934 43.5C193.658 43.5 193.434 43.7239 193.434 44C193.434 44.2761 193.658 44.5 193.934 44.5V43.5ZM196.89 44.5C197.166 44.5 197.39 44.2761 197.39 44C197.39 43.7239 197.166 43.5 196.89 43.5V44.5ZM199.846 43.5C199.569 43.5 199.346 43.7239 199.346 44C199.346 44.2761 199.569 44.5 199.846 44.5V43.5ZM202.801 44.5C203.078 44.5 203.301 44.2761 203.301 44C203.301 43.7239 203.078 43.5 202.801 43.5V44.5ZM205.757 43.5C205.481 43.5 205.257 43.7239 205.257 44C205.257 44.2761 205.481 44.5 205.757 44.5V43.5ZM208.713 44.5C208.989 44.5 209.213 44.2761 209.213 44C209.213 43.7239 208.989 43.5 208.713 43.5V44.5ZM211.669 43.5C211.393 43.5 211.169 43.7239 211.169 44C211.169 44.2761 211.393 44.5 211.669 44.5V43.5ZM214.625 44.5C214.901 44.5 215.125 44.2761 215.125 44C215.125 43.7239 214.901 43.5 214.625 43.5V44.5ZM217.581 43.5C217.305 43.5 217.081 43.7239 217.081 44C217.081 44.2761 217.305 44.5 217.581 44.5V43.5ZM220.537 44.5C220.813 44.5 221.037 44.2761 221.037 44C221.037 43.7239 220.813 43.5 220.537 43.5V44.5ZM223.493 43.5C223.217 43.5 222.993 43.7239 222.993 44C222.993 44.2761 223.217 44.5 223.493 44.5V43.5ZM226.449 44.5C226.725 44.5 226.949 44.2761 226.949 44C226.949 43.7239 226.725 43.5 226.449 43.5V44.5ZM229.404 43.5C229.128 43.5 228.904 43.7239 228.904 44C228.904 44.2761 229.128 44.5 229.404 44.5V43.5ZM232.36 44.5C232.636 44.5 232.86 44.2761 232.86 44C232.86 43.7239 232.636 43.5 232.36 43.5V44.5ZM235.316 43.5C235.04 43.5 234.816 43.7239 234.816 44C234.816 44.2761 235.04 44.5 235.316 44.5V43.5ZM238.272 44.5C238.548 44.5 238.772 44.2761 238.772 44C238.772 43.7239 238.548 43.5 238.272 43.5V44.5ZM241.228 43.5C240.952 43.5 240.728 43.7239 240.728 44C240.728 44.2761 240.952 44.5 241.228 44.5V43.5ZM244.184 44.5C244.46 44.5 244.684 44.2761 244.684 44C244.684 43.7239 244.46 43.5 244.184 43.5V44.5ZM247.14 43.5C246.864 43.5 246.64 43.7239 246.64 44C246.64 44.2761 246.864 44.5 247.14 44.5V43.5ZM250.096 44.5C250.372 44.5 250.596 44.2761 250.596 44C250.596 43.7239 250.372 43.5 250.096 43.5V44.5ZM253.051 43.5C252.775 43.5 252.551 43.7239 252.551 44C252.551 44.2761 252.775 44.5 253.051 44.5V43.5ZM256.007 44.5C256.284 44.5 256.507 44.2761 256.507 44C256.507 43.7239 256.284 43.5 256.007 43.5V44.5ZM258.963 43.5C258.687 43.5 258.463 43.7239 258.463 44C258.463 44.2761 258.687 44.5 258.963 44.5V43.5ZM261.919 44.5C262.195 44.5 262.419 44.2761 262.419 44C262.419 43.7239 262.195 43.5 261.919 43.5V44.5ZM264.875 43.5C264.599 43.5 264.375 43.7239 264.375 44C264.375 44.2761 264.599 44.5 264.875 44.5V43.5ZM267.831 44.5C268.107 44.5 268.331 44.2761 268.331 44C268.331 43.7239 268.107 43.5 267.831 43.5V44.5ZM270.787 43.5C270.511 43.5 270.287 43.7239 270.287 44C270.287 44.2761 270.511 44.5 270.787 44.5V43.5ZM273.743 44.5C274.019 44.5 274.243 44.2761 274.243 44C274.243 43.7239 274.019 43.5 273.743 43.5V44.5ZM276.699 43.5C276.422 43.5 276.199 43.7239 276.199 44C276.199 44.2761 276.422 44.5 276.699 44.5V43.5ZM279.654 44.5C279.931 44.5 280.154 44.2761 280.154 44C280.154 43.7239 279.931 43.5 279.654 43.5V44.5ZM282.61 43.5C282.334 43.5 282.11 43.7239 282.11 44C282.11 44.2761 282.334 44.5 282.61 44.5V43.5ZM285.566 44.5C285.842 44.5 286.066 44.2761 286.066 44C286.066 43.7239 285.842 43.5 285.566 43.5V44.5ZM288.522 43.5C288.246 43.5 288.022 43.7239 288.022 44C288.022 44.2761 288.246 44.5 288.522 44.5V43.5ZM193.934 44.5H196.89V43.5H193.934V44.5ZM199.846 44.5H202.801V43.5H199.846V44.5ZM205.757 44.5H208.713V43.5H205.757V44.5ZM211.669 44.5H214.625V43.5H211.669V44.5ZM217.581 44.5H220.537V43.5H217.581V44.5ZM223.493 44.5H226.449V43.5H223.493V44.5ZM229.404 44.5H232.36V43.5H229.404V44.5ZM235.316 44.5H238.272V43.5H235.316V44.5ZM241.228 44.5H244.184V43.5H241.228V44.5ZM247.14 44.5H250.096V43.5H247.14V44.5ZM253.051 44.5H256.007V43.5H253.051V44.5ZM258.963 44.5H261.919V43.5H258.963V44.5ZM264.875 44.5H267.831V43.5H264.875V44.5ZM270.787 44.5H273.743V43.5H270.787V44.5ZM276.699 44.5H279.654V43.5H276.699V44.5ZM282.61 44.5H285.566V43.5H282.61V44.5ZM288.522 44.5H290V43.5H288.522V44.5Z" fill="#38386C"/>
<path d="M272.887 124L270 121.113L267.113 124L270 126.887L272.887 124ZM174.5 123.5L169.5 121.113V126.887L174.5 124.5V123.5ZM170.978 124.5C171.254 124.5 171.478 124.276 171.478 124C171.478 123.724 171.254 123.5 170.978 123.5V124.5ZM173.934 123.5C173.658 123.5 173.434 123.724 173.434 124C173.434 124.276 173.658 124.5 173.934 124.5V123.5ZM176.89 124.5C177.166 124.5 177.39 124.276 177.39 124C177.39 123.724 177.166 123.5 176.89 123.5V124.5ZM179.846 123.5C179.569 123.5 179.346 123.724 179.346 124C179.346 124.276 179.569 124.5 179.846 124.5V123.5ZM182.801 124.5C183.078 124.5 183.301 124.276 183.301 124C183.301 123.724 183.078 123.5 182.801 123.5V124.5ZM185.757 123.5C185.481 123.5 185.257 123.724 185.257 124C185.257 124.276 185.481 124.5 185.757 124.5V123.5ZM188.713 124.5C188.989 124.5 189.213 124.276 189.213 124C189.213 123.724 188.989 123.5 188.713 123.5V124.5ZM191.669 123.5C191.393 123.5 191.169 123.724 191.169 124C191.169 124.276 191.393 124.5 191.669 124.5V123.5ZM194.625 124.5C194.901 124.5 195.125 124.276 195.125 124C195.125 123.724 194.901 123.5 194.625 123.5V124.5ZM197.581 123.5C197.305 123.5 197.081 123.724 197.081 124C197.081 124.276 197.305 124.5 197.581 124.5V123.5ZM200.537 124.5C200.813 124.5 201.037 124.276 201.037 124C201.037 123.724 200.813 123.5 200.537 123.5V124.5ZM203.493 123.5C203.217 123.5 202.993 123.724 202.993 124C202.993 124.276 203.217 124.5 203.493 124.5V123.5ZM206.449 124.5C206.725 124.5 206.949 124.276 206.949 124C206.949 123.724 206.725 123.5 206.449 123.5V124.5ZM209.404 123.5C209.128 123.5 208.904 123.724 208.904 124C208.904 124.276 209.128 124.5 209.404 124.5V123.5ZM212.36 124.5C212.636 124.5 212.86 124.276 212.86 124C212.86 123.724 212.636 123.5 212.36 123.5V124.5ZM215.316 123.5C215.04 123.5 214.816 123.724 214.816 124C214.816 124.276 215.04 124.5 215.316 124.5V123.5ZM218.272 124.5C218.548 124.5 218.772 124.276 218.772 124C218.772 123.724 218.548 123.5 218.272 123.5V124.5ZM221.228 123.5C220.952 123.5 220.728 123.724 220.728 124C220.728 124.276 220.952 124.5 221.228 124.5V123.5ZM224.184 124.5C224.46 124.5 224.684 124.276 224.684 124C224.684 123.724 224.46 123.5 224.184 123.5V124.5ZM227.14 123.5C226.864 123.5 226.64 123.724 226.64 124C226.64 124.276 226.864 124.5 227.14 124.5V123.5ZM230.096 124.5C230.372 124.5 230.596 124.276 230.596 124C230.596 123.724 230.372 123.5 230.096 123.5V124.5ZM233.051 123.5C232.775 123.5 232.551 123.724 232.551 124C232.551 124.276 232.775 124.5 233.051 124.5V123.5ZM236.007 124.5C236.284 124.5 236.507 124.276 236.507 124C236.507 123.724 236.284 123.5 236.007 123.5V124.5ZM238.963 123.5C238.687 123.5 238.463 123.724 238.463 124C238.463 124.276 238.687 124.5 238.963 124.5V123.5ZM241.919 124.5C242.195 124.5 242.419 124.276 242.419 124C242.419 123.724 242.195 123.5 241.919 123.5V124.5ZM244.875 123.5C244.599 123.5 244.375 123.724 244.375 124C244.375 124.276 244.599 124.5 244.875 124.5V123.5ZM247.831 124.5C248.107 124.5 248.331 124.276 248.331 124C248.331 123.724 248.107 123.5 247.831 123.5V124.5ZM250.787 123.5C250.511 123.5 250.287 123.724 250.287 124C250.287 124.276 250.511 124.5 250.787 124.5V123.5ZM253.743 124.5C254.019 124.5 254.243 124.276 254.243 124C254.243 123.724 254.019 123.5 253.743 123.5V124.5ZM256.699 123.5C256.422 123.5 256.199 123.724 256.199 124C256.199 124.276 256.422 124.5 256.699 124.5V123.5ZM259.654 124.5C259.931 124.5 260.154 124.276 260.154 124C260.154 123.724 259.931 123.5 259.654 123.5V124.5ZM262.61 123.5C262.334 123.5 262.11 123.724 262.11 124C262.11 124.276 262.334 124.5 262.61 124.5V123.5ZM265.566 124.5C265.842 124.5 266.066 124.276 266.066 124C266.066 123.724 265.842 123.5 265.566 123.5V124.5ZM268.522 123.5C268.246 123.5 268.022 123.724 268.022 124C268.022 124.276 268.246 124.5 268.522 124.5V123.5ZM173.934 124.5H176.89V123.5H173.934V124.5ZM179.846 124.5H182.801V123.5H179.846V124.5ZM185.757 124.5H188.713V123.5H185.757V124.5ZM191.669 124.5H194.625V123.5H191.669V124.5ZM197.581 124.5H200.537V123.5H197.581V124.5ZM203.493 124.5H206.449V123.5H203.493V124.5ZM209.404 124.5H212.36V123.5H209.404V124.5ZM215.316 124.5H218.272V123.5H215.316V124.5ZM221.228 124.5H224.184V123.5H221.228V124.5ZM227.14 124.5H230.096V123.5H227.14V124.5ZM233.051 124.5H236.007V123.5H233.051V124.5ZM238.963 124.5H241.919V123.5H238.963V124.5ZM244.875 124.5H247.831V123.5H244.875V124.5ZM250.787 124.5H253.743V123.5H250.787V124.5ZM256.699 124.5H259.654V123.5H256.699V124.5ZM262.61 124.5H265.566V123.5H262.61V124.5ZM268.522 124.5H270V123.5H268.522V124.5Z" fill="#38386C"/>
<path d="M180 154H180.5V153.5H180V154ZM34.5 153.5L29.5 151.113V156.887L34.5 154.5V153.5ZM180 195.5H179.5V196H180V195.5ZM261.387 195.5L258.5 192.613L255.613 195.5L258.5 198.387L261.387 195.5ZM31.005 154.5C31.2811 154.5 31.505 154.276 31.505 154C31.505 153.724 31.2811 153.5 31.005 153.5V154.5ZM34.015 153.5C33.7389 153.5 33.515 153.724 33.515 154C33.515 154.276 33.7389 154.5 34.015 154.5V153.5ZM37.025 154.5C37.3011 154.5 37.525 154.276 37.525 154C37.525 153.724 37.3011 153.5 37.025 153.5V154.5ZM40.035 153.5C39.7589 153.5 39.535 153.724 39.535 154C39.535 154.276 39.7589 154.5 40.035 154.5V153.5ZM43.045 154.5C43.3211 154.5 43.545 154.276 43.545 154C43.545 153.724 43.3211 153.5 43.045 153.5V154.5ZM46.055 153.5C45.7789 153.5 45.555 153.724 45.555 154C45.555 154.276 45.7789 154.5 46.055 154.5V153.5ZM49.065 154.5C49.3411 154.5 49.565 154.276 49.565 154C49.565 153.724 49.3411 153.5 49.065 153.5V154.5ZM52.075 153.5C51.7989 153.5 51.575 153.724 51.575 154C51.575 154.276 51.7989 154.5 52.075 154.5V153.5ZM55.085 154.5C55.3611 154.5 55.585 154.276 55.585 154C55.585 153.724 55.3611 153.5 55.085 153.5V154.5ZM58.095 153.5C57.8189 153.5 57.595 153.724 57.595 154C57.595 154.276 57.8189 154.5 58.095 154.5V153.5ZM61.105 154.5C61.3811 154.5 61.605 154.276 61.605 154C61.605 153.724 61.3811 153.5 61.105 153.5V154.5ZM64.115 153.5C63.8389 153.5 63.615 153.724 63.615 154C63.615 154.276 63.8389 154.5 64.115 154.5V153.5ZM67.125 154.5C67.4011 154.5 67.625 154.276 67.625 154C67.625 153.724 67.4011 153.5 67.125 153.5V154.5ZM70.135 153.5C69.8589 153.5 69.635 153.724 69.635 154C69.635 154.276 69.8589 154.5 70.135 154.5V153.5ZM73.145 154.5C73.4211 154.5 73.645 154.276 73.645 154C73.645 153.724 73.4211 153.5 73.145 153.5V154.5ZM76.155 153.5C75.8789 153.5 75.655 153.724 75.655 154C75.655 154.276 75.8789 154.5 76.155 154.5V153.5ZM79.165 154.5C79.4411 154.5 79.665 154.276 79.665 154C79.665 153.724 79.4411 153.5 79.165 153.5V154.5ZM82.175 153.5C81.8988 153.5 81.675 153.724 81.675 154C81.675 154.276 81.8988 154.5 82.175 154.5V153.5ZM85.185 154.5C85.4611 154.5 85.685 154.276 85.685 154C85.685 153.724 85.4611 153.5 85.185 153.5V154.5ZM88.195 153.5C87.9188 153.5 87.695 153.724 87.695 154C87.695 154.276 87.9188 154.5 88.195 154.5V153.5ZM91.205 154.5C91.4811 154.5 91.705 154.276 91.705 154C91.705 153.724 91.4811 153.5 91.205 153.5V154.5ZM94.215 153.5C93.9388 153.5 93.715 153.724 93.715 154C93.715 154.276 93.9388 154.5 94.215 154.5V153.5ZM97.225 154.5C97.5011 154.5 97.725 154.276 97.725 154C97.725 153.724 97.5011 153.5 97.225 153.5V154.5ZM100.235 153.5C99.9588 153.5 99.735 153.724 99.735 154C99.735 154.276 99.9588 154.5 100.235 154.5V153.5ZM103.245 154.5C103.521 154.5 103.745 154.276 103.745 154C103.745 153.724 103.521 153.5 103.245 153.5V154.5ZM106.255 153.5C105.979 153.5 105.755 153.724 105.755 154C105.755 154.276 105.979 154.5 106.255 154.5V153.5ZM109.265 154.5C109.541 154.5 109.765 154.276 109.765 154C109.765 153.724 109.541 153.5 109.265 153.5V154.5ZM112.275 153.5C111.999 153.5 111.775 153.724 111.775 154C111.775 154.276 111.999 154.5 112.275 154.5V153.5ZM115.285 154.5C115.561 154.5 115.785 154.276 115.785 154C115.785 153.724 115.561 153.5 115.285 153.5V154.5ZM118.295 153.5C118.019 153.5 117.795 153.724 117.795 154C117.795 154.276 118.019 154.5 118.295 154.5V153.5ZM121.305 154.5C121.581 154.5 121.805 154.276 121.805 154C121.805 153.724 121.581 153.5 121.305 153.5V154.5ZM124.315 153.5C124.039 153.5 123.815 153.724 123.815 154C123.815 154.276 124.039 154.5 124.315 154.5V153.5ZM127.325 154.5C127.601 154.5 127.825 154.276 127.825 154C127.825 153.724 127.601 153.5 127.325 153.5V154.5ZM130.335 153.5C130.059 153.5 129.835 153.724 129.835 154C129.835 154.276 130.059 154.5 130.335 154.5V153.5ZM133.345 154.5C133.621 154.5 133.845 154.276 133.845 154C133.845 153.724 133.621 153.5 133.345 153.5V154.5ZM136.355 153.5C136.079 153.5 135.855 153.724 135.855 154C135.855 154.276 136.079 154.5 136.355 154.5V153.5ZM139.365 154.5C139.641 154.5 139.865 154.276 139.865 154C139.865 153.724 139.641 153.5 139.365 153.5V154.5ZM142.375 153.5C142.099 153.5 141.875 153.724 141.875 154C141.875 154.276 142.099 154.5 142.375 154.5V153.5ZM145.385 154.5C145.661 154.5 145.885 154.276 145.885 154C145.885 153.724 145.661 153.5 145.385 153.5V154.5ZM148.395 153.5C148.119 153.5 147.895 153.724 147.895 154C147.895 154.276 148.119 154.5 148.395 154.5V153.5ZM151.405 154.5C151.681 154.5 151.905 154.276 151.905 154C151.905 153.724 151.681 153.5 151.405 153.5V154.5ZM154.415 153.5C154.139 153.5 153.915 153.724 153.915 154C153.915 154.276 154.139 154.5 154.415 154.5V153.5ZM157.425 154.5C157.701 154.5 157.925 154.276 157.925 154C157.925 153.724 157.701 153.5 157.425 153.5V154.5ZM160.435 153.5C160.159 153.5 159.935 153.724 159.935 154C159.935 154.276 160.159 154.5 160.435 154.5V153.5ZM163.445 154.5C163.721 154.5 163.945 154.276 163.945 154C163.945 153.724 163.721 153.5 163.445 153.5V154.5ZM166.455 153.5C166.179 153.5 165.955 153.724 165.955 154C165.955 154.276 166.179 154.5 166.455 154.5V153.5ZM169.465 154.5C169.741 154.5 169.965 154.276 169.965 154C169.965 153.724 169.741 153.5 169.465 153.5V154.5ZM172.475 153.5C172.199 153.5 171.975 153.724 171.975 154C171.975 154.276 172.199 154.5 172.475 154.5V153.5ZM175.485 154.5C175.761 154.5 175.985 154.276 175.985 154C175.985 153.724 175.761 153.5 175.485 153.5V154.5ZM178.495 153.5C178.219 153.5 177.995 153.724 177.995 154C177.995 154.276 178.219 154.5 178.495 154.5V153.5ZM179.5 155.482C179.5 155.758 179.724 155.982 180 155.982C180.276 155.982 180.5 155.758 180.5 155.482H179.5ZM180.5 158.446C180.5 158.17 180.276 157.946 180 157.946C179.724 157.946 179.5 158.17 179.5 158.446H180.5ZM179.5 161.411C179.5 161.687 179.724 161.911 180 161.911C180.276 161.911 180.5 161.687 180.5 161.411H179.5ZM180.5 164.375C180.5 164.099 180.276 163.875 180 163.875C179.724 163.875 179.5 164.099 179.5 164.375H180.5ZM179.5 167.339C179.5 167.615 179.724 167.839 180 167.839C180.276 167.839 180.5 167.615 180.5 167.339H179.5ZM180.5 170.304C180.5 170.027 180.276 169.804 180 169.804C179.724 169.804 179.5 170.027 179.5 170.304H180.5ZM179.5 173.268C179.5 173.544 179.724 173.768 180 173.768C180.276 173.768 180.5 173.544 180.5 173.268H179.5ZM180.5 176.232C180.5 175.956 180.276 175.732 180 175.732C179.724 175.732 179.5 175.956 179.5 176.232H180.5ZM179.5 179.196C179.5 179.473 179.724 179.696 180 179.696C180.276 179.696 180.5 179.473 180.5 179.196H179.5ZM180.5 182.161C180.5 181.885 180.276 181.661 180 181.661C179.724 181.661 179.5 181.885 179.5 182.161H180.5ZM179.5 185.125C179.5 185.401 179.724 185.625 180 185.625C180.276 185.625 180.5 185.401 180.5 185.125H179.5ZM180.5 188.089C180.5 187.813 180.276 187.589 180 187.589C179.724 187.589 179.5 187.813 179.5 188.089H180.5ZM179.5 191.054C179.5 191.33 179.724 191.554 180 191.554C180.276 191.554 180.5 191.33 180.5 191.054H179.5ZM180.5 194.018C180.5 193.742 180.276 193.518 180 193.518C179.724 193.518 179.5 193.742 179.5 194.018H180.5ZM181.51 196C181.786 196 182.01 195.776 182.01 195.5C182.01 195.224 181.786 195 181.51 195V196ZM184.529 195C184.253 195 184.029 195.224 184.029 195.5C184.029 195.776 184.253 196 184.529 196V195ZM187.548 196C187.824 196 188.048 195.776 188.048 195.5C188.048 195.224 187.824 195 187.548 195V196ZM190.567 195C190.291 195 190.067 195.224 190.067 195.5C190.067 195.776 190.291 196 190.567 196V195ZM193.587 196C193.863 196 194.087 195.776 194.087 195.5C194.087 195.224 193.863 195 193.587 195V196ZM196.606 195C196.33 195 196.106 195.224 196.106 195.5C196.106 195.776 196.33 196 196.606 196V195ZM199.625 196C199.901 196 200.125 195.776 200.125 195.5C200.125 195.224 199.901 195 199.625 195V196ZM202.644 195C202.368 195 202.144 195.224 202.144 195.5C202.144 195.776 202.368 196 202.644 196V195ZM205.663 196C205.94 196 206.163 195.776 206.163 195.5C206.163 195.224 205.94 195 205.663 195V196ZM208.683 195C208.407 195 208.183 195.224 208.183 195.5C208.183 195.776 208.407 196 208.683 196V195ZM211.702 196C211.978 196 212.202 195.776 212.202 195.5C212.202 195.224 211.978 195 211.702 195V196ZM214.721 195C214.445 195 214.221 195.224 214.221 195.5C214.221 195.776 214.445 196 214.721 196V195ZM217.74 196C218.017 196 218.24 195.776 218.24 195.5C218.24 195.224 218.017 195 217.74 195V196ZM220.76 195C220.483 195 220.26 195.224 220.26 195.5C220.26 195.776 220.483 196 220.76 196V195ZM223.779 196C224.055 196 224.279 195.776 224.279 195.5C224.279 195.224 224.055 195 223.779 195V196ZM226.798 195C226.522 195 226.298 195.224 226.298 195.5C226.298 195.776 226.522 196 226.798 196V195ZM229.817 196C230.093 196 230.317 195.776 230.317 195.5C230.317 195.224 230.093 195 229.817 195V196ZM232.837 195C232.56 195 232.337 195.224 232.337 195.5C232.337 195.776 232.56 196 232.837 196V195ZM235.856 196C236.132 196 236.356 195.776 236.356 195.5C236.356 195.224 236.132 195 235.856 195V196ZM238.875 195C238.599 195 238.375 195.224 238.375 195.5C238.375 195.776 238.599 196 238.875 196V195ZM241.894 196C242.17 196 242.394 195.776 242.394 195.5C242.394 195.224 242.17 195 241.894 195V196ZM244.913 195C244.637 195 244.413 195.224 244.413 195.5C244.413 195.776 244.637 196 244.913 196V195ZM247.933 196C248.209 196 248.433 195.776 248.433 195.5C248.433 195.224 248.209 195 247.933 195V196ZM250.952 195C250.676 195 250.452 195.224 250.452 195.5C250.452 195.776 250.676 196 250.952 196V195ZM253.971 196C254.247 196 254.471 195.776 254.471 195.5C254.471 195.224 254.247 195 253.971 195V196ZM256.99 195C256.714 195 256.49 195.224 256.49 195.5C256.49 195.776 256.714 196 256.99 196V195ZM34.015 154.5H37.025V153.5H34.015V154.5ZM40.035 154.5H43.045V153.5H40.035V154.5ZM46.055 154.5H49.065V153.5H46.055V154.5ZM52.075 154.5H55.085V153.5H52.075V154.5ZM58.095 154.5H61.105V153.5H58.095V154.5ZM64.115 154.5H67.125V153.5H64.115V154.5ZM70.135 154.5H73.145V153.5H70.135V154.5ZM76.155 154.5H79.165V153.5H76.155V154.5ZM82.175 154.5H85.185V153.5H82.175V154.5ZM88.195 154.5H91.205V153.5H88.195V154.5ZM94.215 154.5H97.225V153.5H94.215V154.5ZM100.235 154.5H103.245V153.5H100.235V154.5ZM106.255 154.5H109.265V153.5H106.255V154.5ZM112.275 154.5H115.285V153.5H112.275V154.5ZM118.295 154.5H121.305V153.5H118.295V154.5ZM124.315 154.5H127.325V153.5H124.315V154.5ZM130.335 154.5H133.345V153.5H130.335V154.5ZM136.355 154.5H139.365V153.5H136.355V154.5ZM142.375 154.5H145.385V153.5H142.375V154.5ZM148.395 154.5H151.405V153.5H148.395V154.5ZM154.415 154.5H157.425V153.5H154.415V154.5ZM160.435 154.5H163.445V153.5H160.435V154.5ZM166.455 154.5H169.465V153.5H166.455V154.5ZM172.475 154.5H175.485V153.5H172.475V154.5ZM178.495 154.5H180V153.5H178.495V154.5ZM179.5 154V155.482H180.5V154H179.5ZM179.5 158.446V161.411H180.5V158.446H179.5ZM179.5 164.375V167.339H180.5V164.375H179.5ZM179.5 170.304V173.268H180.5V170.304H179.5ZM179.5 176.232V179.196H180.5V176.232H179.5ZM179.5 182.161V185.125H180.5V182.161H179.5ZM179.5 188.089V191.054H180.5V188.089H179.5ZM179.5 194.018V195.5H180.5V194.018H179.5ZM180 196H181.51V195H180V196ZM184.529 196H187.548V195H184.529V196ZM190.567 196H193.587V195H190.567V196ZM196.606 196H199.625V195H196.606V196ZM202.644 196H205.663V195H202.644V196ZM208.683 196H211.702V195H208.683V196ZM214.721 196H217.74V195H214.721V196ZM220.76 196H223.779V195H220.76V196ZM226.798 196H229.817V195H226.798V196ZM232.837 196H235.856V195H232.837V196ZM238.875 196H241.894V195H238.875V196ZM244.913 196H247.933V195H244.913V196ZM250.952 196H253.971V195H250.952V196ZM256.99 196H258.5V195H256.99V196Z" fill="#38386C"/>
<defs>
<filter id="filter0_i_2295_12914" x="290" y="21" width="120" height="40" filterUnits="userSpaceOnUse" color-interpolation-filters="sRGB">
<feFlood flood-opacity="0" result="BackgroundImageFix"/>
<feBlend mode="normal" in="SourceGraphic" in2="BackgroundImageFix" result="shape"/>
<feColorMatrix in="SourceAlpha" type="matrix" values="0 0 0 0 0 0 0 0 0 0 0 0 0 0 0 0 0 0 127 0" result="hardAlpha"/>
<feOffset/>
<feGaussianBlur stdDeviation="2"/>
<feComposite in2="hardAlpha" operator="arithmetic" k2="-1" k3="1"/>
<feColorMatrix type="matrix" values="0 0 0 0 0 0 0 0 0 0 0 0 0 0 0 0 0 0 0.12 0"/>
<feBlend mode="normal" in2="shape" result="effect1_innerShadow_2295_12914"/>
</filter>
<filter id="filter1_i_2295_12914" x="270" y="103" width="120" height="40" filterUnits="userSpaceOnUse" color-interpolation-filters="sRGB">
<feFlood flood-opacity="0" result="BackgroundImageFix"/>
<feBlend mode="normal" in="SourceGraphic" in2="BackgroundImageFix" result="shape"/>
<feColorMatrix in="SourceAlpha" type="matrix" values="0 0 0 0 0 0 0 0 0 0 0 0 0 0 0 0 0 0 127 0" result="hardAlpha"/>
<feOffset/>
<feGaussianBlur stdDeviation="2"/>
<feComposite in2="hardAlpha" operator="arithmetic" k2="-1" k3="1"/>
<feColorMatrix type="matrix" values="0 0 0 0 0 0 0 0 0 0 0 0 0 0 0 0 0 0 0.12 0"/>
<feBlend mode="normal" in2="shape" result="effect1_innerShadow_2295_12914"/>
</filter>
<filter id="filter2_i_2295_12914" x="259" y="173" width="120" height="40" filterUnits="userSpaceOnUse" color-interpolation-filters="sRGB">
<feFlood flood-opacity="0" result="BackgroundImageFix"/>
<feBlend mode="normal" in="SourceGraphic" in2="BackgroundImageFix" result="shape"/>
<feColorMatrix in="SourceAlpha" type="matrix" values="0 0 0 0 0 0 0 0 0 0 0 0 0 0 0 0 0 0 127 0" result="hardAlpha"/>
<feOffset/>
<feGaussianBlur stdDeviation="2"/>
<feComposite in2="hardAlpha" operator="arithmetic" k2="-1" k3="1"/>
<feColorMatrix type="matrix" values="0 0 0 0 0 0 0 0 0 0 0 0 0 0 0 0 0 0 0.12 0"/>
<feBlend mode="normal" in2="shape" result="effect1_innerShadow_2295_12914"/>
</filter>
<filter id="filter3_i_2295_12914" x="0" y="0" width="224" height="218" filterUnits="userSpaceOnUse" color-interpolation-filters="sRGB">
<feFlood flood-opacity="0" result="BackgroundImageFix"/>
<feBlend mode="normal" in="SourceGraphic" in2="BackgroundImageFix" result="shape"/>
<feColorMatrix in="SourceAlpha" type="matrix" values="0 0 0 0 0 0 0 0 0 0 0 0 0 0 0 0 0 0 127 0" result="hardAlpha"/>
<feOffset/>
<feGaussianBlur stdDeviation="6"/>
<feComposite in2="hardAlpha" operator="arithmetic" k2="-1" k3="1"/>
<feColorMatrix type="matrix" values="0 0 0 0 0 0 0 0 0 0 0 0 0 0 0 0 0 0 0.12 0"/>
<feBlend mode="normal" in2="shape" result="effect1_innerShadow_2295_12914"/>
</filter>
<clipPath id="clip0_2295_12914">
<rect width="224" height="218" rx="109" fill="white"/>
</clipPath>
</defs>
</svg>
