<svg width="653" height="324" viewBox="0 0 653 324" fill="none" xmlns="http://www.w3.org/2000/svg">
<g filter="url(#filter0_i_2335_16543)">
<rect x="436.327" y="32.9717" width="188.411" height="62.8037" rx="4" fill="white"/>
</g>
<path d="M623.953 59.6628C621.719 59.6628 619.488 58.8146 617.783 57.1212L615.663 55.0007C614.841 54.1815 613.74 53.7284 612.572 53.7255H609.589C604.767 53.7255 600.842 49.8011 600.842 44.9792V41.9931C600.84 40.8283 600.386 39.7274 599.564 38.8995L597.479 36.8168C594.063 33.4211 594.048 27.8701 597.447 24.4512L599.567 22.3278C600.386 21.5057 600.84 20.4048 600.842 19.2371V16.2568C600.842 11.4319 604.767 7.50759 609.589 7.50759H612.575C613.74 7.50759 614.838 7.05445 615.666 6.22659L617.754 4.14386C621.15 0.727848 626.698 0.71042 630.12 4.11191L632.24 6.2324C633.065 7.05445 634.163 7.50759 635.328 7.50759H638.314C643.136 7.50759 647.06 11.4319 647.06 16.2568V19.24C647.063 20.4048 647.516 21.5057 648.338 22.3336L650.424 24.4192C652.077 26.0633 652.992 28.2535 653.001 30.5918C653.006 32.9157 652.112 35.103 650.482 36.7558C650.453 36.7848 650.427 36.8168 650.398 36.8429L648.336 38.9053C647.516 39.7274 647.063 40.8283 647.06 41.996V44.9792C647.06 49.8011 643.136 53.7255 638.314 53.7255H635.328C634.163 53.7284 633.062 54.1815 632.237 55.0036L630.149 57.0892C628.447 58.803 626.198 59.6628 623.953 59.6628" fill="#EEAB00"/>
<path fill-rule="evenodd" clip-rule="evenodd" d="M618.272 24.9575C617.793 25.4367 617.172 25.6953 616.483 25.6953C615.838 25.6953 615.205 25.4309 614.697 24.9546C614.214 24.4753 613.941 23.8188 613.941 23.1536C613.941 22.5204 614.209 21.8697 614.679 21.3672C614.938 21.1057 615.246 20.9082 615.554 20.8036C616.431 20.4028 617.596 20.6381 618.287 21.3643C618.534 21.6112 618.723 21.8813 618.848 22.1631C618.984 22.4652 619.054 22.8079 619.054 23.1536C619.054 23.8449 618.778 24.4869 618.272 24.9575ZM633.226 21.353C632.236 20.3654 630.623 20.3654 629.633 21.353L614.702 36.2836C613.712 37.2741 613.712 38.8862 614.702 39.8797C615.185 40.359 615.821 40.6233 616.5 40.6233C617.18 40.6233 617.816 40.359 618.296 39.8797L633.226 24.9491C634.217 23.9557 634.217 22.3465 633.226 21.353ZM632.397 35.7436C631.456 35.3485 630.341 35.5635 629.597 36.3071C629.443 36.4872 629.225 36.766 629.077 37.0943C628.92 37.4487 628.9 37.8292 628.9 38.0848C628.9 38.3404 628.92 38.7181 629.077 39.0724C629.222 39.3978 629.397 39.6621 629.626 39.8916C630.152 40.3796 630.762 40.6265 631.442 40.6265C632.086 40.6265 632.72 40.3651 633.24 39.88C633.701 39.4181 633.954 38.7791 633.954 38.0848C633.954 37.3877 633.701 36.7515 633.237 36.2868C632.981 36.034 632.673 35.8365 632.397 35.7436Z" fill="white"/>
<path d="M489.08 73.3527V75.3624H473.662V73.7609L482.8 64.8114C483.951 63.681 484.726 62.7075 485.124 61.8911C485.542 61.0537 485.752 60.2163 485.752 59.3789C485.752 58.081 485.301 57.0761 484.401 56.3643C483.522 55.6316 482.256 55.2653 480.602 55.2653C478.027 55.2653 476.027 56.0817 474.604 57.7146L473.002 56.3329C473.861 55.3281 474.949 54.5535 476.268 54.0092C477.608 53.4649 479.115 53.1927 480.79 53.1927C483.03 53.1927 484.799 53.7266 486.097 54.7942C487.416 55.841 488.075 57.2855 488.075 59.1277C488.075 60.2582 487.824 61.3468 487.322 62.3935C486.819 63.4402 485.867 64.644 484.464 66.0047L476.99 73.3527H489.08Z" fill="#38386C"/>
<path d="M497.696 62.3935C500.878 62.3935 503.191 62.9692 504.635 64.1206C506.101 65.2511 506.834 66.8421 506.834 68.8937C506.834 70.1707 506.53 71.3116 505.923 72.3165C505.337 73.3213 504.447 74.1168 503.254 74.703C502.06 75.2682 500.595 75.5509 498.857 75.5509C497.287 75.5509 495.791 75.2996 494.367 74.7972C492.964 74.2738 491.834 73.583 490.976 72.7247L492.075 70.9348C492.807 71.6884 493.77 72.306 494.964 72.7875C496.157 73.2481 497.444 73.4783 498.826 73.4783C500.647 73.4783 502.05 73.0701 503.034 72.2537C504.039 71.4372 504.541 70.3486 504.541 68.9879C504.541 67.4806 503.976 66.3397 502.845 65.5651C501.736 64.7905 499.852 64.4032 497.193 64.4032H492.514L493.645 53.3812H505.672V55.3909H495.623L494.869 62.3935H497.696Z" fill="#38386C"/>
<path d="M514.045 65.1568C512.558 65.1568 511.355 64.6125 510.433 63.524C509.533 62.4144 509.083 60.9699 509.083 59.1905C509.083 57.4111 509.533 55.977 510.433 54.8884C511.355 53.7789 512.558 53.2242 514.045 53.2242C515.51 53.2242 516.703 53.7684 517.624 54.857C518.546 55.9456 519.006 57.3901 519.006 59.1905C519.006 60.9909 518.546 62.4354 517.624 63.524C516.703 64.6125 515.51 65.1568 514.045 65.1568ZM527.359 53.3812H529.212L514.202 75.3624H512.349L527.359 53.3812ZM514.045 63.7438C515.07 63.7438 515.887 63.346 516.494 62.5505C517.122 61.734 517.436 60.614 517.436 59.1905C517.436 57.7669 517.122 56.6574 516.494 55.8619C515.887 55.0455 515.07 54.6372 514.045 54.6372C512.998 54.6372 512.171 55.0455 511.564 55.8619C510.957 56.6784 510.653 57.7879 510.653 59.1905C510.653 60.5931 510.957 61.7026 511.564 62.5191C512.171 63.3355 512.998 63.7438 514.045 63.7438ZM527.516 75.5195C526.051 75.5195 524.857 74.9752 523.936 73.8866C523.015 72.777 522.555 71.3325 522.555 69.5531C522.555 67.7737 523.015 66.3396 523.936 65.2511C524.857 64.1415 526.051 63.5868 527.516 63.5868C529.002 63.5868 530.196 64.1415 531.096 65.2511C532.017 66.3396 532.478 67.7737 532.478 69.5531C532.478 71.3325 532.017 72.777 531.096 73.8866C530.196 74.9752 529.002 75.5195 527.516 75.5195ZM527.516 74.1064C528.563 74.1064 529.39 73.6981 529.997 72.8817C530.604 72.0653 530.907 70.9557 530.907 69.5531C530.907 68.1505 530.604 67.041 529.997 66.2245C529.39 65.4081 528.563 64.9998 527.516 64.9998C526.49 64.9998 525.663 65.4081 525.035 66.2245C524.428 67.02 524.125 68.1296 524.125 69.5531C524.125 70.9767 524.428 72.0967 525.035 72.9131C525.663 73.7086 526.49 74.1064 527.516 74.1064Z" fill="#38386C"/>
<path d="M551.878 75.5195C550.287 75.5195 548.853 75.1636 547.576 74.4518C546.299 73.7191 545.294 72.7142 544.562 71.4372C543.829 70.1602 543.463 68.7157 543.463 67.1038C543.463 65.4918 543.829 64.0473 544.562 62.7703C545.294 61.4933 546.299 60.4989 547.576 59.7871C548.853 59.0754 550.287 58.7195 551.878 58.7195C553.469 58.7195 554.903 59.0754 556.18 59.7871C557.457 60.4989 558.452 61.4933 559.163 62.7703C559.896 64.0473 560.262 65.4918 560.262 67.1038C560.262 68.7157 559.896 70.1602 559.163 71.4372C558.452 72.7142 557.457 73.7191 556.18 74.4518C554.903 75.1636 553.469 75.5195 551.878 75.5195ZM551.878 73.5411C553.051 73.5411 554.097 73.2795 555.018 72.7561C555.96 72.2118 556.693 71.4477 557.217 70.4638C557.74 69.4798 558.002 68.3598 558.002 67.1038C558.002 65.8477 557.74 64.7277 557.217 63.7438C556.693 62.7598 555.96 62.0062 555.018 61.4828C554.097 60.9385 553.051 60.6664 551.878 60.6664C550.706 60.6664 549.649 60.9385 548.707 61.4828C547.785 62.0062 547.053 62.7598 546.508 63.7438C545.985 64.7277 545.723 65.8477 545.723 67.1038C545.723 68.3598 545.985 69.4798 546.508 70.4638C547.053 71.4477 547.785 72.2118 548.707 72.7561C549.649 73.2795 550.706 73.5411 551.878 73.5411Z" fill="#38386C"/>
<path d="M570.278 53.7894C569.315 53.7894 568.583 54.0511 568.08 54.5744C567.599 55.0978 567.358 55.8724 567.358 56.8982V58.8451H572.445V60.7292H567.421V75.3624H565.191V60.7292H562.239V58.8451H565.191V56.804C565.191 55.2967 565.62 54.1034 566.479 53.2242C567.358 52.3449 568.593 51.9053 570.184 51.9053C570.812 51.9053 571.419 51.9995 572.005 52.1879C572.591 52.3554 573.083 52.6066 573.481 52.9415L572.728 54.6058C572.079 54.0615 571.262 53.7894 570.278 53.7894Z" fill="#38386C"/>
<path d="M580.919 53.7894C579.956 53.7894 579.224 54.0511 578.721 54.5744C578.24 55.0978 577.999 55.8724 577.999 56.8982V58.8451H583.086V60.7292H578.062V75.3624H575.832V60.7292H572.88V58.8451H575.832V56.804C575.832 55.2967 576.261 54.1034 577.12 53.2242C577.999 52.3449 579.234 51.9053 580.825 51.9053C581.453 51.9053 582.06 51.9995 582.646 52.1879C583.233 52.3554 583.724 52.6066 584.122 52.9415L583.369 54.6058C582.72 54.0615 581.903 53.7894 580.919 53.7894Z" fill="#38386C"/>
<g filter="url(#filter1_i_2335_16543)">
<rect x="404.926" y="145.72" width="188.411" height="62.8037" rx="4" fill="white"/>
</g>
<path d="M594.118 175.551C591.884 175.551 589.653 174.702 587.948 173.009L585.828 170.888C585.006 170.069 583.905 169.616 582.737 169.613H579.754C574.932 169.613 571.007 165.689 571.007 160.867V157.881C571.005 156.716 570.551 155.615 569.729 154.787L567.644 152.704C564.228 149.309 564.213 143.758 567.612 140.339L569.732 138.215C570.551 137.393 571.005 136.292 571.007 135.125V132.144C571.007 127.32 574.932 123.395 579.754 123.395H582.74C583.905 123.395 585.003 122.942 585.831 122.114L587.919 120.032C591.315 116.616 596.863 116.598 600.285 120L602.405 122.12C603.23 122.942 604.328 123.395 605.493 123.395H608.479C613.301 123.395 617.225 127.32 617.225 132.144V135.128C617.228 136.292 617.681 137.393 618.503 138.221L620.589 140.307C622.242 141.951 623.157 144.141 623.166 146.48C623.171 148.803 622.277 150.991 620.647 152.643C620.618 152.673 620.592 152.704 620.563 152.731L618.501 154.793C617.681 155.615 617.228 156.716 617.225 157.884V160.867C617.225 165.689 613.301 169.613 608.479 169.613H605.493C604.328 169.616 603.227 170.069 602.402 170.891L600.314 172.977C598.612 174.691 596.363 175.551 594.118 175.551" fill="#EEAB00"/>
<path fill-rule="evenodd" clip-rule="evenodd" d="M588.439 140.846C587.96 141.325 587.338 141.584 586.65 141.584C586.005 141.584 585.371 141.32 584.863 140.843C584.381 140.364 584.108 139.707 584.108 139.042C584.108 138.409 584.375 137.758 584.846 137.256C585.104 136.994 585.412 136.797 585.72 136.692C586.597 136.291 587.762 136.527 588.453 137.253C588.7 137.5 588.889 137.77 589.014 138.052C589.151 138.354 589.22 138.697 589.22 139.042C589.22 139.734 588.944 140.376 588.439 140.846ZM603.393 137.242C602.402 136.254 600.79 136.254 599.799 137.242L584.869 152.172C583.878 153.163 583.878 154.775 584.869 155.768C585.351 156.248 585.987 156.512 586.667 156.512C587.347 156.512 587.983 156.248 588.462 155.768L603.393 140.838C604.383 139.844 604.383 138.235 603.393 137.242ZM602.564 151.632C601.623 151.237 600.507 151.452 599.764 152.196C599.61 152.376 599.392 152.655 599.244 152.983C599.087 153.337 599.066 153.718 599.066 153.973C599.066 154.229 599.087 154.607 599.244 154.961C599.389 155.286 599.563 155.551 599.793 155.78C600.318 156.268 600.928 156.515 601.608 156.515C602.253 156.515 602.886 156.254 603.406 155.769C603.868 155.307 604.121 154.668 604.121 153.973C604.121 153.276 603.868 152.64 603.403 152.175C603.148 151.923 602.84 151.725 602.564 151.632Z" fill="white"/>
<path d="M451.775 174.953C453.219 174.953 454.496 175.225 455.606 175.77C456.736 176.314 457.615 177.088 458.243 178.093C458.871 179.077 459.185 180.229 459.185 181.548C459.185 182.887 458.861 184.07 458.212 185.096C457.563 186.122 456.663 186.917 455.511 187.482C454.381 188.027 453.104 188.299 451.68 188.299C448.77 188.299 446.541 187.346 444.992 185.441C443.443 183.515 442.668 180.804 442.668 177.308C442.668 174.859 443.087 172.786 443.924 171.091C444.761 169.395 445.934 168.118 447.441 167.26C448.948 166.38 450.707 165.941 452.717 165.941C454.894 165.941 456.631 166.339 457.929 167.134L457.019 168.955C455.972 168.265 454.548 167.919 452.748 167.919C450.32 167.919 448.415 168.694 447.033 170.243C445.651 171.771 444.96 174.001 444.96 176.931C444.96 177.455 444.992 178.051 445.055 178.721C445.599 177.528 446.468 176.607 447.661 175.958C448.854 175.288 450.225 174.953 451.775 174.953ZM451.586 186.383C453.177 186.383 454.465 185.954 455.449 185.096C456.453 184.217 456.956 183.055 456.956 181.61C456.956 180.166 456.453 179.014 455.449 178.156C454.465 177.298 453.125 176.869 451.429 176.869C450.32 176.869 449.336 177.078 448.477 177.497C447.64 177.915 446.98 178.491 446.499 179.224C446.017 179.956 445.777 180.773 445.777 181.673C445.777 182.51 445.997 183.285 446.436 183.997C446.897 184.709 447.567 185.284 448.446 185.724C449.325 186.164 450.372 186.383 451.586 186.383Z" fill="#38386C"/>
<path d="M470.565 188.299C468.869 188.299 467.351 187.849 466.011 186.949C464.692 186.048 463.656 184.761 462.903 183.086C462.17 181.39 461.803 179.402 461.803 177.12C461.803 174.838 462.17 172.86 462.903 171.185C463.656 169.489 464.692 168.191 466.011 167.291C467.351 166.391 468.869 165.941 470.565 165.941C472.26 165.941 473.768 166.391 475.086 167.291C476.426 168.191 477.473 169.489 478.227 171.185C478.98 172.86 479.357 174.838 479.357 177.12C479.357 179.402 478.98 181.39 478.227 183.086C477.473 184.761 476.426 186.048 475.086 186.949C473.768 187.849 472.26 188.299 470.565 188.299ZM470.565 186.226C471.842 186.226 472.962 185.87 473.925 185.159C474.908 184.447 475.673 183.411 476.217 182.05C476.761 180.689 477.033 179.046 477.033 177.12C477.033 175.194 476.761 173.551 476.217 172.19C475.673 170.829 474.908 169.793 473.925 169.081C472.962 168.369 471.842 168.013 470.565 168.013C469.288 168.013 468.157 168.369 467.173 169.081C466.21 169.793 465.457 170.829 464.912 172.19C464.368 173.551 464.096 175.194 464.096 177.12C464.096 179.046 464.368 180.689 464.912 182.05C465.457 183.411 466.21 184.447 467.173 185.159C468.157 185.87 469.288 186.226 470.565 186.226Z" fill="#38386C"/>
<path d="M487.242 177.905C485.756 177.905 484.552 177.361 483.631 176.272C482.731 175.162 482.281 173.718 482.281 171.939C482.281 170.159 482.731 168.725 483.631 167.636C484.552 166.527 485.756 165.972 487.242 165.972C488.708 165.972 489.901 166.516 490.822 167.605C491.743 168.694 492.204 170.138 492.204 171.939C492.204 173.739 491.743 175.183 490.822 176.272C489.901 177.361 488.708 177.905 487.242 177.905ZM500.557 166.129H502.409L487.399 188.11H485.547L500.557 166.129ZM487.242 176.492C488.268 176.492 489.085 176.094 489.692 175.299C490.32 174.482 490.634 173.362 490.634 171.939C490.634 170.515 490.32 169.405 489.692 168.61C489.085 167.794 488.268 167.385 487.242 167.385C486.196 167.385 485.369 167.794 484.762 168.61C484.155 169.426 483.851 170.536 483.851 171.939C483.851 173.341 484.155 174.451 484.762 175.267C485.369 176.084 486.196 176.492 487.242 176.492ZM500.714 188.267C499.248 188.267 498.055 187.723 497.134 186.635C496.213 185.525 495.752 184.081 495.752 182.301C495.752 180.522 496.213 179.088 497.134 177.999C498.055 176.89 499.248 176.335 500.714 176.335C502.2 176.335 503.393 176.89 504.294 177.999C505.215 179.088 505.675 180.522 505.675 182.301C505.675 184.081 505.215 185.525 504.294 186.635C503.393 187.723 502.2 188.267 500.714 188.267ZM500.714 186.854C501.76 186.854 502.587 186.446 503.195 185.63C503.802 184.813 504.105 183.704 504.105 182.301C504.105 180.899 503.802 179.789 503.195 178.973C502.587 178.156 501.76 177.748 500.714 177.748C499.688 177.748 498.861 178.156 498.233 178.973C497.626 179.768 497.322 180.878 497.322 182.301C497.322 183.725 497.626 184.845 498.233 185.661C498.861 186.457 499.688 186.854 500.714 186.854Z" fill="#38386C"/>
<path d="M525.076 188.267C523.485 188.267 522.051 187.912 520.774 187.2C519.497 186.467 518.492 185.462 517.759 184.185C517.027 182.908 516.66 181.464 516.66 179.852C516.66 178.24 517.027 176.795 517.759 175.518C518.492 174.241 519.497 173.247 520.774 172.535C522.051 171.823 523.485 171.468 525.076 171.468C526.667 171.468 528.101 171.823 529.378 172.535C530.655 173.247 531.649 174.241 532.361 175.518C533.094 176.795 533.46 178.24 533.46 179.852C533.46 181.464 533.094 182.908 532.361 184.185C531.649 185.462 530.655 186.467 529.378 187.2C528.101 187.912 526.667 188.267 525.076 188.267ZM525.076 186.289C526.248 186.289 527.295 186.028 528.216 185.504C529.158 184.96 529.891 184.196 530.414 183.212C530.938 182.228 531.199 181.108 531.199 179.852C531.199 178.596 530.938 177.476 530.414 176.492C529.891 175.508 529.158 174.754 528.216 174.231C527.295 173.687 526.248 173.414 525.076 173.414C523.904 173.414 522.846 173.687 521.904 174.231C520.983 174.754 520.251 175.508 519.706 176.492C519.183 177.476 518.921 178.596 518.921 179.852C518.921 181.108 519.183 182.228 519.706 183.212C520.251 184.196 520.983 184.96 521.904 185.504C522.846 186.028 523.904 186.289 525.076 186.289Z" fill="#38386C"/>
<path d="M543.476 166.537C542.513 166.537 541.78 166.799 541.278 167.322C540.796 167.846 540.556 168.62 540.556 169.646V171.593H545.643V173.477H540.618V188.11H538.389V173.477H535.437V171.593H538.389V169.552C538.389 168.045 538.818 166.851 539.676 165.972C540.556 165.093 541.791 164.653 543.382 164.653C544.01 164.653 544.617 164.748 545.203 164.936C545.789 165.103 546.281 165.355 546.679 165.69L545.925 167.354C545.276 166.81 544.46 166.537 543.476 166.537Z" fill="#38386C"/>
<path d="M554.117 166.537C553.154 166.537 552.421 166.799 551.919 167.322C551.437 167.846 551.197 168.62 551.197 169.646V171.593H556.284V173.477H551.259V188.11H549.03V173.477H546.078V171.593H549.03V169.552C549.03 168.045 549.459 166.851 550.317 165.972C551.197 165.093 552.432 164.653 554.023 164.653C554.651 164.653 555.258 164.748 555.844 164.936C556.43 165.103 556.922 165.355 557.32 165.69L556.566 167.354C555.917 166.81 555.101 166.537 554.117 166.537Z" fill="#38386C"/>
<g filter="url(#filter2_i_2335_16543)">
<rect x="387.654" y="260.626" width="188.411" height="62.8037" rx="4" fill="white"/>
</g>
<path d="M575.276 292.026C573.042 292.026 570.811 291.178 569.106 289.484L566.986 287.364C566.164 286.545 565.063 286.092 563.895 286.089H560.912C556.09 286.089 552.166 282.164 552.166 277.342V274.356C552.163 273.192 551.71 272.091 550.888 271.263L548.802 269.18C545.386 265.784 545.371 260.233 548.77 256.814L550.89 254.691C551.71 253.869 552.163 252.768 552.166 251.6V248.62C552.166 243.795 556.09 239.871 560.912 239.871H563.898C565.063 239.871 566.161 239.418 566.989 238.59L569.077 236.507C572.473 233.091 578.021 233.074 581.443 236.475L583.563 238.596C584.388 239.418 585.486 239.871 586.651 239.871H589.637C594.459 239.871 598.384 243.795 598.384 248.62V251.603C598.386 252.768 598.84 253.869 599.662 254.697L601.747 256.782C603.4 258.427 604.315 260.617 604.324 262.955C604.33 265.279 603.435 267.466 601.805 269.119C601.776 269.148 601.75 269.18 601.721 269.206L599.659 271.269C598.84 272.091 598.386 273.192 598.384 274.359V277.342C598.384 282.164 594.459 286.089 589.637 286.089H586.651C585.486 286.092 584.385 286.545 583.56 287.367L581.472 289.452C579.77 291.166 577.521 292.026 575.276 292.026" fill="#EEAB00"/>
<path fill-rule="evenodd" clip-rule="evenodd" d="M569.595 257.322C569.115 257.801 568.494 258.06 567.805 258.06C567.16 258.06 566.527 257.795 566.019 257.319C565.537 256.84 565.264 256.183 565.264 255.518C565.264 254.885 565.531 254.234 566.001 253.731C566.26 253.47 566.568 253.272 566.876 253.168C567.753 252.767 568.918 253.002 569.609 253.729C569.856 253.975 570.045 254.246 570.17 254.527C570.306 254.829 570.376 255.172 570.376 255.518C570.376 256.209 570.1 256.851 569.595 257.322ZM584.548 253.717C583.558 252.73 581.946 252.73 580.955 253.717L566.025 268.648C565.034 269.638 565.034 271.251 566.025 272.244C566.507 272.723 567.143 272.988 567.823 272.988C568.502 272.988 569.139 272.723 569.618 272.244L584.548 257.313C585.539 256.32 585.539 254.711 584.548 253.717ZM583.72 268.108C582.778 267.713 581.663 267.928 580.919 268.671C580.765 268.851 580.548 269.13 580.399 269.459C580.243 269.813 580.222 270.193 580.222 270.449C580.222 270.705 580.243 271.082 580.399 271.437C580.545 271.762 580.719 272.026 580.948 272.256C581.474 272.744 582.084 272.991 582.764 272.991C583.409 272.991 584.042 272.729 584.562 272.244C585.024 271.782 585.276 271.143 585.276 270.449C585.276 269.752 585.024 269.116 584.559 268.651C584.303 268.398 583.995 268.201 583.72 268.108Z" fill="white"/>
<path d="M444.084 297.24H439.688V303.018H437.427V297.24H425.023V295.607L436.674 281.036H439.186L427.944 295.23H437.49V290.143H439.688V295.23H444.084V297.24Z" fill="#38386C"/>
<path d="M454.922 303.206C453.226 303.206 451.709 302.756 450.369 301.856C449.05 300.956 448.014 299.668 447.26 297.993C446.527 296.298 446.161 294.309 446.161 292.027C446.161 289.745 446.527 287.767 447.26 286.092C448.014 284.396 449.05 283.098 450.369 282.198C451.709 281.298 453.226 280.848 454.922 280.848C456.618 280.848 458.125 281.298 459.444 282.198C460.784 283.098 461.831 284.396 462.584 286.092C463.338 287.767 463.715 289.745 463.715 292.027C463.715 294.309 463.338 296.298 462.584 297.993C461.831 299.668 460.784 300.956 459.444 301.856C458.125 302.756 456.618 303.206 454.922 303.206ZM454.922 301.134C456.199 301.134 457.319 300.778 458.282 300.066C459.266 299.354 460.03 298.318 460.574 296.957C461.119 295.596 461.391 293.953 461.391 292.027C461.391 290.101 461.119 288.458 460.574 287.097C460.03 285.736 459.266 284.7 458.282 283.988C457.319 283.276 456.199 282.921 454.922 282.921C453.645 282.921 452.515 283.276 451.531 283.988C450.568 284.7 449.814 285.736 449.27 287.097C448.726 288.458 448.453 290.101 448.453 292.027C448.453 293.953 448.726 295.596 449.27 296.957C449.814 298.318 450.568 299.354 451.531 300.066C452.515 300.778 453.645 301.134 454.922 301.134Z" fill="#38386C"/>
<path d="M471.6 292.812C470.114 292.812 468.91 292.268 467.989 291.179C467.089 290.07 466.638 288.625 466.638 286.846C466.638 285.066 467.089 283.632 467.989 282.544C468.91 281.434 470.114 280.879 471.6 280.879C473.065 280.879 474.259 281.424 475.18 282.512C476.101 283.601 476.561 285.045 476.561 286.846C476.561 288.646 476.101 290.091 475.18 291.179C474.259 292.268 473.065 292.812 471.6 292.812ZM484.914 281.036H486.767L471.757 303.018H469.904L484.914 281.036ZM471.6 291.399C472.626 291.399 473.442 291.001 474.049 290.206C474.677 289.389 474.991 288.269 474.991 286.846C474.991 285.422 474.677 284.313 474.049 283.517C473.442 282.701 472.626 282.293 471.6 282.293C470.553 282.293 469.726 282.701 469.119 283.517C468.512 284.334 468.209 285.443 468.209 286.846C468.209 288.248 468.512 289.358 469.119 290.174C469.726 290.991 470.553 291.399 471.6 291.399ZM485.071 303.175C483.606 303.175 482.413 302.63 481.492 301.542C480.57 300.432 480.11 298.988 480.11 297.208C480.11 295.429 480.57 293.995 481.492 292.906C482.413 291.797 483.606 291.242 485.071 291.242C486.558 291.242 487.751 291.797 488.651 292.906C489.572 293.995 490.033 295.429 490.033 297.208C490.033 298.988 489.572 300.432 488.651 301.542C487.751 302.63 486.558 303.175 485.071 303.175ZM485.071 301.762C486.118 301.762 486.945 301.353 487.552 300.537C488.159 299.721 488.463 298.611 488.463 297.208C488.463 295.806 488.159 294.696 487.552 293.88C486.945 293.063 486.118 292.655 485.071 292.655C484.046 292.655 483.219 293.063 482.591 293.88C481.984 294.675 481.68 295.785 481.68 297.208C481.68 298.632 481.984 299.752 482.591 300.568C483.219 301.364 484.046 301.762 485.071 301.762Z" fill="#38386C"/>
<path d="M509.434 303.175C507.843 303.175 506.408 302.819 505.131 302.107C503.854 301.374 502.85 300.369 502.117 299.092C501.384 297.815 501.018 296.371 501.018 294.759C501.018 293.147 501.384 291.703 502.117 290.426C502.85 289.149 503.854 288.154 505.131 287.442C506.408 286.731 507.843 286.375 509.434 286.375C511.025 286.375 512.459 286.731 513.736 287.442C515.013 288.154 516.007 289.149 516.719 290.426C517.451 291.703 517.818 293.147 517.818 294.759C517.818 296.371 517.451 297.815 516.719 299.092C516.007 300.369 515.013 301.374 513.736 302.107C512.459 302.819 511.025 303.175 509.434 303.175ZM509.434 301.196C510.606 301.196 511.653 300.935 512.574 300.411C513.516 299.867 514.248 299.103 514.772 298.119C515.295 297.135 515.557 296.015 515.557 294.759C515.557 293.503 515.295 292.383 514.772 291.399C514.248 290.415 513.516 289.661 512.574 289.138C511.653 288.594 510.606 288.322 509.434 288.322C508.261 288.322 507.204 288.594 506.262 289.138C505.341 289.661 504.608 290.415 504.064 291.399C503.54 292.383 503.279 293.503 503.279 294.759C503.279 296.015 503.54 297.135 504.064 298.119C504.608 299.103 505.341 299.867 506.262 300.411C507.204 300.935 508.261 301.196 509.434 301.196Z" fill="#38386C"/>
<path d="M527.834 281.445C526.871 281.445 526.138 281.706 525.635 282.23C525.154 282.753 524.913 283.528 524.913 284.553V286.5H530V288.384H524.976V303.018H522.746V288.384H519.795V286.5H522.746V284.459C522.746 282.952 523.176 281.759 524.034 280.879C524.913 280 526.148 279.561 527.739 279.561C528.367 279.561 528.974 279.655 529.561 279.843C530.147 280.011 530.639 280.262 531.037 280.597L530.283 282.261C529.634 281.717 528.817 281.445 527.834 281.445Z" fill="#38386C"/>
<path d="M538.475 281.445C537.512 281.445 536.779 281.706 536.276 282.23C535.795 282.753 535.554 283.528 535.554 284.553V286.5H540.641V288.384H535.617V303.018H533.387V288.384H530.436V286.5H533.387V284.459C533.387 282.952 533.817 281.759 534.675 280.879C535.554 280 536.789 279.561 538.38 279.561C539.008 279.561 539.616 279.655 540.202 279.843C540.788 280.011 541.28 280.262 541.678 280.597L540.924 282.261C540.275 281.717 539.459 281.445 538.475 281.445Z" fill="#38386C"/>
<g filter="url(#filter3_i_2335_16543)">
<g clip-path="url(#clip0_2335_16543)">
<rect width="333" height="324" rx="162" fill="white"/>
<path d="M216.203 141.306H226.754L240.821 117.391C240.821 117.391 221.83 117.391 216.203 123.018C212.678 126.542 192.287 106.84 192.287 106.84V123.018L157.821 128.645C157.821 128.645 153.706 118.934 157.821 117.391C169.075 113.17 178.923 106.84 178.923 106.84L166.262 97.6957L183.143 90.6617L200.728 73.0769L192.287 49.1616L200.728 35.0938V22.4327L236.601 4.14453H264.033L318.195 54.0854L340 102.619L300.61 117.391H288.652C288.652 117.391 296.389 144.823 297.796 151.857C298.592 155.834 292.162 160.73 288.652 156.781C283.025 150.45 259.813 128.645 259.813 128.645L275.991 150.45L288.652 165.925C288.652 165.925 268.957 298.162 247.855 278.467C221.315 253.696 200.728 198.281 200.728 198.281C200.728 198.281 166.262 210.942 153.601 207.425C141.141 203.964 130.389 174.365 130.389 174.365C130.389 174.365 126.35 162.334 130.389 156.781C141.643 141.306 178.923 131.458 192.287 128.645C202.628 126.468 216.203 141.306 216.203 141.306Z" fill="#CDCDE5"/>
<path d="M177.516 313.637L92.4058 312.934C110.81 320.076 129.569 331.114 147.974 338.256C147.974 338.256 164.806 338.225 177.516 338.256C189.953 338.285 199.59 339.308 211.982 338.256C238.328 336.019 271.067 305.196 271.067 305.196H252.076L190.177 319.967L177.516 313.637Z" fill="#CDCDE5"/>
<path d="M34.7289 231.34L69.1951 286.908L55.8307 231.34L75.5256 221.493L69.1951 211.645L102.958 198.281V183.509C102.958 183.509 86.7799 170.848 75.5256 158.891C62.9473 145.526 34.7289 145.526 34.7289 145.526V127.942L69.1951 113.874L75.5256 94.8821L102.958 89.9584L136.017 51.2718L162.043 37.204V23.1361H150.085L162.043 2.73775L127.577 23.1361L107.178 -3.59277L34.7289 51.2718L24.8814 89.9584V123.018V145.526L8 161.704L34.7289 231.34Z" fill="#CDCDE5"/>
<path d="M318.198 155.373C309.704 152.405 306.24 135.678 306.24 135.678C306.24 135.678 324.218 128.469 330.155 135.678C335.045 141.616 330.155 155.373 330.155 155.373C330.155 155.373 322.606 156.914 318.198 155.373Z" fill="#CDCDE5"/>
<path d="M147.977 3.4407L143.757 -5H170.485L211.282 -0.779648L197.214 11.8814L170.485 -0.779648L147.977 3.4407Z" fill="#CDCDE5"/>
<path d="M147.977 106.136C143.756 103.322 140.017 86.0486 147.977 85.7376C153.425 85.5246 157.964 89.4584 158.528 94.8817C159.151 100.874 152.99 109.478 147.977 106.136Z" fill="#CDCDE5"/>
</g>
</g>
<path d="M439.212 69.084L436.325 66.1972L433.439 69.084L436.325 71.9707L439.212 69.084ZM283.531 68.584L278.531 66.1972V71.9707L283.531 69.584V68.584ZM280.049 69.584C280.325 69.584 280.549 69.3601 280.549 69.084C280.549 68.8078 280.325 68.584 280.049 68.584V69.584ZM283.083 68.584C282.807 68.584 282.583 68.8078 282.583 69.084C282.583 69.3601 282.807 69.584 283.083 69.584V68.584ZM286.118 69.584C286.394 69.584 286.618 69.3601 286.618 69.084C286.618 68.8078 286.394 68.584 286.118 68.584V69.584ZM289.152 68.584C288.876 68.584 288.652 68.8078 288.652 69.084C288.652 69.3601 288.876 69.584 289.152 69.584V68.584ZM292.187 69.584C292.463 69.584 292.687 69.3601 292.687 69.084C292.687 68.8078 292.463 68.584 292.187 68.584V69.584ZM295.221 68.584C294.945 68.584 294.721 68.8078 294.721 69.084C294.721 69.3601 294.945 69.584 295.221 69.584V68.584ZM298.256 69.584C298.532 69.584 298.756 69.3601 298.756 69.084C298.756 68.8078 298.532 68.584 298.256 68.584V69.584ZM301.29 68.584C301.014 68.584 300.79 68.8078 300.79 69.084C300.79 69.3601 301.014 69.584 301.29 69.584V68.584ZM304.325 69.584C304.601 69.584 304.825 69.3601 304.825 69.084C304.825 68.8078 304.601 68.584 304.325 68.584V69.584ZM307.359 68.584C307.083 68.584 306.859 68.8078 306.859 69.084C306.859 69.3601 307.083 69.584 307.359 69.584V68.584ZM310.394 69.584C310.67 69.584 310.894 69.3601 310.894 69.084C310.894 68.8078 310.67 68.584 310.394 68.584V69.584ZM313.428 68.584C313.152 68.584 312.928 68.8078 312.928 69.084C312.928 69.3601 313.152 69.584 313.428 69.584V68.584ZM316.463 69.584C316.739 69.584 316.963 69.3601 316.963 69.084C316.963 68.8078 316.739 68.584 316.463 68.584V69.584ZM319.497 68.584C319.221 68.584 318.997 68.8078 318.997 69.084C318.997 69.3601 319.221 69.584 319.497 69.584V68.584ZM322.532 69.584C322.808 69.584 323.032 69.3601 323.032 69.084C323.032 68.8078 322.808 68.584 322.532 68.584V69.584ZM325.566 68.584C325.29 68.584 325.066 68.8078 325.066 69.084C325.066 69.3601 325.29 69.584 325.566 69.584V68.584ZM328.601 69.584C328.877 69.584 329.101 69.3601 329.101 69.084C329.101 68.8078 328.877 68.584 328.601 68.584V69.584ZM331.635 68.584C331.359 68.584 331.135 68.8078 331.135 69.084C331.135 69.3601 331.359 69.584 331.635 69.584V68.584ZM334.67 69.584C334.946 69.584 335.17 69.3601 335.17 69.084C335.17 68.8078 334.946 68.584 334.67 68.584V69.584ZM337.704 68.584C337.428 68.584 337.204 68.8078 337.204 69.084C337.204 69.3601 337.428 69.584 337.704 69.584V68.584ZM340.739 69.584C341.015 69.584 341.239 69.3601 341.239 69.084C341.239 68.8078 341.015 68.584 340.739 68.584V69.584ZM343.773 68.584C343.497 68.584 343.273 68.8078 343.273 69.084C343.273 69.3601 343.497 69.584 343.773 69.584V68.584ZM346.808 69.584C347.084 69.584 347.308 69.3601 347.308 69.084C347.308 68.8078 347.084 68.584 346.808 68.584V69.584ZM349.842 68.584C349.566 68.584 349.342 68.8078 349.342 69.084C349.342 69.3601 349.566 69.584 349.842 69.584V68.584ZM352.877 69.584C353.153 69.584 353.377 69.3601 353.377 69.084C353.377 68.8078 353.153 68.584 352.877 68.584V69.584ZM355.911 68.584C355.635 68.584 355.411 68.8078 355.411 69.084C355.411 69.3601 355.635 69.584 355.911 69.584V68.584ZM358.946 69.584C359.222 69.584 359.446 69.3601 359.446 69.084C359.446 68.8078 359.222 68.584 358.946 68.584V69.584ZM361.98 68.584C361.704 68.584 361.48 68.8078 361.48 69.084C361.48 69.3601 361.704 69.584 361.98 69.584V68.584ZM365.015 69.584C365.291 69.584 365.515 69.3601 365.515 69.084C365.515 68.8078 365.291 68.584 365.015 68.584V69.584ZM368.049 68.584C367.773 68.584 367.549 68.8078 367.549 69.084C367.549 69.3601 367.773 69.584 368.049 69.584V68.584ZM371.084 69.584C371.36 69.584 371.584 69.3601 371.584 69.084C371.584 68.8078 371.36 68.584 371.084 68.584V69.584ZM374.118 68.584C373.842 68.584 373.618 68.8078 373.618 69.084C373.618 69.3601 373.842 69.584 374.118 69.584V68.584ZM377.153 69.584C377.429 69.584 377.653 69.3601 377.653 69.084C377.653 68.8078 377.429 68.584 377.153 68.584V69.584ZM380.187 68.584C379.911 68.584 379.687 68.8078 379.687 69.084C379.687 69.3601 379.911 69.584 380.187 69.584V68.584ZM383.222 69.584C383.498 69.584 383.722 69.3601 383.722 69.084C383.722 68.8078 383.498 68.584 383.222 68.584V69.584ZM386.256 68.584C385.98 68.584 385.756 68.8078 385.756 69.084C385.756 69.3601 385.98 69.584 386.256 69.584V68.584ZM389.291 69.584C389.567 69.584 389.791 69.3601 389.791 69.084C389.791 68.8078 389.567 68.584 389.291 68.584V69.584ZM392.325 68.584C392.049 68.584 391.825 68.8078 391.825 69.084C391.825 69.3601 392.049 69.584 392.325 69.584V68.584ZM395.36 69.584C395.636 69.584 395.86 69.3601 395.86 69.084C395.86 68.8078 395.636 68.584 395.36 68.584V69.584ZM398.394 68.584C398.118 68.584 397.894 68.8078 397.894 69.084C397.894 69.3601 398.118 69.584 398.394 69.584V68.584ZM401.429 69.584C401.705 69.584 401.929 69.3601 401.929 69.084C401.929 68.8078 401.705 68.584 401.429 68.584V69.584ZM404.463 68.584C404.187 68.584 403.963 68.8078 403.963 69.084C403.963 69.3601 404.187 69.584 404.463 69.584V68.584ZM407.498 69.584C407.774 69.584 407.998 69.3601 407.998 69.084C407.998 68.8078 407.774 68.584 407.498 68.584V69.584ZM410.532 68.584C410.256 68.584 410.032 68.8078 410.032 69.084C410.032 69.3601 410.256 69.584 410.532 69.584V68.584ZM413.567 69.584C413.843 69.584 414.067 69.3601 414.067 69.084C414.067 68.8078 413.843 68.584 413.567 68.584V69.584ZM416.601 68.584C416.325 68.584 416.101 68.8078 416.101 69.084C416.101 69.3601 416.325 69.584 416.601 69.584V68.584ZM419.636 69.584C419.912 69.584 420.136 69.3601 420.136 69.084C420.136 68.8078 419.912 68.584 419.636 68.584V69.584ZM422.67 68.584C422.394 68.584 422.17 68.8078 422.17 69.084C422.17 69.3601 422.394 69.584 422.67 69.584V68.584ZM425.705 69.584C425.981 69.584 426.205 69.3601 426.205 69.084C426.205 68.8078 425.981 68.584 425.705 68.584V69.584ZM428.739 68.584C428.463 68.584 428.239 68.8078 428.239 69.084C428.239 69.3601 428.463 69.584 428.739 69.584V68.584ZM431.774 69.584C432.05 69.584 432.274 69.3601 432.274 69.084C432.274 68.8078 432.05 68.584 431.774 68.584V69.584ZM434.808 68.584C434.532 68.584 434.308 68.8078 434.308 69.084C434.308 69.3601 434.532 69.584 434.808 69.584V68.584ZM283.083 69.584H286.118V68.584H283.083V69.584ZM289.152 69.584H292.187V68.584H289.152V69.584ZM295.221 69.584H298.256V68.584H295.221V69.584ZM301.29 69.584H304.325V68.584H301.29V69.584ZM307.359 69.584H310.394V68.584H307.359V69.584ZM313.428 69.584H316.463V68.584H313.428V69.584ZM319.497 69.584H322.532V68.584H319.497V69.584ZM325.566 69.584H328.601V68.584H325.566V69.584ZM331.635 69.584H334.67V68.584H331.635V69.584ZM337.704 69.584H340.739V68.584H337.704V69.584ZM343.773 69.584H346.808V68.584H343.773V69.584ZM349.842 69.584H352.877V68.584H349.842V69.584ZM355.911 69.584H358.946V68.584H355.911V69.584ZM361.98 69.584H365.015V68.584H361.98V69.584ZM368.049 69.584H371.084V68.584H368.049V69.584ZM374.118 69.584H377.153V68.584H374.118V69.584ZM380.187 69.584H383.222V68.584H380.187V69.584ZM386.256 69.584H389.291V68.584H386.256V69.584ZM392.325 69.584H395.36V68.584H392.325V69.584ZM398.394 69.584H401.429V68.584H398.394V69.584ZM404.463 69.584H407.498V68.584H404.463V69.584ZM410.532 69.584H413.567V68.584H410.532V69.584ZM416.601 69.584H419.636V68.584H416.601V69.584ZM422.67 69.584H425.705V68.584H422.67V69.584ZM428.739 69.584H431.774V68.584H428.739V69.584ZM434.808 69.584H436.325V68.584H434.808V69.584Z" fill="#38386C"/>
<path d="M407.812 178.691L404.925 175.805L402.038 178.691L404.925 181.578L407.812 178.691ZM252.131 178.191L247.131 175.805V181.578L252.131 179.191V178.191ZM248.648 179.191C248.924 179.191 249.148 178.968 249.148 178.691C249.148 178.415 248.924 178.191 248.648 178.191V179.191ZM251.683 178.191C251.406 178.191 251.183 178.415 251.183 178.691C251.183 178.968 251.406 179.191 251.683 179.191V178.191ZM254.717 179.191C254.993 179.191 255.217 178.968 255.217 178.691C255.217 178.415 254.993 178.191 254.717 178.191V179.191ZM257.752 178.191C257.475 178.191 257.252 178.415 257.252 178.691C257.252 178.968 257.475 179.191 257.752 179.191V178.191ZM260.786 179.191C261.062 179.191 261.286 178.968 261.286 178.691C261.286 178.415 261.062 178.191 260.786 178.191V179.191ZM263.821 178.191C263.544 178.191 263.321 178.415 263.321 178.691C263.321 178.968 263.544 179.191 263.821 179.191V178.191ZM266.855 179.191C267.131 179.191 267.355 178.968 267.355 178.691C267.355 178.415 267.131 178.191 266.855 178.191V179.191ZM269.89 178.191C269.613 178.191 269.39 178.415 269.39 178.691C269.39 178.968 269.613 179.191 269.89 179.191V178.191ZM272.924 179.191C273.2 179.191 273.424 178.968 273.424 178.691C273.424 178.415 273.2 178.191 272.924 178.191V179.191ZM275.959 178.191C275.683 178.191 275.459 178.415 275.459 178.691C275.459 178.968 275.683 179.191 275.959 179.191V178.191ZM278.993 179.191C279.269 179.191 279.493 178.968 279.493 178.691C279.493 178.415 279.269 178.191 278.993 178.191V179.191ZM282.028 178.191C281.752 178.191 281.528 178.415 281.528 178.691C281.528 178.968 281.752 179.191 282.028 179.191V178.191ZM285.062 179.191C285.338 179.191 285.562 178.968 285.562 178.691C285.562 178.415 285.338 178.191 285.062 178.191V179.191ZM288.097 178.191C287.821 178.191 287.597 178.415 287.597 178.691C287.597 178.968 287.821 179.191 288.097 179.191V178.191ZM291.131 179.191C291.407 179.191 291.631 178.968 291.631 178.691C291.631 178.415 291.407 178.191 291.131 178.191V179.191ZM294.166 178.191C293.89 178.191 293.666 178.415 293.666 178.691C293.666 178.968 293.89 179.191 294.166 179.191V178.191ZM297.2 179.191C297.476 179.191 297.7 178.968 297.7 178.691C297.7 178.415 297.476 178.191 297.2 178.191V179.191ZM300.235 178.191C299.959 178.191 299.735 178.415 299.735 178.691C299.735 178.968 299.959 179.191 300.235 179.191V178.191ZM303.269 179.191C303.545 179.191 303.769 178.968 303.769 178.691C303.769 178.415 303.545 178.191 303.269 178.191V179.191ZM306.304 178.191C306.028 178.191 305.804 178.415 305.804 178.691C305.804 178.968 306.028 179.191 306.304 179.191V178.191ZM309.338 179.191C309.614 179.191 309.838 178.968 309.838 178.691C309.838 178.415 309.614 178.191 309.338 178.191V179.191ZM312.373 178.191C312.097 178.191 311.873 178.415 311.873 178.691C311.873 178.968 312.097 179.191 312.373 179.191V178.191ZM315.407 179.191C315.683 179.191 315.907 178.968 315.907 178.691C315.907 178.415 315.683 178.191 315.407 178.191V179.191ZM318.442 178.191C318.166 178.191 317.942 178.415 317.942 178.691C317.942 178.968 318.166 179.191 318.442 179.191V178.191ZM321.476 179.191C321.752 179.191 321.976 178.968 321.976 178.691C321.976 178.415 321.752 178.191 321.476 178.191V179.191ZM324.511 178.191C324.235 178.191 324.011 178.415 324.011 178.691C324.011 178.968 324.235 179.191 324.511 179.191V178.191ZM327.545 179.191C327.821 179.191 328.045 178.968 328.045 178.691C328.045 178.415 327.821 178.191 327.545 178.191V179.191ZM330.58 178.191C330.304 178.191 330.08 178.415 330.08 178.691C330.08 178.968 330.304 179.191 330.58 179.191V178.191ZM333.614 179.191C333.89 179.191 334.114 178.968 334.114 178.691C334.114 178.415 333.89 178.191 333.614 178.191V179.191ZM336.649 178.191C336.373 178.191 336.149 178.415 336.149 178.691C336.149 178.968 336.373 179.191 336.649 179.191V178.191ZM339.683 179.191C339.959 179.191 340.183 178.968 340.183 178.691C340.183 178.415 339.959 178.191 339.683 178.191V179.191ZM342.718 178.191C342.442 178.191 342.218 178.415 342.218 178.691C342.218 178.968 342.442 179.191 342.718 179.191V178.191ZM345.752 179.191C346.028 179.191 346.252 178.968 346.252 178.691C346.252 178.415 346.028 178.191 345.752 178.191V179.191ZM348.787 178.191C348.511 178.191 348.287 178.415 348.287 178.691C348.287 178.968 348.511 179.191 348.787 179.191V178.191ZM351.821 179.191C352.097 179.191 352.321 178.968 352.321 178.691C352.321 178.415 352.097 178.191 351.821 178.191V179.191ZM354.856 178.191C354.58 178.191 354.356 178.415 354.356 178.691C354.356 178.968 354.58 179.191 354.856 179.191V178.191ZM357.89 179.191C358.166 179.191 358.39 178.968 358.39 178.691C358.39 178.415 358.166 178.191 357.89 178.191V179.191ZM360.925 178.191C360.649 178.191 360.425 178.415 360.425 178.691C360.425 178.968 360.649 179.191 360.925 179.191V178.191ZM363.959 179.191C364.235 179.191 364.459 178.968 364.459 178.691C364.459 178.415 364.235 178.191 363.959 178.191V179.191ZM366.994 178.191C366.718 178.191 366.494 178.415 366.494 178.691C366.494 178.968 366.718 179.191 366.994 179.191V178.191ZM370.028 179.191C370.304 179.191 370.528 178.968 370.528 178.691C370.528 178.415 370.304 178.191 370.028 178.191V179.191ZM373.063 178.191C372.787 178.191 372.563 178.415 372.563 178.691C372.563 178.968 372.787 179.191 373.063 179.191V178.191ZM376.097 179.191C376.373 179.191 376.597 178.968 376.597 178.691C376.597 178.415 376.373 178.191 376.097 178.191V179.191ZM379.132 178.191C378.856 178.191 378.632 178.415 378.632 178.691C378.632 178.968 378.856 179.191 379.132 179.191V178.191ZM382.166 179.191C382.442 179.191 382.666 178.968 382.666 178.691C382.666 178.415 382.442 178.191 382.166 178.191V179.191ZM385.201 178.191C384.925 178.191 384.701 178.415 384.701 178.691C384.701 178.968 384.925 179.191 385.201 179.191V178.191ZM388.235 179.191C388.511 179.191 388.735 178.968 388.735 178.691C388.735 178.415 388.511 178.191 388.235 178.191V179.191ZM391.27 178.191C390.994 178.191 390.77 178.415 390.77 178.691C390.77 178.968 390.994 179.191 391.27 179.191V178.191ZM394.304 179.191C394.58 179.191 394.804 178.968 394.804 178.691C394.804 178.415 394.58 178.191 394.304 178.191V179.191ZM397.339 178.191C397.063 178.191 396.839 178.415 396.839 178.691C396.839 178.968 397.063 179.191 397.339 179.191V178.191ZM400.373 179.191C400.649 179.191 400.873 178.968 400.873 178.691C400.873 178.415 400.649 178.191 400.373 178.191V179.191ZM403.408 178.191C403.132 178.191 402.908 178.415 402.908 178.691C402.908 178.968 403.132 179.191 403.408 179.191V178.191ZM251.683 179.191H254.717V178.191H251.683V179.191ZM257.752 179.191H260.786V178.191H257.752V179.191ZM263.821 179.191H266.855V178.191H263.821V179.191ZM269.89 179.191H272.924V178.191H269.89V179.191ZM275.959 179.191H278.993V178.191H275.959V179.191ZM282.028 179.191H285.062V178.191H282.028V179.191ZM288.097 179.191H291.131V178.191H288.097V179.191ZM294.166 179.191H297.2V178.191H294.166V179.191ZM300.235 179.191H303.269V178.191H300.235V179.191ZM306.304 179.191H309.338V178.191H306.304V179.191ZM312.373 179.191H315.407V178.191H312.373V179.191ZM318.442 179.191H321.476V178.191H318.442V179.191ZM324.511 179.191H327.545V178.191H324.511V179.191ZM330.58 179.191H333.614V178.191H330.58V179.191ZM336.649 179.191H339.683V178.191H336.649V179.191ZM342.718 179.191H345.752V178.191H342.718V179.191ZM348.787 179.191H351.821V178.191H348.787V179.191ZM354.856 179.191H357.89V178.191H354.856V179.191ZM360.925 179.191H363.959V178.191H360.925V179.191ZM366.994 179.191H370.028V178.191H366.994V179.191ZM373.063 179.191H376.097V178.191H373.063V179.191ZM379.132 179.191H382.166V178.191H379.132V179.191ZM385.201 179.191H388.235V178.191H385.201V179.191ZM391.27 179.191H394.304V178.191H391.27V179.191ZM397.339 179.191H400.373V178.191H397.339V179.191ZM403.408 179.191H404.925V178.191H403.408V179.191Z" fill="#38386C"/>
<path d="M263.617 230.794H264.117V230.294H263.617V230.794ZM32.3184 230.294L27.3184 227.907V233.681L32.3184 231.294V230.294ZM263.617 295.953H263.117V296.453H263.617V295.953ZM389.756 295.953L386.869 293.066L383.983 295.953L386.869 298.84L389.756 295.953ZM28.8331 231.294C29.1092 231.294 29.3331 231.07 29.3331 230.794C29.3331 230.518 29.1092 230.294 28.8331 230.294V231.294ZM31.8626 230.294C31.5864 230.294 31.3626 230.518 31.3626 230.794C31.3626 231.07 31.5864 231.294 31.8626 231.294V230.294ZM34.892 231.294C35.1682 231.294 35.392 231.07 35.392 230.794C35.392 230.518 35.1682 230.294 34.892 230.294V231.294ZM37.9215 230.294C37.6454 230.294 37.4215 230.518 37.4215 230.794C37.4215 231.07 37.6454 231.294 37.9215 231.294V230.294ZM40.951 231.294C41.2271 231.294 41.451 231.07 41.451 230.794C41.451 230.518 41.2271 230.294 40.951 230.294V231.294ZM43.9805 230.294C43.7043 230.294 43.4805 230.518 43.4805 230.794C43.4805 231.07 43.7043 231.294 43.9805 231.294V230.294ZM47.0099 231.294C47.2861 231.294 47.5099 231.07 47.5099 230.794C47.5099 230.518 47.2861 230.294 47.0099 230.294V231.294ZM50.0394 230.294C49.7633 230.294 49.5394 230.518 49.5394 230.794C49.5394 231.07 49.7633 231.294 50.0394 231.294V230.294ZM53.0689 231.294C53.345 231.294 53.5689 231.07 53.5689 230.794C53.5689 230.518 53.345 230.294 53.0689 230.294V231.294ZM56.0983 230.294C55.8222 230.294 55.5983 230.518 55.5983 230.794C55.5983 231.07 55.8222 231.294 56.0983 231.294V230.294ZM59.1278 231.294C59.404 231.294 59.6278 231.07 59.6278 230.794C59.6278 230.518 59.404 230.294 59.1278 230.294V231.294ZM62.1573 230.294C61.8811 230.294 61.6573 230.518 61.6573 230.794C61.6573 231.07 61.8811 231.294 62.1573 231.294V230.294ZM65.1868 231.294C65.4629 231.294 65.6868 231.07 65.6868 230.794C65.6868 230.518 65.4629 230.294 65.1868 230.294V231.294ZM68.2162 230.294C67.9401 230.294 67.7162 230.518 67.7162 230.794C67.7162 231.07 67.9401 231.294 68.2162 231.294V230.294ZM71.2457 231.294C71.5218 231.294 71.7457 231.07 71.7457 230.794C71.7457 230.518 71.5218 230.294 71.2457 230.294V231.294ZM74.2752 230.294C73.999 230.294 73.7752 230.518 73.7752 230.794C73.7752 231.07 73.999 231.294 74.2752 231.294V230.294ZM77.3047 231.294C77.5808 231.294 77.8047 231.07 77.8047 230.794C77.8047 230.518 77.5808 230.294 77.3047 230.294V231.294ZM80.3341 230.294C80.058 230.294 79.8341 230.518 79.8341 230.794C79.8341 231.07 80.058 231.294 80.3341 231.294V230.294ZM83.3636 231.294C83.6397 231.294 83.8636 231.07 83.8636 230.794C83.8636 230.518 83.6397 230.294 83.3636 230.294V231.294ZM86.3931 230.294C86.1169 230.294 85.8931 230.518 85.8931 230.794C85.8931 231.07 86.1169 231.294 86.3931 231.294V230.294ZM89.4225 231.294C89.6987 231.294 89.9225 231.07 89.9225 230.794C89.9225 230.518 89.6987 230.294 89.4225 230.294V231.294ZM92.452 230.294C92.1759 230.294 91.952 230.518 91.952 230.794C91.952 231.07 92.1759 231.294 92.452 231.294V230.294ZM95.4815 231.294C95.7576 231.294 95.9815 231.07 95.9815 230.794C95.9815 230.518 95.7576 230.294 95.4815 230.294V231.294ZM98.511 230.294C98.2348 230.294 98.011 230.518 98.011 230.794C98.011 231.07 98.2348 231.294 98.511 231.294V230.294ZM101.54 231.294C101.817 231.294 102.04 231.07 102.04 230.794C102.04 230.518 101.817 230.294 101.54 230.294V231.294ZM104.57 230.294C104.294 230.294 104.07 230.518 104.07 230.794C104.07 231.07 104.294 231.294 104.57 231.294V230.294ZM107.599 231.294C107.876 231.294 108.099 231.07 108.099 230.794C108.099 230.518 107.876 230.294 107.599 230.294V231.294ZM110.629 230.294C110.353 230.294 110.129 230.518 110.129 230.794C110.129 231.07 110.353 231.294 110.629 231.294V230.294ZM113.658 231.294C113.934 231.294 114.158 231.07 114.158 230.794C114.158 230.518 113.934 230.294 113.658 230.294V231.294ZM116.688 230.294C116.412 230.294 116.188 230.518 116.188 230.794C116.188 231.07 116.412 231.294 116.688 231.294V230.294ZM119.717 231.294C119.993 231.294 120.217 231.07 120.217 230.794C120.217 230.518 119.993 230.294 119.717 230.294V231.294ZM122.747 230.294C122.471 230.294 122.247 230.518 122.247 230.794C122.247 231.07 122.471 231.294 122.747 231.294V230.294ZM125.776 231.294C126.052 231.294 126.276 231.07 126.276 230.794C126.276 230.518 126.052 230.294 125.776 230.294V231.294ZM128.806 230.294C128.53 230.294 128.306 230.518 128.306 230.794C128.306 231.07 128.53 231.294 128.806 231.294V230.294ZM131.835 231.294C132.111 231.294 132.335 231.07 132.335 230.794C132.335 230.518 132.111 230.294 131.835 230.294V231.294ZM134.865 230.294C134.588 230.294 134.365 230.518 134.365 230.794C134.365 231.07 134.588 231.294 134.865 231.294V230.294ZM137.894 231.294C138.17 231.294 138.394 231.07 138.394 230.794C138.394 230.518 138.17 230.294 137.894 230.294V231.294ZM140.924 230.294C140.647 230.294 140.424 230.518 140.424 230.794C140.424 231.07 140.647 231.294 140.924 231.294V230.294ZM143.953 231.294C144.229 231.294 144.453 231.07 144.453 230.794C144.453 230.518 144.229 230.294 143.953 230.294V231.294ZM146.983 230.294C146.706 230.294 146.483 230.518 146.483 230.794C146.483 231.07 146.706 231.294 146.983 231.294V230.294ZM150.012 231.294C150.288 231.294 150.512 231.07 150.512 230.794C150.512 230.518 150.288 230.294 150.012 230.294V231.294ZM153.041 230.294C152.765 230.294 152.541 230.518 152.541 230.794C152.541 231.07 152.765 231.294 153.041 231.294V230.294ZM156.071 231.294C156.347 231.294 156.571 231.07 156.571 230.794C156.571 230.518 156.347 230.294 156.071 230.294V231.294ZM159.1 230.294C158.824 230.294 158.6 230.518 158.6 230.794C158.6 231.07 158.824 231.294 159.1 231.294V230.294ZM162.13 231.294C162.406 231.294 162.63 231.07 162.63 230.794C162.63 230.518 162.406 230.294 162.13 230.294V231.294ZM165.159 230.294C164.883 230.294 164.659 230.518 164.659 230.794C164.659 231.07 164.883 231.294 165.159 231.294V230.294ZM168.189 231.294C168.465 231.294 168.689 231.07 168.689 230.794C168.689 230.518 168.465 230.294 168.189 230.294V231.294ZM171.218 230.294C170.942 230.294 170.718 230.518 170.718 230.794C170.718 231.07 170.942 231.294 171.218 231.294V230.294ZM174.248 231.294C174.524 231.294 174.748 231.07 174.748 230.794C174.748 230.518 174.524 230.294 174.248 230.294V231.294ZM177.277 230.294C177.001 230.294 176.777 230.518 176.777 230.794C176.777 231.07 177.001 231.294 177.277 231.294V230.294ZM180.307 231.294C180.583 231.294 180.807 231.07 180.807 230.794C180.807 230.518 180.583 230.294 180.307 230.294V231.294ZM183.336 230.294C183.06 230.294 182.836 230.518 182.836 230.794C182.836 231.07 183.06 231.294 183.336 231.294V230.294ZM186.366 231.294C186.642 231.294 186.866 231.07 186.866 230.794C186.866 230.518 186.642 230.294 186.366 230.294V231.294ZM189.395 230.294C189.119 230.294 188.895 230.518 188.895 230.794C188.895 231.07 189.119 231.294 189.395 231.294V230.294ZM192.424 231.294C192.701 231.294 192.924 231.07 192.924 230.794C192.924 230.518 192.701 230.294 192.424 230.294V231.294ZM195.454 230.294C195.178 230.294 194.954 230.518 194.954 230.794C194.954 231.07 195.178 231.294 195.454 231.294V230.294ZM198.483 231.294C198.76 231.294 198.983 231.07 198.983 230.794C198.983 230.518 198.76 230.294 198.483 230.294V231.294ZM201.513 230.294C201.237 230.294 201.013 230.518 201.013 230.794C201.013 231.07 201.237 231.294 201.513 231.294V230.294ZM204.542 231.294C204.819 231.294 205.042 231.07 205.042 230.794C205.042 230.518 204.819 230.294 204.542 230.294V231.294ZM207.572 230.294C207.296 230.294 207.072 230.518 207.072 230.794C207.072 231.07 207.296 231.294 207.572 231.294V230.294ZM210.601 231.294C210.877 231.294 211.101 231.07 211.101 230.794C211.101 230.518 210.877 230.294 210.601 230.294V231.294ZM213.631 230.294C213.355 230.294 213.131 230.518 213.131 230.794C213.131 231.07 213.355 231.294 213.631 231.294V230.294ZM216.66 231.294C216.936 231.294 217.16 231.07 217.16 230.794C217.16 230.518 216.936 230.294 216.66 230.294V231.294ZM219.69 230.294C219.414 230.294 219.19 230.518 219.19 230.794C219.19 231.07 219.414 231.294 219.69 231.294V230.294ZM222.719 231.294C222.995 231.294 223.219 231.07 223.219 230.794C223.219 230.518 222.995 230.294 222.719 230.294V231.294ZM225.749 230.294C225.472 230.294 225.249 230.518 225.249 230.794C225.249 231.07 225.472 231.294 225.749 231.294V230.294ZM228.778 231.294C229.054 231.294 229.278 231.07 229.278 230.794C229.278 230.518 229.054 230.294 228.778 230.294V231.294ZM231.808 230.294C231.531 230.294 231.308 230.518 231.308 230.794C231.308 231.07 231.531 231.294 231.808 231.294V230.294ZM234.837 231.294C235.113 231.294 235.337 231.07 235.337 230.794C235.337 230.518 235.113 230.294 234.837 230.294V231.294ZM237.866 230.294C237.59 230.294 237.366 230.518 237.366 230.794C237.366 231.07 237.59 231.294 237.866 231.294V230.294ZM240.896 231.294C241.172 231.294 241.396 231.07 241.396 230.794C241.396 230.518 241.172 230.294 240.896 230.294V231.294ZM243.925 230.294C243.649 230.294 243.425 230.518 243.425 230.794C243.425 231.07 243.649 231.294 243.925 231.294V230.294ZM246.955 231.294C247.231 231.294 247.455 231.07 247.455 230.794C247.455 230.518 247.231 230.294 246.955 230.294V231.294ZM249.984 230.294C249.708 230.294 249.484 230.518 249.484 230.794C249.484 231.07 249.708 231.294 249.984 231.294V230.294ZM253.014 231.294C253.29 231.294 253.514 231.07 253.514 230.794C253.514 230.518 253.29 230.294 253.014 230.294V231.294ZM256.043 230.294C255.767 230.294 255.543 230.518 255.543 230.794C255.543 231.07 255.767 231.294 256.043 231.294V230.294ZM259.073 231.294C259.349 231.294 259.573 231.07 259.573 230.794C259.573 230.518 259.349 230.294 259.073 230.294V231.294ZM262.102 230.294C261.826 230.294 261.602 230.518 261.602 230.794C261.602 231.07 261.826 231.294 262.102 231.294V230.294ZM263.117 232.275C263.117 232.551 263.341 232.775 263.617 232.775C263.893 232.775 264.117 232.551 264.117 232.275H263.117ZM264.117 235.237C264.117 234.96 263.893 234.737 263.617 234.737C263.341 234.737 263.117 234.96 263.117 235.237H264.117ZM263.117 238.198C263.117 238.474 263.341 238.698 263.617 238.698C263.893 238.698 264.117 238.474 264.117 238.198H263.117ZM264.117 241.16C264.117 240.884 263.893 240.66 263.617 240.66C263.341 240.66 263.117 240.884 263.117 241.16H264.117ZM263.117 244.122C263.117 244.398 263.341 244.622 263.617 244.622C263.893 244.622 264.117 244.398 264.117 244.122H263.117ZM264.117 247.084C264.117 246.808 263.893 246.584 263.617 246.584C263.341 246.584 263.117 246.808 263.117 247.084H264.117ZM263.117 250.045C263.117 250.322 263.341 250.545 263.617 250.545C263.893 250.545 264.117 250.322 264.117 250.045H263.117ZM264.117 253.007C264.117 252.731 263.893 252.507 263.617 252.507C263.341 252.507 263.117 252.731 263.117 253.007H264.117ZM263.117 255.969C263.117 256.245 263.341 256.469 263.617 256.469C263.893 256.469 264.117 256.245 264.117 255.969H263.117ZM264.117 258.931C264.117 258.655 263.893 258.431 263.617 258.431C263.341 258.431 263.117 258.655 263.117 258.931H264.117ZM263.117 261.892C263.117 262.169 263.341 262.392 263.617 262.392C263.893 262.392 264.117 262.169 264.117 261.892H263.117ZM264.117 264.854C264.117 264.578 263.893 264.354 263.617 264.354C263.341 264.354 263.117 264.578 263.117 264.854H264.117ZM263.117 267.816C263.117 268.092 263.341 268.316 263.617 268.316C263.893 268.316 264.117 268.092 264.117 267.816H263.117ZM264.117 270.778C264.117 270.502 263.893 270.278 263.617 270.278C263.341 270.278 263.117 270.502 263.117 270.778H264.117ZM263.117 273.74C263.117 274.016 263.341 274.24 263.617 274.24C263.893 274.24 264.117 274.016 264.117 273.74H263.117ZM264.117 276.701C264.117 276.425 263.893 276.201 263.617 276.201C263.341 276.201 263.117 276.425 263.117 276.701H264.117ZM263.117 279.663C263.117 279.939 263.341 280.163 263.617 280.163C263.893 280.163 264.117 279.939 264.117 279.663H263.117ZM264.117 282.625C264.117 282.349 263.893 282.125 263.617 282.125C263.341 282.125 263.117 282.349 263.117 282.625H264.117ZM263.117 285.587C263.117 285.863 263.341 286.087 263.617 286.087C263.893 286.087 264.117 285.863 264.117 285.587H263.117ZM264.117 288.548C264.117 288.272 263.893 288.048 263.617 288.048C263.341 288.048 263.117 288.272 263.117 288.548H264.117ZM263.117 291.51C263.117 291.786 263.341 292.01 263.617 292.01C263.893 292.01 264.117 291.786 264.117 291.51H263.117ZM264.117 294.472C264.117 294.196 263.893 293.972 263.617 293.972C263.341 293.972 263.117 294.196 263.117 294.472H264.117ZM265.084 296.453C265.361 296.453 265.584 296.229 265.584 295.953C265.584 295.677 265.361 295.453 265.084 295.453V296.453ZM268.019 295.453C267.743 295.453 267.519 295.677 267.519 295.953C267.519 296.229 267.743 296.453 268.019 296.453V295.453ZM270.954 296.453C271.23 296.453 271.454 296.229 271.454 295.953C271.454 295.677 271.23 295.453 270.954 295.453V296.453ZM273.888 295.453C273.612 295.453 273.388 295.677 273.388 295.953C273.388 296.229 273.612 296.453 273.888 296.453V295.453ZM276.823 296.453C277.099 296.453 277.323 296.229 277.323 295.953C277.323 295.677 277.099 295.453 276.823 295.453V296.453ZM279.757 295.453C279.481 295.453 279.257 295.677 279.257 295.953C279.257 296.229 279.481 296.453 279.757 296.453V295.453ZM282.692 296.453C282.968 296.453 283.192 296.229 283.192 295.953C283.192 295.677 282.968 295.453 282.692 295.453V296.453ZM285.626 295.453C285.35 295.453 285.126 295.677 285.126 295.953C285.126 296.229 285.35 296.453 285.626 296.453V295.453ZM288.561 296.453C288.837 296.453 289.061 296.229 289.061 295.953C289.061 295.677 288.837 295.453 288.561 295.453V296.453ZM291.496 295.453C291.219 295.453 290.996 295.677 290.996 295.953C290.996 296.229 291.219 296.453 291.496 296.453V295.453ZM294.43 296.453C294.706 296.453 294.93 296.229 294.93 295.953C294.93 295.677 294.706 295.453 294.43 295.453V296.453ZM297.365 295.453C297.089 295.453 296.865 295.677 296.865 295.953C296.865 296.229 297.089 296.453 297.365 296.453V295.453ZM300.299 296.453C300.576 296.453 300.799 296.229 300.799 295.953C300.799 295.677 300.576 295.453 300.299 295.453V296.453ZM303.234 295.453C302.958 295.453 302.734 295.677 302.734 295.953C302.734 296.229 302.958 296.453 303.234 296.453V295.453ZM306.169 296.453C306.445 296.453 306.669 296.229 306.669 295.953C306.669 295.677 306.445 295.453 306.169 295.453V296.453ZM309.103 295.453C308.827 295.453 308.603 295.677 308.603 295.953C308.603 296.229 308.827 296.453 309.103 296.453V295.453ZM312.038 296.453C312.314 296.453 312.538 296.229 312.538 295.953C312.538 295.677 312.314 295.453 312.038 295.453V296.453ZM314.972 295.453C314.696 295.453 314.472 295.677 314.472 295.953C314.472 296.229 314.696 296.453 314.972 296.453V295.453ZM317.907 296.453C318.183 296.453 318.407 296.229 318.407 295.953C318.407 295.677 318.183 295.453 317.907 295.453V296.453ZM320.841 295.453C320.565 295.453 320.341 295.677 320.341 295.953C320.341 296.229 320.565 296.453 320.841 296.453V295.453ZM323.776 296.453C324.052 296.453 324.276 296.229 324.276 295.953C324.276 295.677 324.052 295.453 323.776 295.453V296.453ZM326.711 295.453C326.434 295.453 326.211 295.677 326.211 295.953C326.211 296.229 326.434 296.453 326.711 296.453V295.453ZM329.645 296.453C329.921 296.453 330.145 296.229 330.145 295.953C330.145 295.677 329.921 295.453 329.645 295.453V296.453ZM332.58 295.453C332.304 295.453 332.08 295.677 332.08 295.953C332.08 296.229 332.304 296.453 332.58 296.453V295.453ZM335.514 296.453C335.79 296.453 336.014 296.229 336.014 295.953C336.014 295.677 335.79 295.453 335.514 295.453V296.453ZM338.449 295.453C338.173 295.453 337.949 295.677 337.949 295.953C337.949 296.229 338.173 296.453 338.449 296.453V295.453ZM341.383 296.453C341.66 296.453 341.883 296.229 341.883 295.953C341.883 295.677 341.66 295.453 341.383 295.453V296.453ZM344.318 295.453C344.042 295.453 343.818 295.677 343.818 295.953C343.818 296.229 344.042 296.453 344.318 296.453V295.453ZM347.253 296.453C347.529 296.453 347.753 296.229 347.753 295.953C347.753 295.677 347.529 295.453 347.253 295.453V296.453ZM350.187 295.453C349.911 295.453 349.687 295.677 349.687 295.953C349.687 296.229 349.911 296.453 350.187 296.453V295.453ZM353.122 296.453C353.398 296.453 353.622 296.229 353.622 295.953C353.622 295.677 353.398 295.453 353.122 295.453V296.453ZM356.056 295.453C355.78 295.453 355.556 295.677 355.556 295.953C355.556 296.229 355.78 296.453 356.056 296.453V295.453ZM358.991 296.453C359.267 296.453 359.491 296.229 359.491 295.953C359.491 295.677 359.267 295.453 358.991 295.453V296.453ZM361.926 295.453C361.649 295.453 361.426 295.677 361.426 295.953C361.426 296.229 361.649 296.453 361.926 296.453V295.453ZM364.86 296.453C365.136 296.453 365.36 296.229 365.36 295.953C365.36 295.677 365.136 295.453 364.86 295.453V296.453ZM367.795 295.453C367.519 295.453 367.295 295.677 367.295 295.953C367.295 296.229 367.519 296.453 367.795 296.453V295.453ZM370.729 296.453C371.005 296.453 371.229 296.229 371.229 295.953C371.229 295.677 371.005 295.453 370.729 295.453V296.453ZM373.664 295.453C373.388 295.453 373.164 295.677 373.164 295.953C373.164 296.229 373.388 296.453 373.664 296.453V295.453ZM376.598 296.453C376.875 296.453 377.098 296.229 377.098 295.953C377.098 295.677 376.875 295.453 376.598 295.453V296.453ZM379.533 295.453C379.257 295.453 379.033 295.677 379.033 295.953C379.033 296.229 379.257 296.453 379.533 296.453V295.453ZM382.468 296.453C382.744 296.453 382.968 296.229 382.968 295.953C382.968 295.677 382.744 295.453 382.468 295.453V296.453ZM385.402 295.453C385.126 295.453 384.902 295.677 384.902 295.953C384.902 296.229 385.126 296.453 385.402 296.453V295.453ZM31.8626 231.294H34.892V230.294H31.8626V231.294ZM37.9215 231.294H40.951V230.294H37.9215V231.294ZM43.9805 231.294H47.0099V230.294H43.9805V231.294ZM50.0394 231.294H53.0689V230.294H50.0394V231.294ZM56.0983 231.294H59.1278V230.294H56.0983V231.294ZM62.1573 231.294H65.1868V230.294H62.1573V231.294ZM68.2162 231.294H71.2457V230.294H68.2162V231.294ZM74.2752 231.294H77.3047V230.294H74.2752V231.294ZM80.3341 231.294H83.3636V230.294H80.3341V231.294ZM86.3931 231.294H89.4225V230.294H86.3931V231.294ZM92.452 231.294H95.4815V230.294H92.452V231.294ZM98.511 231.294H101.54V230.294H98.511V231.294ZM104.57 231.294H107.599V230.294H104.57V231.294ZM110.629 231.294H113.658V230.294H110.629V231.294ZM116.688 231.294H119.717V230.294H116.688V231.294ZM122.747 231.294H125.776V230.294H122.747V231.294ZM128.806 231.294H131.835V230.294H128.806V231.294ZM134.865 231.294H137.894V230.294H134.865V231.294ZM140.924 231.294H143.953V230.294H140.924V231.294ZM146.983 231.294H150.012V230.294H146.983V231.294ZM153.041 231.294H156.071V230.294H153.041V231.294ZM159.1 231.294H162.13V230.294H159.1V231.294ZM165.159 231.294H168.189V230.294H165.159V231.294ZM171.218 231.294H174.248V230.294H171.218V231.294ZM177.277 231.294H180.307V230.294H177.277V231.294ZM183.336 231.294H186.366V230.294H183.336V231.294ZM189.395 231.294H192.424V230.294H189.395V231.294ZM195.454 231.294H198.483V230.294H195.454V231.294ZM201.513 231.294H204.542V230.294H201.513V231.294ZM207.572 231.294H210.601V230.294H207.572V231.294ZM213.631 231.294H216.66V230.294H213.631V231.294ZM219.69 231.294H222.719V230.294H219.69V231.294ZM225.749 231.294H228.778V230.294H225.749V231.294ZM231.808 231.294H234.837V230.294H231.808V231.294ZM237.866 231.294H240.896V230.294H237.866V231.294ZM243.925 231.294H246.955V230.294H243.925V231.294ZM249.984 231.294H253.014V230.294H249.984V231.294ZM256.043 231.294H259.073V230.294H256.043V231.294ZM262.102 231.294H263.617V230.294H262.102V231.294ZM263.117 230.794V232.275H264.117V230.794H263.117ZM263.117 235.237V238.198H264.117V235.237H263.117ZM263.117 241.16V244.122H264.117V241.16H263.117ZM263.117 247.084V250.045H264.117V247.084H263.117ZM263.117 253.007V255.969H264.117V253.007H263.117ZM263.117 258.931V261.892H264.117V258.931H263.117ZM263.117 264.854V267.816H264.117V264.854H263.117ZM263.117 270.778V273.74H264.117V270.778H263.117ZM263.117 276.701V279.663H264.117V276.701H263.117ZM263.117 282.625V285.587H264.117V282.625H263.117ZM263.117 288.548V291.51H264.117V288.548H263.117ZM263.117 294.472V295.953H264.117V294.472H263.117ZM263.617 296.453H265.084V295.453H263.617V296.453ZM268.019 296.453H270.954V295.453H268.019V296.453ZM273.888 296.453H276.823V295.453H273.888V296.453ZM279.757 296.453H282.692V295.453H279.757V296.453ZM285.626 296.453H288.561V295.453H285.626V296.453ZM291.496 296.453H294.43V295.453H291.496V296.453ZM297.365 296.453H300.299V295.453H297.365V296.453ZM303.234 296.453H306.169V295.453H303.234V296.453ZM309.103 296.453H312.038V295.453H309.103V296.453ZM314.972 296.453H317.907V295.453H314.972V296.453ZM320.841 296.453H323.776V295.453H320.841V296.453ZM326.711 296.453H329.645V295.453H326.711V296.453ZM332.58 296.453H335.514V295.453H332.58V296.453ZM338.449 296.453H341.383V295.453H338.449V296.453ZM344.318 296.453H347.253V295.453H344.318V296.453ZM350.187 296.453H353.122V295.453H350.187V296.453ZM356.056 296.453H358.991V295.453H356.056V296.453ZM361.926 296.453H364.86V295.453H361.926V296.453ZM367.795 296.453H370.729V295.453H367.795V296.453ZM373.664 296.453H376.598V295.453H373.664V296.453ZM379.533 296.453H382.468V295.453H379.533V296.453ZM385.402 296.453H386.869V295.453H385.402V296.453Z" fill="#38386C"/>
<defs>
<filter id="filter0_i_2335_16543" x="436.327" y="32.9717" width="188.411" height="62.8037" filterUnits="userSpaceOnUse" color-interpolation-filters="sRGB">
<feFlood flood-opacity="0" result="BackgroundImageFix"/>
<feBlend mode="normal" in="SourceGraphic" in2="BackgroundImageFix" result="shape"/>
<feColorMatrix in="SourceAlpha" type="matrix" values="0 0 0 0 0 0 0 0 0 0 0 0 0 0 0 0 0 0 127 0" result="hardAlpha"/>
<feOffset/>
<feGaussianBlur stdDeviation="2"/>
<feComposite in2="hardAlpha" operator="arithmetic" k2="-1" k3="1"/>
<feColorMatrix type="matrix" values="0 0 0 0 0 0 0 0 0 0 0 0 0 0 0 0 0 0 0.12 0"/>
<feBlend mode="normal" in2="shape" result="effect1_innerShadow_2335_16543"/>
</filter>
<filter id="filter1_i_2335_16543" x="404.926" y="145.72" width="188.411" height="62.8037" filterUnits="userSpaceOnUse" color-interpolation-filters="sRGB">
<feFlood flood-opacity="0" result="BackgroundImageFix"/>
<feBlend mode="normal" in="SourceGraphic" in2="BackgroundImageFix" result="shape"/>
<feColorMatrix in="SourceAlpha" type="matrix" values="0 0 0 0 0 0 0 0 0 0 0 0 0 0 0 0 0 0 127 0" result="hardAlpha"/>
<feOffset/>
<feGaussianBlur stdDeviation="2"/>
<feComposite in2="hardAlpha" operator="arithmetic" k2="-1" k3="1"/>
<feColorMatrix type="matrix" values="0 0 0 0 0 0 0 0 0 0 0 0 0 0 0 0 0 0 0.12 0"/>
<feBlend mode="normal" in2="shape" result="effect1_innerShadow_2335_16543"/>
</filter>
<filter id="filter2_i_2335_16543" x="387.654" y="260.626" width="188.411" height="62.8037" filterUnits="userSpaceOnUse" color-interpolation-filters="sRGB">
<feFlood flood-opacity="0" result="BackgroundImageFix"/>
<feBlend mode="normal" in="SourceGraphic" in2="BackgroundImageFix" result="shape"/>
<feColorMatrix in="SourceAlpha" type="matrix" values="0 0 0 0 0 0 0 0 0 0 0 0 0 0 0 0 0 0 127 0" result="hardAlpha"/>
<feOffset/>
<feGaussianBlur stdDeviation="2"/>
<feComposite in2="hardAlpha" operator="arithmetic" k2="-1" k3="1"/>
<feColorMatrix type="matrix" values="0 0 0 0 0 0 0 0 0 0 0 0 0 0 0 0 0 0 0.12 0"/>
<feBlend mode="normal" in2="shape" result="effect1_innerShadow_2335_16543"/>
</filter>
<filter id="filter3_i_2335_16543" x="0" y="0" width="333" height="324" filterUnits="userSpaceOnUse" color-interpolation-filters="sRGB">
<feFlood flood-opacity="0" result="BackgroundImageFix"/>
<feBlend mode="normal" in="SourceGraphic" in2="BackgroundImageFix" result="shape"/>
<feColorMatrix in="SourceAlpha" type="matrix" values="0 0 0 0 0 0 0 0 0 0 0 0 0 0 0 0 0 0 127 0" result="hardAlpha"/>
<feOffset/>
<feGaussianBlur stdDeviation="6"/>
<feComposite in2="hardAlpha" operator="arithmetic" k2="-1" k3="1"/>
<feColorMatrix type="matrix" values="0 0 0 0 0 0 0 0 0 0 0 0 0 0 0 0 0 0 0.12 0"/>
<feBlend mode="normal" in2="shape" result="effect1_innerShadow_2335_16543"/>
</filter>
<clipPath id="clip0_2335_16543">
<rect width="333" height="324" rx="162" fill="white"/>
</clipPath>
</defs>
</svg>
