<svg width="516" height="531" viewBox="0 0 516 531" fill="none" xmlns="http://www.w3.org/2000/svg">
<g opacity="0.4">
<path d="M515.277 271.506H491.843L476.724 405.564L504.694 402.149L515.277 271.506Z" fill="#B3CDE7"/>
<path d="M173.588 336.399H141.082L212.897 424.349L228.772 404.71L173.588 336.399Z" fill="#B3CDE7"/>
<path d="M276.398 386.779L245.404 385.071L301.344 449.112L314.952 432.888L276.398 386.779Z" fill="#B3CDE7"/>
<path d="M342.165 526.814H311.171L443.462 369.701L461.605 388.486L342.165 526.814Z" fill="#B3CDE7"/>
<path d="M242.38 495.22L212.143 497.782L245.404 460.211L259.011 473.019L242.38 495.22Z" fill="#B3CDE7"/>
<path d="M68.5111 526.815L32.2256 529.376L134.279 413.249L153.177 433.742L68.5111 526.815Z" fill="#B3CDE7"/>
<path d="M141.083 336.4L2.74414 492.659L32.2261 529.376L134.279 413.249L212.142 496.929L245.403 459.358L311.927 526.814L443.462 368.847L476.724 403.856L491.087 270.651L374.671 290.291L408.688 327.861L301.344 448.258L245.403 385.071L212.142 425.203L141.083 336.4Z" fill="#87B0D6" fill-opacity="0.4"/>
</g>
<g filter="url(#filter0_d_4142_22959)">
<rect x="148.127" y="140.747" width="31.8895" height="31.8895" rx="15.9448" fill="#026011"/>
</g>
<g filter="url(#filter1_d_4142_22959)">
<rect x="150.307" y="140.199" width="31.8895" height="31.8895" rx="15.9448" fill="#00A61B"/>
</g>
<path fill-rule="evenodd" clip-rule="evenodd" d="M166.564 147.51C167.015 147.51 167.381 147.876 167.381 148.327V164.376C167.381 164.828 167.015 165.194 166.564 165.194C166.112 165.194 165.746 164.828 165.746 164.376V148.327C165.746 147.876 166.112 147.51 166.564 147.51Z" fill="white"/>
<path fill-rule="evenodd" clip-rule="evenodd" d="M161.37 153.8C161.37 151.938 162.879 150.429 164.741 150.429H170.212C170.664 150.429 171.03 150.795 171.03 151.246C171.03 151.698 170.664 152.064 170.212 152.064H164.741C163.783 152.064 163.005 152.841 163.005 153.8C163.005 154.758 163.783 155.535 164.741 155.535H168.389C170.25 155.535 171.759 157.044 171.759 158.906C171.759 160.768 170.25 162.277 168.389 162.277H162.188C161.736 162.277 161.37 161.911 161.37 161.459C161.37 161.008 161.736 160.642 162.188 160.642H168.389C169.347 160.642 170.124 159.865 170.124 158.906C170.124 157.948 169.347 157.171 168.389 157.171H164.741C162.879 157.171 161.37 155.661 161.37 153.8Z" fill="white"/>
<g filter="url(#filter2_d_4142_22959)">
<rect x="137.701" y="433.315" width="31.8895" height="31.8895" rx="15.9448" fill="#0A6519"/>
</g>
<g filter="url(#filter3_d_4142_22959)">
<rect x="139.881" y="432.768" width="31.8895" height="31.8895" rx="15.9448" fill="#00A61B"/>
</g>
<path fill-rule="evenodd" clip-rule="evenodd" d="M156.138 440.079C156.59 440.079 156.956 440.445 156.956 440.896V456.945C156.956 457.397 156.59 457.763 156.138 457.763C155.686 457.763 155.32 457.397 155.32 456.945V440.896C155.32 440.445 155.686 440.079 156.138 440.079Z" fill="white"/>
<path fill-rule="evenodd" clip-rule="evenodd" d="M150.943 446.368C150.943 444.507 152.453 442.998 154.314 442.998H159.786C160.237 442.998 160.603 443.364 160.603 443.815C160.603 444.267 160.237 444.633 159.786 444.633H154.314C153.356 444.633 152.579 445.41 152.579 446.368C152.579 447.327 153.356 448.104 154.314 448.104H157.962C159.823 448.104 161.333 449.613 161.333 451.475C161.333 453.337 159.823 454.846 157.962 454.846H151.761C151.309 454.846 150.943 454.48 150.943 454.028C150.943 453.577 151.309 453.211 151.761 453.211H157.962C158.92 453.211 159.697 452.434 159.697 451.475C159.697 450.516 158.92 449.739 157.962 449.739H154.314C152.453 449.739 150.943 448.23 150.943 446.368Z" fill="white"/>
<g filter="url(#filter4_d_4142_22959)">
<rect x="181.713" y="10.2256" width="71.7515" height="71.7515" rx="35.8757" fill="#026011"/>
</g>
<g filter="url(#filter5_d_4142_22959)">
<rect x="186.618" y="9" width="71.7515" height="71.7515" rx="35.8757" fill="#00A61B"/>
</g>
<path fill-rule="evenodd" clip-rule="evenodd" d="M223.198 25.4512C224.214 25.4512 225.038 26.2749 225.038 27.291V63.4012C225.038 64.4173 224.214 65.241 223.198 65.241C222.182 65.241 221.358 64.4173 221.358 63.4012V27.291C221.358 26.2749 222.182 25.4512 223.198 25.4512Z" fill="white"/>
<path fill-rule="evenodd" clip-rule="evenodd" d="M211.511 39.6022C211.511 35.4133 214.906 32.0176 219.095 32.0176H231.406C232.422 32.0176 233.245 32.8413 233.245 33.8574C233.245 34.8734 232.422 35.6971 231.406 35.6971H219.095C216.939 35.6971 215.19 37.4455 215.19 39.6022C215.19 41.7589 216.939 43.5072 219.095 43.5072H227.302C231.491 43.5072 234.887 46.9029 234.887 51.0918C234.887 55.2806 231.491 58.6764 227.302 58.6764H213.351C212.334 58.6764 211.511 57.8527 211.511 56.8366C211.511 55.8205 212.334 54.9968 213.351 54.9968H227.302C229.459 54.9968 231.207 53.2485 231.207 51.0918C231.207 48.9351 229.459 47.1868 227.302 47.1868H219.095C214.906 47.1868 211.511 43.791 211.511 39.6022Z" fill="white"/>
<g filter="url(#filter6_d_4142_22959)">
<rect x="256.233" y="155.575" width="39.8619" height="39.8619" rx="19.931" fill="#026011"/>
</g>
<g filter="url(#filter7_d_4142_22959)">
<rect x="258.959" y="154.894" width="39.8619" height="39.8619" rx="19.931" fill="#00A61B"/>
</g>
<path fill-rule="evenodd" clip-rule="evenodd" d="M279.281 164.034C279.845 164.034 280.303 164.492 280.303 165.056V185.118C280.303 185.682 279.845 186.14 279.281 186.14C278.716 186.14 278.259 185.682 278.259 185.118V165.056C278.259 164.492 278.716 164.034 279.281 164.034Z" fill="white"/>
<path fill-rule="evenodd" clip-rule="evenodd" d="M272.787 171.895C272.787 169.568 274.674 167.682 277.001 167.682H283.84C284.404 167.682 284.862 168.139 284.862 168.704C284.862 169.268 284.404 169.726 283.84 169.726H277.001C275.803 169.726 274.831 170.697 274.831 171.895C274.831 173.093 275.803 174.065 277.001 174.065H281.56C283.887 174.065 285.774 175.951 285.774 178.278C285.774 180.606 283.887 182.492 281.56 182.492H273.809C273.245 182.492 272.787 182.034 272.787 181.47C272.787 180.905 273.245 180.448 273.809 180.448H281.56C282.758 180.448 283.73 179.477 283.73 178.278C283.73 177.08 282.758 176.109 281.56 176.109H277.001C274.674 176.109 272.787 174.222 272.787 171.895Z" fill="white"/>
<g filter="url(#filter8_d_4142_22959)">
<rect x="206.902" y="193.495" width="47.8343" height="47.8343" rx="23.9172" fill="#026011"/>
</g>
<g filter="url(#filter9_d_4142_22959)">
<rect x="210.174" y="192.679" width="47.8343" height="47.8343" rx="23.9172" fill="#00A61B"/>
</g>
<path fill-rule="evenodd" clip-rule="evenodd" d="M234.558 203.645C235.236 203.645 235.785 204.194 235.785 204.871V228.945C235.785 229.622 235.236 230.171 234.558 230.171C233.881 230.171 233.332 229.622 233.332 228.945V204.871C233.332 204.194 233.881 203.645 234.558 203.645Z" fill="white"/>
<path fill-rule="evenodd" clip-rule="evenodd" d="M226.767 213.078C226.767 210.285 229.031 208.021 231.823 208.021H240.03C240.708 208.021 241.257 208.571 241.257 209.248C241.257 209.925 240.708 210.475 240.03 210.475H231.823C230.386 210.475 229.22 211.64 229.22 213.078C229.22 214.516 230.386 215.681 231.823 215.681H237.295C240.087 215.681 242.351 217.945 242.351 220.738C242.351 223.53 240.087 225.794 237.295 225.794H227.994C227.316 225.794 226.767 225.245 226.767 224.567C226.767 223.89 227.316 223.341 227.994 223.341H237.295C238.733 223.341 239.898 222.175 239.898 220.738C239.898 219.3 238.733 218.134 237.295 218.134H231.823C229.031 218.134 226.767 215.87 226.767 213.078Z" fill="white"/>
<g filter="url(#filter10_d_4142_22959)">
<rect x="85.5176" y="473.172" width="47.8343" height="47.8343" rx="23.9172" fill="#026011"/>
</g>
<g filter="url(#filter11_d_4142_22959)">
<rect x="88.7891" y="472.355" width="47.8343" height="47.8343" rx="23.9172" fill="#00A61B"/>
</g>
<path fill-rule="evenodd" clip-rule="evenodd" d="M113.175 483.321C113.852 483.321 114.401 483.87 114.401 484.547V508.621C114.401 509.298 113.852 509.847 113.175 509.847C112.497 509.847 111.948 509.298 111.948 508.621V484.547C111.948 483.87 112.497 483.321 113.175 483.321Z" fill="white"/>
<path fill-rule="evenodd" clip-rule="evenodd" d="M105.383 492.754C105.383 489.961 107.647 487.697 110.439 487.697H118.646C119.323 487.697 119.873 488.246 119.873 488.924C119.873 489.601 119.323 490.15 118.646 490.15H110.439C109.001 490.15 107.836 491.316 107.836 492.754C107.836 494.191 109.001 495.357 110.439 495.357H115.91C118.703 495.357 120.967 497.621 120.967 500.413C120.967 503.206 118.703 505.47 115.91 505.47H106.609C105.932 505.47 105.383 504.921 105.383 504.243C105.383 503.566 105.932 503.017 106.609 503.017H115.91C117.348 503.017 118.514 501.851 118.514 500.413C118.514 498.976 117.348 497.81 115.91 497.81H110.439C107.647 497.81 105.383 495.546 105.383 492.754Z" fill="white"/>
<path d="M282.982 321.734C282.982 321.734 225.629 331.68 145.741 325.285C69.6377 319.193 9.71012 299.859 9.71012 299.859L14.8847 235.217C14.8847 235.217 98.4948 230.54 152.973 234.936C207.029 239.298 288.157 257.093 288.157 257.093L282.982 321.734Z" fill="#A8CFFF"/>
<g filter="url(#filter12_i_4142_22959)">
<path d="M282.982 321.732C282.982 321.732 243.214 300.314 148.347 292.72C44.7684 284.428 9.70985 299.857 9.70985 299.857L14.8844 235.215C14.8844 235.215 42.2374 225.998 152.973 234.934C263.709 243.87 288.157 257.091 288.157 257.091L282.982 321.732Z" fill="white"/>
</g>
<path d="M241.662 364.546C241.662 364.546 200.035 371.765 142.052 367.123C86.8155 362.701 43.3197 348.669 43.3197 348.669L47.0754 301.751C47.0754 301.751 107.76 298.356 147.301 301.547C186.535 304.713 245.418 317.629 245.418 317.629L241.662 364.546Z" fill="#A8CFFF"/>
<g filter="url(#filter13_i_4142_22959)">
<path d="M241.664 364.544C241.664 364.544 212.8 348.998 143.945 343.486C68.767 337.468 43.3213 348.667 43.3213 348.667L47.077 301.749C47.077 301.749 66.93 295.059 147.303 301.545C227.675 308.031 245.42 317.627 245.42 317.627L241.664 364.544Z" fill="white"/>
</g>
<path d="M206.396 392.868C206.396 392.868 178.362 397.73 139.314 394.604C102.115 391.626 72.823 382.176 72.823 382.176L75.3522 350.58C75.3522 350.58 116.22 348.293 142.849 350.442C169.271 352.574 208.926 361.272 208.926 361.272L206.396 392.868Z" fill="#A8CFFF"/>
<g filter="url(#filter14_i_4142_22959)">
<path d="M206.397 392.867C206.397 392.867 186.959 382.398 140.589 378.686C89.9605 374.633 72.8242 382.175 72.8242 382.175L75.3535 350.578C75.3535 350.578 88.7234 346.073 142.85 350.441C196.977 354.809 208.927 361.271 208.927 361.271L206.397 392.867Z" fill="white"/>
</g>
<path d="M186.31 414.922C186.31 414.922 165.922 418.458 137.523 416.185C110.469 414.019 89.1658 407.146 89.1658 407.146L91.0053 384.167C91.0053 384.167 120.728 382.504 140.094 384.067C159.31 385.617 188.15 391.943 188.15 391.943L186.31 414.922Z" fill="#A8CFFF"/>
<g filter="url(#filter15_i_4142_22959)">
<path d="M186.311 414.921C186.311 414.921 172.173 407.307 138.45 404.608C101.629 401.66 89.1659 407.145 89.1659 407.145L91.0054 384.166C91.0054 384.166 100.729 380.889 140.094 384.066C179.459 387.242 188.15 391.942 188.15 391.942L186.311 414.921Z" fill="white"/>
</g>
<path d="M160.997 425.798C160.997 425.798 150.802 427.566 136.603 426.429C123.076 425.347 112.424 421.91 112.424 421.91L113.344 410.421C113.344 410.421 128.205 409.589 137.888 410.37C147.496 411.146 161.916 414.309 161.916 414.309L160.997 425.798Z" fill="#A8CFFF"/>
<g filter="url(#filter16_i_4142_22959)">
<path d="M160.995 425.798C160.995 425.798 153.927 421.991 137.065 420.642C118.654 419.168 112.423 421.91 112.423 421.91L113.343 410.421C113.343 410.421 118.204 408.782 137.887 410.371C157.569 411.959 161.915 414.309 161.915 414.309L160.995 425.798Z" fill="white"/>
</g>
<path fill-rule="evenodd" clip-rule="evenodd" d="M139.587 276.318C139.587 276.318 136.851 237.745 131.096 227.049C125.342 216.354 110.946 219.5 110.946 219.5L103.834 238.373C103.834 238.373 112.894 235.894 119.243 244.731C125.592 253.567 129.724 276.318 129.724 276.318C129.724 276.318 131.722 276.729 132.601 276.729C134.255 276.729 135.646 276.318 137.023 276.318C140.184 276.318 139.587 276.318 139.587 276.318Z" fill="#FFC4B7"/>
<path fill-rule="evenodd" clip-rule="evenodd" d="M129.314 279.68C129.314 279.68 137.535 286.489 143.048 289.232C148.563 291.976 151.675 288.843 148.725 285.988C145.776 283.133 140.752 280.15 139.588 276.318C139.125 274.796 136.222 276.005 134.656 276.318C132.601 276.729 129.725 276.318 129.725 276.318L129.314 279.68Z" fill="#CE3846"/>
<path fill-rule="evenodd" clip-rule="evenodd" d="M170.038 263.423C170.038 263.423 142.906 216.152 134.835 211.282C126.765 206.411 113.927 215.808 113.927 215.808L112.496 238.458C112.496 238.458 122.485 223.509 129.006 230.228C135.527 236.948 159.596 265.684 159.596 265.684C159.596 265.684 163.779 266.88 165.653 266.475C167.528 266.069 170.038 263.423 170.038 263.423Z" fill="#FABAAC"/>
<path fill-rule="evenodd" clip-rule="evenodd" d="M160.237 268.651C160.237 268.651 169.756 273.769 175.743 275.366C181.731 276.963 184.09 273.149 180.584 270.897C177.079 268.646 172.011 267.035 170.037 263.421C168.638 263.566 167.287 264.858 165.793 265.181C161.375 266.138 159.594 265.682 159.594 265.682L160.237 268.651Z" fill="#CE3846"/>
<path fill-rule="evenodd" clip-rule="evenodd" d="M76.0066 171.879C75.4155 171.879 73.9012 166.534 76.0066 162.907C78.1121 159.28 82.1153 163.306 83.2976 159.318C84.48 155.331 84.781 151.574 81.3271 149.15C77.8732 146.726 73.1226 149.036 71.0803 150.745C69.038 152.454 68.9265 150.837 66.4387 158.786C63.9509 166.735 63.1944 169.482 63.5922 174.671C63.9901 179.859 73.0508 183.443 73.0508 183.443C73.0508 183.443 78.5367 171.879 76.0066 171.879Z" fill="#FFC4B7"/>
<path fill-rule="evenodd" clip-rule="evenodd" d="M122.567 160.856C124.179 160.856 129.547 157.149 127.644 154.335C126.946 153.304 125.812 151.965 126.192 151.385C127.19 149.86 129.278 150.137 129.993 148.664C130.709 147.191 126.279 148.897 124.154 149.86C122.029 150.823 120.022 152.701 119.139 154.839C118.255 156.977 118.259 158.985 116.851 160.041C115.444 161.098 114.84 162.367 115.65 163.982C116.461 165.598 120.128 163.982 120.128 163.982C120.128 163.982 120.673 160.856 122.567 160.856Z" fill="#FFC4B7"/>
<path fill-rule="evenodd" clip-rule="evenodd" d="M46.302 228.973C46.302 228.973 46.302 229.172 44.5173 230.368C42.7326 231.564 41.1462 233.357 38.1716 232.56C35.1971 231.763 41.9394 226.183 41.9394 226.183L46.302 228.973Z" fill="#FFC4B7"/>
<path fill-rule="evenodd" clip-rule="evenodd" d="M39.839 232.469C39.839 232.469 33.0619 232.136 28.4348 233.285C23.8078 234.434 21.9847 237.248 21.3059 236.29C20.6271 235.332 22.8986 230.62 26.9209 228.852C30.9432 227.084 32.6824 226.825 35.6677 227.594C39.4781 228.575 42.862 229.597 42.862 229.597L39.839 232.469Z" fill="#FFC4B7"/>
<path fill-rule="evenodd" clip-rule="evenodd" d="M37.6535 231.467C34.2379 231.245 32.915 233.959 30.0643 234.732C27.2138 235.504 23.5873 236.274 24.9334 235.02C26.2798 233.767 29.666 233.306 31.7608 230.071C33.855 226.837 37.6535 231.467 37.6535 231.467" fill="#FFC4B7"/>
<path fill-rule="evenodd" clip-rule="evenodd" d="M132.432 208.423C137.949 213.341 119.045 234.796 106.717 240.96C89.2453 251.623 78.2242 248.364 65.7823 234.663C53.3404 220.962 65.7152 190.173 61.9058 195.011C58.9353 198.784 47.4496 230.557 47.4496 230.557L39.7264 227.579C39.7264 227.579 45.629 192.167 49.4299 183.295C51.9838 177.334 61.0611 175.228 61.9058 174.161C65.0582 170.178 72.2033 182.501 72.2033 182.501C72.2033 182.501 76.56 179.522 75.5698 172.373C74.832 167.047 84.4812 169.792 89.2339 170.785C93.9866 171.778 100.324 174.558 104.284 176.345C109.048 178.494 115.77 161.253 115.77 161.253L121.117 163.636C121.117 163.636 117.234 179.936 110.621 184.288C104.284 188.458 96.1312 178.818 89.828 183.295C89.7078 183.381 89.5892 183.47 89.4722 183.564C84.1543 187.819 88.8302 203.966 94.7939 206.458C106.522 211.358 128.867 205.246 132.432 208.423Z" fill="#0049A3"/>
<path fill-rule="evenodd" clip-rule="evenodd" d="M79.5992 151.124C83.9201 149.537 85.4914 146.759 82.7417 141.601C79.992 136.443 72.9213 134.062 67.2255 135.253C61.5297 136.443 51.1202 140.609 54.4591 154.497C57.798 168.384 43.0675 173.741 42.2819 178.503C41.4962 183.264 45.9977 186.252 51.7094 184.653C57.4211 183.053 63.8866 177.511 65.4579 169.773C67.0291 162.036 71.0634 162.625 70.1716 157.671C69.7788 155.489 70.2461 152.707 70.9573 151.719C72.5285 149.537 75.2782 152.711 79.5992 151.124Z" fill="#191000"/>
<defs>
<filter id="filter0_d_4142_22959" x="139.127" y="131.747" width="49.8896" height="49.8896" filterUnits="userSpaceOnUse" color-interpolation-filters="sRGB">
<feFlood flood-opacity="0" result="BackgroundImageFix"/>
<feColorMatrix in="SourceAlpha" type="matrix" values="0 0 0 0 0 0 0 0 0 0 0 0 0 0 0 0 0 0 127 0" result="hardAlpha"/>
<feOffset/>
<feGaussianBlur stdDeviation="4.5"/>
<feColorMatrix type="matrix" values="0 0 0 0 0.760784 0 0 0 0 0.8 0 0 0 0 0.843137 0 0 0 0.16 0"/>
<feBlend mode="normal" in2="BackgroundImageFix" result="effect1_dropShadow_4142_22959"/>
<feBlend mode="normal" in="SourceGraphic" in2="effect1_dropShadow_4142_22959" result="shape"/>
</filter>
<filter id="filter1_d_4142_22959" x="141.307" y="131.199" width="49.8896" height="49.8896" filterUnits="userSpaceOnUse" color-interpolation-filters="sRGB">
<feFlood flood-opacity="0" result="BackgroundImageFix"/>
<feColorMatrix in="SourceAlpha" type="matrix" values="0 0 0 0 0 0 0 0 0 0 0 0 0 0 0 0 0 0 127 0" result="hardAlpha"/>
<feOffset/>
<feGaussianBlur stdDeviation="4.5"/>
<feColorMatrix type="matrix" values="0 0 0 0 0.760784 0 0 0 0 0.8 0 0 0 0 0.843137 0 0 0 0.16 0"/>
<feBlend mode="normal" in2="BackgroundImageFix" result="effect1_dropShadow_4142_22959"/>
<feBlend mode="normal" in="SourceGraphic" in2="effect1_dropShadow_4142_22959" result="shape"/>
</filter>
<filter id="filter2_d_4142_22959" x="128.701" y="424.315" width="49.8896" height="49.8896" filterUnits="userSpaceOnUse" color-interpolation-filters="sRGB">
<feFlood flood-opacity="0" result="BackgroundImageFix"/>
<feColorMatrix in="SourceAlpha" type="matrix" values="0 0 0 0 0 0 0 0 0 0 0 0 0 0 0 0 0 0 127 0" result="hardAlpha"/>
<feOffset/>
<feGaussianBlur stdDeviation="4.5"/>
<feColorMatrix type="matrix" values="0 0 0 0 0.760784 0 0 0 0 0.8 0 0 0 0 0.843137 0 0 0 0.16 0"/>
<feBlend mode="normal" in2="BackgroundImageFix" result="effect1_dropShadow_4142_22959"/>
<feBlend mode="normal" in="SourceGraphic" in2="effect1_dropShadow_4142_22959" result="shape"/>
</filter>
<filter id="filter3_d_4142_22959" x="130.881" y="423.768" width="49.8896" height="49.8896" filterUnits="userSpaceOnUse" color-interpolation-filters="sRGB">
<feFlood flood-opacity="0" result="BackgroundImageFix"/>
<feColorMatrix in="SourceAlpha" type="matrix" values="0 0 0 0 0 0 0 0 0 0 0 0 0 0 0 0 0 0 127 0" result="hardAlpha"/>
<feOffset/>
<feGaussianBlur stdDeviation="4.5"/>
<feColorMatrix type="matrix" values="0 0 0 0 0.760784 0 0 0 0 0.8 0 0 0 0 0.843137 0 0 0 0.16 0"/>
<feBlend mode="normal" in2="BackgroundImageFix" result="effect1_dropShadow_4142_22959"/>
<feBlend mode="normal" in="SourceGraphic" in2="effect1_dropShadow_4142_22959" result="shape"/>
</filter>
<filter id="filter4_d_4142_22959" x="172.713" y="1.22559" width="89.7515" height="89.751" filterUnits="userSpaceOnUse" color-interpolation-filters="sRGB">
<feFlood flood-opacity="0" result="BackgroundImageFix"/>
<feColorMatrix in="SourceAlpha" type="matrix" values="0 0 0 0 0 0 0 0 0 0 0 0 0 0 0 0 0 0 127 0" result="hardAlpha"/>
<feOffset/>
<feGaussianBlur stdDeviation="4.5"/>
<feColorMatrix type="matrix" values="0 0 0 0 0.760784 0 0 0 0 0.8 0 0 0 0 0.843137 0 0 0 0.16 0"/>
<feBlend mode="normal" in2="BackgroundImageFix" result="effect1_dropShadow_4142_22959"/>
<feBlend mode="normal" in="SourceGraphic" in2="effect1_dropShadow_4142_22959" result="shape"/>
</filter>
<filter id="filter5_d_4142_22959" x="177.618" y="0" width="89.7515" height="89.752" filterUnits="userSpaceOnUse" color-interpolation-filters="sRGB">
<feFlood flood-opacity="0" result="BackgroundImageFix"/>
<feColorMatrix in="SourceAlpha" type="matrix" values="0 0 0 0 0 0 0 0 0 0 0 0 0 0 0 0 0 0 127 0" result="hardAlpha"/>
<feOffset/>
<feGaussianBlur stdDeviation="4.5"/>
<feColorMatrix type="matrix" values="0 0 0 0 0.760784 0 0 0 0 0.8 0 0 0 0 0.843137 0 0 0 0.16 0"/>
<feBlend mode="normal" in2="BackgroundImageFix" result="effect1_dropShadow_4142_22959"/>
<feBlend mode="normal" in="SourceGraphic" in2="effect1_dropShadow_4142_22959" result="shape"/>
</filter>
<filter id="filter6_d_4142_22959" x="247.233" y="146.575" width="57.8618" height="57.8623" filterUnits="userSpaceOnUse" color-interpolation-filters="sRGB">
<feFlood flood-opacity="0" result="BackgroundImageFix"/>
<feColorMatrix in="SourceAlpha" type="matrix" values="0 0 0 0 0 0 0 0 0 0 0 0 0 0 0 0 0 0 127 0" result="hardAlpha"/>
<feOffset/>
<feGaussianBlur stdDeviation="4.5"/>
<feColorMatrix type="matrix" values="0 0 0 0 0.760784 0 0 0 0 0.8 0 0 0 0 0.843137 0 0 0 0.16 0"/>
<feBlend mode="normal" in2="BackgroundImageFix" result="effect1_dropShadow_4142_22959"/>
<feBlend mode="normal" in="SourceGraphic" in2="effect1_dropShadow_4142_22959" result="shape"/>
</filter>
<filter id="filter7_d_4142_22959" x="249.959" y="145.894" width="57.8618" height="57.8623" filterUnits="userSpaceOnUse" color-interpolation-filters="sRGB">
<feFlood flood-opacity="0" result="BackgroundImageFix"/>
<feColorMatrix in="SourceAlpha" type="matrix" values="0 0 0 0 0 0 0 0 0 0 0 0 0 0 0 0 0 0 127 0" result="hardAlpha"/>
<feOffset/>
<feGaussianBlur stdDeviation="4.5"/>
<feColorMatrix type="matrix" values="0 0 0 0 0.760784 0 0 0 0 0.8 0 0 0 0 0.843137 0 0 0 0.16 0"/>
<feBlend mode="normal" in2="BackgroundImageFix" result="effect1_dropShadow_4142_22959"/>
<feBlend mode="normal" in="SourceGraphic" in2="effect1_dropShadow_4142_22959" result="shape"/>
</filter>
<filter id="filter8_d_4142_22959" x="197.902" y="184.495" width="65.8342" height="65.834" filterUnits="userSpaceOnUse" color-interpolation-filters="sRGB">
<feFlood flood-opacity="0" result="BackgroundImageFix"/>
<feColorMatrix in="SourceAlpha" type="matrix" values="0 0 0 0 0 0 0 0 0 0 0 0 0 0 0 0 0 0 127 0" result="hardAlpha"/>
<feOffset/>
<feGaussianBlur stdDeviation="4.5"/>
<feColorMatrix type="matrix" values="0 0 0 0 0.760784 0 0 0 0 0.8 0 0 0 0 0.843137 0 0 0 0.16 0"/>
<feBlend mode="normal" in2="BackgroundImageFix" result="effect1_dropShadow_4142_22959"/>
<feBlend mode="normal" in="SourceGraphic" in2="effect1_dropShadow_4142_22959" result="shape"/>
</filter>
<filter id="filter9_d_4142_22959" x="201.174" y="183.679" width="65.8342" height="65.834" filterUnits="userSpaceOnUse" color-interpolation-filters="sRGB">
<feFlood flood-opacity="0" result="BackgroundImageFix"/>
<feColorMatrix in="SourceAlpha" type="matrix" values="0 0 0 0 0 0 0 0 0 0 0 0 0 0 0 0 0 0 127 0" result="hardAlpha"/>
<feOffset/>
<feGaussianBlur stdDeviation="4.5"/>
<feColorMatrix type="matrix" values="0 0 0 0 0.760784 0 0 0 0 0.8 0 0 0 0 0.843137 0 0 0 0.16 0"/>
<feBlend mode="normal" in2="BackgroundImageFix" result="effect1_dropShadow_4142_22959"/>
<feBlend mode="normal" in="SourceGraphic" in2="effect1_dropShadow_4142_22959" result="shape"/>
</filter>
<filter id="filter10_d_4142_22959" x="76.5176" y="464.172" width="65.8342" height="65.8345" filterUnits="userSpaceOnUse" color-interpolation-filters="sRGB">
<feFlood flood-opacity="0" result="BackgroundImageFix"/>
<feColorMatrix in="SourceAlpha" type="matrix" values="0 0 0 0 0 0 0 0 0 0 0 0 0 0 0 0 0 0 127 0" result="hardAlpha"/>
<feOffset/>
<feGaussianBlur stdDeviation="4.5"/>
<feColorMatrix type="matrix" values="0 0 0 0 0.760784 0 0 0 0 0.8 0 0 0 0 0.843137 0 0 0 0.16 0"/>
<feBlend mode="normal" in2="BackgroundImageFix" result="effect1_dropShadow_4142_22959"/>
<feBlend mode="normal" in="SourceGraphic" in2="effect1_dropShadow_4142_22959" result="shape"/>
</filter>
<filter id="filter11_d_4142_22959" x="79.7891" y="463.355" width="65.8342" height="65.8345" filterUnits="userSpaceOnUse" color-interpolation-filters="sRGB">
<feFlood flood-opacity="0" result="BackgroundImageFix"/>
<feColorMatrix in="SourceAlpha" type="matrix" values="0 0 0 0 0 0 0 0 0 0 0 0 0 0 0 0 0 0 127 0" result="hardAlpha"/>
<feOffset/>
<feGaussianBlur stdDeviation="4.5"/>
<feColorMatrix type="matrix" values="0 0 0 0 0.760784 0 0 0 0 0.8 0 0 0 0 0.843137 0 0 0 0.16 0"/>
<feBlend mode="normal" in2="BackgroundImageFix" result="effect1_dropShadow_4142_22959"/>
<feBlend mode="normal" in="SourceGraphic" in2="effect1_dropShadow_4142_22959" result="shape"/>
</filter>
<filter id="filter12_i_4142_22959" x="9.70996" y="229.034" width="280.447" height="92.6982" filterUnits="userSpaceOnUse" color-interpolation-filters="sRGB">
<feFlood flood-opacity="0" result="BackgroundImageFix"/>
<feBlend mode="normal" in="SourceGraphic" in2="BackgroundImageFix" result="shape"/>
<feColorMatrix in="SourceAlpha" type="matrix" values="0 0 0 0 0 0 0 0 0 0 0 0 0 0 0 0 0 0 127 0" result="hardAlpha"/>
<feOffset dx="2" dy="-2"/>
<feGaussianBlur stdDeviation="2"/>
<feComposite in2="hardAlpha" operator="arithmetic" k2="-1" k3="1"/>
<feColorMatrix type="matrix" values="0 0 0 0 0.8 0 0 0 0 0.882353 0 0 0 0 0.976471 0 0 0 1 0"/>
<feBlend mode="normal" in2="shape" result="effect1_innerShadow_4142_22959"/>
</filter>
<filter id="filter13_i_4142_22959" x="43.3213" y="296.715" width="204.098" height="67.8291" filterUnits="userSpaceOnUse" color-interpolation-filters="sRGB">
<feFlood flood-opacity="0" result="BackgroundImageFix"/>
<feBlend mode="normal" in="SourceGraphic" in2="BackgroundImageFix" result="shape"/>
<feColorMatrix in="SourceAlpha" type="matrix" values="0 0 0 0 0 0 0 0 0 0 0 0 0 0 0 0 0 0 127 0" result="hardAlpha"/>
<feOffset dx="2" dy="-2"/>
<feGaussianBlur stdDeviation="2"/>
<feComposite in2="hardAlpha" operator="arithmetic" k2="-1" k3="1"/>
<feColorMatrix type="matrix" values="0 0 0 0 0.8 0 0 0 0 0.882353 0 0 0 0 0.976471 0 0 0 1 0"/>
<feBlend mode="normal" in2="shape" result="effect1_innerShadow_4142_22959"/>
</filter>
<filter id="filter14_i_4142_22959" x="72.8242" y="346.535" width="138.103" height="46.3325" filterUnits="userSpaceOnUse" color-interpolation-filters="sRGB">
<feFlood flood-opacity="0" result="BackgroundImageFix"/>
<feBlend mode="normal" in="SourceGraphic" in2="BackgroundImageFix" result="shape"/>
<feColorMatrix in="SourceAlpha" type="matrix" values="0 0 0 0 0 0 0 0 0 0 0 0 0 0 0 0 0 0 127 0" result="hardAlpha"/>
<feOffset dx="2" dy="-2"/>
<feGaussianBlur stdDeviation="2"/>
<feComposite in2="hardAlpha" operator="arithmetic" k2="-1" k3="1"/>
<feColorMatrix type="matrix" values="0 0 0 0 0.8 0 0 0 0 0.882353 0 0 0 0 0.976471 0 0 0 1 0"/>
<feBlend mode="normal" in2="shape" result="effect1_innerShadow_4142_22959"/>
</filter>
<filter id="filter15_i_4142_22959" x="89.166" y="380.679" width="100.984" height="34.2422" filterUnits="userSpaceOnUse" color-interpolation-filters="sRGB">
<feFlood flood-opacity="0" result="BackgroundImageFix"/>
<feBlend mode="normal" in="SourceGraphic" in2="BackgroundImageFix" result="shape"/>
<feColorMatrix in="SourceAlpha" type="matrix" values="0 0 0 0 0 0 0 0 0 0 0 0 0 0 0 0 0 0 127 0" result="hardAlpha"/>
<feOffset dx="2" dy="-2"/>
<feGaussianBlur stdDeviation="2"/>
<feComposite in2="hardAlpha" operator="arithmetic" k2="-1" k3="1"/>
<feColorMatrix type="matrix" values="0 0 0 0 0.8 0 0 0 0 0.882353 0 0 0 0 0.976471 0 0 0 1 0"/>
<feBlend mode="normal" in2="shape" result="effect1_innerShadow_4142_22959"/>
</filter>
<filter id="filter16_i_4142_22959" x="112.423" y="407.677" width="51.4919" height="18.1211" filterUnits="userSpaceOnUse" color-interpolation-filters="sRGB">
<feFlood flood-opacity="0" result="BackgroundImageFix"/>
<feBlend mode="normal" in="SourceGraphic" in2="BackgroundImageFix" result="shape"/>
<feColorMatrix in="SourceAlpha" type="matrix" values="0 0 0 0 0 0 0 0 0 0 0 0 0 0 0 0 0 0 127 0" result="hardAlpha"/>
<feOffset dx="2" dy="-2"/>
<feGaussianBlur stdDeviation="2"/>
<feComposite in2="hardAlpha" operator="arithmetic" k2="-1" k3="1"/>
<feColorMatrix type="matrix" values="0 0 0 0 0.8 0 0 0 0 0.882353 0 0 0 0 0.976471 0 0 0 1 0"/>
<feBlend mode="normal" in2="shape" result="effect1_innerShadow_4142_22959"/>
</filter>
</defs>
</svg>
