<svg width="606" height="324" viewBox="0 0 606 324" fill="none" xmlns="http://www.w3.org/2000/svg">
<path d="M567.926 226.073C567.926 245.297 551.003 262.384 529.85 262.384C551.003 262.384 567.926 279.471 567.926 300.831C567.926 279.471 584.848 262.384 606.001 262.384C582.733 262.384 567.926 245.297 567.926 226.073Z" fill="#A8CFFF"/>
<path d="M516.569 194.036C516.569 151.021 550.807 116.609 593.605 116.609C550.807 116.609 516.569 82.1968 516.569 39.1816C516.569 82.1968 482.331 116.609 439.534 116.609C482.331 120.91 516.569 151.021 516.569 194.036Z" fill="#759FD2"/>
<path d="M365.036 250.854C365.036 207.839 399.274 173.427 442.071 173.427C399.274 173.427 365.036 139.015 365.036 96C365.036 139.015 330.798 173.427 288 173.427C330.798 177.729 365.036 207.839 365.036 250.854Z" fill="#A8CFFF"/>
<path d="M456.356 206.494C456.356 237.643 431.562 262.562 400.571 262.562C431.562 262.562 456.356 287.481 456.356 318.63C456.356 287.481 481.149 262.562 512.14 262.562C481.149 262.562 456.356 237.643 456.356 206.494Z" fill="#A8CFFF"/>
<path d="M89.0864 256.776L84.8829 308.676L84.8825 308.674C84.5201 312.258 85.5894 315.836 87.8535 318.626C90.1173 321.413 93.3904 323.179 96.9481 323.532L100.373 323.933C103.929 324.289 107.48 323.211 110.246 320.932C113.013 318.656 114.77 315.364 115.131 311.785L117.957 273.564L117.954 273.564C107.599 269.359 97.8804 263.706 89.0864 256.776Z" fill="#759FD2"/>
<path d="M148.02 45.3164L145.324 31.4991L127.124 35.099L129.839 49.0113C132.817 48.1521 135.877 47.3799 138.969 46.7683C142.061 46.1568 145.012 45.6741 148.02 45.3164Z" fill="#A8CFFF"/>
<path d="M243.578 248.72L256.858 273.747C258.537 276.923 261.4 279.301 264.816 280.355C268.233 281.41 271.926 281.056 275.084 279.372L278.103 277.696C281.264 276.013 283.63 273.132 284.678 269.69C285.726 266.245 285.371 262.525 283.689 259.346L264.057 222.169L264.058 222.171C258.502 231.945 251.607 240.883 243.578 248.72Z" fill="#A8CFFF"/>
<path d="M50.7698 185.201C55.0752 207.302 65.7937 227.622 81.5708 243.587C97.3478 259.552 117.473 270.45 139.402 274.9C161.331 279.349 184.077 277.151 204.768 268.582C225.455 260.015 243.155 245.462 255.627 226.764C268.097 208.067 274.781 186.067 274.835 163.543C274.885 141.02 268.302 118.989 255.915 100.233C243.528 81.479 225.895 66.8448 205.247 58.1807C184.599 49.5189 161.861 47.2144 139.914 51.5625C110.509 57.414 84.6129 74.7698 67.8994 99.8232C51.1859 124.877 45.0279 155.578 50.7722 185.198L50.7698 185.201ZM148.855 66.0338C173.439 62.7407 198.341 69.0085 218.491 83.5603C238.641 98.1121 252.523 119.851 257.305 144.349C257.685 146.294 258.065 148.24 258.289 150.251L258.291 150.251C261.572 175.017 255.353 200.109 240.897 220.419C226.443 240.726 204.839 254.719 180.494 259.548C178.497 259.943 176.487 260.272 174.466 260.538C149.905 263.794 125.038 257.51 104.916 242.962C84.7951 228.415 70.9317 206.699 66.1476 182.23C65.7618 180.253 65.3818 178.305 65.1578 176.296C61.7523 150.507 68.6578 124.413 84.3563 103.75C100.052 83.0857 123.257 69.5441 148.871 66.1011L148.855 66.0338Z" fill="#A8CFFF"/>
<path d="M74.3554 132.575L89.0955 137.304C90.3483 137.733 91.0416 139.086 90.6606 140.362C90.4044 141.225 89.6931 141.873 88.8159 142.042C88.4061 142.13 87.9822 142.099 87.5907 141.946L72.9939 137.256C69.4112 149.68 68.4459 162.72 70.1613 175.54L70.7943 178.784L85.9336 175.79L85.9313 175.79C87.266 175.526 88.5613 176.4 88.8235 177.744C89.0857 179.088 88.215 180.39 86.8804 180.654L71.7411 183.648L71.7433 183.648C74.7153 197.312 80.7372 210.115 89.3518 221.089L101.219 211.096C102.255 210.243 103.778 210.395 104.629 211.432C105.462 212.47 105.327 213.984 104.329 214.861L92.4959 224.846L92.4936 224.847C101.475 235.102 112.576 243.254 125.021 248.726L130.736 234.124C131.275 232.951 132.599 232.372 133.818 232.772C135.005 233.291 135.592 234.648 135.159 235.876L129.412 250.484C143.602 255.8 158.873 257.511 173.876 255.467L177.098 254.83L174.179 239.88C173.916 238.536 174.787 237.234 176.119 236.97C177.454 236.706 178.749 237.58 179.012 238.924L181.98 254.135C197.851 250.598 212.506 242.888 224.454 231.787L213.715 220.641C212.853 219.67 212.887 218.19 213.79 217.259C214.768 216.422 216.211 216.454 217.151 217.335L227.93 228.339C230.544 225.66 232.996 222.826 235.271 219.848C241.209 212.017 245.887 203.294 249.13 193.999L234.358 189.276C233.103 188.847 232.41 187.495 232.791 186.216C233.189 184.932 234.544 184.213 235.823 184.606L250.569 189.201C254.152 176.777 255.117 163.737 253.402 150.917L252.769 147.673L237.63 150.667C236.295 150.931 235.002 150.057 234.74 148.713C234.478 147.369 235.346 146.067 236.681 145.803L251.82 142.809C248.815 129.095 242.741 116.253 234.055 105.262L222.188 115.255L222.191 115.257C221.885 115.545 221.505 115.738 221.092 115.81C220.217 115.988 219.315 115.659 218.753 114.959C217.921 113.921 218.054 112.405 219.053 111.531L230.886 101.545L230.889 101.544C226.929 97.0248 222.541 92.9073 217.783 89.2478C211.855 84.6663 205.399 80.819 198.555 77.7934L192.808 92.2352C192.485 93.0064 191.806 93.5683 190.992 93.7387C190.103 93.9309 189.18 93.6108 188.594 92.9089C188.009 92.2047 187.855 91.2344 188.198 90.3841L193.976 75.9361L193.976 75.9383C179.786 70.6227 164.515 68.9115 149.512 70.9557L146.29 71.593L149.258 86.8042L149.261 86.8038C149.523 88.1475 148.652 89.4498 147.32 89.7134C145.985 89.9774 144.69 89.1035 144.428 87.7597L141.453 72.5172C125.572 76.025 110.907 83.7397 98.9787 94.8631L109.827 105.887C110.459 106.539 110.686 107.488 110.414 108.357C110.143 109.229 109.42 109.877 108.532 110.05C107.715 110.202 106.877 109.94 106.288 109.35L95.4843 98.2169C92.9123 100.929 90.5001 103.791 88.2582 106.786C82.3151 114.599 77.6237 123.301 74.3554 132.575ZM149.377 112.952C149.115 111.608 149.984 110.306 151.318 110.042C152.653 109.778 153.946 110.653 154.208 111.996L163.934 161.842L187.344 178.937C188.454 179.711 188.752 181.236 188.015 182.376C187.643 182.874 187.103 183.219 186.499 183.348C185.825 183.485 185.128 183.33 184.574 182.92L160.383 165.239C159.867 164.88 159.509 164.335 159.384 163.719L149.377 112.952Z" fill="white"/>
<path d="M94.8799 53.6352C67.9031 35.3939 33.3826 38.8524 18.2207 61.6224L7.16332 78.1577C-7.998 100.928 1.6877 134.278 28.8518 152.619L94.8799 53.6352Z" fill="#A8CFFF"/>
<path d="M256.108 14.5709C233.421 -0.712819 200.359 9.02652 182.145 36.376L243.962 78.1757L280.393 102.867C298.511 75.7058 295.082 40.9836 272.46 25.6847L256.108 14.5709Z" fill="#A8CFFF"/>
<path d="M102.58 11.323L159.368 0.0905713C162.482 -0.525403 165.617 2.11094 166.113 4.65138L168.315 15.9373C168.927 19.0728 166.899 22.1123 163.785 22.7283L106.997 33.9607C103.883 34.5766 100.748 31.9403 100.252 29.3999L98.0501 18.1139C97.4383 14.9785 99.4658 11.9389 102.58 11.323Z" fill="#A8CFFF"/>
<path d="M182.885 202.32C180.237 203.985 176.965 204.635 173.691 203.885L169.608 202.935C168.027 202.57 166.386 202.85 165 203.717L161.464 205.94C155.749 209.534 148.193 207.776 144.623 202.022L142.413 198.458C141.547 197.07 140.195 196.094 138.608 195.719L134.594 194.788C128.031 193.282 123.905 186.668 125.402 180.055L126.344 175.941C126.706 174.35 126.428 172.698 125.567 171.302L123.361 167.746C119.789 161.988 121.536 154.38 127.251 150.786L130.79 148.561C132.171 147.693 133.137 146.334 133.505 144.729L134.439 140.687C135.935 134.079 142.498 129.923 149.072 131.432L153.155 132.382C154.741 132.748 156.378 132.471 157.759 131.603L161.298 129.377C167.013 125.783 174.57 127.542 178.141 133.299L180.35 136.859C181.216 138.247 182.568 139.223 184.155 139.598L188.171 140.533C191.347 141.263 194.053 143.195 195.794 145.979C197.521 148.747 198.08 152.024 197.372 155.211C197.359 155.268 197.352 155.325 197.337 155.378L196.419 159.376C196.056 160.968 196.334 162.619 197.195 164.015L199.404 167.575C202.973 173.329 201.227 180.937 195.511 184.531L191.972 186.757C190.594 187.628 189.624 188.99 189.255 190.585L188.323 194.631C187.575 197.945 185.546 200.646 182.885 202.32Z" fill="#EEAB00"/>
<path d="M150.462 165.139C150.249 166.068 149.703 166.84 148.887 167.353C148.123 167.834 147.177 167.99 146.221 167.8C145.295 167.588 144.485 167.008 143.993 166.214C143.524 165.458 143.359 164.483 143.545 163.532C143.658 163.028 143.877 162.563 144.164 162.208C144.907 161.076 146.462 160.489 147.819 160.84C148.295 160.951 148.718 161.132 149.075 161.375C149.46 161.634 149.797 161.991 150.053 162.404C150.564 163.229 150.713 164.201 150.462 165.139Z" fill="white"/>
<path d="M165.517 149.691C163.612 149.251 161.701 150.453 161.258 152.369L154.614 181.315C154.173 183.235 155.367 185.159 157.276 185.606C158.202 185.819 159.152 185.66 159.958 185.153C160.763 184.647 161.322 183.857 161.535 182.928L168.179 153.983C168.618 152.059 167.427 150.139 165.517 149.691Z" fill="white"/>
<path d="M175.19 167.481C173.782 167.711 172.619 168.799 172.288 170.241C172.239 170.57 172.187 171.066 172.254 171.568C172.331 172.107 172.588 172.577 172.778 172.882C172.967 173.187 173.27 173.622 173.719 173.928C174.132 174.208 174.534 174.394 174.976 174.497C175.96 174.687 176.866 174.527 177.672 174.021C178.436 173.54 178.993 172.756 179.25 171.79C179.456 170.894 179.282 169.943 178.768 169.115C178.252 168.283 177.482 167.712 176.587 167.504C176.097 167.393 175.586 167.386 175.19 167.481Z" fill="white"/>
</svg>
