<svg width="212" height="190" viewBox="0 0 212 190" fill="none" xmlns="http://www.w3.org/2000/svg">
<g filter="url(#filter0_d_2420_13454)">
<rect x="12" y="81" width="184" height="37" rx="6" fill="white"/>
</g>
<path d="M26.8182 104H23.8608V95.2725H26.8779C27.7444 95.2725 28.4887 95.4472 29.1108 95.7966C29.7358 96.1432 30.216 96.6418 30.5512 97.2923C30.8864 97.9429 31.054 98.7213 31.054 99.6276C31.054 100.537 30.885 101.318 30.5469 101.971C30.2117 102.625 29.7273 103.126 29.0938 103.476C28.4631 103.825 27.7046 104 26.8182 104ZM25.4418 102.632H26.7415C27.3495 102.632 27.8566 102.521 28.2628 102.299C28.6691 102.075 28.9745 101.741 29.179 101.298C29.3836 100.852 29.4858 100.295 29.4858 99.6276C29.4858 98.96 29.3836 98.406 29.179 97.9656C28.9745 97.5225 28.6719 97.1915 28.2714 96.9727C27.8736 96.7512 27.3793 96.6404 26.7884 96.6404H25.4418V102.632Z" fill="#D59240"/>
<path d="M32.488 104V97.4543H34.0306V104H32.488ZM33.2635 96.5253C33.0192 96.5253 32.809 96.4443 32.6329 96.2824C32.4567 96.1176 32.3687 95.9202 32.3687 95.6901C32.3687 95.4571 32.4567 95.2597 32.6329 95.0977C32.809 94.933 33.0192 94.8506 33.2635 94.8506C33.5107 94.8506 33.7209 94.933 33.8942 95.0977C34.0704 95.2597 34.1584 95.4571 34.1584 95.6901C34.1584 95.9202 34.0704 96.1176 33.8942 96.2824C33.7209 96.4443 33.5107 96.5253 33.2635 96.5253Z" fill="#D59240"/>
<path d="M40.7902 99.1844L39.3839 99.3378C39.3442 99.1958 39.2745 99.0622 39.1751 98.9372C39.0785 98.8122 38.9478 98.7114 38.7831 98.6347C38.6183 98.558 38.4166 98.5196 38.178 98.5196C37.8569 98.5196 37.587 98.5892 37.3683 98.7284C37.1524 98.8676 37.0459 99.048 37.0487 99.2696C37.0459 99.46 37.1155 99.6148 37.2575 99.7341C37.4024 99.8534 37.641 99.9514 37.9734 100.028L39.0899 100.267C39.7092 100.4 40.1694 100.612 40.4706 100.902C40.7745 101.191 40.928 101.571 40.9308 102.04C40.928 102.451 40.8072 102.815 40.5686 103.13C40.3328 103.443 40.0047 103.687 39.5842 103.863C39.1638 104.04 38.6808 104.128 38.1353 104.128C37.3342 104.128 36.6893 103.96 36.2007 103.625C35.712 103.287 35.4209 102.816 35.3271 102.214L36.8314 102.069C36.8995 102.365 37.0444 102.588 37.266 102.738C37.4876 102.889 37.776 102.964 38.1311 102.964C38.4976 102.964 38.7916 102.889 39.0132 102.738C39.2376 102.588 39.3498 102.402 39.3498 102.18C39.3498 101.993 39.2774 101.838 39.1325 101.716C38.9905 101.593 38.7689 101.5 38.4677 101.434L37.3513 101.2C36.7234 101.069 36.2589 100.849 35.9578 100.54C35.6567 100.227 35.5075 99.8321 35.5103 99.3548C35.5075 98.9514 35.6169 98.602 35.8385 98.3066C36.0629 98.0083 36.374 97.7781 36.7717 97.6162C37.1723 97.4514 37.6339 97.3691 38.1566 97.3691C38.9237 97.3691 39.5274 97.5324 39.9677 97.8591C40.4109 98.1858 40.6851 98.6276 40.7902 99.1844Z" fill="#D59240"/>
<path d="M45.0579 104.128C44.4045 104.128 43.8434 103.984 43.3747 103.697C42.9088 103.41 42.5494 103.014 42.2966 102.508C42.0466 102 41.9216 101.415 41.9216 100.753C41.9216 100.088 42.0494 99.5012 42.3051 98.9926C42.5608 98.4813 42.9216 98.0835 43.3875 97.7994C43.8562 97.5125 44.4102 97.3691 45.0494 97.3691C45.5807 97.3691 46.0508 97.4671 46.4599 97.6631C46.8718 97.8563 47.2 98.1304 47.4443 98.4855C47.6886 98.8378 47.8278 99.2497 47.8619 99.7213H46.3875C46.3278 99.406 46.1858 99.1432 45.9613 98.933C45.7397 98.7199 45.4429 98.6134 45.0707 98.6134C44.7554 98.6134 44.4784 98.6986 44.2397 98.8691C44.0011 99.0367 43.815 99.2781 43.6815 99.5935C43.5508 99.9088 43.4855 100.287 43.4855 100.727C43.4855 101.173 43.5508 101.557 43.6815 101.878C43.8122 102.196 43.9954 102.441 44.2312 102.615C44.4699 102.785 44.7497 102.87 45.0707 102.87C45.298 102.87 45.5011 102.828 45.6801 102.743C45.8619 102.655 46.0139 102.528 46.1361 102.363C46.2582 102.199 46.342 101.998 46.3875 101.763H47.8619C47.825 102.226 47.6886 102.636 47.4528 102.994C47.217 103.349 46.896 103.628 46.4897 103.829C46.0835 104.028 45.6062 104.128 45.0579 104.128Z" fill="#D59240"/>
<path d="M51.9837 104.128C51.3445 104.128 50.7905 103.987 50.3218 103.706C49.853 103.424 49.4894 103.031 49.2309 102.525C48.9752 102.02 48.8473 101.429 48.8473 100.753C48.8473 100.076 48.9752 99.4841 49.2309 98.9756C49.4894 98.4671 49.853 98.0722 50.3218 97.7909C50.7905 97.5097 51.3445 97.3691 51.9837 97.3691C52.6229 97.3691 53.1769 97.5097 53.6456 97.7909C54.1144 98.0722 54.4766 98.4671 54.7323 98.9756C54.9908 99.4841 55.1201 100.076 55.1201 100.753C55.1201 101.429 54.9908 102.02 54.7323 102.525C54.4766 103.031 54.1144 103.424 53.6456 103.706C53.1769 103.987 52.6229 104.128 51.9837 104.128ZM51.9922 102.892C52.3388 102.892 52.6286 102.797 52.8615 102.606C53.0945 102.413 53.2678 102.155 53.3814 101.831C53.4979 101.507 53.5562 101.146 53.5562 100.748C53.5562 100.348 53.4979 99.9855 53.3814 99.6617C53.2678 99.335 53.0945 99.075 52.8615 98.8818C52.6286 98.6887 52.3388 98.5921 51.9922 98.5921C51.6371 98.5921 51.3417 98.6887 51.1059 98.8818C50.8729 99.075 50.6982 99.335 50.5817 99.6617C50.4681 99.9855 50.4113 100.348 50.4113 100.748C50.4113 101.146 50.4681 101.507 50.5817 101.831C50.6982 102.155 50.8729 102.413 51.1059 102.606C51.3417 102.797 51.6371 102.892 51.9922 102.892Z" fill="#D59240"/>
<path d="M60.6013 101.247V97.4543H62.1439V104H60.6481V102.836H60.5799C60.4322 103.203 60.1893 103.503 59.8513 103.736C59.516 103.968 59.1027 104.085 58.6112 104.085C58.1822 104.085 57.803 103.99 57.4734 103.799C57.1467 103.606 56.891 103.326 56.7064 102.96C56.5217 102.591 56.4294 102.145 56.4294 101.622V97.4543H57.972V101.383C57.972 101.798 58.0856 102.128 58.3129 102.372C58.5402 102.616 58.8385 102.738 59.2078 102.738C59.4351 102.738 59.6552 102.683 59.8683 102.572C60.0814 102.461 60.2561 102.297 60.3924 102.078C60.5317 101.856 60.6013 101.579 60.6013 101.247Z" fill="#D59240"/>
<path d="M65.2728 100.165V104H63.7302V97.4543H65.2046V98.5665H65.2813C65.4319 98.2 65.6719 97.9088 66.0015 97.6929C66.3339 97.477 66.7444 97.3691 67.233 97.3691C67.6847 97.3691 68.0782 97.4656 68.4134 97.6588C68.7515 97.852 69.0128 98.1318 69.1975 98.4983C69.385 98.8648 69.4773 99.3094 69.4745 99.8321V104H67.9319V100.071C67.9319 99.6333 67.8182 99.2909 67.591 99.0438C67.3665 98.7966 67.0554 98.673 66.6577 98.673C66.3878 98.673 66.1478 98.7327 65.9375 98.852C65.7302 98.9685 65.5668 99.1375 65.4475 99.3591C65.331 99.5807 65.2728 99.8492 65.2728 100.165Z" fill="#D59240"/>
<path d="M74.3111 97.4543V98.6475H70.5483V97.4543H74.3111ZM71.4773 95.8861H73.0199V102.031C73.0199 102.238 73.0512 102.397 73.1137 102.508C73.179 102.616 73.2643 102.69 73.3694 102.73C73.4745 102.77 73.591 102.79 73.7188 102.79C73.8154 102.79 73.9035 102.782 73.983 102.768C74.0654 102.754 74.1279 102.741 74.1705 102.73L74.4304 103.936C74.3481 103.964 74.2302 103.995 74.0768 104.03C73.9262 104.064 73.7415 104.084 73.5228 104.089C73.1364 104.101 72.7884 104.042 72.4787 103.915C72.1691 103.784 71.9233 103.582 71.7415 103.309C71.5625 103.037 71.4745 102.696 71.4773 102.287V95.8861Z" fill="#D59240"/>
<path d="M83.7511 99.1844L82.3449 99.3378C82.3051 99.1958 82.2355 99.0622 82.1361 98.9372C82.0395 98.8122 81.9088 98.7114 81.744 98.6347C81.5792 98.558 81.3775 98.5196 81.1389 98.5196C80.8179 98.5196 80.548 98.5892 80.3292 98.7284C80.1133 98.8676 80.0068 99.048 80.0096 99.2696C80.0068 99.46 80.0764 99.6148 80.2184 99.7341C80.3633 99.8534 80.602 99.9514 80.9343 100.028L82.0508 100.267C82.6701 100.4 83.1304 100.612 83.4315 100.902C83.7355 101.191 83.8889 101.571 83.8917 102.04C83.8889 102.451 83.7682 102.815 83.5295 103.13C83.2937 103.443 82.9656 103.687 82.5451 103.863C82.1247 104.04 81.6417 104.128 81.0963 104.128C80.2951 104.128 79.6503 103.96 79.1616 103.625C78.673 103.287 78.3818 102.816 78.288 102.214L79.7923 102.069C79.8605 102.365 80.0054 102.588 80.227 102.738C80.4486 102.889 80.7369 102.964 81.092 102.964C81.4585 102.964 81.7525 102.889 81.9741 102.738C82.1986 102.588 82.3108 102.402 82.3108 102.18C82.3108 101.993 82.2383 101.838 82.0934 101.716C81.9514 101.593 81.7298 101.5 81.4287 101.434L80.3122 101.2C79.6844 101.069 79.2199 100.849 78.9187 100.54C78.6176 100.227 78.4684 99.8321 78.4713 99.3548C78.4684 98.9514 78.5778 98.602 78.7994 98.3066C79.0238 98.0083 79.3349 97.7781 79.7326 97.6162C80.1332 97.4514 80.5949 97.3691 81.1176 97.3691C81.8846 97.3691 82.4883 97.5324 82.9287 97.8591C83.3719 98.1858 83.646 98.6276 83.7511 99.1844Z" fill="#D59240"/>
<path d="M88.4322 97.4543V98.6475H84.6694V97.4543H88.4322ZM85.5984 95.8861H87.141V102.031C87.141 102.238 87.1723 102.397 87.2348 102.508C87.3001 102.616 87.3853 102.69 87.4905 102.73C87.5956 102.77 87.712 102.79 87.8399 102.79C87.9365 102.79 88.0245 102.782 88.1041 102.768C88.1865 102.754 88.249 102.741 88.2916 102.73L88.5515 103.936C88.4692 103.964 88.3513 103.995 88.1978 104.03C88.0473 104.064 87.8626 104.084 87.6439 104.089C87.2575 104.101 86.9095 104.042 86.5998 103.915C86.2902 103.784 86.0444 103.582 85.8626 103.309C85.6836 103.037 85.5956 102.696 85.5984 102.287V95.8861Z" fill="#D59240"/>
<path d="M91.6059 104.132C91.1911 104.132 90.8175 104.058 90.4851 103.91C90.1556 103.76 89.8942 103.538 89.701 103.245C89.5107 102.953 89.4155 102.592 89.4155 102.163C89.4155 101.794 89.4837 101.488 89.6201 101.247C89.7564 101.005 89.9425 100.812 90.1783 100.667C90.4141 100.522 90.6797 100.413 90.9752 100.339C91.2735 100.263 91.5817 100.207 91.8999 100.173C92.2834 100.133 92.5945 100.098 92.8331 100.066C93.0718 100.032 93.2451 99.9813 93.353 99.9131C93.4638 99.8421 93.5192 99.7327 93.5192 99.585V99.5594C93.5192 99.2384 93.4241 98.9898 93.2337 98.8137C93.0434 98.6375 92.7692 98.5494 92.4113 98.5494C92.0334 98.5494 91.7337 98.6318 91.5121 98.7966C91.2934 98.9614 91.1456 99.156 91.0689 99.3804L89.6286 99.1759C89.7422 98.7781 89.9297 98.4458 90.1911 98.1787C90.4525 97.9088 90.7721 97.7071 91.1499 97.5736C91.5277 97.4372 91.9454 97.3691 92.4027 97.3691C92.7181 97.3691 93.032 97.406 93.3445 97.4798C93.657 97.5537 93.9425 97.6759 94.201 97.8463C94.4596 98.0139 94.6669 98.2426 94.8232 98.5324C94.9823 98.8222 95.0618 99.1844 95.0618 99.6191V104H93.5789V103.101H93.5277C93.434 103.282 93.3019 103.453 93.1314 103.612C92.9638 103.768 92.7522 103.895 92.4965 103.991C92.2437 104.085 91.9468 104.132 91.6059 104.132ZM92.0064 102.998C92.3161 102.998 92.5846 102.937 92.8118 102.815C93.0391 102.69 93.2138 102.525 93.336 102.321C93.461 102.116 93.5235 101.893 93.5235 101.652V100.88C93.4752 100.92 93.3928 100.957 93.2763 100.991C93.1627 101.025 93.0348 101.055 92.8928 101.081C92.7508 101.106 92.6101 101.129 92.4709 101.149C92.3317 101.169 92.211 101.186 92.1087 101.2C91.8786 101.231 91.6726 101.282 91.4908 101.353C91.309 101.424 91.1655 101.524 91.0604 101.652C90.9553 101.777 90.9027 101.939 90.9027 102.138C90.9027 102.422 91.0064 102.636 91.2138 102.781C91.4212 102.926 91.6854 102.998 92.0064 102.998Z" fill="#D59240"/>
<path d="M96.613 104V97.4543H98.1087V98.5452H98.1769C98.2962 98.1673 98.5008 97.8762 98.7905 97.6716C99.0831 97.4642 99.4169 97.3605 99.7919 97.3605C99.8772 97.3605 99.9723 97.3648 100.077 97.3733C100.185 97.379 100.275 97.3889 100.346 97.4031V98.8222C100.281 98.7994 100.177 98.7796 100.035 98.7625C99.8956 98.7426 99.7607 98.7327 99.63 98.7327C99.3488 98.7327 99.0959 98.7938 98.8715 98.9159C98.6499 99.0352 98.4752 99.2014 98.3473 99.4145C98.2195 99.6276 98.1556 99.8733 98.1556 100.152V104H96.613Z" fill="#D59240"/>
<path d="M104.991 97.4543V98.6475H101.228V97.4543H104.991ZM102.157 95.8861H103.7V102.031C103.7 102.238 103.731 102.397 103.793 102.508C103.859 102.616 103.944 102.69 104.049 102.73C104.154 102.77 104.271 102.79 104.398 102.79C104.495 102.79 104.583 102.782 104.663 102.768C104.745 102.754 104.808 102.741 104.85 102.73L105.11 103.936C105.028 103.964 104.91 103.995 104.756 104.03C104.606 104.064 104.421 104.084 104.202 104.089C103.816 104.101 103.468 104.042 103.158 103.915C102.849 103.784 102.603 103.582 102.421 103.309C102.242 103.037 102.154 102.696 102.157 102.287V95.8861Z" fill="#D59240"/>
<path d="M111.36 99.1844L109.954 99.3378C109.914 99.1958 109.845 99.0622 109.745 98.9372C109.649 98.8122 109.518 98.7114 109.353 98.6347C109.189 98.558 108.987 98.5196 108.748 98.5196C108.427 98.5196 108.157 98.5892 107.939 98.7284C107.723 98.8676 107.616 99.048 107.619 99.2696C107.616 99.46 107.686 99.6148 107.828 99.7341C107.973 99.8534 108.211 99.9514 108.544 100.028L109.66 100.267C110.28 100.4 110.74 100.612 111.041 100.902C111.345 101.191 111.498 101.571 111.501 102.04C111.498 102.451 111.378 102.815 111.139 103.13C110.903 103.443 110.575 103.687 110.155 103.863C109.734 104.04 109.251 104.128 108.706 104.128C107.905 104.128 107.26 103.96 106.771 103.625C106.282 103.287 105.991 102.816 105.897 102.214L107.402 102.069C107.47 102.365 107.615 102.588 107.836 102.738C108.058 102.889 108.346 102.964 108.701 102.964C109.068 102.964 109.362 102.889 109.583 102.738C109.808 102.588 109.92 102.402 109.92 102.18C109.92 101.993 109.848 101.838 109.703 101.716C109.561 101.593 109.339 101.5 109.038 101.434L107.922 101.2C107.294 101.069 106.829 100.849 106.528 100.54C106.227 100.227 106.078 99.8321 106.081 99.3548C106.078 98.9514 106.187 98.602 106.409 98.3066C106.633 98.0083 106.944 97.7781 107.342 97.6162C107.743 97.4514 108.204 97.3691 108.727 97.3691C109.494 97.3691 110.098 97.5324 110.538 97.8591C110.981 98.1858 111.255 98.6276 111.36 99.1844Z" fill="#D59240"/>
<path d="M117.633 104.132C117.218 104.132 116.845 104.058 116.512 103.91C116.183 103.76 115.922 103.538 115.728 103.245C115.538 102.953 115.443 102.592 115.443 102.163C115.443 101.794 115.511 101.488 115.647 101.247C115.784 101.005 115.97 100.812 116.206 100.667C116.441 100.522 116.707 100.413 117.003 100.339C117.301 100.263 117.609 100.207 117.927 100.173C118.311 100.133 118.622 100.098 118.86 100.066C119.099 100.032 119.272 99.9813 119.38 99.9131C119.491 99.8421 119.547 99.7327 119.547 99.585V99.5594C119.547 99.2384 119.451 98.9898 119.261 98.8137C119.071 98.6375 118.797 98.5494 118.439 98.5494C118.061 98.5494 117.761 98.6318 117.539 98.7966C117.321 98.9614 117.173 99.156 117.096 99.3804L115.656 99.1759C115.77 98.7781 115.957 98.4458 116.218 98.1787C116.48 97.9088 116.799 97.7071 117.177 97.5736C117.555 97.4372 117.973 97.3691 118.43 97.3691C118.745 97.3691 119.059 97.406 119.372 97.4798C119.684 97.5537 119.97 97.6759 120.228 97.8463C120.487 98.0139 120.694 98.2426 120.851 98.5324C121.01 98.8222 121.089 99.1844 121.089 99.6191V104H119.606V103.101H119.555C119.461 103.282 119.329 103.453 119.159 103.612C118.991 103.768 118.78 103.895 118.524 103.991C118.271 104.085 117.974 104.132 117.633 104.132ZM118.034 102.998C118.343 102.998 118.612 102.937 118.839 102.815C119.066 102.69 119.241 102.525 119.363 102.321C119.488 102.116 119.551 101.893 119.551 101.652V100.88C119.503 100.92 119.42 100.957 119.304 100.991C119.19 101.025 119.062 101.055 118.92 101.081C118.778 101.106 118.637 101.129 118.498 101.149C118.359 101.169 118.238 101.186 118.136 101.2C117.906 101.231 117.7 101.282 117.518 101.353C117.336 101.424 117.193 101.524 117.088 101.652C116.983 101.777 116.93 101.939 116.93 102.138C116.93 102.422 117.034 102.636 117.241 102.781C117.449 102.926 117.713 102.998 118.034 102.998Z" fill="#D59240"/>
<path d="M125.909 97.4543V98.6475H122.146V97.4543H125.909ZM123.075 95.8861H124.618V102.031C124.618 102.238 124.649 102.397 124.711 102.508C124.777 102.616 124.862 102.69 124.967 102.73C125.072 102.77 125.189 102.79 125.316 102.79C125.413 102.79 125.501 102.782 125.581 102.768C125.663 102.754 125.726 102.741 125.768 102.73L126.028 103.936C125.946 103.964 125.828 103.995 125.674 104.03C125.524 104.064 125.339 104.084 125.12 104.089C124.734 104.101 124.386 104.042 124.076 103.915C123.767 103.784 123.521 103.582 123.339 103.309C123.16 103.037 123.072 102.696 123.075 102.287V95.8861Z" fill="#D59240"/>
<path d="M130.001 102.38V101.123L133.704 95.2725H134.752V97.0622H134.113L131.62 101.013V101.081H136.789V102.38H130.001ZM134.164 104V101.997L134.181 101.434V95.2725H135.673V104H134.164Z" fill="#D59240"/>
<path d="M141.376 104.166C140.675 104.166 140.072 103.988 139.57 103.633C139.07 103.275 138.685 102.76 138.415 102.086C138.148 101.41 138.014 100.596 138.014 99.6446C138.017 98.6929 138.152 97.8833 138.419 97.2156C138.689 96.5452 139.074 96.0338 139.574 95.6816C140.077 95.3293 140.678 95.1531 141.376 95.1531C142.075 95.1531 142.676 95.3293 143.179 95.6816C143.682 96.0338 144.067 96.5452 144.334 97.2156C144.604 97.8861 144.739 98.6958 144.739 99.6446C144.739 100.599 144.604 101.415 144.334 102.091C144.067 102.764 143.682 103.278 143.179 103.633C142.679 103.988 142.078 104.166 141.376 104.166ZM141.376 102.832C141.922 102.832 142.352 102.564 142.668 102.027C142.986 101.487 143.145 100.693 143.145 99.6446C143.145 98.9514 143.072 98.3691 142.928 97.8975C142.783 97.4259 142.578 97.0708 142.314 96.8321C142.05 96.5906 141.737 96.4699 141.376 96.4699C140.834 96.4699 140.405 96.7398 140.09 97.2796C139.774 97.8165 139.615 98.6048 139.612 99.6446C139.609 100.341 139.679 100.926 139.821 101.4C139.966 101.875 140.171 102.233 140.435 102.474C140.699 102.713 141.013 102.832 141.376 102.832Z" fill="#D59240"/>
<path d="M150.821 102.363V101.903C150.821 101.565 150.892 101.254 151.034 100.97C151.179 100.686 151.389 100.457 151.664 100.284C151.94 100.111 152.274 100.024 152.666 100.024C153.069 100.024 153.407 100.111 153.68 100.284C153.953 100.454 154.159 100.682 154.298 100.966C154.44 101.25 154.511 101.562 154.511 101.903V102.363C154.511 102.701 154.44 103.013 154.298 103.297C154.156 103.581 153.947 103.809 153.672 103.983C153.399 104.156 153.064 104.243 152.666 104.243C152.268 104.243 151.932 104.156 151.656 103.983C151.38 103.809 151.172 103.581 151.03 103.297C150.89 103.013 150.821 102.701 150.821 102.363ZM151.933 101.903V102.363C151.933 102.588 151.987 102.794 152.095 102.981C152.203 103.169 152.393 103.263 152.666 103.263C152.941 103.263 153.13 103.17 153.233 102.986C153.338 102.798 153.39 102.591 153.39 102.363V101.903C153.39 101.676 153.341 101.468 153.241 101.281C153.142 101.091 152.95 100.995 152.666 100.995C152.399 100.995 152.21 101.091 152.099 101.281C151.988 101.468 151.933 101.676 151.933 101.903ZM146.385 97.3691V96.9088C146.385 96.5679 146.457 96.2554 146.602 95.9713C146.747 95.6872 146.957 95.46 147.233 95.2895C147.508 95.1162 147.842 95.0296 148.234 95.0296C148.635 95.0296 148.971 95.1162 149.244 95.2895C149.52 95.46 149.727 95.6872 149.866 95.9713C150.005 96.2554 150.075 96.5679 150.075 96.9088V97.3691C150.075 97.71 150.004 98.0225 149.862 98.3066C149.723 98.5878 149.515 98.8137 149.24 98.9841C148.964 99.1546 148.629 99.2398 148.234 99.2398C147.833 99.2398 147.495 99.1546 147.22 98.9841C146.947 98.8137 146.74 98.5864 146.598 98.3023C146.456 98.0182 146.385 97.7071 146.385 97.3691ZM147.505 96.9088V97.3691C147.505 97.5963 147.558 97.8037 147.663 97.9912C147.771 98.1759 147.961 98.2682 148.234 98.2682C148.507 98.2682 148.694 98.1759 148.797 97.9912C148.902 97.8037 148.954 97.5963 148.954 97.3691V96.9088C148.954 96.6816 148.905 96.4742 148.805 96.2867C148.706 96.0963 148.515 96.0012 148.234 96.0012C147.964 96.0012 147.775 96.0963 147.667 96.2867C147.559 96.477 147.505 96.6844 147.505 96.9088ZM146.87 104L152.87 95.2725H153.936L147.936 104H146.87Z" fill="#D59240"/>
<path d="M174 110C173.077 110 172.155 109.65 171.451 108.95L170.575 108.074C170.235 107.735 169.78 107.548 169.298 107.547H168.066C166.073 107.547 164.452 105.926 164.452 103.934V102.7C164.451 102.219 164.264 101.764 163.924 101.422L163.062 100.561C161.651 99.1585 161.645 96.8651 163.049 95.4526L163.925 94.5753C164.264 94.2357 164.451 93.7809 164.452 93.2985V92.0672C164.452 90.0738 166.073 88.4525 168.066 88.4525H169.299C169.78 88.4525 170.234 88.2653 170.576 87.9233L171.439 87.0628C172.842 85.6515 175.134 85.6443 176.548 87.0496L177.424 87.9257C177.765 88.2653 178.218 88.4525 178.699 88.4525H179.933C181.925 88.4525 183.547 90.0738 183.547 92.0672V93.2997C183.548 93.7809 183.735 94.2357 184.075 94.5777L184.936 95.4394C185.619 96.1187 185.997 97.0235 186.001 97.9896C186.003 98.9496 185.634 99.8533 184.96 100.536C184.948 100.548 184.937 100.561 184.925 100.572L184.073 101.424C183.735 101.764 183.548 102.219 183.547 102.701V103.934C183.547 105.926 181.925 107.547 179.933 107.547H178.699C178.218 107.548 177.763 107.735 177.423 108.075L176.56 108.937C175.856 109.645 174.928 110 174 110" fill="#EEAB00"/>
<path fill-rule="evenodd" clip-rule="evenodd" d="M171.653 95.6626C171.455 95.8606 171.198 95.9674 170.914 95.9674C170.647 95.9674 170.386 95.8582 170.176 95.6614C169.977 95.4634 169.864 95.1922 169.864 94.9173C169.864 94.6557 169.974 94.3869 170.169 94.1793C170.275 94.0713 170.403 93.9897 170.53 93.9465C170.892 93.7809 171.373 93.8781 171.659 94.1781C171.761 94.2801 171.839 94.3917 171.891 94.5081C171.947 94.6329 171.976 94.7745 171.976 94.9173C171.976 95.203 171.862 95.4682 171.653 95.6626ZM177.831 94.1732C177.422 93.7652 176.756 93.7652 176.347 94.1732L170.179 100.342C169.769 100.751 169.769 101.417 170.179 101.827C170.378 102.025 170.641 102.135 170.921 102.135C171.202 102.135 171.465 102.025 171.663 101.827L177.831 95.6589C178.241 95.2485 178.241 94.5836 177.831 94.1732ZM177.489 100.119C177.101 99.9554 176.64 100.044 176.332 100.351C176.269 100.426 176.179 100.541 176.118 100.677C176.053 100.823 176.044 100.98 176.044 101.086C176.044 101.191 176.053 101.347 176.118 101.494C176.178 101.628 176.25 101.738 176.344 101.832C176.562 102.034 176.814 102.136 177.095 102.136C177.361 102.136 177.623 102.028 177.837 101.828C178.028 101.637 178.133 101.373 178.133 101.086C178.133 100.798 178.028 100.535 177.836 100.343C177.731 100.239 177.603 100.157 177.489 100.119Z" fill="white"/>
<g filter="url(#filter1_d_2420_13454)">
<rect x="49" y="133" width="128" height="37" rx="6" fill="white"/>
</g>
<path d="M159.815 144.626V158.626" stroke="#FF7171" stroke-width="2" stroke-linecap="round" stroke-linejoin="round"/>
<path d="M166.815 151.626L159.815 158.626L152.815 151.626" stroke="#FF7171" stroke-width="2" stroke-linecap="round" stroke-linejoin="round"/>
<path d="M64.8182 156H61.8608V147.273H64.8779C65.7444 147.273 66.4887 147.448 67.1108 147.797C67.7358 148.144 68.216 148.642 68.5512 149.293C68.8864 149.944 69.054 150.722 69.054 151.628C69.054 152.537 68.885 153.319 68.5469 153.972C68.2117 154.625 67.7273 155.127 67.0938 155.476C66.4631 155.826 65.7046 156 64.8182 156ZM63.4418 154.633H64.7415C65.3495 154.633 65.8566 154.522 66.2628 154.3C66.6691 154.076 66.9745 153.742 67.179 153.299C67.3836 152.853 67.4858 152.296 67.4858 151.628C67.4858 150.961 67.3836 150.407 67.179 149.966C66.9745 149.523 66.6719 149.192 66.2714 148.973C65.8736 148.752 65.3793 148.641 64.7884 148.641H63.4418V154.633Z" fill="#0049A3"/>
<path d="M70.488 156V149.455H71.9837V150.546H72.0519C72.1712 150.168 72.3758 149.877 72.6655 149.672C72.9581 149.465 73.2919 149.361 73.6669 149.361C73.7522 149.361 73.8473 149.366 73.9525 149.374C74.0604 149.38 74.1499 149.39 74.2209 149.404V150.823C74.1556 150.8 74.0519 150.78 73.9098 150.763C73.7706 150.743 73.6357 150.733 73.505 150.733C73.2238 150.733 72.9709 150.794 72.7465 150.917C72.5249 151.036 72.3502 151.202 72.2223 151.415C72.0945 151.628 72.0306 151.874 72.0306 152.152V156H70.488Z" fill="#0049A3"/>
<path d="M77.8314 156.128C77.1922 156.128 76.6382 155.988 76.1694 155.706C75.7007 155.425 75.337 155.032 75.0785 154.526C74.8228 154.02 74.695 153.429 74.695 152.753C74.695 152.077 74.8228 151.485 75.0785 150.976C75.337 150.468 75.7007 150.073 76.1694 149.792C76.6382 149.51 77.1922 149.37 77.8314 149.37C78.4706 149.37 79.0245 149.51 79.4933 149.792C79.962 150.073 80.3243 150.468 80.5799 150.976C80.8385 151.485 80.9677 152.077 80.9677 152.753C80.9677 153.429 80.8385 154.02 80.5799 154.526C80.3243 155.032 79.962 155.425 79.4933 155.706C79.0245 155.988 78.4706 156.128 77.8314 156.128ZM77.8399 154.892C78.1865 154.892 78.4763 154.797 78.7092 154.607C78.9422 154.414 79.1155 154.155 79.2291 153.831C79.3456 153.508 79.4038 153.147 79.4038 152.749C79.4038 152.348 79.3456 151.986 79.2291 151.662C79.1155 151.336 78.9422 151.076 78.7092 150.883C78.4763 150.689 78.1865 150.593 77.8399 150.593C77.4848 150.593 77.1893 150.689 76.9535 150.883C76.7206 151.076 76.5459 151.336 76.4294 151.662C76.3157 151.986 76.2589 152.348 76.2589 152.749C76.2589 153.147 76.3157 153.508 76.4294 153.831C76.5459 154.155 76.7206 154.414 76.9535 154.607C77.1893 154.797 77.4848 154.892 77.8399 154.892Z" fill="#0049A3"/>
<path d="M82.277 158.455V149.455H83.7941V150.537H83.8836C83.9631 150.378 84.0753 150.209 84.2202 150.03C84.3651 149.848 84.5611 149.694 84.8083 149.566C85.0554 149.435 85.3708 149.37 85.7543 149.37C86.26 149.37 86.716 149.499 87.1222 149.758C87.5313 150.013 87.8552 150.392 88.0938 150.895C88.3353 151.395 88.456 152.009 88.456 152.736C88.456 153.455 88.3381 154.066 88.1023 154.569C87.8665 155.071 87.5455 155.455 87.1392 155.719C86.733 155.983 86.2728 156.116 85.7586 156.116C85.3836 156.116 85.0725 156.053 84.8253 155.928C84.5782 155.803 84.3793 155.652 84.2287 155.476C84.081 155.297 83.966 155.128 83.8836 154.969H83.8196V158.455H82.277ZM83.7898 152.728C83.7898 153.151 83.8495 153.522 83.9688 153.84C84.091 154.158 84.2657 154.407 84.4929 154.586C84.7231 154.762 85.0015 154.85 85.3282 154.85C85.6691 154.85 85.9546 154.759 86.1847 154.577C86.4148 154.392 86.5881 154.141 86.7046 153.823C86.8239 153.502 86.8836 153.137 86.8836 152.728C86.8836 152.321 86.8253 151.961 86.7089 151.645C86.5924 151.33 86.4191 151.083 86.189 150.904C85.9589 150.725 85.6719 150.635 85.3282 150.635C84.9986 150.635 84.7188 150.722 84.4887 150.895C84.2586 151.069 84.0839 151.312 83.9645 151.624C83.8481 151.937 83.7898 152.304 83.7898 152.728Z" fill="#0049A3"/>
<path d="M94.9503 151.185L93.5441 151.339C93.5043 151.196 93.4347 151.063 93.3353 150.938C93.2387 150.813 93.108 150.712 92.9432 150.635C92.7785 150.559 92.5767 150.52 92.3381 150.52C92.0171 150.52 91.7472 150.59 91.5285 150.729C91.3125 150.868 91.206 151.049 91.2089 151.27C91.206 151.461 91.2756 151.616 91.4177 151.735C91.5625 151.854 91.8012 151.952 92.1336 152.029L93.25 152.267C93.8694 152.401 94.3296 152.613 94.6307 152.902C94.9347 153.192 95.0881 153.571 95.091 154.04C95.0881 154.452 94.9674 154.816 94.7287 155.131C94.4929 155.444 94.1648 155.688 93.7444 155.864C93.3239 156.04 92.841 156.128 92.2955 156.128C91.4944 156.128 90.8495 155.961 90.3608 155.625C89.8722 155.287 89.581 154.817 89.4873 154.215L90.9915 154.07C91.0597 154.366 91.2046 154.589 91.4262 154.739C91.6478 154.89 91.9361 154.965 92.2912 154.965C92.6577 154.965 92.9517 154.89 93.1733 154.739C93.3978 154.589 93.51 154.402 93.51 154.181C93.51 153.993 93.4375 153.839 93.2927 153.716C93.1506 153.594 92.929 153.5 92.6279 153.435L91.5114 153.201C90.8836 153.07 90.4191 152.85 90.1179 152.54C89.8168 152.228 89.6677 151.833 89.6705 151.356C89.6677 150.952 89.777 150.603 89.9986 150.307C90.2231 150.009 90.5341 149.779 90.9319 149.617C91.3324 149.452 91.7941 149.37 92.3168 149.37C93.0839 149.37 93.6875 149.533 94.1279 149.86C94.5711 150.187 94.8452 150.628 94.9503 151.185Z" fill="#0049A3"/>
<path d="M101.223 156.133C100.808 156.133 100.435 156.059 100.102 155.911C99.7728 155.76 99.5114 155.539 99.3182 155.246C99.1279 154.954 99.0327 154.593 99.0327 154.164C99.0327 153.794 99.1009 153.489 99.2373 153.248C99.3736 153.006 99.5597 152.813 99.7955 152.668C100.031 152.523 100.297 152.414 100.592 152.34C100.891 152.263 101.199 152.208 101.517 152.174C101.901 152.134 102.212 152.098 102.45 152.067C102.689 152.033 102.862 151.982 102.97 151.914C103.081 151.843 103.136 151.733 103.136 151.586V151.56C103.136 151.239 103.041 150.991 102.851 150.814C102.661 150.638 102.386 150.55 102.028 150.55C101.651 150.55 101.351 150.633 101.129 150.797C100.911 150.962 100.763 151.157 100.686 151.381L99.2458 151.177C99.3594 150.779 99.5469 150.446 99.8083 150.179C100.07 149.91 100.389 149.708 100.767 149.574C101.145 149.438 101.563 149.37 102.02 149.37C102.335 149.37 102.649 149.407 102.962 149.481C103.274 149.554 103.56 149.677 103.818 149.847C104.077 150.015 104.284 150.243 104.44 150.533C104.599 150.823 104.679 151.185 104.679 151.62V156H103.196V155.101H103.145C103.051 155.283 102.919 155.454 102.749 155.613C102.581 155.769 102.369 155.895 102.114 155.992C101.861 156.086 101.564 156.133 101.223 156.133ZM101.624 154.999C101.933 154.999 102.202 154.938 102.429 154.816C102.656 154.691 102.831 154.526 102.953 154.321C103.078 154.117 103.141 153.894 103.141 153.652V152.881C103.092 152.921 103.01 152.958 102.894 152.992C102.78 153.026 102.652 153.056 102.51 153.081C102.368 153.107 102.227 153.13 102.088 153.15C101.949 153.169 101.828 153.187 101.726 153.201C101.496 153.232 101.29 153.283 101.108 153.354C100.926 153.425 100.783 153.525 100.678 153.652C100.572 153.777 100.52 153.939 100.52 154.138C100.52 154.422 100.624 154.637 100.831 154.782C101.038 154.927 101.303 154.999 101.624 154.999Z" fill="#0049A3"/>
<path d="M109.499 149.455V150.648H105.736V149.455H109.499ZM106.665 147.887H108.207V154.032C108.207 154.239 108.239 154.398 108.301 154.509C108.367 154.617 108.452 154.691 108.557 154.731C108.662 154.77 108.778 154.79 108.906 154.79C109.003 154.79 109.091 154.783 109.171 154.769C109.253 154.755 109.315 154.742 109.358 154.731L109.618 155.937C109.536 155.965 109.418 155.996 109.264 156.03C109.114 156.064 108.929 156.084 108.71 156.09C108.324 156.101 107.976 156.043 107.666 155.915C107.357 155.785 107.111 155.583 106.929 155.31C106.75 155.037 106.662 154.696 106.665 154.287V147.887Z" fill="#0049A3"/>
<path d="M113.748 156V154.858L116.778 151.888C117.068 151.596 117.309 151.336 117.503 151.108C117.696 150.881 117.841 150.661 117.937 150.448C118.034 150.235 118.082 150.008 118.082 149.766C118.082 149.491 118.02 149.255 117.895 149.059C117.77 148.86 117.598 148.706 117.379 148.598C117.16 148.491 116.912 148.437 116.633 148.437C116.346 148.437 116.095 148.496 115.879 148.616C115.663 148.732 115.495 148.898 115.376 149.114C115.26 149.33 115.201 149.587 115.201 149.885H113.697C113.697 149.331 113.824 148.85 114.076 148.441C114.329 148.032 114.677 147.715 115.12 147.491C115.566 147.266 116.078 147.154 116.655 147.154C117.24 147.154 117.754 147.263 118.197 147.482C118.64 147.701 118.984 148 119.228 148.381C119.476 148.762 119.599 149.196 119.599 149.685C119.599 150.012 119.537 150.333 119.412 150.648C119.287 150.964 119.066 151.313 118.751 151.696C118.439 152.08 118 152.544 117.434 153.09L115.93 154.62V154.679H119.731V156H113.748Z" fill="#0049A3"/>
<path d="M124.427 156.167C123.726 156.167 123.123 155.989 122.62 155.634C122.12 155.276 121.735 154.76 121.466 154.087C121.199 153.411 121.065 152.597 121.065 151.645C121.068 150.694 121.203 149.884 121.47 149.216C121.74 148.546 122.125 148.035 122.625 147.682C123.128 147.33 123.728 147.154 124.427 147.154C125.126 147.154 125.727 147.33 126.23 147.682C126.733 148.035 127.118 148.546 127.385 149.216C127.655 149.887 127.789 150.696 127.789 151.645C127.789 152.6 127.655 153.415 127.385 154.091C127.118 154.765 126.733 155.279 126.23 155.634C125.73 155.989 125.129 156.167 124.427 156.167ZM124.427 154.833C124.973 154.833 125.403 154.564 125.718 154.027C126.037 153.488 126.196 152.694 126.196 151.645C126.196 150.952 126.123 150.37 125.978 149.898C125.833 149.427 125.629 149.071 125.365 148.833C125.101 148.591 124.788 148.471 124.427 148.471C123.885 148.471 123.456 148.741 123.14 149.28C122.825 149.817 122.666 150.606 122.663 151.645C122.66 152.341 122.73 152.927 122.872 153.401C123.017 153.875 123.221 154.233 123.485 154.475C123.75 154.714 124.064 154.833 124.427 154.833Z" fill="#0049A3"/>
<path d="M133.871 154.364V153.904C133.871 153.566 133.943 153.255 134.085 152.971C134.229 152.687 134.44 152.458 134.715 152.285C134.991 152.111 135.325 152.025 135.717 152.025C136.12 152.025 136.458 152.111 136.731 152.285C137.004 152.455 137.21 152.682 137.349 152.966C137.491 153.25 137.562 153.563 137.562 153.904V154.364C137.562 154.702 137.491 155.013 137.349 155.297C137.207 155.581 136.998 155.81 136.722 155.983C136.45 156.157 136.114 156.243 135.717 156.243C135.319 156.243 134.982 156.157 134.707 155.983C134.431 155.81 134.222 155.581 134.08 155.297C133.941 155.013 133.871 154.702 133.871 154.364ZM134.984 153.904V154.364C134.984 154.589 135.038 154.794 135.146 154.982C135.254 155.169 135.444 155.263 135.717 155.263C135.992 155.263 136.181 155.171 136.283 154.986C136.389 154.799 136.441 154.591 136.441 154.364V153.904C136.441 153.677 136.391 153.469 136.292 153.282C136.193 153.091 136.001 152.996 135.717 152.996C135.45 152.996 135.261 153.091 135.15 153.282C135.039 153.469 134.984 153.677 134.984 153.904ZM129.435 149.37V148.91C129.435 148.569 129.508 148.256 129.653 147.972C129.798 147.688 130.008 147.461 130.283 147.29C130.559 147.117 130.893 147.03 131.285 147.03C131.685 147.03 132.022 147.117 132.295 147.29C132.57 147.461 132.778 147.688 132.917 147.972C133.056 148.256 133.126 148.569 133.126 148.91V149.37C133.126 149.711 133.055 150.023 132.913 150.307C132.773 150.589 132.566 150.814 132.291 150.985C132.015 151.155 131.68 151.241 131.285 151.241C130.884 151.241 130.546 151.155 130.271 150.985C129.998 150.814 129.791 150.587 129.648 150.303C129.506 150.019 129.435 149.708 129.435 149.37ZM130.556 148.91V149.37C130.556 149.597 130.609 149.804 130.714 149.992C130.822 150.177 131.012 150.269 131.285 150.269C131.558 150.269 131.745 150.177 131.847 149.992C131.952 149.804 132.005 149.597 132.005 149.37V148.91C132.005 148.682 131.955 148.475 131.856 148.287C131.756 148.097 131.566 148.002 131.285 148.002C131.015 148.002 130.826 148.097 130.718 148.287C130.61 148.478 130.556 148.685 130.556 148.91ZM129.921 156L135.921 147.273H136.987L130.987 156H129.921Z" fill="#0049A3"/>
<g filter="url(#filter2_d_2420_13454)">
<rect x="49" y="31" width="155" height="40" rx="6" fill="white"/>
<rect x="49.5" y="31.5" width="154" height="39" rx="5.5" stroke="#58A8F7"/>
</g>
<path d="M58.6694 54.246V52.8841L62.6812 46.5457H63.8168V48.4846H63.1243L60.4237 52.7641V52.838H66.0235V54.246H58.6694ZM63.1797 56.0003V53.8305L63.1982 53.2211V46.5457H64.814V56.0003H63.1797Z" fill="#58A8F7"/>
<path d="M70.6031 56.1803C69.8429 56.1803 69.1905 55.988 68.6457 55.6032C68.1041 55.2155 67.687 54.6569 67.3947 53.9275C67.1054 53.195 66.9607 52.3132 66.9607 51.2822C66.9638 50.2512 67.11 49.3741 67.3993 48.6508C67.6917 47.9245 68.1087 47.3705 68.6503 46.9889C69.1951 46.6073 69.846 46.4165 70.6031 46.4165C71.3602 46.4165 72.0111 46.6073 72.5559 46.9889C73.1006 47.3705 73.5177 47.9245 73.807 48.6508C74.0993 49.3772 74.2455 50.2543 74.2455 51.2822C74.2455 52.3163 74.0993 53.1996 73.807 53.9321C73.5177 54.6615 73.1006 55.2185 72.5559 55.6032C72.0142 55.988 71.3633 56.1803 70.6031 56.1803ZM70.6031 54.7354C71.194 54.7354 71.6603 54.4445 72.0019 53.8628C72.3466 53.2781 72.519 52.4179 72.519 51.2822C72.519 50.5313 72.4405 49.9004 72.2835 49.3895C72.1266 48.8786 71.905 48.4939 71.6187 48.2354C71.3325 47.9738 70.994 47.843 70.6031 47.843C70.0153 47.843 69.5506 48.1353 69.2089 48.7201C68.8673 49.3018 68.695 50.1558 68.6919 51.2822C68.6888 52.0363 68.7642 52.6702 68.9181 53.1842C69.0751 53.6982 69.2967 54.086 69.5829 54.3476C69.8691 54.6061 70.2092 54.7354 70.6031 54.7354Z" fill="#58A8F7"/>
<path d="M80.4444 54.2275V53.729C80.4444 53.3627 80.5213 53.0257 80.6752 52.718C80.8322 52.4102 81.0599 52.1624 81.3584 51.9747C81.657 51.787 82.0186 51.6931 82.4433 51.6931C82.8803 51.6931 83.2466 51.787 83.542 51.9747C83.8375 52.1594 84.0606 52.4056 84.2114 52.7133C84.3653 53.0211 84.4423 53.3596 84.4423 53.729V54.2275C84.4423 54.5938 84.3653 54.9308 84.2114 55.2385C84.0575 55.5463 83.8313 55.7941 83.5328 55.9818C83.2374 56.1695 82.8742 56.2634 82.4433 56.2634C82.0125 56.2634 81.6477 56.1695 81.3492 55.9818C81.0507 55.7941 80.8245 55.5463 80.6706 55.2385C80.5198 54.9308 80.4444 54.5938 80.4444 54.2275ZM81.6493 53.729V54.2275C81.6493 54.4707 81.7078 54.6938 81.8247 54.8969C81.9417 55.1001 82.1479 55.2016 82.4433 55.2016C82.7419 55.2016 82.9465 55.1016 83.0573 54.9015C83.1712 54.6984 83.2281 54.4738 83.2281 54.2275V53.729C83.2281 53.4827 83.1743 53.2581 83.0665 53.055C82.9588 52.8488 82.7511 52.7457 82.4433 52.7457C82.154 52.7457 81.9494 52.8488 81.8293 53.055C81.7093 53.2581 81.6493 53.4827 81.6493 53.729ZM75.6386 48.817V48.3184C75.6386 47.9491 75.7171 47.6106 75.8741 47.3028C76.031 46.9951 76.2588 46.7488 76.5573 46.5642C76.8558 46.3765 77.2175 46.2826 77.6422 46.2826C78.0761 46.2826 78.4408 46.3765 78.7363 46.5642C79.0348 46.7488 79.2595 46.9951 79.4103 47.3028C79.5611 47.6106 79.6365 47.9491 79.6365 48.3184V48.817C79.6365 49.1863 79.5596 49.5249 79.4057 49.8327C79.2549 50.1373 79.0302 50.382 78.7317 50.5667C78.4331 50.7513 78.07 50.8437 77.6422 50.8437C77.2082 50.8437 76.842 50.7513 76.5435 50.5667C76.248 50.382 76.0233 50.1358 75.8695 49.828C75.7156 49.5203 75.6386 49.1833 75.6386 48.817ZM76.8528 48.3184V48.817C76.8528 49.0632 76.9097 49.2879 77.0236 49.491C77.1405 49.6911 77.3467 49.7911 77.6422 49.7911C77.9376 49.7911 78.1408 49.6911 78.2516 49.491C78.3654 49.2879 78.4224 49.0632 78.4224 48.817V48.3184C78.4224 48.0722 78.3685 47.8476 78.2608 47.6444C78.1531 47.4382 77.9469 47.3351 77.6422 47.3351C77.3498 47.3351 77.1451 47.4382 77.0282 47.6444C76.9112 47.8506 76.8528 48.0753 76.8528 48.3184ZM76.1649 56.0003L82.6649 46.5457H83.819L77.319 56.0003H76.1649Z" fill="#58A8F7"/>
<path d="M91.9142 56.1388C91.2217 56.1388 90.6216 55.9864 90.1138 55.6817C89.606 55.377 89.212 54.9508 88.932 54.403C88.655 53.8551 88.5165 53.215 88.5165 52.4825C88.5165 51.75 88.655 51.1083 88.932 50.5574C89.212 50.0065 89.606 49.5787 90.1138 49.2741C90.6216 48.9694 91.2217 48.817 91.9142 48.817C92.6067 48.817 93.2068 48.9694 93.7146 49.2741C94.2225 49.5787 94.6148 50.0065 94.8918 50.5574C95.1719 51.1083 95.3119 51.75 95.3119 52.4825C95.3119 53.215 95.1719 53.8551 94.8918 54.403C94.6148 54.9508 94.2225 55.377 93.7146 55.6817C93.2068 55.9864 92.6067 56.1388 91.9142 56.1388ZM91.9234 54.8C92.2989 54.8 92.6128 54.6969 92.8652 54.4907C93.1176 54.2814 93.3053 54.0013 93.4284 53.6505C93.5546 53.2996 93.6177 52.9088 93.6177 52.4779C93.6177 52.0439 93.5546 51.6515 93.4284 51.3007C93.3053 50.9468 93.1176 50.6652 92.8652 50.4559C92.6128 50.2466 92.2989 50.142 91.9234 50.142C91.5387 50.142 91.2187 50.2466 90.9632 50.4559C90.7109 50.6652 90.5216 50.9468 90.3954 51.3007C90.2723 51.6515 90.2107 52.0439 90.2107 52.4779C90.2107 52.9088 90.2723 53.2996 90.3954 53.6505C90.5216 54.0013 90.7109 54.2814 90.9632 54.4907C91.2187 54.6969 91.5387 54.8 91.9234 54.8Z" fill="#58A8F7"/>
<path d="M99.932 48.9094V50.202H95.7402V48.9094H99.932ZM96.7881 56.0003V48.24C96.7881 47.7629 96.8866 47.3659 97.0836 47.0489C97.2837 46.7319 97.5514 46.4949 97.8869 46.338C98.2223 46.181 98.5947 46.1025 99.0041 46.1025C99.2934 46.1025 99.5503 46.1256 99.775 46.1718C99.9997 46.218 100.166 46.2595 100.274 46.2964L99.9412 47.589C99.8704 47.5675 99.7812 47.546 99.6734 47.5244C99.5657 47.4998 99.4457 47.4875 99.3134 47.4875C99.0025 47.4875 98.7825 47.5629 98.6532 47.7137C98.527 47.8614 98.4639 48.0738 98.4639 48.3508V56.0003H96.7881Z" fill="#58A8F7"/>
<path d="M104.442 48.9094V50.202H100.251V48.9094H104.442ZM101.299 56.0003V48.24C101.299 47.7629 101.397 47.3659 101.594 47.0489C101.794 46.7319 102.062 46.4949 102.397 46.338C102.733 46.181 103.105 46.1025 103.514 46.1025C103.804 46.1025 104.061 46.1256 104.285 46.1718C104.51 46.218 104.676 46.2595 104.784 46.2964L104.452 47.589C104.381 47.5675 104.292 47.546 104.184 47.5244C104.076 47.4998 103.956 47.4875 103.824 47.4875C103.513 47.4875 103.293 47.5629 103.164 47.7137C103.037 47.8614 102.974 48.0738 102.974 48.3508V56.0003H101.299Z" fill="#58A8F7"/>
<path d="M111.787 48.9094V50.202H107.596V48.9094H111.787ZM108.644 56.0003V48.24C108.644 47.7629 108.742 47.3659 108.939 47.0489C109.139 46.7319 109.407 46.4949 109.742 46.338C110.078 46.181 110.45 46.1025 110.859 46.1025C111.149 46.1025 111.406 46.1256 111.63 46.1718C111.855 46.218 112.021 46.2595 112.129 46.2964L111.797 47.589C111.726 47.5675 111.637 47.546 111.529 47.5244C111.421 47.4998 111.301 47.4875 111.169 47.4875C110.858 47.4875 110.638 47.5629 110.509 47.7137C110.382 47.8614 110.319 48.0738 110.319 48.3508V56.0003H108.644Z" fill="#58A8F7"/>
<path d="M115.533 56.1388C114.84 56.1388 114.24 55.9864 113.732 55.6817C113.224 55.377 112.83 54.9508 112.55 54.403C112.273 53.8551 112.135 53.215 112.135 52.4825C112.135 51.75 112.273 51.1083 112.55 50.5574C112.83 50.0065 113.224 49.5787 113.732 49.2741C114.24 48.9694 114.84 48.817 115.533 48.817C116.225 48.817 116.825 48.9694 117.333 49.2741C117.841 49.5787 118.233 50.0065 118.51 50.5574C118.79 51.1083 118.93 51.75 118.93 52.4825C118.93 53.215 118.79 53.8551 118.51 54.403C118.233 54.9508 117.841 55.377 117.333 55.6817C116.825 55.9864 116.225 56.1388 115.533 56.1388ZM115.542 54.8C115.917 54.8 116.231 54.6969 116.484 54.4907C116.736 54.2814 116.924 54.0013 117.047 53.6505C117.173 53.2996 117.236 52.9088 117.236 52.4779C117.236 52.0439 117.173 51.6515 117.047 51.3007C116.924 50.9468 116.736 50.6652 116.484 50.4559C116.231 50.2466 115.917 50.142 115.542 50.142C115.157 50.142 114.837 50.2466 114.582 50.4559C114.329 50.6652 114.14 50.9468 114.014 51.3007C113.891 51.6515 113.829 52.0439 113.829 52.4779C113.829 52.9088 113.891 53.2996 114.014 53.6505C114.14 54.0013 114.329 54.2814 114.582 54.4907C114.837 54.6969 115.157 54.8 115.542 54.8Z" fill="#58A8F7"/>
<path d="M119.959 56.0003V48.9094H121.579V50.0912H121.653C121.782 49.6818 122.004 49.3664 122.318 49.1448C122.635 48.9201 122.996 48.8078 123.403 48.8078C123.495 48.8078 123.598 48.8124 123.712 48.8216C123.829 48.8278 123.926 48.8386 124.003 48.854V50.3912C123.932 50.3666 123.82 50.3451 123.666 50.3266C123.515 50.3051 123.369 50.2943 123.227 50.2943C122.922 50.2943 122.649 50.3605 122.405 50.4928C122.165 50.6221 121.976 50.8021 121.838 51.0329C121.699 51.2638 121.63 51.53 121.63 51.8316V56.0003H119.959Z" fill="#58A8F7"/>
<path d="M127.539 56.0003V54.7631L130.821 51.5454C131.135 51.2284 131.397 50.9468 131.606 50.7006C131.816 50.4543 131.973 50.2158 132.077 49.985C132.182 49.7542 132.234 49.508 132.234 49.2464C132.234 48.9478 132.166 48.6924 132.031 48.48C131.896 48.2646 131.709 48.0984 131.472 47.9814C131.235 47.8645 130.966 47.806 130.665 47.806C130.354 47.806 130.081 47.8707 129.847 47.9999C129.613 48.1261 129.432 48.3061 129.303 48.54C129.176 48.7739 129.113 49.0525 129.113 49.3756H127.484C127.484 48.7755 127.621 48.2538 127.895 47.8106C128.169 47.3675 128.546 47.0243 129.026 46.7812C129.509 46.538 130.063 46.4165 130.688 46.4165C131.322 46.4165 131.879 46.5349 132.359 46.7719C132.839 47.0089 133.211 47.3336 133.476 47.746C133.744 48.1584 133.878 48.6293 133.878 49.1586C133.878 49.5126 133.81 49.8604 133.674 50.202C133.539 50.5436 133.301 50.9221 132.959 51.3376C132.62 51.7531 132.145 52.2563 131.532 52.8472L129.903 54.5045V54.5692H134.021V56.0003H127.539Z" fill="#58A8F7"/>
<path d="M139.748 51.8454V56.0003H138.076V46.5457H139.711V50.1143H139.794C139.96 49.7142 140.217 49.3987 140.565 49.1679C140.916 48.934 141.362 48.817 141.904 48.817C142.396 48.817 142.825 48.9201 143.192 49.1263C143.558 49.3325 143.841 49.6341 144.041 50.0312C144.244 50.4282 144.346 50.9129 144.346 51.4854V56.0003H142.674V51.7439C142.674 51.2668 142.551 50.896 142.305 50.6313C142.062 50.3635 141.72 50.2297 141.28 50.2297C140.985 50.2297 140.72 50.2943 140.486 50.4236C140.255 50.5497 140.074 50.7329 139.942 50.9729C139.812 51.213 139.748 51.5038 139.748 51.8454Z" fill="#58A8F7"/>
<path d="M145.659 56.0003V48.9094H147.279V50.0912H147.353C147.483 49.6818 147.704 49.3664 148.018 49.1448C148.335 48.9201 148.697 48.8078 149.103 48.8078C149.195 48.8078 149.298 48.8124 149.412 48.8216C149.529 48.8278 149.626 48.8386 149.703 48.854V50.3912C149.632 50.3666 149.52 50.3451 149.366 50.3266C149.215 50.3051 149.069 50.2943 148.928 50.2943C148.623 50.2943 148.349 50.3605 148.106 50.4928C147.866 50.6221 147.677 50.8021 147.538 51.0329C147.4 51.2638 147.33 51.53 147.33 51.8316V56.0003H145.659Z" fill="#58A8F7"/>
<path d="M156.028 50.7836L154.504 50.9498C154.461 50.796 154.386 50.6513 154.278 50.5159C154.174 50.3805 154.032 50.2712 153.853 50.1881C153.675 50.105 153.456 50.0635 153.198 50.0635C152.85 50.0635 152.558 50.1389 152.321 50.2897C152.087 50.4405 151.971 50.6359 151.975 50.876C151.971 51.0822 152.047 51.2499 152.201 51.3792C152.358 51.5084 152.616 51.6146 152.976 51.6977L154.186 51.9562C154.857 52.1009 155.355 52.3302 155.682 52.6441C156.011 52.958 156.177 53.3689 156.18 53.8767C156.177 54.3229 156.046 54.7169 155.788 55.0585C155.532 55.397 155.177 55.6617 154.721 55.8525C154.266 56.0434 153.743 56.1388 153.152 56.1388C152.284 56.1388 151.585 55.9572 151.056 55.594C150.526 55.2278 150.211 54.7184 150.109 54.066L151.739 53.909C151.813 54.2291 151.97 54.4707 152.21 54.6338C152.45 54.7969 152.762 54.8785 153.147 54.8785C153.544 54.8785 153.863 54.7969 154.103 54.6338C154.346 54.4707 154.467 54.2691 154.467 54.029C154.467 53.8259 154.389 53.6582 154.232 53.5258C154.078 53.3935 153.838 53.2919 153.512 53.2211L152.302 52.9672C151.622 52.8257 151.119 52.5872 150.793 52.2517C150.466 51.9131 150.305 51.4854 150.308 50.9683C150.305 50.5313 150.423 50.1527 150.663 49.8327C150.907 49.5095 151.244 49.2602 151.674 49.0848C152.108 48.9063 152.609 48.817 153.175 48.817C154.006 48.817 154.66 48.994 155.137 49.3479C155.617 49.7019 155.914 50.1804 156.028 50.7836Z" fill="#58A8F7"/>
<path d="M184 61C189.523 61 194 56.5228 194 51C194 45.4772 189.523 41 184 41C178.477 41 174 45.4772 174 51C174 56.5228 178.477 61 184 61Z" stroke="#58A8F7" stroke-width="2" stroke-linecap="round" stroke-linejoin="round"/>
<path d="M184 45V51L188 53" stroke="#58A8F7" stroke-width="2" stroke-linecap="round" stroke-linejoin="round"/>
<defs>
<filter id="filter0_d_2420_13454" x="0" y="77" width="208" height="61" filterUnits="userSpaceOnUse" color-interpolation-filters="sRGB">
<feFlood flood-opacity="0" result="BackgroundImageFix"/>
<feColorMatrix in="SourceAlpha" type="matrix" values="0 0 0 0 0 0 0 0 0 0 0 0 0 0 0 0 0 0 127 0" result="hardAlpha"/>
<feOffset dy="8"/>
<feGaussianBlur stdDeviation="6"/>
<feComposite in2="hardAlpha" operator="out"/>
<feColorMatrix type="matrix" values="0 0 0 0 0.0416667 0 0 0 0 0.0416667 0 0 0 0 0.0416667 0 0 0 0.12 0"/>
<feBlend mode="normal" in2="BackgroundImageFix" result="effect1_dropShadow_2420_13454"/>
<feBlend mode="normal" in="SourceGraphic" in2="effect1_dropShadow_2420_13454" result="shape"/>
</filter>
<filter id="filter1_d_2420_13454" x="37" y="129" width="152" height="61" filterUnits="userSpaceOnUse" color-interpolation-filters="sRGB">
<feFlood flood-opacity="0" result="BackgroundImageFix"/>
<feColorMatrix in="SourceAlpha" type="matrix" values="0 0 0 0 0 0 0 0 0 0 0 0 0 0 0 0 0 0 127 0" result="hardAlpha"/>
<feOffset dy="8"/>
<feGaussianBlur stdDeviation="6"/>
<feComposite in2="hardAlpha" operator="out"/>
<feColorMatrix type="matrix" values="0 0 0 0 0.0416667 0 0 0 0 0.0416667 0 0 0 0 0.0416667 0 0 0 0.12 0"/>
<feBlend mode="normal" in2="BackgroundImageFix" result="effect1_dropShadow_2420_13454"/>
<feBlend mode="normal" in="SourceGraphic" in2="effect1_dropShadow_2420_13454" result="shape"/>
</filter>
<filter id="filter2_d_2420_13454" x="41" y="25" width="171" height="56" filterUnits="userSpaceOnUse" color-interpolation-filters="sRGB">
<feFlood flood-opacity="0" result="BackgroundImageFix"/>
<feColorMatrix in="SourceAlpha" type="matrix" values="0 0 0 0 0 0 0 0 0 0 0 0 0 0 0 0 0 0 127 0" result="hardAlpha"/>
<feOffset dy="2"/>
<feGaussianBlur stdDeviation="4"/>
<feComposite in2="hardAlpha" operator="out"/>
<feColorMatrix type="matrix" values="0 0 0 0 0 0 0 0 0 0 0 0 0 0 0 0 0 0 0.12 0"/>
<feBlend mode="normal" in2="BackgroundImageFix" result="effect1_dropShadow_2420_13454"/>
<feBlend mode="normal" in="SourceGraphic" in2="effect1_dropShadow_2420_13454" result="shape"/>
</filter>
</defs>
</svg>
