<svg width="356" height="219" viewBox="0 0 356 219" fill="none" xmlns="http://www.w3.org/2000/svg">
<path d="M331.93 143.352C331.93 155.504 321.233 166.306 307.86 166.306C321.233 166.306 331.93 177.108 331.93 190.611C331.93 177.108 342.628 166.306 356 166.306C341.291 166.306 331.93 155.504 331.93 143.352Z" fill="#A8CFFF"/>
<path d="M299.464 123.098C299.464 95.9054 321.109 74.1512 348.164 74.1512C321.109 74.1512 299.464 52.3969 299.464 25.2041C299.464 52.3969 277.82 74.1512 250.765 74.1512C277.82 76.8705 299.464 95.9054 299.464 123.098Z" fill="#A8CFFF"/>
<path d="M261.4 130.974C261.4 150.665 245.727 166.418 226.135 166.418C245.727 166.418 261.4 182.171 261.4 201.863C261.4 182.171 277.073 166.418 296.665 166.418C277.073 166.418 261.4 150.665 261.4 130.974Z" fill="#A8CFFF"/>
<path d="M60.289 173.652L57.4485 208.662L57.4482 208.661C57.2033 211.079 57.9259 213.493 59.4559 215.374C60.9856 217.255 63.1975 218.446 65.6015 218.684L67.9158 218.955C70.3186 219.195 72.7186 218.468 74.5879 216.93C76.4576 215.395 77.6447 213.174 77.8886 210.76L79.7981 184.976L79.7966 184.977C72.7987 182.14 66.2316 178.327 60.289 173.652Z" fill="#759FD2"/>
<path d="M100.113 31.0043L98.2916 21.6834L85.993 24.1118L87.8274 33.4968C89.8398 32.9172 91.908 32.3963 93.9972 31.9837C96.0864 31.5712 98.0808 31.2456 100.113 31.0043Z" fill="#A8CFFF"/>
<path d="M164.687 168.217L173.66 185.1C174.795 187.242 176.73 188.847 179.038 189.557C181.348 190.269 183.843 190.03 185.977 188.894L188.017 187.764C190.153 186.629 191.752 184.685 192.46 182.363C193.168 180.039 192.928 177.53 191.792 175.385L178.526 150.306L178.526 150.308C174.772 156.901 170.112 162.93 164.687 168.217Z" fill="#A8CFFF"/>
<path d="M34.3966 125.368C37.306 140.277 44.549 153.985 55.2103 164.755C65.8717 175.524 79.4716 182.876 94.2901 185.878C109.109 188.879 124.479 187.396 138.461 181.616C152.44 175.836 164.401 166.019 172.829 153.406C181.255 140.794 185.772 125.953 185.808 110.758C185.843 95.5646 181.394 80.7029 173.023 68.0504C164.653 55.399 152.738 45.527 138.785 39.6823C124.832 33.8393 109.466 32.2846 94.6359 35.2178C74.7654 39.1651 57.266 50.8731 45.9719 67.7737C34.6778 84.6743 30.5164 105.385 34.3982 125.366L34.3966 125.368ZM100.678 44.9799C117.29 42.7585 134.118 46.9866 147.734 56.803C161.351 66.6194 170.731 81.2839 173.963 97.81C174.22 99.1224 174.476 100.435 174.628 101.792L174.629 101.791C176.846 118.498 172.644 135.425 162.875 149.126C153.108 162.824 138.509 172.264 122.058 175.521C120.708 175.788 119.35 176.01 117.984 176.189C101.387 178.386 84.5831 174.147 70.986 164.333C57.3891 154.52 48.021 139.87 44.7881 123.364C44.5274 122.03 44.2706 120.716 44.1193 119.361C41.818 101.964 46.4844 84.3616 57.0927 70.4229C67.6991 56.4828 83.3798 47.3479 100.689 45.0253L100.678 44.9799Z" fill="#A8CFFF"/>
<path d="M50.3345 89.8672L60.2952 93.0579C61.1418 93.3472 61.6103 94.2596 61.3527 95.1203C61.1796 95.7029 60.699 96.1401 60.1062 96.254C59.8293 96.3134 59.5429 96.2923 59.2783 96.1893L49.4145 93.0253C46.9935 101.406 46.3412 110.203 47.5004 118.851L47.9281 121.04L58.1585 119.02L58.157 119.02C59.0589 118.842 59.9342 119.431 60.1113 120.338C60.2885 121.244 59.7002 122.123 58.7983 122.301L48.5679 124.321L48.5694 124.321C50.5777 133.538 54.647 142.175 60.4683 149.578L68.4878 142.837C69.1874 142.261 70.2167 142.364 70.7918 143.063C71.3545 143.764 71.2639 144.785 70.5894 145.376L62.5929 152.112L62.5914 152.113C68.6604 159.031 76.1624 164.53 84.5716 168.221L88.4335 158.371C88.7977 157.579 89.6927 157.189 90.5166 157.459C91.3183 157.809 91.7149 158.725 91.4226 159.553L87.5393 169.407C97.1279 172.993 107.447 174.148 117.586 172.769L119.763 172.339L117.79 162.254C117.613 161.347 118.201 160.469 119.102 160.291C120.003 160.113 120.879 160.702 121.056 161.609L123.062 171.87C133.787 169.484 143.69 164.283 151.764 156.794L144.507 149.276C143.924 148.62 143.947 147.622 144.558 146.994C145.218 146.43 146.194 146.451 146.829 147.045L154.113 154.468C155.879 152.661 157.536 150.749 159.074 148.74C163.086 143.458 166.247 137.573 168.439 131.303L158.456 128.117C157.608 127.828 157.14 126.915 157.397 126.053C157.666 125.187 158.582 124.702 159.446 124.967L169.411 128.066C171.832 119.686 172.484 110.889 171.325 102.24L170.898 100.052L160.667 102.072C159.765 102.25 158.891 101.66 158.714 100.754C158.537 99.8474 159.124 98.9692 160.026 98.7911L170.256 96.7711C168.226 87.5198 164.121 78.8569 158.252 71.4428L150.232 78.1837L150.234 78.185C150.028 78.3795 149.771 78.5094 149.492 78.5582C148.9 78.6781 148.291 78.4562 147.911 77.9842C147.349 77.2838 147.439 76.2612 148.114 75.6715L156.11 68.9351L156.112 68.9348C153.436 65.8859 150.471 63.1083 147.256 60.6397C143.25 57.5491 138.887 54.9538 134.262 52.9128L130.379 62.655C130.161 63.1752 129.702 63.5542 129.152 63.6692C128.551 63.7989 127.927 63.5829 127.532 63.1094C127.136 62.6344 127.032 61.9798 127.263 61.4063L131.168 51.6598L131.168 51.6614C121.58 48.0755 111.26 46.9211 101.122 48.3001L98.9445 48.73L100.95 58.9913L100.952 58.991C101.129 59.8975 100.541 60.776 99.6402 60.9538C98.7383 61.1319 97.863 60.5423 97.6859 59.6359L95.676 49.3535C84.9441 51.7198 75.0346 56.9241 66.9737 64.4277L74.3046 71.864C74.7313 72.3044 74.8848 72.9445 74.7013 73.5307C74.5182 74.1184 74.0296 74.5556 73.4296 74.6725C72.8773 74.7752 72.3113 74.5985 71.9133 74.2001L64.6124 66.6901C62.8744 68.52 61.2443 70.4505 59.7293 72.4709C55.7133 77.7413 52.5431 83.6111 50.3345 89.8672ZM101.031 76.6301C100.853 75.7237 101.44 74.8454 102.342 74.6674C103.244 74.4893 104.118 75.0791 104.295 75.9856L110.867 109.61L126.687 121.143C127.437 121.665 127.638 122.694 127.14 123.462C126.889 123.799 126.524 124.031 126.115 124.118C125.66 124.211 125.189 124.106 124.815 123.829L108.467 111.902C108.119 111.66 107.877 111.293 107.792 110.877L101.031 76.6301Z" fill="white"/>
<path d="M64.204 36.616C45.9744 24.3107 22.6472 26.6438 12.4015 42.0041L4.92948 53.1585C-5.31578 68.5187 1.22933 91.0164 19.5855 103.389L64.204 36.616Z" fill="#A8CFFF"/>
<path d="M173.154 10.2639C157.823 -0.0462862 135.481 6.52372 123.173 24.9733L164.946 53.1707L189.564 69.8268C201.807 51.5045 199.491 28.0814 184.203 17.7611L173.154 10.2639Z" fill="#A8CFFF"/>
<path d="M69.4073 8.07286L107.782 0.495668C109.886 0.0801416 112.005 1.85858 112.34 3.57232L113.828 11.1856C114.241 13.3008 112.871 15.3512 110.767 15.7667L72.3922 23.3439C70.2878 23.7594 68.1693 21.981 67.8343 20.2672L66.3462 12.6539C65.9328 10.5388 67.3029 8.48839 69.4073 8.07286Z" fill="#A8CFFF"/>
<path d="M123.673 136.916C121.884 138.039 119.673 138.478 117.46 137.972L114.701 137.331C113.633 137.085 112.525 137.274 111.588 137.859L109.198 139.359C105.336 141.783 100.23 140.597 97.818 136.715L96.3243 134.311C95.7393 133.375 94.8256 132.717 93.7531 132.464L91.0407 131.836C86.6061 130.819 83.8177 126.358 84.8295 121.897L85.4657 119.122C85.7105 118.048 85.5228 116.934 84.941 115.992L83.4501 113.593C81.0366 109.709 82.2167 104.577 86.0788 102.153L88.4705 100.651C89.4034 100.066 90.0562 99.1489 90.3051 98.0662L90.9361 95.3395C91.947 90.8823 96.382 88.0788 100.824 89.0967L103.583 89.7376C104.655 89.9846 105.761 89.7973 106.694 89.2117L109.086 87.7103C112.948 85.286 118.054 86.4721 120.468 90.3561L121.96 92.7576C122.545 93.6938 123.459 94.3523 124.531 94.6054L127.245 95.2358C129.391 95.7283 131.22 97.0314 132.397 98.9094C133.564 100.777 133.941 102.988 133.463 105.138C133.454 105.176 133.449 105.215 133.439 105.25L132.819 107.947C132.574 109.021 132.762 110.135 133.344 111.076L134.836 113.478C137.248 117.36 136.068 122.492 132.206 124.916L129.814 126.418C128.883 127.006 128.227 127.924 127.978 129L127.348 131.729C126.842 133.965 125.472 135.787 123.673 136.916Z" fill="#EEAB00"/>
<path d="M101.763 111.835C101.619 112.461 101.251 112.982 100.699 113.328C100.183 113.652 99.5434 113.758 98.898 113.63C98.272 113.487 97.7249 113.095 97.3922 112.56C97.0754 112.05 96.964 111.392 97.0895 110.751C97.1658 110.41 97.3136 110.097 97.5079 109.858C98.01 109.094 99.0607 108.698 99.9776 108.935C100.299 109.009 100.585 109.132 100.826 109.296C101.087 109.47 101.314 109.711 101.487 109.99C101.833 110.546 101.933 111.202 101.763 111.835Z" fill="white"/>
<path d="M111.937 101.414C110.65 101.117 109.358 101.927 109.059 103.221L104.569 122.747C104.271 124.042 105.078 125.34 106.368 125.641C106.994 125.785 107.636 125.678 108.18 125.336C108.725 124.994 109.102 124.462 109.246 123.835L113.736 104.309C114.032 103.011 113.227 101.716 111.937 101.414Z" fill="white"/>
<path d="M118.473 113.415C117.522 113.57 116.736 114.304 116.512 115.276C116.479 115.499 116.444 115.833 116.49 116.171C116.541 116.535 116.715 116.852 116.843 117.058C116.971 117.264 117.176 117.557 117.479 117.764C117.758 117.953 118.03 118.078 118.329 118.147C118.994 118.276 119.606 118.168 120.15 117.826C120.667 117.502 121.043 116.973 121.217 116.321C121.356 115.717 121.239 115.076 120.892 114.517C120.543 113.955 120.022 113.57 119.417 113.43C119.086 113.355 118.741 113.351 118.473 113.415Z" fill="white"/>
</svg>
