<svg width="440" height="242" viewBox="0 0 440 242" fill="none" xmlns="http://www.w3.org/2000/svg">
<g clip-path="url(#clip0_9007_6651)">
<path d="M0 12.1C0 5.41736 5.37258 0 12 0H428C434.627 0 440 5.41735 440 12.1V242H0V12.1Z" fill="#FFF9D5"/>
<path d="M57.5361 199.433H132.805V131.913H57.5361" fill="#FFEE93"/>
<path d="M89.6338 199.433H100.702V120.844H89.6338" fill="#F7DB17"/>
<path d="M52 120.844H138.337V131.913H52" fill="#F7DB17"/>
<path d="M96.3563 120.919C141.721 115.931 104.929 90.8079 96.3563 120.919Z" stroke="#F7DB17" stroke-width="3"/>
<path d="M92.1544 119.264C72.5026 86.9404 54.1479 120.841 92.1544 119.264Z" stroke="#F7DB17" stroke-width="3"/>
<path d="M94.792 121.504C113.94 88.879 75.3897 88.7849 94.792 121.504Z" stroke="#F7DB17" stroke-width="3"/>
<g filter="url(#filter0_d_9007_6651)">
<rect x="123" y="54" width="194" height="145" rx="8" fill="white"/>
</g>
<path d="M141 77C137.686 77 135 78.849 135 81.1299V183.87C135 186.151 137.686 188 141 188H299C302.314 188 305 186.151 305 183.87V81.1299C305 78.849 302.314 77 299 77H141Z" fill="#FFF6C4"/>
<path d="M294 95H169C167.343 95 166 96.3431 166 98C166 99.6569 167.343 101 169 101H294C295.657 101 297 99.6569 297 98C297 96.3431 295.657 95 294 95Z" fill="white"/>
<path d="M294 109H189C187.343 109 186 110.343 186 112C186 113.657 187.343 115 189 115H294C295.657 115 297 113.657 297 112C297 110.343 295.657 109 294 109Z" fill="white"/>
<path d="M254 123H169C167.343 123 166 124.343 166 126C166 127.657 167.343 129 169 129H254C255.657 129 257 127.657 257 126C257 124.343 255.657 123 254 123Z" fill="white"/>
<path d="M294 137H179C177.343 137 176 138.343 176 140C176 141.657 177.343 143 179 143H294C295.657 143 297 141.657 297 140C297 138.343 295.657 137 294 137Z" fill="white"/>
<path d="M294 151H199C197.343 151 196 152.343 196 154C196 155.657 197.343 157 199 157H294C295.657 157 297 155.657 297 154C297 152.343 295.657 151 294 151Z" fill="white"/>
<path d="M294 165H169C167.343 165 166 166.343 166 168C166 169.657 167.343 171 169 171H294C295.657 171 297 169.657 297 168C297 166.343 295.657 165 294 165Z" fill="white"/>
<path d="M159 95H146C144.343 95 143 96.3431 143 98C143 99.6569 144.343 101 146 101H159C160.657 101 162 99.6569 162 98C162 96.3431 160.657 95 159 95Z" fill="white"/>
<path d="M179 109H146C144.343 109 143 110.343 143 112C143 113.657 144.343 115 146 115H179C180.657 115 182 113.657 182 112C182 110.343 180.657 109 179 109Z" fill="white"/>
<path d="M159 123H146C144.343 123 143 124.343 143 126C143 127.657 144.343 129 146 129H159C160.657 129 162 127.657 162 126C162 124.343 160.657 123 159 123Z" fill="white"/>
<path d="M169 137H146C144.343 137 143 138.343 143 140C143 141.657 144.343 143 146 143H169C170.657 143 172 141.657 172 140C172 138.343 170.657 137 169 137Z" fill="white"/>
<path d="M189 151H146C144.343 151 143 152.343 143 154C143 155.657 144.343 157 146 157H189C190.657 157 192 155.657 192 154C192 152.343 190.657 151 189 151Z" fill="white"/>
<path d="M159 165H146C144.343 165 143 166.343 143 168C143 169.657 144.343 171 146 171H159C160.657 171 162 169.657 162 168C162 166.343 160.657 165 159 165Z" fill="white"/>
<path d="M137.5 69C139.433 69 141 67.433 141 65.5C141 63.567 139.433 62 137.5 62C135.567 62 134 63.567 134 65.5C134 67.433 135.567 69 137.5 69Z" fill="#FFA7A7"/>
<path d="M147.5 69C149.433 69 151 67.433 151 65.5C151 63.567 149.433 62 147.5 62C145.567 62 144 63.567 144 65.5C144 67.433 145.567 69 147.5 69Z" fill="#FFED7C"/>
<path d="M157.5 69C159.433 69 161 67.433 161 65.5C161 63.567 159.433 62 157.5 62C155.567 62 154 63.567 154 65.5C154 67.433 155.567 69 157.5 69Z" fill="#8FEFA4"/>
<path d="M367.638 164.471L367.048 154.431L361.555 153.592C361.126 152.213 360.603 150.864 359.991 149.554L363.882 145.635L358.305 137.237L352.577 139.447C351.635 138.582 350.643 137.773 349.603 137.025L351.13 131.19L342.068 126.68L337.966 131.75C336.827 131.485 335.675 131.28 334.514 131.137L332.803 125L322.682 125.588L321.67 132.11C320.566 132.422 319.479 132.792 318.414 133.217L313.809 128.725L305.34 134.253L307.684 140.222C306.818 141.072 306.003 141.97 305.24 142.911L299.24 141.368L294.696 150.354L299.385 154.084C299.005 155.381 298.707 156.7 298.493 158.033L293 159.538L293.591 169.576L298.938 170.39C299.29 171.886 299.75 173.355 300.316 174.785L296.754 178.369L302.331 186.765L306.829 185.03C308.004 186.28 309.277 187.434 310.639 188.481L309.504 192.812L318.568 197.321L321.331 193.907C323.093 194.422 324.895 194.789 326.719 195.005L327.833 199L337.956 198.417L338.606 194.228C340.409 193.768 342.169 193.155 343.865 192.393L346.823 195.279L355.293 189.753L353.67 185.619C354.928 184.355 356.077 182.988 357.106 181.533L361.395 182.636L365.944 173.651L362.082 170.58C362.466 169 362.729 167.394 362.868 165.775L367.638 164.471ZM338.183 174.575C331.77 178.763 323.146 177.002 318.924 170.643C314.703 164.284 316.48 155.732 322.893 151.546C329.306 147.36 337.93 149.121 342.154 155.482C346.378 161.844 344.596 170.391 338.183 174.575Z" fill="#F7DB17"/>
<path d="M318.715 144.523C308.711 151.109 305.937 164.557 312.523 174.562C319.108 184.568 332.558 187.339 342.562 180.751C352.567 174.162 355.34 160.719 348.752 150.714C342.165 140.709 328.718 137.938 318.715 144.523ZM340.089 176.992C332.161 182.213 321.503 180.017 316.286 172.088C311.069 164.158 313.263 153.5 321.19 148.281C329.116 143.063 339.776 145.261 344.996 153.19C350.214 161.119 348.016 171.774 340.089 176.992Z" fill="white"/>
</g>
<defs>
<filter id="filter0_d_9007_6651" x="115" y="50" width="210" height="161" filterUnits="userSpaceOnUse" color-interpolation-filters="sRGB">
<feFlood flood-opacity="0" result="BackgroundImageFix"/>
<feColorMatrix in="SourceAlpha" type="matrix" values="0 0 0 0 0 0 0 0 0 0 0 0 0 0 0 0 0 0 127 0" result="hardAlpha"/>
<feOffset dy="4"/>
<feGaussianBlur stdDeviation="4"/>
<feComposite in2="hardAlpha" operator="out"/>
<feColorMatrix type="matrix" values="0 0 0 0 0 0 0 0 0 0 0 0 0 0 0 0 0 0 0.06 0"/>
<feBlend mode="normal" in2="BackgroundImageFix" result="effect1_dropShadow_9007_6651"/>
<feBlend mode="normal" in="SourceGraphic" in2="effect1_dropShadow_9007_6651" result="shape"/>
</filter>
<clipPath id="clip0_9007_6651">
<rect width="440" height="242" fill="white"/>
</clipPath>
</defs>
</svg>
