<svg width="440" height="240" viewBox="0 0 440 240" fill="none" xmlns="http://www.w3.org/2000/svg">
<path d="M0 12C0 5.37259 5.37258 0 12 0H428C434.627 0 440 5.37258 440 12V240H0V12Z" fill="#E5F0E2"/>
<path d="M308.31 119.952C308.31 128.547 300.705 136.188 291.199 136.188C300.705 136.188 308.31 143.828 308.31 153.378C308.31 143.828 315.914 136.188 325.421 136.188C314.964 136.188 308.31 128.547 308.31 119.952Z" fill="#B1D2A8"/>
<path d="M82.6198 104.24C82.6198 85.0063 98.0063 69.6198 117.24 69.6198C98.0063 69.6198 82.6198 54.2332 82.6198 35C82.6198 54.2332 67.2332 69.6198 48 69.6198C67.2332 71.5431 82.6198 85.0063 82.6198 104.24Z" fill="#B1D2A8"/>
<path d="M353.93 154.379C353.93 168.306 342.788 179.448 328.86 179.448C342.788 179.448 353.93 190.59 353.93 204.518C353.93 190.59 365.072 179.448 378.999 179.448C365.072 179.448 353.93 168.306 353.93 154.379Z" fill="#B1D2A8"/>
<path d="M62.4658 203.731H137.735V136.211H62.4658" fill="#B1D2A8"/>
<path d="M94.5635 203.731H105.632V125.142H94.5635" fill="#95BD8B"/>
<path d="M56.9297 125.142H143.267V136.211H56.9297" fill="#95BD8B"/>
<path d="M101.286 125.217C109.859 95.1057 146.651 120.229 101.286 125.217" stroke="#B1D2A8" stroke-width="3"/>
<path d="M97.0841 123.562C59.0776 125.139 77.4323 91.2382 97.0841 123.562" stroke="#B1D2A8" stroke-width="3"/>
<path d="M99.7217 125.802C80.3194 93.0828 118.87 93.1769 99.7217 125.802" stroke="#B1D2A8" stroke-width="3"/>
<path d="M150.487 204.686H276.08V153.072H150.487" fill="#B1D2A8"/>
<path d="M141.885 153.072H284.682V170.277H141.885" fill="#95BD8B"/>
<path d="M205.542 204.686H222.746V153.072H205.542" fill="#95BD8B"/>
<path d="M215.865 153.072C157.37 144.47 195.22 98.0176 215.865 153.072" stroke="#B1D2A8" stroke-width="3"/>
<path d="M215.865 153.072C222.747 104.9 284.683 135.868 215.865 153.072" stroke="#B1D2A8" stroke-width="3"/>
<rect x="156.127" y="35.5" width="156.232" height="27.0215" rx="7.5" stroke="#B1D2A8"/>
<path d="M166.32 54.4592V44.2695H169.758C170.422 44.2695 170.974 44.3856 171.415 44.6178C171.86 44.85 172.193 45.1668 172.415 45.5681C172.637 45.9695 172.749 46.4256 172.749 46.9364C172.749 47.3609 172.677 47.7241 172.535 48.026C172.392 48.3278 172.198 48.5716 171.952 48.7574C171.707 48.9431 171.433 49.0774 171.132 49.1604V49.24C171.46 49.2632 171.778 49.3793 172.087 49.5883C172.395 49.7939 172.649 50.0825 172.848 50.454C173.047 50.8255 173.147 51.2699 173.147 51.7874C173.147 52.3015 173.032 52.7609 172.803 53.1656C172.574 53.5669 172.223 53.8837 171.748 54.1159C171.277 54.3448 170.677 54.4592 169.947 54.4592H166.32ZM167.251 53.6233H169.947C170.734 53.6233 171.314 53.4492 171.689 53.1009C172.067 52.7526 172.256 52.3148 172.256 51.7874C172.256 51.3993 172.161 51.0477 171.972 50.7326C171.787 50.4142 171.523 50.1621 171.181 49.9763C170.843 49.7906 170.445 49.6977 169.987 49.6977H167.251V53.6233ZM167.251 48.8718H169.843C170.244 48.8718 170.596 48.7889 170.898 48.623C171.2 48.4572 171.435 48.2283 171.604 47.9364C171.773 47.6445 171.858 47.3112 171.858 46.9364C171.858 46.3957 171.682 45.9562 171.331 45.6179C170.979 45.2762 170.455 45.1054 169.758 45.1054H167.251V48.8718Z" fill="#588D49"/>
<path d="M176.093 44.2695V54.4592H175.208V44.2695H176.093Z" fill="#588D49"/>
<path d="M180.571 54.6333C180.11 54.6333 179.689 54.5438 179.307 54.3647C178.926 54.1822 178.622 53.9202 178.397 53.5785C178.171 53.2336 178.059 52.8156 178.059 52.3247C178.059 51.9466 178.13 51.6282 178.273 51.3695C178.415 51.1107 178.617 50.8984 178.88 50.7326C179.142 50.5668 179.452 50.4357 179.81 50.3395C180.168 50.2434 180.563 50.1687 180.994 50.1157C181.422 50.0626 181.783 50.0161 182.079 49.9763C182.377 49.9365 182.604 49.8735 182.76 49.7873C182.916 49.701 182.994 49.5617 182.994 49.3693V49.1902C182.994 48.6695 182.838 48.2598 182.526 47.9613C182.218 47.6595 181.774 47.5085 181.193 47.5085C180.642 47.5085 180.193 47.6296 179.845 47.8717C179.5 48.1139 179.258 48.3991 179.118 48.7275L178.277 48.424C178.45 48.0061 178.689 47.6727 178.994 47.424C179.299 47.1719 179.641 46.9911 180.019 46.8816C180.397 46.7689 180.78 46.7125 181.168 46.7125C181.46 46.7125 181.764 46.7506 182.079 46.8269C182.397 46.9032 182.692 47.0359 182.964 47.2249C183.236 47.4107 183.457 47.6711 183.626 48.0061C183.795 48.3378 183.88 48.759 183.88 49.2698V54.4592H182.994V53.2502H182.939C182.833 53.4757 182.676 53.6946 182.467 53.9069C182.258 54.1192 181.996 54.2933 181.681 54.4293C181.366 54.5653 180.996 54.6333 180.571 54.6333ZM180.691 53.8223C181.162 53.8223 181.57 53.7179 181.915 53.5089C182.259 53.2999 182.525 53.023 182.711 52.678C182.9 52.3297 182.994 51.9466 182.994 51.5287V50.4241C182.928 50.4871 182.817 50.5435 182.661 50.5933C182.508 50.643 182.331 50.6878 182.128 50.7276C181.929 50.7641 181.73 50.7956 181.531 50.8222C181.332 50.8487 181.153 50.8719 180.994 50.8918C180.563 50.9449 180.195 51.0278 179.89 51.1406C179.584 51.2534 179.351 51.4093 179.188 51.6083C179.025 51.804 178.944 52.0561 178.944 52.3645C178.944 52.8289 179.11 53.1888 179.442 53.4442C179.773 53.6963 180.19 53.8223 180.691 53.8223Z" fill="#588D49"/>
<path d="M189.221 54.6184C188.538 54.6184 187.942 54.4476 187.435 54.1059C186.931 53.7643 186.539 53.2966 186.261 52.7029C185.982 52.1091 185.843 51.4325 185.843 50.6729C185.843 49.9067 185.984 49.2251 186.266 48.628C186.551 48.031 186.945 47.5633 187.45 47.2249C187.954 46.8833 188.539 46.7125 189.206 46.7125C189.717 46.7125 190.179 46.812 190.594 47.011C191.009 47.2067 191.35 47.4837 191.619 47.8419C191.891 48.1968 192.062 48.6114 192.132 49.0857H191.236C191.143 48.6545 190.919 48.2864 190.564 47.9812C190.213 47.6727 189.765 47.5185 189.221 47.5185C188.733 47.5185 188.302 47.6512 187.927 47.9165C187.552 48.1786 187.259 48.5451 187.047 49.0161C186.838 49.4838 186.733 50.0261 186.733 50.643C186.733 51.2633 186.836 51.8123 187.042 52.2899C187.247 52.7642 187.536 53.1357 187.907 53.4044C188.282 53.6731 188.72 53.8074 189.221 53.8074C189.559 53.8074 189.868 53.7444 190.146 53.6183C190.428 53.489 190.664 53.3066 190.853 53.071C191.045 52.8355 191.175 52.5553 191.241 52.2302H192.136C192.07 52.6913 191.906 53.1026 191.644 53.4641C191.385 53.8223 191.049 54.1043 190.634 54.3099C190.223 54.5156 189.752 54.6184 189.221 54.6184Z" fill="#588D49"/>
<path d="M194.841 51.5734L194.831 50.4142H195.03L198.612 46.817H199.731L196.194 50.3594L196.114 50.3744L194.841 51.5734ZM194.035 54.4592V44.2695H194.92V54.4592H194.035ZM198.796 54.4592L195.691 50.5336L196.328 49.9216L199.93 54.4592H198.796Z" fill="#588D49"/>
<path d="M205.52 54.4592V44.2695H211.416V45.1054H206.451V48.9415H210.954V49.7773H206.451V54.4592H205.52Z" fill="#588D49"/>
<path d="M213.464 54.4592V46.817H214.324V47.9911H214.389C214.542 47.6064 214.807 47.2962 215.185 47.0607C215.567 46.8219 215.998 46.7025 216.479 46.7025C216.552 46.7025 216.633 46.7042 216.722 46.7075C216.812 46.7108 216.887 46.7141 216.946 46.7174V47.618C216.907 47.6114 216.837 47.6014 216.737 47.5881C216.638 47.5749 216.53 47.5682 216.414 47.5682C216.016 47.5682 215.661 47.6528 215.349 47.822C215.041 47.9878 214.797 48.2184 214.618 48.5136C214.439 48.8088 214.349 49.1454 214.349 49.5236V54.4592H213.464Z" fill="#588D49"/>
<path d="M218.468 54.4592V46.817H219.358V54.4592H218.468ZM218.92 45.5034C218.738 45.5034 218.582 45.4421 218.453 45.3194C218.323 45.1933 218.259 45.0424 218.259 44.8666C218.259 44.6908 218.323 44.5415 218.453 44.4188C218.582 44.2928 218.738 44.2297 218.92 44.2297C219.103 44.2297 219.259 44.2928 219.388 44.4188C219.517 44.5415 219.582 44.6908 219.582 44.8666C219.582 45.0424 219.517 45.1933 219.388 45.3194C219.259 45.4421 219.103 45.5034 218.92 45.5034Z" fill="#588D49"/>
<path d="M224.452 54.6184C223.825 54.6184 223.276 54.4526 222.805 54.1209C222.334 53.7892 221.966 53.3265 221.7 52.7327C221.438 52.139 221.307 51.4474 221.307 50.658C221.307 49.8719 221.438 49.1836 221.7 48.5932C221.966 47.9994 222.336 47.5384 222.81 47.21C223.284 46.8783 223.837 46.7125 224.467 46.7125C224.931 46.7125 225.318 46.7954 225.626 46.9612C225.934 47.1238 226.182 47.3261 226.367 47.5682C226.553 47.8104 226.697 48.0459 226.8 48.2747H226.88V44.2695H227.77V54.4592H226.905V53.0412H226.8C226.697 53.2734 226.551 53.5122 226.362 53.7577C226.173 53.9998 225.923 54.2038 225.611 54.3696C225.303 54.5355 224.916 54.6184 224.452 54.6184ZM224.556 53.8074C225.051 53.8074 225.472 53.6731 225.82 53.4044C226.168 53.1324 226.434 52.7593 226.616 52.2849C226.802 51.8073 226.895 51.26 226.895 50.643C226.895 50.0327 226.804 49.4937 226.621 49.026C226.439 48.555 226.173 48.1868 225.825 47.9215C225.477 47.6528 225.054 47.5185 224.556 47.5185C224.045 47.5185 223.614 47.6578 223.263 47.9364C222.914 48.2117 222.649 48.5849 222.467 49.0559C222.287 49.5269 222.198 50.0559 222.198 50.643C222.198 51.2368 222.289 51.7725 222.472 52.2501C222.654 52.7277 222.919 53.1075 223.268 53.3895C223.619 53.6681 224.049 53.8074 224.556 53.8074Z" fill="#588D49"/>
<path d="M232.427 54.6333C231.966 54.6333 231.545 54.5438 231.164 54.3647C230.782 54.1822 230.479 53.9202 230.253 53.5785C230.028 53.2336 229.915 52.8156 229.915 52.3247C229.915 51.9466 229.986 51.6282 230.129 51.3695C230.271 51.1107 230.474 50.8984 230.736 50.7326C230.998 50.5668 231.308 50.4357 231.666 50.3395C232.024 50.2434 232.419 50.1687 232.85 50.1157C233.278 50.0626 233.64 50.0161 233.935 49.9763C234.233 49.9365 234.461 49.8735 234.617 49.7873C234.772 49.701 234.85 49.5617 234.85 49.3693V49.1902C234.85 48.6695 234.695 48.2598 234.383 47.9613C234.074 47.6595 233.63 47.5085 233.049 47.5085C232.499 47.5085 232.049 47.6296 231.701 47.8717C231.356 48.1139 231.114 48.3991 230.975 48.7275L230.134 48.424C230.306 48.0061 230.545 47.6727 230.85 47.424C231.155 47.1719 231.497 46.9911 231.875 46.8816C232.253 46.7689 232.636 46.7125 233.024 46.7125C233.316 46.7125 233.62 46.7506 233.935 46.8269C234.253 46.9032 234.549 47.0359 234.821 47.2249C235.093 47.4107 235.313 47.6711 235.482 48.0061C235.651 48.3378 235.736 48.759 235.736 49.2698V54.4592H234.85V53.2502H234.796C234.69 53.4757 234.532 53.6946 234.323 53.9069C234.114 54.1192 233.852 54.2933 233.537 54.4293C233.222 54.5653 232.852 54.6333 232.427 54.6333ZM232.547 53.8223C233.018 53.8223 233.426 53.7179 233.771 53.5089C234.116 53.2999 234.381 53.023 234.567 52.678C234.756 52.3297 234.85 51.9466 234.85 51.5287V50.4241C234.784 50.4871 234.673 50.5435 234.517 50.5933C234.364 50.643 234.187 50.6878 233.985 50.7276C233.786 50.7641 233.587 50.7956 233.388 50.8222C233.189 50.8487 233.01 50.8719 232.85 50.8918C232.419 50.9449 232.051 51.0278 231.746 51.1406C231.441 51.2534 231.207 51.4093 231.044 51.6083C230.882 51.804 230.8 52.0561 230.8 52.3645C230.8 52.8289 230.966 53.1888 231.298 53.4442C231.63 53.6963 232.046 53.8223 232.547 53.8223Z" fill="#588D49"/>
<path d="M238.435 57.325C238.259 57.325 238.095 57.3084 237.943 57.2753C237.79 57.2421 237.669 57.2056 237.579 57.1658L237.818 56.3847C238.12 56.4775 238.389 56.5107 238.624 56.4842C238.86 56.461 239.069 56.3548 239.251 56.1658C239.434 55.98 239.596 55.6947 239.739 55.31L240.017 54.5338L237.206 46.817H238.167L240.435 53.29H240.505L242.774 46.817H243.734L240.5 55.6682C240.364 56.0364 240.197 56.3432 239.997 56.5887C239.798 56.8374 239.568 57.0215 239.306 57.1409C239.047 57.2637 238.757 57.325 238.435 57.325Z" fill="#588D49"/>
<path d="M249.129 52.27V51.5137L253.671 44.2695H254.228V45.5383H253.815L250.168 51.3695V51.4341H256.124V52.27H249.129ZM253.885 54.4592V52.0312V51.6829V44.2695H254.771V54.4592H253.885Z" fill="#588D49"/>
<path d="M261.307 54.5985C260.591 54.5985 259.979 54.3928 259.471 53.9815C258.967 53.5669 258.579 52.9682 258.307 52.1854C258.038 51.4026 257.904 50.4623 257.904 49.3644C257.904 48.2698 258.038 47.3327 258.307 46.5533C258.579 45.7705 258.969 45.1717 259.476 44.7571C259.987 44.3392 260.597 44.1302 261.307 44.1302C262.017 44.1302 262.626 44.3392 263.133 44.7571C263.644 45.1717 264.034 45.7705 264.302 46.5533C264.574 47.3327 264.71 48.2698 264.71 49.3644C264.71 50.4623 264.574 51.4026 264.302 52.1854C264.034 52.9682 263.646 53.5669 263.138 53.9815C262.634 54.3928 262.024 54.5985 261.307 54.5985ZM261.307 53.7626C262.093 53.7626 262.707 53.3795 263.148 52.6133C263.589 51.8438 263.81 50.7608 263.81 49.3644C263.81 48.4356 263.709 47.6429 263.506 46.9861C263.307 46.326 263.02 45.8219 262.646 45.4736C262.274 45.1253 261.828 44.9512 261.307 44.9512C260.528 44.9512 259.916 45.3393 259.471 46.1154C259.027 46.8883 258.805 47.9712 258.805 49.3644C258.805 50.2931 258.904 51.0859 259.103 51.7426C259.305 52.3994 259.592 52.9002 259.964 53.2452C260.339 53.5901 260.786 53.7626 261.307 53.7626Z" fill="#588D49"/>
<path d="M271.89 52.5685V52.1058C271.89 51.7244 271.966 51.3811 272.119 51.0759C272.271 50.7674 272.489 50.5236 272.771 50.3445C273.052 50.1654 273.387 50.0758 273.776 50.0758C274.167 50.0758 274.502 50.1654 274.781 50.3445C275.059 50.5236 275.273 50.7674 275.422 51.0759C275.572 51.3811 275.646 51.7244 275.646 52.1058V52.5685C275.646 52.95 275.57 53.2933 275.417 53.5984C275.268 53.9036 275.054 54.1474 274.776 54.3298C274.497 54.5089 274.164 54.5985 273.776 54.5985C273.381 54.5985 273.043 54.5089 272.761 54.3298C272.482 54.1474 272.266 53.9036 272.114 53.5984C271.965 53.2933 271.89 52.95 271.89 52.5685ZM272.671 52.1058V52.5685C272.671 52.9433 272.762 53.2634 272.945 53.5288C273.13 53.7908 273.407 53.9218 273.776 53.9218C274.134 53.9218 274.404 53.7908 274.587 53.5288C274.769 53.2634 274.86 52.9433 274.86 52.5685V52.1058C274.86 51.731 274.771 51.4126 274.592 51.1505C274.412 50.8852 274.14 50.7525 273.776 50.7525C273.414 50.7525 273.139 50.8852 272.95 51.1505C272.764 51.4126 272.671 51.731 272.671 52.1058ZM266.755 46.6229V46.1602C266.755 45.7787 266.832 45.4354 266.984 45.1303C267.137 44.8251 267.354 44.583 267.636 44.4039C267.918 44.2214 268.253 44.1302 268.641 44.1302C269.032 44.1302 269.367 44.2214 269.646 44.4039C269.925 44.583 270.139 44.8251 270.288 45.1303C270.437 45.4354 270.512 45.7787 270.512 46.1602V46.6229C270.512 47.0044 270.435 47.3493 270.283 47.6578C270.134 47.963 269.92 48.2051 269.641 48.3842C269.362 48.5633 269.029 48.6529 268.641 48.6529C268.246 48.6529 267.908 48.5633 267.626 48.3842C267.347 48.2051 267.132 47.963 266.979 47.6578C266.83 47.3493 266.755 47.0044 266.755 46.6229ZM267.536 46.1602V46.6229C267.536 46.9977 267.628 47.3178 267.81 47.5832C267.996 47.8452 268.273 47.9762 268.641 47.9762C268.999 47.9762 269.27 47.8452 269.452 47.5832C269.634 47.3178 269.726 46.9977 269.726 46.6229V46.1602C269.726 45.7854 269.636 45.467 269.457 45.2049C269.278 44.9396 269.006 44.8069 268.641 44.8069C268.279 44.8069 268.004 44.9396 267.815 45.2049C267.629 45.467 267.536 45.7854 267.536 46.1602ZM267.213 54.4592L274.213 44.2695H275.094L268.094 54.4592H267.213Z" fill="#588D49"/>
<path d="M280.946 54.6184C280.286 54.6184 279.703 54.4509 279.195 54.1159C278.691 53.7809 278.296 53.3182 278.011 52.7277C277.726 52.134 277.583 51.4491 277.583 50.6729C277.583 49.8901 277.726 49.2018 278.011 48.6081C278.296 48.0111 278.691 47.5467 279.195 47.215C279.703 46.88 280.286 46.7125 280.946 46.7125C281.606 46.7125 282.189 46.88 282.693 47.215C283.197 47.55 283.592 48.0144 283.877 48.6081C284.165 49.2018 284.31 49.8901 284.31 50.6729C284.31 51.4491 284.167 52.134 283.882 52.7277C283.597 53.3182 283.2 53.7809 282.693 54.1159C282.189 54.4509 281.606 54.6184 280.946 54.6184ZM280.946 53.8074C281.477 53.8074 281.927 53.6648 282.295 53.3795C282.663 53.0943 282.942 52.7145 283.131 52.2402C283.323 51.7658 283.419 51.2434 283.419 50.6729C283.419 50.1024 283.323 49.5783 283.131 49.1007C282.942 48.623 282.663 48.2399 282.295 47.9513C281.927 47.6628 281.477 47.5185 280.946 47.5185C280.419 47.5185 279.97 47.6628 279.598 47.9513C279.23 48.2399 278.95 48.623 278.757 49.1007C278.568 49.5783 278.474 50.1024 278.474 50.6729C278.474 51.2434 278.568 51.7658 278.757 52.2402C278.95 52.7145 279.23 53.0943 279.598 53.3795C279.966 53.6648 280.416 53.8074 280.946 53.8074Z" fill="#588D49"/>
<path d="M289.398 46.817V47.5881H285.642V46.817H289.398ZM286.816 54.4592V45.6975C286.816 45.2862 286.911 44.9396 287.1 44.6576C287.292 44.3757 287.543 44.1617 287.851 44.0158C288.159 43.8698 288.486 43.7969 288.831 43.7969C289.063 43.7969 289.256 43.8168 289.408 43.8566C289.564 43.8931 289.687 43.9296 289.777 43.966L289.518 44.7422C289.451 44.7223 289.37 44.6991 289.274 44.6725C289.178 44.646 289.057 44.6327 288.911 44.6327C288.526 44.6327 288.229 44.7405 288.02 44.9561C287.811 45.1717 287.707 45.4802 287.707 45.8816L287.702 54.4592H286.816Z" fill="#588D49"/>
<path d="M294.31 46.817V47.5881H290.554V46.817H294.31ZM291.728 54.4592V45.6975C291.728 45.2862 291.823 44.9396 292.012 44.6576C292.204 44.3757 292.455 44.1617 292.763 44.0158C293.071 43.8698 293.398 43.7969 293.743 43.7969C293.975 43.7969 294.168 43.8168 294.32 43.8566C294.476 43.8931 294.599 43.9296 294.688 43.966L294.43 44.7422C294.363 44.7223 294.282 44.6991 294.186 44.6725C294.09 44.646 293.969 44.6327 293.823 44.6327C293.438 44.6327 293.141 44.7405 292.932 44.9561C292.723 45.1717 292.619 45.4802 292.619 45.8816L292.614 54.4592H291.728Z" fill="#588D49"/>
<path d="M295.991 54.5338C295.795 54.5338 295.626 54.4642 295.483 54.3249C295.344 54.1822 295.274 54.0131 295.274 53.8174C295.274 53.6183 295.344 53.4492 295.483 53.3099C295.626 53.1706 295.795 53.1009 295.991 53.1009C296.19 53.1009 296.359 53.1706 296.498 53.3099C296.638 53.4492 296.707 53.6183 296.707 53.8174C296.707 53.9467 296.674 54.0661 296.608 54.1756C296.545 54.285 296.458 54.3729 296.349 54.4393C296.243 54.5023 296.123 54.5338 295.991 54.5338Z" fill="#588D49"/>
<path d="M299.753 54.5338C299.558 54.5338 299.389 54.4642 299.246 54.3249C299.107 54.1822 299.037 54.0131 299.037 53.8174C299.037 53.6183 299.107 53.4492 299.246 53.3099C299.389 53.1706 299.558 53.1009 299.753 53.1009C299.952 53.1009 300.122 53.1706 300.261 53.3099C300.4 53.4492 300.47 53.6183 300.47 53.8174C300.47 53.9467 300.437 54.0661 300.37 54.1756C300.307 54.285 300.221 54.3729 300.112 54.4393C300.006 54.5023 299.886 54.5338 299.753 54.5338Z" fill="#588D49"/>
<path d="M303.516 54.5338C303.32 54.5338 303.151 54.4642 303.009 54.3249C302.869 54.1822 302.8 54.0131 302.8 53.8174C302.8 53.6183 302.869 53.4492 303.009 53.3099C303.151 53.1706 303.32 53.1009 303.516 53.1009C303.715 53.1009 303.884 53.1706 304.024 53.3099C304.163 53.4492 304.233 53.6183 304.233 53.8174C304.233 53.9467 304.199 54.0661 304.133 54.1756C304.07 54.285 303.984 54.3729 303.874 54.4393C303.768 54.5023 303.649 54.5338 303.516 54.5338Z" fill="#588D49"/>
<rect x="235.81" y="72.8613" width="142.221" height="27.0215" rx="7.5" stroke="#B1D2A8"/>
<path d="M253.984 84.8151H253.049C252.979 84.4669 252.853 84.1451 252.671 83.8499C252.492 83.5514 252.266 83.291 251.994 83.0688C251.722 82.8465 251.414 82.674 251.069 82.5513C250.724 82.4286 250.35 82.3672 249.949 82.3672C249.306 82.3672 248.719 82.5347 248.188 82.8697C247.66 83.2048 247.238 83.6973 246.919 84.3474C246.604 84.9942 246.446 85.787 246.446 86.7257C246.446 87.671 246.604 88.4671 246.919 89.1139C247.238 89.7607 247.66 90.2516 248.188 90.5866C248.719 90.9183 249.306 91.0842 249.949 91.0842C250.35 91.0842 250.724 91.0228 251.069 90.9001C251.414 90.7773 251.722 90.6065 251.994 90.3876C252.266 90.1654 252.492 89.905 252.671 89.6065C252.853 89.3079 252.979 88.9845 253.049 88.6363H253.984C253.901 89.1039 253.745 89.5401 253.517 89.9448C253.291 90.3461 253.002 90.6977 252.651 90.9996C252.303 91.3014 251.901 91.5369 251.447 91.7061C250.992 91.8752 250.493 91.9598 249.949 91.9598C249.093 91.9598 248.334 91.7459 247.67 91.318C247.007 90.8868 246.486 90.2798 246.108 89.497C245.733 88.7142 245.546 87.7904 245.546 86.7257C245.546 85.661 245.733 84.7372 246.108 83.9544C246.486 83.1716 247.007 82.5662 247.67 82.1384C248.334 81.7072 249.093 81.4916 249.949 81.4916C250.493 81.4916 250.992 81.5761 251.447 81.7453C251.901 81.9111 252.303 82.1467 252.651 82.4518C253.002 82.7537 253.291 83.1052 253.517 83.5066C253.745 83.9079 253.901 84.3441 253.984 84.8151Z" fill="#588D49"/>
<path d="M256.871 87.0441V91.8205H255.986V81.6309H256.871V85.3774H256.951C257.13 84.9826 257.407 84.6675 257.782 84.432C258.16 84.1965 258.637 84.0788 259.215 84.0788C259.732 84.0788 260.186 84.1849 260.578 84.3972C260.969 84.6095 261.274 84.9229 261.493 85.3376C261.712 85.7522 261.822 86.263 261.822 86.87V91.8205H260.931V86.9247C260.931 86.2945 260.755 85.7986 260.404 85.4371C260.055 85.0722 259.584 84.8898 258.991 84.8898C258.583 84.8898 258.22 84.976 257.901 85.1485C257.583 85.321 257.331 85.5697 257.145 85.8948C256.962 86.2165 256.871 86.5996 256.871 87.0441Z" fill="#588D49"/>
<path d="M264.154 91.8205V84.1783H265.015V85.3525H265.079C265.232 84.9677 265.497 84.6576 265.875 84.4221C266.257 84.1833 266.688 84.0638 267.169 84.0638C267.242 84.0638 267.323 84.0655 267.413 84.0688C267.502 84.0721 267.577 84.0755 267.637 84.0788V84.9793C267.597 84.9727 267.527 84.9627 267.428 84.9495C267.328 84.9362 267.22 84.9296 267.104 84.9296C266.706 84.9296 266.351 85.0141 266.04 85.1833C265.731 85.3492 265.487 85.5797 265.308 85.8749C265.129 86.1701 265.04 86.5068 265.04 86.8849V91.8205H264.154Z" fill="#588D49"/>
<path d="M269.158 91.8205V84.1783H270.049V91.8205H269.158ZM269.611 82.8648C269.428 82.8648 269.272 82.8034 269.143 82.6807C269.014 82.5546 268.949 82.4037 268.949 82.2279C268.949 82.0521 269.014 81.9029 269.143 81.7801C269.272 81.6541 269.428 81.5911 269.611 81.5911C269.793 81.5911 269.949 81.6541 270.078 81.7801C270.208 81.9029 270.272 82.0521 270.272 82.2279C270.272 82.4037 270.208 82.5546 270.078 82.6807C269.949 82.8034 269.793 82.8648 269.611 82.8648Z" fill="#588D49"/>
<path d="M277.525 85.855L276.714 86.0839C276.635 85.855 276.522 85.6477 276.376 85.4619C276.23 85.2762 276.039 85.1286 275.804 85.0191C275.572 84.9097 275.283 84.8549 274.938 84.8549C274.421 84.8549 273.996 84.9777 273.664 85.2231C273.333 85.4686 273.167 85.7853 273.167 86.1734C273.167 86.5018 273.28 86.7688 273.505 86.9745C273.734 87.1768 274.086 87.3377 274.56 87.4571L275.714 87.7407C276.354 87.8966 276.834 88.1437 277.152 88.482C277.474 88.8203 277.635 89.2449 277.635 89.7557C277.635 90.1869 277.515 90.57 277.277 90.905C277.038 91.2401 276.704 91.5037 276.277 91.6961C275.852 91.8852 275.359 91.9797 274.799 91.9797C274.053 91.9797 273.437 91.8122 272.953 91.4772C272.469 91.1389 272.159 90.6513 272.023 90.0144L272.873 89.8055C272.983 90.2599 273.197 90.6032 273.515 90.8354C273.837 91.0676 274.26 91.1837 274.784 91.1837C275.371 91.1837 275.84 91.0526 276.192 90.7906C276.544 90.5252 276.719 90.1936 276.719 89.7955C276.719 89.487 276.617 89.2283 276.411 89.0194C276.205 88.8071 275.893 88.6512 275.475 88.5517L274.227 88.2531C273.563 88.0939 273.072 87.8418 272.754 87.4969C272.436 87.1519 272.276 86.724 272.276 86.2132C272.276 85.792 272.391 85.4221 272.62 85.1037C272.848 84.782 273.164 84.5299 273.565 84.3474C273.966 84.165 274.424 84.0738 274.938 84.0738C275.638 84.0738 276.197 84.233 276.615 84.5514C277.036 84.8665 277.34 85.3011 277.525 85.855Z" fill="#588D49"/>
<path d="M282.584 84.1783V84.9495H278.937V84.1783H282.584ZM280.077 82.3473H280.967V89.8254C280.967 90.1438 281.022 90.3942 281.131 90.5767C281.241 90.7558 281.383 90.8835 281.559 90.9598C281.735 91.0327 281.922 91.0692 282.121 91.0692C282.237 91.0692 282.337 91.0626 282.42 91.0493C282.503 91.0327 282.576 91.0162 282.639 90.9996L282.828 91.8006C282.742 91.8338 282.636 91.8636 282.509 91.8902C282.383 91.92 282.228 91.9349 282.042 91.9349C281.717 91.9349 281.403 91.8636 281.101 91.721C280.803 91.5784 280.557 91.3661 280.365 91.0842C280.173 90.8022 280.077 90.4523 280.077 90.0343V82.3473Z" fill="#588D49"/>
<path d="M284.595 91.8205V84.1783H285.456V85.3525H285.536C285.688 84.9578 285.942 84.6476 286.297 84.4221C286.655 84.1932 287.085 84.0788 287.586 84.0788C288.113 84.0788 288.546 84.2032 288.884 84.4519C289.226 84.6974 289.481 85.0357 289.65 85.4669H289.715C289.888 85.0423 290.168 84.7057 290.556 84.4569C290.947 84.2048 291.422 84.0788 291.979 84.0788C292.689 84.0788 293.249 84.3027 293.661 84.7505C294.072 85.1949 294.278 85.845 294.278 86.7008V91.8205H293.392V86.7008C293.392 86.0971 293.238 85.6444 292.929 85.3425C292.621 85.0407 292.214 84.8898 291.71 84.8898C291.126 84.8898 290.677 85.0689 290.362 85.4271C290.047 85.7853 289.889 86.2398 289.889 86.7904V91.8205H288.984V86.6212C288.984 86.1038 288.839 85.6858 288.551 85.3674C288.262 85.049 287.856 84.8898 287.332 84.8898C286.98 84.8898 286.664 84.976 286.382 85.1485C286.103 85.321 285.882 85.5614 285.72 85.8699C285.561 86.1751 285.481 86.5267 285.481 86.9247V91.8205H284.595Z" fill="#588D49"/>
<path d="M298.757 91.9947C298.296 91.9947 297.874 91.9051 297.493 91.726C297.111 91.5436 296.808 91.2815 296.582 90.9399C296.357 90.5949 296.244 90.177 296.244 89.6861C296.244 89.3079 296.315 88.9895 296.458 88.7308C296.601 88.4721 296.803 88.2598 297.065 88.0939C297.327 87.9281 297.637 87.7971 297.995 87.7009C298.354 87.6047 298.748 87.5301 299.18 87.477C299.608 87.4239 299.969 87.3775 300.264 87.3377C300.563 87.2979 300.79 87.2348 300.946 87.1486C301.102 87.0624 301.18 86.923 301.18 86.7307V86.5516C301.18 86.0308 301.024 85.6211 300.712 85.3226C300.404 85.0208 299.959 84.8699 299.379 84.8699C298.828 84.8699 298.379 84.9909 298.03 85.2331C297.685 85.4752 297.443 85.7605 297.304 86.0888L296.463 85.7853C296.636 85.3674 296.874 85.0341 297.179 84.7853C297.485 84.5332 297.826 84.3524 298.204 84.243C298.583 84.1302 298.966 84.0738 299.354 84.0738C299.646 84.0738 299.949 84.1119 300.264 84.1882C300.583 84.2645 300.878 84.3972 301.15 84.5863C301.422 84.772 301.642 85.0324 301.812 85.3674C301.981 85.6991 302.065 86.1203 302.065 86.6312V91.8205H301.18V90.6115H301.125C301.019 90.837 300.861 91.056 300.652 91.2682C300.443 91.4805 300.181 91.6547 299.866 91.7907C299.551 91.9267 299.181 91.9947 298.757 91.9947ZM298.876 91.1837C299.347 91.1837 299.755 91.0792 300.1 90.8702C300.445 90.6612 300.71 90.3843 300.896 90.0393C301.085 89.691 301.18 89.3079 301.18 88.89V87.7855C301.113 87.8485 301.002 87.9049 300.846 87.9546C300.694 88.0044 300.516 88.0492 300.314 88.089C300.115 88.1254 299.916 88.157 299.717 88.1835C299.518 88.21 299.339 88.2332 299.18 88.2531C298.748 88.3062 298.38 88.3891 298.075 88.5019C297.77 88.6147 297.536 88.7706 297.374 88.9696C297.211 89.1653 297.13 89.4174 297.13 89.7259C297.13 90.1902 297.296 90.5501 297.627 90.8055C297.959 91.0576 298.375 91.1837 298.876 91.1837Z" fill="#588D49"/>
<path d="M309.556 85.855L308.745 86.0839C308.665 85.855 308.552 85.6477 308.407 85.4619C308.261 85.2762 308.07 85.1286 307.834 85.0191C307.602 84.9097 307.314 84.8549 306.969 84.8549C306.451 84.8549 306.027 84.9777 305.695 85.2231C305.363 85.4686 305.197 85.7853 305.197 86.1734C305.197 86.5018 305.31 86.7688 305.536 86.9745C305.765 87.1768 306.116 87.3377 306.59 87.4571L307.745 87.7407C308.385 87.8966 308.864 88.1437 309.183 88.482C309.504 88.8203 309.665 89.2449 309.665 89.7557C309.665 90.1869 309.546 90.57 309.307 90.905C309.068 91.2401 308.735 91.5037 308.307 91.6961C307.882 91.8852 307.39 91.9797 306.829 91.9797C306.083 91.9797 305.468 91.8122 304.983 91.4772C304.499 91.1389 304.189 90.6513 304.053 90.0144L304.904 89.8055C305.013 90.2599 305.227 90.6032 305.546 90.8354C305.867 91.0676 306.29 91.1837 306.814 91.1837C307.401 91.1837 307.871 91.0526 308.222 90.7906C308.574 90.5252 308.75 90.1936 308.75 89.7955C308.75 89.487 308.647 89.2283 308.441 89.0194C308.236 88.8071 307.924 88.6512 307.506 88.5517L306.257 88.2531C305.594 88.0939 305.103 87.8418 304.784 87.4969C304.466 87.1519 304.307 86.724 304.307 86.2132C304.307 85.792 304.421 85.4221 304.65 85.1037C304.879 84.782 305.194 84.5299 305.595 84.3474C305.997 84.165 306.454 84.0738 306.969 84.0738C307.668 84.0738 308.227 84.233 308.645 84.5514C309.067 84.8665 309.37 85.3011 309.556 85.855Z" fill="#588D49"/>
<path d="M315.51 91.8205V91.1389L318.839 87.3974C319.273 86.9065 319.623 86.4869 319.889 86.1386C320.154 85.7903 320.346 85.4686 320.466 85.1734C320.588 84.8782 320.65 84.5713 320.65 84.2529C320.65 83.8648 320.559 83.5265 320.376 83.2379C320.197 82.946 319.95 82.7188 319.635 82.5563C319.32 82.3938 318.965 82.3125 318.57 82.3125C318.152 82.3125 317.786 82.4021 317.47 82.5812C317.159 82.7603 316.917 83.0057 316.744 83.3175C316.572 83.6293 316.485 83.9876 316.485 84.3922H315.595C315.595 83.8283 315.724 83.3291 315.983 82.8946C316.245 82.4568 316.601 82.1135 317.053 81.8647C317.507 81.6159 318.021 81.4916 318.595 81.4916C319.162 81.4916 319.666 81.6143 320.107 81.8597C320.549 82.1019 320.895 82.4319 321.147 82.8498C321.399 83.2678 321.525 83.7355 321.525 84.2529C321.525 84.6277 321.459 84.9909 321.326 85.3425C321.197 85.6941 320.973 86.0855 320.655 86.5167C320.336 86.9479 319.895 87.4753 319.331 88.0989L316.804 90.92V90.9846H321.844V91.8205H315.51Z" fill="#588D49"/>
<path d="M327.042 91.9598C326.475 91.9598 325.967 91.8454 325.519 91.6165C325.075 91.3843 324.72 91.0659 324.455 90.6612C324.193 90.2566 324.053 89.7939 324.037 89.2731H324.937C324.967 89.8138 325.179 90.2582 325.574 90.6065C325.969 90.9515 326.458 91.124 327.042 91.124C327.496 91.124 327.901 91.0162 328.256 90.8006C328.611 90.5816 328.888 90.2831 329.087 89.905C329.289 89.5235 329.39 89.094 329.39 88.6163C329.387 88.1188 329.279 87.681 329.067 87.3028C328.855 86.9214 328.566 86.6229 328.201 86.4073C327.84 86.1917 327.433 86.0839 326.982 86.0839C326.641 86.0805 326.306 86.1369 325.977 86.253C325.649 86.3691 325.375 86.5184 325.156 86.7008L324.226 86.5814L324.838 81.6309H329.873V82.4667H325.619L325.211 85.8749H325.261C325.486 85.6858 325.76 85.5316 326.082 85.4122C326.407 85.2928 326.75 85.2331 327.112 85.2331C327.712 85.2331 328.251 85.3774 328.729 85.6659C329.21 85.9545 329.589 86.3525 329.868 86.86C330.15 87.3642 330.291 87.9447 330.291 88.6014C330.291 89.2449 330.15 89.8204 329.868 90.3279C329.589 90.8321 329.205 91.2301 328.714 91.522C328.226 91.8139 327.669 91.9598 327.042 91.9598Z" fill="#588D49"/>
<path d="M337.562 89.9299V89.4671C337.562 89.0857 337.639 88.7424 337.791 88.4372C337.944 88.1288 338.161 87.885 338.443 87.7058C338.725 87.5267 339.06 87.4372 339.448 87.4372C339.84 87.4372 340.175 87.5267 340.453 87.7058C340.732 87.885 340.946 88.1288 341.095 88.4372C341.244 88.7424 341.319 89.0857 341.319 89.4671V89.9299C341.319 90.3113 341.243 90.6546 341.09 90.9598C340.941 91.2649 340.727 91.5087 340.448 91.6912C340.17 91.8703 339.836 91.9598 339.448 91.9598C339.053 91.9598 338.715 91.8703 338.433 91.6912C338.155 91.5087 337.939 91.2649 337.786 90.9598C337.637 90.6546 337.562 90.3113 337.562 89.9299ZM338.344 89.4671V89.9299C338.344 90.3047 338.435 90.6248 338.617 90.8901C338.803 91.1522 339.08 91.2832 339.448 91.2832C339.806 91.2832 340.077 91.1522 340.259 90.8901C340.442 90.6248 340.533 90.3047 340.533 89.9299V89.4671C340.533 89.0923 340.443 88.7739 340.264 88.5119C340.085 88.2465 339.813 88.1138 339.448 88.1138C339.087 88.1138 338.811 88.2465 338.622 88.5119C338.436 88.7739 338.344 89.0923 338.344 89.4671ZM332.428 83.9842V83.5215C332.428 83.1401 332.504 82.7968 332.657 82.4916C332.809 82.1865 333.027 81.9443 333.308 81.7652C333.59 81.5828 333.925 81.4916 334.313 81.4916C334.705 81.4916 335.04 81.5828 335.319 81.7652C335.597 81.9443 335.811 82.1865 335.96 82.4916C336.11 82.7968 336.184 83.1401 336.184 83.5215V83.9842C336.184 84.3657 336.108 84.7106 335.955 85.0191C335.806 85.3243 335.592 85.5664 335.314 85.7455C335.035 85.9246 334.702 86.0142 334.313 86.0142C333.919 86.0142 333.58 85.9246 333.299 85.7455C333.02 85.5664 332.804 85.3243 332.652 85.0191C332.502 84.7106 332.428 84.3657 332.428 83.9842ZM333.209 83.5215V83.9842C333.209 84.3591 333.3 84.6791 333.483 84.9445C333.668 85.2065 333.945 85.3376 334.313 85.3376C334.672 85.3376 334.942 85.2065 335.124 84.9445C335.307 84.6791 335.398 84.3591 335.398 83.9842V83.5215C335.398 83.1467 335.309 82.8283 335.129 82.5662C334.95 82.3009 334.678 82.1682 334.313 82.1682C333.952 82.1682 333.677 82.3009 333.488 82.5662C333.302 82.8283 333.209 83.1467 333.209 83.5215ZM332.886 91.8205L339.886 81.6309H340.767L333.766 91.8205H332.886Z" fill="#588D49"/>
<path d="M346.619 91.9797C345.959 91.9797 345.375 91.8122 344.868 91.4772C344.363 91.1422 343.969 90.6795 343.683 90.0891C343.398 89.4953 343.256 88.8104 343.256 88.0342C343.256 87.2514 343.398 86.5632 343.683 85.9694C343.969 85.3724 344.363 84.908 344.868 84.5763C345.375 84.2413 345.959 84.0738 346.619 84.0738C347.279 84.0738 347.861 84.2413 348.365 84.5763C348.869 84.9113 349.264 85.3757 349.549 85.9694C349.838 86.5632 349.982 87.2514 349.982 88.0342C349.982 88.8104 349.84 89.4953 349.554 90.0891C349.269 90.6795 348.873 91.1422 348.365 91.4772C347.861 91.8122 347.279 91.9797 346.619 91.9797ZM346.619 91.1687C347.15 91.1687 347.599 91.0261 347.967 90.7409C348.335 90.4556 348.614 90.0758 348.803 89.6015C348.996 89.1272 349.092 88.6047 349.092 88.0342C349.092 87.4637 348.996 86.9396 348.803 86.462C348.614 85.9844 348.335 85.6012 347.967 85.3127C347.599 85.0241 347.15 84.8798 346.619 84.8798C346.092 84.8798 345.642 85.0241 345.271 85.3127C344.902 85.6012 344.622 85.9844 344.43 86.462C344.241 86.9396 344.146 87.4637 344.146 88.0342C344.146 88.6047 344.241 89.1272 344.43 89.6015C344.622 90.0758 344.902 90.4556 345.271 90.7409C345.639 91.0261 346.088 91.1687 346.619 91.1687Z" fill="#588D49"/>
<path d="M355.071 84.1783V84.9495H351.314V84.1783H355.071ZM352.489 91.8205V83.0588C352.489 82.6475 352.583 82.3009 352.772 82.0189C352.965 81.737 353.215 81.5231 353.524 81.3771C353.832 81.2312 354.159 81.1582 354.504 81.1582C354.736 81.1582 354.928 81.1781 355.081 81.2179C355.237 81.2544 355.359 81.2909 355.449 81.3274L355.19 82.1035C355.124 82.0836 355.043 82.0604 354.947 82.0339C354.85 82.0073 354.729 81.9941 354.583 81.9941C354.199 81.9941 353.902 82.1019 353.693 82.3175C353.484 82.5331 353.379 82.8416 353.379 83.2429L353.374 91.8205H352.489Z" fill="#588D49"/>
<path d="M359.983 84.1783V84.9495H356.226V84.1783H359.983ZM357.401 91.8205V83.0588C357.401 82.6475 357.495 82.3009 357.684 82.0189C357.877 81.737 358.127 81.5231 358.436 81.3771C358.744 81.2312 359.071 81.1582 359.416 81.1582C359.648 81.1582 359.84 81.1781 359.993 81.2179C360.149 81.2544 360.271 81.2909 360.361 81.3274L360.102 82.1035C360.036 82.0836 359.955 82.0604 359.859 82.0339C359.762 82.0073 359.641 81.9941 359.495 81.9941C359.111 81.9941 358.814 82.1019 358.605 82.3175C358.396 82.5331 358.291 82.8416 358.291 83.2429L358.286 91.8205H357.401Z" fill="#588D49"/>
<path d="M361.663 91.8951C361.468 91.8951 361.298 91.8255 361.156 91.6862C361.017 91.5436 360.947 91.3744 360.947 91.1787C360.947 90.9797 361.017 90.8105 361.156 90.6712C361.298 90.5319 361.468 90.4622 361.663 90.4622C361.862 90.4622 362.032 90.5319 362.171 90.6712C362.31 90.8105 362.38 90.9797 362.38 91.1787C362.38 91.308 362.347 91.4275 362.28 91.5369C362.217 91.6464 362.131 91.7343 362.022 91.8006C361.915 91.8636 361.796 91.8951 361.663 91.8951Z" fill="#588D49"/>
<path d="M365.426 91.8951C365.23 91.8951 365.061 91.8255 364.919 91.6862C364.779 91.5436 364.71 91.3744 364.71 91.1787C364.71 90.9797 364.779 90.8105 364.919 90.6712C365.061 90.5319 365.23 90.4622 365.426 90.4622C365.625 90.4622 365.794 90.5319 365.933 90.6712C366.073 90.8105 366.142 90.9797 366.142 91.1787C366.142 91.308 366.109 91.4275 366.043 91.5369C365.98 91.6464 365.894 91.7343 365.784 91.8006C365.678 91.8636 365.559 91.8951 365.426 91.8951Z" fill="#588D49"/>
<path d="M369.189 91.8951C368.993 91.8951 368.824 91.8255 368.681 91.6862C368.542 91.5436 368.472 91.3744 368.472 91.1787C368.472 90.9797 368.542 90.8105 368.681 90.6712C368.824 90.5319 368.993 90.4622 369.189 90.4622C369.388 90.4622 369.557 90.5319 369.696 90.6712C369.835 90.8105 369.905 90.9797 369.905 91.1787C369.905 91.308 369.872 91.4275 369.806 91.5369C369.743 91.6464 369.656 91.7343 369.547 91.8006C369.441 91.8636 369.321 91.8951 369.189 91.8951Z" fill="#588D49"/>
</svg>
