<svg width="440" height="240" viewBox="0 0 440 240" fill="none" xmlns="http://www.w3.org/2000/svg">
<g clip-path="url(#clip0_1_2580)">
<path d="M0 12C0 5.37259 5.37258 0 12 0H428C434.627 0 440 5.37258 440 12V240H0V12Z" fill="#F0EAE2"/>
<path d="M82.2682 113.905C84.5707 113.905 86.5695 114.285 88.2647 115.045C89.9853 115.805 91.301 116.895 92.2118 118.314C93.1227 119.733 93.5781 121.419 93.5781 123.37C93.5781 125.296 93.1227 126.981 92.2118 128.426C91.301 129.845 89.9853 130.935 88.2647 131.695C86.5695 132.455 84.5707 132.835 82.2682 132.835H76.2716V147.394H71.3378V113.905H82.2682ZM82.0405 128.654C84.1911 128.654 85.8231 128.198 86.9364 127.285C88.0497 126.373 88.6063 125.068 88.6063 123.37C88.6063 121.672 88.0497 120.367 86.9364 119.455C85.8231 118.542 84.1911 118.086 82.0405 118.086H76.2716V128.654H82.0405Z" fill="black"/>
<path d="M117.787 120.215V140.514H113.271V137.891C112.486 138.854 111.512 139.576 110.348 140.058C109.21 140.539 107.945 140.78 106.553 140.78C104.579 140.78 102.808 140.349 101.24 139.488C99.6962 138.626 98.4817 137.409 97.5961 135.838C96.7358 134.267 96.3057 132.442 96.3057 130.364C96.3057 128.286 96.7358 126.474 97.5961 124.929C98.4817 123.357 99.6962 122.141 101.24 121.279C102.808 120.418 104.579 119.987 106.553 119.987C107.869 119.987 109.071 120.215 110.159 120.671C111.272 121.127 112.233 121.799 113.043 122.686V120.215H117.787ZM107.084 136.713C108.83 136.713 110.272 136.13 111.411 134.964C112.55 133.798 113.119 132.265 113.119 130.364C113.119 128.464 112.55 126.931 111.411 125.765C110.272 124.599 108.83 124.016 107.084 124.016C105.338 124.016 103.896 124.599 102.758 125.765C101.644 126.931 101.088 128.464 101.088 130.364C101.088 132.265 101.644 133.798 102.758 134.964C103.896 136.13 105.338 136.713 107.084 136.713Z" fill="black"/>
<path d="M128.511 123.18C129.877 121.051 132.28 119.987 135.722 119.987V124.51C135.317 124.434 134.95 124.396 134.621 124.396C132.774 124.396 131.332 124.941 130.294 126.031C129.257 127.095 128.738 128.641 128.738 130.668L128.653 140.514H126.366H123.994V120.215H128.511V123.18Z" fill="black"/>
<path d="M139.746 120.215H144.49L144.3 140.438L139.746 140.514V120.215ZM142.137 116.87C141.277 116.87 140.556 116.604 139.974 116.071C139.392 115.514 139.101 114.83 139.101 114.019C139.101 113.208 139.392 112.536 139.974 112.004C140.556 111.447 141.277 111.168 142.137 111.168C142.997 111.168 143.718 111.434 144.3 111.966C144.882 112.473 145.173 113.119 145.173 113.905C145.173 114.741 144.882 115.451 144.3 116.033C143.744 116.591 143.023 116.87 142.137 116.87Z" fill="black"/>
<path d="M162.103 139.411C161.546 139.868 160.863 140.21 160.053 140.438C159.269 140.666 158.434 140.78 157.548 140.78C155.322 140.78 153.601 140.197 152.387 139.031C151.172 137.866 150.565 136.168 150.565 133.938V115.729H155.309V120.367H160.736V124.168H155.309V133.824C155.309 134.812 155.549 135.572 156.03 136.104C156.536 136.611 157.232 136.865 158.118 136.865C159.18 136.865 160.066 136.586 160.774 136.028L162.103 139.411Z" fill="black"/>
<path d="M185.646 120.215V137.435C185.646 144.581 182.141 148.154 175.133 148.154C173.286 148.154 171.514 147.901 169.819 147.394C168.149 146.913 166.77 146.203 165.682 145.266L165.719 145.297C166.579 146.032 169.718 143.01 170.958 143.441C172.198 143.872 173.501 144.087 174.867 144.087C176.942 144.087 178.46 143.58 179.421 142.567C180.408 141.578 180.901 140.045 180.901 137.967V137.017C180.142 137.853 179.219 138.499 178.131 138.955C177.043 139.386 175.866 139.602 174.601 139.602C171.894 139.602 169.756 138.854 168.187 137.359C166.644 135.864 165.872 133.621 165.872 130.63V120.215H170.616V130.022C170.616 131.822 171.021 133.177 171.831 134.09C172.666 134.977 173.842 135.42 175.36 135.42C177.056 135.42 178.397 134.901 179.383 133.862C180.395 132.823 180.901 131.315 180.901 129.338V120.215H185.646Z" fill="black"/>
<path d="M192.313 113.905H203.926C206.76 113.905 209.277 114.462 211.479 115.577C213.68 116.667 215.388 118.226 216.602 120.253C217.817 122.255 218.424 124.574 218.424 127.209C218.424 129.845 217.817 132.176 216.602 134.204C215.388 136.206 213.68 137.764 211.479 138.879C209.277 139.969 206.76 140.514 203.926 140.514H192.313V113.905ZM203.698 136.332C205.647 136.332 207.355 135.965 208.822 135.23C210.315 134.47 211.453 133.405 212.238 132.037C213.047 130.643 213.452 129.034 213.452 127.209C213.452 125.385 213.047 123.788 212.238 122.42C211.453 121.026 210.315 119.961 208.822 119.227C207.355 118.466 205.647 118.086 203.698 118.086H197.246V136.332H203.698Z" fill="black"/>
<path d="M232.853 136.751C235.054 136.751 236.888 136.016 238.356 134.546L240.861 137.473C239.975 138.563 238.837 139.386 237.445 139.944C236.053 140.501 234.485 140.78 232.739 140.78C230.512 140.78 228.551 140.336 226.856 139.449C225.161 138.563 223.845 137.333 222.909 135.762C221.998 134.166 221.543 132.366 221.543 130.364C221.543 128.388 221.986 126.614 222.871 125.043C223.782 123.446 225.022 122.204 226.591 121.317C228.185 120.43 229.981 119.987 231.98 119.987C233.877 119.987 235.598 120.405 237.141 121.241C238.71 122.052 239.95 123.231 240.861 124.776C241.772 126.297 242.227 128.084 242.227 130.136L226.704 133.177C227.185 134.343 227.957 135.23 229.019 135.838C230.082 136.446 231.36 136.751 232.853 136.751ZM231.98 123.788C230.234 123.788 228.817 124.358 227.729 125.499C226.666 126.639 226.135 128.172 226.135 130.098V130.136L237.597 127.932C237.268 126.69 236.597 125.689 235.585 124.929C234.599 124.168 233.397 123.788 231.98 123.788Z" fill="black"/>
<path d="M266.596 120.215V140.514H262.08V137.891C261.296 138.854 260.322 139.576 259.158 140.058C258.019 140.539 256.754 140.78 255.362 140.78C253.389 140.78 251.618 140.349 250.049 139.488C248.506 138.626 247.291 137.409 246.405 135.838C245.545 134.267 245.115 132.442 245.115 130.364C245.115 128.286 245.545 126.474 246.405 124.929C247.291 123.357 248.506 122.141 250.049 121.279C251.618 120.418 253.389 119.987 255.362 119.987C256.678 119.987 257.88 120.215 258.968 120.671C260.081 121.127 261.043 121.799 261.852 122.686V120.215H266.596ZM255.894 136.713C257.64 136.713 259.082 136.13 260.22 134.964C261.359 133.798 261.928 132.265 261.928 130.364C261.928 128.464 261.359 126.931 260.22 125.765C259.082 124.599 257.64 124.016 255.894 124.016C254.148 124.016 252.706 124.599 251.567 125.765C250.454 126.931 249.897 128.464 249.897 130.364C249.897 132.265 250.454 133.798 251.567 134.964C252.706 136.13 254.148 136.713 255.894 136.713Z" fill="black"/>
<path d="M279.483 140.78C277.383 140.78 275.738 140.21 274.549 139.069C273.385 137.904 272.803 136.269 272.803 134.166V112.308H277.548V133.824C277.548 135.851 278.496 136.865 280.394 136.865C281.027 136.865 281.596 136.738 282.102 136.484L282.33 140.286C281.444 140.615 280.495 140.78 279.483 140.78Z" fill="black"/>
<path d="M291.815 140.78C290.171 140.78 288.564 140.565 286.995 140.134C285.427 139.703 284.174 139.158 283.238 138.499H283.411C284.322 139.107 287.059 135.99 288.324 136.37C289.614 136.725 290.879 136.903 292.119 136.903C294.953 136.903 296.37 136.155 296.37 134.66C296.37 133.95 296.003 133.456 295.269 133.177C294.561 132.899 293.409 132.632 291.815 132.379C290.146 132.126 288.779 131.834 287.717 131.505C286.679 131.175 285.768 130.605 284.984 129.794C284.225 128.958 283.845 127.805 283.845 126.335C283.845 124.409 284.642 122.876 286.236 121.735C287.856 120.57 290.032 119.987 292.764 119.987C294.156 119.987 295.548 120.152 296.939 120.481C298.331 120.785 299.469 121.203 300.355 121.735L298.533 125.347C296.813 124.333 294.877 123.826 292.726 123.826C291.335 123.826 290.272 124.042 289.538 124.472C288.83 124.878 288.476 125.423 288.476 126.107C288.476 126.867 288.855 127.412 289.614 127.741C290.399 128.046 291.6 128.337 293.22 128.616C294.839 128.869 296.167 129.161 297.205 129.49C298.242 129.82 299.128 130.377 299.861 131.163C300.621 131.948 301 133.063 301 134.508C301 136.408 300.178 137.929 298.533 139.069C296.889 140.21 294.649 140.78 291.815 140.78Z" fill="black"/>
<rect x="25" y="108" width="38.0131" height="44.3486" rx="3.16776" fill="black"/>
<path d="M44.0065 142.845C43.0321 142.845 42.0589 142.475 41.315 141.737L40.39 140.811C40.0314 140.454 39.5511 140.256 39.0417 140.255H37.7403C35.6367 140.255 33.9248 138.543 33.9248 136.44V135.137C33.9235 134.629 33.7258 134.149 33.3672 133.787L32.4574 132.879C30.9671 131.398 30.9608 128.976 32.4434 127.484L33.3685 126.558C33.7258 126.2 33.9235 125.719 33.9248 125.21V123.91C33.9248 121.805 35.6367 120.093 37.7403 120.093H39.0429C39.5511 120.093 40.0301 119.895 40.3912 119.534L41.3023 118.626C42.7837 117.135 45.204 117.128 46.6968 118.612L47.6218 119.537C47.9817 119.895 48.4607 120.093 48.9688 120.093H50.2715C52.375 120.093 54.087 121.805 54.087 123.91V125.211C54.0883 125.719 54.286 126.2 54.6446 126.561L55.5544 127.471C56.2754 128.188 56.6746 129.143 56.6784 130.163C56.6809 131.177 56.2907 132.131 55.5798 132.852C55.5671 132.865 55.5557 132.879 55.543 132.89L54.6433 133.79C54.286 134.149 54.0883 134.629 54.087 135.138V136.44C54.087 138.543 52.375 140.255 50.2715 140.255H48.9688C48.4607 140.256 47.9804 140.454 47.6205 140.813L46.7094 141.723C45.9669 142.47 44.9861 142.845 44.0065 142.845Z" fill="white"/>
<path fill-rule="evenodd" clip-rule="evenodd" d="M41.5279 127.706C41.3188 127.915 41.0477 128.028 40.7473 128.028C40.466 128.028 40.1898 127.913 39.968 127.705C39.7577 127.496 39.6385 127.209 39.6385 126.919C39.6385 126.643 39.7551 126.359 39.9604 126.14C40.0732 126.026 40.2075 125.94 40.3418 125.894C40.7245 125.719 41.2327 125.822 41.5343 126.139C41.642 126.246 41.7243 126.364 41.7788 126.487C41.8384 126.619 41.8688 126.768 41.8688 126.919C41.8688 127.221 41.7484 127.501 41.5279 127.706ZM48.0528 126.136C47.6207 125.705 46.9174 125.705 46.4853 126.136L39.972 132.649C39.5399 133.081 39.5399 133.784 39.972 134.218C40.1823 134.427 40.4598 134.542 40.7564 134.542C41.0529 134.542 41.3304 134.427 41.5395 134.218L48.0528 127.704C48.485 127.271 48.485 126.569 48.0528 126.136ZM47.6916 132.412C47.281 132.24 46.7944 132.334 46.47 132.658C46.4028 132.737 46.3078 132.858 46.2432 133.002C46.1747 133.156 46.1659 133.322 46.1659 133.434C46.1659 133.545 46.1747 133.71 46.2432 133.865C46.3065 134.006 46.3825 134.122 46.4827 134.222C46.712 134.435 46.9781 134.542 47.2747 134.542C47.556 134.542 47.8322 134.428 48.059 134.217C48.2605 134.015 48.3708 133.737 48.3708 133.434C48.3708 133.13 48.2605 132.852 48.0578 132.649C47.9463 132.539 47.8119 132.453 47.6916 132.412Z" fill="black"/>
<g filter="url(#filter0_i_1_2580)">
<mask id="mask0_1_2580" style="mask-type:luminance" maskUnits="userSpaceOnUse" x="320" y="108" width="149" height="145">
<path d="M396.513 108.456H392.487C352.453 108.456 320 140.641 320 180.343C320 220.046 352.453 252.231 392.487 252.231H396.513C436.547 252.231 469 220.046 469 180.343C469 140.641 436.547 108.456 396.513 108.456Z" fill="white"/>
</mask>
<g mask="url(#mask0_1_2580)">
<path d="M396.513 108.456H392.487C352.453 108.456 320 140.641 320 180.343C320 220.046 352.453 252.231 392.487 252.231H396.513C436.547 252.231 469 220.046 469 180.343C469 140.641 436.547 108.456 396.513 108.456Z" fill="white"/>
<path d="M419.62 169.717H424.354L430.666 159.075C430.666 159.075 422.144 159.075 419.62 161.579C418.038 163.147 408.889 154.38 408.889 154.38V161.579L393.424 164.083C393.424 164.083 391.578 159.762 393.424 159.075C398.474 157.197 402.893 154.38 402.893 154.38L397.212 150.311L404.786 147.181L412.677 139.356L408.889 128.714L412.677 122.454V116.82L428.772 108.682H441.081L465.383 130.905L475.167 152.502L457.492 159.075H452.128C452.128 159.075 455.599 171.282 456.231 174.412C456.587 176.181 453.702 178.36 452.128 176.603C449.603 173.786 439.187 164.083 439.187 164.083L446.447 173.786L452.128 180.672C452.128 180.672 443.29 239.516 433.822 230.752C421.913 219.729 412.677 195.07 412.677 195.07C412.677 195.07 397.212 200.704 391.531 199.139C385.94 197.599 381.115 184.428 381.115 184.428C381.115 184.428 379.303 179.074 381.115 176.603C386.165 169.717 402.893 165.335 408.889 164.083C413.529 163.114 419.62 169.717 419.62 169.717Z" fill="#FFE8CA"/>
<path d="M338.193 209.781L353.658 234.508L347.662 209.781L356.499 205.399L353.658 201.017L368.807 195.07V188.497C368.807 188.497 361.548 182.863 356.499 177.542C350.855 171.595 338.193 171.595 338.193 171.595V163.77L353.658 157.51L356.499 149.059L368.807 146.868L383.641 129.653L395.318 123.393V117.133H389.953L395.318 108.056L379.854 117.133L370.701 105.239L338.193 129.653L333.775 146.868V161.579V171.595L326.2 178.794L338.193 209.781Z" fill="#FFE8CA"/>
<path d="M389.007 108.369L387.113 104.613H399.107L417.412 106.491L411.1 112.125L399.107 106.491L389.007 108.369Z" fill="#FFE8CA"/>
<path d="M389.007 154.067C387.113 152.815 385.435 145.128 389.007 144.99C391.452 144.895 393.489 146.646 393.741 149.059C394.02 151.725 391.257 155.554 389.007 154.067Z" fill="#FFE8CA"/>
</g>
</g>
</g>
<defs>
<filter id="filter0_i_1_2580" x="320" y="108.456" width="149" height="143.775" filterUnits="userSpaceOnUse" color-interpolation-filters="sRGB">
<feFlood flood-opacity="0" result="BackgroundImageFix"/>
<feBlend mode="normal" in="SourceGraphic" in2="BackgroundImageFix" result="shape"/>
<feColorMatrix in="SourceAlpha" type="matrix" values="0 0 0 0 0 0 0 0 0 0 0 0 0 0 0 0 0 0 127 0" result="hardAlpha"/>
<feOffset/>
<feGaussianBlur stdDeviation="6"/>
<feComposite in2="hardAlpha" operator="arithmetic" k2="-1" k3="1"/>
<feColorMatrix type="matrix" values="0 0 0 0 0 0 0 0 0 0 0 0 0 0 0 0 0 0 0.12 0"/>
<feBlend mode="normal" in2="shape" result="effect1_innerShadow_1_2580"/>
</filter>
<clipPath id="clip0_1_2580">
<rect width="440" height="240" fill="white"/>
</clipPath>
</defs>
</svg>
