<svg width="440" height="240" viewBox="0 0 440 240" fill="none" xmlns="http://www.w3.org/2000/svg">
<path d="M0 12C0 5.37259 5.37258 0 12 0H428C434.627 0 440 5.37258 440 12V240H0V12Z" fill="#E2E2F0"/>
<g filter="url(#filter0_i_2657_14690)">
<rect x="290.907" y="45.0361" width="108.776" height="36.2587" rx="4" fill="white"/>
</g>
<path d="M321.363 68.3492V69.5094H312.461V68.5848L317.737 63.418C318.402 62.7653 318.849 62.2033 319.079 61.7319C319.32 61.2485 319.441 60.765 319.441 60.2816C319.441 59.5322 319.181 58.9521 318.662 58.5412C318.154 58.1181 317.423 57.9066 316.468 57.9066C314.981 57.9066 313.827 58.378 313.005 59.3207L312.081 58.523C312.576 57.9429 313.205 57.4957 313.966 57.1815C314.74 56.8672 315.61 56.7101 316.577 56.7101C317.87 56.7101 318.891 57.0183 319.641 57.6347C320.402 58.239 320.783 59.073 320.783 60.1366C320.783 60.7892 320.638 61.4177 320.348 62.022C320.057 62.6263 319.508 63.3213 318.698 64.1069L314.383 68.3492H321.363Z" fill="#38386C"/>
<path d="M326.337 62.022C328.174 62.022 329.509 62.3544 330.343 63.0191C331.189 63.6718 331.612 64.5903 331.612 65.7748C331.612 66.512 331.437 67.1707 331.087 67.7509C330.748 68.331 330.235 68.7903 329.546 69.1287C328.857 69.455 328.011 69.6182 327.008 69.6182C326.101 69.6182 325.237 69.4732 324.415 69.1831C323.605 68.881 322.953 68.4821 322.457 67.9866L323.092 66.9532C323.515 67.3883 324.071 67.7448 324.76 68.0228C325.448 68.2887 326.192 68.4217 326.989 68.4217C328.041 68.4217 328.851 68.186 329.419 67.7146C329.999 67.2433 330.289 66.6148 330.289 65.8292C330.289 64.959 329.963 64.3003 329.31 63.8531C328.669 63.4059 327.582 63.1823 326.047 63.1823H323.345L323.998 56.8189H330.942V57.9792H325.14L324.705 62.022H326.337Z" fill="#38386C"/>
<path d="M335.776 63.6174C334.918 63.6174 334.223 63.3031 333.691 62.6747C333.171 62.0341 332.911 61.2001 332.911 60.1728C332.911 59.1455 333.171 58.3176 333.691 57.6891C334.223 57.0485 334.918 56.7282 335.776 56.7282C336.622 56.7282 337.311 57.0425 337.842 57.671C338.374 58.2994 338.64 59.1334 338.64 60.1728C338.64 61.2122 338.374 62.0462 337.842 62.6747C337.311 63.3031 336.622 63.6174 335.776 63.6174ZM343.463 56.8189H344.532L335.866 69.5094H334.797L343.463 56.8189ZM335.776 62.8016C336.368 62.8016 336.839 62.5719 337.19 62.1127C337.552 61.6413 337.734 60.9947 337.734 60.1728C337.734 59.3509 337.552 58.7104 337.19 58.2511C336.839 57.7797 336.368 57.5441 335.776 57.5441C335.171 57.5441 334.694 57.7797 334.343 58.2511C333.993 58.7225 333.818 59.363 333.818 60.1728C333.818 60.9826 333.993 61.6232 334.343 62.0945C334.694 62.5659 335.171 62.8016 335.776 62.8016ZM343.553 69.6001C342.707 69.6001 342.018 69.2858 341.486 68.6574C340.955 68.0168 340.689 67.1828 340.689 66.1555C340.689 65.1282 340.955 64.3003 341.486 63.6718C342.018 63.0312 342.707 62.7109 343.553 62.7109C344.411 62.7109 345.1 63.0312 345.62 63.6718C346.152 64.3003 346.418 65.1282 346.418 66.1555C346.418 67.1828 346.152 68.0168 345.62 68.6574C345.1 69.2858 344.411 69.6001 343.553 69.6001ZM343.553 68.7843C344.157 68.7843 344.635 68.5486 344.985 68.0772C345.336 67.6059 345.511 66.9653 345.511 66.1555C345.511 65.3457 345.336 64.7052 344.985 64.2338C344.635 63.7624 344.157 63.5267 343.553 63.5267C342.961 63.5267 342.484 63.7624 342.121 64.2338C341.77 64.6931 341.595 65.3336 341.595 66.1555C341.595 66.9774 341.77 67.624 342.121 68.0953C342.484 68.5546 342.961 68.7843 343.553 68.7843Z" fill="#38386C"/>
<path d="M357.618 69.6001C356.7 69.6001 355.872 69.3946 355.135 68.9837C354.397 68.5607 353.817 67.9805 353.394 67.2433C352.971 66.506 352.76 65.6721 352.76 64.7414C352.76 63.8108 352.971 62.9768 353.394 62.2396C353.817 61.5023 354.397 60.9282 355.135 60.5173C355.872 60.1063 356.7 59.9009 357.618 59.9009C358.537 59.9009 359.365 60.1063 360.102 60.5173C360.839 60.9282 361.413 61.5023 361.824 62.2396C362.247 62.9768 362.459 63.8108 362.459 64.7414C362.459 65.6721 362.247 66.506 361.824 67.2433C361.413 67.9805 360.839 68.5607 360.102 68.9837C359.365 69.3946 358.537 69.6001 357.618 69.6001ZM357.618 68.4579C358.295 68.4579 358.899 68.3069 359.431 68.0047C359.975 67.6905 360.398 67.2493 360.7 66.6813C361.002 66.1132 361.154 65.4666 361.154 64.7414C361.154 64.0162 361.002 63.3696 360.7 62.8016C360.398 62.2335 359.975 61.7984 359.431 61.4963C358.899 61.182 358.295 61.0249 357.618 61.0249C356.941 61.0249 356.331 61.182 355.787 61.4963C355.255 61.7984 354.832 62.2335 354.518 62.8016C354.216 63.3696 354.065 64.0162 354.065 64.7414C354.065 65.4666 354.216 66.1132 354.518 66.6813C354.832 67.2493 355.255 67.6905 355.787 68.0047C356.331 68.3069 356.941 68.4579 357.618 68.4579Z" fill="#38386C"/>
<path d="M368.241 57.0546C367.685 57.0546 367.262 57.2056 366.972 57.5078C366.694 57.8099 366.555 58.2571 366.555 58.8494V59.9734H369.492V61.0611H366.591V69.5094H365.304V61.0611H363.6V59.9734H365.304V58.795C365.304 57.9248 365.552 57.2359 366.048 56.7282C366.555 56.2206 367.268 55.9668 368.187 55.9668C368.549 55.9668 368.9 56.0212 369.238 56.13C369.577 56.2267 369.861 56.3717 370.09 56.5651L369.655 57.5259C369.281 57.2117 368.809 57.0546 368.241 57.0546Z" fill="#38386C"/>
<path d="M374.385 57.0546C373.829 57.0546 373.406 57.2056 373.116 57.5078C372.838 57.8099 372.699 58.2571 372.699 58.8494V59.9734H375.636V61.0611H372.735V69.5094H371.448V61.0611H369.744V59.9734H371.448V58.795C371.448 57.9248 371.696 57.2359 372.191 56.7282C372.699 56.2206 373.412 55.9668 374.33 55.9668C374.693 55.9668 375.043 56.0212 375.382 56.13C375.72 56.2267 376.004 56.3717 376.234 56.5651L375.799 57.5259C375.424 57.2117 374.953 57.0546 374.385 57.0546Z" fill="#38386C"/>
<g filter="url(#filter1_i_2657_14690)">
<rect x="272.777" y="110.129" width="108.776" height="36.2587" rx="4" fill="white"/>
</g>
<path d="M299.825 127.006C300.659 127.006 301.396 127.163 302.037 127.477C302.689 127.792 303.197 128.239 303.56 128.819C303.922 129.387 304.103 130.052 304.103 130.813C304.103 131.587 303.916 132.27 303.541 132.862C303.167 133.454 302.647 133.913 301.982 134.24C301.33 134.554 300.592 134.711 299.771 134.711C298.091 134.711 296.803 134.161 295.909 133.061C295.015 131.949 294.567 130.384 294.567 128.366C294.567 126.952 294.809 125.755 295.293 124.776C295.776 123.797 296.453 123.06 297.323 122.564C298.193 122.057 299.209 121.803 300.369 121.803C301.626 121.803 302.629 122.033 303.378 122.492L302.853 123.543C302.248 123.144 301.426 122.945 300.387 122.945C298.985 122.945 297.885 123.392 297.087 124.287C296.29 125.169 295.891 126.456 295.891 128.148C295.891 128.45 295.909 128.795 295.945 129.182C296.259 128.493 296.761 127.961 297.45 127.586C298.139 127.199 298.931 127.006 299.825 127.006ZM299.716 133.605C300.635 133.605 301.378 133.357 301.946 132.862C302.526 132.354 302.816 131.683 302.816 130.849C302.816 130.015 302.526 129.351 301.946 128.855C301.378 128.36 300.604 128.112 299.625 128.112C298.985 128.112 298.417 128.233 297.921 128.474C297.438 128.716 297.057 129.049 296.779 129.472C296.501 129.895 296.362 130.366 296.362 130.886C296.362 131.369 296.489 131.816 296.743 132.227C297.009 132.638 297.396 132.971 297.903 133.224C298.411 133.478 299.015 133.605 299.716 133.605Z" fill="#38386C"/>
<path d="M310.673 134.711C309.694 134.711 308.818 134.451 308.044 133.931C307.283 133.412 306.685 132.668 306.249 131.702C305.826 130.723 305.615 129.574 305.615 128.257C305.615 126.94 305.826 125.797 306.249 124.83C306.685 123.851 307.283 123.102 308.044 122.582C308.818 122.063 309.694 121.803 310.673 121.803C311.652 121.803 312.522 122.063 313.284 122.582C314.057 123.102 314.662 123.851 315.097 124.83C315.532 125.797 315.749 126.94 315.749 128.257C315.749 129.574 315.532 130.723 315.097 131.702C314.662 132.668 314.057 133.412 313.284 133.931C312.522 134.451 311.652 134.711 310.673 134.711ZM310.673 133.514C311.41 133.514 312.057 133.309 312.613 132.898C313.181 132.487 313.622 131.889 313.936 131.103C314.251 130.318 314.408 129.369 314.408 128.257C314.408 127.145 314.251 126.196 313.936 125.411C313.622 124.625 313.181 124.027 312.613 123.616C312.057 123.205 311.41 122.999 310.673 122.999C309.936 122.999 309.283 123.205 308.715 123.616C308.159 124.027 307.724 124.625 307.41 125.411C307.096 126.196 306.938 127.145 306.938 128.257C306.938 129.369 307.096 130.318 307.41 131.103C307.724 131.889 308.159 132.487 308.715 132.898C309.283 133.309 309.936 133.514 310.673 133.514Z" fill="#38386C"/>
<path d="M320.302 128.71C319.444 128.71 318.749 128.396 318.217 127.767C317.697 127.127 317.437 126.293 317.437 125.266C317.437 124.238 317.697 123.41 318.217 122.782C318.749 122.141 319.444 121.821 320.302 121.821C321.148 121.821 321.837 122.135 322.368 122.764C322.9 123.392 323.166 124.226 323.166 125.266C323.166 126.305 322.9 127.139 322.368 127.767C321.837 128.396 321.148 128.71 320.302 128.71ZM327.989 121.912H329.058L320.392 134.602H319.323L327.989 121.912ZM320.302 127.894C320.894 127.894 321.365 127.665 321.716 127.205C322.078 126.734 322.26 126.087 322.26 125.266C322.26 124.444 322.078 123.803 321.716 123.344C321.365 122.873 320.894 122.637 320.302 122.637C319.697 122.637 319.22 122.873 318.87 123.344C318.519 123.815 318.344 124.456 318.344 125.266C318.344 126.075 318.519 126.716 318.87 127.187C319.22 127.659 319.697 127.894 320.302 127.894ZM328.079 134.693C327.233 134.693 326.544 134.379 326.012 133.75C325.481 133.11 325.215 132.276 325.215 131.248C325.215 130.221 325.481 129.393 326.012 128.765C326.544 128.124 327.233 127.804 328.079 127.804C328.937 127.804 329.626 128.124 330.146 128.765C330.678 129.393 330.944 130.221 330.944 131.248C330.944 132.276 330.678 133.11 330.146 133.75C329.626 134.379 328.937 134.693 328.079 134.693ZM328.079 133.877C328.684 133.877 329.161 133.641 329.511 133.17C329.862 132.699 330.037 132.058 330.037 131.248C330.037 130.438 329.862 129.798 329.511 129.327C329.161 128.855 328.684 128.62 328.079 128.62C327.487 128.62 327.01 128.855 326.647 129.327C326.297 129.786 326.121 130.426 326.121 131.248C326.121 132.07 326.297 132.717 326.647 133.188C327.01 133.647 327.487 133.877 328.079 133.877Z" fill="#38386C"/>
<path d="M342.144 134.693C341.226 134.693 340.398 134.487 339.661 134.076C338.923 133.653 338.343 133.073 337.92 132.336C337.497 131.599 337.286 130.765 337.286 129.834C337.286 128.904 337.497 128.07 337.92 127.332C338.343 126.595 338.923 126.021 339.661 125.61C340.398 125.199 341.226 124.994 342.144 124.994C343.063 124.994 343.891 125.199 344.628 125.61C345.365 126.021 345.939 126.595 346.35 127.332C346.773 128.07 346.985 128.904 346.985 129.834C346.985 130.765 346.773 131.599 346.35 132.336C345.939 133.073 345.365 133.653 344.628 134.076C343.891 134.487 343.063 134.693 342.144 134.693ZM342.144 133.551C342.821 133.551 343.426 133.4 343.957 133.097C344.501 132.783 344.924 132.342 345.226 131.774C345.529 131.206 345.68 130.559 345.68 129.834C345.68 129.109 345.529 128.462 345.226 127.894C344.924 127.326 344.501 126.891 343.957 126.589C343.426 126.275 342.821 126.118 342.144 126.118C341.468 126.118 340.857 126.275 340.313 126.589C339.782 126.891 339.358 127.326 339.044 127.894C338.742 128.462 338.591 129.109 338.591 129.834C338.591 130.559 338.742 131.206 339.044 131.774C339.358 132.342 339.782 132.783 340.313 133.097C340.857 133.4 341.468 133.551 342.144 133.551Z" fill="#38386C"/>
<path d="M352.767 122.147C352.211 122.147 351.788 122.298 351.498 122.601C351.22 122.903 351.081 123.35 351.081 123.942V125.066H354.018V126.154H351.118V134.602H349.83V126.154H348.126V125.066H349.83V123.888C349.83 123.018 350.078 122.329 350.574 121.821C351.081 121.313 351.794 121.06 352.713 121.06C353.076 121.06 353.426 121.114 353.764 121.223C354.103 121.319 354.387 121.464 354.617 121.658L354.181 122.619C353.807 122.304 353.335 122.147 352.767 122.147Z" fill="#38386C"/>
<path d="M358.911 122.147C358.355 122.147 357.932 122.298 357.642 122.601C357.364 122.903 357.225 123.35 357.225 123.942V125.066H360.162V126.154H357.261V134.602H355.974V126.154H354.27V125.066H355.974V123.888C355.974 123.018 356.222 122.329 356.717 121.821C357.225 121.313 357.938 121.06 358.856 121.06C359.219 121.06 359.569 121.114 359.908 121.223C360.246 121.319 360.53 121.464 360.76 121.658L360.325 122.619C359.95 122.304 359.479 122.147 358.911 122.147Z" fill="#38386C"/>
<g filter="url(#filter2_i_2657_14690)">
<rect x="262.806" y="176.469" width="108.776" height="36.2587" rx="4" fill="white"/>
</g>
<path d="M295.385 197.607H292.847V200.943H291.542V197.607H284.381V196.664L291.107 188.252H292.557L286.067 196.447H291.578V193.51H292.847V196.447H295.385V197.607Z" fill="#38386C"/>
<path d="M301.642 201.052C300.663 201.052 299.787 200.792 299.014 200.272C298.252 199.753 297.654 199.009 297.219 198.042C296.796 197.063 296.584 195.915 296.584 194.598C296.584 193.28 296.796 192.138 297.219 191.171C297.654 190.192 298.252 189.443 299.014 188.923C299.787 188.404 300.663 188.144 301.642 188.144C302.621 188.144 303.492 188.404 304.253 188.923C305.027 189.443 305.631 190.192 306.066 191.171C306.501 192.138 306.719 193.28 306.719 194.598C306.719 195.915 306.501 197.063 306.066 198.042C305.631 199.009 305.027 199.753 304.253 200.272C303.492 200.792 302.621 201.052 301.642 201.052ZM301.642 199.855C302.38 199.855 303.026 199.65 303.582 199.239C304.15 198.828 304.591 198.23 304.906 197.444C305.22 196.658 305.377 195.71 305.377 194.598C305.377 193.486 305.22 192.537 304.906 191.751C304.591 190.966 304.15 190.368 303.582 189.957C303.026 189.546 302.38 189.34 301.642 189.34C300.905 189.34 300.253 189.546 299.684 189.957C299.128 190.368 298.693 190.966 298.379 191.751C298.065 192.537 297.908 193.486 297.908 194.598C297.908 195.71 298.065 196.658 298.379 197.444C298.693 198.23 299.128 198.828 299.684 199.239C300.253 199.65 300.905 199.855 301.642 199.855Z" fill="#38386C"/>
<path d="M311.271 195.051C310.413 195.051 309.718 194.737 309.186 194.108C308.667 193.468 308.407 192.634 308.407 191.606C308.407 190.579 308.667 189.751 309.186 189.123C309.718 188.482 310.413 188.162 311.271 188.162C312.117 188.162 312.806 188.476 313.338 189.105C313.87 189.733 314.136 190.567 314.136 191.606C314.136 192.646 313.87 193.48 313.338 194.108C312.806 194.737 312.117 195.051 311.271 195.051ZM318.958 188.252H320.028L311.362 200.943H310.292L318.958 188.252ZM311.271 194.235C311.863 194.235 312.335 194.006 312.685 193.546C313.048 193.075 313.229 192.428 313.229 191.606C313.229 190.785 313.048 190.144 312.685 189.685C312.335 189.213 311.863 188.978 311.271 188.978C310.667 188.978 310.189 189.213 309.839 189.685C309.488 190.156 309.313 190.797 309.313 191.606C309.313 192.416 309.488 193.057 309.839 193.528C310.189 193.999 310.667 194.235 311.271 194.235ZM319.049 201.034C318.203 201.034 317.514 200.719 316.982 200.091C316.45 199.45 316.184 198.616 316.184 197.589C316.184 196.562 316.45 195.734 316.982 195.105C317.514 194.465 318.203 194.145 319.049 194.145C319.907 194.145 320.596 194.465 321.115 195.105C321.647 195.734 321.913 196.562 321.913 197.589C321.913 198.616 321.647 199.45 321.115 200.091C320.596 200.719 319.907 201.034 319.049 201.034ZM319.049 200.218C319.653 200.218 320.13 199.982 320.481 199.511C320.831 199.039 321.007 198.399 321.007 197.589C321.007 196.779 320.831 196.139 320.481 195.667C320.13 195.196 319.653 194.96 319.049 194.96C318.456 194.96 317.979 195.196 317.616 195.667C317.266 196.127 317.091 196.767 317.091 197.589C317.091 198.411 317.266 199.058 317.616 199.529C317.979 199.988 318.456 200.218 319.049 200.218Z" fill="#38386C"/>
<path d="M333.114 201.034C332.195 201.034 331.367 200.828 330.63 200.417C329.893 199.994 329.313 199.414 328.89 198.677C328.467 197.94 328.255 197.106 328.255 196.175C328.255 195.244 328.467 194.41 328.89 193.673C329.313 192.936 329.893 192.362 330.63 191.951C331.367 191.54 332.195 191.334 333.114 191.334C334.032 191.334 334.86 191.54 335.597 191.951C336.335 192.362 336.909 192.936 337.32 193.673C337.743 194.41 337.954 195.244 337.954 196.175C337.954 197.106 337.743 197.94 337.32 198.677C336.909 199.414 336.335 199.994 335.597 200.417C334.86 200.828 334.032 201.034 333.114 201.034ZM333.114 199.892C333.791 199.892 334.395 199.74 334.927 199.438C335.471 199.124 335.894 198.683 336.196 198.115C336.498 197.547 336.649 196.9 336.649 196.175C336.649 195.45 336.498 194.803 336.196 194.235C335.894 193.667 335.471 193.232 334.927 192.93C334.395 192.616 333.791 192.458 333.114 192.458C332.437 192.458 331.827 192.616 331.283 192.93C330.751 193.232 330.328 193.667 330.014 194.235C329.711 194.803 329.56 195.45 329.56 196.175C329.56 196.9 329.711 197.547 330.014 198.115C330.328 198.683 330.751 199.124 331.283 199.438C331.827 199.74 332.437 199.892 333.114 199.892Z" fill="#38386C"/>
<path d="M343.737 188.488C343.181 188.488 342.758 188.639 342.468 188.941C342.19 189.244 342.051 189.691 342.051 190.283V191.407H344.988V192.495H342.087V200.943H340.8V192.495H339.096V191.407H340.8V190.229C340.8 189.358 341.048 188.669 341.543 188.162C342.051 187.654 342.764 187.4 343.682 187.4C344.045 187.4 344.395 187.455 344.734 187.564C345.072 187.66 345.356 187.805 345.586 187.999L345.151 188.96C344.776 188.645 344.305 188.488 343.737 188.488Z" fill="#38386C"/>
<path d="M349.88 188.488C349.324 188.488 348.901 188.639 348.611 188.941C348.333 189.244 348.194 189.691 348.194 190.283V191.407H351.131V192.495H348.23V200.943H346.943V192.495H345.239V191.407H346.943V190.229C346.943 189.358 347.191 188.669 347.686 188.162C348.194 187.654 348.907 187.4 349.826 187.4C350.188 187.4 350.539 187.455 350.877 187.564C351.216 187.66 351.5 187.805 351.729 187.999L351.294 188.96C350.92 188.645 350.448 188.488 349.88 188.488Z" fill="#38386C"/>
<g filter="url(#filter3_i_2657_14690)">
<g clip-path="url(#clip0_2657_14690)">
<rect x="39" y="26" width="192.252" height="187.056" rx="93.5282" fill="white"/>
<path d="M167.538 105.703H173.646L181.79 91.8569C181.79 91.8569 170.795 91.8569 167.538 95.1147C165.497 97.1552 153.692 85.7486 153.692 85.7486V95.1147L133.738 98.3725C133.738 98.3725 131.356 92.7504 133.738 91.8569C140.254 89.4136 145.955 85.7486 145.955 85.7486L138.625 80.4547L148.398 76.3825L158.579 66.2019L153.692 52.3563L158.579 44.2118V36.8818L179.347 26.2939H195.229L226.585 55.2068L239.209 83.3053L216.404 91.8569H209.482C209.482 91.8569 213.961 107.739 214.776 111.811C215.236 114.113 211.514 116.948 209.482 114.661C206.224 110.996 192.785 98.3725 192.785 98.3725L202.152 110.996L209.482 119.955C209.482 119.955 198.079 196.513 185.863 185.111C170.497 170.77 158.579 138.688 158.579 138.688C158.579 138.688 138.625 146.018 131.295 143.982C124.081 141.978 117.856 124.842 117.856 124.842C117.856 124.842 115.518 117.877 117.856 114.661C124.372 105.703 145.955 100.001 153.692 98.3725C159.679 97.1121 167.538 105.703 167.538 105.703Z" fill="#CDCDE5"/>
<path d="M145.14 205.472L95.8662 205.065C106.521 209.2 117.382 215.59 128.037 219.725C128.037 219.725 137.782 219.708 145.14 219.725C152.341 219.742 157.92 220.334 165.094 219.725C180.347 218.43 199.301 200.586 199.301 200.586H188.306L152.47 209.137L145.14 205.472Z" fill="#CDCDE5"/>
<path d="M62.4745 157.827L82.4285 189.998L74.6912 157.827L86.0935 152.126L82.4285 146.425L101.975 138.688V130.136C101.975 130.136 92.609 122.806 86.0935 115.883C78.8114 108.146 62.4745 108.146 62.4745 108.146V97.9653L82.4285 89.8208L86.0935 78.8258L101.975 75.9752L121.115 53.5779L136.182 45.4334V37.289H129.259L136.182 25.4795L116.228 37.289L104.419 21.8145L62.4745 53.5779L56.7734 75.9752V95.1147V108.146L47 117.512L62.4745 157.827Z" fill="#CDCDE5"/>
<path d="M226.587 113.847C221.669 112.128 219.664 102.445 219.664 102.445C219.664 102.445 230.072 98.2709 233.51 102.445C236.34 105.882 233.51 113.847 233.51 113.847C233.51 113.847 229.139 114.739 226.587 113.847Z" fill="#CDCDE5"/>
<path d="M128.039 25.8867L125.595 21H141.07L164.689 23.4433L156.544 30.7734L141.07 23.4433L128.039 25.8867Z" fill="#CDCDE5"/>
<path d="M128.039 85.3413C125.595 83.7124 123.43 73.7119 128.039 73.5318C131.193 73.4086 133.821 75.686 134.147 78.8258C134.507 82.2949 130.941 87.2759 128.039 85.3413Z" fill="#CDCDE5"/>
</g>
</g>
<path d="M293.792 65.8848L290.906 62.998L288.019 65.8848L290.906 68.7715L293.792 65.8848ZM204.806 65.3848L199.806 62.998V68.7715L204.806 66.3848V65.3848ZM201.324 66.3848C201.6 66.3848 201.824 66.1609 201.824 65.8848C201.824 65.6086 201.6 65.3848 201.324 65.3848V66.3848ZM204.361 65.3848C204.085 65.3848 203.861 65.6086 203.861 65.8848C203.861 66.1609 204.085 66.3848 204.361 66.3848V65.3848ZM207.397 66.3848C207.673 66.3848 207.897 66.1609 207.897 65.8848C207.897 65.6086 207.673 65.3848 207.397 65.3848V66.3848ZM210.434 65.3848C210.158 65.3848 209.934 65.6086 209.934 65.8848C209.934 66.1609 210.158 66.3848 210.434 66.3848V65.3848ZM213.471 66.3848C213.747 66.3848 213.971 66.1609 213.971 65.8848C213.971 65.6086 213.747 65.3848 213.471 65.3848V66.3848ZM216.507 65.3848C216.231 65.3848 216.007 65.6086 216.007 65.8848C216.007 66.1609 216.231 66.3848 216.507 66.3848V65.3848ZM219.544 66.3848C219.82 66.3848 220.044 66.1609 220.044 65.8848C220.044 65.6086 219.82 65.3848 219.544 65.3848V66.3848ZM222.581 65.3848C222.305 65.3848 222.081 65.6086 222.081 65.8848C222.081 66.1609 222.305 66.3848 222.581 66.3848V65.3848ZM225.617 66.3848C225.893 66.3848 226.117 66.1609 226.117 65.8848C226.117 65.6086 225.893 65.3848 225.617 65.3848V66.3848ZM228.654 65.3848C228.378 65.3848 228.154 65.6086 228.154 65.8848C228.154 66.1609 228.378 66.3848 228.654 66.3848V65.3848ZM231.691 66.3848C231.967 66.3848 232.191 66.1609 232.191 65.8848C232.191 65.6086 231.967 65.3848 231.691 65.3848V66.3848ZM234.727 65.3848C234.451 65.3848 234.227 65.6086 234.227 65.8848C234.227 66.1609 234.451 66.3848 234.727 66.3848V65.3848ZM237.764 66.3848C238.04 66.3848 238.264 66.1609 238.264 65.8848C238.264 65.6086 238.04 65.3848 237.764 65.3848V66.3848ZM240.801 65.3848C240.525 65.3848 240.301 65.6086 240.301 65.8848C240.301 66.1609 240.525 66.3848 240.801 66.3848V65.3848ZM243.837 66.3848C244.114 66.3848 244.337 66.1609 244.337 65.8848C244.337 65.6086 244.114 65.3848 243.837 65.3848V66.3848ZM246.874 65.3848C246.598 65.3848 246.374 65.6086 246.374 65.8848C246.374 66.1609 246.598 66.3848 246.874 66.3848V65.3848ZM249.911 66.3848C250.187 66.3848 250.411 66.1609 250.411 65.8848C250.411 65.6086 250.187 65.3848 249.911 65.3848V66.3848ZM252.947 65.3848C252.671 65.3848 252.447 65.6086 252.447 65.8848C252.447 66.1609 252.671 66.3848 252.947 66.3848V65.3848ZM255.984 66.3848C256.26 66.3848 256.484 66.1609 256.484 65.8848C256.484 65.6086 256.26 65.3848 255.984 65.3848V66.3848ZM259.021 65.3848C258.745 65.3848 258.521 65.6086 258.521 65.8848C258.521 66.1609 258.745 66.3848 259.021 66.3848V65.3848ZM262.057 66.3848C262.334 66.3848 262.557 66.1609 262.557 65.8848C262.557 65.6086 262.334 65.3848 262.057 65.3848V66.3848ZM265.094 65.3848C264.818 65.3848 264.594 65.6086 264.594 65.8848C264.594 66.1609 264.818 66.3848 265.094 66.3848V65.3848ZM268.131 66.3848C268.407 66.3848 268.631 66.1609 268.631 65.8848C268.631 65.6086 268.407 65.3848 268.131 65.3848V66.3848ZM271.167 65.3848C270.891 65.3848 270.667 65.6086 270.667 65.8848C270.667 66.1609 270.891 66.3848 271.167 66.3848V65.3848ZM274.204 66.3848C274.48 66.3848 274.704 66.1609 274.704 65.8848C274.704 65.6086 274.48 65.3848 274.204 65.3848V66.3848ZM277.241 65.3848C276.965 65.3848 276.741 65.6086 276.741 65.8848C276.741 66.1609 276.965 66.3848 277.241 66.3848V65.3848ZM280.277 66.3848C280.554 66.3848 280.777 66.1609 280.777 65.8848C280.777 65.6086 280.554 65.3848 280.277 65.3848V66.3848ZM283.314 65.3848C283.038 65.3848 282.814 65.6086 282.814 65.8848C282.814 66.1609 283.038 66.3848 283.314 66.3848V65.3848ZM286.351 66.3848C286.627 66.3848 286.851 66.1609 286.851 65.8848C286.851 65.6086 286.627 65.3848 286.351 65.3848V66.3848ZM289.387 65.3848C289.111 65.3848 288.887 65.6086 288.887 65.8848C288.887 66.1609 289.111 66.3848 289.387 66.3848V65.3848ZM204.361 66.3848H207.397V65.3848H204.361V66.3848ZM210.434 66.3848H213.471V65.3848H210.434V66.3848ZM216.507 66.3848H219.544V65.3848H216.507V66.3848ZM222.581 66.3848H225.617V65.3848H222.581V66.3848ZM228.654 66.3848H231.691V65.3848H228.654V66.3848ZM234.727 66.3848H237.764V65.3848H234.727V66.3848ZM240.801 66.3848H243.837V65.3848H240.801V66.3848ZM246.874 66.3848H249.911V65.3848H246.874V66.3848ZM252.947 66.3848H255.984V65.3848H252.947V66.3848ZM259.021 66.3848H262.057V65.3848H259.021V66.3848ZM265.094 66.3848H268.131V65.3848H265.094V66.3848ZM271.167 66.3848H274.204V65.3848H271.167V66.3848ZM277.241 66.3848H280.277V65.3848H277.241V66.3848ZM283.314 66.3848H286.351V65.3848H283.314V66.3848ZM289.387 66.3848H290.906V65.3848H289.387V66.3848Z" fill="#38386C"/>
<path d="M275.664 129.164L272.777 126.277L269.891 129.164L272.777 132.051L275.664 129.164ZM186.677 128.664L181.677 126.277V132.051L186.677 129.664V128.664ZM183.196 129.664C183.472 129.664 183.696 129.44 183.696 129.164C183.696 128.888 183.472 128.664 183.196 128.664V129.664ZM186.232 128.664C185.956 128.664 185.732 128.888 185.732 129.164C185.732 129.44 185.956 129.664 186.232 129.664V128.664ZM189.269 129.664C189.545 129.664 189.769 129.44 189.769 129.164C189.769 128.888 189.545 128.664 189.269 128.664V129.664ZM192.306 128.664C192.029 128.664 191.806 128.888 191.806 129.164C191.806 129.44 192.029 129.664 192.306 129.664V128.664ZM195.342 129.664C195.618 129.664 195.842 129.44 195.842 129.164C195.842 128.888 195.618 128.664 195.342 128.664V129.664ZM198.379 128.664C198.103 128.664 197.879 128.888 197.879 129.164C197.879 129.44 198.103 129.664 198.379 129.664V128.664ZM201.416 129.664C201.692 129.664 201.916 129.44 201.916 129.164C201.916 128.888 201.692 128.664 201.416 128.664V129.664ZM204.452 128.664C204.176 128.664 203.952 128.888 203.952 129.164C203.952 129.44 204.176 129.664 204.452 129.664V128.664ZM207.489 129.664C207.765 129.664 207.989 129.44 207.989 129.164C207.989 128.888 207.765 128.664 207.489 128.664V129.664ZM210.526 128.664C210.249 128.664 210.026 128.888 210.026 129.164C210.026 129.44 210.249 129.664 210.526 129.664V128.664ZM213.562 129.664C213.838 129.664 214.062 129.44 214.062 129.164C214.062 128.888 213.838 128.664 213.562 128.664V129.664ZM216.599 128.664C216.323 128.664 216.099 128.888 216.099 129.164C216.099 129.44 216.323 129.664 216.599 129.664V128.664ZM219.636 129.664C219.912 129.664 220.136 129.44 220.136 129.164C220.136 128.888 219.912 128.664 219.636 128.664V129.664ZM222.672 128.664C222.396 128.664 222.172 128.888 222.172 129.164C222.172 129.44 222.396 129.664 222.672 129.664V128.664ZM225.709 129.664C225.985 129.664 226.209 129.44 226.209 129.164C226.209 128.888 225.985 128.664 225.709 128.664V129.664ZM228.746 128.664C228.469 128.664 228.246 128.888 228.246 129.164C228.246 129.44 228.469 129.664 228.746 129.664V128.664ZM231.782 129.664C232.058 129.664 232.282 129.44 232.282 129.164C232.282 128.888 232.058 128.664 231.782 128.664V129.664ZM234.819 128.664C234.543 128.664 234.319 128.888 234.319 129.164C234.319 129.44 234.543 129.664 234.819 129.664V128.664ZM237.856 129.664C238.132 129.664 238.356 129.44 238.356 129.164C238.356 128.888 238.132 128.664 237.856 128.664V129.664ZM240.892 128.664C240.616 128.664 240.392 128.888 240.392 129.164C240.392 129.44 240.616 129.664 240.892 129.664V128.664ZM243.929 129.664C244.205 129.664 244.429 129.44 244.429 129.164C244.429 128.888 244.205 128.664 243.929 128.664V129.664ZM246.966 128.664C246.69 128.664 246.466 128.888 246.466 129.164C246.466 129.44 246.69 129.664 246.966 129.664V128.664ZM250.002 129.664C250.278 129.664 250.502 129.44 250.502 129.164C250.502 128.888 250.278 128.664 250.002 128.664V129.664ZM253.039 128.664C252.763 128.664 252.539 128.888 252.539 129.164C252.539 129.44 252.763 129.664 253.039 129.664V128.664ZM256.076 129.664C256.352 129.664 256.576 129.44 256.576 129.164C256.576 128.888 256.352 128.664 256.076 128.664V129.664ZM259.112 128.664C258.836 128.664 258.612 128.888 258.612 129.164C258.612 129.44 258.836 129.664 259.112 129.664V128.664ZM262.149 129.664C262.425 129.664 262.649 129.44 262.649 129.164C262.649 128.888 262.425 128.664 262.149 128.664V129.664ZM265.186 128.664C264.91 128.664 264.686 128.888 264.686 129.164C264.686 129.44 264.91 129.664 265.186 129.664V128.664ZM268.222 129.664C268.498 129.664 268.722 129.44 268.722 129.164C268.722 128.888 268.498 128.664 268.222 128.664V129.664ZM271.259 128.664C270.983 128.664 270.759 128.888 270.759 129.164C270.759 129.44 270.983 129.664 271.259 129.664V128.664ZM186.232 129.664H189.269V128.664H186.232V129.664ZM192.306 129.664H195.342V128.664H192.306V129.664ZM198.379 129.664H201.416V128.664H198.379V129.664ZM204.452 129.664H207.489V128.664H204.452V129.664ZM210.526 129.664H213.562V128.664H210.526V129.664ZM216.599 129.664H219.636V128.664H216.599V129.664ZM222.672 129.664H225.709V128.664H222.672V129.664ZM228.746 129.664H231.782V128.664H228.746V129.664ZM234.819 129.664H237.856V128.664H234.819V129.664ZM240.892 129.664H243.929V128.664H240.892V129.664ZM246.966 129.664H250.002V128.664H246.966V129.664ZM253.039 129.664H256.076V128.664H253.039V129.664ZM259.112 129.664H262.149V128.664H259.112V129.664ZM265.186 129.664H268.222V128.664H265.186V129.664ZM271.259 129.664H272.777V128.664H271.259V129.664Z" fill="#38386C"/>
<path d="M191.195 159.245H191.695V158.745H191.195V159.245ZM59.772 158.745L54.772 156.358V162.132L59.772 159.745V158.745ZM191.195 196.864H190.695V197.364H191.195V196.864ZM265.24 196.864L262.353 193.977L259.467 196.864L262.353 199.75L265.24 196.864ZM56.2548 159.745C56.531 159.745 56.7548 159.521 56.7548 159.245C56.7548 158.969 56.531 158.745 56.2548 158.745V159.745ZM59.2206 158.745C58.9444 158.745 58.7206 158.969 58.7206 159.245C58.7206 159.521 58.9444 159.745 59.2206 159.745V158.745ZM62.1863 159.745C62.4624 159.745 62.6863 159.521 62.6863 159.245C62.6863 158.969 62.4624 158.745 62.1863 158.745V159.745ZM65.152 158.745C64.8759 158.745 64.652 158.969 64.652 159.245C64.652 159.521 64.8759 159.745 65.152 159.745V158.745ZM68.1178 159.745C68.3939 159.745 68.6178 159.521 68.6178 159.245C68.6178 158.969 68.3939 158.745 68.1178 158.745V159.745ZM71.0835 158.745C70.8073 158.745 70.5835 158.969 70.5835 159.245C70.5835 159.521 70.8073 159.745 71.0835 159.745V158.745ZM74.0492 159.745C74.3253 159.745 74.5492 159.521 74.5492 159.245C74.5492 158.969 74.3253 158.745 74.0492 158.745V159.745ZM77.0149 158.745C76.7388 158.745 76.5149 158.969 76.5149 159.245C76.5149 159.521 76.7388 159.745 77.0149 159.745V158.745ZM79.9807 159.745C80.2568 159.745 80.4807 159.521 80.4807 159.245C80.4807 158.969 80.2568 158.745 79.9807 158.745V159.745ZM82.9464 158.745C82.6703 158.745 82.4464 158.969 82.4464 159.245C82.4464 159.521 82.6703 159.745 82.9464 159.745V158.745ZM85.9121 159.745C86.1883 159.745 86.4121 159.521 86.4121 159.245C86.4121 158.969 86.1883 158.745 85.9121 158.745V159.745ZM88.8778 158.745C88.6017 158.745 88.3778 158.969 88.3778 159.245C88.3778 159.521 88.6017 159.745 88.8778 159.745V158.745ZM91.8436 159.745C92.1197 159.745 92.3436 159.521 92.3436 159.245C92.3436 158.969 92.1197 158.745 91.8436 158.745V159.745ZM94.8093 158.745C94.5332 158.745 94.3093 158.969 94.3093 159.245C94.3093 159.521 94.5332 159.745 94.8093 159.745V158.745ZM97.775 159.745C98.0512 159.745 98.275 159.521 98.275 159.245C98.275 158.969 98.0512 158.745 97.775 158.745V159.745ZM100.741 158.745C100.465 158.745 100.241 158.969 100.241 159.245C100.241 159.521 100.465 159.745 100.741 159.745V158.745ZM103.706 159.745C103.983 159.745 104.206 159.521 104.206 159.245C104.206 158.969 103.983 158.745 103.706 158.745V159.745ZM106.672 158.745C106.396 158.745 106.172 158.969 106.172 159.245C106.172 159.521 106.396 159.745 106.672 159.745V158.745ZM109.638 159.745C109.914 159.745 110.138 159.521 110.138 159.245C110.138 158.969 109.914 158.745 109.638 158.745V159.745ZM112.604 158.745C112.328 158.745 112.104 158.969 112.104 159.245C112.104 159.521 112.328 159.745 112.604 159.745V158.745ZM115.569 159.745C115.846 159.745 116.069 159.521 116.069 159.245C116.069 158.969 115.846 158.745 115.569 158.745V159.745ZM118.535 158.745C118.259 158.745 118.035 158.969 118.035 159.245C118.035 159.521 118.259 159.745 118.535 159.745V158.745ZM121.501 159.745C121.777 159.745 122.001 159.521 122.001 159.245C122.001 158.969 121.777 158.745 121.501 158.745V159.745ZM124.467 158.745C124.19 158.745 123.967 158.969 123.967 159.245C123.967 159.521 124.19 159.745 124.467 159.745V158.745ZM127.432 159.745C127.708 159.745 127.932 159.521 127.932 159.245C127.932 158.969 127.708 158.745 127.432 158.745V159.745ZM130.398 158.745C130.122 158.745 129.898 158.969 129.898 159.245C129.898 159.521 130.122 159.745 130.398 159.745V158.745ZM133.364 159.745C133.64 159.745 133.864 159.521 133.864 159.245C133.864 158.969 133.64 158.745 133.364 158.745V159.745ZM136.33 158.745C136.053 158.745 135.83 158.969 135.83 159.245C135.83 159.521 136.053 159.745 136.33 159.745V158.745ZM139.295 159.745C139.571 159.745 139.795 159.521 139.795 159.245C139.795 158.969 139.571 158.745 139.295 158.745V159.745ZM142.261 158.745C141.985 158.745 141.761 158.969 141.761 159.245C141.761 159.521 141.985 159.745 142.261 159.745V158.745ZM145.227 159.745C145.503 159.745 145.727 159.521 145.727 159.245C145.727 158.969 145.503 158.745 145.227 158.745V159.745ZM148.192 158.745C147.916 158.745 147.692 158.969 147.692 159.245C147.692 159.521 147.916 159.745 148.192 159.745V158.745ZM151.158 159.745C151.434 159.745 151.658 159.521 151.658 159.245C151.658 158.969 151.434 158.745 151.158 158.745V159.745ZM154.124 158.745C153.848 158.745 153.624 158.969 153.624 159.245C153.624 159.521 153.848 159.745 154.124 159.745V158.745ZM157.09 159.745C157.366 159.745 157.59 159.521 157.59 159.245C157.59 158.969 157.366 158.745 157.09 158.745V159.745ZM160.055 158.745C159.779 158.745 159.555 158.969 159.555 159.245C159.555 159.521 159.779 159.745 160.055 159.745V158.745ZM163.021 159.745C163.297 159.745 163.521 159.521 163.521 159.245C163.521 158.969 163.297 158.745 163.021 158.745V159.745ZM165.987 158.745C165.711 158.745 165.487 158.969 165.487 159.245C165.487 159.521 165.711 159.745 165.987 159.745V158.745ZM168.953 159.745C169.229 159.745 169.453 159.521 169.453 159.245C169.453 158.969 169.229 158.745 168.953 158.745V159.745ZM171.918 158.745C171.642 158.745 171.418 158.969 171.418 159.245C171.418 159.521 171.642 159.745 171.918 159.745V158.745ZM174.884 159.745C175.16 159.745 175.384 159.521 175.384 159.245C175.384 158.969 175.16 158.745 174.884 158.745V159.745ZM177.85 158.745C177.574 158.745 177.35 158.969 177.35 159.245C177.35 159.521 177.574 159.745 177.85 159.745V158.745ZM180.815 159.745C181.092 159.745 181.315 159.521 181.315 159.245C181.315 158.969 181.092 158.745 180.815 158.745V159.745ZM183.781 158.745C183.505 158.745 183.281 158.969 183.281 159.245C183.281 159.521 183.505 159.745 183.781 159.745V158.745ZM186.747 159.745C187.023 159.745 187.247 159.521 187.247 159.245C187.247 158.969 187.023 158.745 186.747 158.745V159.745ZM189.713 158.745C189.436 158.745 189.213 158.969 189.213 159.245C189.213 159.521 189.436 159.745 189.713 159.745V158.745ZM190.695 160.813C190.695 161.089 190.919 161.313 191.195 161.313C191.472 161.313 191.695 161.089 191.695 160.813H190.695ZM191.695 163.947C191.695 163.671 191.472 163.447 191.195 163.447C190.919 163.447 190.695 163.671 190.695 163.947H191.695ZM190.695 167.082C190.695 167.358 190.919 167.582 191.195 167.582C191.472 167.582 191.695 167.358 191.695 167.082H190.695ZM191.695 170.217C191.695 169.941 191.472 169.717 191.195 169.717C190.919 169.717 190.695 169.941 190.695 170.217H191.695ZM190.695 173.352C190.695 173.628 190.919 173.852 191.195 173.852C191.472 173.852 191.695 173.628 191.695 173.352H190.695ZM191.695 176.487C191.695 176.211 191.472 175.987 191.195 175.987C190.919 175.987 190.695 176.211 190.695 176.487H191.695ZM190.695 179.622C190.695 179.898 190.919 180.122 191.195 180.122C191.472 180.122 191.695 179.898 191.695 179.622H190.695ZM191.695 182.757C191.695 182.481 191.472 182.257 191.195 182.257C190.919 182.257 190.695 182.481 190.695 182.757H191.695ZM190.695 185.892C190.695 186.168 190.919 186.392 191.195 186.392C191.472 186.392 191.695 186.168 191.695 185.892H190.695ZM191.695 189.026C191.695 188.75 191.472 188.526 191.195 188.526C190.919 188.526 190.695 188.75 190.695 189.026H191.695ZM190.695 192.161C190.695 192.437 190.919 192.661 191.195 192.661C191.472 192.661 191.695 192.437 191.695 192.161H190.695ZM191.695 195.296C191.695 195.02 191.472 194.796 191.195 194.796C190.919 194.796 190.695 195.02 190.695 195.296H191.695ZM192.678 197.364C192.954 197.364 193.178 197.14 193.178 196.864C193.178 196.587 192.954 196.364 192.678 196.364V197.364ZM195.643 196.364C195.367 196.364 195.143 196.587 195.143 196.864C195.143 197.14 195.367 197.364 195.643 197.364V196.364ZM198.608 197.364C198.884 197.364 199.108 197.14 199.108 196.864C199.108 196.587 198.884 196.364 198.608 196.364V197.364ZM201.573 196.364C201.297 196.364 201.073 196.587 201.073 196.864C201.073 197.14 201.297 197.364 201.573 197.364V196.364ZM204.538 197.364C204.814 197.364 205.038 197.14 205.038 196.864C205.038 196.587 204.814 196.364 204.538 196.364V197.364ZM207.502 196.364C207.226 196.364 207.002 196.587 207.002 196.864C207.002 197.14 207.226 197.364 207.502 197.364V196.364ZM210.467 197.364C210.744 197.364 210.967 197.14 210.967 196.864C210.967 196.587 210.744 196.364 210.467 196.364V197.364ZM213.432 196.364C213.156 196.364 212.932 196.587 212.932 196.864C212.932 197.14 213.156 197.364 213.432 197.364V196.364ZM216.397 197.364C216.673 197.364 216.897 197.14 216.897 196.864C216.897 196.587 216.673 196.364 216.397 196.364V197.364ZM219.362 196.364C219.086 196.364 218.862 196.587 218.862 196.864C218.862 197.14 219.086 197.364 219.362 197.364V196.364ZM222.327 197.364C222.603 197.364 222.827 197.14 222.827 196.864C222.827 196.587 222.603 196.364 222.327 196.364V197.364ZM225.292 196.364C225.016 196.364 224.792 196.587 224.792 196.864C224.792 197.14 225.016 197.364 225.292 197.364V196.364ZM228.257 197.364C228.533 197.364 228.757 197.14 228.757 196.864C228.757 196.587 228.533 196.364 228.257 196.364V197.364ZM231.222 196.364C230.946 196.364 230.722 196.587 230.722 196.864C230.722 197.14 230.946 197.364 231.222 197.364V196.364ZM234.187 197.364C234.463 197.364 234.687 197.14 234.687 196.864C234.687 196.587 234.463 196.364 234.187 196.364V197.364ZM237.152 196.364C236.875 196.364 236.652 196.587 236.652 196.864C236.652 197.14 236.875 197.364 237.152 197.364V196.364ZM240.116 197.364C240.393 197.364 240.616 197.14 240.616 196.864C240.616 196.587 240.393 196.364 240.116 196.364V197.364ZM243.081 196.364C242.805 196.364 242.581 196.587 242.581 196.864C242.581 197.14 242.805 197.364 243.081 197.364V196.364ZM246.046 197.364C246.322 197.364 246.546 197.14 246.546 196.864C246.546 196.587 246.322 196.364 246.046 196.364V197.364ZM249.011 196.364C248.735 196.364 248.511 196.587 248.511 196.864C248.511 197.14 248.735 197.364 249.011 197.364V196.364ZM251.976 197.364C252.252 197.364 252.476 197.14 252.476 196.864C252.476 196.587 252.252 196.364 251.976 196.364V197.364ZM254.941 196.364C254.665 196.364 254.441 196.587 254.441 196.864C254.441 197.14 254.665 197.364 254.941 197.364V196.364ZM257.906 197.364C258.182 197.364 258.406 197.14 258.406 196.864C258.406 196.587 258.182 196.364 257.906 196.364V197.364ZM260.871 196.364C260.595 196.364 260.371 196.587 260.371 196.864C260.371 197.14 260.595 197.364 260.871 197.364V196.364ZM59.2206 159.745H62.1863V158.745H59.2206V159.745ZM65.152 159.745H68.1178V158.745H65.152V159.745ZM71.0835 159.745H74.0492V158.745H71.0835V159.745ZM77.0149 159.745H79.9807V158.745H77.0149V159.745ZM82.9464 159.745H85.9121V158.745H82.9464V159.745ZM88.8778 159.745H91.8436V158.745H88.8778V159.745ZM94.8093 159.745H97.775V158.745H94.8093V159.745ZM100.741 159.745H103.706V158.745H100.741V159.745ZM106.672 159.745H109.638V158.745H106.672V159.745ZM112.604 159.745H115.569V158.745H112.604V159.745ZM118.535 159.745H121.501V158.745H118.535V159.745ZM124.467 159.745H127.432V158.745H124.467V159.745ZM130.398 159.745H133.364V158.745H130.398V159.745ZM136.33 159.745H139.295V158.745H136.33V159.745ZM142.261 159.745H145.227V158.745H142.261V159.745ZM148.192 159.745H151.158V158.745H148.192V159.745ZM154.124 159.745H157.09V158.745H154.124V159.745ZM160.055 159.745H163.021V158.745H160.055V159.745ZM165.987 159.745H168.953V158.745H165.987V159.745ZM171.918 159.745H174.884V158.745H171.918V159.745ZM177.85 159.745H180.815V158.745H177.85V159.745ZM183.781 159.745H186.747V158.745H183.781V159.745ZM189.713 159.745H191.195V158.745H189.713V159.745ZM190.695 159.245V160.813H191.695V159.245H190.695ZM190.695 163.947V167.082H191.695V163.947H190.695ZM190.695 170.217V173.352H191.695V170.217H190.695ZM190.695 176.487V179.622H191.695V176.487H190.695ZM190.695 182.757V185.892H191.695V182.757H190.695ZM190.695 189.026V192.161H191.695V189.026H190.695ZM190.695 195.296V196.864H191.695V195.296H190.695ZM191.195 197.364H192.678V196.364H191.195V197.364ZM195.643 197.364H198.608V196.364H195.643V197.364ZM201.573 197.364H204.538V196.364H201.573V197.364ZM207.502 197.364H210.467V196.364H207.502V197.364ZM213.432 197.364H216.397V196.364H213.432V197.364ZM219.362 197.364H222.327V196.364H219.362V197.364ZM225.292 197.364H228.257V196.364H225.292V197.364ZM231.222 197.364H234.187V196.364H231.222V197.364ZM237.152 197.364H240.116V196.364H237.152V197.364ZM243.081 197.364H246.046V196.364H243.081V197.364ZM249.011 197.364H251.976V196.364H249.011V197.364ZM254.941 197.364H257.906V196.364H254.941V197.364ZM260.871 197.364H262.353V196.364H260.871V197.364Z" fill="#38386C"/>
<defs>
<filter id="filter0_i_2657_14690" x="290.907" y="45.0361" width="108.776" height="36.2588" filterUnits="userSpaceOnUse" color-interpolation-filters="sRGB">
<feFlood flood-opacity="0" result="BackgroundImageFix"/>
<feBlend mode="normal" in="SourceGraphic" in2="BackgroundImageFix" result="shape"/>
<feColorMatrix in="SourceAlpha" type="matrix" values="0 0 0 0 0 0 0 0 0 0 0 0 0 0 0 0 0 0 127 0" result="hardAlpha"/>
<feOffset/>
<feGaussianBlur stdDeviation="2"/>
<feComposite in2="hardAlpha" operator="arithmetic" k2="-1" k3="1"/>
<feColorMatrix type="matrix" values="0 0 0 0 0 0 0 0 0 0 0 0 0 0 0 0 0 0 0.12 0"/>
<feBlend mode="normal" in2="shape" result="effect1_innerShadow_2657_14690"/>
</filter>
<filter id="filter1_i_2657_14690" x="272.777" y="110.129" width="108.776" height="36.2588" filterUnits="userSpaceOnUse" color-interpolation-filters="sRGB">
<feFlood flood-opacity="0" result="BackgroundImageFix"/>
<feBlend mode="normal" in="SourceGraphic" in2="BackgroundImageFix" result="shape"/>
<feColorMatrix in="SourceAlpha" type="matrix" values="0 0 0 0 0 0 0 0 0 0 0 0 0 0 0 0 0 0 127 0" result="hardAlpha"/>
<feOffset/>
<feGaussianBlur stdDeviation="2"/>
<feComposite in2="hardAlpha" operator="arithmetic" k2="-1" k3="1"/>
<feColorMatrix type="matrix" values="0 0 0 0 0 0 0 0 0 0 0 0 0 0 0 0 0 0 0.12 0"/>
<feBlend mode="normal" in2="shape" result="effect1_innerShadow_2657_14690"/>
</filter>
<filter id="filter2_i_2657_14690" x="262.806" y="176.469" width="108.776" height="36.2588" filterUnits="userSpaceOnUse" color-interpolation-filters="sRGB">
<feFlood flood-opacity="0" result="BackgroundImageFix"/>
<feBlend mode="normal" in="SourceGraphic" in2="BackgroundImageFix" result="shape"/>
<feColorMatrix in="SourceAlpha" type="matrix" values="0 0 0 0 0 0 0 0 0 0 0 0 0 0 0 0 0 0 127 0" result="hardAlpha"/>
<feOffset/>
<feGaussianBlur stdDeviation="2"/>
<feComposite in2="hardAlpha" operator="arithmetic" k2="-1" k3="1"/>
<feColorMatrix type="matrix" values="0 0 0 0 0 0 0 0 0 0 0 0 0 0 0 0 0 0 0.12 0"/>
<feBlend mode="normal" in2="shape" result="effect1_innerShadow_2657_14690"/>
</filter>
<filter id="filter3_i_2657_14690" x="39" y="26" width="192.252" height="187.057" filterUnits="userSpaceOnUse" color-interpolation-filters="sRGB">
<feFlood flood-opacity="0" result="BackgroundImageFix"/>
<feBlend mode="normal" in="SourceGraphic" in2="BackgroundImageFix" result="shape"/>
<feColorMatrix in="SourceAlpha" type="matrix" values="0 0 0 0 0 0 0 0 0 0 0 0 0 0 0 0 0 0 127 0" result="hardAlpha"/>
<feOffset/>
<feGaussianBlur stdDeviation="6"/>
<feComposite in2="hardAlpha" operator="arithmetic" k2="-1" k3="1"/>
<feColorMatrix type="matrix" values="0 0 0 0 0 0 0 0 0 0 0 0 0 0 0 0 0 0 0.12 0"/>
<feBlend mode="normal" in2="shape" result="effect1_innerShadow_2657_14690"/>
</filter>
<clipPath id="clip0_2657_14690">
<rect x="39" y="26" width="192.252" height="187.056" rx="93.5282" fill="white"/>
</clipPath>
</defs>
</svg>
