<svg width="440" height="240" viewBox="0 0 440 240" fill="none" xmlns="http://www.w3.org/2000/svg">
<g clip-path="url(#clip0_1_170)">
<path d="M0 12C0 5.37259 5.37258 0 12 0H428C434.627 0 440 5.37258 440 12V240H0V12Z" fill="#D2D6FF"/>
<g filter="url(#filter0_i_1_170)">
<mask id="mask0_1_170" style="mask-type:luminance" maskUnits="userSpaceOnUse" x="-64" y="26" width="193" height="187">
<path d="M34.7238 26.7769H29.5282C-22.126 26.7769 -64 68.3047 -64 119.532C-64 170.759 -22.126 212.287 29.5282 212.287H34.7238C86.378 212.287 128.252 170.759 128.252 119.532C128.252 68.3047 86.378 26.7769 34.7238 26.7769Z" fill="white"/>
</mask>
<g mask="url(#mask0_1_170)">
<path d="M34.7238 26.7769H29.5282C-22.126 26.7769 -64 68.3047 -64 119.532C-64 170.759 -22.126 212.287 29.5282 212.287H34.7238C86.378 212.287 128.252 170.759 128.252 119.532C128.252 68.3047 86.378 26.7769 34.7238 26.7769Z" fill="white"/>
<path d="M64.538 105.821H70.646L78.79 92.0895C78.79 92.0895 67.795 92.0895 64.538 95.3204C62.497 97.344 50.692 86.0317 50.692 86.0317V95.3204L30.738 98.5512C30.738 98.5512 28.356 92.9756 30.738 92.0895C37.254 89.6664 42.955 86.0317 42.955 86.0317L35.625 80.7815L45.398 76.743L55.579 66.6465L50.692 52.9153L55.579 44.8381V37.5687L76.347 27.0683H92.229L123.585 55.7423L136.209 83.6086L113.404 92.0895H106.482C106.482 92.0895 110.961 107.84 111.776 111.879C112.236 114.162 108.514 116.973 106.482 114.705C103.224 111.07 89.785 98.5512 89.785 98.5512L99.152 111.07L106.482 119.955C106.482 119.955 95.079 195.881 82.863 184.573C67.497 170.35 55.579 138.534 55.579 138.534C55.579 138.534 35.625 145.803 28.295 143.784C21.081 141.796 14.856 124.802 14.856 124.802C14.856 124.802 12.518 117.895 14.856 114.705C21.372 105.821 42.955 100.166 50.692 98.5512C56.679 97.3013 64.538 105.821 64.538 105.821Z" fill="#A2AAFF"/>
<path d="M42.14 204.766L-7.13379 204.362C3.52101 208.463 14.382 214.8 25.037 218.901C25.037 218.901 34.782 218.884 42.14 218.901C49.341 218.918 54.92 219.505 62.094 218.901C77.347 217.617 96.301 199.92 96.301 199.92H85.306L49.47 208.4L42.14 204.766Z" fill="#A2AAFF"/>
<path d="M-40.5255 157.514L-20.5715 189.419L-28.3088 157.514L-16.9065 151.861L-20.5715 146.207L-1.025 138.534V130.052C-1.025 130.052 -10.391 122.783 -16.9065 115.917C-24.1886 108.244 -40.5255 108.244 -40.5255 108.244V98.1474L-20.5715 90.0702L-16.9065 79.1661L-1.025 76.339L18.115 54.1268L33.182 46.0496V37.9726H26.259L33.182 26.2607L13.228 37.9726L1.419 22.6259L-40.5255 54.1268L-46.2266 76.339V95.3204V108.244L-56 117.533L-40.5255 157.514Z" fill="#A2AAFF"/>
<path d="M123.587 113.898C118.669 112.193 116.664 102.59 116.664 102.59C116.664 102.59 127.072 98.4505 130.51 102.59C133.34 105.999 130.51 113.898 130.51 113.898C130.51 113.898 126.139 114.782 123.587 113.898Z" fill="#A2AAFF"/>
<path d="M25.039 26.6645L22.595 21.8182H38.07L61.689 24.2413L53.544 31.5108L38.07 24.2413L25.039 26.6645Z" fill="#A2AAFF"/>
<path d="M25.039 85.6277C22.595 84.0123 20.43 74.0944 25.039 73.9158C28.193 73.7936 30.821 76.0522 31.147 79.1661C31.507 82.6065 27.941 87.5463 25.039 85.6277Z" fill="#A2AAFF"/>
</g>
</g>
<path d="M133 119.5L128 117.113V122.887L133 120.5V119.5ZM167.887 120L165 117.113L162.113 120L165 122.887L167.887 120ZM129.028 120.5C129.304 120.5 129.528 120.276 129.528 120C129.528 119.724 129.304 119.5 129.028 119.5V120.5ZM131.083 119.5C130.807 119.5 130.583 119.724 130.583 120C130.583 120.276 130.807 120.5 131.083 120.5V119.5ZM133.139 120.5C133.415 120.5 133.639 120.276 133.639 120C133.639 119.724 133.415 119.5 133.139 119.5V120.5ZM135.194 119.5C134.918 119.5 134.694 119.724 134.694 120C134.694 120.276 134.918 120.5 135.194 120.5V119.5ZM137.25 120.5C137.526 120.5 137.75 120.276 137.75 120C137.75 119.724 137.526 119.5 137.25 119.5V120.5ZM139.306 119.5C139.029 119.5 138.806 119.724 138.806 120C138.806 120.276 139.029 120.5 139.306 120.5V119.5ZM141.361 120.5C141.637 120.5 141.861 120.276 141.861 120C141.861 119.724 141.637 119.5 141.361 119.5V120.5ZM143.417 119.5C143.141 119.5 142.917 119.724 142.917 120C142.917 120.276 143.141 120.5 143.417 120.5V119.5ZM145.472 120.5C145.748 120.5 145.972 120.276 145.972 120C145.972 119.724 145.748 119.5 145.472 119.5V120.5ZM147.528 119.5C147.252 119.5 147.028 119.724 147.028 120C147.028 120.276 147.252 120.5 147.528 120.5V119.5ZM149.583 120.5C149.859 120.5 150.083 120.276 150.083 120C150.083 119.724 149.859 119.5 149.583 119.5V120.5ZM151.639 119.5C151.363 119.5 151.139 119.724 151.139 120C151.139 120.276 151.363 120.5 151.639 120.5V119.5ZM153.694 120.5C153.971 120.5 154.194 120.276 154.194 120C154.194 119.724 153.971 119.5 153.694 119.5V120.5ZM155.75 119.5C155.474 119.5 155.25 119.724 155.25 120C155.25 120.276 155.474 120.5 155.75 120.5V119.5ZM157.806 120.5C158.082 120.5 158.306 120.276 158.306 120C158.306 119.724 158.082 119.5 157.806 119.5V120.5ZM159.861 119.5C159.585 119.5 159.361 119.724 159.361 120C159.361 120.276 159.585 120.5 159.861 120.5V119.5ZM161.917 120.5C162.193 120.5 162.417 120.276 162.417 120C162.417 119.724 162.193 119.5 161.917 119.5V120.5ZM163.972 119.5C163.696 119.5 163.472 119.724 163.472 120C163.472 120.276 163.696 120.5 163.972 120.5V119.5ZM131.083 120.5H133.139V119.5H131.083V120.5ZM135.194 120.5H137.25V119.5H135.194V120.5ZM139.306 120.5H141.361V119.5H139.306V120.5ZM143.417 120.5H145.472V119.5H143.417V120.5ZM147.528 120.5H149.583V119.5H147.528V120.5ZM151.639 120.5H153.694V119.5H151.639V120.5ZM155.75 120.5H157.806V119.5H155.75V120.5ZM159.861 120.5H161.917V119.5H159.861V120.5ZM163.972 120.5H165V119.5H163.972V120.5Z" fill="#9372FF"/>
<path d="M274 111.5C273.724 111.5 273.5 111.724 273.5 112C273.5 112.276 273.724 112.5 274 112.5V111.5ZM319.887 48L317 45.1132L314.113 48L317 50.8868L319.887 48ZM275.066 112.5C275.342 112.5 275.566 112.276 275.566 112C275.566 111.724 275.342 111.5 275.066 111.5V112.5ZM277.199 111.5C276.923 111.5 276.699 111.724 276.699 112C276.699 112.276 276.923 112.5 277.199 112.5V111.5ZM279.331 112.5C279.608 112.5 279.831 112.276 279.831 112C279.831 111.724 279.608 111.5 279.331 111.5V112.5ZM281.464 111.5C281.188 111.5 280.964 111.724 280.964 112C280.964 112.276 281.188 112.5 281.464 112.5V111.5ZM283.597 112.5C283.873 112.5 284.097 112.276 284.097 112C284.097 111.724 283.873 111.5 283.597 111.5V112.5ZM285.729 111.5C285.453 111.5 285.229 111.724 285.229 112C285.229 112.276 285.453 112.5 285.729 112.5V111.5ZM287.862 112.5C288.138 112.5 288.362 112.276 288.362 112C288.362 111.724 288.138 111.5 287.862 111.5V112.5ZM289.994 111.5C289.718 111.5 289.494 111.724 289.494 112C289.494 112.276 289.718 112.5 289.994 112.5V111.5ZM292.17 112.428C292.444 112.392 292.637 112.142 292.601 111.868C292.566 111.594 292.315 111.401 292.041 111.437L292.17 112.428ZM293.931 110.931C293.676 111.037 293.555 111.329 293.661 111.584C293.767 111.84 294.059 111.961 294.314 111.855L293.931 110.931ZM296.236 110.744C296.455 110.575 296.496 110.261 296.327 110.043C296.159 109.824 295.845 109.782 295.626 109.951L296.236 110.744ZM297.011 108.566C296.843 108.785 296.884 109.098 297.103 109.267C297.322 109.435 297.636 109.394 297.804 109.175L297.011 108.566ZM298.915 107.254C299.021 106.999 298.9 106.706 298.645 106.6C298.39 106.495 298.097 106.616 297.992 106.871L298.915 107.254ZM298.497 104.98C298.461 105.254 298.654 105.505 298.928 105.541C299.202 105.576 299.453 105.383 299.489 105.11L298.497 104.98ZM299.561 103C299.561 102.724 299.337 102.5 299.061 102.5C298.784 102.5 298.561 102.724 298.561 103H299.561ZM298.561 101C298.561 101.276 298.784 101.5 299.061 101.5C299.337 101.5 299.561 101.276 299.561 101H298.561ZM299.561 99C299.561 98.7239 299.337 98.5 299.061 98.5C298.784 98.5 298.561 98.7239 298.561 99H299.561ZM298.561 97C298.561 97.2761 298.784 97.5 299.061 97.5C299.337 97.5 299.561 97.2761 299.561 97H298.561ZM299.561 95C299.561 94.7239 299.337 94.5 299.061 94.5C298.784 94.5 298.561 94.7239 298.561 95H299.561ZM298.561 93C298.561 93.2761 298.784 93.5 299.061 93.5C299.337 93.5 299.561 93.2761 299.561 93H298.561ZM299.561 91C299.561 90.7239 299.337 90.5 299.061 90.5C298.784 90.5 298.561 90.7239 298.561 91H299.561ZM298.561 89C298.561 89.2761 298.784 89.5 299.061 89.5C299.337 89.5 299.561 89.2761 299.561 89H298.561ZM299.561 87C299.561 86.7239 299.337 86.5 299.061 86.5C298.784 86.5 298.561 86.7239 298.561 87H299.561ZM298.561 85C298.561 85.2761 298.784 85.5 299.061 85.5C299.337 85.5 299.561 85.2761 299.561 85H298.561ZM299.561 83C299.561 82.7239 299.337 82.5 299.061 82.5C298.784 82.5 298.561 82.7239 298.561 83H299.561ZM298.561 81C298.561 81.2761 298.784 81.5 299.061 81.5C299.337 81.5 299.561 81.2761 299.561 81H298.561ZM299.561 79C299.561 78.7239 299.337 78.5 299.061 78.5C298.784 78.5 298.561 78.7239 298.561 79H299.561ZM298.561 77C298.561 77.2761 298.784 77.5 299.061 77.5C299.337 77.5 299.561 77.2761 299.561 77H298.561ZM299.561 75C299.561 74.7239 299.337 74.5 299.061 74.5C298.784 74.5 298.561 74.7239 298.561 75H299.561ZM298.561 73C298.561 73.2761 298.784 73.5 299.061 73.5C299.337 73.5 299.561 73.2761 299.561 73H298.561ZM299.561 71C299.561 70.7239 299.337 70.5 299.061 70.5C298.784 70.5 298.561 70.7239 298.561 71H299.561ZM298.561 69C298.561 69.2761 298.784 69.5 299.061 69.5C299.337 69.5 299.561 69.2761 299.561 69H298.561ZM299.561 67C299.561 66.7239 299.337 66.5 299.061 66.5C298.784 66.5 298.561 66.7239 298.561 67H299.561ZM298.561 65C298.561 65.2761 298.784 65.5 299.061 65.5C299.337 65.5 299.561 65.2761 299.561 65H298.561ZM299.561 63C299.561 62.7239 299.337 62.5 299.061 62.5C298.784 62.5 298.561 62.7239 298.561 63H299.561ZM298.561 61C298.561 61.2761 298.784 61.5 299.061 61.5C299.337 61.5 299.561 61.2761 299.561 61H298.561ZM299.561 59C299.561 58.7239 299.337 58.5 299.061 58.5C298.784 58.5 298.561 58.7239 298.561 59H299.561ZM298.561 57C298.561 57.2761 298.784 57.5 299.061 57.5C299.337 57.5 299.561 57.2761 299.561 57H298.561ZM299.624 55.0198C299.66 54.746 299.467 54.495 299.193 54.4593C298.919 54.4236 298.668 54.6166 298.632 54.8905L299.624 55.0198ZM299.206 52.7462C299.1 53.0013 299.221 53.2938 299.476 53.3996C299.731 53.5053 300.024 53.3843 300.13 53.1292L299.206 52.7462ZM301.11 51.4344C301.278 51.2154 301.237 50.9015 301.018 50.7333C300.799 50.565 300.485 50.6061 300.317 50.8251L301.11 51.4344ZM301.886 49.2563C301.667 49.4246 301.626 49.7385 301.794 49.9575C301.962 50.1764 302.276 50.2175 302.495 50.0493L301.886 49.2563ZM304.19 49.0689C304.445 48.9631 304.566 48.6706 304.46 48.4155C304.354 48.1604 304.062 48.0394 303.807 48.1452L304.19 49.0689ZM305.951 47.5718C305.677 47.6075 305.484 47.8585 305.52 48.1323C305.556 48.4061 305.807 48.5991 306.08 48.5634L305.951 47.5718ZM308.303 48.5C308.579 48.5 308.803 48.2761 308.803 48C308.803 47.7239 308.579 47.5 308.303 47.5V48.5ZM310.788 47.5C310.512 47.5 310.288 47.7239 310.288 48C310.288 48.2761 310.512 48.5 310.788 48.5V47.5ZM313.273 48.5C313.549 48.5 313.773 48.2761 313.773 48C313.773 47.7239 313.549 47.5 313.273 47.5V48.5ZM315.758 47.5C315.481 47.5 315.258 47.7239 315.258 48C315.258 48.2761 315.481 48.5 315.758 48.5V47.5ZM274 112.5H275.066V111.5H274V112.5ZM277.199 112.5H279.331V111.5H277.199V112.5ZM281.464 112.5H283.597V111.5H281.464V112.5ZM285.729 112.5H287.862V111.5H285.729V112.5ZM289.994 112.5H291.061V111.5H289.994V112.5ZM291.061 112.5C291.436 112.5 291.807 112.476 292.17 112.428L292.041 111.437C291.72 111.478 291.393 111.5 291.061 111.5V112.5ZM294.314 111.855C295.006 111.568 295.651 111.193 296.236 110.744L295.626 109.951C295.11 110.347 294.541 110.678 293.931 110.931L294.314 111.855ZM297.804 109.175C298.254 108.59 298.629 107.945 298.915 107.254L297.992 106.871C297.739 107.48 297.408 108.049 297.011 108.566L297.804 109.175ZM299.489 105.11C299.536 104.746 299.561 104.376 299.561 104H298.561C298.561 104.332 298.539 104.66 298.497 104.98L299.489 105.11ZM299.561 104V103H298.561V104H299.561ZM299.561 101V99H298.561V101H299.561ZM299.561 97V95H298.561V97H299.561ZM299.561 93V91H298.561V93H299.561ZM299.561 89V87H298.561V89H299.561ZM299.561 85V83H298.561V85H299.561ZM299.561 81V79H298.561V81H299.561ZM299.561 77V75H298.561V77H299.561ZM299.561 73V71H298.561V73H299.561ZM299.561 69V67H298.561V69H299.561ZM299.561 65V63H298.561V65H299.561ZM299.561 61V59H298.561V61H299.561ZM299.561 57V56H298.561V57H299.561ZM299.561 56C299.561 55.6675 299.582 55.3404 299.624 55.0198L298.632 54.8905C298.585 55.2538 298.561 55.6242 298.561 56H299.561ZM300.13 53.1292C300.382 52.5198 300.713 51.9506 301.11 51.4344L300.317 50.8251C299.868 51.4098 299.492 52.0549 299.206 52.7462L300.13 53.1292ZM302.495 50.0493C303.011 49.6525 303.58 49.3216 304.19 49.0689L303.807 48.1452C303.115 48.4319 302.47 48.807 301.886 49.2563L302.495 50.0493ZM306.08 48.5634C306.401 48.5216 306.728 48.5 307.061 48.5V47.5C306.685 47.5 306.314 47.5244 305.951 47.5718L306.08 48.5634ZM307.061 48.5H308.303V47.5H307.061V48.5ZM310.788 48.5H313.273V47.5H310.788V48.5ZM315.758 48.5H317V47.5H315.758V48.5Z" fill="#9372FF"/>
<path d="M274 128.5C273.724 128.5 273.5 128.276 273.5 128C273.5 127.724 273.724 127.5 274 127.5V128.5ZM319.887 192L317 194.887L314.113 192L317 189.113L319.887 192ZM275.066 127.5C275.342 127.5 275.566 127.724 275.566 128C275.566 128.276 275.342 128.5 275.066 128.5V127.5ZM277.199 128.5C276.923 128.5 276.699 128.276 276.699 128C276.699 127.724 276.923 127.5 277.199 127.5V128.5ZM279.331 127.5C279.608 127.5 279.831 127.724 279.831 128C279.831 128.276 279.608 128.5 279.331 128.5V127.5ZM281.464 128.5C281.188 128.5 280.964 128.276 280.964 128C280.964 127.724 281.188 127.5 281.464 127.5V128.5ZM283.597 127.5C283.873 127.5 284.097 127.724 284.097 128C284.097 128.276 283.873 128.5 283.597 128.5V127.5ZM285.729 128.5C285.453 128.5 285.229 128.276 285.229 128C285.229 127.724 285.453 127.5 285.729 127.5V128.5ZM287.862 127.5C288.138 127.5 288.362 127.724 288.362 128C288.362 128.276 288.138 128.5 287.862 128.5V127.5ZM289.994 128.5C289.718 128.5 289.494 128.276 289.494 128C289.494 127.724 289.718 127.5 289.994 127.5V128.5ZM292.17 127.572C292.444 127.608 292.637 127.858 292.601 128.132C292.566 128.406 292.315 128.599 292.041 128.563L292.17 127.572ZM293.931 129.069C293.676 128.963 293.555 128.671 293.661 128.416C293.767 128.16 294.059 128.039 294.314 128.145L293.931 129.069ZM296.236 129.256C296.455 129.425 296.496 129.739 296.327 129.957C296.159 130.176 295.845 130.218 295.626 130.049L296.236 129.256ZM297.011 131.434C296.843 131.215 296.884 130.902 297.103 130.733C297.322 130.565 297.636 130.606 297.804 130.825L297.011 131.434ZM298.915 132.746C299.021 133.001 298.9 133.294 298.645 133.4C298.39 133.505 298.097 133.384 297.992 133.129L298.915 132.746ZM298.497 135.02C298.461 134.746 298.654 134.495 298.928 134.459C299.202 134.424 299.453 134.617 299.489 134.89L298.497 135.02ZM299.561 137C299.561 137.276 299.337 137.5 299.061 137.5C298.784 137.5 298.561 137.276 298.561 137H299.561ZM298.561 139C298.561 138.724 298.784 138.5 299.061 138.5C299.337 138.5 299.561 138.724 299.561 139H298.561ZM299.561 141C299.561 141.276 299.337 141.5 299.061 141.5C298.784 141.5 298.561 141.276 298.561 141H299.561ZM298.561 143C298.561 142.724 298.784 142.5 299.061 142.5C299.337 142.5 299.561 142.724 299.561 143H298.561ZM299.561 145C299.561 145.276 299.337 145.5 299.061 145.5C298.784 145.5 298.561 145.276 298.561 145H299.561ZM298.561 147C298.561 146.724 298.784 146.5 299.061 146.5C299.337 146.5 299.561 146.724 299.561 147H298.561ZM299.561 149C299.561 149.276 299.337 149.5 299.061 149.5C298.784 149.5 298.561 149.276 298.561 149H299.561ZM298.561 151C298.561 150.724 298.784 150.5 299.061 150.5C299.337 150.5 299.561 150.724 299.561 151H298.561ZM299.561 153C299.561 153.276 299.337 153.5 299.061 153.5C298.784 153.5 298.561 153.276 298.561 153H299.561ZM298.561 155C298.561 154.724 298.784 154.5 299.061 154.5C299.337 154.5 299.561 154.724 299.561 155H298.561ZM299.561 157C299.561 157.276 299.337 157.5 299.061 157.5C298.784 157.5 298.561 157.276 298.561 157H299.561ZM298.561 159C298.561 158.724 298.784 158.5 299.061 158.5C299.337 158.5 299.561 158.724 299.561 159H298.561ZM299.561 161C299.561 161.276 299.337 161.5 299.061 161.5C298.784 161.5 298.561 161.276 298.561 161H299.561ZM298.561 163C298.561 162.724 298.784 162.5 299.061 162.5C299.337 162.5 299.561 162.724 299.561 163H298.561ZM299.561 165C299.561 165.276 299.337 165.5 299.061 165.5C298.784 165.5 298.561 165.276 298.561 165H299.561ZM298.561 167C298.561 166.724 298.784 166.5 299.061 166.5C299.337 166.5 299.561 166.724 299.561 167H298.561ZM299.561 169C299.561 169.276 299.337 169.5 299.061 169.5C298.784 169.5 298.561 169.276 298.561 169H299.561ZM298.561 171C298.561 170.724 298.784 170.5 299.061 170.5C299.337 170.5 299.561 170.724 299.561 171H298.561ZM299.561 173C299.561 173.276 299.337 173.5 299.061 173.5C298.784 173.5 298.561 173.276 298.561 173H299.561ZM298.561 175C298.561 174.724 298.784 174.5 299.061 174.5C299.337 174.5 299.561 174.724 299.561 175H298.561ZM299.561 177C299.561 177.276 299.337 177.5 299.061 177.5C298.784 177.5 298.561 177.276 298.561 177H299.561ZM298.561 179C298.561 178.724 298.784 178.5 299.061 178.5C299.337 178.5 299.561 178.724 299.561 179H298.561ZM299.561 181C299.561 181.276 299.337 181.5 299.061 181.5C298.784 181.5 298.561 181.276 298.561 181H299.561ZM298.561 183C298.561 182.724 298.784 182.5 299.061 182.5C299.337 182.5 299.561 182.724 299.561 183H298.561ZM299.624 184.98C299.66 185.254 299.467 185.505 299.193 185.541C298.919 185.576 298.668 185.383 298.632 185.11L299.624 184.98ZM299.206 187.254C299.1 186.999 299.221 186.706 299.476 186.6C299.731 186.495 300.024 186.616 300.13 186.871L299.206 187.254ZM301.11 188.566C301.278 188.785 301.237 189.098 301.018 189.267C300.799 189.435 300.485 189.394 300.317 189.175L301.11 188.566ZM301.886 190.744C301.667 190.575 301.626 190.261 301.794 190.043C301.962 189.824 302.276 189.782 302.495 189.951L301.886 190.744ZM304.19 190.931C304.445 191.037 304.566 191.329 304.46 191.584C304.354 191.84 304.062 191.961 303.807 191.855L304.19 190.931ZM305.951 192.428C305.677 192.392 305.484 192.142 305.52 191.868C305.556 191.594 305.807 191.401 306.08 191.437L305.951 192.428ZM308.303 191.5C308.579 191.5 308.803 191.724 308.803 192C308.803 192.276 308.579 192.5 308.303 192.5V191.5ZM310.788 192.5C310.512 192.5 310.288 192.276 310.288 192C310.288 191.724 310.512 191.5 310.788 191.5V192.5ZM313.273 191.5C313.549 191.5 313.773 191.724 313.773 192C313.773 192.276 313.549 192.5 313.273 192.5V191.5ZM315.758 192.5C315.481 192.5 315.258 192.276 315.258 192C315.258 191.724 315.481 191.5 315.758 191.5V192.5ZM274 127.5H275.066V128.5H274V127.5ZM277.199 127.5H279.331V128.5H277.199V127.5ZM281.464 127.5H283.597V128.5H281.464V127.5ZM285.729 127.5H287.862V128.5H285.729V127.5ZM289.994 127.5H291.061V128.5H289.994V127.5ZM291.061 127.5C291.436 127.5 291.807 127.524 292.17 127.572L292.041 128.563C291.72 128.522 291.393 128.5 291.061 128.5V127.5ZM294.314 128.145C295.006 128.432 295.651 128.807 296.236 129.256L295.626 130.049C295.11 129.653 294.541 129.322 293.931 129.069L294.314 128.145ZM297.804 130.825C298.254 131.41 298.629 132.055 298.915 132.746L297.992 133.129C297.739 132.52 297.408 131.951 297.011 131.434L297.804 130.825ZM299.489 134.89C299.536 135.254 299.561 135.624 299.561 136H298.561C298.561 135.668 298.539 135.34 298.497 135.02L299.489 134.89ZM299.561 136V137H298.561V136H299.561ZM299.561 139V141H298.561V139H299.561ZM299.561 143V145H298.561V143H299.561ZM299.561 147V149H298.561V147H299.561ZM299.561 151V153H298.561V151H299.561ZM299.561 155V157H298.561V155H299.561ZM299.561 159V161H298.561V159H299.561ZM299.561 163V165H298.561V163H299.561ZM299.561 167V169H298.561V167H299.561ZM299.561 171V173H298.561V171H299.561ZM299.561 175V177H298.561V175H299.561ZM299.561 179V181H298.561V179H299.561ZM299.561 183V184H298.561V183H299.561ZM299.561 184C299.561 184.332 299.582 184.66 299.624 184.98L298.632 185.11C298.585 184.746 298.561 184.376 298.561 184H299.561ZM300.13 186.871C300.382 187.48 300.713 188.049 301.11 188.566L300.317 189.175C299.868 188.59 299.492 187.945 299.206 187.254L300.13 186.871ZM302.495 189.951C303.011 190.347 303.58 190.678 304.19 190.931L303.807 191.855C303.115 191.568 302.47 191.193 301.886 190.744L302.495 189.951ZM306.08 191.437C306.401 191.478 306.728 191.5 307.061 191.5V192.5C306.685 192.5 306.314 192.476 305.951 192.428L306.08 191.437ZM307.061 191.5H308.303V192.5H307.061V191.5ZM310.788 191.5H313.273V192.5H310.788V191.5ZM315.758 191.5H317V192.5H315.758V191.5Z" fill="#9372FF"/>
<path d="M274 119.5C273.724 119.5 273.5 119.724 273.5 120C273.5 120.276 273.724 120.5 274 120.5L274 119.5ZM319.887 120L317 117.113L314.113 120L317 122.887L319.887 120ZM274.977 120.5C275.253 120.5 275.477 120.276 275.477 120C275.477 119.724 275.253 119.5 274.977 119.5L274.977 120.5ZM276.932 119.5C276.656 119.5 276.432 119.724 276.432 120C276.432 120.276 276.656 120.5 276.932 120.5L276.932 119.5ZM278.886 120.5C279.163 120.5 279.386 120.276 279.386 120C279.386 119.724 279.163 119.5 278.886 119.5L278.886 120.5ZM280.841 119.5C280.565 119.5 280.341 119.724 280.341 120C280.341 120.276 280.565 120.5 280.841 120.5L280.841 119.5ZM282.795 120.5C283.072 120.5 283.295 120.276 283.295 120C283.295 119.724 283.072 119.5 282.795 119.5L282.795 120.5ZM284.75 119.5C284.474 119.5 284.25 119.724 284.25 120C284.25 120.276 284.474 120.5 284.75 120.5L284.75 119.5ZM286.705 120.5C286.981 120.5 287.205 120.276 287.205 120C287.205 119.724 286.981 119.5 286.705 119.5L286.705 120.5ZM288.659 119.5C288.383 119.5 288.159 119.724 288.159 120C288.159 120.276 288.383 120.5 288.659 120.5L288.659 119.5ZM290.614 120.5C290.89 120.5 291.114 120.276 291.114 120C291.114 119.724 290.89 119.5 290.614 119.5L290.614 120.5ZM292.568 119.5C292.292 119.5 292.068 119.724 292.068 120C292.068 120.276 292.292 120.5 292.568 120.5L292.568 119.5ZM294.523 120.5C294.799 120.5 295.023 120.276 295.023 120C295.023 119.724 294.799 119.5 294.523 119.5L294.523 120.5ZM296.477 119.5C296.201 119.5 295.977 119.724 295.977 120C295.977 120.276 296.201 120.5 296.477 120.5L296.477 119.5ZM298.432 120.5C298.708 120.5 298.932 120.276 298.932 120C298.932 119.724 298.708 119.5 298.432 119.5L298.432 120.5ZM300.386 119.5C300.11 119.5 299.886 119.724 299.886 120C299.886 120.276 300.11 120.5 300.386 120.5L300.386 119.5ZM302.341 120.5C302.617 120.5 302.841 120.276 302.841 120C302.841 119.724 302.617 119.5 302.341 119.5L302.341 120.5ZM304.295 119.5C304.019 119.5 303.795 119.724 303.795 120C303.795 120.276 304.019 120.5 304.295 120.5L304.295 119.5ZM306.25 120.5C306.526 120.5 306.75 120.276 306.75 120C306.75 119.724 306.526 119.5 306.25 119.5L306.25 120.5ZM308.205 119.5C307.928 119.5 307.705 119.724 307.705 120C307.705 120.276 307.928 120.5 308.205 120.5L308.205 119.5ZM310.159 120.5C310.435 120.5 310.659 120.276 310.659 120C310.659 119.724 310.435 119.5 310.159 119.5L310.159 120.5ZM312.114 119.5C311.837 119.5 311.614 119.724 311.614 120C311.614 120.276 311.837 120.5 312.114 120.5L312.114 119.5ZM314.068 120.5C314.344 120.5 314.568 120.276 314.568 120C314.568 119.724 314.344 119.5 314.068 119.5L314.068 120.5ZM316.023 119.5C315.747 119.5 315.523 119.724 315.523 120C315.523 120.276 315.747 120.5 316.023 120.5L316.023 119.5ZM274 120.5L274.977 120.5L274.977 119.5L274 119.5L274 120.5ZM276.932 120.5L278.886 120.5L278.886 119.5L276.932 119.5L276.932 120.5ZM280.841 120.5L282.795 120.5L282.795 119.5L280.841 119.5L280.841 120.5ZM284.75 120.5L286.705 120.5L286.705 119.5L284.75 119.5L284.75 120.5ZM288.659 120.5L290.614 120.5L290.614 119.5L288.659 119.5L288.659 120.5ZM292.568 120.5L294.523 120.5L294.523 119.5L292.568 119.5L292.568 120.5ZM296.477 120.5L298.432 120.5L298.432 119.5L296.477 119.5L296.477 120.5ZM300.386 120.5L302.341 120.5L302.341 119.5L300.386 119.5L300.386 120.5ZM304.295 120.5L306.25 120.5L306.25 119.5L304.295 119.5L304.295 120.5ZM308.205 120.5L310.159 120.5L310.159 119.5L308.205 119.5L308.205 120.5ZM312.114 120.5L314.068 120.5L314.068 119.5L312.114 119.5L312.114 120.5ZM316.023 120.5L317 120.5L317 119.5L316.023 119.5L316.023 120.5Z" fill="#9372FF"/>
<rect x="165" y="102" width="109" height="36" rx="8" fill="white"/>
<rect x="173" y="110" width="20" height="20" rx="4" fill="#635BFF"/>
<path fill-rule="evenodd" clip-rule="evenodd" d="M182.31 117.574C182.31 117.059 182.729 116.862 183.422 116.862C184.416 116.862 185.672 117.165 186.667 117.705V114.607C185.581 114.171 184.508 114 183.422 114C180.766 114 179 115.398 179 117.732C179 121.371 183.972 120.791 183.972 122.36C183.972 122.967 183.448 123.165 182.716 123.165C181.63 123.165 180.243 122.716 179.144 122.11V125.248C180.361 125.776 181.59 126 182.716 126C185.437 126 187.308 124.642 187.308 122.281C187.295 118.352 182.31 119.051 182.31 117.574Z" fill="white"/>
<path d="M202.409 125.5V113.864H206.477C207.288 113.864 207.956 114.004 208.483 114.284C209.009 114.561 209.402 114.934 209.659 115.403C209.917 115.869 210.045 116.386 210.045 116.955C210.045 117.455 209.956 117.867 209.778 118.193C209.604 118.519 209.373 118.777 209.085 118.966C208.801 119.155 208.492 119.295 208.159 119.386V119.5C208.515 119.523 208.873 119.648 209.233 119.875C209.593 120.102 209.894 120.428 210.136 120.852C210.379 121.277 210.5 121.795 210.5 122.409C210.5 122.992 210.367 123.517 210.102 123.983C209.837 124.449 209.419 124.818 208.847 125.091C208.275 125.364 207.53 125.5 206.614 125.5H202.409ZM203.818 124.25H206.614C207.534 124.25 208.188 124.072 208.574 123.716C208.964 123.356 209.159 122.92 209.159 122.409C209.159 122.015 209.059 121.652 208.858 121.318C208.657 120.981 208.371 120.712 208 120.511C207.629 120.307 207.189 120.205 206.682 120.205H203.818V124.25ZM203.818 118.977H206.432C206.856 118.977 207.239 118.894 207.58 118.727C207.924 118.561 208.197 118.326 208.398 118.023C208.602 117.72 208.705 117.364 208.705 116.955C208.705 116.443 208.527 116.009 208.17 115.653C207.814 115.294 207.25 115.114 206.477 115.114H203.818V118.977ZM218.134 121.932V116.773H219.474V125.5H218.134V124.023H218.043C217.838 124.466 217.52 124.843 217.088 125.153C216.656 125.46 216.111 125.614 215.452 125.614C214.906 125.614 214.421 125.494 213.997 125.256C213.573 125.013 213.24 124.65 212.997 124.165C212.755 123.676 212.634 123.061 212.634 122.318V116.773H213.974V122.227C213.974 122.864 214.152 123.371 214.509 123.75C214.868 124.129 215.327 124.318 215.884 124.318C216.217 124.318 216.556 124.233 216.901 124.062C217.249 123.892 217.541 123.631 217.776 123.278C218.014 122.926 218.134 122.477 218.134 121.932ZM222.794 128.773C222.567 128.773 222.364 128.754 222.186 128.716C222.008 128.682 221.885 128.648 221.817 128.614L222.158 127.432C222.483 127.515 222.771 127.545 223.021 127.523C223.271 127.5 223.493 127.388 223.686 127.188C223.883 126.991 224.063 126.67 224.226 126.227L224.476 125.545L221.249 116.773H222.703L225.112 123.727H225.203L227.612 116.773H229.067L225.362 126.773C225.196 127.223 224.989 127.597 224.743 127.892C224.497 128.191 224.211 128.413 223.885 128.557C223.563 128.701 223.199 128.773 222.794 128.773ZM236.678 120.25V125.5H235.337V116.773H236.632V118.136H236.746C236.95 117.693 237.261 117.337 237.678 117.068C238.094 116.795 238.632 116.659 239.291 116.659C239.882 116.659 240.399 116.78 240.842 117.023C241.286 117.261 241.63 117.625 241.876 118.114C242.123 118.598 242.246 119.212 242.246 119.955V125.5H240.905V120.045C240.905 119.36 240.727 118.826 240.371 118.443C240.015 118.057 239.526 117.864 238.905 117.864C238.477 117.864 238.094 117.956 237.757 118.142C237.424 118.328 237.161 118.598 236.967 118.955C236.774 119.311 236.678 119.742 236.678 120.25ZM248.241 125.682C247.454 125.682 246.762 125.494 246.168 125.119C245.577 124.744 245.115 124.22 244.781 123.545C244.452 122.871 244.287 122.083 244.287 121.182C244.287 120.273 244.452 119.479 244.781 118.801C245.115 118.123 245.577 117.597 246.168 117.222C246.762 116.847 247.454 116.659 248.241 116.659C249.029 116.659 249.719 116.847 250.31 117.222C250.904 117.597 251.366 118.123 251.696 118.801C252.029 119.479 252.196 120.273 252.196 121.182C252.196 122.083 252.029 122.871 251.696 123.545C251.366 124.22 250.904 124.744 250.31 125.119C249.719 125.494 249.029 125.682 248.241 125.682ZM248.241 124.477C248.84 124.477 249.332 124.324 249.719 124.017C250.105 123.71 250.391 123.307 250.577 122.807C250.762 122.307 250.855 121.765 250.855 121.182C250.855 120.598 250.762 120.055 250.577 119.551C250.391 119.047 250.105 118.64 249.719 118.33C249.332 118.019 248.84 117.864 248.241 117.864C247.643 117.864 247.151 118.019 246.764 118.33C246.378 118.64 246.092 119.047 245.906 119.551C245.721 120.055 245.628 120.598 245.628 121.182C245.628 121.765 245.721 122.307 245.906 122.807C246.092 123.307 246.378 123.71 246.764 124.017C247.151 124.324 247.643 124.477 248.241 124.477ZM255.923 125.5L253.264 116.773H254.673L256.56 123.455H256.651L258.514 116.773H259.946L261.787 123.432H261.878L263.764 116.773H265.173L262.514 125.5H261.196L259.287 118.795H259.151L257.241 125.5H255.923Z" fill="#635BFF"/>
<g filter="url(#filter1_d_1_170)">
<path d="M317 112C317 107.582 320.582 104 325 104H410C414.418 104 418 107.582 418 112V128C418 132.418 414.418 136 410 136H325C320.582 136 317 132.418 317 128V112Z" fill="white" shape-rendering="crispEdges"/>
<g clip-path="url(#clip1_1_170)">
<mask id="mask1_1_170" style="mask-type:luminance" maskUnits="userSpaceOnUse" x="325" y="112" width="24" height="16">
<rect x="325" y="112" width="24" height="16" fill="white"/>
</mask>
<g mask="url(#mask1_1_170)">
<path fill-rule="evenodd" clip-rule="evenodd" d="M325 112V128H349V112H325Z" fill="#009933"/>
<mask id="mask2_1_170" style="mask-type:luminance" maskUnits="userSpaceOnUse" x="325" y="112" width="24" height="16">
<path fill-rule="evenodd" clip-rule="evenodd" d="M325 112V128H349V112H325Z" fill="white"/>
</mask>
<g mask="url(#mask2_1_170)">
<g filter="url(#filter2_d_1_170)">
<path fill-rule="evenodd" clip-rule="evenodd" d="M336.945 114.469L346.096 120.138L336.821 125.448L327.857 120.028L336.945 114.469Z" fill="#FFD221"/>
<path fill-rule="evenodd" clip-rule="evenodd" d="M336.945 114.469L346.096 120.138L336.821 125.448L327.857 120.028L336.945 114.469Z" fill="url(#paint0_linear_1_170)"/>
</g>
<path fill-rule="evenodd" clip-rule="evenodd" d="M337 123.467C339.071 123.467 340.75 121.974 340.75 120.133C340.75 118.292 339.071 116.8 337 116.8C334.929 116.8 333.25 118.292 333.25 120.133C333.25 121.974 334.929 123.467 337 123.467Z" fill="#2E42A5"/>
<mask id="mask3_1_170" style="mask-type:luminance" maskUnits="userSpaceOnUse" x="333" y="116" width="8" height="8">
<path fill-rule="evenodd" clip-rule="evenodd" d="M337 123.467C339.071 123.467 340.75 121.974 340.75 120.133C340.75 118.292 339.071 116.8 337 116.8C334.929 116.8 333.25 118.292 333.25 120.133C333.25 121.974 334.929 123.467 337 123.467Z" fill="white"/>
</mask>
<g mask="url(#mask3_1_170)">
<path fill-rule="evenodd" clip-rule="evenodd" d="M335.785 121.713L335.617 121.792L335.649 121.626L335.514 121.508L335.701 121.484L335.785 121.333L335.869 121.484L336.056 121.508L335.921 121.626L335.953 121.792L335.785 121.713Z" fill="#F7FCFF"/>
<path fill-rule="evenodd" clip-rule="evenodd" d="M337.285 121.713L337.117 121.792L337.149 121.626L337.014 121.508L337.201 121.484L337.285 121.333L337.369 121.484L337.556 121.508L337.421 121.626L337.453 121.792L337.285 121.713Z" fill="#F7FCFF"/>
<path fill-rule="evenodd" clip-rule="evenodd" d="M337.285 122.513L337.117 122.592L337.149 122.426L337.014 122.308L337.201 122.284L337.285 122.133L337.369 122.284L337.556 122.308L337.421 122.426L337.453 122.592L337.285 122.513Z" fill="#F7FCFF"/>
<path fill-rule="evenodd" clip-rule="evenodd" d="M336.535 119.713L336.367 119.792L336.399 119.626L336.264 119.508L336.451 119.484L336.535 119.333L336.619 119.484L336.806 119.508L336.671 119.626L336.703 119.792L336.535 119.713Z" fill="#F7FCFF"/>
<path fill-rule="evenodd" clip-rule="evenodd" d="M336.535 121.047L336.367 121.125L336.399 120.959L336.264 120.842L336.451 120.818L336.535 120.667L336.619 120.818L336.806 120.842L336.671 120.959L336.703 121.125L336.535 121.047Z" fill="#F7FCFF"/>
<path fill-rule="evenodd" clip-rule="evenodd" d="M335.485 120.38L335.317 120.458L335.349 120.292L335.214 120.175L335.401 120.151L335.485 120L335.569 120.151L335.756 120.175L335.62 120.292L335.652 120.458L335.485 120.38Z" fill="#F7FCFF"/>
<path fill-rule="evenodd" clip-rule="evenodd" d="M334.435 120.913L334.267 120.992L334.299 120.826L334.164 120.708L334.351 120.684L334.435 120.533L334.519 120.684L334.706 120.708L334.57 120.826L334.602 120.992L334.435 120.913Z" fill="#F7FCFF"/>
<path fill-rule="evenodd" clip-rule="evenodd" d="M337.885 118.647L337.718 118.725L337.75 118.559L337.614 118.442L337.801 118.418L337.885 118.267L337.969 118.418L338.156 118.442L338.021 118.559L338.053 118.725L337.885 118.647Z" fill="#F7FCFF"/>
<path d="M332.444 119.331L332.556 118.002C336.155 118.243 338.995 119.295 341.041 121.166L339.966 122.095C338.192 120.474 335.697 119.549 332.444 119.331Z" fill="#F7FCFF"/>
</g>
</g>
</g>
</g>
<path d="M363.9 121.696C363.9 122.352 363.672 122.9 363.216 123.34C362.768 123.78 362.128 124.036 361.296 124.108L361.284 125.512H360.444L360.456 124.12C359.984 124.088 359.528 124.016 359.088 123.904C358.656 123.792 358.336 123.688 358.128 123.592L358.212 121.54H358.968L359.22 123.028C359.58 123.332 360.128 123.484 360.864 123.484C361.448 123.484 361.888 123.356 362.184 123.1C362.488 122.844 362.64 122.468 362.64 121.972C362.64 121.684 362.552 121.432 362.376 121.216C362.208 120.992 361.988 120.796 361.716 120.628C361.452 120.46 361.088 120.256 360.624 120.016C360.576 119.984 360.504 119.944 360.408 119.896C359.912 119.64 359.512 119.396 359.208 119.164C358.904 118.932 358.664 118.656 358.488 118.336C358.312 118.008 358.224 117.62 358.224 117.172C358.224 116.588 358.444 116.1 358.884 115.708C359.332 115.316 359.908 115.08 360.612 115V113.68H361.464V114.988C362.104 115.02 362.752 115.168 363.408 115.432L363.348 117.352H362.616L362.34 115.96C362.22 115.856 362.056 115.772 361.848 115.708C361.648 115.644 361.412 115.612 361.14 115.612C360.644 115.612 360.236 115.724 359.916 115.948C359.596 116.164 359.436 116.496 359.436 116.944C359.436 117.256 359.524 117.528 359.7 117.76C359.876 117.992 360.08 118.184 360.312 118.336C360.552 118.48 360.904 118.676 361.368 118.924C362.024 119.292 362.508 119.584 362.82 119.8C363.132 120.008 363.388 120.268 363.588 120.58C363.796 120.884 363.9 121.256 363.9 121.696ZM368.882 116.416C369.554 116.416 370.122 116.572 370.586 116.884C371.05 117.188 371.394 117.608 371.618 118.144C371.85 118.68 371.966 119.284 371.966 119.956C371.966 121.012 371.742 121.976 371.294 122.848C370.846 123.72 370.258 124.428 369.53 124.972C368.81 125.524 368.046 125.868 367.238 126.004L366.962 125.476C367.89 125.172 368.646 124.68 369.23 124C369.814 123.32 370.21 122.528 370.418 121.624C370.218 121.856 369.946 122.056 369.602 122.224C369.258 122.384 368.886 122.464 368.486 122.464C367.934 122.464 367.45 122.348 367.034 122.116C366.626 121.876 366.31 121.54 366.086 121.108C365.862 120.668 365.75 120.16 365.75 119.584C365.75 119.016 365.874 118.492 366.122 118.012C366.378 117.532 366.742 117.148 367.214 116.86C367.686 116.564 368.242 116.416 368.882 116.416ZM368.738 121.732C369.17 121.732 369.554 121.632 369.89 121.432C370.226 121.224 370.45 121.004 370.562 120.772L370.598 120.22C370.598 119.244 370.466 118.468 370.202 117.892C369.946 117.316 369.478 117.028 368.798 117.028C368.43 117.028 368.114 117.14 367.85 117.364C367.594 117.58 367.402 117.864 367.274 118.216C367.146 118.568 367.082 118.94 367.082 119.332C367.082 120.156 367.23 120.764 367.526 121.156C367.83 121.54 368.234 121.732 368.738 121.732ZM376.804 116.416C377.476 116.416 378.044 116.572 378.508 116.884C378.972 117.188 379.316 117.608 379.54 118.144C379.772 118.68 379.888 119.284 379.888 119.956C379.888 121.012 379.664 121.976 379.216 122.848C378.768 123.72 378.18 124.428 377.452 124.972C376.732 125.524 375.968 125.868 375.16 126.004L374.884 125.476C375.812 125.172 376.568 124.68 377.152 124C377.736 123.32 378.132 122.528 378.34 121.624C378.14 121.856 377.868 122.056 377.524 122.224C377.18 122.384 376.808 122.464 376.408 122.464C375.856 122.464 375.372 122.348 374.956 122.116C374.548 121.876 374.232 121.54 374.008 121.108C373.784 120.668 373.672 120.16 373.672 119.584C373.672 119.016 373.796 118.492 374.044 118.012C374.3 117.532 374.664 117.148 375.136 116.86C375.608 116.564 376.164 116.416 376.804 116.416ZM376.66 121.732C377.092 121.732 377.476 121.632 377.812 121.432C378.148 121.224 378.372 121.004 378.484 120.772L378.52 120.22C378.52 119.244 378.388 118.468 378.124 117.892C377.868 117.316 377.4 117.028 376.72 117.028C376.352 117.028 376.036 117.14 375.772 117.364C375.516 117.58 375.324 117.864 375.196 118.216C375.068 118.568 375.004 118.94 375.004 119.332C375.004 120.156 375.152 120.764 375.448 121.156C375.752 121.54 376.156 121.732 376.66 121.732Z" fill="#4A5568"/>
<path d="M357 120.004H380.752V120.604H357V120.004Z" fill="#4A5568"/>
<path d="M393.9 121.696C393.9 122.352 393.672 122.9 393.216 123.34C392.768 123.78 392.128 124.036 391.296 124.108L391.284 125.512H390.444L390.456 124.12C389.984 124.088 389.528 124.016 389.088 123.904C388.656 123.792 388.336 123.688 388.128 123.592L388.212 121.54H388.968L389.22 123.028C389.58 123.332 390.128 123.484 390.864 123.484C391.448 123.484 391.888 123.356 392.184 123.1C392.488 122.844 392.64 122.468 392.64 121.972C392.64 121.684 392.552 121.432 392.376 121.216C392.208 120.992 391.988 120.796 391.716 120.628C391.452 120.46 391.088 120.256 390.624 120.016C390.576 119.984 390.504 119.944 390.408 119.896C389.912 119.64 389.512 119.396 389.208 119.164C388.904 118.932 388.664 118.656 388.488 118.336C388.312 118.008 388.224 117.62 388.224 117.172C388.224 116.588 388.444 116.1 388.884 115.708C389.332 115.316 389.908 115.08 390.612 115V113.68H391.464V114.988C392.104 115.02 392.752 115.168 393.408 115.432L393.348 117.352H392.616L392.34 115.96C392.22 115.856 392.056 115.772 391.848 115.708C391.648 115.644 391.412 115.612 391.14 115.612C390.644 115.612 390.236 115.724 389.916 115.948C389.596 116.164 389.436 116.496 389.436 116.944C389.436 117.256 389.524 117.528 389.7 117.76C389.876 117.992 390.08 118.184 390.312 118.336C390.552 118.48 390.904 118.676 391.368 118.924C392.024 119.292 392.508 119.584 392.82 119.8C393.132 120.008 393.388 120.268 393.588 120.58C393.796 120.884 393.9 121.256 393.9 121.696ZM396.038 125.272C396.262 125.296 396.502 125.308 396.758 125.308C397.326 125.308 397.846 125.192 398.318 124.96C398.79 124.728 399.162 124.408 399.434 124C399.706 123.592 399.842 123.128 399.842 122.608C399.842 121.32 399.246 120.676 398.054 120.676C397.79 120.676 397.494 120.716 397.166 120.796C396.846 120.868 396.566 120.956 396.326 121.06L396.002 120.832L396.59 116.512H400.01L400.13 116.284H400.874L400.658 117.52H397.478L396.926 120.316C397.142 120.204 397.418 120.104 397.754 120.016C398.09 119.928 398.426 119.884 398.762 119.884C399.53 119.884 400.134 120.1 400.574 120.532C401.014 120.964 401.234 121.592 401.234 122.416C401.234 123.048 401.05 123.632 400.682 124.168C400.322 124.704 399.81 125.132 399.146 125.452C398.482 125.772 397.726 125.932 396.878 125.932C396.534 125.932 396.254 125.904 396.038 125.848V125.272ZM406.007 116.416C406.679 116.416 407.247 116.572 407.711 116.884C408.175 117.188 408.519 117.608 408.743 118.144C408.975 118.68 409.091 119.284 409.091 119.956C409.091 121.012 408.867 121.976 408.419 122.848C407.971 123.72 407.383 124.428 406.655 124.972C405.935 125.524 405.171 125.868 404.363 126.004L404.087 125.476C405.015 125.172 405.771 124.68 406.355 124C406.939 123.32 407.335 122.528 407.543 121.624C407.343 121.856 407.071 122.056 406.727 122.224C406.383 122.384 406.011 122.464 405.611 122.464C405.059 122.464 404.575 122.348 404.159 122.116C403.751 121.876 403.435 121.54 403.211 121.108C402.987 120.668 402.875 120.16 402.875 119.584C402.875 119.016 402.999 118.492 403.247 118.012C403.503 117.532 403.867 117.148 404.339 116.86C404.811 116.564 405.367 116.416 406.007 116.416ZM405.863 121.732C406.295 121.732 406.679 121.632 407.015 121.432C407.351 121.224 407.575 121.004 407.687 120.772L407.723 120.22C407.723 119.244 407.591 118.468 407.327 117.892C407.071 117.316 406.603 117.028 405.923 117.028C405.555 117.028 405.239 117.14 404.975 117.364C404.719 117.58 404.527 117.864 404.399 118.216C404.271 118.568 404.207 118.94 404.207 119.332C404.207 120.156 404.355 120.764 404.651 121.156C404.955 121.54 405.359 121.732 405.863 121.732Z" fill="#635BFF"/>
</g>
<g filter="url(#filter3_d_1_170)">
<path d="M317 184C317 179.582 320.582 176 325 176H411C415.418 176 419 179.582 419 184V200C419 204.418 415.418 208 411 208H325C320.582 208 317 204.418 317 200V184Z" fill="white" shape-rendering="crispEdges"/>
<g clip-path="url(#clip2_1_170)">
<mask id="mask4_1_170" style="mask-type:luminance" maskUnits="userSpaceOnUse" x="325" y="184" width="24" height="16">
<rect x="325" y="184" width="24" height="16" fill="white"/>
</mask>
<g mask="url(#mask4_1_170)">
<path fill-rule="evenodd" clip-rule="evenodd" d="M325 184H349V200H325V184Z" fill="#F7FCFF"/>
<path fill-rule="evenodd" clip-rule="evenodd" d="M325 184V189.333H349V184H325Z" fill="#5EAA22"/>
<path fill-rule="evenodd" clip-rule="evenodd" d="M325 194.667V200H349V194.667H325Z" fill="#272727"/>
<rect x="325" y="184" width="7.2" height="16" fill="#E31D1C"/>
</g>
</g>
<path d="M363.9 193.696C363.9 194.352 363.672 194.9 363.216 195.34C362.768 195.78 362.128 196.036 361.296 196.108L361.284 197.512H360.444L360.456 196.12C359.984 196.088 359.528 196.016 359.088 195.904C358.656 195.792 358.336 195.688 358.128 195.592L358.212 193.54H358.968L359.22 195.028C359.58 195.332 360.128 195.484 360.864 195.484C361.448 195.484 361.888 195.356 362.184 195.1C362.488 194.844 362.64 194.468 362.64 193.972C362.64 193.684 362.552 193.432 362.376 193.216C362.208 192.992 361.988 192.796 361.716 192.628C361.452 192.46 361.088 192.256 360.624 192.016C360.576 191.984 360.504 191.944 360.408 191.896C359.912 191.64 359.512 191.396 359.208 191.164C358.904 190.932 358.664 190.656 358.488 190.336C358.312 190.008 358.224 189.62 358.224 189.172C358.224 188.588 358.444 188.1 358.884 187.708C359.332 187.316 359.908 187.08 360.612 187V185.68H361.464V186.988C362.104 187.02 362.752 187.168 363.408 187.432L363.348 189.352H362.616L362.34 187.96C362.22 187.856 362.056 187.772 361.848 187.708C361.648 187.644 361.412 187.612 361.14 187.612C360.644 187.612 360.236 187.724 359.916 187.948C359.596 188.164 359.436 188.496 359.436 188.944C359.436 189.256 359.524 189.528 359.7 189.76C359.876 189.992 360.08 190.184 360.312 190.336C360.552 190.48 360.904 190.676 361.368 190.924C362.024 191.292 362.508 191.584 362.82 191.8C363.132 192.008 363.388 192.268 363.588 192.58C363.796 192.884 363.9 193.256 363.9 193.696ZM368.882 188.416C369.554 188.416 370.122 188.572 370.586 188.884C371.05 189.188 371.394 189.608 371.618 190.144C371.85 190.68 371.966 191.284 371.966 191.956C371.966 193.012 371.742 193.976 371.294 194.848C370.846 195.72 370.258 196.428 369.53 196.972C368.81 197.524 368.046 197.868 367.238 198.004L366.962 197.476C367.89 197.172 368.646 196.68 369.23 196C369.814 195.32 370.21 194.528 370.418 193.624C370.218 193.856 369.946 194.056 369.602 194.224C369.258 194.384 368.886 194.464 368.486 194.464C367.934 194.464 367.45 194.348 367.034 194.116C366.626 193.876 366.31 193.54 366.086 193.108C365.862 192.668 365.75 192.16 365.75 191.584C365.75 191.016 365.874 190.492 366.122 190.012C366.378 189.532 366.742 189.148 367.214 188.86C367.686 188.564 368.242 188.416 368.882 188.416ZM368.738 193.732C369.17 193.732 369.554 193.632 369.89 193.432C370.226 193.224 370.45 193.004 370.562 192.772L370.598 192.22C370.598 191.244 370.466 190.468 370.202 189.892C369.946 189.316 369.478 189.028 368.798 189.028C368.43 189.028 368.114 189.14 367.85 189.364C367.594 189.58 367.402 189.864 367.274 190.216C367.146 190.568 367.082 190.94 367.082 191.332C367.082 192.156 367.23 192.764 367.526 193.156C367.83 193.54 368.234 193.732 368.738 193.732ZM376.804 188.416C377.476 188.416 378.044 188.572 378.508 188.884C378.972 189.188 379.316 189.608 379.54 190.144C379.772 190.68 379.888 191.284 379.888 191.956C379.888 193.012 379.664 193.976 379.216 194.848C378.768 195.72 378.18 196.428 377.452 196.972C376.732 197.524 375.968 197.868 375.16 198.004L374.884 197.476C375.812 197.172 376.568 196.68 377.152 196C377.736 195.32 378.132 194.528 378.34 193.624C378.14 193.856 377.868 194.056 377.524 194.224C377.18 194.384 376.808 194.464 376.408 194.464C375.856 194.464 375.372 194.348 374.956 194.116C374.548 193.876 374.232 193.54 374.008 193.108C373.784 192.668 373.672 192.16 373.672 191.584C373.672 191.016 373.796 190.492 374.044 190.012C374.3 189.532 374.664 189.148 375.136 188.86C375.608 188.564 376.164 188.416 376.804 188.416ZM376.66 193.732C377.092 193.732 377.476 193.632 377.812 193.432C378.148 193.224 378.372 193.004 378.484 192.772L378.52 192.22C378.52 191.244 378.388 190.468 378.124 189.892C377.868 189.316 377.4 189.028 376.72 189.028C376.352 189.028 376.036 189.14 375.772 189.364C375.516 189.58 375.324 189.864 375.196 190.216C375.068 190.568 375.004 190.94 375.004 191.332C375.004 192.156 375.152 192.764 375.448 193.156C375.752 193.54 376.156 193.732 376.66 193.732Z" fill="#4A5568"/>
<path d="M357 192.004H380.752V192.604H357V192.004Z" fill="#4A5568"/>
<path d="M393.9 193.696C393.9 194.352 393.672 194.9 393.216 195.34C392.768 195.78 392.128 196.036 391.296 196.108L391.284 197.512H390.444L390.456 196.12C389.984 196.088 389.528 196.016 389.088 195.904C388.656 195.792 388.336 195.688 388.128 195.592L388.212 193.54H388.968L389.22 195.028C389.58 195.332 390.128 195.484 390.864 195.484C391.448 195.484 391.888 195.356 392.184 195.1C392.488 194.844 392.64 194.468 392.64 193.972C392.64 193.684 392.552 193.432 392.376 193.216C392.208 192.992 391.988 192.796 391.716 192.628C391.452 192.46 391.088 192.256 390.624 192.016C390.576 191.984 390.504 191.944 390.408 191.896C389.912 191.64 389.512 191.396 389.208 191.164C388.904 190.932 388.664 190.656 388.488 190.336C388.312 190.008 388.224 189.62 388.224 189.172C388.224 188.588 388.444 188.1 388.884 187.708C389.332 187.316 389.908 187.08 390.612 187V185.68H391.464V186.988C392.104 187.02 392.752 187.168 393.408 187.432L393.348 189.352H392.616L392.34 187.96C392.22 187.856 392.056 187.772 391.848 187.708C391.648 187.644 391.412 187.612 391.14 187.612C390.644 187.612 390.236 187.724 389.916 187.948C389.596 188.164 389.436 188.496 389.436 188.944C389.436 189.256 389.524 189.528 389.7 189.76C389.876 189.992 390.08 190.184 390.312 190.336C390.552 190.48 390.904 190.676 391.368 190.924C392.024 191.292 392.508 191.584 392.82 191.8C393.132 192.008 393.388 192.268 393.588 192.58C393.796 192.884 393.9 193.256 393.9 193.696ZM398.93 196.132C398.282 196.132 397.722 195.972 397.25 195.652C396.786 195.324 396.43 194.884 396.182 194.332C395.942 193.772 395.822 193.152 395.822 192.472C395.822 191.464 396.066 190.536 396.554 189.688C397.042 188.832 397.666 188.132 398.426 187.588C399.194 187.036 399.978 186.696 400.778 186.568L401.054 187.084C400.118 187.38 399.33 187.876 398.69 188.572C398.05 189.26 397.614 190.044 397.382 190.924C397.582 190.692 397.858 190.496 398.21 190.336C398.562 190.168 398.97 190.084 399.434 190.084C400.266 190.084 400.902 190.328 401.342 190.816C401.79 191.304 402.014 191.98 402.014 192.844C402.014 193.428 401.89 193.972 401.642 194.476C401.402 194.972 401.046 195.372 400.574 195.676C400.11 195.98 399.562 196.132 398.93 196.132ZM399.074 190.828C398.642 190.828 398.258 190.928 397.922 191.128C397.586 191.32 397.354 191.528 397.226 191.752C397.21 191.944 397.202 192.1 397.202 192.22C397.178 193.188 397.306 193.98 397.586 194.596C397.866 195.212 398.338 195.52 399.002 195.52C399.37 195.52 399.682 195.408 399.938 195.184C400.194 194.952 400.382 194.652 400.502 194.284C400.63 193.916 400.694 193.528 400.694 193.12C400.694 192.328 400.546 191.748 400.25 191.38C399.962 191.012 399.57 190.828 399.074 190.828ZM406.851 188.416C407.523 188.416 408.091 188.572 408.555 188.884C409.019 189.188 409.363 189.608 409.587 190.144C409.819 190.68 409.935 191.284 409.935 191.956C409.935 193.012 409.711 193.976 409.263 194.848C408.815 195.72 408.227 196.428 407.499 196.972C406.779 197.524 406.015 197.868 405.207 198.004L404.931 197.476C405.859 197.172 406.615 196.68 407.199 196C407.783 195.32 408.179 194.528 408.387 193.624C408.187 193.856 407.915 194.056 407.571 194.224C407.227 194.384 406.855 194.464 406.455 194.464C405.903 194.464 405.419 194.348 405.003 194.116C404.595 193.876 404.279 193.54 404.055 193.108C403.831 192.668 403.719 192.16 403.719 191.584C403.719 191.016 403.843 190.492 404.091 190.012C404.347 189.532 404.711 189.148 405.183 188.86C405.655 188.564 406.211 188.416 406.851 188.416ZM406.707 193.732C407.139 193.732 407.523 193.632 407.859 193.432C408.195 193.224 408.419 193.004 408.531 192.772L408.567 192.22C408.567 191.244 408.435 190.468 408.171 189.892C407.915 189.316 407.447 189.028 406.767 189.028C406.399 189.028 406.083 189.14 405.819 189.364C405.563 189.58 405.371 189.864 405.243 190.216C405.115 190.568 405.051 190.94 405.051 191.332C405.051 192.156 405.199 192.764 405.495 193.156C405.799 193.54 406.203 193.732 406.707 193.732Z" fill="#635BFF"/>
</g>
<g filter="url(#filter4_d_1_170)">
<rect x="317" y="32" width="101" height="32" rx="8" fill="white" shape-rendering="crispEdges"/>
<g clip-path="url(#clip3_1_170)">
<mask id="mask5_1_170" style="mask-type:luminance" maskUnits="userSpaceOnUse" x="325" y="40" width="24" height="16">
<rect x="325" y="40" width="24" height="16" fill="white"/>
</mask>
<g mask="url(#mask5_1_170)">
<path fill-rule="evenodd" clip-rule="evenodd" d="M325 40V56H349V40H325Z" fill="#F7FCFF"/>
<mask id="mask6_1_170" style="mask-type:luminance" maskUnits="userSpaceOnUse" x="325" y="40" width="24" height="16">
<path fill-rule="evenodd" clip-rule="evenodd" d="M325 40V56H349V40H325Z" fill="white"/>
</mask>
<g mask="url(#mask6_1_170)">
<path fill-rule="evenodd" clip-rule="evenodd" d="M325 40V45.3333H349V40H325Z" fill="#FF8C1A"/>
<path fill-rule="evenodd" clip-rule="evenodd" d="M325 50.6667V56H349V50.6667H325Z" fill="#5EAA22"/>
<path fill-rule="evenodd" clip-rule="evenodd" d="M334 48C334 49.4728 335.343 50.6667 337 50.6667C338.657 50.6667 340 49.4728 340 48C340 46.5272 338.657 45.3333 337 45.3333C335.343 45.3333 334 46.5272 334 48ZM339.25 48C339.25 49.1046 338.243 50 337 50C335.757 50 334.75 49.1046 334.75 48C334.75 46.8954 335.757 46 337 46C338.243 46 339.25 46.8954 339.25 48Z" fill="#3D58DB"/>
<path fill-rule="evenodd" clip-rule="evenodd" d="M336.996 48.5738L336.37 50.623L336.737 48.5248L335.228 50.1707L336.522 48.3864L334.391 49.3444L336.39 48.1824L334.004 48.2869L336.362 47.9482L334.135 47.181L336.444 47.7241L334.76 46.2181L336.621 47.5491L335.772 45.5645L336.863 47.4533L336.996 45.3333L337.128 47.4533L338.219 45.5645L337.37 47.5491L339.231 46.2181L337.548 47.7241L339.857 47.181L337.63 47.9482L339.988 48.2869L337.602 48.1824L339.601 49.3444L337.469 48.3864L338.764 50.1707L337.255 48.5248L337.621 50.623L336.996 48.5738Z" fill="#3D58DB"/>
</g>
</g>
</g>
<path d="M363.9 49.696C363.9 50.352 363.672 50.9 363.216 51.34C362.768 51.78 362.128 52.036 361.296 52.108L361.284 53.512H360.444L360.456 52.12C359.984 52.088 359.528 52.016 359.088 51.904C358.656 51.792 358.336 51.688 358.128 51.592L358.212 49.54H358.968L359.22 51.028C359.58 51.332 360.128 51.484 360.864 51.484C361.448 51.484 361.888 51.356 362.184 51.1C362.488 50.844 362.64 50.468 362.64 49.972C362.64 49.684 362.552 49.432 362.376 49.216C362.208 48.992 361.988 48.796 361.716 48.628C361.452 48.46 361.088 48.256 360.624 48.016C360.576 47.984 360.504 47.944 360.408 47.896C359.912 47.64 359.512 47.396 359.208 47.164C358.904 46.932 358.664 46.656 358.488 46.336C358.312 46.008 358.224 45.62 358.224 45.172C358.224 44.588 358.444 44.1 358.884 43.708C359.332 43.316 359.908 43.08 360.612 43V41.68H361.464V42.988C362.104 43.02 362.752 43.168 363.408 43.432L363.348 45.352H362.616L362.34 43.96C362.22 43.856 362.056 43.772 361.848 43.708C361.648 43.644 361.412 43.612 361.14 43.612C360.644 43.612 360.236 43.724 359.916 43.948C359.596 44.164 359.436 44.496 359.436 44.944C359.436 45.256 359.524 45.528 359.7 45.76C359.876 45.992 360.08 46.184 360.312 46.336C360.552 46.48 360.904 46.676 361.368 46.924C362.024 47.292 362.508 47.584 362.82 47.8C363.132 48.008 363.388 48.268 363.588 48.58C363.796 48.884 363.9 49.256 363.9 49.696ZM368.882 44.416C369.554 44.416 370.122 44.572 370.586 44.884C371.05 45.188 371.394 45.608 371.618 46.144C371.85 46.68 371.966 47.284 371.966 47.956C371.966 49.012 371.742 49.976 371.294 50.848C370.846 51.72 370.258 52.428 369.53 52.972C368.81 53.524 368.046 53.868 367.238 54.004L366.962 53.476C367.89 53.172 368.646 52.68 369.23 52C369.814 51.32 370.21 50.528 370.418 49.624C370.218 49.856 369.946 50.056 369.602 50.224C369.258 50.384 368.886 50.464 368.486 50.464C367.934 50.464 367.45 50.348 367.034 50.116C366.626 49.876 366.31 49.54 366.086 49.108C365.862 48.668 365.75 48.16 365.75 47.584C365.75 47.016 365.874 46.492 366.122 46.012C366.378 45.532 366.742 45.148 367.214 44.86C367.686 44.564 368.242 44.416 368.882 44.416ZM368.738 49.732C369.17 49.732 369.554 49.632 369.89 49.432C370.226 49.224 370.45 49.004 370.562 48.772L370.598 48.22C370.598 47.244 370.466 46.468 370.202 45.892C369.946 45.316 369.478 45.028 368.798 45.028C368.43 45.028 368.114 45.14 367.85 45.364C367.594 45.58 367.402 45.864 367.274 46.216C367.146 46.568 367.082 46.94 367.082 47.332C367.082 48.156 367.23 48.764 367.526 49.156C367.83 49.54 368.234 49.732 368.738 49.732ZM376.804 44.416C377.476 44.416 378.044 44.572 378.508 44.884C378.972 45.188 379.316 45.608 379.54 46.144C379.772 46.68 379.888 47.284 379.888 47.956C379.888 49.012 379.664 49.976 379.216 50.848C378.768 51.72 378.18 52.428 377.452 52.972C376.732 53.524 375.968 53.868 375.16 54.004L374.884 53.476C375.812 53.172 376.568 52.68 377.152 52C377.736 51.32 378.132 50.528 378.34 49.624C378.14 49.856 377.868 50.056 377.524 50.224C377.18 50.384 376.808 50.464 376.408 50.464C375.856 50.464 375.372 50.348 374.956 50.116C374.548 49.876 374.232 49.54 374.008 49.108C373.784 48.668 373.672 48.16 373.672 47.584C373.672 47.016 373.796 46.492 374.044 46.012C374.3 45.532 374.664 45.148 375.136 44.86C375.608 44.564 376.164 44.416 376.804 44.416ZM376.66 49.732C377.092 49.732 377.476 49.632 377.812 49.432C378.148 49.224 378.372 49.004 378.484 48.772L378.52 48.22C378.52 47.244 378.388 46.468 378.124 45.892C377.868 45.316 377.4 45.028 376.72 45.028C376.352 45.028 376.036 45.14 375.772 45.364C375.516 45.58 375.324 45.864 375.196 46.216C375.068 46.568 375.004 46.94 375.004 47.332C375.004 48.156 375.152 48.764 375.448 49.156C375.752 49.54 376.156 49.732 376.66 49.732Z" fill="#4A5568"/>
<path d="M357 48.004H380.752V48.604H357V48.004Z" fill="#4A5568"/>
<path d="M393.9 49.696C393.9 50.352 393.672 50.9 393.216 51.34C392.768 51.78 392.128 52.036 391.296 52.108L391.284 53.512H390.444L390.456 52.12C389.984 52.088 389.528 52.016 389.088 51.904C388.656 51.792 388.336 51.688 388.128 51.592L388.212 49.54H388.968L389.22 51.028C389.58 51.332 390.128 51.484 390.864 51.484C391.448 51.484 391.888 51.356 392.184 51.1C392.488 50.844 392.64 50.468 392.64 49.972C392.64 49.684 392.552 49.432 392.376 49.216C392.208 48.992 391.988 48.796 391.716 48.628C391.452 48.46 391.088 48.256 390.624 48.016C390.576 47.984 390.504 47.944 390.408 47.896C389.912 47.64 389.512 47.396 389.208 47.164C388.904 46.932 388.664 46.656 388.488 46.336C388.312 46.008 388.224 45.62 388.224 45.172C388.224 44.588 388.444 44.1 388.884 43.708C389.332 43.316 389.908 43.08 390.612 43V41.68H391.464V42.988C392.104 43.02 392.752 43.168 393.408 43.432L393.348 45.352H392.616L392.34 43.96C392.22 43.856 392.056 43.772 391.848 43.708C391.648 43.644 391.412 43.612 391.14 43.612C390.644 43.612 390.236 43.724 389.916 43.948C389.596 44.164 389.436 44.496 389.436 44.944C389.436 45.256 389.524 45.528 389.7 45.76C389.876 45.992 390.08 46.184 390.312 46.336C390.552 46.48 390.904 46.676 391.368 46.924C392.024 47.292 392.508 47.584 392.82 47.8C393.132 48.008 393.388 48.268 393.588 48.58C393.796 48.884 393.9 49.256 393.9 49.696ZM396.794 53.932C396.61 53.932 396.406 53.916 396.182 53.884C395.958 53.86 395.77 53.828 395.618 53.788V53.104C395.882 53.184 396.198 53.224 396.566 53.224C397.198 53.224 397.742 53.124 398.198 52.924C398.662 52.724 399.014 52.452 399.254 52.108C399.502 51.764 399.626 51.388 399.626 50.98C399.626 50.436 399.458 50.016 399.122 49.72C398.794 49.416 398.286 49.26 397.598 49.252L397.226 49.348C396.962 49.428 396.834 49.464 396.842 49.456L396.638 48.82C396.974 48.756 397.29 48.66 397.586 48.532C398.082 48.324 398.482 48.048 398.786 47.704C399.09 47.352 399.242 46.98 399.242 46.588C399.242 46.132 399.106 45.8 398.834 45.592C398.57 45.376 398.23 45.268 397.814 45.268C397.454 45.268 397.106 45.332 396.77 45.46C396.442 45.588 396.158 45.744 395.918 45.928L395.594 45.388C395.818 45.164 396.174 44.948 396.662 44.74C397.158 44.524 397.662 44.416 398.174 44.416C398.902 44.416 399.49 44.576 399.938 44.896C400.386 45.208 400.61 45.688 400.61 46.336C400.61 46.904 400.386 47.42 399.938 47.884C399.49 48.348 398.958 48.688 398.342 48.904C398.422 48.896 398.534 48.892 398.678 48.892C399.15 48.892 399.566 48.98 399.926 49.156C400.286 49.332 400.562 49.572 400.754 49.876C400.954 50.172 401.054 50.508 401.054 50.884C401.054 51.468 400.878 51.992 400.526 52.456C400.174 52.92 399.674 53.28 399.026 53.536C398.386 53.8 397.642 53.932 396.794 53.932ZM405.597 44.416C406.269 44.416 406.837 44.572 407.301 44.884C407.765 45.188 408.109 45.608 408.333 46.144C408.565 46.68 408.681 47.284 408.681 47.956C408.681 49.012 408.457 49.976 408.009 50.848C407.561 51.72 406.973 52.428 406.245 52.972C405.525 53.524 404.761 53.868 403.953 54.004L403.677 53.476C404.605 53.172 405.361 52.68 405.945 52C406.529 51.32 406.925 50.528 407.133 49.624C406.933 49.856 406.661 50.056 406.317 50.224C405.973 50.384 405.601 50.464 405.201 50.464C404.649 50.464 404.165 50.348 403.749 50.116C403.341 49.876 403.025 49.54 402.801 49.108C402.577 48.668 402.465 48.16 402.465 47.584C402.465 47.016 402.589 46.492 402.837 46.012C403.093 45.532 403.457 45.148 403.929 44.86C404.401 44.564 404.957 44.416 405.597 44.416ZM405.453 49.732C405.885 49.732 406.269 49.632 406.605 49.432C406.941 49.224 407.165 49.004 407.277 48.772L407.313 48.22C407.313 47.244 407.181 46.468 406.917 45.892C406.661 45.316 406.193 45.028 405.513 45.028C405.145 45.028 404.829 45.14 404.565 45.364C404.309 45.58 404.117 45.864 403.989 46.216C403.861 46.568 403.797 46.94 403.797 47.332C403.797 48.156 403.945 48.764 404.241 49.156C404.545 49.54 404.949 49.732 405.453 49.732Z" fill="#635BFF"/>
</g>
</g>
<defs>
<filter id="filter0_i_1_170" x="-64" y="26.7769" width="192.252" height="185.51" filterUnits="userSpaceOnUse" color-interpolation-filters="sRGB">
<feFlood flood-opacity="0" result="BackgroundImageFix"/>
<feBlend mode="normal" in="SourceGraphic" in2="BackgroundImageFix" result="shape"/>
<feColorMatrix in="SourceAlpha" type="matrix" values="0 0 0 0 0 0 0 0 0 0 0 0 0 0 0 0 0 0 127 0" result="hardAlpha"/>
<feOffset/>
<feGaussianBlur stdDeviation="6"/>
<feComposite in2="hardAlpha" operator="arithmetic" k2="-1" k3="1"/>
<feColorMatrix type="matrix" values="0 0 0 0 0 0 0 0 0 0 0 0 0 0 0 0 0 0 0.12 0"/>
<feBlend mode="normal" in2="shape" result="effect1_innerShadow_1_170"/>
</filter>
<filter id="filter1_d_1_170" x="311" y="98" width="113" height="44" filterUnits="userSpaceOnUse" color-interpolation-filters="sRGB">
<feFlood flood-opacity="0" result="BackgroundImageFix"/>
<feColorMatrix in="SourceAlpha" type="matrix" values="0 0 0 0 0 0 0 0 0 0 0 0 0 0 0 0 0 0 127 0" result="hardAlpha"/>
<feOffset/>
<feGaussianBlur stdDeviation="3"/>
<feComposite in2="hardAlpha" operator="out"/>
<feColorMatrix type="matrix" values="0 0 0 0 0 0 0 0 0 0 0 0 0 0 0 0 0 0 0.08 0"/>
<feBlend mode="normal" in2="BackgroundImageFix" result="effect1_dropShadow_1_170"/>
<feBlend mode="normal" in="SourceGraphic" in2="effect1_dropShadow_1_170" result="shape"/>
</filter>
<filter id="filter2_d_1_170" x="327.857" y="114.469" width="18.2397" height="10.9781" filterUnits="userSpaceOnUse" color-interpolation-filters="sRGB">
<feFlood flood-opacity="0" result="BackgroundImageFix"/>
<feColorMatrix in="SourceAlpha" type="matrix" values="0 0 0 0 0 0 0 0 0 0 0 0 0 0 0 0 0 0 127 0" result="hardAlpha"/>
<feOffset/>
<feColorMatrix type="matrix" values="0 0 0 0 0.0313726 0 0 0 0 0.368627 0 0 0 0 0 0 0 0 0.28 0"/>
<feBlend mode="normal" in2="BackgroundImageFix" result="effect1_dropShadow_1_170"/>
<feBlend mode="normal" in="SourceGraphic" in2="effect1_dropShadow_1_170" result="shape"/>
</filter>
<filter id="filter3_d_1_170" x="311" y="170" width="114" height="44" filterUnits="userSpaceOnUse" color-interpolation-filters="sRGB">
<feFlood flood-opacity="0" result="BackgroundImageFix"/>
<feColorMatrix in="SourceAlpha" type="matrix" values="0 0 0 0 0 0 0 0 0 0 0 0 0 0 0 0 0 0 127 0" result="hardAlpha"/>
<feOffset/>
<feGaussianBlur stdDeviation="3"/>
<feComposite in2="hardAlpha" operator="out"/>
<feColorMatrix type="matrix" values="0 0 0 0 0 0 0 0 0 0 0 0 0 0 0 0 0 0 0.08 0"/>
<feBlend mode="normal" in2="BackgroundImageFix" result="effect1_dropShadow_1_170"/>
<feBlend mode="normal" in="SourceGraphic" in2="effect1_dropShadow_1_170" result="shape"/>
</filter>
<filter id="filter4_d_1_170" x="311" y="26" width="113" height="44" filterUnits="userSpaceOnUse" color-interpolation-filters="sRGB">
<feFlood flood-opacity="0" result="BackgroundImageFix"/>
<feColorMatrix in="SourceAlpha" type="matrix" values="0 0 0 0 0 0 0 0 0 0 0 0 0 0 0 0 0 0 127 0" result="hardAlpha"/>
<feOffset/>
<feGaussianBlur stdDeviation="3"/>
<feComposite in2="hardAlpha" operator="out"/>
<feColorMatrix type="matrix" values="0 0 0 0 0 0 0 0 0 0 0 0 0 0 0 0 0 0 0.08 0"/>
<feBlend mode="normal" in2="BackgroundImageFix" result="effect1_dropShadow_1_170"/>
<feBlend mode="normal" in="SourceGraphic" in2="effect1_dropShadow_1_170" result="shape"/>
</filter>
<linearGradient id="paint0_linear_1_170" x1="349" y1="128" x2="349" y2="112" gradientUnits="userSpaceOnUse">
<stop stop-color="#FFC600"/>
<stop offset="1" stop-color="#FFDE42"/>
</linearGradient>
<clipPath id="clip0_1_170">
<rect width="440" height="240" fill="white"/>
</clipPath>
<clipPath id="clip1_1_170">
<rect x="325" y="112" width="24" height="16" rx="1" fill="white"/>
</clipPath>
<clipPath id="clip2_1_170">
<rect x="325" y="184" width="24" height="16" rx="1" fill="white"/>
</clipPath>
<clipPath id="clip3_1_170">
<rect x="325" y="40" width="24" height="16" rx="1" fill="white"/>
</clipPath>
</defs>
</svg>
