<svg width="440" height="240" viewBox="0 0 440 240" fill="none" xmlns="http://www.w3.org/2000/svg">
<path d="M0 12C0 5.37259 5.37258 0 12 0H428C434.627 0 440 5.37258 440 12V240H0V12Z" fill="#D9EAFF"/>
<path d="M371.695 156.252C371.695 167.242 362.02 177.012 349.927 177.012C362.02 177.012 371.695 186.781 371.695 198.992C371.695 186.781 381.37 177.012 393.463 177.012C380.161 177.012 371.695 167.242 371.695 156.252Z" fill="#A8CFFF"/>
<path d="M342.334 137.935C342.334 113.342 361.909 93.6681 386.377 93.6681C361.909 93.6681 342.334 73.994 342.334 49.4014C342.334 73.994 322.759 93.6681 298.291 93.6681C322.759 96.1274 342.334 113.342 342.334 137.935Z" fill="#759FD2"/>
<path d="M255.699 170.419C255.699 145.827 275.273 126.153 299.742 126.153C275.273 126.153 255.699 106.478 255.699 81.8857C255.699 106.478 236.124 126.153 211.656 126.153C236.124 128.612 255.699 145.827 255.699 170.419Z" fill="#A8CFFF"/>
<path d="M307.908 145.057C307.908 162.865 293.734 177.112 276.015 177.112C293.734 177.112 307.908 191.359 307.908 209.167C307.908 191.359 322.083 177.112 339.801 177.112C322.083 177.112 307.908 162.865 307.908 145.057Z" fill="#A8CFFF"/>
<path d="M97.9326 173.804L95.5294 203.477L95.5291 203.475C95.3219 205.524 95.9333 207.57 97.2277 209.165C98.522 210.759 100.393 211.768 102.427 211.97L104.385 212.199C106.418 212.403 108.449 211.787 110.03 210.484C111.612 209.182 112.616 207.301 112.823 205.254L114.438 183.402L114.437 183.403C108.516 180.998 102.96 177.767 97.9326 173.804Z" fill="#759FD2"/>
<path d="M131.626 52.9084L130.085 45.0087L119.68 47.0668L121.232 55.0208C122.934 54.5295 124.684 54.0881 126.452 53.7385C128.219 53.3888 129.906 53.1129 131.626 52.9084Z" fill="#A8CFFF"/>
<path d="M186.259 169.199L193.851 183.507C194.811 185.323 196.448 186.682 198.401 187.285C200.355 187.888 202.466 187.686 204.271 186.723L205.997 185.765C207.804 184.803 209.157 183.156 209.757 181.188C210.356 179.218 210.153 177.091 209.191 175.274L197.967 154.019L197.967 154.02C194.791 159.608 190.849 164.718 186.259 169.199Z" fill="#A8CFFF"/>
<path d="M76.0262 132.884C78.4877 145.519 84.6157 157.137 93.6357 166.264C102.656 175.391 114.162 181.622 126.699 184.166C139.237 186.71 152.241 185.453 164.07 180.554C175.897 175.656 186.017 167.336 193.147 156.646C200.277 145.957 204.098 133.379 204.129 120.501C204.158 107.624 200.394 95.0287 193.312 84.3055C186.23 73.5833 176.149 65.2166 164.344 60.2631C152.539 55.311 139.539 53.9935 126.992 56.4794C110.18 59.8248 95.375 69.7475 85.8195 84.071C76.2641 98.3946 72.7434 115.947 76.0275 132.882L76.0262 132.884ZM132.104 64.7529C146.159 62.8702 160.396 66.4536 171.916 74.7732C183.436 83.0928 191.373 95.5212 194.107 109.527C194.324 110.64 194.541 111.752 194.669 112.902L194.671 112.902C196.546 127.061 192.991 141.406 184.726 153.018C176.462 164.628 164.111 172.628 150.192 175.389C149.05 175.615 147.901 175.803 146.746 175.955C132.704 177.816 118.487 174.224 106.983 165.906C95.4791 157.59 87.5532 145.174 84.818 131.185C84.5974 130.054 84.3801 128.941 84.2521 127.792C82.3051 113.048 86.2531 98.1296 95.2283 86.3162C104.202 74.5018 117.469 66.7598 132.113 64.7914L132.104 64.7529Z" fill="#A8CFFF"/>
<path d="M101.245 57.6644C85.8216 47.2354 66.0856 49.2127 57.4172 62.2308L51.0954 71.6844C42.4274 84.7025 47.9649 103.77 63.4952 114.255L101.245 57.6644Z" fill="#A8CFFF"/>
<path d="M193.422 35.3305C180.452 26.5925 161.549 32.1607 151.136 47.7969L186.478 71.6947L207.306 85.811C217.665 70.2826 215.705 50.4312 202.771 41.6845L193.422 35.3305Z" fill="#A8CFFF"/>
<path d="M105.647 33.4736L138.114 27.0518C139.894 26.6996 141.687 28.2069 141.97 29.6593L143.229 36.1117C143.579 37.9043 142.42 39.6421 140.639 39.9942L108.173 46.416C106.392 46.7682 104.6 45.2609 104.316 43.8085L103.057 37.3561C102.708 35.5635 103.867 33.8257 105.647 33.4736Z" fill="#A8CFFF"/>
</svg>
