<svg width="25" height="24" viewBox="0 0 25 24" fill="none" xmlns="http://www.w3.org/2000/svg">
<rect x="1" y="0.5" width="23" height="23" rx="7.5" fill="#EDFDFD"/>
<rect x="1" y="0.5" width="23" height="23" rx="7.5" stroke="#9DECF9"/>
<path d="M17.5 11.1C18.3284 11.1 19 11.7716 19 12.6C19 13.4284 18.3284 14.1 17.5 14.1H16.6V15.12C16.6 16.1281 16.6 16.6321 16.4038 17.0172C16.2312 17.3559 15.9559 17.6312 15.6172 17.8038C15.2321 18 14.7281 18 13.72 18H13.3V16.95C13.3 16.2044 12.6956 15.6 11.95 15.6C11.2044 15.6 10.6 16.2044 10.6 16.95V18H9.88C8.87191 18 8.36786 18 7.98282 17.8038C7.64413 17.6312 7.36876 17.3559 7.19619 17.0172C7 16.6321 7 16.1281 7 15.12V14.1H7.9C8.72843 14.1 9.4 13.4284 9.4 12.6C9.4 11.7716 8.72843 11.1 7.9 11.1H7C7 10.2613 7 9.84196 7.13702 9.51117C7.31971 9.07012 7.67012 8.71971 8.11117 8.53702C8.44196 8.4 8.86131 8.4 9.7 8.4H10.3V7.5C10.3 6.67157 10.9716 6 11.8 6C12.6284 6 13.3 6.67157 13.3 7.5M15.998 10.09V8.45399M15.998 8.45399V6.818M15.998 8.45399H14.362M15.998 8.45399H17.6339" stroke="#00A3C4" stroke-linecap="round" stroke-linejoin="round"/>
</svg>
