<svg width="24" height="24" viewBox="0 0 24 24" fill="none" xmlns="http://www.w3.org/2000/svg">
<rect x="0.5" y="0.5" width="23" height="23" rx="7.5" fill="#ECFDEC"/>
<rect x="0.5" y="0.5" width="23" height="23" rx="7.5" stroke="#D3FAD1"/>
<path d="M8.96619 14.1476C8.96619 14.7367 9.44291 15.2142 10.031 15.2142H11.0197C11.6498 15.2142 12.1605 14.7026 12.1605 14.0714C12.1605 13.4402 11.6498 12.9285 11.0197 12.9285H10.107C9.47696 12.9285 8.96619 12.4168 8.96619 11.7857C8.96619 11.1545 9.47696 10.6428 10.107 10.6428H11.0958C11.6838 10.6428 12.1605 11.1204 12.1605 11.7095M10.5634 9.95709V10.6428M10.5634 15.2142V15.8999M15.1267 12.9285C15.1267 15.4532 13.0836 17.4999 10.5634 17.4999C8.04309 17.4999 6 15.4532 6 12.9285C6 10.4038 8.04309 8.35709 10.5634 8.35709M15.1267 12.9285C15.1267 10.4038 13.0836 8.35709 10.5634 8.35709M15.1267 12.9285L18.0001 12.9286C18.0001 8.82588 14.6801 5.5 10.5846 5.5L10.5634 8.35709" stroke="#28A948" stroke-linecap="round" stroke-linejoin="round"/>
</svg>
