<svg width="24" height="24" viewBox="0 0 24 24" fill="none" xmlns="http://www.w3.org/2000/svg">
<rect x="0.5" y="0.5" width="23" height="23" rx="7.5" fill="#FFF6DE"/>
<rect x="0.5" y="0.5" width="23" height="23" rx="7.5" stroke="#FFF1C1"/>
<path d="M17.6535 9.12526L12.479 12M12.479 12L7.30448 9.12526M12.479 12L12.479 17.7833M9.73969 7.43404L15.2186 10.4779M17.9579 14.4707V9.5293C17.9579 9.32071 17.9579 9.21642 17.9271 9.1234C17.8999 9.04111 17.8555 8.96557 17.7968 8.90184C17.7304 8.8298 17.6392 8.77915 17.4569 8.67785L12.952 6.17516C12.7794 6.07924 12.6931 6.03128 12.6016 6.01248C12.5207 5.99584 12.4373 5.99584 12.3564 6.01248C12.2649 6.03128 12.1786 6.07924 12.006 6.17516L7.50112 8.67785C7.31878 8.77915 7.22761 8.8298 7.16122 8.90184C7.10249 8.96557 7.05804 9.04111 7.03086 9.1234C7.00012 9.21642 7.00012 9.32071 7.00012 9.5293V14.4707C7.00012 14.6793 7.00012 14.7836 7.03086 14.8766C7.05804 14.9589 7.10249 15.0344 7.16122 15.0982C7.22761 15.1702 7.31878 15.2208 7.50112 15.3221L12.006 17.8248C12.1786 17.9208 12.2649 17.9687 12.3564 17.9875C12.4373 18.0042 12.5207 18.0042 12.6016 17.9875C12.6931 17.9687 12.7794 17.9208 12.952 17.8248L17.4569 15.3221C17.6392 15.2208 17.7304 15.1702 17.7968 15.0982C17.8555 15.0344 17.8999 14.9589 17.9271 14.8766C17.9579 14.7836 17.9579 14.6793 17.9579 14.4707Z" stroke="#FF9400" stroke-linecap="round" stroke-linejoin="round"/>
</svg>
