<svg width="24" height="24" viewBox="0 0 24 24" fill="none" xmlns="http://www.w3.org/2000/svg">
<rect x="0.5" y="0.5" width="23" height="23" rx="7.5" fill="#FFF5F7"/>
<rect x="0.5" y="0.5" width="23" height="23" rx="7.5" stroke="#FED7E2"/>
<path d="M16.6 10.8V8.88C16.6 7.87191 16.6 7.36786 16.4038 6.98282C16.2312 6.64413 15.9559 6.36876 15.6172 6.19619C15.2321 6 14.7281 6 13.72 6H9.88C8.87191 6 8.36786 6 7.98282 6.19619C7.64413 6.36876 7.36876 6.64413 7.19619 6.98282C7 7.36786 7 7.87191 7 8.88V15.12C7 16.1281 7 16.6321 7.19619 17.0172C7.36876 17.3559 7.64413 17.6312 7.98282 17.8038C8.36786 18 8.87191 18 9.88 18H11.8M12.1 11.4H9.4M10 13.8H9.4M14.2 9H9.4M12.7 16.7999L13.915 16.5569C14.0209 16.5358 14.0739 16.5252 14.1233 16.5058C14.1671 16.4886 14.2088 16.4663 14.2474 16.4394C14.2909 16.409 14.3291 16.3708 14.4055 16.2944L16.9 13.7999C17.2314 13.4686 17.2314 12.9313 16.9 12.5999C16.5686 12.2686 16.0314 12.2686 15.7 12.5999L13.2055 15.0944C13.1291 15.1708 13.0909 15.209 13.0606 15.2525C13.0336 15.2912 13.0113 15.3328 12.9942 15.3767C12.9748 15.4261 12.9642 15.479 12.943 15.585L12.7 16.7999Z" stroke="#B83280" stroke-linecap="round" stroke-linejoin="round"/>
</svg>
