<svg width="24" height="24" viewBox="0 0 24 24" fill="none" xmlns="http://www.w3.org/2000/svg">
<rect x="0.5" y="0.5" width="23" height="23" rx="7.5" fill="#F0F7FF"/>
<rect x="0.5" y="0.5" width="23" height="23" rx="7.5" stroke="#DFEFFF"/>
<path d="M10.2 10.2H10.206M13.8 13.8H13.806M14.4 9.6L9.6 14.4M15.5407 7.7991C15.6643 8.09792 15.9014 8.33544 16.2 8.45944L17.2471 8.89319C17.546 9.01697 17.7834 9.2544 17.9072 9.55324C18.0309 9.85207 18.0309 10.1878 17.9072 10.4867L17.4737 11.5331C17.3499 11.8321 17.3497 12.1682 17.4741 12.467L17.9068 13.5131C17.9682 13.6611 17.9998 13.8197 17.9998 13.98C17.9998 14.1402 17.9683 14.2989 17.907 14.4469C17.8456 14.5949 17.7558 14.7294 17.6424 14.8427C17.5291 14.956 17.3946 15.0458 17.2466 15.1071L16.2002 15.5405C15.9014 15.6641 15.6639 15.9012 15.5399 16.1999L15.1062 17.247C14.9824 17.5459 14.745 17.7833 14.4461 17.9071C14.1473 18.0308 13.8116 18.0308 13.5127 17.9071L12.4664 17.4736C12.1675 17.3502 11.8319 17.3504 11.5332 17.4743L10.4861 17.9075C10.1875 18.0309 9.85201 18.0308 9.55342 17.9072C9.25484 17.7835 9.01755 17.5463 8.89369 17.2478L8.45983 16.2004C8.33628 15.9015 8.09913 15.664 7.80051 15.54L6.7534 15.1063C6.4547 14.9825 6.21735 14.7453 6.09353 14.4466C5.96971 14.1479 5.96954 13.8123 6.09306 13.5135L6.52648 12.4671C6.64995 12.1683 6.6497 11.8326 6.52578 11.534L6.09298 10.4861C6.03162 10.3381 6.00003 10.1794 6 10.0192C5.99997 9.85895 6.03152 9.70029 6.09283 9.55226C6.15415 9.40423 6.24403 9.26973 6.35734 9.15645C6.47065 9.04317 6.60517 8.95333 6.75322 8.89206L7.79958 8.45863C8.09812 8.33518 8.33549 8.09832 8.45958 7.80003L8.89331 6.75289C9.01709 6.45405 9.25451 6.21662 9.55333 6.09284C9.85216 5.96905 10.1879 5.96905 10.4867 6.09284L11.5331 6.52627C11.8319 6.64975 12.1676 6.6495 12.4662 6.52557L13.5138 6.09351C13.8126 5.9698 14.1483 5.96982 14.447 6.09358C14.7458 6.21734 14.9832 6.4547 15.107 6.75346L15.5408 7.80092L15.5407 7.7991ZM10.5 10.2C10.5 10.3657 10.3657 10.5 10.2 10.5C10.0343 10.5 9.9 10.3657 9.9 10.2C9.9 10.0343 10.0343 9.9 10.2 9.9C10.3657 9.9 10.5 10.0343 10.5 10.2ZM14.1 13.8C14.1 13.9657 13.9657 14.1 13.8 14.1C13.6343 14.1 13.5 13.9657 13.5 13.8C13.5 13.6343 13.6343 13.5 13.8 13.5C13.9657 13.5 14.1 13.6343 14.1 13.8Z" stroke="#006BFF" stroke-linecap="round" stroke-linejoin="round"/>
</svg>
