<svg width="24" height="24" viewBox="0 0 24 24" fill="none" xmlns="http://www.w3.org/2000/svg">
<rect x="0.5" y="0.5" width="23" height="23" rx="7.5" fill="#FFE8E0"/>
<rect x="0.5" y="0.5" width="23" height="23" rx="7.5" stroke="#FFD6C3"/>
<path d="M11.1428 8.99995V7.63743C11.1428 7.12763 10.7296 6.71436 10.2198 6.71436H8.35164C7.84184 6.71436 7.42856 7.12763 7.42856 7.63743V8.99995M16.5714 9V7.63748C16.5714 7.12768 16.1581 6.7144 15.6483 6.7144H13.7802C13.2704 6.7144 12.8571 7.12768 12.8571 7.63748V9M7.38461 17.2857H16.6154C17.3801 17.2857 18 16.6658 18 15.9011V10.3846C18 9.61988 17.3801 8.99996 16.6154 8.99996H7.38462C6.61991 8.99996 6 9.61987 6 10.3846V15.9011C6 16.6658 6.61991 17.2857 7.38461 17.2857Z" stroke="#FF4C19" stroke-width="0.923077"/>
</svg>
