<svg width="25" height="24" viewBox="0 0 25 24" fill="none" xmlns="http://www.w3.org/2000/svg">
<rect x="1" y="0.5" width="23" height="23" rx="7.5" fill="#FAF5FF"/>
<rect x="1" y="0.5" width="23" height="23" rx="7.5" stroke="#E9D8FD"/>
<path d="M12.5011 14.3077H9.7154V16C9.7154 17.1046 10.6108 18 11.7154 18H13.2868C14.3914 18 15.2868 17.1046 15.2868 16V14.3077H12.5011ZM12.5011 14.3077V11.5385M12.5011 11.5385V11.5385C12.5011 9.49926 10.848 7.84615 8.80881 7.84615H6.92969V7.84615C6.92969 9.88536 8.58279 11.5385 10.622 11.5385H12.5011ZM12.5011 11.5385V11C12.5011 8.23858 14.7397 6 17.5011 6H18.0725V6.53846C18.0725 9.29989 15.834 11.5385 13.0725 11.5385H12.5011Z" stroke="#805AD5" stroke-linecap="round" stroke-linejoin="round"/>
</svg>
