<svg width="24" height="24" viewBox="0 0 24 24" fill="none" xmlns="http://www.w3.org/2000/svg">
<rect x="0.5" y="0.5" width="23" height="23" rx="7.5" fill="#F0F7FF"/>
<rect x="0.5" y="0.5" width="23" height="23" rx="7.5" stroke="#DFEFFF"/>
<path d="M8.03566 15.9281C7.46351 15.9281 6.99969 16.3919 6.99969 16.964C6.99969 17.5362 7.46351 18 8.03566 18C8.60781 18 9.07163 17.5362 9.07163 16.964C9.07163 16.3919 8.60781 15.9281 8.03566 15.9281ZM8.03566 15.9281V15.5827C8.03566 15.0992 8.03566 14.8575 8.12976 14.6728C8.21253 14.5104 8.3446 14.3783 8.50704 14.2955C8.69171 14.2014 8.93346 14.2014 9.41696 14.2014H14.9421C15.4256 14.2014 15.6674 14.2014 15.852 14.2955C16.0145 14.3783 16.1466 14.5104 16.2293 14.6728C16.3234 14.8575 16.3234 15.0992 16.3234 15.5827V15.9281M16.3234 15.9281C15.7513 15.9281 15.2874 16.3919 15.2874 16.964C15.2874 17.5362 15.7513 18 16.3234 18C16.8956 18 17.3594 17.5362 17.3594 16.964C17.3594 16.3919 16.8956 15.9281 16.3234 15.9281ZM12.1795 15.9281C11.6074 15.9281 11.1436 16.3919 11.1436 16.964C11.1436 17.5362 11.6074 18 12.1795 18C12.7517 18 13.2155 17.5362 13.2155 16.964C13.2155 16.3919 12.7517 15.9281 12.1795 15.9281ZM12.1795 15.9281V14.2014M12.0932 6.77698H12.6975C13.365 6.77698 13.9062 7.3181 13.9062 7.98561M12.0932 6.77698H11.5752C10.86 6.77698 10.2803 7.35675 10.2803 8.07194C10.2803 8.78713 10.86 9.3669 11.5752 9.3669H12.6112C13.3264 9.3669 13.9062 9.94667 13.9062 10.6619C13.9062 11.377 13.3264 11.9568 12.6112 11.9568H12.0932M12.0932 6.77698V6M12.0932 11.9568H11.4889C10.8214 11.9568 10.2803 11.4157 10.2803 10.7482M12.0932 11.9568V12.7338" stroke="#006BFF" stroke-linecap="round" stroke-linejoin="round"/>
</svg>
