<svg width="25" height="24" viewBox="0 0 25 24" fill="none" xmlns="http://www.w3.org/2000/svg">
<rect x="1" y="0.5" width="23" height="23" rx="7.5" fill="#ECFDEC"/>
<rect x="1" y="0.5" width="23" height="23" rx="7.5" stroke="#D3FAD1"/>
<path d="M11.5584 13.3697L8.85865 14.8696M8.85865 14.8696L6.15892 13.3697M8.85865 14.8696L8.85866 17.8869M15.6888 5.63057L12.989 7.13043M12.989 7.13043L10.2893 5.63057M12.989 7.13043L12.989 10.1478M20.3411 13.3696L17.6414 14.8694M17.6414 14.8694L14.9416 13.3696M17.6414 14.8694L17.6414 17.8868M11.7172 16.1586V13.5805C11.7172 13.4717 11.7172 13.4173 11.7012 13.3687C11.687 13.3258 11.6638 13.2864 11.6332 13.2531C11.5985 13.2155 11.551 13.1891 11.4558 13.1363L9.10546 11.8305C9.01538 11.7805 8.97035 11.7555 8.92265 11.7456C8.88044 11.737 8.8369 11.737 8.79468 11.7456C8.74698 11.7555 8.70195 11.7805 8.61187 11.8305L6.26151 13.1363C6.16638 13.1891 6.11881 13.2155 6.08417 13.2531C6.05353 13.2864 6.03034 13.3258 6.01616 13.3687C6.00012 13.4173 6.00012 13.4717 6.00012 13.5805V16.1586C6.00012 16.2675 6.00012 16.3219 6.01616 16.3704C6.03034 16.4133 6.05353 16.4527 6.08417 16.486C6.11881 16.5236 6.16638 16.55 6.26151 16.6029L8.61187 17.9086C8.70195 17.9587 8.74698 17.9837 8.79468 17.9935C8.8369 18.0022 8.88044 18.0022 8.92265 17.9935C8.97035 17.9837 9.01538 17.9587 9.10546 17.9086L11.4558 16.6029C11.551 16.55 11.5985 16.5236 11.6332 16.486C11.6638 16.4527 11.687 16.4133 11.7012 16.3704C11.7172 16.3219 11.7172 16.2675 11.7172 16.1586ZM15.8476 8.4195V5.84137C15.8476 5.73254 15.8476 5.67813 15.8315 5.6296C15.8174 5.58667 15.7942 5.54725 15.7635 5.514C15.7289 5.47642 15.6813 5.44999 15.5862 5.39714L13.2358 4.09139C13.1458 4.04134 13.1007 4.01632 13.053 4.00651C13.0108 3.99783 12.9673 3.99783 12.9251 4.00651C12.8774 4.01632 12.8323 4.04134 12.7422 4.09139L10.3919 5.39714C10.2967 5.44999 10.2492 5.47642 10.2145 5.514C10.1839 5.54726 10.1607 5.58667 10.1465 5.6296C10.1305 5.67813 10.1305 5.73255 10.1305 5.84137V8.4195C10.1305 8.52832 10.1305 8.58274 10.1465 8.63127C10.1607 8.6742 10.1839 8.71362 10.2145 8.74687C10.2492 8.78445 10.2967 8.81088 10.3919 8.86373L12.7422 10.1695C12.8323 10.2195 12.8774 10.2445 12.9251 10.2544C12.9673 10.263 13.0108 10.263 13.053 10.2544C13.1007 10.2445 13.1458 10.2195 13.2358 10.1695L15.5862 8.86373C15.6813 8.81088 15.7289 8.78445 15.7635 8.74687C15.7942 8.71362 15.8174 8.6742 15.8315 8.63127C15.8476 8.58274 15.8476 8.52832 15.8476 8.4195ZM20.4999 16.1585V13.5804C20.4999 13.4716 20.4999 13.4171 20.4839 13.3686C20.4697 13.3257 20.4465 13.2863 20.4159 13.253C20.3812 13.2154 20.3337 13.189 20.2385 13.1362L17.8882 11.8304C17.7981 11.7804 17.7531 11.7553 17.7054 11.7455C17.6631 11.7368 17.6196 11.7368 17.5774 11.7455C17.5297 11.7553 17.4847 11.7804 17.3946 11.8304L15.0442 13.1362C14.9491 13.189 14.9015 13.2154 14.8669 13.253C14.8362 13.2863 14.8131 13.3257 14.7989 13.3686C14.7828 13.4171 14.7828 13.4716 14.7828 13.5804V16.1585C14.7828 16.2673 14.7828 16.3218 14.7989 16.3703C14.8131 16.4132 14.8362 16.4526 14.8669 16.4859C14.9015 16.5235 14.9491 16.5499 15.0442 16.6027L17.3946 17.9085C17.4847 17.9585 17.5297 17.9836 17.5774 17.9934C17.6196 18.0021 17.6631 18.0021 17.7054 17.9934C17.7531 17.9836 17.7981 17.9585 17.8882 17.9085L20.2385 16.6027C20.3337 16.5499 20.3812 16.5235 20.4159 16.4859C20.4465 16.4526 20.4697 16.4132 20.4839 16.3703C20.4999 16.3218 20.4999 16.2673 20.4999 16.1585Z" stroke="#28A948" stroke-width="0.8" stroke-linecap="round" stroke-linejoin="round"/>
</svg>
