<svg width="24" height="24" viewBox="0 0 24 24" fill="none" xmlns="http://www.w3.org/2000/svg">
<rect x="0.5" y="0.5" width="23" height="23" rx="7.5" fill="#EDFDFD"/>
<rect x="0.5" y="0.5" width="23" height="23" rx="7.5" stroke="#9DECF9"/>
<path d="M8.57148 17.3287H10.0631C10.2576 17.3287 10.4508 17.3493 10.6394 17.3904L12.2154 17.7309C12.5574 17.8049 12.9136 17.8121 13.2592 17.7525L15.0018 17.4511C15.4621 17.3714 15.8855 17.1755 16.2174 16.8885L17.4503 15.8225C17.8024 15.5186 17.8024 15.0254 17.4503 14.7209C17.1333 14.4468 16.6313 14.416 16.2727 14.6484L14.8358 15.5803C14.63 15.714 14.3797 15.786 14.1221 15.786H12.7346L13.6178 15.7859C14.1156 15.7859 14.5188 15.4373 14.5188 15.0068V14.851C14.5188 14.4936 14.2375 14.182 13.8367 14.0956L12.4735 13.8009C12.2517 13.7531 12.0245 13.7289 11.7961 13.7289C11.2448 13.7289 10.2468 14.1347 10.2468 14.1347L8.57148 14.7574M11.7142 9.15744L12.5714 8.58601V11.7289M11.7142 11.7289H13.4285M9.28835 12.586C8.83642 11.9381 8.57139 11.1501 8.57139 10.3003C8.57139 8.09115 10.3622 6.30029 12.5714 6.30029C14.7805 6.30029 16.5714 8.09115 16.5714 10.3003C16.5714 11.3572 16.1614 12.3184 15.4919 13.0336M6.28577 14.5416L6.28577 17.4876C6.28577 17.7721 6.28577 17.9143 6.34805 18.023C6.40283 18.1186 6.49025 18.1963 6.59777 18.245C6.72001 18.3003 6.88002 18.3003 7.20005 18.3003H7.65719C7.97723 18.3003 8.13724 18.3003 8.25948 18.245C8.367 18.1963 8.45441 18.1186 8.5092 18.023C8.57148 17.9143 8.57148 17.7721 8.57148 17.4876V14.5416C8.57148 14.2571 8.57148 14.1149 8.5092 14.0062C8.45441 13.9107 8.367 13.833 8.25948 13.7843C8.13724 13.7289 7.97723 13.7289 7.6572 13.7289L7.20005 13.7289C6.88002 13.7289 6.72001 13.7289 6.59777 13.7843C6.49025 13.833 6.40283 13.9107 6.34805 14.0062C6.28577 14.1149 6.28577 14.2571 6.28577 14.5416Z" stroke="#00A3C4" stroke-linecap="round" stroke-linejoin="round"/>
</svg>
