<svg width="25" height="24" viewBox="0 0 25 24" fill="none" xmlns="http://www.w3.org/2000/svg">
<path d="M1 8C1 3.85786 4.35786 0.5 8.5 0.5H16.5C20.6421 0.5 24 3.85786 24 8V16C24 20.1421 20.6421 23.5 16.5 23.5H8.5C4.35786 23.5 1 20.1421 1 16V8Z" fill="#FFF5F7"/>
<path d="M1 8C1 3.85786 4.35786 0.5 8.5 0.5H16.5C20.6421 0.5 24 3.85786 24 8V16C24 20.1421 20.6421 23.5 16.5 23.5H8.5C4.35786 23.5 1 20.1421 1 16V8Z" stroke="#FED7E2"/>
<path d="M10.7 12L11.9 13.2L14.6 10.5M16.0407 7.7991C16.1643 8.09792 16.4014 8.33544 16.7 8.45944L17.7471 8.89319C18.046 9.01697 18.2834 9.2544 18.4072 9.55323C18.5309 9.85207 18.5309 10.1878 18.4072 10.4867L17.9737 11.5331C17.8499 11.8321 17.8497 12.1682 17.9741 12.467L18.4068 13.5131C18.4682 13.6611 18.4998 13.8197 18.4998 13.98C18.4998 14.1402 18.4683 14.2989 18.407 14.4469C18.3456 14.5949 18.2558 14.7294 18.1424 14.8427C18.0291 14.956 17.8946 15.0458 17.7466 15.1071L16.7002 15.5405C16.4014 15.6641 16.1639 15.9012 16.0399 16.1999L15.6062 17.247C15.4824 17.5459 15.245 17.7833 14.9461 17.9071C14.6473 18.0308 14.3116 18.0308 14.0127 17.9071L12.9664 17.4736C12.6675 17.3502 12.3319 17.3504 12.0332 17.4743L10.9861 17.9075C10.6875 18.0309 10.352 18.0308 10.0534 17.9072C9.75484 17.7835 9.51755 17.5463 9.39369 17.2478L8.95983 16.2004C8.83628 15.9015 8.59913 15.664 8.30051 15.54L7.2534 15.1063C6.9547 14.9825 6.71735 14.7453 6.59353 14.4466C6.46971 14.1479 6.46954 13.8123 6.59306 13.5135L7.02648 12.4671C7.14995 12.1683 7.1497 11.8326 7.02578 11.534L6.59298 10.4861C6.53162 10.3381 6.50003 10.1794 6.5 10.0192C6.49997 9.85895 6.53152 9.70029 6.59283 9.55226C6.65415 9.40423 6.74403 9.26973 6.85734 9.15645C6.97065 9.04317 7.10517 8.95333 7.25322 8.89206L8.29958 8.45863C8.59812 8.33518 8.83549 8.09832 8.95958 7.80003L9.39331 6.75289C9.51709 6.45405 9.75451 6.21662 10.0533 6.09284C10.3522 5.96905 10.6879 5.96905 10.9867 6.09284L12.0331 6.52627C12.3319 6.64975 12.6676 6.6495 12.9662 6.52557L14.0138 6.09351C14.3126 5.9698 14.6483 5.96982 14.947 6.09358C15.2458 6.21734 15.4832 6.4547 15.607 6.75346L16.0408 7.80092L16.0407 7.7991Z" stroke="#B83280" stroke-linecap="round" stroke-linejoin="round"/>
</svg>
