<svg width="24" height="24" viewBox="0 0 24 24" fill="none" xmlns="http://www.w3.org/2000/svg">
<rect x="0.5" y="0.5" width="23" height="23" rx="7.5" fill="#FFF6DE"/>
<rect x="0.5" y="0.5" width="23" height="23" rx="7.5" stroke="#FFF1C1"/>
<path d="M18 9L13.342 14.755C13.1723 14.9283 13.0874 15.0149 12.9896 15.0474C12.9035 15.0759 12.8108 15.0759 12.7247 15.0474C12.6269 15.0149 12.542 14.9283 12.3723 14.755L10.7706 12.12C10.6009 11.9467 10.516 11.8601 10.4181 11.8276C10.3321 11.7991 10.2394 11.7991 10.1533 11.8276C10.0554 11.8601 9.97056 11.9467 9.80084 12.12L6 16M18 9H14.5714M18 9V12.5" stroke="#FF9400" stroke-linecap="round" stroke-linejoin="round"/>
</svg>
