<svg width="24" height="24" viewBox="0 0 24 24" fill="none" xmlns="http://www.w3.org/2000/svg">
<rect x="0.5" y="0.5" width="23" height="23" rx="7.5" fill="#FAF5FF"/>
<rect x="0.5" y="0.5" width="23" height="23" rx="7.5" stroke="#E9D8FD"/>
<path d="M12.9998 9.5H13.5831C14.2274 9.5 14.7498 10.0223 14.7498 10.6667M12.9998 9.5H12.4998C11.8094 9.5 11.2498 10.0596 11.2498 10.75C11.2498 11.4404 11.8094 12 12.4998 12H13.4998C14.1901 12 14.7498 12.5596 14.7498 13.25C14.7498 13.9404 14.1901 14.5 13.4998 14.5H12.9998M12.9998 9.5V8.75M12.9998 14.5H12.4164C11.7721 14.5 11.2498 13.9777 11.2498 13.3333M12.9998 14.5V15.25M9.49976 8.42928C10.4016 7.54516 11.637 7 12.9998 7C15.7612 7 17.9998 9.23858 17.9998 12C17.9998 14.7614 15.7612 17 12.9998 17C11.637 17 10.4016 16.4548 9.49976 15.5707M9.49976 14.0001H6.69976M9.49976 10.0001L6.69976 10.0001M8.79976 12.0001H5.99976" stroke="#805AD5" stroke-linecap="round" stroke-linejoin="round"/>
</svg>
