<svg width="24" height="24" viewBox="0 0 24 24" fill="none" xmlns="http://www.w3.org/2000/svg">
<rect x="0.5" y="0.5" width="23" height="23" rx="7.5" fill="#ECFDEC"/>
<rect x="0.5" y="0.5" width="23" height="23" rx="7.5" stroke="#D3FAD1"/>
<path d="M14.3637 14.6999V16.2399C14.3637 16.8559 14.3637 17.1639 14.2646 17.3993C14.1774 17.6062 14.0383 17.7745 13.8673 17.88C13.6728 17.9999 13.4183 17.9999 12.9091 17.9999H9.45457C8.94543 17.9999 8.69086 17.9999 8.4964 17.88C8.32534 17.7745 8.18627 17.6062 8.09911 17.3993C8.00002 17.1639 8.00002 16.8559 8.00002 16.2399V12.0599C8.00002 11.4438 8.00002 11.1358 8.09911 10.9005C8.18627 10.6935 8.32534 10.5252 8.4964 10.4198C8.69086 10.2999 8.94543 10.2999 9.45457 10.2999H11.6364M8.40012 8.4L9.60012 7.2M9.60012 7.2L8.40012 6M9.60012 7.2H8.40012C7.07464 7.2 6.00012 8.27452 6.00012 9.6M13.0909 14.6998H16.5455C17.0546 14.6998 17.3092 14.6998 17.5037 14.58C17.6747 14.4745 17.8138 14.3062 17.9009 14.0992C18 13.8639 18 13.5559 18 12.9398V8.75986C18 8.1438 18 7.83577 17.9009 7.60047C17.8138 7.39349 17.6747 7.22521 17.5037 7.11975C17.3092 6.99986 17.0546 6.99986 16.5455 6.99986H13.0909C12.5818 6.99986 12.3272 6.99986 12.1328 7.11975C11.9617 7.22521 11.8226 7.39349 11.7355 7.60047C11.6364 7.83577 11.6364 8.1438 11.6364 8.75986V12.9398C11.6364 13.5559 11.6364 13.8639 11.7355 14.0992C11.8226 14.3062 11.9617 14.4745 12.1328 14.58C12.3272 14.6998 12.5818 14.6998 13.0909 14.6998Z" stroke="#28A948" stroke-linecap="round" stroke-linejoin="round"/>
</svg>
