<svg width="24" height="24" viewBox="0 0 24 24" fill="none" xmlns="http://www.w3.org/2000/svg">
<rect x="0.5" y="0.5" width="23" height="23" rx="7.5" fill="#FFEEEF"/>
<rect x="0.5" y="0.5" width="23" height="23" rx="7.5" stroke="#FFE3E4"/>
<path d="M11.217 9.6516H11.8257C12.4981 9.6516 13.0431 10.1966 13.0431 10.869M11.217 9.6516H10.6953C9.97491 9.6516 9.39094 10.2356 9.39094 10.9559C9.39094 11.6763 9.97491 12.2603 10.6953 12.2603H11.7388C12.4591 12.2603 13.0431 12.8443 13.0431 13.5646C13.0431 14.285 12.4591 14.869 11.7388 14.869H11.217M11.217 9.6516V8.86899M11.217 14.869H10.6083C9.93598 14.869 9.39094 14.3239 9.39094 13.6516M11.217 14.869V15.6516M13.7559 7.70124C13.0045 7.28188 12.1387 7.04291 11.217 7.04291C8.33554 7.04291 5.99963 9.37881 5.99963 12.2603C5.99963 15.1418 8.33554 17.4777 11.217 17.4777C14.0985 17.4777 16.4344 15.1418 16.4344 12.2603C16.4344 11.8198 16.3798 11.3921 16.277 10.9835M15.9125 7.95603H15.9151M17.9995 8.08647C17.9995 9.23906 16.956 10.1734 15.9125 11.2169C14.869 10.1734 13.8256 9.23906 13.8256 8.08647C13.8256 6.93387 14.7599 5.99951 15.9125 5.99951C17.0651 5.99951 17.9995 6.93387 17.9995 8.08647ZM16.0429 7.95603C16.0429 8.02807 15.9845 8.08647 15.9125 8.08647C15.8405 8.08647 15.7821 8.02807 15.7821 7.95603C15.7821 7.884 15.8405 7.8256 15.9125 7.8256C15.9845 7.8256 16.0429 7.884 16.0429 7.95603Z" stroke="#FC0035" stroke-linecap="round" stroke-linejoin="round"/>
</svg>
