<svg width="24" height="24" viewBox="0 0 24 24" fill="none" xmlns="http://www.w3.org/2000/svg">
<path d="M0.5 8C0.5 3.85786 3.85786 0.5 8 0.5H16C20.1421 0.5 23.5 3.85786 23.5 8V16C23.5 20.1421 20.1421 23.5 16 23.5H8C3.85786 23.5 0.5 20.1421 0.5 16V8Z" fill="#FFEEEF"/>
<path d="M0.5 8C0.5 3.85786 3.85786 0.5 8 0.5H16C20.1421 0.5 23.5 3.85786 23.5 8V16C23.5 20.1421 20.1421 23.5 16 23.5H8C3.85786 23.5 0.5 20.1421 0.5 16V8Z" stroke="#FFE3E4"/>
<path d="M11.9 11.3H12.6C13.3732 11.3 14 11.9268 14 12.7M11.9 11.3H11.3C10.4716 11.3 9.8 11.9716 9.8 12.8C9.8 13.6284 10.4716 14.3 11.3 14.3H12.5C13.3284 14.3 14 14.9716 14 15.8C14 16.6284 13.3284 17.3 12.5 17.3H11.9M11.9 11.3V10.4M11.9 17.3H11.2C10.4268 17.3 9.8 16.6732 9.8 15.9M11.9 17.3V18.2M13.4398 6.21042C14.5208 6.53494 15.4479 7.21544 16.0848 8.11576M7.9848 8.01985C8.61874 7.16714 9.51788 6.52331 10.5602 6.21042M7.2 8C6.53726 8 6 8.53726 6 9.2C6 9.86274 6.53726 10.4 7.2 10.4C7.86274 10.4 8.4 9.86274 8.4 9.2C8.4 8.53726 7.86274 8 7.2 8ZM16.8 8C16.1373 8 15.6 8.53726 15.6 9.2C15.6 9.86274 16.1373 10.4 16.8 10.4C17.4627 10.4 18 9.86274 18 9.2C18 8.53726 17.4627 8 16.8 8ZM13.2 6.2C13.2 6.86274 12.6627 7.4 12 7.4C11.3373 7.4 10.8 6.86274 10.8 6.2C10.8 5.53726 11.3373 5 12 5C12.6627 5 13.2 5.53726 13.2 6.2Z" stroke="#FC0035" stroke-linecap="round" stroke-linejoin="round"/>
</svg>
