<svg width="24" height="24" viewBox="0 0 24 24" fill="none" xmlns="http://www.w3.org/2000/svg">
<rect x="0.5" y="0.5" width="23" height="23" rx="7.5" fill="#FFF5F7"/>
<rect x="0.5" y="0.5" width="23" height="23" rx="7.5" stroke="#FED7E2"/>
<path d="M10.9412 8.47059H11.5176C12.1544 8.47059 12.6706 8.98678 12.6706 9.62353M10.9412 8.47059H10.4471C9.76482 8.47059 9.21176 9.02365 9.21176 9.70588C9.21176 10.3881 9.76482 10.9412 10.4471 10.9412H11.4353C12.1175 10.9412 12.6706 11.4942 12.6706 12.1765C12.6706 12.8587 12.1175 13.4118 11.4353 13.4118H10.9412M10.9412 8.47059V7.72941M10.9412 13.4118H10.3647C9.72795 13.4118 9.21176 12.8956 9.21176 12.2588M10.9412 13.4118V14.1529M10.9412 15.8824C8.21224 15.8824 6 13.6701 6 10.9412C6 8.21224 8.21224 6 10.9412 6C13.6701 6 15.8824 8.21224 15.8824 10.9412M16.7647 15.1766V13.9413C16.7647 13.259 16.2116 12.706 15.5294 12.706C14.8472 12.706 14.2941 13.259 14.2941 13.9413V15.1766M14.1882 18.0001H16.8706C17.2659 18.0001 17.4636 18.0001 17.6146 17.9231C17.7474 17.8555 17.8554 17.7475 17.9231 17.6147C18 17.4637 18 17.266 18 16.8707V16.306C18 15.9106 18 15.713 17.9231 15.562C17.8554 15.4292 17.7474 15.3212 17.6146 15.2535C17.4636 15.1766 17.2659 15.1766 16.8706 15.1766H14.1882C13.7929 15.1766 13.5952 15.1766 13.4442 15.2535C13.3114 15.3212 13.2034 15.4292 13.1358 15.562C13.0588 15.713 13.0588 15.9106 13.0588 16.306V16.8707C13.0588 17.266 13.0588 17.4637 13.1358 17.6147C13.2034 17.7475 13.3114 17.8555 13.4442 17.9231C13.5952 18.0001 13.7929 18.0001 14.1882 18.0001Z" stroke="#B83280" stroke-linecap="round" stroke-linejoin="round"/>
</svg>
