<svg width="24" height="24" viewBox="0 0 24 24" fill="none" xmlns="http://www.w3.org/2000/svg">
<path d="M0.5 8C0.5 3.85786 3.85786 0.5 8 0.5H16C20.1421 0.5 23.5 3.85786 23.5 8V16C23.5 20.1421 20.1421 23.5 16 23.5H8C3.85786 23.5 0.5 20.1421 0.5 16V8Z" fill="#FFF6DE"/>
<path d="M0.5 8C0.5 3.85786 3.85786 0.5 8 0.5H16C20.1421 0.5 23.5 3.85786 23.5 8V16C23.5 20.1421 20.1421 23.5 16 23.5H8C3.85786 23.5 0.5 20.1421 0.5 16V8Z" stroke="#FFF1C1"/>
<path d="M18 12C18 15.3137 15.3137 18 12 18C8.68629 18 6 15.3137 6 12M18 12C18 8.68629 15.3137 6 12 6M18 12H16.5M6 12C6 8.68629 8.68629 6 12 6M6 12H7.5M12 6V7.5M16.2471 7.8L12.8999 11.1M16.2471 16.2471L16.1247 16.1247C15.7096 15.7096 15.5021 15.5021 15.2599 15.3537C15.0452 15.2221 14.811 15.1251 14.5662 15.0663C14.2899 15 13.9964 15 13.4094 15L10.5906 15C10.0036 15 9.71005 15 9.43384 15.0663C9.18896 15.1251 8.95485 15.2221 8.74012 15.3537C8.49792 15.5021 8.29038 15.7097 7.8753 16.1247L7.75298 16.2471M7.75298 7.8L8.79485 8.84187M13.2 12C13.2 12.6627 12.6627 13.2 12 13.2C11.3373 13.2 10.8 12.6627 10.8 12C10.8 11.3373 11.3373 10.8 12 10.8C12.6627 10.8 13.2 11.3373 13.2 12Z" stroke="#FF9400" stroke-linecap="round" stroke-linejoin="round"/>
</svg>
