<svg width="25" height="24" viewBox="0 0 25 24" fill="none" xmlns="http://www.w3.org/2000/svg">
<rect x="1" y="0.5" width="23" height="23" rx="7.5" fill="#ECFDEC"/>
<rect x="1" y="0.5" width="23" height="23" rx="7.5" stroke="#D3FAD1"/>
<path d="M8.3 12C8.3 9.6804 10.1804 7.8 12.5 7.8M15.1999 9.3L12.4999 12M18.5 12C18.5 15.3137 15.8137 18 12.5 18C9.18629 18 6.5 15.3137 6.5 12C6.5 8.68629 9.18629 6 12.5 6C15.8137 6 18.5 8.68629 18.5 12ZM13.1 12C13.1 12.3314 12.8314 12.6 12.5 12.6C12.1686 12.6 11.9 12.3314 11.9 12C11.9 11.6686 12.1686 11.4 12.5 11.4C12.8314 11.4 13.1 11.6686 13.1 12Z" stroke="#28A948" stroke-linecap="round" stroke-linejoin="round"/>
</svg>
