<svg width="984" height="553" viewBox="0 0 984 553" fill="none" xmlns="http://www.w3.org/2000/svg">
<rect width="984" height="553" rx="12" fill="#E2E2F0"/>
<g opacity="0.4">
<path d="M840.03 135.227H806.331L784.59 328.005L824.811 323.093L840.03 135.227Z" fill="#B5B5DC"/>
<path d="M348.676 228.547H301.933L405.204 355.019L428.032 326.778L348.676 228.547Z" fill="#B5B5DC"/>
<path d="M496.518 300.994L451.948 298.538L532.391 390.63L551.958 367.3L496.518 300.994Z" fill="#B3CDE7"/>
<path d="M591.091 502.367H546.521L736.758 276.436L762.848 303.449L591.091 502.367Z" fill="#B5B5DC"/>
<path d="M447.6 456.934L404.117 460.618L451.948 406.591L471.515 425.009L447.6 456.934Z" fill="#B3CDE7"/>
<path d="M197.574 502.368L145.395 506.051L292.148 339.059L319.325 368.528L197.574 502.368Z" fill="#B5B5DC"/>
<path d="M301.933 228.547L103 453.251L145.396 506.05L292.149 339.057L404.117 459.39L451.948 405.363L547.61 502.367L736.759 275.207L784.59 325.551L805.245 134L637.836 162.241L686.754 216.269L532.391 389.401L451.948 298.537L404.117 356.248L301.933 228.547Z" fill="#CDCDE5"/>
</g>
<path d="M876.785 321.055C876.785 333.98 866.678 344.149 853.759 343.751C840.313 343.339 829 331.725 829 317.831C829 303.936 840.307 293.847 853.759 295.247C866.678 296.597 876.785 308.128 876.785 321.055Z" fill="url(#paint0_linear_2917_23771)"/>
<path d="M880.28 319.938C880.28 332.866 870.17 343.035 857.251 342.634C843.808 342.218 832.492 330.608 832.492 316.714C832.492 302.819 843.802 292.73 857.251 294.13C870.17 295.48 880.28 307.013 880.28 319.938Z" fill="url(#paint1_linear_2917_23771)"/>
<path d="M878.536 319.734C878.536 331.684 869.178 341.057 857.249 340.662C844.869 340.246 834.497 329.544 834.497 316.769C834.497 303.995 844.875 294.692 857.249 295.945C869.178 297.148 878.536 307.782 878.536 319.734Z" fill="url(#paint2_linear_2917_23771)"/>
<path d="M856.084 307.746C856.257 307.766 856.417 307.848 856.533 307.978C856.65 308.107 856.715 308.275 856.717 308.449V309.661C857.424 309.74 858.126 309.862 858.818 310.026C859.336 310.149 859.85 310.293 860.359 310.46C860.51 310.509 860.641 310.608 860.729 310.74C860.817 310.872 860.859 311.029 860.847 311.188L860.699 312.708C860.692 312.8 860.663 312.89 860.613 312.968C860.564 313.046 860.497 313.112 860.417 313.158C860.337 313.205 860.247 313.231 860.155 313.235C860.062 313.239 859.97 313.22 859.887 313.181C859.55 313.031 859.204 312.903 858.852 312.796C858.217 312.605 857.564 312.483 856.903 312.432L856.724 312.416V315.889C858.548 316.399 859.891 317.086 860.754 317.95C861.18 318.369 861.515 318.87 861.738 319.424C861.962 319.977 862.069 320.571 862.053 321.168C862.053 322.558 861.578 323.673 860.626 324.512C859.667 325.357 858.324 325.833 856.586 325.935V327.279C856.587 327.361 856.572 327.444 856.54 327.52C856.509 327.597 856.462 327.667 856.403 327.725C856.343 327.782 856.273 327.828 856.195 327.857C856.118 327.887 856.035 327.901 855.952 327.897H855.941C855.769 327.888 855.608 327.814 855.49 327.689C855.371 327.564 855.306 327.398 855.306 327.227V325.908L855.023 325.895C854.239 325.861 853.457 325.777 852.683 325.644C852.137 325.55 851.598 325.426 851.066 325.272C850.912 325.229 850.776 325.134 850.684 325.002C850.591 324.871 850.547 324.712 850.558 324.551L850.733 322.602C850.741 322.505 850.772 322.411 850.823 322.328C850.874 322.245 850.945 322.175 851.028 322.124C851.111 322.073 851.205 322.043 851.303 322.035C851.4 322.028 851.498 322.043 851.588 322.081C852.77 322.549 854.017 322.835 855.285 322.929L855.296 319.066C853.544 318.633 852.236 317.991 851.372 317.139C850.508 316.288 850.074 315.196 850.072 313.863C850.072 312.488 850.542 311.427 851.482 310.679C852.422 309.932 853.744 309.563 855.449 309.573V308.334C855.446 308.252 855.461 308.17 855.492 308.094C855.524 308.018 855.572 307.95 855.632 307.894C855.692 307.839 855.764 307.796 855.842 307.771C855.92 307.745 856.002 307.737 856.084 307.746V307.746ZM855.449 312.38C854.992 312.389 854.55 312.544 854.187 312.822C854.037 312.95 853.918 313.11 853.839 313.291C853.76 313.472 853.724 313.668 853.732 313.865C853.727 314.057 853.762 314.248 853.834 314.426C853.906 314.604 854.015 314.765 854.153 314.899C854.432 315.177 854.865 315.398 855.452 315.564L855.449 312.38ZM856.571 319.374V322.917C857.159 322.917 857.611 322.777 857.926 322.496C858.087 322.344 858.213 322.159 858.294 321.953C858.375 321.747 858.411 321.525 858.397 321.304C858.405 321.091 858.37 320.878 858.295 320.678C858.22 320.477 858.106 320.294 857.96 320.138C857.666 319.828 857.205 319.574 856.571 319.374V319.374Z" fill="#6A4000"/>
<path d="M795.196 216.275C795.196 237.425 778.657 254.065 757.516 253.414C735.512 252.739 717 233.735 717 210.998C717 188.261 735.502 171.75 757.516 174.041C778.657 176.251 795.196 195.119 795.196 216.275Z" fill="url(#paint3_linear_2917_23771)"/>
<path d="M800.915 214.445C800.915 235.601 784.371 252.241 763.231 251.585C741.232 250.905 722.715 231.906 722.715 209.169C722.715 186.432 741.222 169.921 763.231 172.212C784.371 174.421 800.915 193.295 800.915 214.445Z" fill="url(#paint4_linear_2917_23771)"/>
<path d="M798.061 214.112C798.061 233.666 782.747 249.004 763.227 248.358C742.969 247.678 725.996 230.164 725.996 209.26C725.996 188.356 742.979 173.133 763.227 175.183C782.747 177.151 798.061 194.554 798.061 214.112Z" fill="url(#paint5_linear_2917_23771)"/>
<path d="M761.321 194.493C761.604 194.526 761.866 194.661 762.057 194.873C762.247 195.085 762.354 195.359 762.358 195.644V197.627C763.514 197.757 764.662 197.957 765.795 198.225C766.643 198.425 767.484 198.662 768.317 198.935C768.564 199.015 768.777 199.176 768.922 199.392C769.067 199.608 769.134 199.866 769.115 200.126L768.873 202.614C768.861 202.765 768.813 202.91 768.733 203.039C768.653 203.167 768.542 203.274 768.412 203.35C768.281 203.426 768.133 203.469 767.982 203.476C767.831 203.482 767.68 203.452 767.544 203.387C766.993 203.142 766.427 202.932 765.85 202.757C764.812 202.445 763.742 202.245 762.661 202.162L762.368 202.135V207.818C765.352 208.653 767.551 209.777 768.963 211.191C769.659 211.876 770.208 212.697 770.573 213.603C770.939 214.509 771.115 215.48 771.09 216.457C771.09 218.732 770.311 220.557 768.753 221.93C767.185 223.312 764.987 224.091 762.142 224.259V226.457C762.145 226.592 762.119 226.727 762.068 226.853C762.016 226.978 761.939 227.092 761.842 227.187C761.745 227.281 761.63 227.355 761.503 227.404C761.377 227.453 761.241 227.475 761.106 227.469H761.087C760.806 227.455 760.542 227.332 760.348 227.128C760.155 226.924 760.047 226.653 760.048 226.372V224.213L759.585 224.192C758.301 224.137 757.022 224 755.755 223.783C754.863 223.628 753.98 223.425 753.11 223.174C752.857 223.103 752.636 222.947 752.484 222.732C752.333 222.517 752.26 222.256 752.278 221.994L752.565 218.804C752.578 218.645 752.629 218.491 752.712 218.355C752.796 218.219 752.911 218.105 753.047 218.022C753.183 217.938 753.338 217.889 753.497 217.876C753.656 217.864 753.816 217.89 753.963 217.951C755.898 218.718 757.938 219.186 760.013 219.338L760.032 213.017C757.165 212.309 755.024 211.258 753.61 209.865C752.196 208.472 751.487 206.685 751.483 204.504C751.483 202.253 752.252 200.516 753.791 199.294C755.329 198.071 757.492 197.468 760.282 197.483V195.455C760.277 195.321 760.301 195.187 760.353 195.063C760.405 194.939 760.483 194.828 760.581 194.736C760.68 194.645 760.797 194.576 760.925 194.534C761.052 194.492 761.187 194.478 761.321 194.493V194.493ZM760.282 202.077C759.534 202.092 758.81 202.345 758.216 202.8C757.971 203.009 757.777 203.271 757.648 203.567C757.519 203.863 757.459 204.184 757.472 204.506C757.464 204.821 757.521 205.133 757.639 205.425C757.758 205.716 757.935 205.98 758.161 206.199C758.618 206.653 759.327 207.015 760.287 207.287L760.282 202.077ZM762.118 213.522V219.32C763.081 219.32 763.82 219.091 764.335 218.631C764.599 218.382 764.804 218.079 764.937 217.741C765.071 217.404 765.128 217.042 765.106 216.68C765.118 216.331 765.062 215.982 764.939 215.655C764.816 215.327 764.63 215.027 764.391 214.772C763.91 214.264 763.155 213.849 762.118 213.522V213.522Z" fill="#6A4000"/>
<path d="M769.58 361.181C769.58 368.912 763.535 374.994 755.808 374.756C747.766 374.509 741 367.563 741 359.253C741 350.943 747.762 344.908 755.808 345.746C763.535 346.553 769.58 353.449 769.58 361.181Z" fill="url(#paint6_linear_2917_23771)"/>
<path d="M771.67 360.513C771.67 368.246 765.623 374.327 757.896 374.088C749.856 373.839 743.088 366.895 743.088 358.585C743.088 350.275 749.852 344.24 757.896 345.078C765.623 345.885 771.67 352.783 771.67 360.513Z" fill="url(#paint7_linear_2917_23771)"/>
<path d="M770.626 360.392C770.626 367.538 765.029 373.144 757.895 372.908C750.491 372.66 744.287 366.259 744.287 358.618C744.287 350.978 750.494 345.414 757.895 346.163C765.029 346.883 770.626 353.243 770.626 360.392Z" fill="url(#paint8_linear_2917_23771)"/>
<path d="M757.199 353.221C757.303 353.233 757.398 353.282 757.468 353.36C757.538 353.437 757.577 353.537 757.578 353.642V354.366C758.001 354.414 758.42 354.487 758.834 354.585C759.144 354.658 759.452 354.745 759.756 354.844C759.846 354.874 759.924 354.933 759.977 355.011C760.03 355.09 760.055 355.185 760.048 355.28L759.959 356.189C759.955 356.244 759.938 356.297 759.908 356.344C759.879 356.391 759.838 356.43 759.791 356.458C759.743 356.486 759.689 356.502 759.634 356.504C759.578 356.506 759.523 356.495 759.473 356.472C759.272 356.382 759.065 356.305 758.855 356.241C758.475 356.127 758.084 356.054 757.689 356.024L757.582 356.014V358.091C758.673 358.396 759.476 358.807 759.992 359.324C760.247 359.574 760.447 359.874 760.581 360.205C760.714 360.537 760.779 360.892 760.769 361.249C760.769 362.08 760.485 362.747 759.915 363.249C759.342 363.754 758.539 364.039 757.499 364.1V364.903C757.5 364.953 757.491 365.002 757.472 365.048C757.453 365.094 757.425 365.135 757.39 365.17C757.354 365.205 757.312 365.232 757.266 365.25C757.219 365.267 757.17 365.275 757.12 365.273H757.114C757.011 365.268 756.914 365.223 756.844 365.149C756.773 365.074 756.734 364.975 756.734 364.872V364.083L756.565 364.076C756.095 364.055 755.628 364.005 755.165 363.926C754.839 363.87 754.516 363.795 754.198 363.704C754.105 363.678 754.025 363.621 753.969 363.542C753.914 363.463 753.887 363.368 753.894 363.272L753.999 362.106C754.004 362.048 754.022 361.992 754.053 361.942C754.083 361.893 754.125 361.851 754.175 361.82C754.225 361.79 754.281 361.772 754.339 361.767C754.398 361.763 754.456 361.772 754.51 361.794C755.217 362.075 755.963 362.246 756.721 362.302L756.728 359.991C755.68 359.732 754.898 359.348 754.381 358.839C753.864 358.33 753.605 357.677 753.604 356.88C753.604 356.057 753.885 355.422 754.447 354.975C755.009 354.529 755.8 354.308 756.819 354.314V353.573C756.818 353.523 756.826 353.475 756.845 353.429C756.864 353.384 756.893 353.343 756.929 353.31C756.965 353.276 757.008 353.251 757.054 353.236C757.101 353.221 757.15 353.215 757.199 353.221V353.221ZM756.819 355.993C756.546 355.998 756.281 356.091 756.064 356.257C755.975 356.333 755.904 356.429 755.856 356.537C755.809 356.645 755.787 356.763 755.792 356.881C755.789 356.996 755.81 357.11 755.853 357.216C755.897 357.323 755.962 357.419 756.044 357.499C756.211 357.665 756.47 357.798 756.821 357.897L756.819 355.993ZM757.491 360.176V362.295C757.842 362.295 758.112 362.211 758.301 362.043C758.397 361.952 758.472 361.841 758.521 361.718C758.57 361.595 758.591 361.462 758.583 361.33C758.587 361.202 758.566 361.075 758.521 360.955C758.477 360.836 758.408 360.726 758.321 360.633C758.145 360.447 757.869 360.295 757.491 360.176V360.176Z" fill="#6A4000"/>
<path d="M727.547 295.994C727.547 305.067 720.451 312.206 711.382 311.927C701.942 311.637 694 303.484 694 293.73C694 283.975 701.938 276.892 711.382 277.875C720.451 278.823 727.547 286.918 727.547 295.994Z" fill="url(#paint9_linear_2917_23771)"/>
<path d="M730 295.209C730 304.285 722.902 311.424 713.833 311.143C704.395 310.851 696.451 302.7 696.451 292.946C696.451 283.191 704.391 276.108 713.833 277.091C722.902 278.039 730 286.136 730 295.209Z" fill="url(#paint10_linear_2917_23771)"/>
<path d="M728.776 295.066C728.776 303.455 722.206 310.035 713.832 309.758C705.141 309.466 697.859 301.953 697.859 292.985C697.859 284.017 705.145 277.486 713.832 278.365C722.206 279.21 728.776 286.676 728.776 295.066Z" fill="url(#paint11_linear_2917_23771)"/>
<path d="M713.014 286.65C713.136 286.664 713.248 286.722 713.33 286.813C713.412 286.904 713.458 287.021 713.459 287.144V287.994C713.955 288.05 714.448 288.136 714.934 288.251C715.298 288.337 715.658 288.438 716.016 288.555C716.122 288.59 716.213 288.659 716.275 288.752C716.337 288.844 716.366 288.955 716.358 289.066L716.254 290.134C716.249 290.198 716.229 290.261 716.194 290.316C716.16 290.371 716.112 290.417 716.056 290.45C716 290.482 715.937 290.501 715.872 290.504C715.807 290.506 715.743 290.493 715.684 290.466C715.448 290.36 715.205 290.27 714.958 290.195C714.512 290.061 714.053 289.976 713.589 289.94L713.464 289.928V292.367C714.744 292.725 715.687 293.207 716.293 293.814C716.592 294.108 716.827 294.46 716.984 294.848C717.141 295.237 717.216 295.654 717.205 296.073C717.205 297.049 716.871 297.831 716.203 298.421C715.53 299.014 714.587 299.348 713.367 299.42V300.363C713.368 300.421 713.357 300.479 713.335 300.532C713.313 300.586 713.28 300.635 713.238 300.676C713.196 300.716 713.147 300.748 713.093 300.769C713.038 300.79 712.98 300.799 712.922 300.797H712.914C712.794 300.791 712.68 300.738 712.597 300.651C712.514 300.563 712.468 300.447 712.468 300.326V299.4L712.27 299.391C711.719 299.367 711.17 299.309 710.626 299.215C710.244 299.149 709.865 299.062 709.492 298.954C709.383 298.924 709.288 298.857 709.223 298.765C709.158 298.672 709.127 298.561 709.135 298.448L709.258 297.08C709.264 297.011 709.285 296.945 709.321 296.887C709.357 296.829 709.406 296.78 709.465 296.744C709.523 296.708 709.589 296.687 709.658 296.682C709.726 296.676 709.795 296.687 709.858 296.714C710.688 297.043 711.563 297.243 712.453 297.309L712.461 294.597C711.231 294.293 710.313 293.842 709.706 293.245C709.1 292.647 708.795 291.88 708.794 290.944C708.794 289.979 709.124 289.234 709.784 288.709C710.444 288.185 711.372 287.926 712.568 287.933V287.063C712.566 287.005 712.577 286.948 712.599 286.895C712.621 286.841 712.655 286.793 712.697 286.754C712.739 286.715 712.79 286.686 712.844 286.668C712.899 286.65 712.957 286.644 713.014 286.65V286.65ZM712.568 289.903C712.248 289.91 711.937 290.018 711.682 290.214C711.577 290.303 711.494 290.416 711.438 290.543C711.383 290.67 711.357 290.807 711.363 290.946C711.36 291.081 711.384 291.215 711.435 291.34C711.486 291.465 711.562 291.578 711.658 291.672C711.855 291.867 712.159 292.022 712.571 292.138L712.568 289.903ZM713.356 294.814V297.301C713.769 297.301 714.086 297.203 714.308 297.005C714.421 296.899 714.509 296.768 714.566 296.624C714.623 296.479 714.648 296.324 714.638 296.168C714.643 296.018 714.619 295.869 714.566 295.728C714.514 295.588 714.434 295.459 714.331 295.35C714.125 295.132 713.801 294.954 713.356 294.814V294.814Z" fill="#6A4000"/>
<g filter="url(#filter0_i_2917_23771)">
<path d="M862.924 96.3791C852.797 104.489 838.575 111.361 821.487 121.057L843.034 116.833C839.793 120.404 835.124 125.379 832.642 127.417C837.656 126.195 845.978 122.978 848.907 120.982C848.23 124.434 842.933 129.394 840.499 132.193C852.928 125.173 864.791 115.955 869.833 106.808L862.924 96.3791Z" fill="#6B6BBC"/>
<path d="M865.159 97.3265C859.03 102.816 850.535 107.602 840.292 114.282L853.018 111.041C851.033 113.43 848.176 116.76 846.676 118.138C849.645 117.224 854.593 114.953 856.362 113.587C855.883 115.838 852.662 119.176 851.16 121.039C858.608 116.201 865.779 109.949 868.951 103.911L865.15 97.3223" fill="white"/>
<path d="M905.609 46.0509C891.365 54.3077 871.832 42.8803 863.654 50.0964L879.379 68.4658L905.609 46.0509Z" fill="white"/>
<path d="M928.882 73.2385C918.511 86.0184 926.779 107.065 918.38 114.026L902.661 95.6552L928.882 73.2385Z" fill="white"/>
<path d="M946.21 35.0108L928.44 37.8511L940.646 52.1105L946.21 35.0108Z" fill="#1B1B43"/>
<path d="M940.647 52.1087C933.184 77.8636 909.004 98.5275 882.799 107.51L864.681 86.3636C879.239 59.8188 899.974 42.8602 928.44 37.8493L940.647 52.1087Z" fill="#6B6BBC"/>
<path d="M864.681 86.3636L854.113 90.9828L876.589 117.24L882.799 107.51L864.681 86.3636Z" fill="white"/>
<path d="M916.999 69.4293C922.586 69.848 927.457 65.6622 927.879 60.0801C928.301 54.4979 924.114 49.6332 918.527 49.2145C912.94 48.7958 908.069 52.9816 907.647 58.5638C907.225 64.1459 911.412 69.0106 916.999 69.4293Z" fill="white"/>
</g>
<path d="M222.198 524.972L221.446 444.958L244.608 443.905L232.426 524.972H222.198Z" fill="#000A03"/>
<path d="M222.336 522.584C222.336 522.584 219.449 528.581 219.612 533.577L248.306 533.692C248.306 533.692 247.19 530.901 239.643 528.379C235.061 526.848 233.165 526.79 231.423 522.603L222.336 522.584Z" fill="#FF5C5C"/>
<path d="M219.705 533.596L219.694 536.089L248.398 536.214L248.409 533.721L219.705 533.596Z" fill="#000A03"/>
<path d="M256.039 520.611C256.039 509.181 266.867 454.735 266.868 442.703C266.869 433.955 290.598 439.283 288.676 447.817C283.562 470.527 270.597 510.125 266.868 520.611C264.461 527.379 256.039 524.84 256.039 520.611Z" fill="#000A03"/>
<path d="M256.635 519.734C256.635 519.734 252.788 525.166 252.117 530.119L280.391 535.014C280.391 535.014 279.755 532.076 272.735 528.332C268.472 526.059 266.612 525.686 265.592 521.267L256.635 519.734Z" fill="#FF5C5C"/>
<path d="M252.205 530.155L251.779 532.611L280.061 537.517L280.487 535.061L252.205 530.155Z" fill="#000A03"/>
<path d="M237.39 368.554C252.13 401.943 262.056 443.755 267.32 448.869C273.153 454.535 289.408 448.311 288.675 445.861C284.312 431.273 278.899 396.379 273.336 364.493C270.907 350.577 231.684 355.63 237.39 368.554Z" fill="#000A03"/>
<path d="M221.444 444.509C221.444 432.627 217.385 370.36 217.383 357.727C217.381 344.864 250.321 344.864 250.321 357.727C250.321 380.437 244.606 436.839 244.606 444.509C244.606 453.554 221.443 453.554 221.444 444.509Z" fill="#000A03"/>
<g filter="url(#filter1_i_2917_23771)">
<path d="M310.335 320.276C297.699 313.357 274.838 306.74 261.455 299.971C254.258 296.332 244.334 268.131 270.93 281.622C276.66 284.529 301.912 298.618 312.892 306.74C317.217 309.939 312.892 321.676 310.335 320.276Z" fill="#EB4F4F"/>
</g>
<g filter="url(#filter2_i_2917_23771)">
<path fill-rule="evenodd" clip-rule="evenodd" d="M224.303 279.516C224.303 279.516 237.297 274.441 246.111 274.748C255.209 275.064 261.48 275.996 268.07 282.569C275.544 290.023 270.477 327.945 270.477 327.945C270.481 328.033 272.159 362.535 270.627 364.493C265.212 371.411 218.137 356.822 218.137 356.822V335.444L217.986 335.466L224.303 279.516Z" fill="#FF5C5C"/>
</g>
<path d="M254.083 276.508L236.664 276.251C236.664 276.251 236.979 270.013 236.637 265.874C236.232 260.977 234.381 253.496 234.381 253.496L254.083 256.805V276.508Z" fill="#F39C89"/>
<path d="M246.139 284.374C241.163 284.751 236.664 276.252 236.664 276.252L245.237 270.838L254.261 276.252C254.261 276.252 250.612 284.035 246.139 284.374Z" fill="#F39C89"/>
<g filter="url(#filter3_i_2917_23771)">
<path d="M255.003 268.582C237.199 276.891 231.974 250.366 231.974 250.366L233.212 238.71H242.499L258.905 236.953C258.905 236.953 261.771 265.424 255.003 268.582Z" fill="#FFC4B7"/>
</g>
<path d="M220.628 261.61C214.503 257.343 220.024 249.505 226.494 253.162C225.058 231.92 227.546 224.829 241.418 225.989C250.821 214.668 268.333 228.603 265.227 253.162C274.889 249.766 278.306 256.904 271.266 265.007C277.563 271.626 270.662 281.293 262.812 274.935C260.138 284.864 252.115 283.035 250.303 266.226C260.793 258.064 261.133 251.238 257.204 237.224C257.824 240.873 257.937 242.787 257.204 245.672C248.962 243.393 244.274 243.001 235.724 244.801C234.726 243.254 234.559 241.802 234.603 238.705C232.446 248.634 232.267 259.514 241.418 266.226C242.108 280.858 230.549 286.345 227.443 273.194C216.832 280.945 209.327 265.007 220.628 261.61Z" fill="#000A03"/>
<g filter="url(#filter4_i_2917_23771)">
<path d="M360.417 310.95C350.34 309.597 312.74 307.04 312.74 307.04C312.042 312.109 307.794 318.214 310.952 320.019C314.111 321.824 345.226 319.674 360.417 318.621C363.405 318.414 363.386 311.349 360.417 310.95Z" fill="#EB4F4F"/>
</g>
<path d="M359.501 319.348C358.803 318.259 357.146 318.731 356.754 317.498C356.101 315.446 357.038 312.635 359.405 312.104C361.526 311.628 363.229 309.468 364.606 309.637C368.82 310.155 376.304 310.963 375.896 312.321C375.465 313.758 373.723 314.018 371.846 313.836C377.434 315.231 385.418 317.26 386.235 317.667C387.131 318.113 386.153 319.942 385.226 319.729C383.874 319.42 374.472 317.899 374.472 317.899C374.472 317.899 385.163 320.642 386.583 321.26C387.283 321.565 386.767 323.214 386.008 323.129C383.106 322.805 373.998 320.816 373.998 320.816C373.998 320.816 383.121 322.955 384.178 324.515C384.68 325.255 384.352 326.311 383.425 326.099C381.431 325.642 371.671 323.308 371.671 323.308C371.671 323.308 377.471 325.466 379.204 326.205C379.853 326.481 379.681 327.365 379.378 328.002C379.001 328.794 372.429 326.684 368.344 324.839C364.639 323.165 362.881 324.611 359.501 319.348Z" fill="#FFC4B7"/>
<g filter="url(#filter5_i_2917_23771)">
<path fill-rule="evenodd" clip-rule="evenodd" d="M207.858 310.46C205.03 319.444 202.271 328.208 200.116 333.104C200.03 333.3 200.011 333.497 200.052 333.693C199.968 334.077 199.983 334.483 200.116 334.909C202.723 343.265 209.988 358.798 215.864 371.361C219.824 379.827 223.153 386.945 224.001 389.609C224.87 392.343 229.518 387.009 228.964 384.195C227.988 379.24 225.776 371.513 223.187 362.471C220.618 353.497 217.678 343.228 215.208 333.091C218.455 325.915 227.641 306.568 235.899 291.49C238.612 286.536 233.035 279.672 228.857 278.098C224.68 276.523 220.375 278.612 218.074 282.307C215.336 286.703 211.538 298.768 207.858 310.46Z" fill="#EB4F4F"/>
</g>
<path d="M239.343 405.704C237.538 404.952 234.095 402.889 232.124 399.838C231.082 398.225 228.71 394.076 230.168 395.326C231.222 396.228 236.786 401.492 239.343 402.696C240.406 403.196 240.427 406.155 239.343 405.704Z" fill="#FFC4B7"/>
<path d="M225.508 378.631C223.087 378.294 220.157 379.807 220.394 382.24C220.995 388.407 226.259 393.447 230.17 400.589C233.3 406.305 240.104 407.553 239.512 406.942C230.037 397.166 229.495 388.894 231.541 388.894C234.399 388.894 232.276 390.663 237.089 393.671C238.871 394.784 237.732 391.165 235.886 388.858C234.081 386.602 230.922 379.383 225.508 378.631Z" fill="#FFC4B7"/>
<g filter="url(#filter6_i_2917_23771)">
<g clip-path="url(#clip0_2917_23771)">
<rect x="317" y="218" width="333" height="324" rx="162" fill="white"/>
<path d="M533.203 359.306H543.754L557.822 335.391C557.822 335.391 538.83 335.391 533.203 341.018C529.679 344.542 509.288 324.84 509.288 324.84V341.018L474.822 346.645C474.822 346.645 470.706 336.934 474.822 335.391C486.076 331.17 495.923 324.84 495.923 324.84L483.262 315.696L500.144 308.662L517.729 291.077L509.288 267.162L517.729 253.094V240.433L553.602 222.145H581.034L635.195 272.085L657 320.619L617.61 335.391H605.653C605.653 335.391 613.39 362.823 614.797 369.857C615.592 373.834 609.163 378.73 605.653 374.781C600.025 368.45 576.814 346.645 576.814 346.645L592.992 368.45L605.653 383.925C605.653 383.925 585.958 516.162 564.856 496.467C538.315 471.696 517.729 416.281 517.729 416.281C517.729 416.281 483.262 428.942 470.601 425.425C458.141 421.964 447.389 392.365 447.389 392.365C447.389 392.365 443.35 380.334 447.389 374.781C458.644 359.306 495.923 349.458 509.288 346.645C519.629 344.468 533.203 359.306 533.203 359.306Z" fill="#CDCDE5"/>
<path d="M494.517 531.637L409.406 530.934C427.811 538.076 446.57 549.114 464.974 556.256C464.974 556.256 481.806 556.225 494.517 556.256C506.954 556.285 516.59 557.308 528.983 556.256C555.328 554.019 588.068 523.196 588.068 523.196H569.076L507.178 537.967L494.517 531.637Z" fill="#CDCDE5"/>
<path d="M351.729 449.34L386.195 504.908L372.831 449.34L392.526 439.493L386.195 429.645L419.958 416.281V401.509C419.958 401.509 403.78 388.848 392.526 376.891C379.947 363.526 351.729 363.526 351.729 363.526V345.942L386.195 331.874L392.526 312.882L419.958 307.958L453.017 269.272L479.043 255.204V241.136H467.085L479.043 220.738L444.577 241.136L424.178 214.407L351.729 269.272L341.881 307.958V341.018V363.526L325 379.704L351.729 449.34Z" fill="#CDCDE5"/>
<path d="M635.198 373.373C626.704 370.405 623.241 353.678 623.241 353.678C623.241 353.678 641.219 346.469 647.156 353.678C652.045 359.616 647.156 373.373 647.156 373.373C647.156 373.373 639.607 374.914 635.198 373.373Z" fill="#CDCDE5"/>
<path d="M464.977 221.441L460.757 213H487.486L528.283 217.22L514.215 229.881L487.486 217.22L464.977 221.441Z" fill="#CDCDE5"/>
<path d="M464.977 324.136C460.757 321.322 457.017 304.049 464.977 303.738C470.426 303.525 474.965 307.458 475.528 312.882C476.151 318.874 469.99 327.478 464.977 324.136Z" fill="#CDCDE5"/>
</g>
</g>
<defs>
<filter id="filter0_i_2917_23771" x="821.487" y="35.0107" width="125.723" height="99.1826" filterUnits="userSpaceOnUse" color-interpolation-filters="sRGB">
<feFlood flood-opacity="0" result="BackgroundImageFix"/>
<feBlend mode="normal" in="SourceGraphic" in2="BackgroundImageFix" result="shape"/>
<feColorMatrix in="SourceAlpha" type="matrix" values="0 0 0 0 0 0 0 0 0 0 0 0 0 0 0 0 0 0 127 0" result="hardAlpha"/>
<feOffset dx="1" dy="2"/>
<feGaussianBlur stdDeviation="2"/>
<feComposite in2="hardAlpha" operator="arithmetic" k2="-1" k3="1"/>
<feColorMatrix type="matrix" values="0 0 0 0 0 0 0 0 0 0 0 0 0 0 0 0 0 0 0.25 0"/>
<feBlend mode="normal" in2="shape" result="effect1_innerShadow_2917_23771"/>
</filter>
<filter id="filter1_i_2917_23771" x="253.52" y="277.993" width="61.2119" height="46.3975" filterUnits="userSpaceOnUse" color-interpolation-filters="sRGB">
<feFlood flood-opacity="0" result="BackgroundImageFix"/>
<feBlend mode="normal" in="SourceGraphic" in2="BackgroundImageFix" result="shape"/>
<feColorMatrix in="SourceAlpha" type="matrix" values="0 0 0 0 0 0 0 0 0 0 0 0 0 0 0 0 0 0 127 0" result="hardAlpha"/>
<feOffset dy="4"/>
<feGaussianBlur stdDeviation="2"/>
<feComposite in2="hardAlpha" operator="arithmetic" k2="-1" k3="1"/>
<feColorMatrix type="matrix" values="0 0 0 0 0 0 0 0 0 0 0 0 0 0 0 0 0 0 0.08 0"/>
<feBlend mode="normal" in2="shape" result="effect1_innerShadow_2917_23771"/>
</filter>
<filter id="filter2_i_2917_23771" x="215.986" y="274.734" width="56.1689" height="95.6201" filterUnits="userSpaceOnUse" color-interpolation-filters="sRGB">
<feFlood flood-opacity="0" result="BackgroundImageFix"/>
<feBlend mode="normal" in="SourceGraphic" in2="BackgroundImageFix" result="shape"/>
<feColorMatrix in="SourceAlpha" type="matrix" values="0 0 0 0 0 0 0 0 0 0 0 0 0 0 0 0 0 0 127 0" result="hardAlpha"/>
<feOffset dx="-2" dy="4"/>
<feGaussianBlur stdDeviation="2"/>
<feComposite in2="hardAlpha" operator="arithmetic" k2="-1" k3="1"/>
<feColorMatrix type="matrix" values="0 0 0 0 0 0 0 0 0 0 0 0 0 0 0 0 0 0 0.08 0"/>
<feBlend mode="normal" in2="shape" result="effect1_innerShadow_2917_23771"/>
</filter>
<filter id="filter3_i_2917_23771" x="231.974" y="236.953" width="27.5342" height="37.2402" filterUnits="userSpaceOnUse" color-interpolation-filters="sRGB">
<feFlood flood-opacity="0" result="BackgroundImageFix"/>
<feBlend mode="normal" in="SourceGraphic" in2="BackgroundImageFix" result="shape"/>
<feColorMatrix in="SourceAlpha" type="matrix" values="0 0 0 0 0 0 0 0 0 0 0 0 0 0 0 0 0 0 127 0" result="hardAlpha"/>
<feOffset dy="4"/>
<feGaussianBlur stdDeviation="2"/>
<feComposite in2="hardAlpha" operator="arithmetic" k2="-1" k3="1"/>
<feColorMatrix type="matrix" values="0 0 0 0 0 0 0 0 0 0 0 0 0 0 0 0 0 0 0.25 0"/>
<feBlend mode="normal" in2="shape" result="effect1_innerShadow_2917_23771"/>
</filter>
<filter id="filter4_i_2917_23771" x="309.798" y="307.04" width="52.8535" height="17.6758" filterUnits="userSpaceOnUse" color-interpolation-filters="sRGB">
<feFlood flood-opacity="0" result="BackgroundImageFix"/>
<feBlend mode="normal" in="SourceGraphic" in2="BackgroundImageFix" result="shape"/>
<feColorMatrix in="SourceAlpha" type="matrix" values="0 0 0 0 0 0 0 0 0 0 0 0 0 0 0 0 0 0 127 0" result="hardAlpha"/>
<feOffset dy="4"/>
<feGaussianBlur stdDeviation="2"/>
<feComposite in2="hardAlpha" operator="arithmetic" k2="-1" k3="1"/>
<feColorMatrix type="matrix" values="0 0 0 0 0 0 0 0 0 0 0 0 0 0 0 0 0 0 0.08 0"/>
<feBlend mode="normal" in2="shape" result="effect1_innerShadow_2917_23771"/>
</filter>
<filter id="filter5_i_2917_23771" x="200" y="277.567" width="36.6143" height="116.799" filterUnits="userSpaceOnUse" color-interpolation-filters="sRGB">
<feFlood flood-opacity="0" result="BackgroundImageFix"/>
<feBlend mode="normal" in="SourceGraphic" in2="BackgroundImageFix" result="shape"/>
<feColorMatrix in="SourceAlpha" type="matrix" values="0 0 0 0 0 0 0 0 0 0 0 0 0 0 0 0 0 0 127 0" result="hardAlpha"/>
<feOffset dy="4"/>
<feGaussianBlur stdDeviation="2"/>
<feComposite in2="hardAlpha" operator="arithmetic" k2="-1" k3="1"/>
<feColorMatrix type="matrix" values="0 0 0 0 0 0 0 0 0 0 0 0 0 0 0 0 0 0 0.08 0"/>
<feBlend mode="normal" in2="shape" result="effect1_innerShadow_2917_23771"/>
</filter>
<filter id="filter6_i_2917_23771" x="317" y="218" width="333" height="324" filterUnits="userSpaceOnUse" color-interpolation-filters="sRGB">
<feFlood flood-opacity="0" result="BackgroundImageFix"/>
<feBlend mode="normal" in="SourceGraphic" in2="BackgroundImageFix" result="shape"/>
<feColorMatrix in="SourceAlpha" type="matrix" values="0 0 0 0 0 0 0 0 0 0 0 0 0 0 0 0 0 0 127 0" result="hardAlpha"/>
<feOffset/>
<feGaussianBlur stdDeviation="6"/>
<feComposite in2="hardAlpha" operator="arithmetic" k2="-1" k3="1"/>
<feColorMatrix type="matrix" values="0 0 0 0 0 0 0 0 0 0 0 0 0 0 0 0 0 0 0.12 0"/>
<feBlend mode="normal" in2="shape" result="effect1_innerShadow_2917_23771"/>
</filter>
<linearGradient id="paint0_linear_2917_23771" x1="40325.3" y1="42971.2" x2="35792.9" y2="44400" gradientUnits="userSpaceOnUse">
<stop stop-color="#FCB148"/>
<stop offset="0.05" stop-color="#FDBA46"/>
<stop offset="0.14" stop-color="#FFC244"/>
<stop offset="0.32" stop-color="#FFC444"/>
<stop offset="0.48" stop-color="#FDB946"/>
<stop offset="0.78" stop-color="#F99C4D"/>
<stop offset="0.87" stop-color="#F8924F"/>
<stop offset="1" stop-color="#F8924F"/>
</linearGradient>
<linearGradient id="paint1_linear_2917_23771" x1="43986.1" y1="38392.2" x2="39832.3" y2="47394.4" gradientUnits="userSpaceOnUse">
<stop stop-color="#FFDB44"/>
<stop offset="1" stop-color="#FEEF06"/>
</linearGradient>
<linearGradient id="paint2_linear_2917_23771" x1="38398.3" y1="37774.2" x2="41442.2" y2="44119.9" gradientUnits="userSpaceOnUse">
<stop stop-color="#FCB148"/>
<stop offset="0.05" stop-color="#FDBA46"/>
<stop offset="0.14" stop-color="#FFC244"/>
<stop offset="0.32" stop-color="#FFC444"/>
<stop offset="0.48" stop-color="#FDB946"/>
<stop offset="0.78" stop-color="#F99C4D"/>
<stop offset="0.87" stop-color="#F8924F"/>
<stop offset="1" stop-color="#F8924F"/>
</linearGradient>
<linearGradient id="paint3_linear_2917_23771" x1="65349" y1="70009.2" x2="57932.1" y2="72347.4" gradientUnits="userSpaceOnUse">
<stop stop-color="#FCB148"/>
<stop offset="0.05" stop-color="#FDBA46"/>
<stop offset="0.14" stop-color="#FFC244"/>
<stop offset="0.32" stop-color="#FFC444"/>
<stop offset="0.48" stop-color="#FDB946"/>
<stop offset="0.78" stop-color="#F99C4D"/>
<stop offset="0.87" stop-color="#F8924F"/>
<stop offset="1" stop-color="#F8924F"/>
</linearGradient>
<linearGradient id="paint4_linear_2917_23771" x1="71339.5" y1="62516.1" x2="64542.3" y2="77247.4" gradientUnits="userSpaceOnUse">
<stop stop-color="#FFDB44"/>
<stop offset="1" stop-color="#FEEF06"/>
</linearGradient>
<linearGradient id="paint5_linear_2917_23771" x1="62195.6" y1="61504.8" x2="67176.6" y2="71889" gradientUnits="userSpaceOnUse">
<stop stop-color="#FCB148"/>
<stop offset="0.05" stop-color="#FDBA46"/>
<stop offset="0.14" stop-color="#FFC244"/>
<stop offset="0.32" stop-color="#FFC444"/>
<stop offset="0.48" stop-color="#FDB946"/>
<stop offset="0.78" stop-color="#F99C4D"/>
<stop offset="0.87" stop-color="#F8924F"/>
<stop offset="1" stop-color="#F8924F"/>
</linearGradient>
<linearGradient id="paint6_linear_2917_23771" x1="24363.5" y1="25870" x2="21652.7" y2="26724.6" gradientUnits="userSpaceOnUse">
<stop stop-color="#FCB148"/>
<stop offset="0.05" stop-color="#FDBA46"/>
<stop offset="0.14" stop-color="#FFC244"/>
<stop offset="0.32" stop-color="#FFC444"/>
<stop offset="0.48" stop-color="#FDB946"/>
<stop offset="0.78" stop-color="#F99C4D"/>
<stop offset="0.87" stop-color="#F8924F"/>
<stop offset="1" stop-color="#F8924F"/>
</linearGradient>
<linearGradient id="paint7_linear_2917_23771" x1="26553" y1="23131.3" x2="24068.7" y2="28515.5" gradientUnits="userSpaceOnUse">
<stop stop-color="#FFDB44"/>
<stop offset="1" stop-color="#FEEF06"/>
</linearGradient>
<linearGradient id="paint8_linear_2917_23771" x1="23211" y1="22761.7" x2="25031.5" y2="26557" gradientUnits="userSpaceOnUse">
<stop stop-color="#FCB148"/>
<stop offset="0.05" stop-color="#FDBA46"/>
<stop offset="0.14" stop-color="#FFC244"/>
<stop offset="0.32" stop-color="#FFC444"/>
<stop offset="0.48" stop-color="#FDB946"/>
<stop offset="0.78" stop-color="#F99C4D"/>
<stop offset="0.87" stop-color="#F8924F"/>
<stop offset="1" stop-color="#F8924F"/>
</linearGradient>
<linearGradient id="paint9_linear_2917_23771" x1="28421.7" y1="30237.7" x2="25239.7" y2="31240.8" gradientUnits="userSpaceOnUse">
<stop stop-color="#FCB148"/>
<stop offset="0.05" stop-color="#FDBA46"/>
<stop offset="0.14" stop-color="#FFC244"/>
<stop offset="0.32" stop-color="#FFC444"/>
<stop offset="0.48" stop-color="#FDB946"/>
<stop offset="0.78" stop-color="#F99C4D"/>
<stop offset="0.87" stop-color="#F8924F"/>
<stop offset="1" stop-color="#F8924F"/>
</linearGradient>
<linearGradient id="paint10_linear_2917_23771" x1="30991.6" y1="27023.1" x2="28075.6" y2="33343" gradientUnits="userSpaceOnUse">
<stop stop-color="#FFDB44"/>
<stop offset="1" stop-color="#FEEF06"/>
</linearGradient>
<linearGradient id="paint11_linear_2917_23771" x1="27068.8" y1="26589.3" x2="29205.7" y2="31044.2" gradientUnits="userSpaceOnUse">
<stop stop-color="#FCB148"/>
<stop offset="0.05" stop-color="#FDBA46"/>
<stop offset="0.14" stop-color="#FFC244"/>
<stop offset="0.32" stop-color="#FFC444"/>
<stop offset="0.48" stop-color="#FDB946"/>
<stop offset="0.78" stop-color="#F99C4D"/>
<stop offset="0.87" stop-color="#F8924F"/>
<stop offset="1" stop-color="#F8924F"/>
</linearGradient>
<clipPath id="clip0_2917_23771">
<rect x="317" y="218" width="333" height="324" rx="162" fill="white"/>
</clipPath>
</defs>
</svg>
