<svg width="474" height="395" viewBox="0 0 474 395" fill="none" xmlns="http://www.w3.org/2000/svg">
<g opacity="0.04">
<mask id="mask0_2088_2596" style="mask-type:luminance" maskUnits="userSpaceOnUse" x="0" y="0" width="474" height="395">
<path d="M473.223 0H0V394.226H473.223V0Z" fill="white"/>
</mask>
<g mask="url(#mask0_2088_2596)">
<path d="M183.155 90.9704H182.945C169.905 87.2271 156.106 94.7138 151.691 107.077C146.81 120.365 154.551 135.587 168.221 139.792C201.705 149.295 216.09 101.316 183.155 90.9704Z" fill="#0D0D0D"/>
<path d="M468.511 158.807C425.397 64.4025 287.845 103.47 275.141 78.7434C237.916 20.3349 168.425 -12.4666 93.2979 4.43859C81.7315 -0.187573 41.8957 -1.44871 16.1525 14.7418L31.6745 21.596C32.8515 22.1005 32.5152 21.9743 34.2408 22.6049C41.2651 25.2533 40.044 24.4966 34.9975 27.2731C23.4291 34.0432 9.00209 41.9063 0 53.7229C0.37834 54.2694 19.8118 58.9376 19.8118 58.9376C20.1481 59.0217 23.7654 59.4 22.9666 60.9974C-40.5925 161.332 66.5879 312.756 118.621 394.251H269.252C245.991 352.62 219.407 295.811 228.493 257.25C230.133 250.268 232.237 241.396 240.819 240.219C261.555 236.896 289.318 237.19 309.088 234.962C309.088 234.962 309.186 234.962 309.382 234.962C313.588 234.752 416.563 221.674 441.213 285.844C443.315 291.731 448.153 287.903 450.087 284.036C468.469 247.493 480.332 189.967 468.595 158.849L468.511 158.807ZM302.274 127.816C295.039 140.725 290.117 157.504 288.856 172.137C288.181 181.432 289.15 190.598 290.075 199.892C290.579 205.021 290.621 211.497 286.5 214.862C282.924 217.889 276.993 218.183 271.02 218.603C241.701 218.477 170.191 218.603 142.64 199.85L142.472 199.724C102.384 175.292 80.9308 120.121 104.74 77.2701C112.437 62.721 126.614 53.2605 142.766 49.6853C163.545 44.933 186.428 48.4661 204.978 58.1789C212.551 62.0063 221.595 67.0529 228.493 72.8561C242.164 84.7988 253.858 97.204 271.776 101.029C280.022 103.384 288.604 103.047 296.847 104.731C312.285 108.43 308.415 117.22 302.232 127.731L302.274 127.816Z" fill="#0D0D0D"/>
</g>
</g>
<g filter="url(#filter0_d_2088_2596)">
<rect x="48.4023" y="97" width="200" height="200" rx="100" fill="white"/>
</g>
<rect x="98.4023" y="147" width="100" height="100" rx="24" fill="#171923"/>
<path d="M148.538 156.722C165.548 156.722 179.228 169.688 179.228 185.866C179.228 202.043 165.548 215.009 148.538 215.009C141.757 215.009 135.453 212.868 130.338 209.419V237.016H117.848V185.866C117.848 169.688 131.527 156.722 148.538 156.722ZM148.538 203.471C158.649 203.471 166.737 195.739 166.737 185.866C166.737 176.112 158.649 168.38 148.538 168.38C138.308 168.38 130.338 176.112 130.338 185.866C130.338 195.739 138.308 203.471 148.538 203.471Z" fill="white"/>
<g filter="url(#filter1_d_2088_2596)">
<rect x="228.402" y="97" width="200" height="200" rx="100" fill="white"/>
</g>
<rect x="278.402" y="147" width="100" height="100" rx="24" fill="#C6FE1E"/>
<mask id="mask1_2088_2596" style="mask-type:luminance" maskUnits="userSpaceOnUse" x="290" y="170" width="76" height="63">
<path d="M365.781 170.042H290.781V232.522H365.781V170.042Z" fill="white"/>
</mask>
<g mask="url(#mask1_2088_2596)">
<path d="M319.821 184.456H319.788C317.721 183.863 315.534 185.049 314.834 187.009C314.061 189.115 315.288 191.527 317.454 192.194C322.761 193.7 325.041 186.096 319.821 184.456Z" fill="#0D0D0D"/>
<path d="M365.046 195.207C358.213 180.245 336.413 186.437 334.399 182.518C328.5 173.261 317.486 168.063 305.58 170.742C303.746 170.009 297.433 169.809 293.353 172.375L295.813 173.461C296 173.541 295.946 173.521 296.22 173.621C297.333 174.041 297.139 173.921 296.34 174.361C294.506 175.434 292.22 176.68 290.793 178.553C290.853 178.639 293.933 179.379 293.933 179.379C293.986 179.393 294.559 179.452 294.433 179.706C284.36 195.607 301.346 219.606 309.593 232.522H333.466C329.78 225.924 325.566 216.921 327.006 210.809C327.266 209.703 327.6 208.297 328.96 208.11C332.246 207.583 336.646 207.63 339.78 207.277C339.78 207.277 339.795 207.277 339.826 207.277C340.493 207.244 356.813 205.171 360.72 215.341C361.053 216.274 361.82 215.667 362.126 215.055C365.04 209.263 366.92 200.146 365.06 195.214L365.046 195.207ZM338.7 190.296C337.553 192.342 336.773 195.001 336.573 197.32C336.466 198.793 336.62 200.246 336.766 201.719C336.846 202.532 336.853 203.558 336.2 204.091C335.633 204.571 334.693 204.618 333.746 204.684C329.1 204.664 317.766 204.684 313.4 201.712L313.373 201.692C307.02 197.82 303.619 189.076 307.393 182.285C308.613 179.979 310.86 178.479 313.42 177.913C316.713 177.16 320.339 177.72 323.279 179.259C324.48 179.866 325.913 180.665 327.006 181.585C329.173 183.478 331.026 185.444 333.866 186.05C335.173 186.423 336.533 186.37 337.84 186.637C340.286 187.223 339.673 188.616 338.693 190.282L338.7 190.296Z" fill="#0D0D0D"/>
</g>
<defs>
<filter id="filter0_d_2088_2596" x="16.4023" y="61" width="264" height="264" filterUnits="userSpaceOnUse" color-interpolation-filters="sRGB">
<feFlood flood-opacity="0" result="BackgroundImageFix"/>
<feColorMatrix in="SourceAlpha" type="matrix" values="0 0 0 0 0 0 0 0 0 0 0 0 0 0 0 0 0 0 127 0" result="hardAlpha"/>
<feOffset dy="-4"/>
<feGaussianBlur stdDeviation="16"/>
<feComposite in2="hardAlpha" operator="out"/>
<feColorMatrix type="matrix" values="0 0 0 0 0 0 0 0 0 0 0 0 0 0 0 0 0 0 0.1 0"/>
<feBlend mode="normal" in2="BackgroundImageFix" result="effect1_dropShadow_2088_2596"/>
<feBlend mode="normal" in="SourceGraphic" in2="effect1_dropShadow_2088_2596" result="shape"/>
</filter>
<filter id="filter1_d_2088_2596" x="191.402" y="69" width="264" height="264" filterUnits="userSpaceOnUse" color-interpolation-filters="sRGB">
<feFlood flood-opacity="0" result="BackgroundImageFix"/>
<feColorMatrix in="SourceAlpha" type="matrix" values="0 0 0 0 0 0 0 0 0 0 0 0 0 0 0 0 0 0 127 0" result="hardAlpha"/>
<feOffset dx="-5" dy="4"/>
<feGaussianBlur stdDeviation="16"/>
<feComposite in2="hardAlpha" operator="out"/>
<feColorMatrix type="matrix" values="0 0 0 0 0.168627 0 0 0 0 0.454902 0 0 0 0 0.905882 0 0 0 0.1 0"/>
<feBlend mode="normal" in2="BackgroundImageFix" result="effect1_dropShadow_2088_2596"/>
<feBlend mode="normal" in="SourceGraphic" in2="effect1_dropShadow_2088_2596" result="shape"/>
</filter>
</defs>
</svg>
