<svg width="600" height="421" viewBox="0 0 600 421" fill="none" xmlns="http://www.w3.org/2000/svg">
<path d="M510 258C501.471 95.5563 363.302 24.3617 223 95.5562" stroke="#34835A" stroke-dasharray="2 2"/>
<path d="M278.084 0C278.084 12.3429 267.4 23.3143 254.045 23.3143C267.4 23.3143 278.084 34.2857 278.084 48C278.084 34.2857 288.768 23.3143 302.123 23.3143C287.432 23.3143 278.084 12.3429 278.084 0Z" fill="white"/>
<path d="M233.023 24C233.023 31.2 226.79 37.6 219 37.6C226.79 37.6 233.023 44 233.023 52C233.023 44 239.255 37.6 247.045 37.6C238.476 37.6 233.023 31.2 233.023 24Z" fill="white"/>
<path d="M190.5 212C190.5 221 182.278 229 172 229C182.278 229 190.5 237 190.5 247C190.5 237 198.722 229 209 229C197.694 229 190.5 221 190.5 212Z" fill="white"/>
<path d="M510 260.82C489.552 219.098 433.32 137.658 344.011 170.701C254.701 203.744 242.071 291.862 169 274.839" stroke="#34835A" stroke-dasharray="2 2"/>
<path d="M509 268.342C500.5 250.5 468.5 201 423 210C377.499 218.999 373.285 335.109 336 326" stroke="#34835A" stroke-dasharray="2 2"/>
<path d="M567.448 301.448C610.1 258.795 610.1 189.642 567.448 146.989C524.795 104.337 455.642 104.337 412.989 146.989C370.337 189.642 370.337 258.795 412.989 301.448C455.642 344.1 524.795 344.1 567.448 301.448Z" fill="white"/>
<path fill-rule="evenodd" clip-rule="evenodd" d="M598.461 209.32C594.212 206.943 590.535 204.707 589.263 203.44C577.372 191.678 583.527 169.267 573.802 168.897C572.348 168.843 572.017 172.22 571.125 173.885L568.502 175.807L564.758 175.736C564.209 176.404 563.66 177.071 563.111 177.738L560.247 177.071C556.766 175.461 555.889 175.508 555.488 176.137C554.451 177.75 560.621 184.319 563.639 184.563C568.06 184.923 566.234 176.342 570.166 177.611C572.71 178.434 574.145 186.111 573.326 191.766C571.896 201.664 567.377 214.925 563.283 214.988C561.829 215.009 561.394 212.013 560.797 211.249C559.723 209.871 558.159 207.578 556.67 205.843C555.18 204.107 553.298 202.387 551.879 200.847C550.46 199.307 549.397 198.02 548.16 196.607L542.195 191.987L537.498 191.971C535.541 191.971 539.702 195.685 540.804 197.545L545.268 201.912L549.29 204.844C549.29 204.844 552.45 208.505 553.169 209.33C553.887 210.154 555.764 212.828 556.329 212.99C556.895 213.153 558.652 213.055 559.717 213.968C560.782 214.88 561.155 217.455 562.349 218.152C563.543 218.85 564.733 218.242 565.872 217.566C567.011 216.89 567.806 215.789 568.909 214.31C570.013 212.83 571.281 210.596 572.467 208.728L573.238 210.792L571.477 230.169L568.26 241.523C568.26 241.523 564.273 250.942 563.801 251.871C563.33 252.799 564.246 259.949 564.537 260.606C564.829 261.262 565.986 263.381 566.299 264.554C566.612 265.727 566.414 266.239 566.342 267.46C566.269 268.682 566.7 270.119 565.872 271.858C565.044 273.598 562.306 276.518 561.592 277.45C560.878 278.382 559.124 279.618 558.461 280.03C557.797 280.443 557.615 283.026 557.678 283.939C557.74 284.852 558.376 287.942 558.079 289.412C557.781 290.882 557.325 290.194 556.038 292.049C554.75 293.904 551.305 299.144 550.362 300.563C549.419 301.982 548.149 306.288 547.264 307.719C546.38 309.149 541.686 311.768 540.397 312.03C539.107 312.292 538.978 313.361 537.911 314.063C536.845 314.765 533.637 319.227 531.512 318.281C529.386 317.335 530.958 312.146 530.848 310.92C530.739 309.695 528.723 306.909 528.572 305.838C528.421 304.767 527.286 302.373 526.662 301.644C526.038 300.915 523.548 298.786 522.92 297.269C522.292 295.753 522.863 294.644 523.212 293.323C523.56 292.002 524.973 291.521 524.973 289.494C524.973 287.467 525.09 284.936 523.196 281.942C521.302 278.947 516.137 274.356 513.998 272.151C511.859 269.947 510.671 270.433 510.389 268.721C510.107 267.009 512.571 265.742 512.673 264.37C512.775 262.998 512.074 262.719 510.89 261.956C509.706 261.194 507.152 260.69 505.79 259.939C504.428 259.189 503.833 258.346 502.799 257.494C501.766 256.642 500.735 257.588 498.817 258.303C496.899 259.019 493.677 260.598 491.35 261.767C489.023 262.935 486.777 264.544 484.859 265.308C482.941 266.073 481.97 266.319 479.939 266.309C477.907 266.299 474.925 266.329 472.807 265.263C470.69 264.198 469.966 262.982 467.762 260.181C465.558 257.381 461.022 253.606 459.628 248.507C458.235 243.407 459.38 235.607 459.89 231.379C460.401 227.151 461.56 225.734 462.63 223.461C463.701 221.188 465.081 219.722 466.304 217.853C467.674 215.772 469.695 214.198 470.645 211.833C471.408 209.932 470.488 207.533 471.222 205.608C472.005 203.579 473.721 202.229 474.972 200.542C475.782 199.445 476.52 198.403 477.988 197.983C479.455 197.563 481.174 198.751 483.311 198.149C485.448 197.547 488.108 195.693 490.505 194.465C494.885 191.746 498.437 188.263 501.001 190.016C502.009 190.706 502.49 192.811 503.373 195.178C503.764 196.21 504.302 196.654 505.099 197.186C505.895 197.717 509.894 197.878 510.751 197.981C511.608 198.085 516.595 199.291 516.595 199.291L518.515 197.512C519.493 196.601 518.464 194.463 519.121 193.224C519.601 192.317 520.662 191.912 521.566 191.754C522.374 191.611 522.74 192.254 523.942 192.38C525.143 192.505 527.507 193.267 528.778 192.507C530.048 191.746 529.108 189.469 530.279 188.597C531.449 187.726 533.606 188.697 534.886 187.939C536.166 187.18 536.931 185.884 537.398 184.372C537.866 182.859 537.494 181.022 537.541 179.346L535.708 175.693L532.831 177.527L526.372 181.34L521.709 178.123L519.765 172.828L517.497 173.844L517.092 176.981C517.092 176.981 517.906 181.952 517.902 182.786C517.898 183.621 517.018 184.215 517.018 184.215C517.018 184.215 512.863 180.341 512.477 179.307C512.092 178.273 509.575 174.902 508.9 173.512C508.224 172.122 505.338 172.144 504.152 171.423C502.966 170.701 500.604 171.032 499.686 171.36C498.768 171.688 499.854 172.576 499.967 173.385C500.081 174.194 502.083 175.592 503.015 176.237C503.946 176.882 509.457 178.862 509.338 179.253C509.303 179.366 508.218 179.475 508.256 180.23C508.293 180.984 509.449 182.394 509.43 183.248C509.401 184.503 509.234 185.576 508.751 185.613C506.668 185.771 507.649 183.056 506.367 181.77C505.518 180.918 501.866 180.646 501.112 180.294C500.083 179.81 497.605 178.023 497.002 177.167C496.4 176.311 493.108 176.016 493.108 176.016L490.11 178.709C490.11 178.709 487.517 182.57 486.945 183.656C486.374 184.743 484.904 190.597 484.792 191.59C484.681 192.583 481.289 195.843 480.487 196.085L475.623 197.491C474.813 197.725 469.046 194.387 468.142 192.213C467.237 190.04 472.328 181.401 473.502 181.391C474.676 181.381 479.009 183.105 480.6 181.334C482.191 179.563 480.821 176.403 479.757 174.425C478.692 172.447 474.6 172.795 474.747 170.447C474.893 168.1 478.136 169.007 480.203 167.256C482.27 165.504 484.751 162.441 487.025 160.035C487.025 160.035 488.325 157.272 488.507 155.985C488.689 154.699 491.75 155.047 491.75 155.047C505.942 152.16 499.527 145.108 501.144 141.592C501.496 140.824 502.905 141.357 504.453 138.316C504.864 137.501 504.398 136.557 504.177 136.442C503.12 135.906 500.443 140.296 498.684 140.245C497.989 140.226 497.349 139.684 496.501 138.15C496.018 137.276 496.893 134.01 497.519 132.494C498.643 129.794 495.517 128.801 493.517 129.698C492.382 130.207 494.38 132.435 494.38 132.435C494.38 132.435 494.816 134.706 494.241 136.627C493.666 138.549 494.045 139.79 494.045 139.79C494.045 139.79 495.525 144.141 495.713 145.489C496.351 150.061 495.813 151.523 494.824 151.498C492.969 151.449 489.525 146.164 489.272 146.342C488.599 146.817 489.395 151.492 487.595 151.637C486.922 151.691 486.078 150.497 484.638 147.897C482.753 144.498 482.434 144.323 484.591 139.147C485.865 136.086 485.374 130.441 487.642 126.264C490.534 120.922 496.564 117.717 502.339 122.668C505.183 125.105 505.862 123.87 505.306 118.548C505.218 117.694 505.128 116.957 505.011 116.28C553.415 122.854 591.741 161.034 598.461 209.32Z" fill="#A2DABD"/>
<path fill-rule="evenodd" clip-rule="evenodd" d="M415.803 304.168C397.08 286.89 384.424 263.161 381.383 236.518C381.46 234.866 381.546 233.307 381.657 231.987C381.935 228.668 382.233 226.5 382.732 224.294C383.231 222.087 383.577 219.976 384.646 218.809C385.714 217.641 387.683 218.311 388.292 218.211C388.9 218.111 389.366 221.849 389.427 222.386C389.487 222.923 390.92 226.381 391.219 226.858C391.519 227.334 394.984 230.138 395.525 230.913C396.065 231.689 396.061 234.79 396.061 235.395C396.061 236 397.296 242.661 397.853 242.909C398.411 243.157 400.249 243.69 401.2 244.401C402.151 245.112 402.701 245.475 403.411 247.084C404.122 248.693 405.261 251.847 405.384 253.881C405.507 255.916 403.719 257.424 404.128 258.892C404.537 260.36 406.867 260.78 407.415 261.157C407.963 261.534 412.503 264.795 412.615 265.213C412.727 265.631 415.235 268.124 416.138 268.374C417.04 268.624 419.926 268.829 421.576 269.864C423.226 270.899 424.611 273.092 425.641 274.336C426.67 275.58 427.357 275.978 427.731 277.318C428.105 278.657 428.287 280.743 427.792 282.03C427.296 283.316 425.835 283.592 425.042 284.297C424.249 285.002 423.306 285.168 423.069 286.263C422.833 287.359 423.727 288.757 423.788 290.139C423.848 291.522 423.713 293.355 423.429 294.494C423.146 295.632 422.948 296.335 422.114 296.82C421.281 297.304 420.028 297.087 419.007 297.058C417.985 297.028 416.731 296.234 416.018 296.64C415.306 297.046 416.286 297.772 416.496 298.489C416.705 299.206 417.545 300.124 417.279 300.934L416.382 303.617L415.795 304.177L415.803 304.168ZM392.855 173.945C402.747 154.914 418.013 139.194 436.766 128.732C437.378 128.723 437.983 128.611 438.557 128.402C439.682 127.994 440.862 127.035 442.007 125.992C444.617 124.719 447.275 123.547 449.984 122.477C450.168 122.461 450.347 122.407 450.51 122.319L450.78 122.175C459.587 118.796 468.797 116.575 478.178 115.569C478.161 115.592 478.139 115.615 478.118 115.641C476.959 116.889 473.918 116.93 471.783 117.43C468.556 118.185 464.346 118.681 462.1 119.695C459.853 120.708 457.098 123.092 458.873 123.274C460.648 123.456 463.19 122.151 464.446 122.102C465.703 122.054 467.119 122.298 466.164 123.028C465.209 123.758 462.38 125.711 461.622 126.248C460.865 126.785 457.798 128.037 458.037 128.872C458.276 129.708 458.346 134.34 458.843 134C459.34 133.661 461.074 132.958 462.131 132.301C463.188 131.645 463.681 129.872 464.939 129.616L471.544 128.275C472.297 128.102 473.059 127.978 473.828 127.904C475.041 127.802 475.775 130.882 478.394 132.018C481.29 133.278 485.973 132.28 486.006 133.881C486.1 138.292 481.38 142.922 479.433 145.597C475.1 151.538 470.039 152.588 462.462 153.139C460.505 153.281 457.649 156.048 456.004 157.261C453.655 158.843 452.231 161.049 450.966 158.454C449.724 155.902 450.336 153.52 452.094 151.583C453.143 150.476 454.388 149.571 455.765 148.913C458.207 147.695 465.448 140.112 465.448 137.105C465.448 136.388 464.969 135.912 465.806 135.316C466.765 134.633 470.959 132.05 470.223 131.311C469.957 131.044 466.241 131.977 465.448 131.977C464.73 131.977 460.068 134.004 460.068 134.004L453.734 142.953C451.033 145.97 451.225 145.99 448.279 146.091C446.477 146.154 442.545 149.011 442.543 148.991C442.179 146.09 443.77 142.426 446.921 141.641C447.615 141.452 448.294 141.213 448.953 140.925C449.71 140.21 450.595 139.648 451.223 138.777C451.851 137.906 452.489 136.677 452.657 135.795C452.825 134.912 453.291 133.514 452.18 133.768C451.068 134.022 449.831 136.131 448.473 136.75C447.115 137.369 445.585 137.365 444.291 137.345C442.997 137.326 441.986 136.426 440.825 136.631C439.469 136.869 438.187 136.715 436.76 137.345C435.131 138.026 433.664 139.042 432.455 140.327C430.98 141.879 429.627 144.5 428.032 146.529C426.437 148.558 423.819 151.053 422.893 152.492C421.968 153.932 421.222 154.941 422.654 154.879C424.087 154.816 426.404 153.457 428.271 152.254C430.138 151.051 432.152 148.898 433.77 147.722C437.535 144.988 439.794 143.231 440.389 143.621C441.054 144.072 439.694 147.062 437.236 150.821C436.627 151.752 435.408 153.777 436.281 153.445C440.021 152.018 440.929 149.462 439.835 153.918C439.332 155.966 436.757 157.609 436.299 159.116C435.22 162.666 436.238 164.937 434.404 166.146C431.561 168.005 429.228 167.685 427.482 166.825C425.394 165.8 424.155 164.006 423.87 164.24C420.441 167.151 423.713 173.017 422.29 173.881C420.805 174.785 418.478 170.977 415.05 171.112C413.875 171.158 413.813 171.859 411.897 173.135C409.744 174.982 407.501 173.486 405.879 174.386C404.752 175.011 404.196 178.12 403.01 178.784C401.511 179.625 399.623 179.112 397.558 180.762C396.421 181.668 395.405 184.31 393.967 185.657C391.836 190.373 391.119 192.98 390.515 193.663C389.247 195.085 390.297 189.032 392.652 183.218C394.274 178.321 394.243 175.685 392.855 173.945Z" fill="#A2DABD"/>
<rect width="172" height="106" rx="12" transform="matrix(-1 0 0 1 365 315)" fill="white"/>
<g filter="url(#filter0_i_5333_21241)">
<path d="M257.111 383.18C251.944 380.352 242.598 377.646 237.126 374.879C234.184 373.391 230.126 361.861 241 367.377C243.343 368.565 253.667 374.325 258.156 377.646C259.925 378.954 258.156 383.753 257.111 383.18Z" fill="#EB4F4F"/>
</g>
<g filter="url(#filter1_i_5333_21241)">
<path fill-rule="evenodd" clip-rule="evenodd" d="M221.936 366.516C221.936 366.516 227.249 364.441 230.853 364.566C234.572 364.695 237.136 365.076 239.831 367.764C242.883 370.808 240.819 386.282 240.815 386.316L240.815 386.316C240.815 386.316 241.503 400.457 240.876 401.259C238.662 404.087 219.415 398.122 219.415 398.122V389.382L219.354 389.391L221.936 366.516Z" fill="#FF5C5C"/>
</g>
<path d="M234.112 365.285L226.99 365.181C226.99 365.181 227.119 362.63 226.979 360.938C226.813 358.936 226.057 355.877 226.057 355.877L234.112 357.23V365.285Z" fill="#F39C89"/>
<path d="M230.864 368.502C228.83 368.656 226.99 365.181 226.99 365.181L230.495 362.967L234.185 365.181C234.185 365.181 232.693 368.363 230.864 368.502Z" fill="#F39C89"/>
<path d="M234.488 362.045C227.209 365.442 225.073 354.598 225.073 354.598L225.579 349.832H229.376L236.084 349.114C236.084 349.114 237.255 360.754 234.488 362.045Z" fill="#FFC4B7"/>
<path d="M220.434 359.195C217.93 357.45 220.187 354.245 222.832 355.741C222.245 347.056 223.262 344.156 228.934 344.631C232.778 340.002 239.938 345.7 238.668 355.741C242.619 354.352 244.015 357.27 241.137 360.583C243.712 363.29 240.89 367.242 237.681 364.643C236.587 368.702 233.307 367.954 232.567 361.082C236.855 357.745 236.994 354.954 235.388 349.225C235.641 350.716 235.688 351.499 235.388 352.678C232.018 351.747 230.102 351.586 226.606 352.322C226.198 351.69 226.129 351.096 226.148 349.83C225.266 353.889 225.193 358.338 228.934 361.082C229.216 367.064 224.49 369.308 223.22 363.931C218.882 367.1 215.813 360.583 220.434 359.195Z" fill="#000A03"/>
<g filter="url(#filter2_i_5333_21241)">
<path d="M277.587 379.368C273.467 378.814 258.094 377.769 258.094 377.769C257.808 379.841 256.072 382.337 257.363 383.075C258.654 383.813 271.376 382.934 277.587 382.504C278.809 382.419 278.801 379.531 277.587 379.368Z" fill="#EB4F4F"/>
</g>
<path d="M277.213 382.801C276.927 382.356 276.249 382.549 276.089 382.045C275.822 381.206 276.205 380.056 277.173 379.839C278.04 379.645 278.737 378.762 279.299 378.831C281.023 379.042 284.083 379.372 283.916 379.928C283.739 380.515 283.027 380.622 282.26 380.547C284.544 381.118 287.809 381.947 288.143 382.114C288.509 382.296 288.109 383.044 287.73 382.957C287.178 382.83 283.333 382.209 283.333 382.209C283.333 382.209 287.705 383.33 288.285 383.583C288.571 383.707 288.36 384.381 288.05 384.347C286.863 384.214 283.14 383.401 283.14 383.401C283.14 383.401 286.869 384.276 287.302 384.913C287.507 385.216 287.373 385.648 286.994 385.561C286.179 385.374 282.188 384.42 282.188 384.42C282.188 384.42 284.559 385.302 285.268 385.604C285.533 385.717 285.463 386.079 285.339 386.339C285.185 386.663 282.498 385.8 280.828 385.046C279.313 384.362 278.594 384.953 277.213 382.801Z" fill="#FFC4B7"/>
<g filter="url(#filter3_i_5333_21241)">
<path fill-rule="evenodd" clip-rule="evenodd" d="M215.213 379.167C214.057 382.84 212.929 386.424 212.047 388.425C212.012 388.505 212.005 388.586 212.021 388.666C211.987 388.823 211.993 388.989 212.048 389.163C213.113 392.58 216.084 398.93 218.486 404.067C220.105 407.528 221.466 410.438 221.813 411.528C222.168 412.645 224.069 410.465 223.842 409.314C223.443 407.288 222.538 404.129 221.48 400.432C220.43 396.763 219.228 392.565 218.218 388.42C219.545 385.486 223.301 377.576 226.677 371.411C227.787 369.386 225.506 366.58 223.798 365.936C222.09 365.292 220.33 366.146 219.39 367.657C218.27 369.454 216.718 374.387 215.213 379.167Z" fill="#EB4F4F"/>
</g>
<path d="M228.085 418.108C227.348 417.8 225.94 416.957 225.134 415.709C224.708 415.05 223.738 413.354 224.334 413.865C224.765 414.234 227.04 416.386 228.085 416.878C228.52 417.082 228.529 418.292 228.085 418.108Z" fill="#FFC4B7"/>
<path d="M222.429 407.039C221.439 406.901 220.241 407.52 220.338 408.515C220.584 411.036 222.736 413.097 224.335 416.017C225.615 418.353 228.397 418.864 228.155 418.614C224.281 414.617 224.059 411.235 224.896 411.235C226.064 411.235 225.196 411.958 227.164 413.188C227.892 413.643 227.427 412.164 226.672 411.22C225.934 410.298 224.643 407.346 222.429 407.039Z" fill="#FFC4B7"/>
<path d="M325.734 366.985C326.376 364.456 324.466 362 321.857 362H282.564C280.756 362 279.173 363.213 278.702 364.958L272.361 388.458C271.675 391 273.589 393.5 276.222 393.5H315.889C317.719 393.5 319.315 392.258 319.766 390.485L325.734 366.985Z" fill="#CBD5E0"/>
<rect width="38" height="4" rx="2" transform="matrix(-1 0 0 1 315 393)" fill="#CBD5E0"/>
<path d="M279 394H242.5C241.672 394 241 394.672 241 395.5C241 396.328 241.672 397 242.5 397H279V394Z" fill="#CBD5E0"/>
<path d="M365 397H193V409C193 415.627 198.373 421 205 421H353C359.627 421 365 415.627 365 409V397Z" fill="#A2DABD"/>
<rect width="172" height="106" rx="12" transform="matrix(-1 0 0 1 172 229)" fill="white"/>
<path d="M53.357 287.278C56.5987 287.843 45.8498 287.256 41.0396 287.241C41.0396 287.241 40.1588 282.292 39.9754 279.086C39.8069 276.14 40.0479 271.531 40.0479 271.531L51.9303 271.613C51.9303 271.613 50.1152 286.713 53.357 287.278Z" fill="#CF8574"/>
<g filter="url(#filter4_i_5333_21241)">
<path d="M63.3472 325.522L38.7969 296.987C38.7969 296.987 38.947 290.379 41.8163 288.094C44.6799 285.814 51.1398 287.134 51.1398 287.134L69.3601 317.743L63.3472 325.522Z" fill="#EB4F4F"/>
</g>
<path d="M57.8515 321.432C71.9998 308.122 63.1183 289.107 45.7561 282.42C45.7561 282.42 45.6903 282.458 45.5664 282.532C32.8771 285.447 32.2472 290.588 28.6854 297.565C24.355 306.048 28.3705 321.544 28.3705 321.544C28.3705 321.544 43.7031 334.742 57.8515 321.432Z" fill="#5C9DFF"/>
<path d="M134.734 280.985C135.376 278.456 133.466 276 130.857 276H91.5637C89.7559 276 88.1728 277.213 87.7018 278.958L81.3606 302.458C80.6746 305 82.5894 307.5 85.2224 307.5H124.889C126.719 307.5 128.315 306.258 128.766 304.485L134.734 280.985Z" fill="#CBD5E0"/>
<rect width="38" height="4" rx="2" transform="matrix(-1 0 0 1 124 307)" fill="#CBD5E0"/>
<path d="M88 308H51.5C50.6716 308 50 308.672 50 309.5C50 310.328 50.6716 311 51.5 311H88V308Z" fill="#CBD5E0"/>
<g filter="url(#filter5_i_5333_21241)">
<path d="M28.1226 321.115C28.1226 321.115 36.179 298.096 40.8108 286.905C42.0852 283.826 45.2661 282.679 48.5414 283.293C52.1961 283.978 55.56 287.148 54.5067 290.714C50.4983 304.286 37.3831 323.772 37.3831 323.772L28.1226 321.115Z" fill="#5C9DFF"/>
</g>
<path d="M37.0795 251.029C23.7452 255.764 31.7 269.279 36.7341 274.097C36.7341 274.097 48.266 284.16 52.2987 279.683C56.1963 275.357 53.1914 261.757 53.1914 261.757C52.97 255.309 49.4321 246.643 37.0795 251.029Z" fill="#E9A393"/>
<path d="M37.0798 251.029C23.7455 255.764 30.8145 269.687 35.8485 274.505C35.8485 274.505 40.921 278.266 40.6572 272.151C41.1026 270.809 40.0687 267.174 40.9393 265.245C44.9026 256.461 53.1916 261.757 53.1916 261.757C52.9702 255.309 49.4324 246.642 37.0798 251.029Z" fill="black" fill-opacity="0.92"/>
<ellipse cx="28.3981" cy="258.711" rx="5.5" ry="6" transform="rotate(6.57355 28.3981 258.711)" fill="black" fill-opacity="0.92"/>
<path d="M172 311H0V323C0 329.627 5.37259 335 12 335H160C166.627 335 172 329.627 172 323V311Z" fill="#A2DABD"/>
<rect width="172" height="106" rx="12" transform="matrix(-1 0 0 1 223 57)" fill="white"/>
<path d="M104.607 112.518C106.857 112.59 99.5207 113.225 96.2616 113.679C96.2616 113.679 95.3736 110.572 94.9474 108.51C94.5155 106.42 94.0846 103.084 94.0846 103.084L102.14 101.995C102.14 101.995 102.357 112.445 104.607 112.518Z" fill="#F5B4A6"/>
<g filter="url(#filter6_i_5333_21241)">
<path fill-rule="evenodd" clip-rule="evenodd" d="M93.867 118.175L111.711 131.359L111.711 131.359C111.711 131.359 111.711 131.359 111.711 131.359L131.076 141.025L133.177 138.603L115.498 127.646L101.995 113C101.995 113 97.4945 112.527 95.6086 113.724C93.719 114.924 93.867 118.175 93.867 118.175Z" fill="#3633C9"/>
</g>
<path d="M169.734 108.985C170.376 106.456 168.466 104 165.857 104H126.564C124.756 104 123.173 105.213 122.702 106.958L116.361 130.458C115.675 133 117.589 135.5 120.222 135.5H159.889C161.719 135.5 163.315 134.258 163.766 132.485L169.734 108.985Z" fill="#CBD5E0"/>
<rect width="38" height="4" rx="2" transform="matrix(-1 0 0 1 159 135)" fill="#CBD5E0"/>
<path d="M123 136H86.5C85.6716 136 85 136.672 85 137.5C85 138.328 85.6716 139 86.5 139H123V136Z" fill="#CBD5E0"/>
<g filter="url(#filter7_i_5333_21241)">
<path fill-rule="evenodd" clip-rule="evenodd" d="M109.624 128.63C111.792 116.888 110.3 112.474 99.9628 110.257C99.9628 110.257 99.928 110.28 99.8628 110.323C93.8069 112.232 92.9865 114.405 91.8891 117.311C91.7159 117.77 91.5358 118.247 91.3272 118.744C89.4662 123.177 92.8511 130.543 92.8511 130.543L93.0688 130.518V140.064C93.0688 140.064 93.8591 139.742 98.4309 141.538C103.656 143.003 108.344 143.66 109.614 141.538C111.281 138.754 109.757 129.425 109.624 128.63Z" fill="#5653FA"/>
</g>
<g filter="url(#filter8_i_5333_21241)">
<path fill-rule="evenodd" clip-rule="evenodd" d="M95.0849 132.883L95.7535 150H92.4879C92.4879 150 88.3515 138.098 88.3516 132.198C88.3516 131.607 88.5561 131.045 88.9468 130.586C90.0722 126.848 93.0587 117.129 95.0277 112.585C95.7065 111.019 98.1009 110.093 100.39 110.245C102.944 110.414 105.175 112.032 104.679 113.827C102.887 120.314 95.7939 131.749 95.0849 132.883Z" fill="#3633C9"/>
</g>
<path d="M95.2362 87.5204C85.5988 89.0758 89.3167 99.2363 92.134 103.131C92.134 103.131 96.1549 110.871 103.077 109.161C106.977 108.197 104.836 96.8036 104.836 96.8036C105.487 92.4006 104.164 86.0795 95.2362 87.5204Z" fill="#FFC4B7"/>
<path d="M95.2364 87.5201C85.599 89.0756 88.8693 100.264 91.6865 104.159C91.6865 104.159 94.5686 105.596 95.0381 102.299C95.5071 101.444 94.3586 97.8038 95.1893 96.6027C98.9708 91.1351 104.836 96.8034 104.836 96.8034C105.488 92.4004 106.415 85.7159 95.2364 87.5201Z" fill="black"/>
<path d="M106.361 90.0061C106.152 91.4742 105.352 93.7474 103.448 93.4762C101.543 93.2051 99.2547 90.4922 99.4638 89.0241C99.6728 87.556 102.125 87.5712 104.03 87.8423C105.086 85.0603 106.57 88.538 106.361 90.0061Z" fill="black"/>
<path d="M223 139H51V151C51 157.627 56.3726 163 63 163H211C217.627 163 223 157.627 223 151V139Z" fill="#A2DABD"/>
<path d="M189.386 75.0909L198.318 94.5227L195.045 95.8864L184.682 75.0909H189.386ZM196 94.5227L204.932 75.0909H209.636L199.273 95.8864L196 94.5227ZM199.273 91.6591V110H195.045V91.6591H199.273ZM206.909 92.6136V95.6818H187.409V92.6136H206.909ZM206.909 99.3636V102.432H187.409V99.3636H206.909Z" fill="#34835A"/>
<path d="M351.614 341.341L350.455 345.295H328.364L329.523 341.341H351.614ZM341.25 368L328.773 352.727L328.705 349.864H334.909C336.523 349.864 337.898 349.636 339.034 349.182C340.17 348.716 341.04 348.023 341.642 347.102C342.244 346.17 342.545 345 342.545 343.591C342.545 341.511 341.92 339.881 340.67 338.699C339.42 337.506 337.5 336.909 334.909 336.909H328.364L329.523 333.091H334.909C337.682 333.091 339.955 333.551 341.727 334.472C343.511 335.381 344.83 336.631 345.682 338.222C346.545 339.801 346.977 341.591 346.977 343.591C346.977 345.398 346.58 347.062 345.784 348.585C345 350.097 343.739 351.312 342 352.233C340.273 353.153 337.989 353.614 335.148 353.614H335.045L346.568 367.727V368H341.25ZM351.614 333.091L350.455 337.045L333.068 336.909L334.227 333.091H351.614Z" fill="#34835A"/>
<path d="M153.023 259.432L151.455 262.841H129.227L130.455 259.432H153.023ZM150.091 266.25L148.523 269.659H129.227L130.455 266.25H150.091ZM157.045 250.227L155.409 253.773C154.682 253.114 153.915 252.545 153.108 252.068C152.301 251.591 151.455 251.222 150.568 250.96C149.682 250.699 148.75 250.568 147.773 250.568C145.841 250.568 144.102 251.102 142.557 252.17C141.011 253.239 139.79 254.812 138.892 256.892C137.994 258.972 137.545 261.523 137.545 264.545C137.545 267.568 137.994 270.119 138.892 272.199C139.79 274.278 141.011 275.852 142.557 276.92C144.102 277.989 145.841 278.523 147.773 278.523C148.773 278.523 149.716 278.392 150.602 278.131C151.5 277.869 152.335 277.511 153.108 277.057C153.892 276.602 154.614 276.091 155.273 275.523L156.977 279.068C155.784 280.193 154.386 281.045 152.784 281.625C151.182 282.193 149.511 282.477 147.773 282.477C144.977 282.477 142.5 281.75 140.341 280.295C138.193 278.841 136.506 276.773 135.278 274.091C134.063 271.409 133.455 268.227 133.455 264.545C133.455 260.864 134.063 257.682 135.278 255C136.506 252.318 138.193 250.25 140.341 248.795C142.5 247.341 144.977 246.614 147.773 246.614C149.58 246.614 151.267 246.926 152.835 247.551C154.415 248.176 155.818 249.068 157.045 250.227Z" fill="#34835A"/>
<defs>
<filter id="filter0_i_5333_21241" x="233.882" y="365.893" width="25.0265" height="21.3345" filterUnits="userSpaceOnUse" color-interpolation-filters="sRGB">
<feFlood flood-opacity="0" result="BackgroundImageFix"/>
<feBlend mode="normal" in="SourceGraphic" in2="BackgroundImageFix" result="shape"/>
<feColorMatrix in="SourceAlpha" type="matrix" values="0 0 0 0 0 0 0 0 0 0 0 0 0 0 0 0 0 0 127 0" result="hardAlpha"/>
<feOffset dy="4"/>
<feGaussianBlur stdDeviation="2"/>
<feComposite in2="hardAlpha" operator="arithmetic" k2="-1" k3="1"/>
<feColorMatrix type="matrix" values="0 0 0 0 0 0 0 0 0 0 0 0 0 0 0 0 0 0 0.08 0"/>
<feBlend mode="normal" in2="shape" result="effect1_innerShadow_5333_21241"/>
</filter>
<filter id="filter1_i_5333_21241" x="217.354" y="364.561" width="24.1471" height="41.4593" filterUnits="userSpaceOnUse" color-interpolation-filters="sRGB">
<feFlood flood-opacity="0" result="BackgroundImageFix"/>
<feBlend mode="normal" in="SourceGraphic" in2="BackgroundImageFix" result="shape"/>
<feColorMatrix in="SourceAlpha" type="matrix" values="0 0 0 0 0 0 0 0 0 0 0 0 0 0 0 0 0 0 127 0" result="hardAlpha"/>
<feOffset dx="-2" dy="4"/>
<feGaussianBlur stdDeviation="2"/>
<feComposite in2="hardAlpha" operator="arithmetic" k2="-1" k3="1"/>
<feColorMatrix type="matrix" values="0 0 0 0 0 0 0 0 0 0 0 0 0 0 0 0 0 0 0.08 0"/>
<feBlend mode="normal" in2="shape" result="effect1_innerShadow_5333_21241"/>
</filter>
<filter id="filter2_i_5333_21241" x="256.891" y="377.769" width="21.6091" height="9.59143" filterUnits="userSpaceOnUse" color-interpolation-filters="sRGB">
<feFlood flood-opacity="0" result="BackgroundImageFix"/>
<feBlend mode="normal" in="SourceGraphic" in2="BackgroundImageFix" result="shape"/>
<feColorMatrix in="SourceAlpha" type="matrix" values="0 0 0 0 0 0 0 0 0 0 0 0 0 0 0 0 0 0 127 0" result="hardAlpha"/>
<feOffset dy="4"/>
<feGaussianBlur stdDeviation="2"/>
<feComposite in2="hardAlpha" operator="arithmetic" k2="-1" k3="1"/>
<feColorMatrix type="matrix" values="0 0 0 0 0 0 0 0 0 0 0 0 0 0 0 0 0 0 0.08 0"/>
<feBlend mode="normal" in2="shape" result="effect1_innerShadow_5333_21241"/>
</filter>
<filter id="filter3_i_5333_21241" x="212" y="365.719" width="14.9701" height="50.1183" filterUnits="userSpaceOnUse" color-interpolation-filters="sRGB">
<feFlood flood-opacity="0" result="BackgroundImageFix"/>
<feBlend mode="normal" in="SourceGraphic" in2="BackgroundImageFix" result="shape"/>
<feColorMatrix in="SourceAlpha" type="matrix" values="0 0 0 0 0 0 0 0 0 0 0 0 0 0 0 0 0 0 127 0" result="hardAlpha"/>
<feOffset dy="4"/>
<feGaussianBlur stdDeviation="2"/>
<feComposite in2="hardAlpha" operator="arithmetic" k2="-1" k3="1"/>
<feColorMatrix type="matrix" values="0 0 0 0 0 0 0 0 0 0 0 0 0 0 0 0 0 0 0.08 0"/>
<feBlend mode="normal" in2="shape" result="effect1_innerShadow_5333_21241"/>
</filter>
<filter id="filter4_i_5333_21241" x="38.7969" y="286.754" width="30.5632" height="39.7681" filterUnits="userSpaceOnUse" color-interpolation-filters="sRGB">
<feFlood flood-opacity="0" result="BackgroundImageFix"/>
<feBlend mode="normal" in="SourceGraphic" in2="BackgroundImageFix" result="shape"/>
<feColorMatrix in="SourceAlpha" type="matrix" values="0 0 0 0 0 0 0 0 0 0 0 0 0 0 0 0 0 0 127 0" result="hardAlpha"/>
<feOffset dy="1"/>
<feGaussianBlur stdDeviation="2"/>
<feComposite in2="hardAlpha" operator="arithmetic" k2="-1" k3="1"/>
<feColorMatrix type="matrix" values="0 0 0 0 0 0 0 0 0 0 0 0 0 0 0 0 0 0 0.25 0"/>
<feBlend mode="normal" in2="shape" result="effect1_innerShadow_5333_21241"/>
</filter>
<filter id="filter5_i_5333_21241" x="25.1226" y="283.133" width="29.5802" height="42.6386" filterUnits="userSpaceOnUse" color-interpolation-filters="sRGB">
<feFlood flood-opacity="0" result="BackgroundImageFix"/>
<feBlend mode="normal" in="SourceGraphic" in2="BackgroundImageFix" result="shape"/>
<feColorMatrix in="SourceAlpha" type="matrix" values="0 0 0 0 0 0 0 0 0 0 0 0 0 0 0 0 0 0 127 0" result="hardAlpha"/>
<feOffset dx="-3" dy="2"/>
<feGaussianBlur stdDeviation="2"/>
<feComposite in2="hardAlpha" operator="arithmetic" k2="-1" k3="1"/>
<feColorMatrix type="matrix" values="0 0 0 0 0 0 0 0 0 0 0 0 0 0 0 0 0 0 0.07 0"/>
<feBlend mode="normal" in2="shape" result="effect1_innerShadow_5333_21241"/>
</filter>
<filter id="filter6_i_5333_21241" x="93.8643" y="112.908" width="39.3123" height="32.1175" filterUnits="userSpaceOnUse" color-interpolation-filters="sRGB">
<feFlood flood-opacity="0" result="BackgroundImageFix"/>
<feBlend mode="normal" in="SourceGraphic" in2="BackgroundImageFix" result="shape"/>
<feColorMatrix in="SourceAlpha" type="matrix" values="0 0 0 0 0 0 0 0 0 0 0 0 0 0 0 0 0 0 127 0" result="hardAlpha"/>
<feOffset dy="4"/>
<feGaussianBlur stdDeviation="2"/>
<feComposite in2="hardAlpha" operator="arithmetic" k2="-1" k3="1"/>
<feColorMatrix type="matrix" values="0 0 0 0 0 0 0 0 0 0 0 0 0 0 0 0 0 0 0.25 0"/>
<feBlend mode="normal" in2="shape" result="effect1_innerShadow_5333_21241"/>
</filter>
<filter id="filter7_i_5333_21241" x="87.7686" y="110.257" width="22.714" height="32.6374" filterUnits="userSpaceOnUse" color-interpolation-filters="sRGB">
<feFlood flood-opacity="0" result="BackgroundImageFix"/>
<feBlend mode="normal" in="SourceGraphic" in2="BackgroundImageFix" result="shape"/>
<feColorMatrix in="SourceAlpha" type="matrix" values="0 0 0 0 0 0 0 0 0 0 0 0 0 0 0 0 0 0 127 0" result="hardAlpha"/>
<feOffset dx="-3"/>
<feGaussianBlur stdDeviation="2"/>
<feComposite in2="hardAlpha" operator="arithmetic" k2="-1" k3="1"/>
<feColorMatrix type="matrix" values="0 0 0 0 0 0 0 0 0 0 0 0 0 0 0 0 0 0 0.25 0"/>
<feBlend mode="normal" in2="shape" result="effect1_innerShadow_5333_21241"/>
</filter>
<filter id="filter8_i_5333_21241" x="88.3516" y="110.229" width="16.3972" height="43.7711" filterUnits="userSpaceOnUse" color-interpolation-filters="sRGB">
<feFlood flood-opacity="0" result="BackgroundImageFix"/>
<feBlend mode="normal" in="SourceGraphic" in2="BackgroundImageFix" result="shape"/>
<feColorMatrix in="SourceAlpha" type="matrix" values="0 0 0 0 0 0 0 0 0 0 0 0 0 0 0 0 0 0 127 0" result="hardAlpha"/>
<feOffset dy="4"/>
<feGaussianBlur stdDeviation="2"/>
<feComposite in2="hardAlpha" operator="arithmetic" k2="-1" k3="1"/>
<feColorMatrix type="matrix" values="0 0 0 0 0 0 0 0 0 0 0 0 0 0 0 0 0 0 0.25 0"/>
<feBlend mode="normal" in2="shape" result="effect1_innerShadow_5333_21241"/>
</filter>
</defs>
</svg>
