<svg width="456" height="499" viewBox="0 0 456 499" fill="none" xmlns="http://www.w3.org/2000/svg">
<rect x="65" y="343" width="60" height="99" rx="12" fill="white"/>
<rect x="165" y="288" width="60" height="154" rx="12" fill="white"/>
<rect x="265" y="240" width="60" height="202" rx="12" fill="white"/>
<rect x="365" y="192" width="60" height="250" rx="12" fill="white"/>
<path d="M0.999999 340.5C25.9188 346.669 59.4718 338.298 109.438 299.287M109.438 299.287C119.882 272.89 103.088 245.813 88.1301 254.608C73.1722 263.404 76.9348 293.372 109.438 299.287ZM109.438 299.287C207.5 254.608 264 218.5 382 93.9999" stroke="white" stroke-width="3"/>
<path d="M371.124 91.5868C361.065 103.488 345.894 114.872 328 130.248L352.416 120.298C349.422 125.257 345.072 132.202 342.619 135.178C348.244 132.581 357.308 126.867 360.298 123.838C360.298 128.066 355.204 135.137 352.983 139C366.006 127.854 377.854 114.246 381.68 102.295L371.124 91.5868" fill="#C28989"/>
<path opacity="0.4" d="M373.976 92.1891C368.024 100.077 359.12 107.68 348.594 117.921L362.842 111.164C361.056 114.44 358.459 119.026 357.011 120.997C360.298 119.235 365.604 115.415 367.372 113.397C367.328 116.162 364.305 120.842 362.965 123.386C370.624 115.962 377.628 106.934 379.969 99.0812L373.965 92.1862" fill="white"/>
<path d="M409.782 22.3831C394.905 35.4064 369.241 26.4314 361.273 36.8283L384.056 54.8693L409.782 22.3831Z" fill="white"/>
<path d="M443.503 49.0846C434.237 66.5499 448.852 89.4677 440.565 99.6148L417.788 81.5708L443.503 49.0846Z" fill="white"/>
<path d="M455.077 0L434.792 7.44733L452.477 21.4518L455.077 0Z" fill="white"/>
<path d="M452.477 21.4497C449.642 53.5481 425.928 83.4961 397.123 100.133L370.877 79.3685C381.891 44.7024 402.402 19.9191 434.792 7.44519L452.477 21.4497Z" fill="#C28989"/>
<path d="M370.877 79.3686L359.49 87.2537L392.056 113.042L397.123 100.133L370.877 79.3686Z" fill="white"/>
<path d="M428.616 47.3318C435.297 46.5374 440.07 40.4771 439.275 33.7956C438.481 27.1141 432.421 22.3417 425.739 23.136C419.058 23.9304 414.285 29.9907 415.08 36.6722C415.874 43.3537 421.934 48.1261 428.616 47.3318Z" fill="white"/>
<g filter="url(#filter0_d_5273_21725)">
<rect x="76" y="453.608" width="35.4439" height="35.4439" rx="17.7219" fill="#6C3838"/>
</g>
<g filter="url(#filter1_d_5273_21725)">
<rect x="78.4229" y="453" width="35.4439" height="35.4439" rx="17.7219" fill="#C28989"/>
</g>
<path fill-rule="evenodd" clip-rule="evenodd" d="M96.4918 461.126C96.9938 461.126 97.4006 461.533 97.4006 462.035V479.873C97.4006 480.374 96.9938 480.781 96.4918 480.781C95.9899 480.781 95.583 480.374 95.583 479.873V462.035C95.583 461.533 95.9899 461.126 96.4918 461.126Z" fill="white"/>
<path fill-rule="evenodd" clip-rule="evenodd" d="M90.7188 468.117C90.7188 466.048 92.3962 464.37 94.4654 464.37H100.546C101.048 464.37 101.455 464.777 101.455 465.279C101.455 465.781 101.048 466.188 100.546 466.188H94.4654C93.4 466.188 92.5364 467.051 92.5364 468.117C92.5364 469.182 93.4 470.046 94.4654 470.046H98.5194C100.589 470.046 102.266 471.723 102.266 473.792C102.266 475.862 100.589 477.539 98.5194 477.539H91.6276C91.1256 477.539 90.7188 477.132 90.7188 476.63C90.7188 476.128 91.1256 475.721 91.6276 475.721H98.5194C99.5848 475.721 100.448 474.858 100.448 473.792C100.448 472.727 99.5848 471.863 98.5194 471.863H94.4654C92.3962 471.863 90.7188 470.186 90.7188 468.117Z" fill="white"/>
<g filter="url(#filter2_d_5273_21725)">
<rect x="176" y="453.608" width="35.4439" height="35.4439" rx="17.7219" fill="#6C3838"/>
</g>
<g filter="url(#filter3_d_5273_21725)">
<rect x="178.423" y="453" width="35.4439" height="35.4439" rx="17.7219" fill="#C28989"/>
</g>
<path fill-rule="evenodd" clip-rule="evenodd" d="M196.492 461.126C196.994 461.126 197.401 461.533 197.401 462.035V479.873C197.401 480.374 196.994 480.781 196.492 480.781C195.99 480.781 195.583 480.374 195.583 479.873V462.035C195.583 461.533 195.99 461.126 196.492 461.126Z" fill="white"/>
<path fill-rule="evenodd" clip-rule="evenodd" d="M190.719 468.117C190.719 466.048 192.396 464.37 194.465 464.37H200.546C201.048 464.37 201.455 464.777 201.455 465.279C201.455 465.781 201.048 466.188 200.546 466.188H194.465C193.4 466.188 192.536 467.051 192.536 468.117C192.536 469.182 193.4 470.046 194.465 470.046H198.519C200.589 470.046 202.266 471.723 202.266 473.792C202.266 475.862 200.589 477.539 198.519 477.539H191.628C191.126 477.539 190.719 477.132 190.719 476.63C190.719 476.128 191.126 475.721 191.628 475.721H198.519C199.585 475.721 200.448 474.858 200.448 473.792C200.448 472.727 199.585 471.863 198.519 471.863H194.465C192.396 471.863 190.719 470.186 190.719 468.117Z" fill="white"/>
<g filter="url(#filter4_d_5273_21725)">
<rect x="276" y="453.608" width="35.4439" height="35.4439" rx="17.7219" fill="#6C3838"/>
</g>
<g filter="url(#filter5_d_5273_21725)">
<rect x="278.423" y="453" width="35.4439" height="35.4439" rx="17.7219" fill="#C28989"/>
</g>
<path fill-rule="evenodd" clip-rule="evenodd" d="M296.492 461.126C296.994 461.126 297.401 461.533 297.401 462.035V479.873C297.401 480.374 296.994 480.781 296.492 480.781C295.99 480.781 295.583 480.374 295.583 479.873V462.035C295.583 461.533 295.99 461.126 296.492 461.126Z" fill="white"/>
<path fill-rule="evenodd" clip-rule="evenodd" d="M290.719 468.117C290.719 466.048 292.396 464.37 294.465 464.37H300.546C301.048 464.37 301.455 464.777 301.455 465.279C301.455 465.781 301.048 466.188 300.546 466.188H294.465C293.4 466.188 292.536 467.051 292.536 468.117C292.536 469.182 293.4 470.046 294.465 470.046H298.519C300.589 470.046 302.266 471.723 302.266 473.792C302.266 475.862 300.589 477.539 298.519 477.539H291.628C291.126 477.539 290.719 477.132 290.719 476.63C290.719 476.128 291.126 475.721 291.628 475.721H298.519C299.585 475.721 300.448 474.858 300.448 473.792C300.448 472.727 299.585 471.863 298.519 471.863H294.465C292.396 471.863 290.719 470.186 290.719 468.117Z" fill="white"/>
<g filter="url(#filter6_d_5273_21725)">
<rect x="376" y="453.608" width="35.4439" height="35.4439" rx="17.7219" fill="#6C3838"/>
</g>
<g filter="url(#filter7_d_5273_21725)">
<rect x="378.423" y="453" width="35.4439" height="35.4439" rx="17.7219" fill="#C28989"/>
</g>
<path fill-rule="evenodd" clip-rule="evenodd" d="M396.492 461.126C396.994 461.126 397.401 461.533 397.401 462.035V479.873C397.401 480.374 396.994 480.781 396.492 480.781C395.99 480.781 395.583 480.374 395.583 479.873V462.035C395.583 461.533 395.99 461.126 396.492 461.126Z" fill="white"/>
<path fill-rule="evenodd" clip-rule="evenodd" d="M390.719 468.117C390.719 466.048 392.396 464.37 394.465 464.37H400.546C401.048 464.37 401.455 464.777 401.455 465.279C401.455 465.781 401.048 466.188 400.546 466.188H394.465C393.4 466.188 392.536 467.051 392.536 468.117C392.536 469.182 393.4 470.046 394.465 470.046H398.519C400.589 470.046 402.266 471.723 402.266 473.792C402.266 475.862 400.589 477.539 398.519 477.539H391.628C391.126 477.539 390.719 477.132 390.719 476.63C390.719 476.128 391.126 475.721 391.628 475.721H398.519C399.585 475.721 400.448 474.858 400.448 473.792C400.448 472.727 399.585 471.863 398.519 471.863H394.465C392.396 471.863 390.719 470.186 390.719 468.117Z" fill="white"/>
<defs>
<filter id="filter0_d_5273_21725" x="67" y="444.608" width="53.4438" height="53.4439" filterUnits="userSpaceOnUse" color-interpolation-filters="sRGB">
<feFlood flood-opacity="0" result="BackgroundImageFix"/>
<feColorMatrix in="SourceAlpha" type="matrix" values="0 0 0 0 0 0 0 0 0 0 0 0 0 0 0 0 0 0 127 0" result="hardAlpha"/>
<feOffset/>
<feGaussianBlur stdDeviation="4.5"/>
<feColorMatrix type="matrix" values="0 0 0 0 0.760784 0 0 0 0 0.8 0 0 0 0 0.843137 0 0 0 0.16 0"/>
<feBlend mode="normal" in2="BackgroundImageFix" result="effect1_dropShadow_5273_21725"/>
<feBlend mode="normal" in="SourceGraphic" in2="effect1_dropShadow_5273_21725" result="shape"/>
</filter>
<filter id="filter1_d_5273_21725" x="69.4229" y="444" width="53.4438" height="53.4439" filterUnits="userSpaceOnUse" color-interpolation-filters="sRGB">
<feFlood flood-opacity="0" result="BackgroundImageFix"/>
<feColorMatrix in="SourceAlpha" type="matrix" values="0 0 0 0 0 0 0 0 0 0 0 0 0 0 0 0 0 0 127 0" result="hardAlpha"/>
<feOffset/>
<feGaussianBlur stdDeviation="4.5"/>
<feColorMatrix type="matrix" values="0 0 0 0 0.760784 0 0 0 0 0.8 0 0 0 0 0.843137 0 0 0 0.16 0"/>
<feBlend mode="normal" in2="BackgroundImageFix" result="effect1_dropShadow_5273_21725"/>
<feBlend mode="normal" in="SourceGraphic" in2="effect1_dropShadow_5273_21725" result="shape"/>
</filter>
<filter id="filter2_d_5273_21725" x="167" y="444.608" width="53.4438" height="53.4439" filterUnits="userSpaceOnUse" color-interpolation-filters="sRGB">
<feFlood flood-opacity="0" result="BackgroundImageFix"/>
<feColorMatrix in="SourceAlpha" type="matrix" values="0 0 0 0 0 0 0 0 0 0 0 0 0 0 0 0 0 0 127 0" result="hardAlpha"/>
<feOffset/>
<feGaussianBlur stdDeviation="4.5"/>
<feColorMatrix type="matrix" values="0 0 0 0 0.760784 0 0 0 0 0.8 0 0 0 0 0.843137 0 0 0 0.16 0"/>
<feBlend mode="normal" in2="BackgroundImageFix" result="effect1_dropShadow_5273_21725"/>
<feBlend mode="normal" in="SourceGraphic" in2="effect1_dropShadow_5273_21725" result="shape"/>
</filter>
<filter id="filter3_d_5273_21725" x="169.423" y="444" width="53.4438" height="53.4439" filterUnits="userSpaceOnUse" color-interpolation-filters="sRGB">
<feFlood flood-opacity="0" result="BackgroundImageFix"/>
<feColorMatrix in="SourceAlpha" type="matrix" values="0 0 0 0 0 0 0 0 0 0 0 0 0 0 0 0 0 0 127 0" result="hardAlpha"/>
<feOffset/>
<feGaussianBlur stdDeviation="4.5"/>
<feColorMatrix type="matrix" values="0 0 0 0 0.760784 0 0 0 0 0.8 0 0 0 0 0.843137 0 0 0 0.16 0"/>
<feBlend mode="normal" in2="BackgroundImageFix" result="effect1_dropShadow_5273_21725"/>
<feBlend mode="normal" in="SourceGraphic" in2="effect1_dropShadow_5273_21725" result="shape"/>
</filter>
<filter id="filter4_d_5273_21725" x="267" y="444.608" width="53.4438" height="53.4439" filterUnits="userSpaceOnUse" color-interpolation-filters="sRGB">
<feFlood flood-opacity="0" result="BackgroundImageFix"/>
<feColorMatrix in="SourceAlpha" type="matrix" values="0 0 0 0 0 0 0 0 0 0 0 0 0 0 0 0 0 0 127 0" result="hardAlpha"/>
<feOffset/>
<feGaussianBlur stdDeviation="4.5"/>
<feColorMatrix type="matrix" values="0 0 0 0 0.760784 0 0 0 0 0.8 0 0 0 0 0.843137 0 0 0 0.16 0"/>
<feBlend mode="normal" in2="BackgroundImageFix" result="effect1_dropShadow_5273_21725"/>
<feBlend mode="normal" in="SourceGraphic" in2="effect1_dropShadow_5273_21725" result="shape"/>
</filter>
<filter id="filter5_d_5273_21725" x="269.423" y="444" width="53.4438" height="53.4439" filterUnits="userSpaceOnUse" color-interpolation-filters="sRGB">
<feFlood flood-opacity="0" result="BackgroundImageFix"/>
<feColorMatrix in="SourceAlpha" type="matrix" values="0 0 0 0 0 0 0 0 0 0 0 0 0 0 0 0 0 0 127 0" result="hardAlpha"/>
<feOffset/>
<feGaussianBlur stdDeviation="4.5"/>
<feColorMatrix type="matrix" values="0 0 0 0 0.760784 0 0 0 0 0.8 0 0 0 0 0.843137 0 0 0 0.16 0"/>
<feBlend mode="normal" in2="BackgroundImageFix" result="effect1_dropShadow_5273_21725"/>
<feBlend mode="normal" in="SourceGraphic" in2="effect1_dropShadow_5273_21725" result="shape"/>
</filter>
<filter id="filter6_d_5273_21725" x="367" y="444.608" width="53.4438" height="53.4439" filterUnits="userSpaceOnUse" color-interpolation-filters="sRGB">
<feFlood flood-opacity="0" result="BackgroundImageFix"/>
<feColorMatrix in="SourceAlpha" type="matrix" values="0 0 0 0 0 0 0 0 0 0 0 0 0 0 0 0 0 0 127 0" result="hardAlpha"/>
<feOffset/>
<feGaussianBlur stdDeviation="4.5"/>
<feColorMatrix type="matrix" values="0 0 0 0 0.760784 0 0 0 0 0.8 0 0 0 0 0.843137 0 0 0 0.16 0"/>
<feBlend mode="normal" in2="BackgroundImageFix" result="effect1_dropShadow_5273_21725"/>
<feBlend mode="normal" in="SourceGraphic" in2="effect1_dropShadow_5273_21725" result="shape"/>
</filter>
<filter id="filter7_d_5273_21725" x="369.423" y="444" width="53.4438" height="53.4439" filterUnits="userSpaceOnUse" color-interpolation-filters="sRGB">
<feFlood flood-opacity="0" result="BackgroundImageFix"/>
<feColorMatrix in="SourceAlpha" type="matrix" values="0 0 0 0 0 0 0 0 0 0 0 0 0 0 0 0 0 0 127 0" result="hardAlpha"/>
<feOffset/>
<feGaussianBlur stdDeviation="4.5"/>
<feColorMatrix type="matrix" values="0 0 0 0 0.760784 0 0 0 0 0.8 0 0 0 0 0.843137 0 0 0 0.16 0"/>
<feBlend mode="normal" in2="BackgroundImageFix" result="effect1_dropShadow_5273_21725"/>
<feBlend mode="normal" in="SourceGraphic" in2="effect1_dropShadow_5273_21725" result="shape"/>
</filter>
</defs>
</svg>
