<svg width="471" height="270" viewBox="0 0 471 270" fill="none" xmlns="http://www.w3.org/2000/svg">
<path d="M463 7L1 269H463V7Z" fill="url(#paint0_linear_5309_21370)"/>
<path d="M470.723 3.19967C470.833 2.8004 470.599 2.38734 470.2 2.27707L463.693 0.48006C463.294 0.369787 462.881 0.604061 462.771 1.00333C462.66 1.40259 462.895 1.81565 463.294 1.92593L469.077 3.52327L467.48 9.30673C467.37 9.706 467.604 10.1191 468.003 10.2293C468.403 10.3396 468.816 10.1053 468.926 9.70607L470.723 3.19967ZM1.37001 269.652L470.37 3.65238L469.63 2.34762L0.629995 268.348L1.37001 269.652Z" fill="white"/>
<path d="M56.408 105.12C55.7893 105.12 55.1067 105.067 54.36 104.96C53.6347 104.875 53.0373 104.768 52.568 104.64V102.272C53.464 102.549 54.424 102.688 55.448 102.688C56.9413 102.688 58.232 102.443 59.32 101.952C60.4293 101.461 61.272 100.8 61.848 99.968C62.424 99.136 62.712 98.2187 62.712 97.216C62.712 95.8507 62.3067 94.7947 61.496 94.048C60.6853 93.3013 59.48 92.9067 57.88 92.864L55.96 93.344L55.288 91.392C56.1627 91.2427 57.0267 90.976 57.88 90.592C59.1173 90.0373 60.0773 89.344 60.76 88.512C61.4427 87.6587 61.784 86.752 61.784 85.792C61.784 84.7253 61.4533 83.9467 60.792 83.456C60.152 82.9653 59.3307 82.72 58.328 82.72C57.3893 82.72 56.504 82.88 55.672 83.2C54.8613 83.52 54.168 83.9147 53.592 84.384L52.472 82.432C53.0907 81.8347 54.0933 81.248 55.48 80.672C56.888 80.096 58.3173 79.808 59.768 79.808C61.7947 79.808 63.4373 80.2453 64.696 81.12C65.976 81.9733 66.616 83.2747 66.616 85.024C66.616 86.56 66.0187 87.9147 64.824 89.088C63.6293 90.2613 62.168 91.1573 60.44 91.776C60.6533 91.7547 60.9733 91.744 61.4 91.744C63.2987 91.744 64.8347 92.224 66.008 93.184C67.2027 94.144 67.8 95.424 67.8 97.024C67.8213 98.56 67.3627 99.936 66.424 101.152C65.5067 102.389 64.184 103.36 62.456 104.064C60.728 104.768 58.712 105.12 56.408 105.12ZM79.653 100.32C76.9223 100.32 74.8317 99.4133 73.381 97.6C71.9517 95.7653 71.237 93.28 71.237 90.144C71.237 87.9253 71.653 86.048 72.485 84.512C73.317 82.9547 74.4157 81.792 75.781 81.024C77.1677 80.2347 78.7037 79.84 80.389 79.84C83.141 79.84 85.2103 80.7147 86.597 82.464C87.9837 84.192 88.677 86.6453 88.677 89.824C88.677 92.0213 88.2717 93.92 87.461 95.52C86.6717 97.0987 85.5943 98.2933 84.229 99.104C82.8637 99.9147 81.3383 100.32 79.653 100.32ZM79.973 98.4C81.317 98.4 82.2983 97.7173 82.917 96.352C83.557 94.9653 83.877 92.9067 83.877 90.176C83.877 87.2747 83.5783 85.152 82.981 83.808C82.405 82.4427 81.413 81.76 80.005 81.76C77.3597 81.76 76.037 84.4373 76.037 89.792C76.037 92.6507 76.3463 94.8053 76.965 96.256C77.605 97.6853 78.6077 98.4 79.973 98.4ZM111.372 75.968H114.348L104.076 100H101.132L111.372 75.968ZM98.3162 89.92C97.0576 89.92 95.9802 89.6213 95.0842 89.024C94.1882 88.4267 93.5056 87.616 93.0362 86.592C92.5669 85.568 92.3322 84.4373 92.3322 83.2C92.3322 81.7707 92.6202 80.5333 93.1962 79.488C93.7722 78.4213 94.5509 77.6107 95.5322 77.056C96.5349 76.5013 97.6442 76.224 98.8602 76.224C100.93 76.224 102.444 76.8427 103.404 78.08C104.386 79.3173 104.876 80.96 104.876 83.008C104.876 84.4373 104.578 85.6747 103.98 86.72C103.404 87.7653 102.615 88.5653 101.612 89.12C100.61 89.6533 99.5109 89.92 98.3162 89.92ZM98.5722 88C99.4683 88 100.119 87.5733 100.524 86.72C100.951 85.8453 101.164 84.6507 101.164 83.136C101.164 81.6853 100.962 80.5013 100.556 79.584C100.172 78.6453 99.5429 78.176 98.6682 78.176C97.7936 78.176 97.1429 78.6027 96.7162 79.456C96.2896 80.3093 96.0762 81.4933 96.0762 83.008C96.0762 84.3733 96.2789 85.5467 96.6842 86.528C97.0896 87.5093 97.7189 88 98.5722 88ZM116.652 99.552C115.415 99.552 114.338 99.2533 113.42 98.656C112.524 98.0373 111.842 97.2267 111.372 96.224C110.903 95.2 110.668 94.0693 110.668 92.832C110.668 91.4027 110.956 90.1653 111.532 89.12C112.108 88.0533 112.898 87.2427 113.9 86.688C114.903 86.1333 116.012 85.856 117.228 85.856C119.276 85.856 120.78 86.4747 121.74 87.712C122.722 88.9493 123.212 90.592 123.212 92.64C123.212 94.0693 122.914 95.3067 122.316 96.352C121.74 97.3973 120.951 98.1973 119.948 98.752C118.946 99.2853 117.847 99.552 116.652 99.552ZM116.908 97.6C117.804 97.6 118.455 97.1733 118.86 96.32C119.287 95.4667 119.5 94.2827 119.5 92.768C119.5 91.3387 119.298 90.1547 118.892 89.216C118.508 88.2773 117.89 87.808 117.036 87.808C116.14 87.808 115.479 88.2347 115.052 89.088C114.626 89.9413 114.412 91.1253 114.412 92.64C114.412 94.0053 114.615 95.1787 115.02 96.16C115.426 97.12 116.055 97.6 116.908 97.6Z" fill="white"/>
<path d="M15.7224 60L30.4449 85.5H1L15.7224 60Z" fill="white"/>
<rect x="12" y="85" width="7" height="20" fill="white"/>
<g filter="url(#filter0_d_5309_21370)">
<rect x="145" y="71.5635" width="32.937" height="32.937" rx="16.4685" fill="#A47807"/>
</g>
<g filter="url(#filter1_d_5309_21370)">
<rect x="147.252" y="71" width="32.937" height="32.937" rx="16.4685" fill="#EEAB00"/>
</g>
<path fill-rule="evenodd" clip-rule="evenodd" d="M164.043 78.3955C164.595 78.3955 165.043 78.8432 165.043 79.3955V95.9716C165.043 96.5239 164.595 96.9716 164.043 96.9716C163.491 96.9716 163.043 96.5239 163.043 95.9716V79.3955C163.043 78.8432 163.491 78.3955 164.043 78.3955Z" fill="white"/>
<path fill-rule="evenodd" clip-rule="evenodd" d="M158.523 85.0473C158.523 83.0385 160.152 81.4102 162.161 81.4102H167.811C168.364 81.4102 168.811 81.8579 168.811 82.4102C168.811 82.9624 168.364 83.4102 167.811 83.4102H162.161C161.256 83.4102 160.523 84.1431 160.523 85.0473C160.523 85.9514 161.256 86.6844 162.161 86.6844H165.928C167.937 86.6844 169.565 88.3128 169.565 90.3215C169.565 92.3302 167.937 93.9586 165.928 93.9586H159.523C158.971 93.9586 158.523 93.5109 158.523 92.9586C158.523 92.4063 158.971 91.9586 159.523 91.9586H165.928C166.832 91.9586 167.565 91.2256 167.565 90.3215C167.565 89.4173 166.832 88.6844 165.928 88.6844H162.161C160.152 88.6844 158.523 87.056 158.523 85.0473Z" fill="white"/>
<defs>
<filter id="filter0_d_5309_21370" x="136" y="62.5635" width="50.937" height="50.937" filterUnits="userSpaceOnUse" color-interpolation-filters="sRGB">
<feFlood flood-opacity="0" result="BackgroundImageFix"/>
<feColorMatrix in="SourceAlpha" type="matrix" values="0 0 0 0 0 0 0 0 0 0 0 0 0 0 0 0 0 0 127 0" result="hardAlpha"/>
<feOffset/>
<feGaussianBlur stdDeviation="4.5"/>
<feColorMatrix type="matrix" values="0 0 0 0 0.760784 0 0 0 0 0.8 0 0 0 0 0.843137 0 0 0 0.16 0"/>
<feBlend mode="normal" in2="BackgroundImageFix" result="effect1_dropShadow_5309_21370"/>
<feBlend mode="normal" in="SourceGraphic" in2="effect1_dropShadow_5309_21370" result="shape"/>
</filter>
<filter id="filter1_d_5309_21370" x="138.252" y="62" width="50.937" height="50.937" filterUnits="userSpaceOnUse" color-interpolation-filters="sRGB">
<feFlood flood-opacity="0" result="BackgroundImageFix"/>
<feColorMatrix in="SourceAlpha" type="matrix" values="0 0 0 0 0 0 0 0 0 0 0 0 0 0 0 0 0 0 127 0" result="hardAlpha"/>
<feOffset/>
<feGaussianBlur stdDeviation="4.5"/>
<feColorMatrix type="matrix" values="0 0 0 0 0.760784 0 0 0 0 0.8 0 0 0 0 0.843137 0 0 0 0.16 0"/>
<feBlend mode="normal" in2="BackgroundImageFix" result="effect1_dropShadow_5309_21370"/>
<feBlend mode="normal" in="SourceGraphic" in2="effect1_dropShadow_5309_21370" result="shape"/>
</filter>
<linearGradient id="paint0_linear_5309_21370" x1="251.292" y1="-2" x2="258.712" y2="268.964" gradientUnits="userSpaceOnUse">
<stop offset="0.0201533" stop-color="white"/>
<stop offset="1" stop-color="white" stop-opacity="0"/>
</linearGradient>
</defs>
</svg>
