<svg width="272" height="70" viewBox="0 0 272 70" fill="none" xmlns="http://www.w3.org/2000/svg">
<g filter="url(#filter0_i_3801_333)">
<path d="M51.9062 9.0625C52.6209 9.46208 53.2611 9.9647 53.8115 10.5469L53.4492 10.8906C53.9704 11.442 54.406 12.0694 54.7393 12.751L55.1875 12.5312C55.5394 13.2508 55.7848 14.0267 55.9082 14.8359L55.4141 14.9121C55.4705 15.2827 55.5 15.6608 55.5 16.0439V16.9922H56V18.8877H55.5V20.7832H56V22.6787H55.5V24.5742H56V26.4697H55.5V28.3652H56V30.2607H55.5V32.1562H56V34.0518H55.5V35C55.5 35.3207 55.4936 35.6397 55.4805 35.957L55.9766 35.9766C55.9495 36.6309 55.8965 37.278 55.8174 37.918L55.3232 37.8574C55.2447 38.493 55.1412 39.122 55.0137 39.7432L55.5 39.8428C55.3688 40.4818 55.2153 41.1132 55.0371 41.7363L54.5576 41.6006C54.382 42.2148 54.1836 42.8212 53.9648 43.4199L54.4316 43.5908C54.2084 44.2019 53.9645 44.8045 53.7012 45.3984L53.2461 45.1973C52.987 45.7818 52.7083 46.3578 52.4131 46.9258L52.8555 47.1562C52.5557 47.733 52.2385 48.3007 51.9062 48.8594L51.4785 48.6055C51.1508 49.1566 50.8076 49.699 50.4512 50.2324L50.8652 50.5088C50.5038 51.0498 50.1295 51.5816 49.7432 52.1035L49.3418 51.8076C48.9589 52.3249 48.5643 52.8328 48.1602 53.3311L48.5479 53.6445C48.1369 54.1513 47.7156 54.6474 47.2871 55.1338L46.9131 54.8047C46.4855 55.2901 46.0499 55.7657 45.6084 56.2305L45.9707 56.5732C45.5202 57.0475 45.0639 57.5109 44.6035 57.9629L44.2539 57.6074C43.7894 58.0635 43.3202 58.5075 42.8496 58.9404L43.1875 59.3076C42.7036 59.7528 42.2168 60.1844 41.7314 60.6045L41.4062 60.2295C40.911 60.6582 40.4159 61.0736 39.9238 61.4756L40.2383 61.8604C39.7247 62.2799 39.2143 62.6845 38.71 63.0742L38.4062 62.6807C37.8824 63.0855 37.3651 63.474 36.8574 63.8457L37.1504 64.2471C36.61 64.6428 36.082 65.0215 35.5674 65.3789L35.2822 64.9688C34.7274 65.3541 34.1901 65.7173 33.6748 66.0566L33.9492 66.4717C33.3716 66.8521 32.8221 67.204 32.3066 67.5254L32.043 67.1025C31.758 67.2802 31.4833 67.4483 31.2207 67.6074C30.9761 67.7556 30.7251 67.8863 30.4688 67.998L30.668 68.4561C30.1009 68.7032 29.5099 68.8673 28.9111 68.9502L28.8438 68.4561C28.2839 68.5337 27.7161 68.5337 27.1562 68.4561L27.0879 68.9502C26.4891 68.8672 25.8981 68.7032 25.3311 68.4561H25.332L25.5312 67.998C25.2749 67.8863 25.0239 67.7556 24.7793 67.6074L23.957 67.1025L23.6924 67.5254C23.1769 67.2039 22.6274 66.8521 22.0498 66.4717L22.3252 66.0566C21.8099 65.7173 21.2726 65.3541 20.7178 64.9688L20.4316 65.3789C19.917 65.0215 19.389 64.6428 18.8486 64.2471L19.1426 63.8457C18.6349 63.474 18.1176 63.0855 17.5938 62.6807L17.2891 63.0742C16.7847 62.6845 16.2743 62.2799 15.7607 61.8604L16.0762 61.4756C15.5841 61.0736 15.089 60.6582 14.5938 60.2295L14.2676 60.6045C13.7822 60.1844 13.2954 59.7528 12.8115 59.3076L13.1504 58.9404C12.6798 58.5075 12.2106 58.0635 11.7461 57.6074L11.3955 57.9629C10.9351 57.5109 10.4788 57.0475 10.0283 56.5732L10.3916 56.2305C9.95009 55.7657 9.5145 55.2901 9.08691 54.8047L8.71191 55.1338C8.28346 54.6474 7.86216 54.1513 7.45117 53.6445L7.83984 53.3311C7.43569 52.8328 7.04107 52.3249 6.6582 51.8076L6.25586 52.1035C5.86957 51.5816 5.4952 51.0498 5.13379 50.5088L5.54883 50.2324C5.19243 49.699 4.84921 49.1566 4.52148 48.6055L4.09277 48.8594C3.76054 48.3007 3.44333 47.733 3.14355 47.1562L3.58691 46.9258C3.29171 46.3578 3.01304 45.7818 2.75391 45.1973L2.29785 45.3984C2.03454 44.8045 1.79064 44.2018 1.56738 43.5908L2.03516 43.4199C1.81641 42.8212 1.61804 42.2148 1.44238 41.6006L0.961914 41.7363C0.783755 41.1133 0.630196 40.4817 0.499023 39.8428L0.986328 39.7432C0.858795 39.122 0.75533 38.493 0.676758 37.8574L0.181641 37.918C0.102553 37.278 0.0495104 36.6308 0.0224609 35.9766L0.519531 35.957C0.5064 35.6397 0.5 35.3207 0.5 35V34.0518H0V32.1562H0.5V30.2607H0V28.3652H0.5V26.4697H0V24.5742H0.5V22.6787H0V20.7832H0.5V18.8877H0V16.9922H0.5V16.0439C0.500003 15.6608 0.52948 15.2827 0.585938 14.9121L0.0908203 14.8359C0.214168 14.0268 0.459711 13.2507 0.811523 12.5312L1.26074 12.751C1.59402 12.0694 2.02961 11.442 2.55078 10.8906L2.1875 10.5469C2.73234 9.97049 3.36532 9.47189 4.07129 9.07422L4.09277 9.0625L4.33691 9.49902C4.66395 9.31612 5.00757 9.15599 5.36621 9.02148L6.36621 8.64648L6.19141 8.17871L8.19141 7.42871L8.36621 7.89648L10.3662 7.14648L10.1914 6.67871L12.1914 5.92871L12.3662 6.39648L14.3662 5.64648L14.1914 5.17871L16.1914 4.42871L16.3662 4.89648L18.3662 4.14648L18.1914 3.67871L20.1914 2.92871L20.3662 3.39648L22.3662 2.64648L22.1914 2.17871L24.1914 1.42871L24.3662 1.89648L25.3662 1.52148C25.789 1.36293 26.2232 1.24365 26.6621 1.16406L26.5723 0.671875C27.5159 0.500738 28.4831 0.500852 29.4268 0.671875L29.3379 1.16406C29.7768 1.24365 30.211 1.36293 30.6338 1.52148L31.6338 1.89648L31.8086 1.42871L33.8086 2.17871L33.6338 2.64648L35.6338 3.39648L35.8086 2.92871L37.8086 3.67871L37.6338 4.14648L39.6338 4.89648L39.8086 4.42871L41.8086 5.17871L41.6338 5.64648L43.6338 6.39648L43.8086 5.92871L45.8086 6.67871L45.6338 7.14648L47.6338 7.89648L47.8086 7.42871L49.8086 8.17871L49.6338 8.64648L50.6338 9.02148C50.9924 9.15599 51.3361 9.31612 51.6631 9.49902L51.9062 9.0625Z" stroke="#E2E8F0" stroke-dasharray="2 2"/>
</g>
<g filter="url(#filter1_i_3801_333)">
<path d="M24.5491 57.9979C26.6752 59.3472 29.3248 59.3472 31.4509 57.9979C37.1725 54.3666 48 46.0367 48 35V23.044C48 19.7092 45.9314 16.7243 42.809 15.5534L30.809 11.0534C28.9979 10.3742 27.0021 10.3742 25.191 11.0534L13.191 15.5534C10.0686 16.7243 8 19.7092 8 23.044V35C8 46.0367 18.8275 54.3666 24.5491 57.9979Z" fill="#EDF2F7"/>
</g>
<path d="M25.3662 11.5215C27.0641 10.8848 28.9359 10.8848 30.6338 11.5215L42.6338 16.0215C45.5609 17.1193 47.5 19.9177 47.5 23.0439V35C47.5 40.35 44.8746 45.079 41.4941 48.9473C38.1161 52.8127 34.0228 55.7736 31.1826 57.5762C29.2203 58.8213 26.7797 58.8213 24.8174 57.5762C21.9772 55.7736 17.8839 52.8127 14.5059 48.9473C11.1254 45.079 8.5 40.35 8.5 35V23.0439C8.50002 19.9177 10.4391 17.1193 13.3662 16.0215L25.3662 11.5215Z" stroke="#E2E8F0"/>
<path d="M27.9453 46.9926C35.4628 46.9926 41.5569 40.8756 41.5569 33.3298C41.5569 25.784 35.4628 19.667 27.9453 19.667C20.4278 19.667 14.3336 25.784 14.3336 33.3298C14.3336 40.8756 20.4278 46.9926 27.9453 46.9926Z" fill="white"/>
<path d="M18.525 29.9455L20.4 35.8395H20.4719L22.3507 29.9455H24.1689L21.4947 37.7031H19.381L16.703 29.9455H18.525ZM25.1026 37.7031V29.9455H28.1632C28.7516 29.9455 29.2529 30.0579 29.667 30.2827C30.0812 30.5049 30.3968 30.8142 30.614 31.2107C30.8337 31.6046 30.9435 32.0592 30.9435 32.5743C30.9435 33.0895 30.8324 33.544 30.6102 33.938C30.388 34.3319 30.066 34.6387 29.6443 34.8584C29.2251 35.0781 28.7175 35.188 28.1216 35.188H26.1708V33.8736H27.8564C28.1721 33.8736 28.4322 33.8193 28.6367 33.7107C28.8438 33.5996 28.9978 33.4468 29.0988 33.2524C29.2024 33.0554 29.2541 32.8294 29.2541 32.5743C29.2541 32.3168 29.2024 32.092 29.0988 31.9001C28.9978 31.7056 28.8438 31.5554 28.6367 31.4493C28.4296 31.3408 28.167 31.2865 27.8488 31.2865H26.7428V37.7031H25.1026ZM38.4975 29.9455V37.7031H37.0808L33.7058 32.8205H33.649V37.7031H32.0089V29.9455H33.4483L36.7968 34.8243H36.8649V29.9455H38.4975Z" fill="#38386C"/>
<path d="M18.3219 23.6689L37.5688 42.9882" stroke="#FC0035" stroke-width="0.666667" stroke-linecap="round" stroke-linejoin="round"/>
<g filter="url(#filter2_i_3801_333)">
<path d="M123.906 9.0625C124.621 9.46208 125.261 9.9647 125.812 10.5469L125.449 10.8906C125.97 11.442 126.406 12.0694 126.739 12.751L127.188 12.5312C127.539 13.2508 127.785 14.0267 127.908 14.8359L127.414 14.9121C127.471 15.2827 127.5 15.6608 127.5 16.0439V16.9922H128V18.8877H127.5V20.7832H128V22.6787H127.5V24.5742H128V26.4697H127.5V28.3652H128V30.2607H127.5V32.1562H128V34.0518H127.5V35C127.5 35.3207 127.494 35.6397 127.48 35.957L127.977 35.9766C127.95 36.6309 127.896 37.278 127.817 37.918L127.323 37.8574C127.245 38.493 127.141 39.122 127.014 39.7432L127.5 39.8428C127.369 40.4818 127.215 41.1132 127.037 41.7363L126.558 41.6006C126.382 42.2148 126.184 42.8212 125.965 43.4199L126.432 43.5908C126.208 44.2019 125.964 44.8045 125.701 45.3984L125.246 45.1973C124.987 45.7818 124.708 46.3578 124.413 46.9258L124.855 47.1562C124.556 47.733 124.239 48.3007 123.906 48.8594L123.479 48.6055C123.151 49.1566 122.808 49.699 122.451 50.2324L122.865 50.5088C122.504 51.0498 122.129 51.5816 121.743 52.1035L121.342 51.8076C120.959 52.3249 120.564 52.8328 120.16 53.3311L120.548 53.6445C120.137 54.1513 119.716 54.6474 119.287 55.1338L118.913 54.8047C118.486 55.2901 118.05 55.7657 117.608 56.2305L117.971 56.5732C117.52 57.0475 117.064 57.5109 116.604 57.9629L116.254 57.6074C115.789 58.0635 115.32 58.5075 114.85 58.9404L115.188 59.3076C114.704 59.7528 114.217 60.1844 113.731 60.6045L113.406 60.2295C112.911 60.6582 112.416 61.0736 111.924 61.4756L112.238 61.8604C111.725 62.2799 111.214 62.6845 110.71 63.0742L110.406 62.6807C109.882 63.0855 109.365 63.474 108.857 63.8457L109.15 64.2471C108.61 64.6428 108.082 65.0215 107.567 65.3789L107.282 64.9688C106.727 65.3541 106.19 65.7173 105.675 66.0566L105.949 66.4717C105.372 66.8521 104.822 67.204 104.307 67.5254L104.043 67.1025C103.758 67.2802 103.483 67.4483 103.221 67.6074C102.976 67.7556 102.725 67.8863 102.469 67.998L102.668 68.4561C102.101 68.7032 101.51 68.8673 100.911 68.9502L100.844 68.4561C100.284 68.5337 99.7161 68.5337 99.1562 68.4561L99.0879 68.9502C98.4891 68.8672 97.8981 68.7032 97.3311 68.4561H97.332L97.5312 67.998C97.2749 67.8863 97.0239 67.7556 96.7793 67.6074L95.957 67.1025L95.6924 67.5254C95.1769 67.2039 94.6274 66.8521 94.0498 66.4717L94.3252 66.0566C93.8099 65.7173 93.2726 65.3541 92.7178 64.9688L92.4316 65.3789C91.917 65.0215 91.389 64.6428 90.8486 64.2471L91.1426 63.8457C90.6349 63.474 90.1176 63.0855 89.5938 62.6807L89.2891 63.0742C88.7847 62.6845 88.2743 62.2799 87.7607 61.8604L88.0762 61.4756C87.5841 61.0736 87.089 60.6582 86.5938 60.2295L86.2676 60.6045C85.7822 60.1844 85.2954 59.7528 84.8115 59.3076L85.1504 58.9404C84.6798 58.5075 84.2106 58.0635 83.7461 57.6074L83.3955 57.9629C82.9351 57.5109 82.4788 57.0475 82.0283 56.5732L82.3916 56.2305C81.9501 55.7657 81.5145 55.2901 81.0869 54.8047L80.7119 55.1338C80.2835 54.6474 79.8622 54.1513 79.4512 53.6445L79.8398 53.3311C79.4357 52.8328 79.0411 52.3249 78.6582 51.8076L78.2559 52.1035C77.8696 51.5816 77.4952 51.0498 77.1338 50.5088L77.5488 50.2324C77.1924 49.699 76.8492 49.1566 76.5215 48.6055L76.0928 48.8594C75.7605 48.3007 75.4433 47.733 75.1436 47.1562L75.5869 46.9258C75.2917 46.3578 75.013 45.7818 74.7539 45.1973L74.2979 45.3984C74.0345 44.8045 73.7906 44.2018 73.5674 43.5908L74.0352 43.4199C73.8164 42.8212 73.618 42.2148 73.4424 41.6006L72.9619 41.7363C72.7838 41.1133 72.6302 40.4817 72.499 39.8428L72.9863 39.7432C72.8588 39.122 72.7553 38.493 72.6768 37.8574L72.1816 37.918C72.1026 37.278 72.0495 36.6308 72.0225 35.9766L72.5195 35.957C72.5064 35.6397 72.5 35.3207 72.5 35V34.0518H72V32.1562H72.5V30.2607H72V28.3652H72.5V26.4697H72V24.5742H72.5V22.6787H72V20.7832H72.5V18.8877H72V16.9922H72.5V16.0439C72.5 15.6608 72.5295 15.2827 72.5859 14.9121L72.0908 14.8359C72.2142 14.0268 72.4597 13.2507 72.8115 12.5312L73.2607 12.751C73.594 12.0694 74.0296 11.442 74.5508 10.8906L74.1875 10.5469C74.7323 9.97049 75.3653 9.47189 76.0713 9.07422L76.0928 9.0625L76.3369 9.49902C76.6639 9.31612 77.0076 9.15599 77.3662 9.02148L78.3662 8.64648L78.1914 8.17871L80.1914 7.42871L80.3662 7.89648L82.3662 7.14648L82.1914 6.67871L84.1914 5.92871L84.3662 6.39648L86.3662 5.64648L86.1914 5.17871L88.1914 4.42871L88.3662 4.89648L90.3662 4.14648L90.1914 3.67871L92.1914 2.92871L92.3662 3.39648L94.3662 2.64648L94.1914 2.17871L96.1914 1.42871L96.3662 1.89648L97.3662 1.52148C97.789 1.36293 98.2232 1.24365 98.6621 1.16406L98.5723 0.671875C99.5159 0.500738 100.483 0.500852 101.427 0.671875L101.338 1.16406C101.777 1.24365 102.211 1.36293 102.634 1.52148L103.634 1.89648L103.809 1.42871L105.809 2.17871L105.634 2.64648L107.634 3.39648L107.809 2.92871L109.809 3.67871L109.634 4.14648L111.634 4.89648L111.809 4.42871L113.809 5.17871L113.634 5.64648L115.634 6.39648L115.809 5.92871L117.809 6.67871L117.634 7.14648L119.634 7.89648L119.809 7.42871L121.809 8.17871L121.634 8.64648L122.634 9.02148C122.992 9.15599 123.336 9.31612 123.663 9.49902L123.906 9.0625Z" stroke="#E2E8F0" stroke-dasharray="2 2"/>
</g>
<g filter="url(#filter3_i_3801_333)">
<path d="M96.5491 57.9979C98.6752 59.3472 101.325 59.3472 103.451 57.9979C109.173 54.3666 120 46.0367 120 35V23.044C120 19.7092 117.931 16.7243 114.809 15.5534L102.809 11.0534C100.998 10.3742 99.0021 10.3742 97.191 11.0534L85.191 15.5534C82.0686 16.7243 80 19.7092 80 23.044V35C80 46.0367 90.8275 54.3666 96.5491 57.9979Z" fill="#EDF2F7"/>
</g>
<path d="M97.3662 11.5215C99.0641 10.8848 100.936 10.8848 102.634 11.5215L114.634 16.0215C117.561 17.1193 119.5 19.9177 119.5 23.0439V35C119.5 40.35 116.875 45.079 113.494 48.9473C110.116 52.8127 106.023 55.7736 103.183 57.5762C101.22 58.8213 98.7797 58.8213 96.8174 57.5762C93.9772 55.7736 89.8839 52.8127 86.5059 48.9473C83.1254 45.079 80.5 40.35 80.5 35V23.0439C80.5 19.9177 82.4391 17.1193 85.3662 16.0215L97.3662 11.5215Z" stroke="#E2E8F0"/>
<path d="M99.6117 47.3256C107.129 47.3256 113.223 41.2086 113.223 33.6628C113.223 26.1171 107.129 20 99.6117 20C92.0941 20 86 26.1171 86 33.6628C86 41.2086 92.0941 47.3256 99.6117 47.3256Z" fill="white"/>
<path d="M100.052 25.4101L99.5546 27.4007C100.26 25.9907 101.4 24.9331 102.707 24C101.753 25.099 100.882 26.198 100.363 27.3178C101.255 26.0529 102.458 25.3686 103.806 24.8917C102.001 26.4883 100.571 28.2302 99.4924 29.9513L98.6214 29.578C98.7666 28.1887 99.285 26.7786 100.052 25.4101Z" fill="#68B044"/>
<path d="M97.7504 29.2051L99.3886 29.8894C99.3886 30.3041 99.3471 31.5897 99.6167 31.963C102.354 35.4881 101.898 42.5799 99.0568 42.7458C94.7436 42.7458 93.0847 39.822 93.0847 37.1263C93.0847 34.6587 96.0293 33.0413 97.7919 31.5897C98.2688 31.1957 98.1859 30.3248 97.7504 29.2051Z" fill="#F5F8DE"/>
<path d="M99.3885 29.8682L99.9898 30.1792C99.9276 30.5732 100.011 31.4441 100.405 31.6515C102.146 32.7297 103.764 33.891 104.407 35.0729C106.688 39.1994 102.81 43.0356 99.4299 42.6623C101.255 41.3145 101.794 38.5359 101.11 35.4876C100.84 34.3057 100.405 33.2274 99.6373 32.004C99.3055 31.4441 99.4299 30.6976 99.3885 29.8682Z" fill="#7E4798"/>
<path d="M98.7251 31.8384C98.6007 32.4812 98.4555 33.6424 97.8956 34.0779C97.6675 34.2438 97.4187 34.4097 97.1698 34.5755C96.1537 35.2598 95.1584 35.9027 94.7022 37.5408C94.5985 37.8933 94.6815 38.2666 94.7644 38.6191C95.0132 39.6352 95.7183 40.7134 96.2782 41.3563C96.2782 41.377 96.3819 41.4599 96.3819 41.4807C96.8381 42.0198 96.9832 42.1857 98.7251 42.5797L98.6836 42.7663C97.626 42.4967 96.7758 42.2272 96.216 41.6051C96.216 41.5844 96.1123 41.5014 96.1123 41.5014C95.5317 40.8379 94.8059 39.7181 94.557 38.6606C94.4534 38.2458 94.3704 37.9141 94.4948 37.4786C94.9718 35.7782 96.0086 35.0939 97.0454 34.3889C97.2735 34.2438 97.5638 34.0986 97.7919 33.912C98.2689 33.6009 98.497 32.6264 98.7251 31.8384Z" fill="#010101"/>
<path d="M99.1804 34.5337C99.2011 35.2595 99.1182 35.6327 99.3048 36.1511C99.4085 36.4621 99.8025 36.8769 99.9062 37.2916C100.051 37.8307 100.217 38.4321 100.217 38.8053C100.217 39.2201 100.196 40.008 100.01 40.8375C99.8647 41.5218 99.5536 42.1231 99.0145 42.4549C98.4546 42.3512 97.8118 42.1438 97.4385 41.8121C96.692 41.1692 96.0492 40.091 95.9662 39.1578C95.904 38.3906 96.6091 37.2501 97.6044 36.6902C98.4339 36.1926 98.6412 35.6534 98.8279 34.7411C98.579 35.529 98.3302 36.1718 97.5215 36.6073C96.3395 37.2294 95.7381 38.2455 95.8003 39.2408C95.8833 40.5057 96.381 41.3559 97.3763 42.0402C97.791 42.3305 98.579 42.6415 99.0767 42.7245V42.6622C99.45 42.6 99.9269 41.978 100.176 41.1692C100.383 40.4227 100.466 39.4896 100.445 38.8883C100.425 38.5358 100.279 37.7893 99.9891 37.105C99.844 36.7317 99.5951 36.3585 99.45 36.0889C99.2633 35.7779 99.2633 35.1972 99.1804 34.5337Z" fill="#010101"/>
<path d="M99.0567 37.3755C99.0775 37.8732 99.2641 38.4952 99.347 39.1381C99.4093 39.615 99.3885 40.0919 99.3678 40.5066C99.347 40.9836 99.2019 41.8545 98.9738 42.2899C98.7664 42.1863 98.6835 42.0826 98.5383 41.9167C98.3724 41.6886 98.248 41.4398 98.1443 41.1702C98.0614 40.9628 97.9577 40.714 97.9162 40.4444C97.854 40.0297 97.8748 39.3662 98.3517 38.7026C98.7249 38.1635 98.8079 38.122 98.9323 37.5206C98.7664 38.0598 98.642 38.122 98.248 38.5782C97.8125 39.0759 97.7503 39.8223 97.7503 40.4237C97.7503 40.6725 97.854 40.9628 97.9577 41.2117C98.0614 41.4812 98.1651 41.7715 98.3102 41.9789C98.5383 42.3107 98.8286 42.518 98.9738 42.5388V42.518C99.2434 42.207 99.4093 41.9167 99.4715 41.6057C99.5337 41.2324 99.5544 40.8799 99.5959 40.4444C99.6374 40.0712 99.6166 39.5943 99.5129 39.0966C99.3885 38.4745 99.1604 37.8317 99.0567 37.3755Z" fill="#010101"/>
<path d="M99.1394 31.2583C99.1601 31.9841 99.2016 33.3319 99.409 33.8711C99.4712 34.0577 99.9896 34.8456 100.342 35.8202C100.591 36.4838 100.653 37.1059 100.695 37.2925C100.861 38.0805 100.653 39.4283 100.384 40.6932C100.238 41.3775 99.7615 42.2277 99.2223 42.5595L99.1187 42.7461C99.4297 42.7254 100.176 41.9996 100.446 41.0665C100.902 39.5113 101.068 38.7855 100.861 37.0437C100.84 36.8778 100.757 36.2972 100.487 35.6958C100.093 34.7627 99.5334 33.8711 99.4712 33.6844C99.326 33.3941 99.1601 32.1085 99.1394 31.2583Z" fill="#010101"/>
<path d="M99.3878 29.9316C99.3463 30.6781 99.3463 31.2588 99.4707 31.8186C99.6159 32.42 100.404 33.2909 100.736 34.2862C101.358 36.1939 101.192 38.6823 100.756 40.6107C100.59 41.295 99.8025 42.2904 98.9938 42.6014L99.5744 42.7466C99.8854 42.7258 100.715 41.9586 101.047 41.0877C101.565 39.6983 101.669 38.0602 101.461 36.3184C101.441 36.1525 101.171 34.6595 100.902 34.0374C100.528 33.1043 99.9269 32.4407 99.7196 31.8601C99.5537 31.4246 99.4914 30.2634 99.5951 30.0353L99.3878 29.9316Z" fill="#010101"/>
<path d="M103.536 33.6011C102.935 33.0619 102.188 32.6057 101.4 32.1703C101.048 31.9837 99.9693 31.1335 100.343 29.9308L97.6261 28.811L97.4395 28.9562C98.3519 30.5943 97.8749 31.4653 97.4187 31.7556C96.5063 32.3776 95.1792 33.1656 94.5364 33.8499C93.2714 35.1563 92.8982 36.4005 93.0226 38.0179C93.147 40.1122 94.6608 41.854 96.7137 42.5383C97.6054 42.8286 98.4348 42.8701 99.3472 42.8701C100.82 42.8701 102.354 42.4761 103.453 41.5637C104.635 40.5891 105.319 39.1169 105.319 37.6031C105.319 36.0894 104.677 34.6379 103.536 33.6011ZM103.142 41.2527C102.126 42.0821 100.301 42.6628 99.3265 42.6213C98.2482 42.5591 97.1906 42.3932 96.2575 41.937C94.6193 41.149 93.541 39.4279 93.4581 38.0386C93.3129 35.1978 94.6815 34.389 95.9465 33.3522C96.6515 32.7716 97.6468 32.4813 98.2067 31.4445C98.3104 31.2164 98.3726 30.7188 98.2482 30.2004C98.186 30.0137 97.9372 29.3916 97.8335 29.2465L99.8656 30.1381C99.6168 31.0713 100.384 32.0459 101.006 32.3984C101.628 32.7509 102.603 33.4145 103.204 33.9536C104.262 34.8867 104.801 36.2138 104.801 37.6031C104.801 38.9925 104.22 40.361 103.142 41.2527Z" fill="#010101"/>
<path d="M90.3217 23.6689L109.569 42.9882" stroke="#FC0035" stroke-width="0.666667" stroke-linecap="round" stroke-linejoin="round"/>
<g filter="url(#filter4_i_3801_333)">
<path d="M195.906 9.0625C196.621 9.46208 197.261 9.9647 197.812 10.5469L197.449 10.8906C197.97 11.442 198.406 12.0694 198.739 12.751L199.188 12.5312C199.539 13.2508 199.785 14.0267 199.908 14.8359L199.414 14.9121C199.471 15.2827 199.5 15.6608 199.5 16.0439V16.9922H200V18.8877H199.5V20.7832H200V22.6787H199.5V24.5742H200V26.4697H199.5V28.3652H200V30.2607H199.5V32.1562H200V34.0518H199.5V35C199.5 35.3207 199.494 35.6397 199.48 35.957L199.977 35.9766C199.95 36.6309 199.896 37.278 199.817 37.918L199.323 37.8574C199.245 38.493 199.141 39.122 199.014 39.7432L199.5 39.8428C199.369 40.4818 199.215 41.1132 199.037 41.7363L198.558 41.6006C198.382 42.2148 198.184 42.8212 197.965 43.4199L198.432 43.5908C198.208 44.2019 197.964 44.8045 197.701 45.3984L197.246 45.1973C196.987 45.7818 196.708 46.3578 196.413 46.9258L196.855 47.1562C196.556 47.733 196.239 48.3007 195.906 48.8594L195.479 48.6055C195.151 49.1566 194.808 49.699 194.451 50.2324L194.865 50.5088C194.504 51.0498 194.129 51.5816 193.743 52.1035L193.342 51.8076C192.959 52.3249 192.564 52.8328 192.16 53.3311L192.548 53.6445C192.137 54.1513 191.716 54.6474 191.287 55.1338L190.913 54.8047C190.486 55.2901 190.05 55.7657 189.608 56.2305L189.971 56.5732C189.52 57.0475 189.064 57.5109 188.604 57.9629L188.254 57.6074C187.789 58.0635 187.32 58.5075 186.85 58.9404L187.188 59.3076C186.704 59.7528 186.217 60.1844 185.731 60.6045L185.406 60.2295C184.911 60.6582 184.416 61.0736 183.924 61.4756L184.238 61.8604C183.725 62.2799 183.214 62.6845 182.71 63.0742L182.406 62.6807C181.882 63.0855 181.365 63.474 180.857 63.8457L181.15 64.2471C180.61 64.6428 180.082 65.0215 179.567 65.3789L179.282 64.9688C178.727 65.3541 178.19 65.7173 177.675 66.0566L177.949 66.4717C177.372 66.8521 176.822 67.204 176.307 67.5254L176.043 67.1025C175.758 67.2802 175.483 67.4483 175.221 67.6074C174.976 67.7556 174.725 67.8863 174.469 67.998L174.668 68.4561C174.101 68.7032 173.51 68.8673 172.911 68.9502L172.844 68.4561C172.284 68.5337 171.716 68.5337 171.156 68.4561L171.088 68.9502C170.489 68.8672 169.898 68.7032 169.331 68.4561H169.332L169.531 67.998C169.275 67.8863 169.024 67.7556 168.779 67.6074L167.957 67.1025L167.692 67.5254C167.177 67.2039 166.627 66.8521 166.05 66.4717L166.325 66.0566C165.81 65.7173 165.273 65.3541 164.718 64.9688L164.432 65.3789C163.917 65.0215 163.389 64.6428 162.849 64.2471L163.143 63.8457C162.635 63.474 162.118 63.0855 161.594 62.6807L161.289 63.0742C160.785 62.6845 160.274 62.2799 159.761 61.8604L160.076 61.4756C159.584 61.0736 159.089 60.6582 158.594 60.2295L158.268 60.6045C157.782 60.1844 157.295 59.7528 156.812 59.3076L157.15 58.9404C156.68 58.5075 156.211 58.0635 155.746 57.6074L155.396 57.9629C154.935 57.5109 154.479 57.0475 154.028 56.5732L154.392 56.2305C153.95 55.7657 153.514 55.2901 153.087 54.8047L152.712 55.1338C152.283 54.6474 151.862 54.1513 151.451 53.6445L151.84 53.3311C151.436 52.8328 151.041 52.3249 150.658 51.8076L150.256 52.1035C149.87 51.5816 149.495 51.0498 149.134 50.5088L149.549 50.2324C149.192 49.699 148.849 49.1566 148.521 48.6055L148.093 48.8594C147.761 48.3007 147.443 47.733 147.144 47.1562L147.587 46.9258C147.292 46.3578 147.013 45.7818 146.754 45.1973L146.298 45.3984C146.035 44.8045 145.791 44.2018 145.567 43.5908L146.035 43.4199C145.816 42.8212 145.618 42.2148 145.442 41.6006L144.962 41.7363C144.784 41.1133 144.63 40.4817 144.499 39.8428L144.986 39.7432C144.859 39.122 144.755 38.493 144.677 37.8574L144.182 37.918C144.103 37.278 144.05 36.6308 144.022 35.9766L144.52 35.957C144.506 35.6397 144.5 35.3207 144.5 35V34.0518H144V32.1562H144.5V30.2607H144V28.3652H144.5V26.4697H144V24.5742H144.5V22.6787H144V20.7832H144.5V18.8877H144V16.9922H144.5V16.0439C144.5 15.6608 144.529 15.2827 144.586 14.9121L144.091 14.8359C144.214 14.0268 144.46 13.2507 144.812 12.5312L145.261 12.751C145.594 12.0694 146.03 11.442 146.551 10.8906L146.188 10.5469C146.732 9.97049 147.365 9.47189 148.071 9.07422L148.093 9.0625L148.337 9.49902C148.664 9.31612 149.008 9.15599 149.366 9.02148L150.366 8.64648L150.191 8.17871L152.191 7.42871L152.366 7.89648L154.366 7.14648L154.191 6.67871L156.191 5.92871L156.366 6.39648L158.366 5.64648L158.191 5.17871L160.191 4.42871L160.366 4.89648L162.366 4.14648L162.191 3.67871L164.191 2.92871L164.366 3.39648L166.366 2.64648L166.191 2.17871L168.191 1.42871L168.366 1.89648L169.366 1.52148C169.789 1.36293 170.223 1.24365 170.662 1.16406L170.572 0.671875C171.516 0.500738 172.483 0.500852 173.427 0.671875L173.338 1.16406C173.777 1.24365 174.211 1.36293 174.634 1.52148L175.634 1.89648L175.809 1.42871L177.809 2.17871L177.634 2.64648L179.634 3.39648L179.809 2.92871L181.809 3.67871L181.634 4.14648L183.634 4.89648L183.809 4.42871L185.809 5.17871L185.634 5.64648L187.634 6.39648L187.809 5.92871L189.809 6.67871L189.634 7.14648L191.634 7.89648L191.809 7.42871L193.809 8.17871L193.634 8.64648L194.634 9.02148C194.992 9.15599 195.336 9.31612 195.663 9.49902L195.906 9.0625Z" stroke="#E2E8F0" stroke-dasharray="2 2"/>
</g>
<g filter="url(#filter5_i_3801_333)">
<path d="M168.549 57.9979C170.675 59.3472 173.325 59.3472 175.451 57.9979C181.173 54.3666 192 46.0367 192 35V23.044C192 19.7092 189.931 16.7243 186.809 15.5534L174.809 11.0534C172.998 10.3742 171.002 10.3742 169.191 11.0534L157.191 15.5534C154.069 16.7243 152 19.7092 152 23.044V35C152 46.0367 162.827 54.3666 168.549 57.9979Z" fill="#EDF2F7"/>
</g>
<path d="M169.366 11.5215C171.064 10.8848 172.936 10.8848 174.634 11.5215L186.634 16.0215C189.561 17.1193 191.5 19.9177 191.5 23.0439V35C191.5 40.35 188.875 45.079 185.494 48.9473C182.116 52.8127 178.023 55.7736 175.183 57.5762C173.22 58.8213 170.78 58.8213 168.817 57.5762C165.977 55.7736 161.884 52.8127 158.506 48.9473C155.125 45.079 152.5 40.35 152.5 35V23.0439C152.5 19.9177 154.439 17.1193 157.366 16.0215L169.366 11.5215Z" stroke="#E2E8F0"/>
<path d="M171.612 47.3256C179.129 47.3256 185.223 41.2086 185.223 33.6628C185.223 26.1171 179.129 20 171.612 20C164.094 20 158 26.1171 158 33.6628C158 41.2086 164.094 47.3256 171.612 47.3256Z" fill="white"/>
<path d="M167.645 30H167.653" stroke="#38386C" stroke-width="2" stroke-linecap="round" stroke-linejoin="round"/>
<path d="M167.645 38H167.653" stroke="#38386C" stroke-width="2" stroke-linecap="round" stroke-linejoin="round"/>
<rect x="164.979" y="27.3335" width="13.3333" height="5.33333" rx="1.33333" stroke="#38386C" stroke-width="1.2" stroke-linecap="round" stroke-linejoin="round"/>
<rect x="164.979" y="35.3335" width="13.3333" height="5.33333" rx="1.33333" stroke="#38386C" stroke-width="1.2" stroke-linecap="round" stroke-linejoin="round"/>
<path d="M162.322 23.6689L181.569 42.9882" stroke="#FC0035" stroke-width="0.666667" stroke-linecap="round" stroke-linejoin="round"/>
<g filter="url(#filter6_i_3801_333)">
<path d="M267.906 9.0625C268.621 9.46208 269.261 9.9647 269.812 10.5469L269.449 10.8906C269.97 11.442 270.406 12.0694 270.739 12.751L271.188 12.5312C271.539 13.2508 271.785 14.0267 271.908 14.8359L271.414 14.9121C271.471 15.2827 271.5 15.6608 271.5 16.0439V16.9922H272V18.8877H271.5V20.7832H272V22.6787H271.5V24.5742H272V26.4697H271.5V28.3652H272V30.2607H271.5V32.1562H272V34.0518H271.5V35C271.5 35.3207 271.494 35.6397 271.48 35.957L271.977 35.9766C271.95 36.6309 271.896 37.278 271.817 37.918L271.323 37.8574C271.245 38.493 271.141 39.122 271.014 39.7432L271.5 39.8428C271.369 40.4818 271.215 41.1132 271.037 41.7363L270.558 41.6006C270.382 42.2148 270.184 42.8212 269.965 43.4199L270.432 43.5908C270.208 44.2019 269.964 44.8045 269.701 45.3984L269.246 45.1973C268.987 45.7818 268.708 46.3578 268.413 46.9258L268.855 47.1562C268.556 47.733 268.239 48.3007 267.906 48.8594L267.479 48.6055C267.151 49.1566 266.808 49.699 266.451 50.2324L266.865 50.5088C266.504 51.0498 266.129 51.5816 265.743 52.1035L265.342 51.8076C264.959 52.3249 264.564 52.8328 264.16 53.3311L264.548 53.6445C264.137 54.1513 263.716 54.6474 263.287 55.1338L262.913 54.8047C262.486 55.2901 262.05 55.7657 261.608 56.2305L261.971 56.5732C261.52 57.0475 261.064 57.5109 260.604 57.9629L260.254 57.6074C259.789 58.0635 259.32 58.5075 258.85 58.9404L259.188 59.3076C258.704 59.7528 258.217 60.1844 257.731 60.6045L257.406 60.2295C256.911 60.6582 256.416 61.0736 255.924 61.4756L256.238 61.8604C255.725 62.2799 255.214 62.6845 254.71 63.0742L254.406 62.6807C253.882 63.0855 253.365 63.474 252.857 63.8457L253.15 64.2471C252.61 64.6428 252.082 65.0215 251.567 65.3789L251.282 64.9688C250.727 65.3541 250.19 65.7173 249.675 66.0566L249.949 66.4717C249.372 66.8521 248.822 67.204 248.307 67.5254L248.043 67.1025C247.758 67.2802 247.483 67.4483 247.221 67.6074C246.976 67.7556 246.725 67.8863 246.469 67.998L246.668 68.4561C246.101 68.7032 245.51 68.8673 244.911 68.9502L244.844 68.4561C244.284 68.5337 243.716 68.5337 243.156 68.4561L243.088 68.9502C242.489 68.8672 241.898 68.7032 241.331 68.4561H241.332L241.531 67.998C241.275 67.8863 241.024 67.7556 240.779 67.6074L239.957 67.1025L239.692 67.5254C239.177 67.2039 238.627 66.8521 238.05 66.4717L238.325 66.0566C237.81 65.7173 237.273 65.3541 236.718 64.9688L236.432 65.3789C235.917 65.0215 235.389 64.6428 234.849 64.2471L235.143 63.8457C234.635 63.474 234.118 63.0855 233.594 62.6807L233.289 63.0742C232.785 62.6845 232.274 62.2799 231.761 61.8604L232.076 61.4756C231.584 61.0736 231.089 60.6582 230.594 60.2295L230.268 60.6045C229.782 60.1844 229.295 59.7528 228.812 59.3076L229.15 58.9404C228.68 58.5075 228.211 58.0635 227.746 57.6074L227.396 57.9629C226.935 57.5109 226.479 57.0475 226.028 56.5732L226.392 56.2305C225.95 55.7657 225.514 55.2901 225.087 54.8047L224.712 55.1338C224.283 54.6474 223.862 54.1513 223.451 53.6445L223.84 53.3311C223.436 52.8328 223.041 52.3249 222.658 51.8076L222.256 52.1035C221.87 51.5816 221.495 51.0498 221.134 50.5088L221.549 50.2324C221.192 49.699 220.849 49.1566 220.521 48.6055L220.093 48.8594C219.761 48.3007 219.443 47.733 219.144 47.1562L219.587 46.9258C219.292 46.3578 219.013 45.7818 218.754 45.1973L218.298 45.3984C218.035 44.8045 217.791 44.2018 217.567 43.5908L218.035 43.4199C217.816 42.8212 217.618 42.2148 217.442 41.6006L216.962 41.7363C216.784 41.1133 216.63 40.4817 216.499 39.8428L216.986 39.7432C216.859 39.122 216.755 38.493 216.677 37.8574L216.182 37.918C216.103 37.278 216.05 36.6308 216.022 35.9766L216.52 35.957C216.506 35.6397 216.5 35.3207 216.5 35V34.0518H216V32.1562H216.5V30.2607H216V28.3652H216.5V26.4697H216V24.5742H216.5V22.6787H216V20.7832H216.5V18.8877H216V16.9922H216.5V16.0439C216.5 15.6608 216.529 15.2827 216.586 14.9121L216.091 14.8359C216.214 14.0268 216.46 13.2507 216.812 12.5312L217.261 12.751C217.594 12.0694 218.03 11.442 218.551 10.8906L218.188 10.5469C218.732 9.97049 219.365 9.47189 220.071 9.07422L220.093 9.0625L220.337 9.49902C220.664 9.31612 221.008 9.15599 221.366 9.02148L222.366 8.64648L222.191 8.17871L224.191 7.42871L224.366 7.89648L226.366 7.14648L226.191 6.67871L228.191 5.92871L228.366 6.39648L230.366 5.64648L230.191 5.17871L232.191 4.42871L232.366 4.89648L234.366 4.14648L234.191 3.67871L236.191 2.92871L236.366 3.39648L238.366 2.64648L238.191 2.17871L240.191 1.42871L240.366 1.89648L241.366 1.52148C241.789 1.36293 242.223 1.24365 242.662 1.16406L242.572 0.671875C243.516 0.500738 244.483 0.500852 245.427 0.671875L245.338 1.16406C245.777 1.24365 246.211 1.36293 246.634 1.52148L247.634 1.89648L247.809 1.42871L249.809 2.17871L249.634 2.64648L251.634 3.39648L251.809 2.92871L253.809 3.67871L253.634 4.14648L255.634 4.89648L255.809 4.42871L257.809 5.17871L257.634 5.64648L259.634 6.39648L259.809 5.92871L261.809 6.67871L261.634 7.14648L263.634 7.89648L263.809 7.42871L265.809 8.17871L265.634 8.64648L266.634 9.02148C266.992 9.15599 267.336 9.31612 267.663 9.49902L267.906 9.0625Z" stroke="#E2E8F0" stroke-dasharray="2 2"/>
</g>
<g filter="url(#filter7_i_3801_333)">
<path d="M240.549 57.9979C242.675 59.3472 245.325 59.3472 247.451 57.9979C253.173 54.3666 264 46.0367 264 35V23.044C264 19.7092 261.931 16.7243 258.809 15.5534L246.809 11.0534C244.998 10.3742 243.002 10.3742 241.191 11.0534L229.191 15.5534C226.069 16.7243 224 19.7092 224 23.044V35C224 46.0367 234.827 54.3666 240.549 57.9979Z" fill="#EDF2F7"/>
</g>
<path d="M241.366 11.5215C243.064 10.8848 244.936 10.8848 246.634 11.5215L258.634 16.0215C261.561 17.1193 263.5 19.9177 263.5 23.0439V35C263.5 40.35 260.875 45.079 257.494 48.9473C254.116 52.8127 250.023 55.7736 247.183 57.5762C245.22 58.8213 242.78 58.8213 240.817 57.5762C237.977 55.7736 233.884 52.8127 230.506 48.9473C227.125 45.079 224.5 40.35 224.5 35V23.0439C224.5 19.9177 226.439 17.1193 229.366 16.0215L241.366 11.5215Z" stroke="#E2E8F0"/>
<path d="M243.612 47.3256C251.129 47.3256 257.223 41.2086 257.223 33.6628C257.223 26.1171 251.129 20 243.612 20C236.094 20 230 26.1171 230 33.6628C230 41.2086 236.094 47.3256 243.612 47.3256Z" fill="white"/>
<path d="M239.146 39.0418C237.178 39.0418 235.583 37.4468 235.583 35.4793C235.583 33.624 237.002 32.0999 238.813 31.9322C239.184 29.6781 241.141 27.9585 243.5 27.9585C245.859 27.9585 247.816 29.6781 248.187 31.9322C249.998 32.0999 251.417 33.624 251.417 35.4793C251.417 37.4468 249.822 39.0418 247.854 39.0418C244.379 39.0418 242.188 39.0418 239.146 39.0418Z" stroke="#38386C" stroke-width="1.425" stroke-linecap="round" stroke-linejoin="round"/>
<path d="M234.322 23.6689L253.569 42.9882" stroke="#FC0035" stroke-width="0.666667" stroke-linecap="round" stroke-linejoin="round"/>
<defs>
<filter id="filter0_i_3801_333" x="0" y="0.543945" width="56.3333" height="69.4702" filterUnits="userSpaceOnUse" color-interpolation-filters="sRGB">
<feFlood flood-opacity="0" result="BackgroundImageFix"/>
<feBlend mode="normal" in="SourceGraphic" in2="BackgroundImageFix" result="shape"/>
<feColorMatrix in="SourceAlpha" type="matrix" values="0 0 0 0 0 0 0 0 0 0 0 0 0 0 0 0 0 0 127 0" result="hardAlpha"/>
<feMorphology radius="3.33333" operator="erode" in="SourceAlpha" result="effect1_innerShadow_3801_333"/>
<feOffset dx="0.333333" dy="1"/>
<feGaussianBlur stdDeviation="5.66667"/>
<feComposite in2="hardAlpha" operator="arithmetic" k2="-1" k3="1"/>
<feColorMatrix type="matrix" values="0 0 0 0 1 0 0 0 0 1 0 0 0 0 1 0 0 0 0.32 0"/>
<feBlend mode="normal" in2="shape" result="effect1_innerShadow_3801_333"/>
</filter>
<filter id="filter1_i_3801_333" x="8" y="10.5439" width="40.3333" height="49.4658" filterUnits="userSpaceOnUse" color-interpolation-filters="sRGB">
<feFlood flood-opacity="0" result="BackgroundImageFix"/>
<feBlend mode="normal" in="SourceGraphic" in2="BackgroundImageFix" result="shape"/>
<feColorMatrix in="SourceAlpha" type="matrix" values="0 0 0 0 0 0 0 0 0 0 0 0 0 0 0 0 0 0 127 0" result="hardAlpha"/>
<feMorphology radius="3.33333" operator="erode" in="SourceAlpha" result="effect1_innerShadow_3801_333"/>
<feOffset dx="0.333333" dy="1"/>
<feGaussianBlur stdDeviation="5.66667"/>
<feComposite in2="hardAlpha" operator="arithmetic" k2="-1" k3="1"/>
<feColorMatrix type="matrix" values="0 0 0 0 1 0 0 0 0 1 0 0 0 0 1 0 0 0 0.32 0"/>
<feBlend mode="normal" in2="shape" result="effect1_innerShadow_3801_333"/>
</filter>
<filter id="filter2_i_3801_333" x="72" y="0.543945" width="56.3333" height="69.4702" filterUnits="userSpaceOnUse" color-interpolation-filters="sRGB">
<feFlood flood-opacity="0" result="BackgroundImageFix"/>
<feBlend mode="normal" in="SourceGraphic" in2="BackgroundImageFix" result="shape"/>
<feColorMatrix in="SourceAlpha" type="matrix" values="0 0 0 0 0 0 0 0 0 0 0 0 0 0 0 0 0 0 127 0" result="hardAlpha"/>
<feMorphology radius="3.33333" operator="erode" in="SourceAlpha" result="effect1_innerShadow_3801_333"/>
<feOffset dx="0.333333" dy="1"/>
<feGaussianBlur stdDeviation="5.66667"/>
<feComposite in2="hardAlpha" operator="arithmetic" k2="-1" k3="1"/>
<feColorMatrix type="matrix" values="0 0 0 0 1 0 0 0 0 1 0 0 0 0 1 0 0 0 0.32 0"/>
<feBlend mode="normal" in2="shape" result="effect1_innerShadow_3801_333"/>
</filter>
<filter id="filter3_i_3801_333" x="80" y="10.5439" width="40.3333" height="49.4658" filterUnits="userSpaceOnUse" color-interpolation-filters="sRGB">
<feFlood flood-opacity="0" result="BackgroundImageFix"/>
<feBlend mode="normal" in="SourceGraphic" in2="BackgroundImageFix" result="shape"/>
<feColorMatrix in="SourceAlpha" type="matrix" values="0 0 0 0 0 0 0 0 0 0 0 0 0 0 0 0 0 0 127 0" result="hardAlpha"/>
<feMorphology radius="3.33333" operator="erode" in="SourceAlpha" result="effect1_innerShadow_3801_333"/>
<feOffset dx="0.333333" dy="1"/>
<feGaussianBlur stdDeviation="5.66667"/>
<feComposite in2="hardAlpha" operator="arithmetic" k2="-1" k3="1"/>
<feColorMatrix type="matrix" values="0 0 0 0 1 0 0 0 0 1 0 0 0 0 1 0 0 0 0.32 0"/>
<feBlend mode="normal" in2="shape" result="effect1_innerShadow_3801_333"/>
</filter>
<filter id="filter4_i_3801_333" x="144" y="0.543945" width="56.3333" height="69.4702" filterUnits="userSpaceOnUse" color-interpolation-filters="sRGB">
<feFlood flood-opacity="0" result="BackgroundImageFix"/>
<feBlend mode="normal" in="SourceGraphic" in2="BackgroundImageFix" result="shape"/>
<feColorMatrix in="SourceAlpha" type="matrix" values="0 0 0 0 0 0 0 0 0 0 0 0 0 0 0 0 0 0 127 0" result="hardAlpha"/>
<feMorphology radius="3.33333" operator="erode" in="SourceAlpha" result="effect1_innerShadow_3801_333"/>
<feOffset dx="0.333333" dy="1"/>
<feGaussianBlur stdDeviation="5.66667"/>
<feComposite in2="hardAlpha" operator="arithmetic" k2="-1" k3="1"/>
<feColorMatrix type="matrix" values="0 0 0 0 1 0 0 0 0 1 0 0 0 0 1 0 0 0 0.32 0"/>
<feBlend mode="normal" in2="shape" result="effect1_innerShadow_3801_333"/>
</filter>
<filter id="filter5_i_3801_333" x="152" y="10.5439" width="40.3333" height="49.4658" filterUnits="userSpaceOnUse" color-interpolation-filters="sRGB">
<feFlood flood-opacity="0" result="BackgroundImageFix"/>
<feBlend mode="normal" in="SourceGraphic" in2="BackgroundImageFix" result="shape"/>
<feColorMatrix in="SourceAlpha" type="matrix" values="0 0 0 0 0 0 0 0 0 0 0 0 0 0 0 0 0 0 127 0" result="hardAlpha"/>
<feMorphology radius="3.33333" operator="erode" in="SourceAlpha" result="effect1_innerShadow_3801_333"/>
<feOffset dx="0.333333" dy="1"/>
<feGaussianBlur stdDeviation="5.66667"/>
<feComposite in2="hardAlpha" operator="arithmetic" k2="-1" k3="1"/>
<feColorMatrix type="matrix" values="0 0 0 0 1 0 0 0 0 1 0 0 0 0 1 0 0 0 0.32 0"/>
<feBlend mode="normal" in2="shape" result="effect1_innerShadow_3801_333"/>
</filter>
<filter id="filter6_i_3801_333" x="216" y="0.543945" width="56.3333" height="69.4702" filterUnits="userSpaceOnUse" color-interpolation-filters="sRGB">
<feFlood flood-opacity="0" result="BackgroundImageFix"/>
<feBlend mode="normal" in="SourceGraphic" in2="BackgroundImageFix" result="shape"/>
<feColorMatrix in="SourceAlpha" type="matrix" values="0 0 0 0 0 0 0 0 0 0 0 0 0 0 0 0 0 0 127 0" result="hardAlpha"/>
<feMorphology radius="3.33333" operator="erode" in="SourceAlpha" result="effect1_innerShadow_3801_333"/>
<feOffset dx="0.333333" dy="1"/>
<feGaussianBlur stdDeviation="5.66667"/>
<feComposite in2="hardAlpha" operator="arithmetic" k2="-1" k3="1"/>
<feColorMatrix type="matrix" values="0 0 0 0 1 0 0 0 0 1 0 0 0 0 1 0 0 0 0.32 0"/>
<feBlend mode="normal" in2="shape" result="effect1_innerShadow_3801_333"/>
</filter>
<filter id="filter7_i_3801_333" x="224" y="10.5439" width="40.3333" height="49.4658" filterUnits="userSpaceOnUse" color-interpolation-filters="sRGB">
<feFlood flood-opacity="0" result="BackgroundImageFix"/>
<feBlend mode="normal" in="SourceGraphic" in2="BackgroundImageFix" result="shape"/>
<feColorMatrix in="SourceAlpha" type="matrix" values="0 0 0 0 0 0 0 0 0 0 0 0 0 0 0 0 0 0 127 0" result="hardAlpha"/>
<feMorphology radius="3.33333" operator="erode" in="SourceAlpha" result="effect1_innerShadow_3801_333"/>
<feOffset dx="0.333333" dy="1"/>
<feGaussianBlur stdDeviation="5.66667"/>
<feComposite in2="hardAlpha" operator="arithmetic" k2="-1" k3="1"/>
<feColorMatrix type="matrix" values="0 0 0 0 1 0 0 0 0 1 0 0 0 0 1 0 0 0 0.32 0"/>
<feBlend mode="normal" in2="shape" result="effect1_innerShadow_3801_333"/>
</filter>
</defs>
</svg>
