<svg width="439" height="272" viewBox="0 0 439 272" fill="none" xmlns="http://www.w3.org/2000/svg">
<g filter="url(#filter0_d_7543_32617)">
<rect x="32" y="36" width="200" height="200" rx="100" fill="white"/>
</g>
<rect x="82" y="86" width="100" height="100" rx="24" fill="black"/>
<path d="M131.571 164.571C129.374 164.571 127.18 163.737 125.502 162.071L123.416 159.985C122.608 159.18 121.525 158.734 120.376 158.731H117.442C112.699 158.731 108.838 154.871 108.838 150.128V147.19C108.835 146.044 108.39 144.962 107.581 144.147L105.529 142.098C102.169 138.758 102.155 133.298 105.498 129.935L107.584 127.846C108.39 127.037 108.835 125.955 108.838 124.806V121.874C108.838 117.128 112.699 113.268 117.442 113.268H120.379C121.525 113.268 122.605 112.822 123.419 112.008L125.474 109.959C128.814 106.599 134.271 106.582 137.637 109.928L139.723 112.014C140.535 112.822 141.615 113.268 142.761 113.268H145.698C150.441 113.268 154.301 117.128 154.301 121.874V124.809C154.304 125.955 154.75 127.037 155.559 127.852L157.61 129.903C159.236 131.521 160.136 133.675 160.145 135.975C160.15 138.261 159.27 140.413 157.667 142.038C157.639 142.067 157.613 142.098 157.584 142.124L155.556 144.153C154.75 144.962 154.304 146.044 154.301 147.193V150.128C154.301 154.871 150.441 158.731 145.698 158.731H142.761C141.615 158.734 140.532 159.18 139.72 159.988L137.666 162.04C135.992 163.726 133.78 164.571 131.571 164.571Z" fill="white"/>
<path fill-rule="evenodd" clip-rule="evenodd" d="M125.982 130.435C125.511 130.906 124.899 131.16 124.222 131.16C123.588 131.16 122.965 130.9 122.465 130.432C121.99 129.96 121.722 129.315 121.722 128.66C121.722 128.037 121.985 127.397 122.447 126.903C122.702 126.646 123.005 126.452 123.308 126.349C124.17 125.954 125.316 126.186 125.996 126.9C126.239 127.143 126.425 127.409 126.548 127.686C126.682 127.983 126.751 128.32 126.751 128.66C126.751 129.34 126.479 129.972 125.982 130.435ZM140.694 126.893C139.72 125.922 138.134 125.922 137.16 126.893L122.473 141.58C121.499 142.554 121.499 144.14 122.473 145.117C122.947 145.589 123.573 145.849 124.242 145.849C124.91 145.849 125.536 145.589 126.007 145.117L140.694 130.431C141.669 129.453 141.669 127.87 140.694 126.893ZM139.88 141.046C138.954 140.658 137.857 140.869 137.125 141.601C136.974 141.778 136.759 142.052 136.614 142.375C136.459 142.724 136.439 143.098 136.439 143.349C136.439 143.601 136.459 143.972 136.614 144.321C136.757 144.641 136.928 144.901 137.154 145.127C137.671 145.607 138.271 145.85 138.94 145.85C139.574 145.85 140.197 145.592 140.708 145.115C141.163 144.661 141.411 144.032 141.411 143.349C141.411 142.664 141.163 142.038 140.705 141.581C140.454 141.332 140.151 141.138 139.88 141.046Z" fill="black"/>
<g filter="url(#filter1_d_7543_32617)">
<rect x="212" y="36" width="200" height="200" rx="100" fill="white"/>
</g>
<rect x="262" y="86" width="100" height="100" rx="24" fill="#4B2AAD"/>
<path fill-rule="evenodd" clip-rule="evenodd" d="M291 109.01C291 108.439 291.465 107.976 292.04 107.976H304.285C304.86 107.976 305.325 108.439 305.325 109.01V111.765C305.325 111.765 309.042 108.627 313.543 107.569C314.8 107.19 316.182 107 317.69 107C320.102 107 322.39 107.542 324.551 108.627C326.762 109.657 328.698 111.149 330.356 113.101C332.015 115.053 333.322 117.439 334.277 120.26C335.282 123.079 335.785 126.252 335.785 129.777V129.94C335.785 133.519 335.282 136.746 334.277 139.62C333.322 142.44 332.015 144.853 330.356 146.86C328.748 148.812 326.838 150.33 324.626 151.415C322.465 152.446 320.178 152.961 317.765 152.961C317.765 152.961 308.326 152.961 305.268 149.486V163.966C305.268 164.537 304.803 165 304.229 165H292.04C291.465 165 291 164.537 291 163.966V109.01ZM316.634 139.294C315.629 139.783 314.548 140.027 313.392 140.027C312.236 140.027 311.13 139.783 310.075 139.294C309.07 138.806 308.19 138.129 307.436 137.261C306.682 136.339 306.079 135.281 305.627 134.088C305.224 132.841 305.023 131.485 305.023 130.021V129.858C305.023 128.394 305.224 127.065 305.627 125.872C306.079 124.625 306.682 123.568 307.436 122.7C308.19 121.778 309.07 121.073 310.075 120.585C311.13 120.097 312.236 119.853 313.392 119.853C314.548 119.853 315.629 120.097 316.634 120.585C317.64 121.073 318.519 121.778 319.273 122.7C320.027 123.568 320.63 124.625 321.083 125.872C321.535 127.065 321.761 128.394 321.761 129.858V130.021C321.761 131.485 321.535 132.841 321.083 134.088C320.63 135.336 320.027 136.393 319.273 137.261C318.519 138.129 317.64 138.806 316.634 139.294Z" fill="white"/>
<defs>
<filter id="filter0_d_7543_32617" x="0" y="0" width="264" height="264" filterUnits="userSpaceOnUse" color-interpolation-filters="sRGB">
<feFlood flood-opacity="0" result="BackgroundImageFix"/>
<feColorMatrix in="SourceAlpha" type="matrix" values="0 0 0 0 0 0 0 0 0 0 0 0 0 0 0 0 0 0 127 0" result="hardAlpha"/>
<feOffset dy="-4"/>
<feGaussianBlur stdDeviation="16"/>
<feComposite in2="hardAlpha" operator="out"/>
<feColorMatrix type="matrix" values="0 0 0 0 0 0 0 0 0 0 0 0 0 0 0 0 0 0 0.1 0"/>
<feBlend mode="normal" in2="BackgroundImageFix" result="effect1_dropShadow_7543_32617"/>
<feBlend mode="normal" in="SourceGraphic" in2="effect1_dropShadow_7543_32617" result="shape"/>
</filter>
<filter id="filter1_d_7543_32617" x="175" y="8" width="264" height="264" filterUnits="userSpaceOnUse" color-interpolation-filters="sRGB">
<feFlood flood-opacity="0" result="BackgroundImageFix"/>
<feColorMatrix in="SourceAlpha" type="matrix" values="0 0 0 0 0 0 0 0 0 0 0 0 0 0 0 0 0 0 127 0" result="hardAlpha"/>
<feOffset dx="-5" dy="4"/>
<feGaussianBlur stdDeviation="16"/>
<feComposite in2="hardAlpha" operator="out"/>
<feColorMatrix type="matrix" values="0 0 0 0 0.168627 0 0 0 0 0.454902 0 0 0 0 0.905882 0 0 0 0.1 0"/>
<feBlend mode="normal" in2="BackgroundImageFix" result="effect1_dropShadow_7543_32617"/>
<feBlend mode="normal" in="SourceGraphic" in2="effect1_dropShadow_7543_32617" result="shape"/>
</filter>
</defs>
</svg>
