<svg width="439" height="272" viewBox="0 0 439 272" fill="none" xmlns="http://www.w3.org/2000/svg">
<g filter="url(#filter0_d_5619_20565)">
<rect x="32" y="36" width="200" height="200" rx="100" fill="white"/>
</g>
<rect x="82" y="86" width="100" height="100" rx="24" fill="black"/>
<path d="M131.571 164.571C129.374 164.571 127.18 163.737 125.502 162.071L123.416 159.985C122.608 159.18 121.525 158.734 120.376 158.731H117.442C112.699 158.731 108.838 154.871 108.838 150.128V147.19C108.835 146.044 108.39 144.962 107.581 144.147L105.529 142.098C102.169 138.758 102.155 133.298 105.498 129.935L107.584 127.846C108.39 127.037 108.835 125.955 108.838 124.806V121.874C108.838 117.128 112.699 113.268 117.442 113.268H120.379C121.525 113.268 122.605 112.822 123.419 112.008L125.474 109.959C128.814 106.599 134.271 106.582 137.637 109.928L139.723 112.014C140.535 112.822 141.615 113.268 142.761 113.268H145.698C150.441 113.268 154.301 117.128 154.301 121.874V124.809C154.304 125.955 154.75 127.037 155.559 127.852L157.61 129.903C159.236 131.521 160.136 133.675 160.145 135.975C160.15 138.261 159.27 140.413 157.667 142.038C157.639 142.067 157.613 142.098 157.584 142.124L155.556 144.153C154.75 144.962 154.304 146.044 154.301 147.193V150.128C154.301 154.871 150.441 158.731 145.698 158.731H142.761C141.615 158.734 140.532 159.18 139.72 159.988L137.666 162.04C135.992 163.726 133.78 164.571 131.571 164.571Z" fill="white"/>
<path fill-rule="evenodd" clip-rule="evenodd" d="M125.982 130.435C125.511 130.906 124.899 131.16 124.222 131.16C123.588 131.16 122.965 130.9 122.465 130.432C121.99 129.96 121.722 129.315 121.722 128.66C121.722 128.037 121.985 127.397 122.447 126.903C122.702 126.646 123.005 126.452 123.308 126.349C124.17 125.954 125.316 126.186 125.996 126.9C126.239 127.143 126.425 127.409 126.548 127.686C126.682 127.983 126.751 128.32 126.751 128.66C126.751 129.34 126.479 129.972 125.982 130.435ZM140.694 126.893C139.72 125.922 138.134 125.922 137.16 126.893L122.473 141.58C121.499 142.554 121.499 144.14 122.473 145.117C122.947 145.589 123.573 145.849 124.242 145.849C124.91 145.849 125.536 145.589 126.007 145.117L140.694 130.431C141.669 129.453 141.669 127.87 140.694 126.893ZM139.88 141.046C138.954 140.658 137.857 140.869 137.125 141.601C136.974 141.778 136.759 142.052 136.614 142.375C136.459 142.724 136.439 143.098 136.439 143.349C136.439 143.601 136.459 143.972 136.614 144.321C136.757 144.641 136.928 144.901 137.154 145.127C137.671 145.607 138.271 145.85 138.94 145.85C139.574 145.85 140.197 145.592 140.708 145.115C141.163 144.661 141.411 144.032 141.411 143.349C141.411 142.664 141.163 142.038 140.705 141.581C140.454 141.332 140.151 141.138 139.88 141.046Z" fill="black"/>
<g filter="url(#filter1_d_5619_20565)">
<rect x="212" y="36" width="200" height="200" rx="100" fill="white"/>
</g>
<rect x="262" y="86" width="100" height="100" rx="24" fill="#625BF6"/>
<path fill-rule="evenodd" clip-rule="evenodd" d="M309.699 122.432C309.699 119.887 311.779 118.909 315.225 118.909C320.166 118.909 326.407 120.409 331.348 123.084V107.751C325.952 105.598 320.621 104.75 315.225 104.75C302.027 104.75 293.25 111.666 293.25 123.215C293.25 141.223 317.955 138.352 317.955 146.117C317.955 149.118 315.355 150.097 311.714 150.097C306.318 150.097 299.426 147.878 293.965 144.877V160.406C300.012 163.016 306.123 164.125 311.714 164.125C325.237 164.125 334.534 157.405 334.534 145.725C334.469 126.282 309.699 129.74 309.699 122.432Z" fill="white"/>
<defs>
<filter id="filter0_d_5619_20565" x="0" y="0" width="264" height="264" filterUnits="userSpaceOnUse" color-interpolation-filters="sRGB">
<feFlood flood-opacity="0" result="BackgroundImageFix"/>
<feColorMatrix in="SourceAlpha" type="matrix" values="0 0 0 0 0 0 0 0 0 0 0 0 0 0 0 0 0 0 127 0" result="hardAlpha"/>
<feOffset dy="-4"/>
<feGaussianBlur stdDeviation="16"/>
<feComposite in2="hardAlpha" operator="out"/>
<feColorMatrix type="matrix" values="0 0 0 0 0 0 0 0 0 0 0 0 0 0 0 0 0 0 0.1 0"/>
<feBlend mode="normal" in2="BackgroundImageFix" result="effect1_dropShadow_5619_20565"/>
<feBlend mode="normal" in="SourceGraphic" in2="effect1_dropShadow_5619_20565" result="shape"/>
</filter>
<filter id="filter1_d_5619_20565" x="175" y="8" width="264" height="264" filterUnits="userSpaceOnUse" color-interpolation-filters="sRGB">
<feFlood flood-opacity="0" result="BackgroundImageFix"/>
<feColorMatrix in="SourceAlpha" type="matrix" values="0 0 0 0 0 0 0 0 0 0 0 0 0 0 0 0 0 0 127 0" result="hardAlpha"/>
<feOffset dx="-5" dy="4"/>
<feGaussianBlur stdDeviation="16"/>
<feComposite in2="hardAlpha" operator="out"/>
<feColorMatrix type="matrix" values="0 0 0 0 0.168627 0 0 0 0 0.454902 0 0 0 0 0.905882 0 0 0 0.1 0"/>
<feBlend mode="normal" in2="BackgroundImageFix" result="effect1_dropShadow_5619_20565"/>
<feBlend mode="normal" in="SourceGraphic" in2="effect1_dropShadow_5619_20565" result="shape"/>
</filter>
</defs>
</svg>
